G04 #@! TF.GenerationSoftware,KiCad,Pcbnew,(5.1.12)-1*
G04 #@! TF.CreationDate,2022-10-05T17:54:17-05:00*
G04 #@! TF.ProjectId,cpu,6370752e-6b69-4636-9164-5f7063625858,rev?*
G04 #@! TF.SameCoordinates,Original*
G04 #@! TF.FileFunction,Soldermask,Top*
G04 #@! TF.FilePolarity,Negative*
%FSLAX46Y46*%
G04 Gerber Fmt 4.6, Leading zero omitted, Abs format (unit mm)*
G04 Created by KiCad (PCBNEW (5.1.12)-1) date 2022-10-05 17:54:17*
%MOMM*%
%LPD*%
G01*
G04 APERTURE LIST*
%ADD10O,1.700000X1.700000*%
%ADD11R,1.700000X1.700000*%
%ADD12C,1.600000*%
%ADD13O,1.600000X1.600000*%
%ADD14R,2.400000X1.600000*%
%ADD15O,2.400000X1.600000*%
G04 APERTURE END LIST*
D10*
X158750000Y-96520000D03*
X156210000Y-96520000D03*
X158750000Y-93980000D03*
X156210000Y-93980000D03*
X158750000Y-91440000D03*
X156210000Y-91440000D03*
X158750000Y-88900000D03*
X156210000Y-88900000D03*
X158750000Y-86360000D03*
X156210000Y-86360000D03*
X158750000Y-83820000D03*
X156210000Y-83820000D03*
X158750000Y-81280000D03*
X156210000Y-81280000D03*
X158750000Y-78740000D03*
X156210000Y-78740000D03*
X158750000Y-76200000D03*
X156210000Y-76200000D03*
X158750000Y-73660000D03*
X156210000Y-73660000D03*
X158750000Y-71120000D03*
X156210000Y-71120000D03*
X158750000Y-68580000D03*
X156210000Y-68580000D03*
X158750000Y-66040000D03*
X156210000Y-66040000D03*
X158750000Y-63500000D03*
X156210000Y-63500000D03*
X158750000Y-60960000D03*
X156210000Y-60960000D03*
X158750000Y-58420000D03*
X156210000Y-58420000D03*
X158750000Y-55880000D03*
X156210000Y-55880000D03*
X158750000Y-53340000D03*
X156210000Y-53340000D03*
X158750000Y-50800000D03*
X156210000Y-50800000D03*
X158750000Y-48260000D03*
D11*
X156210000Y-48260000D03*
D12*
X116840000Y-50800000D03*
D13*
X116840000Y-60960000D03*
D14*
X126695000Y-48565000D03*
D15*
X141935000Y-96825000D03*
X126695000Y-51105000D03*
X141935000Y-94285000D03*
X126695000Y-53645000D03*
X141935000Y-91745000D03*
X126695000Y-56185000D03*
X141935000Y-89205000D03*
X126695000Y-58725000D03*
X141935000Y-86665000D03*
X126695000Y-61265000D03*
X141935000Y-84125000D03*
X126695000Y-63805000D03*
X141935000Y-81585000D03*
X126695000Y-66345000D03*
X141935000Y-79045000D03*
X126695000Y-68885000D03*
X141935000Y-76505000D03*
X126695000Y-71425000D03*
X141935000Y-73965000D03*
X126695000Y-73965000D03*
X141935000Y-71425000D03*
X126695000Y-76505000D03*
X141935000Y-68885000D03*
X126695000Y-79045000D03*
X141935000Y-66345000D03*
X126695000Y-81585000D03*
X141935000Y-63805000D03*
X126695000Y-84125000D03*
X141935000Y-61265000D03*
X126695000Y-86665000D03*
X141935000Y-58725000D03*
X126695000Y-89205000D03*
X141935000Y-56185000D03*
X126695000Y-91745000D03*
X141935000Y-53645000D03*
X126695000Y-94285000D03*
X141935000Y-51105000D03*
X126695000Y-96825000D03*
X141935000Y-48565000D03*
D12*
X119380000Y-69850000D03*
X119380000Y-67350000D03*
M02*
