G04 #@! TF.GenerationSoftware,KiCad,Pcbnew,(5.1.12)-1*
G04 #@! TF.CreationDate,2022-10-05T17:54:17-05:00*
G04 #@! TF.ProjectId,cpu,6370752e-6b69-4636-9164-5f7063625858,rev?*
G04 #@! TF.SameCoordinates,Original*
G04 #@! TF.FileFunction,Copper,L1,Top*
G04 #@! TF.FilePolarity,Positive*
%FSLAX46Y46*%
G04 Gerber Fmt 4.6, Leading zero omitted, Abs format (unit mm)*
G04 Created by KiCad (PCBNEW (5.1.12)-1) date 2022-10-05 17:54:17*
%MOMM*%
%LPD*%
G01*
G04 APERTURE LIST*
G04 #@! TA.AperFunction,ComponentPad*
%ADD10O,1.700000X1.700000*%
G04 #@! TD*
G04 #@! TA.AperFunction,ComponentPad*
%ADD11R,1.700000X1.700000*%
G04 #@! TD*
G04 #@! TA.AperFunction,ComponentPad*
%ADD12C,1.600000*%
G04 #@! TD*
G04 #@! TA.AperFunction,ComponentPad*
%ADD13O,1.600000X1.600000*%
G04 #@! TD*
G04 #@! TA.AperFunction,ComponentPad*
%ADD14R,2.400000X1.600000*%
G04 #@! TD*
G04 #@! TA.AperFunction,ComponentPad*
%ADD15O,2.400000X1.600000*%
G04 #@! TD*
G04 #@! TA.AperFunction,ViaPad*
%ADD16C,0.800000*%
G04 #@! TD*
G04 #@! TA.AperFunction,Conductor*
%ADD17C,0.250000*%
G04 #@! TD*
G04 APERTURE END LIST*
D10*
X158750000Y-96520000D03*
X156210000Y-96520000D03*
X158750000Y-93980000D03*
X156210000Y-93980000D03*
X158750000Y-91440000D03*
X156210000Y-91440000D03*
X158750000Y-88900000D03*
X156210000Y-88900000D03*
X158750000Y-86360000D03*
X156210000Y-86360000D03*
X158750000Y-83820000D03*
X156210000Y-83820000D03*
X158750000Y-81280000D03*
X156210000Y-81280000D03*
X158750000Y-78740000D03*
X156210000Y-78740000D03*
X158750000Y-76200000D03*
X156210000Y-76200000D03*
X158750000Y-73660000D03*
X156210000Y-73660000D03*
X158750000Y-71120000D03*
X156210000Y-71120000D03*
X158750000Y-68580000D03*
X156210000Y-68580000D03*
X158750000Y-66040000D03*
X156210000Y-66040000D03*
X158750000Y-63500000D03*
X156210000Y-63500000D03*
X158750000Y-60960000D03*
X156210000Y-60960000D03*
X158750000Y-58420000D03*
X156210000Y-58420000D03*
X158750000Y-55880000D03*
X156210000Y-55880000D03*
X158750000Y-53340000D03*
X156210000Y-53340000D03*
X158750000Y-50800000D03*
X156210000Y-50800000D03*
X158750000Y-48260000D03*
D11*
X156210000Y-48260000D03*
D12*
X116840000Y-50800000D03*
D13*
X116840000Y-60960000D03*
D14*
X126695000Y-48565000D03*
D15*
X141935000Y-96825000D03*
X126695000Y-51105000D03*
X141935000Y-94285000D03*
X126695000Y-53645000D03*
X141935000Y-91745000D03*
X126695000Y-56185000D03*
X141935000Y-89205000D03*
X126695000Y-58725000D03*
X141935000Y-86665000D03*
X126695000Y-61265000D03*
X141935000Y-84125000D03*
X126695000Y-63805000D03*
X141935000Y-81585000D03*
X126695000Y-66345000D03*
X141935000Y-79045000D03*
X126695000Y-68885000D03*
X141935000Y-76505000D03*
X126695000Y-71425000D03*
X141935000Y-73965000D03*
X126695000Y-73965000D03*
X141935000Y-71425000D03*
X126695000Y-76505000D03*
X141935000Y-68885000D03*
X126695000Y-79045000D03*
X141935000Y-66345000D03*
X126695000Y-81585000D03*
X141935000Y-63805000D03*
X126695000Y-84125000D03*
X141935000Y-61265000D03*
X126695000Y-86665000D03*
X141935000Y-58725000D03*
X126695000Y-89205000D03*
X141935000Y-56185000D03*
X126695000Y-91745000D03*
X141935000Y-53645000D03*
X126695000Y-94285000D03*
X141935000Y-51105000D03*
X126695000Y-96825000D03*
X141935000Y-48565000D03*
D12*
X119380000Y-69850000D03*
X119380000Y-67350000D03*
D16*
X139293000Y-73460300D03*
D17*
X142368600Y-96825000D02*
X139752800Y-94209200D01*
X139752800Y-94209200D02*
X139752800Y-87564100D01*
X139752800Y-87564100D02*
X127423700Y-75235000D01*
X127423700Y-75235000D02*
X124765000Y-75235000D01*
X124765000Y-75235000D02*
X119380000Y-69850000D01*
X142368600Y-96825000D02*
X143460000Y-96825000D01*
X143460000Y-96825000D02*
X147575000Y-92710000D01*
X147575000Y-92710000D02*
X159185000Y-92710000D01*
X159185000Y-92710000D02*
X160840000Y-91055100D01*
X160840000Y-91055100D02*
X160840000Y-51159400D01*
X160840000Y-51159400D02*
X159115000Y-49435100D01*
X159115000Y-49435100D02*
X158750000Y-49435100D01*
X158750000Y-49435100D02*
X158750000Y-48847500D01*
X141935000Y-96825000D02*
X142368600Y-96825000D01*
X158750000Y-48260000D02*
X158750000Y-48847500D01*
X158750000Y-48847500D02*
X157973000Y-48847500D01*
X157973000Y-48847500D02*
X157385000Y-48260000D01*
X157385000Y-48260000D02*
X156210000Y-48260000D01*
X141935000Y-86665000D02*
X140410000Y-86665000D01*
X140410000Y-86665000D02*
X140410000Y-92267600D01*
X140410000Y-92267600D02*
X141031000Y-92888700D01*
X141031000Y-92888700D02*
X145815000Y-92888700D01*
X145815000Y-92888700D02*
X146444000Y-92259800D01*
X146444000Y-92259800D02*
X154215000Y-92259800D01*
X154215000Y-92259800D02*
X155035000Y-91440000D01*
X155035000Y-91440000D02*
X156210000Y-91440000D01*
X141935000Y-71425000D02*
X140410000Y-71425000D01*
X140410000Y-71425000D02*
X140410000Y-63290000D01*
X140410000Y-63290000D02*
X141091000Y-62608900D01*
X141091000Y-62608900D02*
X146246000Y-62608900D01*
X146246000Y-62608900D02*
X149164000Y-59690000D01*
X149164000Y-59690000D02*
X156670000Y-59690000D01*
X156670000Y-59690000D02*
X157575000Y-58785200D01*
X157575000Y-58785200D02*
X157575000Y-58420000D01*
X157575000Y-58420000D02*
X158750000Y-58420000D01*
X141935000Y-91745000D02*
X149650000Y-91745000D01*
X149650000Y-91745000D02*
X155035000Y-86360000D01*
X155035000Y-86360000D02*
X156210000Y-86360000D01*
X141935000Y-79045000D02*
X143460000Y-79045000D01*
X143460000Y-79045000D02*
X155195000Y-67310000D01*
X155195000Y-67310000D02*
X156670000Y-67310000D01*
X156670000Y-67310000D02*
X157575000Y-66405200D01*
X157575000Y-66405200D02*
X157575000Y-66040000D01*
X157575000Y-66040000D02*
X158750000Y-66040000D01*
X141935000Y-81585000D02*
X143460000Y-81585000D01*
X143460000Y-81585000D02*
X155195000Y-69850000D01*
X155195000Y-69850000D02*
X156670000Y-69850000D01*
X156670000Y-69850000D02*
X157575000Y-68945200D01*
X157575000Y-68945200D02*
X157575000Y-68580000D01*
X157575000Y-68580000D02*
X158750000Y-68580000D01*
X141935000Y-84125000D02*
X143460000Y-84125000D01*
X143460000Y-84125000D02*
X155195000Y-72390000D01*
X155195000Y-72390000D02*
X156670000Y-72390000D01*
X156670000Y-72390000D02*
X157575000Y-71485200D01*
X157575000Y-71485200D02*
X157575000Y-71120000D01*
X157575000Y-71120000D02*
X158750000Y-71120000D01*
X141935000Y-63805000D02*
X143460000Y-63805000D01*
X143460000Y-63805000D02*
X144425000Y-64770000D01*
X144425000Y-64770000D02*
X159152000Y-64770000D01*
X159152000Y-64770000D02*
X159939000Y-65557800D01*
X159939000Y-65557800D02*
X159939000Y-71660800D01*
X159939000Y-71660800D02*
X159115000Y-72484900D01*
X159115000Y-72484900D02*
X158750000Y-72484900D01*
X158750000Y-72484900D02*
X158750000Y-73660000D01*
X156210000Y-66040000D02*
X153739000Y-66040000D01*
X153739000Y-66040000D02*
X147229000Y-72550200D01*
X147229000Y-72550200D02*
X140203000Y-72550200D01*
X140203000Y-72550200D02*
X139293000Y-73460300D01*
X126695000Y-56185000D02*
X128220000Y-56185000D01*
X128220000Y-56185000D02*
X128220000Y-72402000D01*
X128220000Y-72402000D02*
X141076000Y-85257800D01*
X141076000Y-85257800D02*
X148997000Y-85257800D01*
X148997000Y-85257800D02*
X149080000Y-85173900D01*
X149080000Y-85173900D02*
X156754000Y-85173900D01*
X156754000Y-85173900D02*
X157575000Y-85994800D01*
X157575000Y-85994800D02*
X157575000Y-86360000D01*
X157575000Y-86360000D02*
X158750000Y-86360000D01*
X141935000Y-51105000D02*
X143460000Y-51105000D01*
X143460000Y-51105000D02*
X149505000Y-57150000D01*
X149505000Y-57150000D02*
X159179000Y-57150000D01*
X159179000Y-57150000D02*
X160389000Y-58360800D01*
X160389000Y-58360800D02*
X160389000Y-88990700D01*
X160389000Y-88990700D02*
X159115000Y-90264900D01*
X159115000Y-90264900D02*
X158750000Y-90264900D01*
X158750000Y-90264900D02*
X158750000Y-91440000D01*
M02*
