G04 #@! TF.GenerationSoftware,KiCad,Pcbnew,(5.1.12)-1*
G04 #@! TF.CreationDate,2022-10-05T17:54:17-05:00*
G04 #@! TF.ProjectId,cpu,6370752e-6b69-4636-9164-5f7063625858,rev?*
G04 #@! TF.SameCoordinates,Original*
G04 #@! TF.FileFunction,Legend,Top*
G04 #@! TF.FilePolarity,Positive*
%FSLAX46Y46*%
G04 Gerber Fmt 4.6, Leading zero omitted, Abs format (unit mm)*
G04 Created by KiCad (PCBNEW (5.1.12)-1) date 2022-10-05 17:54:17*
%MOMM*%
%LPD*%
G01*
G04 APERTURE LIST*
%ADD10C,0.150000*%
%ADD11C,0.120000*%
%ADD12O,1.700000X1.700000*%
%ADD13R,1.700000X1.700000*%
%ADD14C,1.600000*%
%ADD15O,1.600000X1.600000*%
%ADD16R,2.400000X1.600000*%
%ADD17O,2.400000X1.600000*%
G04 APERTURE END LIST*
D10*
X146429642Y-96972380D02*
X146096309Y-96496190D01*
X145858214Y-96972380D02*
X145858214Y-95972380D01*
X146239166Y-95972380D01*
X146334404Y-96020000D01*
X146382023Y-96067619D01*
X146429642Y-96162857D01*
X146429642Y-96305714D01*
X146382023Y-96400952D01*
X146334404Y-96448571D01*
X146239166Y-96496190D01*
X145858214Y-96496190D01*
X147048690Y-95972380D02*
X147239166Y-95972380D01*
X147334404Y-96020000D01*
X147429642Y-96115238D01*
X147477261Y-96305714D01*
X147477261Y-96639047D01*
X147429642Y-96829523D01*
X147334404Y-96924761D01*
X147239166Y-96972380D01*
X147048690Y-96972380D01*
X146953452Y-96924761D01*
X146858214Y-96829523D01*
X146810595Y-96639047D01*
X146810595Y-96305714D01*
X146858214Y-96115238D01*
X146953452Y-96020000D01*
X147048690Y-95972380D01*
X147905833Y-96972380D02*
X147905833Y-95972380D01*
X148239166Y-96686666D01*
X148572500Y-95972380D01*
X148572500Y-96972380D01*
X149620119Y-96877142D02*
X149572500Y-96924761D01*
X149429642Y-96972380D01*
X149334404Y-96972380D01*
X149191547Y-96924761D01*
X149096309Y-96829523D01*
X149048690Y-96734285D01*
X149001071Y-96543809D01*
X149001071Y-96400952D01*
X149048690Y-96210476D01*
X149096309Y-96115238D01*
X149191547Y-96020000D01*
X149334404Y-95972380D01*
X149429642Y-95972380D01*
X149572500Y-96020000D01*
X149620119Y-96067619D01*
X150001071Y-96924761D02*
X150143928Y-96972380D01*
X150382023Y-96972380D01*
X150477261Y-96924761D01*
X150524880Y-96877142D01*
X150572500Y-96781904D01*
X150572500Y-96686666D01*
X150524880Y-96591428D01*
X150477261Y-96543809D01*
X150382023Y-96496190D01*
X150191547Y-96448571D01*
X150096309Y-96400952D01*
X150048690Y-96353333D01*
X150001071Y-96258095D01*
X150001071Y-96162857D01*
X150048690Y-96067619D01*
X150096309Y-96020000D01*
X150191547Y-95972380D01*
X150429642Y-95972380D01*
X150572500Y-96020000D01*
X151762976Y-96972380D02*
X151762976Y-95972380D01*
X152334404Y-96972380D01*
X152334404Y-95972380D01*
X153382023Y-96877142D02*
X153334404Y-96924761D01*
X153191547Y-96972380D01*
X153096309Y-96972380D01*
X152953452Y-96924761D01*
X152858214Y-96829523D01*
X152810595Y-96734285D01*
X152762976Y-96543809D01*
X152762976Y-96400952D01*
X152810595Y-96210476D01*
X152858214Y-96115238D01*
X152953452Y-96020000D01*
X153096309Y-95972380D01*
X153191547Y-95972380D01*
X153334404Y-96020000D01*
X153382023Y-96067619D01*
X147715357Y-86526666D02*
X148191547Y-86526666D01*
X147620119Y-86812380D02*
X147953452Y-85812380D01*
X148286785Y-86812380D01*
X149143928Y-86812380D02*
X148572500Y-86812380D01*
X148858214Y-86812380D02*
X148858214Y-85812380D01*
X148762976Y-85955238D01*
X148667738Y-86050476D01*
X148572500Y-86098095D01*
X149477261Y-85812380D02*
X150096309Y-85812380D01*
X149762976Y-86193333D01*
X149905833Y-86193333D01*
X150001071Y-86240952D01*
X150048690Y-86288571D01*
X150096309Y-86383809D01*
X150096309Y-86621904D01*
X150048690Y-86717142D01*
X150001071Y-86764761D01*
X149905833Y-86812380D01*
X149620119Y-86812380D01*
X149524880Y-86764761D01*
X149477261Y-86717142D01*
X151286785Y-86812380D02*
X151286785Y-85812380D01*
X152334404Y-86812380D02*
X152001071Y-86336190D01*
X151762976Y-86812380D02*
X151762976Y-85812380D01*
X152143928Y-85812380D01*
X152239166Y-85860000D01*
X152286785Y-85907619D01*
X152334404Y-86002857D01*
X152334404Y-86145714D01*
X152286785Y-86240952D01*
X152239166Y-86288571D01*
X152143928Y-86336190D01*
X151762976Y-86336190D01*
X153429642Y-86907619D02*
X153334404Y-86860000D01*
X153239166Y-86764761D01*
X153096309Y-86621904D01*
X153001071Y-86574285D01*
X152905833Y-86574285D01*
X152953452Y-86812380D02*
X152858214Y-86764761D01*
X152762976Y-86669523D01*
X152715357Y-86479047D01*
X152715357Y-86145714D01*
X152762976Y-85955238D01*
X152858214Y-85860000D01*
X152953452Y-85812380D01*
X153143928Y-85812380D01*
X153239166Y-85860000D01*
X153334404Y-85955238D01*
X153382023Y-86145714D01*
X153382023Y-86479047D01*
X153334404Y-86669523D01*
X153239166Y-86764761D01*
X153143928Y-86812380D01*
X152953452Y-86812380D01*
X144334404Y-83986666D02*
X144810595Y-83986666D01*
X144239166Y-84272380D02*
X144572500Y-83272380D01*
X144905833Y-84272380D01*
X145762976Y-84272380D02*
X145191547Y-84272380D01*
X145477261Y-84272380D02*
X145477261Y-83272380D01*
X145382023Y-83415238D01*
X145286785Y-83510476D01*
X145191547Y-83558095D01*
X146143928Y-83367619D02*
X146191547Y-83320000D01*
X146286785Y-83272380D01*
X146524880Y-83272380D01*
X146620119Y-83320000D01*
X146667738Y-83367619D01*
X146715357Y-83462857D01*
X146715357Y-83558095D01*
X146667738Y-83700952D01*
X146096309Y-84272380D01*
X146715357Y-84272380D01*
X148239166Y-83748571D02*
X147905833Y-83748571D01*
X147905833Y-84272380D02*
X147905833Y-83272380D01*
X148382023Y-83272380D01*
X149334404Y-84272380D02*
X149001071Y-83796190D01*
X148762976Y-84272380D02*
X148762976Y-83272380D01*
X149143928Y-83272380D01*
X149239166Y-83320000D01*
X149286785Y-83367619D01*
X149334404Y-83462857D01*
X149334404Y-83605714D01*
X149286785Y-83700952D01*
X149239166Y-83748571D01*
X149143928Y-83796190D01*
X148762976Y-83796190D01*
X149762976Y-84272380D02*
X149762976Y-83272380D01*
X150096309Y-83986666D01*
X150429642Y-83272380D01*
X150429642Y-84272380D01*
X151239166Y-83748571D02*
X151382023Y-83796190D01*
X151429642Y-83843809D01*
X151477261Y-83939047D01*
X151477261Y-84081904D01*
X151429642Y-84177142D01*
X151382023Y-84224761D01*
X151286785Y-84272380D01*
X150905833Y-84272380D01*
X150905833Y-83272380D01*
X151239166Y-83272380D01*
X151334404Y-83320000D01*
X151382023Y-83367619D01*
X151429642Y-83462857D01*
X151429642Y-83558095D01*
X151382023Y-83653333D01*
X151334404Y-83700952D01*
X151239166Y-83748571D01*
X150905833Y-83748571D01*
X151905833Y-83272380D02*
X151905833Y-84081904D01*
X151953452Y-84177142D01*
X152001071Y-84224761D01*
X152096309Y-84272380D01*
X152286785Y-84272380D01*
X152382023Y-84224761D01*
X152429642Y-84177142D01*
X152477261Y-84081904D01*
X152477261Y-83272380D01*
X153286785Y-83748571D02*
X152953452Y-83748571D01*
X152953452Y-84272380D02*
X152953452Y-83272380D01*
X153429642Y-83272380D01*
X145620119Y-94432380D02*
X145286785Y-93956190D01*
X145048690Y-94432380D02*
X145048690Y-93432380D01*
X145429642Y-93432380D01*
X145524880Y-93480000D01*
X145572500Y-93527619D01*
X145620119Y-93622857D01*
X145620119Y-93765714D01*
X145572500Y-93860952D01*
X145524880Y-93908571D01*
X145429642Y-93956190D01*
X145048690Y-93956190D01*
X146001071Y-94146666D02*
X146477261Y-94146666D01*
X145905833Y-94432380D02*
X146239166Y-93432380D01*
X146572500Y-94432380D01*
X146905833Y-94432380D02*
X146905833Y-93432380D01*
X147239166Y-94146666D01*
X147572500Y-93432380D01*
X147572500Y-94432380D01*
X148620119Y-94337142D02*
X148572500Y-94384761D01*
X148429642Y-94432380D01*
X148334404Y-94432380D01*
X148191547Y-94384761D01*
X148096309Y-94289523D01*
X148048690Y-94194285D01*
X148001071Y-94003809D01*
X148001071Y-93860952D01*
X148048690Y-93670476D01*
X148096309Y-93575238D01*
X148191547Y-93480000D01*
X148334404Y-93432380D01*
X148429642Y-93432380D01*
X148572500Y-93480000D01*
X148620119Y-93527619D01*
X149001071Y-94384761D02*
X149143928Y-94432380D01*
X149382023Y-94432380D01*
X149477261Y-94384761D01*
X149524880Y-94337142D01*
X149572500Y-94241904D01*
X149572500Y-94146666D01*
X149524880Y-94051428D01*
X149477261Y-94003809D01*
X149382023Y-93956190D01*
X149191547Y-93908571D01*
X149096309Y-93860952D01*
X149048690Y-93813333D01*
X149001071Y-93718095D01*
X149001071Y-93622857D01*
X149048690Y-93527619D01*
X149096309Y-93480000D01*
X149191547Y-93432380D01*
X149429642Y-93432380D01*
X149572500Y-93480000D01*
X151334404Y-94432380D02*
X151001071Y-93956190D01*
X150762976Y-94432380D02*
X150762976Y-93432380D01*
X151143928Y-93432380D01*
X151239166Y-93480000D01*
X151286785Y-93527619D01*
X151334404Y-93622857D01*
X151334404Y-93765714D01*
X151286785Y-93860952D01*
X151239166Y-93908571D01*
X151143928Y-93956190D01*
X150762976Y-93956190D01*
X151762976Y-94432380D02*
X151762976Y-93432380D01*
X152334404Y-94432380D01*
X152334404Y-93432380D01*
X153334404Y-93480000D02*
X153239166Y-93432380D01*
X153096309Y-93432380D01*
X152953452Y-93480000D01*
X152858214Y-93575238D01*
X152810595Y-93670476D01*
X152762976Y-93860952D01*
X152762976Y-94003809D01*
X152810595Y-94194285D01*
X152858214Y-94289523D01*
X152953452Y-94384761D01*
X153096309Y-94432380D01*
X153191547Y-94432380D01*
X153334404Y-94384761D01*
X153382023Y-94337142D01*
X153382023Y-94003809D01*
X153191547Y-94003809D01*
X146026666Y-91606666D02*
X146502857Y-91606666D01*
X145931428Y-91892380D02*
X146264761Y-90892380D01*
X146598095Y-91892380D01*
X147455238Y-91892380D02*
X146883809Y-91892380D01*
X147169523Y-91892380D02*
X147169523Y-90892380D01*
X147074285Y-91035238D01*
X146979047Y-91130476D01*
X146883809Y-91178095D01*
X148360000Y-90892380D02*
X147883809Y-90892380D01*
X147836190Y-91368571D01*
X147883809Y-91320952D01*
X147979047Y-91273333D01*
X148217142Y-91273333D01*
X148312380Y-91320952D01*
X148360000Y-91368571D01*
X148407619Y-91463809D01*
X148407619Y-91701904D01*
X148360000Y-91797142D01*
X148312380Y-91844761D01*
X148217142Y-91892380D01*
X147979047Y-91892380D01*
X147883809Y-91844761D01*
X147836190Y-91797142D01*
X149598095Y-91892380D02*
X149598095Y-90892380D01*
X149979047Y-90892380D01*
X150074285Y-90940000D01*
X150121904Y-90987619D01*
X150169523Y-91082857D01*
X150169523Y-91225714D01*
X150121904Y-91320952D01*
X150074285Y-91368571D01*
X149979047Y-91416190D01*
X149598095Y-91416190D01*
X150598095Y-91892380D02*
X150598095Y-90892380D01*
X150598095Y-91368571D02*
X151169523Y-91368571D01*
X151169523Y-91892380D02*
X151169523Y-90892380D01*
X151645714Y-91892380D02*
X151645714Y-90892380D01*
X152074285Y-90987619D02*
X152121904Y-90940000D01*
X152217142Y-90892380D01*
X152455238Y-90892380D01*
X152550476Y-90940000D01*
X152598095Y-90987619D01*
X152645714Y-91082857D01*
X152645714Y-91178095D01*
X152598095Y-91320952D01*
X152026666Y-91892380D01*
X152645714Y-91892380D01*
X153264761Y-90892380D02*
X153455238Y-90892380D01*
X153550476Y-90940000D01*
X153645714Y-91035238D01*
X153693333Y-91225714D01*
X153693333Y-91559047D01*
X153645714Y-91749523D01*
X153550476Y-91844761D01*
X153455238Y-91892380D01*
X153264761Y-91892380D01*
X153169523Y-91844761D01*
X153074285Y-91749523D01*
X153026666Y-91559047D01*
X153026666Y-91225714D01*
X153074285Y-91035238D01*
X153169523Y-90940000D01*
X153264761Y-90892380D01*
X146026666Y-89066666D02*
X146502857Y-89066666D01*
X145931428Y-89352380D02*
X146264761Y-88352380D01*
X146598095Y-89352380D01*
X147455238Y-89352380D02*
X146883809Y-89352380D01*
X147169523Y-89352380D02*
X147169523Y-88352380D01*
X147074285Y-88495238D01*
X146979047Y-88590476D01*
X146883809Y-88638095D01*
X148312380Y-88685714D02*
X148312380Y-89352380D01*
X148074285Y-88304761D02*
X147836190Y-89019047D01*
X148455238Y-89019047D01*
X149598095Y-89352380D02*
X149598095Y-88352380D01*
X149979047Y-88352380D01*
X150074285Y-88400000D01*
X150121904Y-88447619D01*
X150169523Y-88542857D01*
X150169523Y-88685714D01*
X150121904Y-88780952D01*
X150074285Y-88828571D01*
X149979047Y-88876190D01*
X149598095Y-88876190D01*
X150598095Y-89352380D02*
X150598095Y-88352380D01*
X150598095Y-88828571D02*
X151169523Y-88828571D01*
X151169523Y-89352380D02*
X151169523Y-88352380D01*
X151645714Y-89352380D02*
X151645714Y-88352380D01*
X152645714Y-89352380D02*
X152074285Y-89352380D01*
X152360000Y-89352380D02*
X152360000Y-88352380D01*
X152264761Y-88495238D01*
X152169523Y-88590476D01*
X152074285Y-88638095D01*
X153264761Y-88352380D02*
X153455238Y-88352380D01*
X153550476Y-88400000D01*
X153645714Y-88495238D01*
X153693333Y-88685714D01*
X153693333Y-89019047D01*
X153645714Y-89209523D01*
X153550476Y-89304761D01*
X153455238Y-89352380D01*
X153264761Y-89352380D01*
X153169523Y-89304761D01*
X153074285Y-89209523D01*
X153026666Y-89019047D01*
X153026666Y-88685714D01*
X153074285Y-88495238D01*
X153169523Y-88400000D01*
X153264761Y-88352380D01*
X146477261Y-81446666D02*
X146953452Y-81446666D01*
X146382023Y-81732380D02*
X146715357Y-80732380D01*
X147048690Y-81732380D01*
X147905833Y-81732380D02*
X147334404Y-81732380D01*
X147620119Y-81732380D02*
X147620119Y-80732380D01*
X147524880Y-80875238D01*
X147429642Y-80970476D01*
X147334404Y-81018095D01*
X148858214Y-81732380D02*
X148286785Y-81732380D01*
X148572500Y-81732380D02*
X148572500Y-80732380D01*
X148477261Y-80875238D01*
X148382023Y-80970476D01*
X148286785Y-81018095D01*
X150001071Y-81684761D02*
X150143928Y-81732380D01*
X150382023Y-81732380D01*
X150477261Y-81684761D01*
X150524880Y-81637142D01*
X150572500Y-81541904D01*
X150572500Y-81446666D01*
X150524880Y-81351428D01*
X150477261Y-81303809D01*
X150382023Y-81256190D01*
X150191547Y-81208571D01*
X150096309Y-81160952D01*
X150048690Y-81113333D01*
X150001071Y-81018095D01*
X150001071Y-80922857D01*
X150048690Y-80827619D01*
X150096309Y-80780000D01*
X150191547Y-80732380D01*
X150429642Y-80732380D01*
X150572500Y-80780000D01*
X151572500Y-81637142D02*
X151524880Y-81684761D01*
X151382023Y-81732380D01*
X151286785Y-81732380D01*
X151143928Y-81684761D01*
X151048690Y-81589523D01*
X151001071Y-81494285D01*
X150953452Y-81303809D01*
X150953452Y-81160952D01*
X151001071Y-80970476D01*
X151048690Y-80875238D01*
X151143928Y-80780000D01*
X151286785Y-80732380D01*
X151382023Y-80732380D01*
X151524880Y-80780000D01*
X151572500Y-80827619D01*
X152477261Y-81732380D02*
X152001071Y-81732380D01*
X152001071Y-80732380D01*
X152810595Y-81732380D02*
X152810595Y-80732380D01*
X153382023Y-81732380D02*
X152953452Y-81160952D01*
X153382023Y-80732380D02*
X152810595Y-81303809D01*
X146572500Y-78906666D02*
X147048690Y-78906666D01*
X146477261Y-79192380D02*
X146810595Y-78192380D01*
X147143928Y-79192380D01*
X148001071Y-79192380D02*
X147429642Y-79192380D01*
X147715357Y-79192380D02*
X147715357Y-78192380D01*
X147620119Y-78335238D01*
X147524880Y-78430476D01*
X147429642Y-78478095D01*
X148620119Y-78192380D02*
X148715357Y-78192380D01*
X148810595Y-78240000D01*
X148858214Y-78287619D01*
X148905833Y-78382857D01*
X148953452Y-78573333D01*
X148953452Y-78811428D01*
X148905833Y-79001904D01*
X148858214Y-79097142D01*
X148810595Y-79144761D01*
X148715357Y-79192380D01*
X148620119Y-79192380D01*
X148524880Y-79144761D01*
X148477261Y-79097142D01*
X148429642Y-79001904D01*
X148382023Y-78811428D01*
X148382023Y-78573333D01*
X148429642Y-78382857D01*
X148477261Y-78287619D01*
X148524880Y-78240000D01*
X148620119Y-78192380D01*
X150477261Y-78668571D02*
X150143928Y-78668571D01*
X150143928Y-79192380D02*
X150143928Y-78192380D01*
X150620119Y-78192380D01*
X151572500Y-79097142D02*
X151524880Y-79144761D01*
X151382023Y-79192380D01*
X151286785Y-79192380D01*
X151143928Y-79144761D01*
X151048690Y-79049523D01*
X151001071Y-78954285D01*
X150953452Y-78763809D01*
X150953452Y-78620952D01*
X151001071Y-78430476D01*
X151048690Y-78335238D01*
X151143928Y-78240000D01*
X151286785Y-78192380D01*
X151382023Y-78192380D01*
X151524880Y-78240000D01*
X151572500Y-78287619D01*
X152477261Y-79192380D02*
X152001071Y-79192380D01*
X152001071Y-78192380D01*
X152810595Y-79192380D02*
X152810595Y-78192380D01*
X153382023Y-79192380D02*
X152953452Y-78620952D01*
X153382023Y-78192380D02*
X152810595Y-78763809D01*
X148382023Y-76366666D02*
X148858214Y-76366666D01*
X148286785Y-76652380D02*
X148620119Y-75652380D01*
X148953452Y-76652380D01*
X149334404Y-76652380D02*
X149524880Y-76652380D01*
X149620119Y-76604761D01*
X149667738Y-76557142D01*
X149762976Y-76414285D01*
X149810595Y-76223809D01*
X149810595Y-75842857D01*
X149762976Y-75747619D01*
X149715357Y-75700000D01*
X149620119Y-75652380D01*
X149429642Y-75652380D01*
X149334404Y-75700000D01*
X149286785Y-75747619D01*
X149239166Y-75842857D01*
X149239166Y-76080952D01*
X149286785Y-76176190D01*
X149334404Y-76223809D01*
X149429642Y-76271428D01*
X149620119Y-76271428D01*
X149715357Y-76223809D01*
X149762976Y-76176190D01*
X149810595Y-76080952D01*
X151572500Y-76557142D02*
X151524880Y-76604761D01*
X151382023Y-76652380D01*
X151286785Y-76652380D01*
X151143928Y-76604761D01*
X151048690Y-76509523D01*
X151001071Y-76414285D01*
X150953452Y-76223809D01*
X150953452Y-76080952D01*
X151001071Y-75890476D01*
X151048690Y-75795238D01*
X151143928Y-75700000D01*
X151286785Y-75652380D01*
X151382023Y-75652380D01*
X151524880Y-75700000D01*
X151572500Y-75747619D01*
X152477261Y-76652380D02*
X152001071Y-76652380D01*
X152001071Y-75652380D01*
X152810595Y-76652380D02*
X152810595Y-75652380D01*
X153382023Y-76652380D02*
X152953452Y-76080952D01*
X153382023Y-75652380D02*
X152810595Y-76223809D01*
X149048690Y-73826666D02*
X149524880Y-73826666D01*
X148953452Y-74112380D02*
X149286785Y-73112380D01*
X149620119Y-74112380D01*
X150096309Y-73540952D02*
X150001071Y-73493333D01*
X149953452Y-73445714D01*
X149905833Y-73350476D01*
X149905833Y-73302857D01*
X149953452Y-73207619D01*
X150001071Y-73160000D01*
X150096309Y-73112380D01*
X150286785Y-73112380D01*
X150382023Y-73160000D01*
X150429642Y-73207619D01*
X150477261Y-73302857D01*
X150477261Y-73350476D01*
X150429642Y-73445714D01*
X150382023Y-73493333D01*
X150286785Y-73540952D01*
X150096309Y-73540952D01*
X150001071Y-73588571D01*
X149953452Y-73636190D01*
X149905833Y-73731428D01*
X149905833Y-73921904D01*
X149953452Y-74017142D01*
X150001071Y-74064761D01*
X150096309Y-74112380D01*
X150286785Y-74112380D01*
X150382023Y-74064761D01*
X150429642Y-74017142D01*
X150477261Y-73921904D01*
X150477261Y-73731428D01*
X150429642Y-73636190D01*
X150382023Y-73588571D01*
X150286785Y-73540952D01*
X152239166Y-74112380D02*
X151905833Y-73636190D01*
X151667738Y-74112380D02*
X151667738Y-73112380D01*
X152048690Y-73112380D01*
X152143928Y-73160000D01*
X152191547Y-73207619D01*
X152239166Y-73302857D01*
X152239166Y-73445714D01*
X152191547Y-73540952D01*
X152143928Y-73588571D01*
X152048690Y-73636190D01*
X151667738Y-73636190D01*
X152572500Y-73112380D02*
X152810595Y-74112380D01*
X153001071Y-73398095D01*
X153191547Y-74112380D01*
X153429642Y-73112380D01*
X149239166Y-71286666D02*
X149715357Y-71286666D01*
X149143928Y-71572380D02*
X149477261Y-70572380D01*
X149810595Y-71572380D01*
X150048690Y-70572380D02*
X150715357Y-70572380D01*
X150286785Y-71572380D01*
X151858214Y-71572380D02*
X151858214Y-70572380D01*
X152096309Y-70572380D01*
X152239166Y-70620000D01*
X152334404Y-70715238D01*
X152382023Y-70810476D01*
X152429642Y-71000952D01*
X152429642Y-71143809D01*
X152382023Y-71334285D01*
X152334404Y-71429523D01*
X152239166Y-71524761D01*
X152096309Y-71572380D01*
X151858214Y-71572380D01*
X152762976Y-70572380D02*
X153429642Y-70572380D01*
X153001071Y-71572380D01*
X149239166Y-68746666D02*
X149715357Y-68746666D01*
X149143928Y-69032380D02*
X149477261Y-68032380D01*
X149810595Y-69032380D01*
X150572500Y-68032380D02*
X150382023Y-68032380D01*
X150286785Y-68080000D01*
X150239166Y-68127619D01*
X150143928Y-68270476D01*
X150096309Y-68460952D01*
X150096309Y-68841904D01*
X150143928Y-68937142D01*
X150191547Y-68984761D01*
X150286785Y-69032380D01*
X150477261Y-69032380D01*
X150572500Y-68984761D01*
X150620119Y-68937142D01*
X150667738Y-68841904D01*
X150667738Y-68603809D01*
X150620119Y-68508571D01*
X150572500Y-68460952D01*
X150477261Y-68413333D01*
X150286785Y-68413333D01*
X150191547Y-68460952D01*
X150143928Y-68508571D01*
X150096309Y-68603809D01*
X151858214Y-69032380D02*
X151858214Y-68032380D01*
X152096309Y-68032380D01*
X152239166Y-68080000D01*
X152334404Y-68175238D01*
X152382023Y-68270476D01*
X152429642Y-68460952D01*
X152429642Y-68603809D01*
X152382023Y-68794285D01*
X152334404Y-68889523D01*
X152239166Y-68984761D01*
X152096309Y-69032380D01*
X151858214Y-69032380D01*
X153286785Y-68032380D02*
X153096309Y-68032380D01*
X153001071Y-68080000D01*
X152953452Y-68127619D01*
X152858214Y-68270476D01*
X152810595Y-68460952D01*
X152810595Y-68841904D01*
X152858214Y-68937142D01*
X152905833Y-68984761D01*
X153001071Y-69032380D01*
X153191547Y-69032380D01*
X153286785Y-68984761D01*
X153334404Y-68937142D01*
X153382023Y-68841904D01*
X153382023Y-68603809D01*
X153334404Y-68508571D01*
X153286785Y-68460952D01*
X153191547Y-68413333D01*
X153001071Y-68413333D01*
X152905833Y-68460952D01*
X152858214Y-68508571D01*
X152810595Y-68603809D01*
X149239166Y-66206666D02*
X149715357Y-66206666D01*
X149143928Y-66492380D02*
X149477261Y-65492380D01*
X149810595Y-66492380D01*
X150620119Y-65492380D02*
X150143928Y-65492380D01*
X150096309Y-65968571D01*
X150143928Y-65920952D01*
X150239166Y-65873333D01*
X150477261Y-65873333D01*
X150572500Y-65920952D01*
X150620119Y-65968571D01*
X150667738Y-66063809D01*
X150667738Y-66301904D01*
X150620119Y-66397142D01*
X150572500Y-66444761D01*
X150477261Y-66492380D01*
X150239166Y-66492380D01*
X150143928Y-66444761D01*
X150096309Y-66397142D01*
X151858214Y-66492380D02*
X151858214Y-65492380D01*
X152096309Y-65492380D01*
X152239166Y-65540000D01*
X152334404Y-65635238D01*
X152382023Y-65730476D01*
X152429642Y-65920952D01*
X152429642Y-66063809D01*
X152382023Y-66254285D01*
X152334404Y-66349523D01*
X152239166Y-66444761D01*
X152096309Y-66492380D01*
X151858214Y-66492380D01*
X153334404Y-65492380D02*
X152858214Y-65492380D01*
X152810595Y-65968571D01*
X152858214Y-65920952D01*
X152953452Y-65873333D01*
X153191547Y-65873333D01*
X153286785Y-65920952D01*
X153334404Y-65968571D01*
X153382023Y-66063809D01*
X153382023Y-66301904D01*
X153334404Y-66397142D01*
X153286785Y-66444761D01*
X153191547Y-66492380D01*
X152953452Y-66492380D01*
X152858214Y-66444761D01*
X152810595Y-66397142D01*
X149239166Y-63666666D02*
X149715357Y-63666666D01*
X149143928Y-63952380D02*
X149477261Y-62952380D01*
X149810595Y-63952380D01*
X150572500Y-63285714D02*
X150572500Y-63952380D01*
X150334404Y-62904761D02*
X150096309Y-63619047D01*
X150715357Y-63619047D01*
X151858214Y-63952380D02*
X151858214Y-62952380D01*
X152096309Y-62952380D01*
X152239166Y-63000000D01*
X152334404Y-63095238D01*
X152382023Y-63190476D01*
X152429642Y-63380952D01*
X152429642Y-63523809D01*
X152382023Y-63714285D01*
X152334404Y-63809523D01*
X152239166Y-63904761D01*
X152096309Y-63952380D01*
X151858214Y-63952380D01*
X153286785Y-63285714D02*
X153286785Y-63952380D01*
X153048690Y-62904761D02*
X152810595Y-63619047D01*
X153429642Y-63619047D01*
X149239166Y-61126666D02*
X149715357Y-61126666D01*
X149143928Y-61412380D02*
X149477261Y-60412380D01*
X149810595Y-61412380D01*
X150048690Y-60412380D02*
X150667738Y-60412380D01*
X150334404Y-60793333D01*
X150477261Y-60793333D01*
X150572500Y-60840952D01*
X150620119Y-60888571D01*
X150667738Y-60983809D01*
X150667738Y-61221904D01*
X150620119Y-61317142D01*
X150572500Y-61364761D01*
X150477261Y-61412380D01*
X150191547Y-61412380D01*
X150096309Y-61364761D01*
X150048690Y-61317142D01*
X151858214Y-61412380D02*
X151858214Y-60412380D01*
X152096309Y-60412380D01*
X152239166Y-60460000D01*
X152334404Y-60555238D01*
X152382023Y-60650476D01*
X152429642Y-60840952D01*
X152429642Y-60983809D01*
X152382023Y-61174285D01*
X152334404Y-61269523D01*
X152239166Y-61364761D01*
X152096309Y-61412380D01*
X151858214Y-61412380D01*
X152762976Y-60412380D02*
X153382023Y-60412380D01*
X153048690Y-60793333D01*
X153191547Y-60793333D01*
X153286785Y-60840952D01*
X153334404Y-60888571D01*
X153382023Y-60983809D01*
X153382023Y-61221904D01*
X153334404Y-61317142D01*
X153286785Y-61364761D01*
X153191547Y-61412380D01*
X152905833Y-61412380D01*
X152810595Y-61364761D01*
X152762976Y-61317142D01*
X149239166Y-58586666D02*
X149715357Y-58586666D01*
X149143928Y-58872380D02*
X149477261Y-57872380D01*
X149810595Y-58872380D01*
X150096309Y-57967619D02*
X150143928Y-57920000D01*
X150239166Y-57872380D01*
X150477261Y-57872380D01*
X150572500Y-57920000D01*
X150620119Y-57967619D01*
X150667738Y-58062857D01*
X150667738Y-58158095D01*
X150620119Y-58300952D01*
X150048690Y-58872380D01*
X150667738Y-58872380D01*
X151858214Y-58872380D02*
X151858214Y-57872380D01*
X152096309Y-57872380D01*
X152239166Y-57920000D01*
X152334404Y-58015238D01*
X152382023Y-58110476D01*
X152429642Y-58300952D01*
X152429642Y-58443809D01*
X152382023Y-58634285D01*
X152334404Y-58729523D01*
X152239166Y-58824761D01*
X152096309Y-58872380D01*
X151858214Y-58872380D01*
X152810595Y-57967619D02*
X152858214Y-57920000D01*
X152953452Y-57872380D01*
X153191547Y-57872380D01*
X153286785Y-57920000D01*
X153334404Y-57967619D01*
X153382023Y-58062857D01*
X153382023Y-58158095D01*
X153334404Y-58300952D01*
X152762976Y-58872380D01*
X153382023Y-58872380D01*
X149239166Y-56046666D02*
X149715357Y-56046666D01*
X149143928Y-56332380D02*
X149477261Y-55332380D01*
X149810595Y-56332380D01*
X150667738Y-56332380D02*
X150096309Y-56332380D01*
X150382023Y-56332380D02*
X150382023Y-55332380D01*
X150286785Y-55475238D01*
X150191547Y-55570476D01*
X150096309Y-55618095D01*
X151858214Y-56332380D02*
X151858214Y-55332380D01*
X152096309Y-55332380D01*
X152239166Y-55380000D01*
X152334404Y-55475238D01*
X152382023Y-55570476D01*
X152429642Y-55760952D01*
X152429642Y-55903809D01*
X152382023Y-56094285D01*
X152334404Y-56189523D01*
X152239166Y-56284761D01*
X152096309Y-56332380D01*
X151858214Y-56332380D01*
X153382023Y-56332380D02*
X152810595Y-56332380D01*
X153096309Y-56332380D02*
X153096309Y-55332380D01*
X153001071Y-55475238D01*
X152905833Y-55570476D01*
X152810595Y-55618095D01*
X149239166Y-53506666D02*
X149715357Y-53506666D01*
X149143928Y-53792380D02*
X149477261Y-52792380D01*
X149810595Y-53792380D01*
X150334404Y-52792380D02*
X150429642Y-52792380D01*
X150524880Y-52840000D01*
X150572500Y-52887619D01*
X150620119Y-52982857D01*
X150667738Y-53173333D01*
X150667738Y-53411428D01*
X150620119Y-53601904D01*
X150572500Y-53697142D01*
X150524880Y-53744761D01*
X150429642Y-53792380D01*
X150334404Y-53792380D01*
X150239166Y-53744761D01*
X150191547Y-53697142D01*
X150143928Y-53601904D01*
X150096309Y-53411428D01*
X150096309Y-53173333D01*
X150143928Y-52982857D01*
X150191547Y-52887619D01*
X150239166Y-52840000D01*
X150334404Y-52792380D01*
X151858214Y-53792380D02*
X151858214Y-52792380D01*
X152096309Y-52792380D01*
X152239166Y-52840000D01*
X152334404Y-52935238D01*
X152382023Y-53030476D01*
X152429642Y-53220952D01*
X152429642Y-53363809D01*
X152382023Y-53554285D01*
X152334404Y-53649523D01*
X152239166Y-53744761D01*
X152096309Y-53792380D01*
X151858214Y-53792380D01*
X153048690Y-52792380D02*
X153143928Y-52792380D01*
X153239166Y-52840000D01*
X153286785Y-52887619D01*
X153334404Y-52982857D01*
X153382023Y-53173333D01*
X153382023Y-53411428D01*
X153334404Y-53601904D01*
X153286785Y-53697142D01*
X153239166Y-53744761D01*
X153143928Y-53792380D01*
X153048690Y-53792380D01*
X152953452Y-53744761D01*
X152905833Y-53697142D01*
X152858214Y-53601904D01*
X152810595Y-53411428D01*
X152810595Y-53173333D01*
X152858214Y-52982857D01*
X152905833Y-52887619D01*
X152953452Y-52840000D01*
X153048690Y-52792380D01*
X146239166Y-51252380D02*
X145905833Y-50776190D01*
X145667738Y-51252380D02*
X145667738Y-50252380D01*
X146048690Y-50252380D01*
X146143928Y-50300000D01*
X146191547Y-50347619D01*
X146239166Y-50442857D01*
X146239166Y-50585714D01*
X146191547Y-50680952D01*
X146143928Y-50728571D01*
X146048690Y-50776190D01*
X145667738Y-50776190D01*
X146667738Y-50728571D02*
X147001071Y-50728571D01*
X147143928Y-51252380D02*
X146667738Y-51252380D01*
X146667738Y-50252380D01*
X147143928Y-50252380D01*
X147524880Y-51204761D02*
X147667738Y-51252380D01*
X147905833Y-51252380D01*
X148001071Y-51204761D01*
X148048690Y-51157142D01*
X148096309Y-51061904D01*
X148096309Y-50966666D01*
X148048690Y-50871428D01*
X148001071Y-50823809D01*
X147905833Y-50776190D01*
X147715357Y-50728571D01*
X147620119Y-50680952D01*
X147572500Y-50633333D01*
X147524880Y-50538095D01*
X147524880Y-50442857D01*
X147572500Y-50347619D01*
X147620119Y-50300000D01*
X147715357Y-50252380D01*
X147953452Y-50252380D01*
X148096309Y-50300000D01*
X148524880Y-50728571D02*
X148858214Y-50728571D01*
X149001071Y-51252380D02*
X148524880Y-51252380D01*
X148524880Y-50252380D01*
X149001071Y-50252380D01*
X149286785Y-50252380D02*
X149858214Y-50252380D01*
X149572500Y-51252380D02*
X149572500Y-50252380D01*
X150810595Y-50252380D02*
X151143928Y-51252380D01*
X151477261Y-50252380D01*
X152382023Y-51157142D02*
X152334404Y-51204761D01*
X152191547Y-51252380D01*
X152096309Y-51252380D01*
X151953452Y-51204761D01*
X151858214Y-51109523D01*
X151810595Y-51014285D01*
X151762976Y-50823809D01*
X151762976Y-50680952D01*
X151810595Y-50490476D01*
X151858214Y-50395238D01*
X151953452Y-50300000D01*
X152096309Y-50252380D01*
X152191547Y-50252380D01*
X152334404Y-50300000D01*
X152382023Y-50347619D01*
X153382023Y-51157142D02*
X153334404Y-51204761D01*
X153191547Y-51252380D01*
X153096309Y-51252380D01*
X152953452Y-51204761D01*
X152858214Y-51109523D01*
X152810595Y-51014285D01*
X152762976Y-50823809D01*
X152762976Y-50680952D01*
X152810595Y-50490476D01*
X152858214Y-50395238D01*
X152953452Y-50300000D01*
X153096309Y-50252380D01*
X153191547Y-50252380D01*
X153334404Y-50300000D01*
X153382023Y-50347619D01*
X147477261Y-47760000D02*
X147382023Y-47712380D01*
X147239166Y-47712380D01*
X147096309Y-47760000D01*
X147001071Y-47855238D01*
X146953452Y-47950476D01*
X146905833Y-48140952D01*
X146905833Y-48283809D01*
X146953452Y-48474285D01*
X147001071Y-48569523D01*
X147096309Y-48664761D01*
X147239166Y-48712380D01*
X147334404Y-48712380D01*
X147477261Y-48664761D01*
X147524880Y-48617142D01*
X147524880Y-48283809D01*
X147334404Y-48283809D01*
X147953452Y-48712380D02*
X147953452Y-47712380D01*
X148524880Y-48712380D01*
X148524880Y-47712380D01*
X149001071Y-48712380D02*
X149001071Y-47712380D01*
X149239166Y-47712380D01*
X149382023Y-47760000D01*
X149477261Y-47855238D01*
X149524880Y-47950476D01*
X149572500Y-48140952D01*
X149572500Y-48283809D01*
X149524880Y-48474285D01*
X149477261Y-48569523D01*
X149382023Y-48664761D01*
X149239166Y-48712380D01*
X149001071Y-48712380D01*
X151286785Y-47760000D02*
X151191547Y-47712380D01*
X151048690Y-47712380D01*
X150905833Y-47760000D01*
X150810595Y-47855238D01*
X150762976Y-47950476D01*
X150715357Y-48140952D01*
X150715357Y-48283809D01*
X150762976Y-48474285D01*
X150810595Y-48569523D01*
X150905833Y-48664761D01*
X151048690Y-48712380D01*
X151143928Y-48712380D01*
X151286785Y-48664761D01*
X151334404Y-48617142D01*
X151334404Y-48283809D01*
X151143928Y-48283809D01*
X151762976Y-48712380D02*
X151762976Y-47712380D01*
X152334404Y-48712380D01*
X152334404Y-47712380D01*
X152810595Y-48712380D02*
X152810595Y-47712380D01*
X153048690Y-47712380D01*
X153191547Y-47760000D01*
X153286785Y-47855238D01*
X153334404Y-47950476D01*
X153382023Y-48140952D01*
X153382023Y-48283809D01*
X153334404Y-48474285D01*
X153286785Y-48569523D01*
X153191547Y-48664761D01*
X153048690Y-48712380D01*
X152810595Y-48712380D01*
X130516666Y-98512380D02*
X130754761Y-99512380D01*
X130945238Y-98798095D01*
X131135714Y-99512380D01*
X131373809Y-98512380D01*
X132183333Y-98512380D02*
X131992857Y-98512380D01*
X131897619Y-98560000D01*
X131850000Y-98607619D01*
X131754761Y-98750476D01*
X131707142Y-98940952D01*
X131707142Y-99321904D01*
X131754761Y-99417142D01*
X131802380Y-99464761D01*
X131897619Y-99512380D01*
X132088095Y-99512380D01*
X132183333Y-99464761D01*
X132230952Y-99417142D01*
X132278571Y-99321904D01*
X132278571Y-99083809D01*
X132230952Y-98988571D01*
X132183333Y-98940952D01*
X132088095Y-98893333D01*
X131897619Y-98893333D01*
X131802380Y-98940952D01*
X131754761Y-98988571D01*
X131707142Y-99083809D01*
X133183333Y-98512380D02*
X132707142Y-98512380D01*
X132659523Y-98988571D01*
X132707142Y-98940952D01*
X132802380Y-98893333D01*
X133040476Y-98893333D01*
X133135714Y-98940952D01*
X133183333Y-98988571D01*
X133230952Y-99083809D01*
X133230952Y-99321904D01*
X133183333Y-99417142D01*
X133135714Y-99464761D01*
X133040476Y-99512380D01*
X132802380Y-99512380D01*
X132707142Y-99464761D01*
X132659523Y-99417142D01*
X134230952Y-99417142D02*
X134183333Y-99464761D01*
X134040476Y-99512380D01*
X133945238Y-99512380D01*
X133802380Y-99464761D01*
X133707142Y-99369523D01*
X133659523Y-99274285D01*
X133611904Y-99083809D01*
X133611904Y-98940952D01*
X133659523Y-98750476D01*
X133707142Y-98655238D01*
X133802380Y-98560000D01*
X133945238Y-98512380D01*
X134040476Y-98512380D01*
X134183333Y-98560000D01*
X134230952Y-98607619D01*
X134850000Y-98512380D02*
X134945238Y-98512380D01*
X135040476Y-98560000D01*
X135088095Y-98607619D01*
X135135714Y-98702857D01*
X135183333Y-98893333D01*
X135183333Y-99131428D01*
X135135714Y-99321904D01*
X135088095Y-99417142D01*
X135040476Y-99464761D01*
X134945238Y-99512380D01*
X134850000Y-99512380D01*
X134754761Y-99464761D01*
X134707142Y-99417142D01*
X134659523Y-99321904D01*
X134611904Y-99131428D01*
X134611904Y-98893333D01*
X134659523Y-98702857D01*
X134707142Y-98607619D01*
X134754761Y-98560000D01*
X134850000Y-98512380D01*
X135564285Y-98607619D02*
X135611904Y-98560000D01*
X135707142Y-98512380D01*
X135945238Y-98512380D01*
X136040476Y-98560000D01*
X136088095Y-98607619D01*
X136135714Y-98702857D01*
X136135714Y-98798095D01*
X136088095Y-98940952D01*
X135516666Y-99512380D01*
X136135714Y-99512380D01*
X124745714Y-48712380D02*
X124174285Y-48712380D01*
X124460000Y-48712380D02*
X124460000Y-47712380D01*
X124364761Y-47855238D01*
X124269523Y-47950476D01*
X124174285Y-47998095D01*
X112212380Y-98796190D02*
X111212380Y-98796190D01*
X111926666Y-98462857D01*
X111212380Y-98129523D01*
X112212380Y-98129523D01*
X111212380Y-97224761D02*
X111212380Y-97415238D01*
X111260000Y-97510476D01*
X111307619Y-97558095D01*
X111450476Y-97653333D01*
X111640952Y-97700952D01*
X112021904Y-97700952D01*
X112117142Y-97653333D01*
X112164761Y-97605714D01*
X112212380Y-97510476D01*
X112212380Y-97320000D01*
X112164761Y-97224761D01*
X112117142Y-97177142D01*
X112021904Y-97129523D01*
X111783809Y-97129523D01*
X111688571Y-97177142D01*
X111640952Y-97224761D01*
X111593333Y-97320000D01*
X111593333Y-97510476D01*
X111640952Y-97605714D01*
X111688571Y-97653333D01*
X111783809Y-97700952D01*
X111212380Y-96224761D02*
X111212380Y-96700952D01*
X111688571Y-96748571D01*
X111640952Y-96700952D01*
X111593333Y-96605714D01*
X111593333Y-96367619D01*
X111640952Y-96272380D01*
X111688571Y-96224761D01*
X111783809Y-96177142D01*
X112021904Y-96177142D01*
X112117142Y-96224761D01*
X112164761Y-96272380D01*
X112212380Y-96367619D01*
X112212380Y-96605714D01*
X112164761Y-96700952D01*
X112117142Y-96748571D01*
X111212380Y-95558095D02*
X111212380Y-95462857D01*
X111260000Y-95367619D01*
X111307619Y-95320000D01*
X111402857Y-95272380D01*
X111593333Y-95224761D01*
X111831428Y-95224761D01*
X112021904Y-95272380D01*
X112117142Y-95320000D01*
X112164761Y-95367619D01*
X112212380Y-95462857D01*
X112212380Y-95558095D01*
X112164761Y-95653333D01*
X112117142Y-95700952D01*
X112021904Y-95748571D01*
X111831428Y-95796190D01*
X111593333Y-95796190D01*
X111402857Y-95748571D01*
X111307619Y-95700952D01*
X111260000Y-95653333D01*
X111212380Y-95558095D01*
X111307619Y-94843809D02*
X111260000Y-94796190D01*
X111212380Y-94700952D01*
X111212380Y-94462857D01*
X111260000Y-94367619D01*
X111307619Y-94320000D01*
X111402857Y-94272380D01*
X111498095Y-94272380D01*
X111640952Y-94320000D01*
X112212380Y-94891428D01*
X112212380Y-94272380D01*
X112117142Y-92510476D02*
X112164761Y-92558095D01*
X112212380Y-92700952D01*
X112212380Y-92796190D01*
X112164761Y-92939047D01*
X112069523Y-93034285D01*
X111974285Y-93081904D01*
X111783809Y-93129523D01*
X111640952Y-93129523D01*
X111450476Y-93081904D01*
X111355238Y-93034285D01*
X111260000Y-92939047D01*
X111212380Y-92796190D01*
X111212380Y-92700952D01*
X111260000Y-92558095D01*
X111307619Y-92510476D01*
X112212380Y-92081904D02*
X111212380Y-92081904D01*
X111212380Y-91700952D01*
X111260000Y-91605714D01*
X111307619Y-91558095D01*
X111402857Y-91510476D01*
X111545714Y-91510476D01*
X111640952Y-91558095D01*
X111688571Y-91605714D01*
X111736190Y-91700952D01*
X111736190Y-92081904D01*
X111212380Y-91081904D02*
X112021904Y-91081904D01*
X112117142Y-91034285D01*
X112164761Y-90986666D01*
X112212380Y-90891428D01*
X112212380Y-90700952D01*
X112164761Y-90605714D01*
X112117142Y-90558095D01*
X112021904Y-90510476D01*
X111212380Y-90510476D01*
X112117142Y-88700952D02*
X112164761Y-88748571D01*
X112212380Y-88891428D01*
X112212380Y-88986666D01*
X112164761Y-89129523D01*
X112069523Y-89224761D01*
X111974285Y-89272380D01*
X111783809Y-89320000D01*
X111640952Y-89320000D01*
X111450476Y-89272380D01*
X111355238Y-89224761D01*
X111260000Y-89129523D01*
X111212380Y-88986666D01*
X111212380Y-88891428D01*
X111260000Y-88748571D01*
X111307619Y-88700952D01*
X112212380Y-87843809D02*
X111688571Y-87843809D01*
X111593333Y-87891428D01*
X111545714Y-87986666D01*
X111545714Y-88177142D01*
X111593333Y-88272380D01*
X112164761Y-87843809D02*
X112212380Y-87939047D01*
X112212380Y-88177142D01*
X112164761Y-88272380D01*
X112069523Y-88320000D01*
X111974285Y-88320000D01*
X111879047Y-88272380D01*
X111831428Y-88177142D01*
X111831428Y-87939047D01*
X111783809Y-87843809D01*
X112212380Y-87367619D02*
X111545714Y-87367619D01*
X111736190Y-87367619D02*
X111640952Y-87320000D01*
X111593333Y-87272380D01*
X111545714Y-87177142D01*
X111545714Y-87081904D01*
X112212380Y-86320000D02*
X111212380Y-86320000D01*
X112164761Y-86320000D02*
X112212380Y-86415238D01*
X112212380Y-86605714D01*
X112164761Y-86700952D01*
X112117142Y-86748571D01*
X112021904Y-86796190D01*
X111736190Y-86796190D01*
X111640952Y-86748571D01*
X111593333Y-86700952D01*
X111545714Y-86605714D01*
X111545714Y-86415238D01*
X111593333Y-86320000D01*
X111545714Y-85081904D02*
X112402857Y-85081904D01*
X112498095Y-85129523D01*
X112545714Y-85224761D01*
X112545714Y-85272380D01*
X111212380Y-85081904D02*
X111260000Y-85129523D01*
X111307619Y-85081904D01*
X111260000Y-85034285D01*
X111212380Y-85081904D01*
X111307619Y-85081904D01*
X112212380Y-84605714D02*
X111212380Y-84605714D01*
X112212380Y-84177142D02*
X111688571Y-84177142D01*
X111593333Y-84224761D01*
X111545714Y-84320000D01*
X111545714Y-84462857D01*
X111593333Y-84558095D01*
X111640952Y-84605714D01*
X112164761Y-83320000D02*
X112212380Y-83415238D01*
X112212380Y-83605714D01*
X112164761Y-83700952D01*
X112069523Y-83748571D01*
X111688571Y-83748571D01*
X111593333Y-83700952D01*
X111545714Y-83605714D01*
X111545714Y-83415238D01*
X111593333Y-83320000D01*
X111688571Y-83272380D01*
X111783809Y-83272380D01*
X111879047Y-83748571D01*
X111736190Y-82224761D02*
X111688571Y-82272380D01*
X111640952Y-82367619D01*
X111640952Y-82462857D01*
X111688571Y-82558095D01*
X111736190Y-82605714D01*
X111831428Y-82653333D01*
X111926666Y-82653333D01*
X112021904Y-82605714D01*
X112069523Y-82558095D01*
X112117142Y-82462857D01*
X112117142Y-82367619D01*
X112069523Y-82272380D01*
X112021904Y-82224761D01*
X111640952Y-82224761D02*
X112021904Y-82224761D01*
X112069523Y-82177142D01*
X112069523Y-82129523D01*
X112021904Y-82034285D01*
X111926666Y-81986666D01*
X111688571Y-81986666D01*
X111545714Y-82081904D01*
X111450476Y-82224761D01*
X111402857Y-82415238D01*
X111450476Y-82605714D01*
X111545714Y-82748571D01*
X111688571Y-82843809D01*
X111879047Y-82891428D01*
X112069523Y-82843809D01*
X112212380Y-82748571D01*
X112307619Y-82605714D01*
X112355238Y-82415238D01*
X112307619Y-82224761D01*
X112212380Y-82081904D01*
X111545714Y-81558095D02*
X112402857Y-81558095D01*
X112498095Y-81605714D01*
X112545714Y-81700952D01*
X112545714Y-81748571D01*
X111212380Y-81558095D02*
X111260000Y-81605714D01*
X111307619Y-81558095D01*
X111260000Y-81510476D01*
X111212380Y-81558095D01*
X111307619Y-81558095D01*
X112164761Y-80700952D02*
X112212380Y-80796190D01*
X112212380Y-80986666D01*
X112164761Y-81081904D01*
X112069523Y-81129523D01*
X111688571Y-81129523D01*
X111593333Y-81081904D01*
X111545714Y-80986666D01*
X111545714Y-80796190D01*
X111593333Y-80700952D01*
X111688571Y-80653333D01*
X111783809Y-80653333D01*
X111879047Y-81129523D01*
X112212380Y-80224761D02*
X111545714Y-80224761D01*
X111736190Y-80224761D02*
X111640952Y-80177142D01*
X111593333Y-80129523D01*
X111545714Y-80034285D01*
X111545714Y-79939047D01*
X112164761Y-79224761D02*
X112212380Y-79320000D01*
X112212380Y-79510476D01*
X112164761Y-79605714D01*
X112069523Y-79653333D01*
X111688571Y-79653333D01*
X111593333Y-79605714D01*
X111545714Y-79510476D01*
X111545714Y-79320000D01*
X111593333Y-79224761D01*
X111688571Y-79177142D01*
X111783809Y-79177142D01*
X111879047Y-79653333D01*
X112212380Y-78748571D02*
X111545714Y-78748571D01*
X111640952Y-78748571D02*
X111593333Y-78700952D01*
X111545714Y-78605714D01*
X111545714Y-78462857D01*
X111593333Y-78367619D01*
X111688571Y-78320000D01*
X112212380Y-78320000D01*
X111688571Y-78320000D02*
X111593333Y-78272380D01*
X111545714Y-78177142D01*
X111545714Y-78034285D01*
X111593333Y-77939047D01*
X111688571Y-77891428D01*
X112212380Y-77891428D01*
X111545714Y-77510476D02*
X112212380Y-77272380D01*
X111545714Y-77034285D02*
X112212380Y-77272380D01*
X112450476Y-77367619D01*
X112498095Y-77415238D01*
X112545714Y-77510476D01*
X112164761Y-76272380D02*
X112212380Y-76367619D01*
X112212380Y-76558095D01*
X112164761Y-76653333D01*
X112069523Y-76700952D01*
X111688571Y-76700952D01*
X111593333Y-76653333D01*
X111545714Y-76558095D01*
X111545714Y-76367619D01*
X111593333Y-76272380D01*
X111688571Y-76224761D01*
X111783809Y-76224761D01*
X111879047Y-76700952D01*
X111545714Y-75796190D02*
X112212380Y-75796190D01*
X111640952Y-75796190D02*
X111593333Y-75748571D01*
X111545714Y-75653333D01*
X111545714Y-75510476D01*
X111593333Y-75415238D01*
X111688571Y-75367619D01*
X112212380Y-75367619D01*
X111545714Y-74462857D02*
X112355238Y-74462857D01*
X112450476Y-74510476D01*
X112498095Y-74558095D01*
X112545714Y-74653333D01*
X112545714Y-74796190D01*
X112498095Y-74891428D01*
X112164761Y-74462857D02*
X112212380Y-74558095D01*
X112212380Y-74748571D01*
X112164761Y-74843809D01*
X112117142Y-74891428D01*
X112021904Y-74939047D01*
X111736190Y-74939047D01*
X111640952Y-74891428D01*
X111593333Y-74843809D01*
X111545714Y-74748571D01*
X111545714Y-74558095D01*
X111593333Y-74462857D01*
X112212380Y-73843809D02*
X112164761Y-73939047D01*
X112069523Y-73986666D01*
X111212380Y-73986666D01*
X112212380Y-73462857D02*
X111545714Y-73462857D01*
X111212380Y-73462857D02*
X111260000Y-73510476D01*
X111307619Y-73462857D01*
X111260000Y-73415238D01*
X111212380Y-73462857D01*
X111307619Y-73462857D01*
X112164761Y-73034285D02*
X112212380Y-72939047D01*
X112212380Y-72748571D01*
X112164761Y-72653333D01*
X112069523Y-72605714D01*
X112021904Y-72605714D01*
X111926666Y-72653333D01*
X111879047Y-72748571D01*
X111879047Y-72891428D01*
X111831428Y-72986666D01*
X111736190Y-73034285D01*
X111688571Y-73034285D01*
X111593333Y-72986666D01*
X111545714Y-72891428D01*
X111545714Y-72748571D01*
X111593333Y-72653333D01*
X112212380Y-72177142D02*
X111212380Y-72177142D01*
X112212380Y-71748571D02*
X111688571Y-71748571D01*
X111593333Y-71796190D01*
X111545714Y-71891428D01*
X111545714Y-72034285D01*
X111593333Y-72129523D01*
X111640952Y-72177142D01*
X112117142Y-71272380D02*
X112164761Y-71224761D01*
X112212380Y-71272380D01*
X112164761Y-71320000D01*
X112117142Y-71272380D01*
X112212380Y-71272380D01*
X112212380Y-70653333D02*
X112164761Y-70748571D01*
X112117142Y-70796190D01*
X112021904Y-70843809D01*
X111736190Y-70843809D01*
X111640952Y-70796190D01*
X111593333Y-70748571D01*
X111545714Y-70653333D01*
X111545714Y-70510476D01*
X111593333Y-70415238D01*
X111640952Y-70367619D01*
X111736190Y-70320000D01*
X112021904Y-70320000D01*
X112117142Y-70367619D01*
X112164761Y-70415238D01*
X112212380Y-70510476D01*
X112212380Y-70653333D01*
X112212380Y-69891428D02*
X111545714Y-69891428D01*
X111736190Y-69891428D02*
X111640952Y-69843809D01*
X111593333Y-69796190D01*
X111545714Y-69700952D01*
X111545714Y-69605714D01*
X111545714Y-68843809D02*
X112355238Y-68843809D01*
X112450476Y-68891428D01*
X112498095Y-68939047D01*
X112545714Y-69034285D01*
X112545714Y-69177142D01*
X112498095Y-69272380D01*
X112164761Y-68843809D02*
X112212380Y-68939047D01*
X112212380Y-69129523D01*
X112164761Y-69224761D01*
X112117142Y-69272380D01*
X112021904Y-69320000D01*
X111736190Y-69320000D01*
X111640952Y-69272380D01*
X111593333Y-69224761D01*
X111545714Y-69129523D01*
X111545714Y-68939047D01*
X111593333Y-68843809D01*
D11*
X160190000Y-46930000D02*
X160190000Y-97850000D01*
X160190000Y-97850000D02*
X162850000Y-97850000D01*
X162850000Y-97850000D02*
X162850000Y-46930000D01*
X162850000Y-46930000D02*
X160190000Y-46930000D01*
X162850000Y-47880000D02*
X168850000Y-47880000D01*
X168850000Y-47880000D02*
X168850000Y-48640000D01*
X168850000Y-48640000D02*
X162850000Y-48640000D01*
X162850000Y-47940000D02*
X168850000Y-47940000D01*
X162850000Y-48060000D02*
X168850000Y-48060000D01*
X162850000Y-48180000D02*
X168850000Y-48180000D01*
X162850000Y-48300000D02*
X168850000Y-48300000D01*
X162850000Y-48420000D02*
X168850000Y-48420000D01*
X162850000Y-48540000D02*
X168850000Y-48540000D01*
X159792929Y-47880000D02*
X160190000Y-47880000D01*
X159792929Y-48640000D02*
X160190000Y-48640000D01*
X157320000Y-47880000D02*
X157707071Y-47880000D01*
X157320000Y-48640000D02*
X157707071Y-48640000D01*
X160190000Y-49530000D02*
X162850000Y-49530000D01*
X162850000Y-50420000D02*
X168850000Y-50420000D01*
X168850000Y-50420000D02*
X168850000Y-51180000D01*
X168850000Y-51180000D02*
X162850000Y-51180000D01*
X159792929Y-50420000D02*
X160190000Y-50420000D01*
X159792929Y-51180000D02*
X160190000Y-51180000D01*
X157252929Y-50420000D02*
X157707071Y-50420000D01*
X157252929Y-51180000D02*
X157707071Y-51180000D01*
X160190000Y-52070000D02*
X162850000Y-52070000D01*
X162850000Y-52960000D02*
X168850000Y-52960000D01*
X168850000Y-52960000D02*
X168850000Y-53720000D01*
X168850000Y-53720000D02*
X162850000Y-53720000D01*
X159792929Y-52960000D02*
X160190000Y-52960000D01*
X159792929Y-53720000D02*
X160190000Y-53720000D01*
X157252929Y-52960000D02*
X157707071Y-52960000D01*
X157252929Y-53720000D02*
X157707071Y-53720000D01*
X160190000Y-54610000D02*
X162850000Y-54610000D01*
X162850000Y-55500000D02*
X168850000Y-55500000D01*
X168850000Y-55500000D02*
X168850000Y-56260000D01*
X168850000Y-56260000D02*
X162850000Y-56260000D01*
X159792929Y-55500000D02*
X160190000Y-55500000D01*
X159792929Y-56260000D02*
X160190000Y-56260000D01*
X157252929Y-55500000D02*
X157707071Y-55500000D01*
X157252929Y-56260000D02*
X157707071Y-56260000D01*
X160190000Y-57150000D02*
X162850000Y-57150000D01*
X162850000Y-58040000D02*
X168850000Y-58040000D01*
X168850000Y-58040000D02*
X168850000Y-58800000D01*
X168850000Y-58800000D02*
X162850000Y-58800000D01*
X159792929Y-58040000D02*
X160190000Y-58040000D01*
X159792929Y-58800000D02*
X160190000Y-58800000D01*
X157252929Y-58040000D02*
X157707071Y-58040000D01*
X157252929Y-58800000D02*
X157707071Y-58800000D01*
X160190000Y-59690000D02*
X162850000Y-59690000D01*
X162850000Y-60580000D02*
X168850000Y-60580000D01*
X168850000Y-60580000D02*
X168850000Y-61340000D01*
X168850000Y-61340000D02*
X162850000Y-61340000D01*
X159792929Y-60580000D02*
X160190000Y-60580000D01*
X159792929Y-61340000D02*
X160190000Y-61340000D01*
X157252929Y-60580000D02*
X157707071Y-60580000D01*
X157252929Y-61340000D02*
X157707071Y-61340000D01*
X160190000Y-62230000D02*
X162850000Y-62230000D01*
X162850000Y-63120000D02*
X168850000Y-63120000D01*
X168850000Y-63120000D02*
X168850000Y-63880000D01*
X168850000Y-63880000D02*
X162850000Y-63880000D01*
X159792929Y-63120000D02*
X160190000Y-63120000D01*
X159792929Y-63880000D02*
X160190000Y-63880000D01*
X157252929Y-63120000D02*
X157707071Y-63120000D01*
X157252929Y-63880000D02*
X157707071Y-63880000D01*
X160190000Y-64770000D02*
X162850000Y-64770000D01*
X162850000Y-65660000D02*
X168850000Y-65660000D01*
X168850000Y-65660000D02*
X168850000Y-66420000D01*
X168850000Y-66420000D02*
X162850000Y-66420000D01*
X159792929Y-65660000D02*
X160190000Y-65660000D01*
X159792929Y-66420000D02*
X160190000Y-66420000D01*
X157252929Y-65660000D02*
X157707071Y-65660000D01*
X157252929Y-66420000D02*
X157707071Y-66420000D01*
X160190000Y-67310000D02*
X162850000Y-67310000D01*
X162850000Y-68200000D02*
X168850000Y-68200000D01*
X168850000Y-68200000D02*
X168850000Y-68960000D01*
X168850000Y-68960000D02*
X162850000Y-68960000D01*
X159792929Y-68200000D02*
X160190000Y-68200000D01*
X159792929Y-68960000D02*
X160190000Y-68960000D01*
X157252929Y-68200000D02*
X157707071Y-68200000D01*
X157252929Y-68960000D02*
X157707071Y-68960000D01*
X160190000Y-69850000D02*
X162850000Y-69850000D01*
X162850000Y-70740000D02*
X168850000Y-70740000D01*
X168850000Y-70740000D02*
X168850000Y-71500000D01*
X168850000Y-71500000D02*
X162850000Y-71500000D01*
X159792929Y-70740000D02*
X160190000Y-70740000D01*
X159792929Y-71500000D02*
X160190000Y-71500000D01*
X157252929Y-70740000D02*
X157707071Y-70740000D01*
X157252929Y-71500000D02*
X157707071Y-71500000D01*
X160190000Y-72390000D02*
X162850000Y-72390000D01*
X162850000Y-73280000D02*
X168850000Y-73280000D01*
X168850000Y-73280000D02*
X168850000Y-74040000D01*
X168850000Y-74040000D02*
X162850000Y-74040000D01*
X159792929Y-73280000D02*
X160190000Y-73280000D01*
X159792929Y-74040000D02*
X160190000Y-74040000D01*
X157252929Y-73280000D02*
X157707071Y-73280000D01*
X157252929Y-74040000D02*
X157707071Y-74040000D01*
X160190000Y-74930000D02*
X162850000Y-74930000D01*
X162850000Y-75820000D02*
X168850000Y-75820000D01*
X168850000Y-75820000D02*
X168850000Y-76580000D01*
X168850000Y-76580000D02*
X162850000Y-76580000D01*
X159792929Y-75820000D02*
X160190000Y-75820000D01*
X159792929Y-76580000D02*
X160190000Y-76580000D01*
X157252929Y-75820000D02*
X157707071Y-75820000D01*
X157252929Y-76580000D02*
X157707071Y-76580000D01*
X160190000Y-77470000D02*
X162850000Y-77470000D01*
X162850000Y-78360000D02*
X168850000Y-78360000D01*
X168850000Y-78360000D02*
X168850000Y-79120000D01*
X168850000Y-79120000D02*
X162850000Y-79120000D01*
X159792929Y-78360000D02*
X160190000Y-78360000D01*
X159792929Y-79120000D02*
X160190000Y-79120000D01*
X157252929Y-78360000D02*
X157707071Y-78360000D01*
X157252929Y-79120000D02*
X157707071Y-79120000D01*
X160190000Y-80010000D02*
X162850000Y-80010000D01*
X162850000Y-80900000D02*
X168850000Y-80900000D01*
X168850000Y-80900000D02*
X168850000Y-81660000D01*
X168850000Y-81660000D02*
X162850000Y-81660000D01*
X159792929Y-80900000D02*
X160190000Y-80900000D01*
X159792929Y-81660000D02*
X160190000Y-81660000D01*
X157252929Y-80900000D02*
X157707071Y-80900000D01*
X157252929Y-81660000D02*
X157707071Y-81660000D01*
X160190000Y-82550000D02*
X162850000Y-82550000D01*
X162850000Y-83440000D02*
X168850000Y-83440000D01*
X168850000Y-83440000D02*
X168850000Y-84200000D01*
X168850000Y-84200000D02*
X162850000Y-84200000D01*
X159792929Y-83440000D02*
X160190000Y-83440000D01*
X159792929Y-84200000D02*
X160190000Y-84200000D01*
X157252929Y-83440000D02*
X157707071Y-83440000D01*
X157252929Y-84200000D02*
X157707071Y-84200000D01*
X160190000Y-85090000D02*
X162850000Y-85090000D01*
X162850000Y-85980000D02*
X168850000Y-85980000D01*
X168850000Y-85980000D02*
X168850000Y-86740000D01*
X168850000Y-86740000D02*
X162850000Y-86740000D01*
X159792929Y-85980000D02*
X160190000Y-85980000D01*
X159792929Y-86740000D02*
X160190000Y-86740000D01*
X157252929Y-85980000D02*
X157707071Y-85980000D01*
X157252929Y-86740000D02*
X157707071Y-86740000D01*
X160190000Y-87630000D02*
X162850000Y-87630000D01*
X162850000Y-88520000D02*
X168850000Y-88520000D01*
X168850000Y-88520000D02*
X168850000Y-89280000D01*
X168850000Y-89280000D02*
X162850000Y-89280000D01*
X159792929Y-88520000D02*
X160190000Y-88520000D01*
X159792929Y-89280000D02*
X160190000Y-89280000D01*
X157252929Y-88520000D02*
X157707071Y-88520000D01*
X157252929Y-89280000D02*
X157707071Y-89280000D01*
X160190000Y-90170000D02*
X162850000Y-90170000D01*
X162850000Y-91060000D02*
X168850000Y-91060000D01*
X168850000Y-91060000D02*
X168850000Y-91820000D01*
X168850000Y-91820000D02*
X162850000Y-91820000D01*
X159792929Y-91060000D02*
X160190000Y-91060000D01*
X159792929Y-91820000D02*
X160190000Y-91820000D01*
X157252929Y-91060000D02*
X157707071Y-91060000D01*
X157252929Y-91820000D02*
X157707071Y-91820000D01*
X160190000Y-92710000D02*
X162850000Y-92710000D01*
X162850000Y-93600000D02*
X168850000Y-93600000D01*
X168850000Y-93600000D02*
X168850000Y-94360000D01*
X168850000Y-94360000D02*
X162850000Y-94360000D01*
X159792929Y-93600000D02*
X160190000Y-93600000D01*
X159792929Y-94360000D02*
X160190000Y-94360000D01*
X157252929Y-93600000D02*
X157707071Y-93600000D01*
X157252929Y-94360000D02*
X157707071Y-94360000D01*
X160190000Y-95250000D02*
X162850000Y-95250000D01*
X162850000Y-96140000D02*
X168850000Y-96140000D01*
X168850000Y-96140000D02*
X168850000Y-96900000D01*
X168850000Y-96900000D02*
X162850000Y-96900000D01*
X159792929Y-96140000D02*
X160190000Y-96140000D01*
X159792929Y-96900000D02*
X160190000Y-96900000D01*
X157252929Y-96140000D02*
X157707071Y-96140000D01*
X157252929Y-96900000D02*
X157707071Y-96900000D01*
X154940000Y-48260000D02*
X154940000Y-46990000D01*
X154940000Y-46990000D02*
X156210000Y-46990000D01*
X118210000Y-52610000D02*
X115470000Y-52610000D01*
X115470000Y-52610000D02*
X115470000Y-59150000D01*
X115470000Y-59150000D02*
X118210000Y-59150000D01*
X118210000Y-59150000D02*
X118210000Y-52610000D01*
X116840000Y-51840000D02*
X116840000Y-52610000D01*
X116840000Y-59920000D02*
X116840000Y-59150000D01*
X133315000Y-47235000D02*
X128255000Y-47235000D01*
X128255000Y-47235000D02*
X128255000Y-98155000D01*
X128255000Y-98155000D02*
X140375000Y-98155000D01*
X140375000Y-98155000D02*
X140375000Y-47235000D01*
X140375000Y-47235000D02*
X135315000Y-47235000D01*
X135315000Y-47235000D02*
G75*
G02*
X133315000Y-47235000I-1000000J0D01*
G01*
X120175000Y-66580000D02*
X120800000Y-66580000D01*
X117960000Y-66580000D02*
X118585000Y-66580000D01*
X120175000Y-70620000D02*
X120800000Y-70620000D01*
X117960000Y-70620000D02*
X118585000Y-70620000D01*
X120800000Y-70620000D02*
X120800000Y-66580000D01*
X117960000Y-70620000D02*
X117960000Y-66580000D01*
D10*
X161531666Y-45442380D02*
X161531666Y-46156666D01*
X161484047Y-46299523D01*
X161388809Y-46394761D01*
X161245952Y-46442380D01*
X161150714Y-46442380D01*
X162531666Y-46442380D02*
X161960238Y-46442380D01*
X162245952Y-46442380D02*
X162245952Y-45442380D01*
X162150714Y-45585238D01*
X162055476Y-45680476D01*
X161960238Y-45728095D01*
X119662380Y-56046666D02*
X119186190Y-56380000D01*
X119662380Y-56618095D02*
X118662380Y-56618095D01*
X118662380Y-56237142D01*
X118710000Y-56141904D01*
X118757619Y-56094285D01*
X118852857Y-56046666D01*
X118995714Y-56046666D01*
X119090952Y-56094285D01*
X119138571Y-56141904D01*
X119186190Y-56237142D01*
X119186190Y-56618095D01*
X119662380Y-55094285D02*
X119662380Y-55665714D01*
X119662380Y-55380000D02*
X118662380Y-55380000D01*
X118805238Y-55475238D01*
X118900476Y-55570476D01*
X118948095Y-55665714D01*
X133553095Y-45687380D02*
X133553095Y-46496904D01*
X133600714Y-46592142D01*
X133648333Y-46639761D01*
X133743571Y-46687380D01*
X133934047Y-46687380D01*
X134029285Y-46639761D01*
X134076904Y-46592142D01*
X134124523Y-46496904D01*
X134124523Y-45687380D01*
X135124523Y-46687380D02*
X134553095Y-46687380D01*
X134838809Y-46687380D02*
X134838809Y-45687380D01*
X134743571Y-45830238D01*
X134648333Y-45925476D01*
X134553095Y-45973095D01*
X117187142Y-68766666D02*
X117234761Y-68814285D01*
X117282380Y-68957142D01*
X117282380Y-69052380D01*
X117234761Y-69195238D01*
X117139523Y-69290476D01*
X117044285Y-69338095D01*
X116853809Y-69385714D01*
X116710952Y-69385714D01*
X116520476Y-69338095D01*
X116425238Y-69290476D01*
X116330000Y-69195238D01*
X116282380Y-69052380D01*
X116282380Y-68957142D01*
X116330000Y-68814285D01*
X116377619Y-68766666D01*
X117282380Y-67814285D02*
X117282380Y-68385714D01*
X117282380Y-68100000D02*
X116282380Y-68100000D01*
X116425238Y-68195238D01*
X116520476Y-68290476D01*
X116568095Y-68385714D01*
%LPC*%
D12*
X158750000Y-96520000D03*
X156210000Y-96520000D03*
X158750000Y-93980000D03*
X156210000Y-93980000D03*
X158750000Y-91440000D03*
X156210000Y-91440000D03*
X158750000Y-88900000D03*
X156210000Y-88900000D03*
X158750000Y-86360000D03*
X156210000Y-86360000D03*
X158750000Y-83820000D03*
X156210000Y-83820000D03*
X158750000Y-81280000D03*
X156210000Y-81280000D03*
X158750000Y-78740000D03*
X156210000Y-78740000D03*
X158750000Y-76200000D03*
X156210000Y-76200000D03*
X158750000Y-73660000D03*
X156210000Y-73660000D03*
X158750000Y-71120000D03*
X156210000Y-71120000D03*
X158750000Y-68580000D03*
X156210000Y-68580000D03*
X158750000Y-66040000D03*
X156210000Y-66040000D03*
X158750000Y-63500000D03*
X156210000Y-63500000D03*
X158750000Y-60960000D03*
X156210000Y-60960000D03*
X158750000Y-58420000D03*
X156210000Y-58420000D03*
X158750000Y-55880000D03*
X156210000Y-55880000D03*
X158750000Y-53340000D03*
X156210000Y-53340000D03*
X158750000Y-50800000D03*
X156210000Y-50800000D03*
X158750000Y-48260000D03*
D13*
X156210000Y-48260000D03*
D14*
X116840000Y-50800000D03*
D15*
X116840000Y-60960000D03*
D16*
X126695000Y-48565000D03*
D17*
X141935000Y-96825000D03*
X126695000Y-51105000D03*
X141935000Y-94285000D03*
X126695000Y-53645000D03*
X141935000Y-91745000D03*
X126695000Y-56185000D03*
X141935000Y-89205000D03*
X126695000Y-58725000D03*
X141935000Y-86665000D03*
X126695000Y-61265000D03*
X141935000Y-84125000D03*
X126695000Y-63805000D03*
X141935000Y-81585000D03*
X126695000Y-66345000D03*
X141935000Y-79045000D03*
X126695000Y-68885000D03*
X141935000Y-76505000D03*
X126695000Y-71425000D03*
X141935000Y-73965000D03*
X126695000Y-73965000D03*
X141935000Y-71425000D03*
X126695000Y-76505000D03*
X141935000Y-68885000D03*
X126695000Y-79045000D03*
X141935000Y-66345000D03*
X126695000Y-81585000D03*
X141935000Y-63805000D03*
X126695000Y-84125000D03*
X141935000Y-61265000D03*
X126695000Y-86665000D03*
X141935000Y-58725000D03*
X126695000Y-89205000D03*
X141935000Y-56185000D03*
X126695000Y-91745000D03*
X141935000Y-53645000D03*
X126695000Y-94285000D03*
X141935000Y-51105000D03*
X126695000Y-96825000D03*
X141935000Y-48565000D03*
D14*
X119380000Y-69850000D03*
X119380000Y-67350000D03*
M02*
