G04 #@! TF.GenerationSoftware,KiCad,Pcbnew,(5.1.12)-1*
G04 #@! TF.CreationDate,2022-10-05T17:54:17-05:00*
G04 #@! TF.ProjectId,cpu,6370752e-6b69-4636-9164-5f7063625858,rev?*
G04 #@! TF.SameCoordinates,Original*
G04 #@! TF.FileFunction,Copper,L2,Bot*
G04 #@! TF.FilePolarity,Positive*
%FSLAX46Y46*%
G04 Gerber Fmt 4.6, Leading zero omitted, Abs format (unit mm)*
G04 Created by KiCad (PCBNEW (5.1.12)-1) date 2022-10-05 17:54:17*
%MOMM*%
%LPD*%
G01*
G04 APERTURE LIST*
G04 #@! TA.AperFunction,ComponentPad*
%ADD10O,1.700000X1.700000*%
G04 #@! TD*
G04 #@! TA.AperFunction,ComponentPad*
%ADD11R,1.700000X1.700000*%
G04 #@! TD*
G04 #@! TA.AperFunction,ComponentPad*
%ADD12C,1.600000*%
G04 #@! TD*
G04 #@! TA.AperFunction,ComponentPad*
%ADD13O,1.600000X1.600000*%
G04 #@! TD*
G04 #@! TA.AperFunction,ComponentPad*
%ADD14R,2.400000X1.600000*%
G04 #@! TD*
G04 #@! TA.AperFunction,ComponentPad*
%ADD15O,2.400000X1.600000*%
G04 #@! TD*
G04 #@! TA.AperFunction,ViaPad*
%ADD16C,0.800000*%
G04 #@! TD*
G04 #@! TA.AperFunction,Conductor*
%ADD17C,0.250000*%
G04 #@! TD*
G04 APERTURE END LIST*
D10*
X158750000Y-96520000D03*
X156210000Y-96520000D03*
X158750000Y-93980000D03*
X156210000Y-93980000D03*
X158750000Y-91440000D03*
X156210000Y-91440000D03*
X158750000Y-88900000D03*
X156210000Y-88900000D03*
X158750000Y-86360000D03*
X156210000Y-86360000D03*
X158750000Y-83820000D03*
X156210000Y-83820000D03*
X158750000Y-81280000D03*
X156210000Y-81280000D03*
X158750000Y-78740000D03*
X156210000Y-78740000D03*
X158750000Y-76200000D03*
X156210000Y-76200000D03*
X158750000Y-73660000D03*
X156210000Y-73660000D03*
X158750000Y-71120000D03*
X156210000Y-71120000D03*
X158750000Y-68580000D03*
X156210000Y-68580000D03*
X158750000Y-66040000D03*
X156210000Y-66040000D03*
X158750000Y-63500000D03*
X156210000Y-63500000D03*
X158750000Y-60960000D03*
X156210000Y-60960000D03*
X158750000Y-58420000D03*
X156210000Y-58420000D03*
X158750000Y-55880000D03*
X156210000Y-55880000D03*
X158750000Y-53340000D03*
X156210000Y-53340000D03*
X158750000Y-50800000D03*
X156210000Y-50800000D03*
X158750000Y-48260000D03*
D11*
X156210000Y-48260000D03*
D12*
X116840000Y-50800000D03*
D13*
X116840000Y-60960000D03*
D14*
X126695000Y-48565000D03*
D15*
X141935000Y-96825000D03*
X126695000Y-51105000D03*
X141935000Y-94285000D03*
X126695000Y-53645000D03*
X141935000Y-91745000D03*
X126695000Y-56185000D03*
X141935000Y-89205000D03*
X126695000Y-58725000D03*
X141935000Y-86665000D03*
X126695000Y-61265000D03*
X141935000Y-84125000D03*
X126695000Y-63805000D03*
X141935000Y-81585000D03*
X126695000Y-66345000D03*
X141935000Y-79045000D03*
X126695000Y-68885000D03*
X141935000Y-76505000D03*
X126695000Y-71425000D03*
X141935000Y-73965000D03*
X126695000Y-73965000D03*
X141935000Y-71425000D03*
X126695000Y-76505000D03*
X141935000Y-68885000D03*
X126695000Y-79045000D03*
X141935000Y-66345000D03*
X126695000Y-81585000D03*
X141935000Y-63805000D03*
X126695000Y-84125000D03*
X141935000Y-61265000D03*
X126695000Y-86665000D03*
X141935000Y-58725000D03*
X126695000Y-89205000D03*
X141935000Y-56185000D03*
X126695000Y-91745000D03*
X141935000Y-53645000D03*
X126695000Y-94285000D03*
X141935000Y-51105000D03*
X126695000Y-96825000D03*
X141935000Y-48565000D03*
D12*
X119380000Y-69850000D03*
X119380000Y-67350000D03*
D16*
X139293000Y-73460300D03*
D17*
X125170000Y-66345000D02*
X120385000Y-66345000D01*
X120385000Y-66345000D02*
X119380000Y-67350000D01*
X126695000Y-66345000D02*
X125170000Y-66345000D01*
X125170000Y-66345000D02*
X125170000Y-61265000D01*
X125170000Y-61265000D02*
X126695000Y-61265000D01*
X126695000Y-61265000D02*
X128220000Y-61265000D01*
X128220000Y-61265000D02*
X130760000Y-58725000D01*
X130760000Y-58725000D02*
X141935000Y-58725000D01*
X116840000Y-60960000D02*
X117965000Y-60960000D01*
X117965000Y-60960000D02*
X118270000Y-61265000D01*
X118270000Y-61265000D02*
X125170000Y-61265000D01*
X158750000Y-50800000D02*
X157575000Y-50800000D01*
X157575000Y-50800000D02*
X157575000Y-51165200D01*
X157575000Y-51165200D02*
X156670000Y-52070000D01*
X156670000Y-52070000D02*
X150115000Y-52070000D01*
X150115000Y-52070000D02*
X143460000Y-58725000D01*
X143460000Y-58725000D02*
X141935000Y-58725000D01*
X158750000Y-53340000D02*
X158750000Y-54515100D01*
X158750000Y-54515100D02*
X158385000Y-54515100D01*
X158385000Y-54515100D02*
X157480000Y-55419800D01*
X157480000Y-55419800D02*
X157480000Y-56310900D01*
X157480000Y-56310900D02*
X156736000Y-57055200D01*
X156736000Y-57055200D02*
X155058000Y-57055200D01*
X155058000Y-57055200D02*
X145768000Y-66345000D01*
X145768000Y-66345000D02*
X141935000Y-66345000D01*
X158750000Y-55880000D02*
X158750000Y-57055100D01*
X158750000Y-57055100D02*
X158385000Y-57055100D01*
X158385000Y-57055100D02*
X157385000Y-58054600D01*
X157385000Y-58054600D02*
X157385000Y-58909700D01*
X157385000Y-58909700D02*
X156700000Y-59595200D01*
X156700000Y-59595200D02*
X154945000Y-59595200D01*
X154945000Y-59595200D02*
X145655000Y-68885000D01*
X145655000Y-68885000D02*
X141935000Y-68885000D01*
X156210000Y-88900000D02*
X143765000Y-88900000D01*
X143765000Y-88900000D02*
X143460000Y-89205000D01*
X143460000Y-89205000D02*
X141935000Y-89205000D01*
X158750000Y-60960000D02*
X158750000Y-62135100D01*
X158750000Y-62135100D02*
X158383000Y-62135100D01*
X158383000Y-62135100D02*
X157575000Y-62942900D01*
X157575000Y-62942900D02*
X157575000Y-63821000D01*
X157575000Y-63821000D02*
X156721000Y-64675200D01*
X156721000Y-64675200D02*
X153398000Y-64675200D01*
X153398000Y-64675200D02*
X144108000Y-73965000D01*
X144108000Y-73965000D02*
X141935000Y-73965000D01*
X141935000Y-94285000D02*
X143460000Y-94285000D01*
X143460000Y-94285000D02*
X147670000Y-90075200D01*
X147670000Y-90075200D02*
X156725000Y-90075200D01*
X156725000Y-90075200D02*
X157386000Y-89414200D01*
X157386000Y-89414200D02*
X157386000Y-85805500D01*
X157386000Y-85805500D02*
X156575000Y-84995100D01*
X156575000Y-84995100D02*
X156210000Y-84995100D01*
X156210000Y-84995100D02*
X156210000Y-83820000D01*
X141935000Y-76505000D02*
X148925000Y-76505000D01*
X148925000Y-76505000D02*
X155675000Y-69755200D01*
X155675000Y-69755200D02*
X156736000Y-69755200D01*
X156736000Y-69755200D02*
X157385000Y-69105800D01*
X157385000Y-69105800D02*
X157385000Y-65674700D01*
X157385000Y-65674700D02*
X158385000Y-64675100D01*
X158385000Y-64675100D02*
X158750000Y-64675100D01*
X158750000Y-64675100D02*
X158750000Y-63500000D01*
X126695000Y-96825000D02*
X128220000Y-96825000D01*
X128220000Y-96825000D02*
X137134000Y-87911100D01*
X137134000Y-87911100D02*
X148404000Y-87911100D01*
X148404000Y-87911100D02*
X155035000Y-81280000D01*
X155035000Y-81280000D02*
X156210000Y-81280000D01*
X126695000Y-94285000D02*
X128220000Y-94285000D01*
X128220000Y-94285000D02*
X137110000Y-85395000D01*
X137110000Y-85395000D02*
X148380000Y-85395000D01*
X148380000Y-85395000D02*
X155035000Y-78740000D01*
X155035000Y-78740000D02*
X156210000Y-78740000D01*
X126695000Y-91745000D02*
X128220000Y-91745000D01*
X128220000Y-91745000D02*
X137110000Y-82855000D01*
X137110000Y-82855000D02*
X148380000Y-82855000D01*
X148380000Y-82855000D02*
X155035000Y-76200000D01*
X155035000Y-76200000D02*
X156210000Y-76200000D01*
X126695000Y-89205000D02*
X128220000Y-89205000D01*
X128220000Y-89205000D02*
X137110000Y-80315000D01*
X137110000Y-80315000D02*
X148380000Y-80315000D01*
X148380000Y-80315000D02*
X155035000Y-73660000D01*
X155035000Y-73660000D02*
X156210000Y-73660000D01*
X126695000Y-86665000D02*
X128220000Y-86665000D01*
X128220000Y-86665000D02*
X137110000Y-77775000D01*
X137110000Y-77775000D02*
X148380000Y-77775000D01*
X148380000Y-77775000D02*
X155035000Y-71120000D01*
X155035000Y-71120000D02*
X156210000Y-71120000D01*
X141935000Y-56185000D02*
X140410000Y-56185000D01*
X140410000Y-56185000D02*
X140410000Y-48078100D01*
X140410000Y-48078100D02*
X141101000Y-47387400D01*
X141101000Y-47387400D02*
X152464000Y-47387400D01*
X152464000Y-47387400D02*
X154606000Y-49530000D01*
X154606000Y-49530000D02*
X159177000Y-49530000D01*
X159177000Y-49530000D02*
X159939000Y-50291700D01*
X159939000Y-50291700D02*
X159939000Y-74201100D01*
X159939000Y-74201100D02*
X159115000Y-75024900D01*
X159115000Y-75024900D02*
X158750000Y-75024900D01*
X158750000Y-75024900D02*
X158750000Y-76200000D01*
X126695000Y-84125000D02*
X128220000Y-84125000D01*
X128220000Y-84125000D02*
X137031000Y-75314500D01*
X137031000Y-75314500D02*
X148300000Y-75314500D01*
X148300000Y-75314500D02*
X155035000Y-68580000D01*
X155035000Y-68580000D02*
X156210000Y-68580000D01*
X126695000Y-81585000D02*
X128220000Y-81585000D01*
X128220000Y-81585000D02*
X136345000Y-73460300D01*
X136345000Y-73460300D02*
X139293000Y-73460300D01*
X156210000Y-63500000D02*
X153300000Y-63500000D01*
X153300000Y-63500000D02*
X144105000Y-72695000D01*
X144105000Y-72695000D02*
X134570000Y-72695000D01*
X134570000Y-72695000D02*
X128220000Y-79045000D01*
X128220000Y-79045000D02*
X126695000Y-79045000D01*
X156210000Y-60960000D02*
X155035000Y-60960000D01*
X155035000Y-60960000D02*
X145786000Y-70209400D01*
X145786000Y-70209400D02*
X145786000Y-70209500D01*
X145786000Y-70209500D02*
X134516000Y-70209500D01*
X134516000Y-70209500D02*
X128220000Y-76505000D01*
X128220000Y-76505000D02*
X126695000Y-76505000D01*
X126695000Y-73965000D02*
X128220000Y-73965000D01*
X128220000Y-73965000D02*
X134570000Y-67615000D01*
X134570000Y-67615000D02*
X145135000Y-67615000D01*
X145135000Y-67615000D02*
X154330000Y-58420000D01*
X154330000Y-58420000D02*
X156210000Y-58420000D01*
X126695000Y-53645000D02*
X128220000Y-53645000D01*
X128220000Y-53645000D02*
X134937000Y-46928500D01*
X134937000Y-46928500D02*
X159127000Y-46928500D01*
X159127000Y-46928500D02*
X160418000Y-48219000D01*
X160418000Y-48219000D02*
X160418000Y-86422500D01*
X160418000Y-86422500D02*
X159115000Y-87724900D01*
X159115000Y-87724900D02*
X158750000Y-87724900D01*
X158750000Y-87724900D02*
X158750000Y-88900000D01*
X156210000Y-55880000D02*
X155035000Y-55880000D01*
X155035000Y-55880000D02*
X148302000Y-62612500D01*
X148302000Y-62612500D02*
X137033000Y-62612500D01*
X137033000Y-62612500D02*
X128220000Y-71425000D01*
X128220000Y-71425000D02*
X126695000Y-71425000D01*
X126695000Y-68885000D02*
X128220000Y-68885000D01*
X128220000Y-68885000D02*
X136965000Y-60139800D01*
X136965000Y-60139800D02*
X148235000Y-60139800D01*
X148235000Y-60139800D02*
X155035000Y-53340000D01*
X155035000Y-53340000D02*
X156210000Y-53340000D01*
X141935000Y-48565000D02*
X143460000Y-48565000D01*
X143460000Y-48565000D02*
X145695000Y-50800000D01*
X145695000Y-50800000D02*
X156210000Y-50800000D01*
X126695000Y-51105000D02*
X117145000Y-51105000D01*
X117145000Y-51105000D02*
X116840000Y-50800000D01*
M02*
