M48
; DRILL file {KiCad (5.1.12)-1} date 10/05/22 17:54:52
; FORMAT={-:-/ absolute / inch / decimal}
; #@! TF.CreationDate,2022-10-05T17:54:52-05:00
; #@! TF.GenerationSoftware,Kicad,Pcbnew,(5.1.12)-1
; #@! TF.FileFunction,Plated,1,2,PTH
FMAT,2
INCH
T1C0.0157
T2C0.0315
T3C0.0394
%
G90
G05
T1
X5.484Y-2.8921
T2
X4.6Y-2.0
X4.6Y-2.4
X4.7Y-2.6516
X4.7Y-2.75
X4.988Y-1.912
X4.988Y-2.012
X4.988Y-2.112
X4.988Y-2.212
X4.988Y-2.312
X4.988Y-2.412
X4.988Y-2.512
X4.988Y-2.612
X4.988Y-2.712
X4.988Y-2.812
X4.988Y-2.912
X4.988Y-3.012
X4.988Y-3.112
X4.988Y-3.212
X4.988Y-3.312
X4.988Y-3.412
X4.988Y-3.512
X4.988Y-3.612
X4.988Y-3.712
X4.988Y-3.812
X5.588Y-1.912
X5.588Y-2.012
X5.588Y-2.112
X5.588Y-2.212
X5.588Y-2.312
X5.588Y-2.412
X5.588Y-2.512
X5.588Y-2.612
X5.588Y-2.712
X5.588Y-2.812
X5.588Y-2.912
X5.588Y-3.012
X5.588Y-3.112
X5.588Y-3.212
X5.588Y-3.312
X5.588Y-3.412
X5.588Y-3.512
X5.588Y-3.612
X5.588Y-3.712
X5.588Y-3.812
T3
X6.15Y-1.9
X6.15Y-2.0
X6.15Y-2.1
X6.15Y-2.2
X6.15Y-2.3
X6.15Y-2.4
X6.15Y-2.5
X6.15Y-2.6
X6.15Y-2.7
X6.15Y-2.8
X6.15Y-2.9
X6.15Y-3.0
X6.15Y-3.1
X6.15Y-3.2
X6.15Y-3.3
X6.15Y-3.4
X6.15Y-3.5
X6.15Y-3.6
X6.15Y-3.7
X6.15Y-3.8
X6.25Y-1.9
X6.25Y-2.0
X6.25Y-2.1
X6.25Y-2.2
X6.25Y-2.3
X6.25Y-2.4
X6.25Y-2.5
X6.25Y-2.6
X6.25Y-2.7
X6.25Y-2.8
X6.25Y-2.9
X6.25Y-3.0
X6.25Y-3.1
X6.25Y-3.2
X6.25Y-3.3
X6.25Y-3.4
X6.25Y-3.5
X6.25Y-3.6
X6.25Y-3.7
X6.25Y-3.8
T0
M30
