%FSLAX45Y45*%
G04 Gerber Fmt 4.5, Leading zero omitted, Abs format (unit mm)*
G04 Created by KiCad (PCBNEW (5.1.12)-1) date 2022-10-05 17:54:54*
%MOMM*%
%LPD*%
G01*
G04 APERTURE LIST*
%TA.AperFunction,Profile*%
%ADD10C,0.050000*%
%TD*%
%ADD11C,0.200000*%
%ADD12C,0.300000*%
G04 APERTURE END LIST*
D10*
X10922000Y-4445000D02*
X16129000Y-4445000D01*
X10922000Y-4572000D02*
X10922000Y-4445000D01*
X10922000Y-10033000D02*
X10922000Y-4572000D01*
X16129000Y-10033000D02*
X10922000Y-10033000D01*
X16129000Y-4445000D02*
X16129000Y-10033000D01*
D11*
X13909300Y-7326030D02*
X13949300Y-7366030D01*
X13949300Y-7326030D02*
X13909300Y-7366030D01*
X11724000Y-5080000D02*
G75*
G03*
X11724000Y-5080000I-40000J0D01*
G01*
X11724000Y-6096000D02*
G75*
G03*
X11724000Y-6096000I-40000J0D01*
G01*
X11978000Y-6735000D02*
G75*
G03*
X11978000Y-6735000I-40000J0D01*
G01*
X11978000Y-6985000D02*
G75*
G03*
X11978000Y-6985000I-40000J0D01*
G01*
X12709500Y-4856500D02*
G75*
G03*
X12709500Y-4856500I-40000J0D01*
G01*
X12709500Y-5110500D02*
G75*
G03*
X12709500Y-5110500I-40000J0D01*
G01*
X12709500Y-5364500D02*
G75*
G03*
X12709500Y-5364500I-40000J0D01*
G01*
X12709500Y-5618500D02*
G75*
G03*
X12709500Y-5618500I-40000J0D01*
G01*
X12709500Y-5872500D02*
G75*
G03*
X12709500Y-5872500I-40000J0D01*
G01*
X12709500Y-6126500D02*
G75*
G03*
X12709500Y-6126500I-40000J0D01*
G01*
X12709500Y-6380500D02*
G75*
G03*
X12709500Y-6380500I-40000J0D01*
G01*
X12709500Y-6634500D02*
G75*
G03*
X12709500Y-6634500I-40000J0D01*
G01*
X12709500Y-6888500D02*
G75*
G03*
X12709500Y-6888500I-40000J0D01*
G01*
X12709500Y-7142500D02*
G75*
G03*
X12709500Y-7142500I-40000J0D01*
G01*
X12709500Y-7396500D02*
G75*
G03*
X12709500Y-7396500I-40000J0D01*
G01*
X12709500Y-7650500D02*
G75*
G03*
X12709500Y-7650500I-40000J0D01*
G01*
X12709500Y-7904500D02*
G75*
G03*
X12709500Y-7904500I-40000J0D01*
G01*
X12709500Y-8158500D02*
G75*
G03*
X12709500Y-8158500I-40000J0D01*
G01*
X12709500Y-8412500D02*
G75*
G03*
X12709500Y-8412500I-40000J0D01*
G01*
X12709500Y-8666500D02*
G75*
G03*
X12709500Y-8666500I-40000J0D01*
G01*
X12709500Y-8920500D02*
G75*
G03*
X12709500Y-8920500I-40000J0D01*
G01*
X12709500Y-9174500D02*
G75*
G03*
X12709500Y-9174500I-40000J0D01*
G01*
X12709500Y-9428500D02*
G75*
G03*
X12709500Y-9428500I-40000J0D01*
G01*
X12709500Y-9682500D02*
G75*
G03*
X12709500Y-9682500I-40000J0D01*
G01*
X14233500Y-4856500D02*
G75*
G03*
X14233500Y-4856500I-40000J0D01*
G01*
X14233500Y-5110500D02*
G75*
G03*
X14233500Y-5110500I-40000J0D01*
G01*
X14233500Y-5364500D02*
G75*
G03*
X14233500Y-5364500I-40000J0D01*
G01*
X14233500Y-5618500D02*
G75*
G03*
X14233500Y-5618500I-40000J0D01*
G01*
X14233500Y-5872500D02*
G75*
G03*
X14233500Y-5872500I-40000J0D01*
G01*
X14233500Y-6126500D02*
G75*
G03*
X14233500Y-6126500I-40000J0D01*
G01*
X14233500Y-6380500D02*
G75*
G03*
X14233500Y-6380500I-40000J0D01*
G01*
X14233500Y-6634500D02*
G75*
G03*
X14233500Y-6634500I-40000J0D01*
G01*
X14233500Y-6888500D02*
G75*
G03*
X14233500Y-6888500I-40000J0D01*
G01*
X14233500Y-7142500D02*
G75*
G03*
X14233500Y-7142500I-40000J0D01*
G01*
X14233500Y-7396500D02*
G75*
G03*
X14233500Y-7396500I-40000J0D01*
G01*
X14233500Y-7650500D02*
G75*
G03*
X14233500Y-7650500I-40000J0D01*
G01*
X14233500Y-7904500D02*
G75*
G03*
X14233500Y-7904500I-40000J0D01*
G01*
X14233500Y-8158500D02*
G75*
G03*
X14233500Y-8158500I-40000J0D01*
G01*
X14233500Y-8412500D02*
G75*
G03*
X14233500Y-8412500I-40000J0D01*
G01*
X14233500Y-8666500D02*
G75*
G03*
X14233500Y-8666500I-40000J0D01*
G01*
X14233500Y-8920500D02*
G75*
G03*
X14233500Y-8920500I-40000J0D01*
G01*
X14233500Y-9174500D02*
G75*
G03*
X14233500Y-9174500I-40000J0D01*
G01*
X14233500Y-9428500D02*
G75*
G03*
X14233500Y-9428500I-40000J0D01*
G01*
X14233500Y-9682500D02*
G75*
G03*
X14233500Y-9682500I-40000J0D01*
G01*
X15621000Y-4776000D02*
X15621000Y-4876000D01*
X15571000Y-4826000D02*
X15671000Y-4826000D01*
X15621000Y-5030000D02*
X15621000Y-5130000D01*
X15571000Y-5080000D02*
X15671000Y-5080000D01*
X15621000Y-5284000D02*
X15621000Y-5384000D01*
X15571000Y-5334000D02*
X15671000Y-5334000D01*
X15621000Y-5538000D02*
X15621000Y-5638000D01*
X15571000Y-5588000D02*
X15671000Y-5588000D01*
X15621000Y-5792000D02*
X15621000Y-5892000D01*
X15571000Y-5842000D02*
X15671000Y-5842000D01*
X15621000Y-6046000D02*
X15621000Y-6146000D01*
X15571000Y-6096000D02*
X15671000Y-6096000D01*
X15621000Y-6300000D02*
X15621000Y-6400000D01*
X15571000Y-6350000D02*
X15671000Y-6350000D01*
X15621000Y-6554000D02*
X15621000Y-6654000D01*
X15571000Y-6604000D02*
X15671000Y-6604000D01*
X15621000Y-6808000D02*
X15621000Y-6908000D01*
X15571000Y-6858000D02*
X15671000Y-6858000D01*
X15621000Y-7062000D02*
X15621000Y-7162000D01*
X15571000Y-7112000D02*
X15671000Y-7112000D01*
X15621000Y-7316000D02*
X15621000Y-7416000D01*
X15571000Y-7366000D02*
X15671000Y-7366000D01*
X15621000Y-7570000D02*
X15621000Y-7670000D01*
X15571000Y-7620000D02*
X15671000Y-7620000D01*
X15621000Y-7824000D02*
X15621000Y-7924000D01*
X15571000Y-7874000D02*
X15671000Y-7874000D01*
X15621000Y-8078000D02*
X15621000Y-8178000D01*
X15571000Y-8128000D02*
X15671000Y-8128000D01*
X15621000Y-8332000D02*
X15621000Y-8432000D01*
X15571000Y-8382000D02*
X15671000Y-8382000D01*
X15621000Y-8586000D02*
X15621000Y-8686000D01*
X15571000Y-8636000D02*
X15671000Y-8636000D01*
X15621000Y-8840000D02*
X15621000Y-8940000D01*
X15571000Y-8890000D02*
X15671000Y-8890000D01*
X15621000Y-9094000D02*
X15621000Y-9194000D01*
X15571000Y-9144000D02*
X15671000Y-9144000D01*
X15621000Y-9348000D02*
X15621000Y-9448000D01*
X15571000Y-9398000D02*
X15671000Y-9398000D01*
X15621000Y-9602000D02*
X15621000Y-9702000D01*
X15571000Y-9652000D02*
X15671000Y-9652000D01*
X15875000Y-4776000D02*
X15875000Y-4876000D01*
X15825000Y-4826000D02*
X15925000Y-4826000D01*
X15875000Y-5030000D02*
X15875000Y-5130000D01*
X15825000Y-5080000D02*
X15925000Y-5080000D01*
X15875000Y-5284000D02*
X15875000Y-5384000D01*
X15825000Y-5334000D02*
X15925000Y-5334000D01*
X15875000Y-5538000D02*
X15875000Y-5638000D01*
X15825000Y-5588000D02*
X15925000Y-5588000D01*
X15875000Y-5792000D02*
X15875000Y-5892000D01*
X15825000Y-5842000D02*
X15925000Y-5842000D01*
X15875000Y-6046000D02*
X15875000Y-6146000D01*
X15825000Y-6096000D02*
X15925000Y-6096000D01*
X15875000Y-6300000D02*
X15875000Y-6400000D01*
X15825000Y-6350000D02*
X15925000Y-6350000D01*
X15875000Y-6554000D02*
X15875000Y-6654000D01*
X15825000Y-6604000D02*
X15925000Y-6604000D01*
X15875000Y-6808000D02*
X15875000Y-6908000D01*
X15825000Y-6858000D02*
X15925000Y-6858000D01*
X15875000Y-7062000D02*
X15875000Y-7162000D01*
X15825000Y-7112000D02*
X15925000Y-7112000D01*
X15875000Y-7316000D02*
X15875000Y-7416000D01*
X15825000Y-7366000D02*
X15925000Y-7366000D01*
X15875000Y-7570000D02*
X15875000Y-7670000D01*
X15825000Y-7620000D02*
X15925000Y-7620000D01*
X15875000Y-7824000D02*
X15875000Y-7924000D01*
X15825000Y-7874000D02*
X15925000Y-7874000D01*
X15875000Y-8078000D02*
X15875000Y-8178000D01*
X15825000Y-8128000D02*
X15925000Y-8128000D01*
X15875000Y-8332000D02*
X15875000Y-8432000D01*
X15825000Y-8382000D02*
X15925000Y-8382000D01*
X15875000Y-8586000D02*
X15875000Y-8686000D01*
X15825000Y-8636000D02*
X15925000Y-8636000D01*
X15875000Y-8840000D02*
X15875000Y-8940000D01*
X15825000Y-8890000D02*
X15925000Y-8890000D01*
X15875000Y-9094000D02*
X15875000Y-9194000D01*
X15825000Y-9144000D02*
X15925000Y-9144000D01*
X15875000Y-9348000D02*
X15875000Y-9448000D01*
X15825000Y-9398000D02*
X15925000Y-9398000D01*
X15875000Y-9602000D02*
X15875000Y-9702000D01*
X15825000Y-9652000D02*
X15925000Y-9652000D01*
D12*
X11205928Y-10501214D02*
X11205928Y-10201214D01*
X11277357Y-10201214D01*
X11320214Y-10215500D01*
X11348786Y-10244072D01*
X11363071Y-10272643D01*
X11377357Y-10329786D01*
X11377357Y-10372643D01*
X11363071Y-10429786D01*
X11348786Y-10458357D01*
X11320214Y-10486929D01*
X11277357Y-10501214D01*
X11205928Y-10501214D01*
X11505928Y-10501214D02*
X11505928Y-10301214D01*
X11505928Y-10358357D02*
X11520214Y-10329786D01*
X11534500Y-10315500D01*
X11563071Y-10301214D01*
X11591643Y-10301214D01*
X11691643Y-10501214D02*
X11691643Y-10301214D01*
X11691643Y-10201214D02*
X11677357Y-10215500D01*
X11691643Y-10229786D01*
X11705928Y-10215500D01*
X11691643Y-10201214D01*
X11691643Y-10229786D01*
X11877357Y-10501214D02*
X11848786Y-10486929D01*
X11834500Y-10458357D01*
X11834500Y-10201214D01*
X12034500Y-10501214D02*
X12005928Y-10486929D01*
X11991643Y-10458357D01*
X11991643Y-10201214D01*
X12377357Y-10501214D02*
X12377357Y-10201214D01*
X12477357Y-10415500D01*
X12577357Y-10201214D01*
X12577357Y-10501214D01*
X12848786Y-10501214D02*
X12848786Y-10344072D01*
X12834500Y-10315500D01*
X12805928Y-10301214D01*
X12748786Y-10301214D01*
X12720214Y-10315500D01*
X12848786Y-10486929D02*
X12820214Y-10501214D01*
X12748786Y-10501214D01*
X12720214Y-10486929D01*
X12705928Y-10458357D01*
X12705928Y-10429786D01*
X12720214Y-10401214D01*
X12748786Y-10386929D01*
X12820214Y-10386929D01*
X12848786Y-10372643D01*
X12991643Y-10301214D02*
X12991643Y-10601214D01*
X12991643Y-10315500D02*
X13020214Y-10301214D01*
X13077357Y-10301214D01*
X13105928Y-10315500D01*
X13120214Y-10329786D01*
X13134500Y-10358357D01*
X13134500Y-10444072D01*
X13120214Y-10472643D01*
X13105928Y-10486929D01*
X13077357Y-10501214D01*
X13020214Y-10501214D01*
X12991643Y-10486929D01*
X13263071Y-10472643D02*
X13277357Y-10486929D01*
X13263071Y-10501214D01*
X13248786Y-10486929D01*
X13263071Y-10472643D01*
X13263071Y-10501214D01*
X13263071Y-10315500D02*
X13277357Y-10329786D01*
X13263071Y-10344072D01*
X13248786Y-10329786D01*
X13263071Y-10315500D01*
X13263071Y-10344072D01*
X10879500Y-10975500D02*
X10919500Y-11015500D01*
X10919500Y-10975500D02*
X10879500Y-11015500D01*
X11263071Y-10831214D02*
X11291643Y-10831214D01*
X11320214Y-10845500D01*
X11334500Y-10859786D01*
X11348786Y-10888357D01*
X11363071Y-10945500D01*
X11363071Y-11016929D01*
X11348786Y-11074072D01*
X11334500Y-11102643D01*
X11320214Y-11116929D01*
X11291643Y-11131214D01*
X11263071Y-11131214D01*
X11234500Y-11116929D01*
X11220214Y-11102643D01*
X11205928Y-11074072D01*
X11191643Y-11016929D01*
X11191643Y-10945500D01*
X11205928Y-10888357D01*
X11220214Y-10859786D01*
X11234500Y-10845500D01*
X11263071Y-10831214D01*
X11491643Y-11102643D02*
X11505928Y-11116929D01*
X11491643Y-11131214D01*
X11477357Y-11116929D01*
X11491643Y-11102643D01*
X11491643Y-11131214D01*
X11763071Y-10931214D02*
X11763071Y-11131214D01*
X11691643Y-10816929D02*
X11620214Y-11031214D01*
X11805928Y-11031214D01*
X11977357Y-10831214D02*
X12005928Y-10831214D01*
X12034500Y-10845500D01*
X12048786Y-10859786D01*
X12063071Y-10888357D01*
X12077357Y-10945500D01*
X12077357Y-11016929D01*
X12063071Y-11074072D01*
X12048786Y-11102643D01*
X12034500Y-11116929D01*
X12005928Y-11131214D01*
X11977357Y-11131214D01*
X11948786Y-11116929D01*
X11934500Y-11102643D01*
X11920214Y-11074072D01*
X11905928Y-11016929D01*
X11905928Y-10945500D01*
X11920214Y-10888357D01*
X11934500Y-10859786D01*
X11948786Y-10845500D01*
X11977357Y-10831214D01*
X12263071Y-10831214D02*
X12291643Y-10831214D01*
X12320214Y-10845500D01*
X12334500Y-10859786D01*
X12348786Y-10888357D01*
X12363071Y-10945500D01*
X12363071Y-11016929D01*
X12348786Y-11074072D01*
X12334500Y-11102643D01*
X12320214Y-11116929D01*
X12291643Y-11131214D01*
X12263071Y-11131214D01*
X12234500Y-11116929D01*
X12220214Y-11102643D01*
X12205928Y-11074072D01*
X12191643Y-11016929D01*
X12191643Y-10945500D01*
X12205928Y-10888357D01*
X12220214Y-10859786D01*
X12234500Y-10845500D01*
X12263071Y-10831214D01*
X12491643Y-11131214D02*
X12491643Y-10931214D01*
X12491643Y-10959786D02*
X12505928Y-10945500D01*
X12534500Y-10931214D01*
X12577357Y-10931214D01*
X12605928Y-10945500D01*
X12620214Y-10974072D01*
X12620214Y-11131214D01*
X12620214Y-10974072D02*
X12634500Y-10945500D01*
X12663071Y-10931214D01*
X12705928Y-10931214D01*
X12734500Y-10945500D01*
X12748786Y-10974072D01*
X12748786Y-11131214D01*
X12891643Y-11131214D02*
X12891643Y-10931214D01*
X12891643Y-10959786D02*
X12905928Y-10945500D01*
X12934500Y-10931214D01*
X12977357Y-10931214D01*
X13005928Y-10945500D01*
X13020214Y-10974072D01*
X13020214Y-11131214D01*
X13020214Y-10974072D02*
X13034500Y-10945500D01*
X13063071Y-10931214D01*
X13105928Y-10931214D01*
X13134500Y-10945500D01*
X13148786Y-10974072D01*
X13148786Y-11131214D01*
X13734500Y-10816929D02*
X13477357Y-11202643D01*
X14120214Y-10831214D02*
X14148786Y-10831214D01*
X14177357Y-10845500D01*
X14191643Y-10859786D01*
X14205928Y-10888357D01*
X14220214Y-10945500D01*
X14220214Y-11016929D01*
X14205928Y-11074072D01*
X14191643Y-11102643D01*
X14177357Y-11116929D01*
X14148786Y-11131214D01*
X14120214Y-11131214D01*
X14091643Y-11116929D01*
X14077357Y-11102643D01*
X14063071Y-11074072D01*
X14048786Y-11016929D01*
X14048786Y-10945500D01*
X14063071Y-10888357D01*
X14077357Y-10859786D01*
X14091643Y-10845500D01*
X14120214Y-10831214D01*
X14348786Y-11102643D02*
X14363071Y-11116929D01*
X14348786Y-11131214D01*
X14334500Y-11116929D01*
X14348786Y-11102643D01*
X14348786Y-11131214D01*
X14548786Y-10831214D02*
X14577357Y-10831214D01*
X14605928Y-10845500D01*
X14620214Y-10859786D01*
X14634500Y-10888357D01*
X14648786Y-10945500D01*
X14648786Y-11016929D01*
X14634500Y-11074072D01*
X14620214Y-11102643D01*
X14605928Y-11116929D01*
X14577357Y-11131214D01*
X14548786Y-11131214D01*
X14520214Y-11116929D01*
X14505928Y-11102643D01*
X14491643Y-11074072D01*
X14477357Y-11016929D01*
X14477357Y-10945500D01*
X14491643Y-10888357D01*
X14505928Y-10859786D01*
X14520214Y-10845500D01*
X14548786Y-10831214D01*
X14934500Y-11131214D02*
X14763071Y-11131214D01*
X14848786Y-11131214D02*
X14848786Y-10831214D01*
X14820214Y-10874072D01*
X14791643Y-10902643D01*
X14763071Y-10916929D01*
X15205928Y-10831214D02*
X15063071Y-10831214D01*
X15048786Y-10974072D01*
X15063071Y-10959786D01*
X15091643Y-10945500D01*
X15163071Y-10945500D01*
X15191643Y-10959786D01*
X15205928Y-10974072D01*
X15220214Y-11002643D01*
X15220214Y-11074072D01*
X15205928Y-11102643D01*
X15191643Y-11116929D01*
X15163071Y-11131214D01*
X15091643Y-11131214D01*
X15063071Y-11116929D01*
X15048786Y-11102643D01*
X15320214Y-10831214D02*
X15520214Y-10831214D01*
X15391643Y-11131214D01*
X15620214Y-10831214D02*
X15620214Y-10888357D01*
X15734500Y-10831214D02*
X15734500Y-10888357D01*
X16177357Y-11245500D02*
X16163071Y-11231214D01*
X16134500Y-11188357D01*
X16120214Y-11159786D01*
X16105928Y-11116929D01*
X16091643Y-11045500D01*
X16091643Y-10988357D01*
X16105928Y-10916929D01*
X16120214Y-10874072D01*
X16134500Y-10845500D01*
X16163071Y-10802643D01*
X16177357Y-10788357D01*
X16448786Y-11131214D02*
X16277357Y-11131214D01*
X16363071Y-11131214D02*
X16363071Y-10831214D01*
X16334500Y-10874072D01*
X16305928Y-10902643D01*
X16277357Y-10916929D01*
X16805928Y-11131214D02*
X16805928Y-10831214D01*
X16934500Y-11131214D02*
X16934500Y-10974072D01*
X16920214Y-10945500D01*
X16891643Y-10931214D01*
X16848786Y-10931214D01*
X16820214Y-10945500D01*
X16805928Y-10959786D01*
X17120214Y-11131214D02*
X17091643Y-11116929D01*
X17077357Y-11102643D01*
X17063071Y-11074072D01*
X17063071Y-10988357D01*
X17077357Y-10959786D01*
X17091643Y-10945500D01*
X17120214Y-10931214D01*
X17163071Y-10931214D01*
X17191643Y-10945500D01*
X17205928Y-10959786D01*
X17220214Y-10988357D01*
X17220214Y-11074072D01*
X17205928Y-11102643D01*
X17191643Y-11116929D01*
X17163071Y-11131214D01*
X17120214Y-11131214D01*
X17391643Y-11131214D02*
X17363071Y-11116929D01*
X17348786Y-11088357D01*
X17348786Y-10831214D01*
X17620214Y-11116929D02*
X17591643Y-11131214D01*
X17534500Y-11131214D01*
X17505928Y-11116929D01*
X17491643Y-11088357D01*
X17491643Y-10974072D01*
X17505928Y-10945500D01*
X17534500Y-10931214D01*
X17591643Y-10931214D01*
X17620214Y-10945500D01*
X17634500Y-10974072D01*
X17634500Y-11002643D01*
X17491643Y-11031214D01*
X17734500Y-11245500D02*
X17748786Y-11231214D01*
X17777357Y-11188357D01*
X17791643Y-11159786D01*
X17805928Y-11116929D01*
X17820214Y-11045500D01*
X17820214Y-10988357D01*
X17805928Y-10916929D01*
X17791643Y-10874072D01*
X17777357Y-10845500D01*
X17748786Y-10802643D01*
X17734500Y-10788357D01*
X10919500Y-11391500D02*
G75*
G03*
X10919500Y-11391500I-40000J0D01*
G01*
X11263071Y-11227214D02*
X11291643Y-11227214D01*
X11320214Y-11241500D01*
X11334500Y-11255786D01*
X11348786Y-11284357D01*
X11363071Y-11341500D01*
X11363071Y-11412929D01*
X11348786Y-11470071D01*
X11334500Y-11498643D01*
X11320214Y-11512929D01*
X11291643Y-11527214D01*
X11263071Y-11527214D01*
X11234500Y-11512929D01*
X11220214Y-11498643D01*
X11205928Y-11470071D01*
X11191643Y-11412929D01*
X11191643Y-11341500D01*
X11205928Y-11284357D01*
X11220214Y-11255786D01*
X11234500Y-11241500D01*
X11263071Y-11227214D01*
X11491643Y-11498643D02*
X11505928Y-11512929D01*
X11491643Y-11527214D01*
X11477357Y-11512929D01*
X11491643Y-11498643D01*
X11491643Y-11527214D01*
X11677357Y-11355786D02*
X11648786Y-11341500D01*
X11634500Y-11327214D01*
X11620214Y-11298643D01*
X11620214Y-11284357D01*
X11634500Y-11255786D01*
X11648786Y-11241500D01*
X11677357Y-11227214D01*
X11734500Y-11227214D01*
X11763071Y-11241500D01*
X11777357Y-11255786D01*
X11791643Y-11284357D01*
X11791643Y-11298643D01*
X11777357Y-11327214D01*
X11763071Y-11341500D01*
X11734500Y-11355786D01*
X11677357Y-11355786D01*
X11648786Y-11370071D01*
X11634500Y-11384357D01*
X11620214Y-11412929D01*
X11620214Y-11470071D01*
X11634500Y-11498643D01*
X11648786Y-11512929D01*
X11677357Y-11527214D01*
X11734500Y-11527214D01*
X11763071Y-11512929D01*
X11777357Y-11498643D01*
X11791643Y-11470071D01*
X11791643Y-11412929D01*
X11777357Y-11384357D01*
X11763071Y-11370071D01*
X11734500Y-11355786D01*
X11977357Y-11227214D02*
X12005928Y-11227214D01*
X12034500Y-11241500D01*
X12048786Y-11255786D01*
X12063071Y-11284357D01*
X12077357Y-11341500D01*
X12077357Y-11412929D01*
X12063071Y-11470071D01*
X12048786Y-11498643D01*
X12034500Y-11512929D01*
X12005928Y-11527214D01*
X11977357Y-11527214D01*
X11948786Y-11512929D01*
X11934500Y-11498643D01*
X11920214Y-11470071D01*
X11905928Y-11412929D01*
X11905928Y-11341500D01*
X11920214Y-11284357D01*
X11934500Y-11255786D01*
X11948786Y-11241500D01*
X11977357Y-11227214D01*
X12263071Y-11227214D02*
X12291643Y-11227214D01*
X12320214Y-11241500D01*
X12334500Y-11255786D01*
X12348786Y-11284357D01*
X12363071Y-11341500D01*
X12363071Y-11412929D01*
X12348786Y-11470071D01*
X12334500Y-11498643D01*
X12320214Y-11512929D01*
X12291643Y-11527214D01*
X12263071Y-11527214D01*
X12234500Y-11512929D01*
X12220214Y-11498643D01*
X12205928Y-11470071D01*
X12191643Y-11412929D01*
X12191643Y-11341500D01*
X12205928Y-11284357D01*
X12220214Y-11255786D01*
X12234500Y-11241500D01*
X12263071Y-11227214D01*
X12491643Y-11527214D02*
X12491643Y-11327214D01*
X12491643Y-11355786D02*
X12505928Y-11341500D01*
X12534500Y-11327214D01*
X12577357Y-11327214D01*
X12605928Y-11341500D01*
X12620214Y-11370071D01*
X12620214Y-11527214D01*
X12620214Y-11370071D02*
X12634500Y-11341500D01*
X12663071Y-11327214D01*
X12705928Y-11327214D01*
X12734500Y-11341500D01*
X12748786Y-11370071D01*
X12748786Y-11527214D01*
X12891643Y-11527214D02*
X12891643Y-11327214D01*
X12891643Y-11355786D02*
X12905928Y-11341500D01*
X12934500Y-11327214D01*
X12977357Y-11327214D01*
X13005928Y-11341500D01*
X13020214Y-11370071D01*
X13020214Y-11527214D01*
X13020214Y-11370071D02*
X13034500Y-11341500D01*
X13063071Y-11327214D01*
X13105928Y-11327214D01*
X13134500Y-11341500D01*
X13148786Y-11370071D01*
X13148786Y-11527214D01*
X13734500Y-11212929D02*
X13477357Y-11598643D01*
X14120214Y-11227214D02*
X14148786Y-11227214D01*
X14177357Y-11241500D01*
X14191643Y-11255786D01*
X14205928Y-11284357D01*
X14220214Y-11341500D01*
X14220214Y-11412929D01*
X14205928Y-11470071D01*
X14191643Y-11498643D01*
X14177357Y-11512929D01*
X14148786Y-11527214D01*
X14120214Y-11527214D01*
X14091643Y-11512929D01*
X14077357Y-11498643D01*
X14063071Y-11470071D01*
X14048786Y-11412929D01*
X14048786Y-11341500D01*
X14063071Y-11284357D01*
X14077357Y-11255786D01*
X14091643Y-11241500D01*
X14120214Y-11227214D01*
X14348786Y-11498643D02*
X14363071Y-11512929D01*
X14348786Y-11527214D01*
X14334500Y-11512929D01*
X14348786Y-11498643D01*
X14348786Y-11527214D01*
X14548786Y-11227214D02*
X14577357Y-11227214D01*
X14605928Y-11241500D01*
X14620214Y-11255786D01*
X14634500Y-11284357D01*
X14648786Y-11341500D01*
X14648786Y-11412929D01*
X14634500Y-11470071D01*
X14620214Y-11498643D01*
X14605928Y-11512929D01*
X14577357Y-11527214D01*
X14548786Y-11527214D01*
X14520214Y-11512929D01*
X14505928Y-11498643D01*
X14491643Y-11470071D01*
X14477357Y-11412929D01*
X14477357Y-11341500D01*
X14491643Y-11284357D01*
X14505928Y-11255786D01*
X14520214Y-11241500D01*
X14548786Y-11227214D01*
X14748786Y-11227214D02*
X14934500Y-11227214D01*
X14834500Y-11341500D01*
X14877357Y-11341500D01*
X14905928Y-11355786D01*
X14920214Y-11370071D01*
X14934500Y-11398643D01*
X14934500Y-11470071D01*
X14920214Y-11498643D01*
X14905928Y-11512929D01*
X14877357Y-11527214D01*
X14791643Y-11527214D01*
X14763071Y-11512929D01*
X14748786Y-11498643D01*
X15220214Y-11527214D02*
X15048786Y-11527214D01*
X15134500Y-11527214D02*
X15134500Y-11227214D01*
X15105928Y-11270071D01*
X15077357Y-11298643D01*
X15048786Y-11312929D01*
X15491643Y-11227214D02*
X15348786Y-11227214D01*
X15334500Y-11370071D01*
X15348786Y-11355786D01*
X15377357Y-11341500D01*
X15448786Y-11341500D01*
X15477357Y-11355786D01*
X15491643Y-11370071D01*
X15505928Y-11398643D01*
X15505928Y-11470071D01*
X15491643Y-11498643D01*
X15477357Y-11512929D01*
X15448786Y-11527214D01*
X15377357Y-11527214D01*
X15348786Y-11512929D01*
X15334500Y-11498643D01*
X15620214Y-11227214D02*
X15620214Y-11284357D01*
X15734500Y-11227214D02*
X15734500Y-11284357D01*
X16177357Y-11641500D02*
X16163071Y-11627214D01*
X16134500Y-11584357D01*
X16120214Y-11555786D01*
X16105928Y-11512929D01*
X16091643Y-11441500D01*
X16091643Y-11384357D01*
X16105928Y-11312929D01*
X16120214Y-11270071D01*
X16134500Y-11241500D01*
X16163071Y-11198643D01*
X16177357Y-11184357D01*
X16420214Y-11327214D02*
X16420214Y-11527214D01*
X16348786Y-11212929D02*
X16277357Y-11427214D01*
X16463071Y-11427214D01*
X16705928Y-11327214D02*
X16705928Y-11527214D01*
X16634500Y-11212929D02*
X16563071Y-11427214D01*
X16748786Y-11427214D01*
X17091643Y-11527214D02*
X17091643Y-11227214D01*
X17220214Y-11527214D02*
X17220214Y-11370071D01*
X17205928Y-11341500D01*
X17177357Y-11327214D01*
X17134500Y-11327214D01*
X17105928Y-11341500D01*
X17091643Y-11355786D01*
X17405928Y-11527214D02*
X17377357Y-11512929D01*
X17363071Y-11498643D01*
X17348786Y-11470071D01*
X17348786Y-11384357D01*
X17363071Y-11355786D01*
X17377357Y-11341500D01*
X17405928Y-11327214D01*
X17448786Y-11327214D01*
X17477357Y-11341500D01*
X17491643Y-11355786D01*
X17505928Y-11384357D01*
X17505928Y-11470071D01*
X17491643Y-11498643D01*
X17477357Y-11512929D01*
X17448786Y-11527214D01*
X17405928Y-11527214D01*
X17677357Y-11527214D02*
X17648786Y-11512929D01*
X17634500Y-11484357D01*
X17634500Y-11227214D01*
X17905928Y-11512929D02*
X17877357Y-11527214D01*
X17820214Y-11527214D01*
X17791643Y-11512929D01*
X17777357Y-11484357D01*
X17777357Y-11370071D01*
X17791643Y-11341500D01*
X17820214Y-11327214D01*
X17877357Y-11327214D01*
X17905928Y-11341500D01*
X17920214Y-11370071D01*
X17920214Y-11398643D01*
X17777357Y-11427214D01*
X18034500Y-11512929D02*
X18063071Y-11527214D01*
X18120214Y-11527214D01*
X18148786Y-11512929D01*
X18163071Y-11484357D01*
X18163071Y-11470071D01*
X18148786Y-11441500D01*
X18120214Y-11427214D01*
X18077357Y-11427214D01*
X18048786Y-11412929D01*
X18034500Y-11384357D01*
X18034500Y-11370071D01*
X18048786Y-11341500D01*
X18077357Y-11327214D01*
X18120214Y-11327214D01*
X18148786Y-11341500D01*
X18263071Y-11641500D02*
X18277357Y-11627214D01*
X18305928Y-11584357D01*
X18320214Y-11555786D01*
X18334500Y-11512929D01*
X18348786Y-11441500D01*
X18348786Y-11384357D01*
X18334500Y-11312929D01*
X18320214Y-11270071D01*
X18305928Y-11241500D01*
X18277357Y-11198643D01*
X18263071Y-11184357D01*
X10869500Y-11737500D02*
X10869500Y-11837500D01*
X10819500Y-11787500D02*
X10919500Y-11787500D01*
X11363071Y-11923214D02*
X11191643Y-11923214D01*
X11277357Y-11923214D02*
X11277357Y-11623214D01*
X11248786Y-11666071D01*
X11220214Y-11694643D01*
X11191643Y-11708929D01*
X11491643Y-11894643D02*
X11505928Y-11908929D01*
X11491643Y-11923214D01*
X11477357Y-11908929D01*
X11491643Y-11894643D01*
X11491643Y-11923214D01*
X11691643Y-11623214D02*
X11720214Y-11623214D01*
X11748786Y-11637500D01*
X11763071Y-11651786D01*
X11777357Y-11680357D01*
X11791643Y-11737500D01*
X11791643Y-11808929D01*
X11777357Y-11866071D01*
X11763071Y-11894643D01*
X11748786Y-11908929D01*
X11720214Y-11923214D01*
X11691643Y-11923214D01*
X11663071Y-11908929D01*
X11648786Y-11894643D01*
X11634500Y-11866071D01*
X11620214Y-11808929D01*
X11620214Y-11737500D01*
X11634500Y-11680357D01*
X11648786Y-11651786D01*
X11663071Y-11637500D01*
X11691643Y-11623214D01*
X11977357Y-11623214D02*
X12005928Y-11623214D01*
X12034500Y-11637500D01*
X12048786Y-11651786D01*
X12063071Y-11680357D01*
X12077357Y-11737500D01*
X12077357Y-11808929D01*
X12063071Y-11866071D01*
X12048786Y-11894643D01*
X12034500Y-11908929D01*
X12005928Y-11923214D01*
X11977357Y-11923214D01*
X11948786Y-11908929D01*
X11934500Y-11894643D01*
X11920214Y-11866071D01*
X11905928Y-11808929D01*
X11905928Y-11737500D01*
X11920214Y-11680357D01*
X11934500Y-11651786D01*
X11948786Y-11637500D01*
X11977357Y-11623214D01*
X12263071Y-11623214D02*
X12291643Y-11623214D01*
X12320214Y-11637500D01*
X12334500Y-11651786D01*
X12348786Y-11680357D01*
X12363071Y-11737500D01*
X12363071Y-11808929D01*
X12348786Y-11866071D01*
X12334500Y-11894643D01*
X12320214Y-11908929D01*
X12291643Y-11923214D01*
X12263071Y-11923214D01*
X12234500Y-11908929D01*
X12220214Y-11894643D01*
X12205928Y-11866071D01*
X12191643Y-11808929D01*
X12191643Y-11737500D01*
X12205928Y-11680357D01*
X12220214Y-11651786D01*
X12234500Y-11637500D01*
X12263071Y-11623214D01*
X12491643Y-11923214D02*
X12491643Y-11723214D01*
X12491643Y-11751786D02*
X12505928Y-11737500D01*
X12534500Y-11723214D01*
X12577357Y-11723214D01*
X12605928Y-11737500D01*
X12620214Y-11766071D01*
X12620214Y-11923214D01*
X12620214Y-11766071D02*
X12634500Y-11737500D01*
X12663071Y-11723214D01*
X12705928Y-11723214D01*
X12734500Y-11737500D01*
X12748786Y-11766071D01*
X12748786Y-11923214D01*
X12891643Y-11923214D02*
X12891643Y-11723214D01*
X12891643Y-11751786D02*
X12905928Y-11737500D01*
X12934500Y-11723214D01*
X12977357Y-11723214D01*
X13005928Y-11737500D01*
X13020214Y-11766071D01*
X13020214Y-11923214D01*
X13020214Y-11766071D02*
X13034500Y-11737500D01*
X13063071Y-11723214D01*
X13105928Y-11723214D01*
X13134500Y-11737500D01*
X13148786Y-11766071D01*
X13148786Y-11923214D01*
X13734500Y-11608929D02*
X13477357Y-11994643D01*
X14120214Y-11623214D02*
X14148786Y-11623214D01*
X14177357Y-11637500D01*
X14191643Y-11651786D01*
X14205928Y-11680357D01*
X14220214Y-11737500D01*
X14220214Y-11808929D01*
X14205928Y-11866071D01*
X14191643Y-11894643D01*
X14177357Y-11908929D01*
X14148786Y-11923214D01*
X14120214Y-11923214D01*
X14091643Y-11908929D01*
X14077357Y-11894643D01*
X14063071Y-11866071D01*
X14048786Y-11808929D01*
X14048786Y-11737500D01*
X14063071Y-11680357D01*
X14077357Y-11651786D01*
X14091643Y-11637500D01*
X14120214Y-11623214D01*
X14348786Y-11894643D02*
X14363071Y-11908929D01*
X14348786Y-11923214D01*
X14334500Y-11908929D01*
X14348786Y-11894643D01*
X14348786Y-11923214D01*
X14548786Y-11623214D02*
X14577357Y-11623214D01*
X14605928Y-11637500D01*
X14620214Y-11651786D01*
X14634500Y-11680357D01*
X14648786Y-11737500D01*
X14648786Y-11808929D01*
X14634500Y-11866071D01*
X14620214Y-11894643D01*
X14605928Y-11908929D01*
X14577357Y-11923214D01*
X14548786Y-11923214D01*
X14520214Y-11908929D01*
X14505928Y-11894643D01*
X14491643Y-11866071D01*
X14477357Y-11808929D01*
X14477357Y-11737500D01*
X14491643Y-11680357D01*
X14505928Y-11651786D01*
X14520214Y-11637500D01*
X14548786Y-11623214D01*
X14748786Y-11623214D02*
X14934500Y-11623214D01*
X14834500Y-11737500D01*
X14877357Y-11737500D01*
X14905928Y-11751786D01*
X14920214Y-11766071D01*
X14934500Y-11794643D01*
X14934500Y-11866071D01*
X14920214Y-11894643D01*
X14905928Y-11908929D01*
X14877357Y-11923214D01*
X14791643Y-11923214D01*
X14763071Y-11908929D01*
X14748786Y-11894643D01*
X15077357Y-11923214D02*
X15134500Y-11923214D01*
X15163071Y-11908929D01*
X15177357Y-11894643D01*
X15205928Y-11851786D01*
X15220214Y-11794643D01*
X15220214Y-11680357D01*
X15205928Y-11651786D01*
X15191643Y-11637500D01*
X15163071Y-11623214D01*
X15105928Y-11623214D01*
X15077357Y-11637500D01*
X15063071Y-11651786D01*
X15048786Y-11680357D01*
X15048786Y-11751786D01*
X15063071Y-11780357D01*
X15077357Y-11794643D01*
X15105928Y-11808929D01*
X15163071Y-11808929D01*
X15191643Y-11794643D01*
X15205928Y-11780357D01*
X15220214Y-11751786D01*
X15477357Y-11723214D02*
X15477357Y-11923214D01*
X15405928Y-11608929D02*
X15334500Y-11823214D01*
X15520214Y-11823214D01*
X15620214Y-11623214D02*
X15620214Y-11680357D01*
X15734500Y-11623214D02*
X15734500Y-11680357D01*
X16177357Y-12037500D02*
X16163071Y-12023214D01*
X16134500Y-11980357D01*
X16120214Y-11951786D01*
X16105928Y-11908929D01*
X16091643Y-11837500D01*
X16091643Y-11780357D01*
X16105928Y-11708929D01*
X16120214Y-11666071D01*
X16134500Y-11637500D01*
X16163071Y-11594643D01*
X16177357Y-11580357D01*
X16420214Y-11723214D02*
X16420214Y-11923214D01*
X16348786Y-11608929D02*
X16277357Y-11823214D01*
X16463071Y-11823214D01*
X16634500Y-11623214D02*
X16663071Y-11623214D01*
X16691643Y-11637500D01*
X16705928Y-11651786D01*
X16720214Y-11680357D01*
X16734500Y-11737500D01*
X16734500Y-11808929D01*
X16720214Y-11866071D01*
X16705928Y-11894643D01*
X16691643Y-11908929D01*
X16663071Y-11923214D01*
X16634500Y-11923214D01*
X16605928Y-11908929D01*
X16591643Y-11894643D01*
X16577357Y-11866071D01*
X16563071Y-11808929D01*
X16563071Y-11737500D01*
X16577357Y-11680357D01*
X16591643Y-11651786D01*
X16605928Y-11637500D01*
X16634500Y-11623214D01*
X17091643Y-11923214D02*
X17091643Y-11623214D01*
X17220214Y-11923214D02*
X17220214Y-11766071D01*
X17205928Y-11737500D01*
X17177357Y-11723214D01*
X17134500Y-11723214D01*
X17105928Y-11737500D01*
X17091643Y-11751786D01*
X17405928Y-11923214D02*
X17377357Y-11908929D01*
X17363071Y-11894643D01*
X17348786Y-11866071D01*
X17348786Y-11780357D01*
X17363071Y-11751786D01*
X17377357Y-11737500D01*
X17405928Y-11723214D01*
X17448786Y-11723214D01*
X17477357Y-11737500D01*
X17491643Y-11751786D01*
X17505928Y-11780357D01*
X17505928Y-11866071D01*
X17491643Y-11894643D01*
X17477357Y-11908929D01*
X17448786Y-11923214D01*
X17405928Y-11923214D01*
X17677357Y-11923214D02*
X17648786Y-11908929D01*
X17634500Y-11880357D01*
X17634500Y-11623214D01*
X17905928Y-11908929D02*
X17877357Y-11923214D01*
X17820214Y-11923214D01*
X17791643Y-11908929D01*
X17777357Y-11880357D01*
X17777357Y-11766071D01*
X17791643Y-11737500D01*
X17820214Y-11723214D01*
X17877357Y-11723214D01*
X17905928Y-11737500D01*
X17920214Y-11766071D01*
X17920214Y-11794643D01*
X17777357Y-11823214D01*
X18034500Y-11908929D02*
X18063071Y-11923214D01*
X18120214Y-11923214D01*
X18148786Y-11908929D01*
X18163071Y-11880357D01*
X18163071Y-11866071D01*
X18148786Y-11837500D01*
X18120214Y-11823214D01*
X18077357Y-11823214D01*
X18048786Y-11808929D01*
X18034500Y-11780357D01*
X18034500Y-11766071D01*
X18048786Y-11737500D01*
X18077357Y-11723214D01*
X18120214Y-11723214D01*
X18148786Y-11737500D01*
X18263071Y-12037500D02*
X18277357Y-12023214D01*
X18305928Y-11980357D01*
X18320214Y-11951786D01*
X18334500Y-11908929D01*
X18348786Y-11837500D01*
X18348786Y-11780357D01*
X18334500Y-11708929D01*
X18320214Y-11666071D01*
X18305928Y-11637500D01*
X18277357Y-11594643D01*
X18263071Y-11580357D01*
M02*
