%FSLAX45Y45*%
G04 Gerber Fmt 4.5, Leading zero omitted, Abs format (unit mm)*
G04 Created by KiCad (PCBNEW (5.1.12)-1) date 2022-10-05 17:54:54*
%MOMM*%
%LPD*%
G01*
G04 APERTURE LIST*
%TA.AperFunction,Profile*%
%ADD10C,0.050000*%
%TD*%
%ADD11C,0.200000*%
%ADD12C,0.300000*%
G04 APERTURE END LIST*
D10*
X10922000Y-4445000D02*
X16129000Y-4445000D01*
X10922000Y-4572000D02*
X10922000Y-4445000D01*
X10922000Y-10033000D02*
X10922000Y-4572000D01*
X16129000Y-10033000D02*
X10922000Y-10033000D01*
X16129000Y-4445000D02*
X16129000Y-10033000D01*
D11*
D12*
X11205928Y-10501214D02*
X11205928Y-10201214D01*
X11277357Y-10201214D01*
X11320214Y-10215500D01*
X11348786Y-10244072D01*
X11363071Y-10272643D01*
X11377357Y-10329786D01*
X11377357Y-10372643D01*
X11363071Y-10429786D01*
X11348786Y-10458357D01*
X11320214Y-10486929D01*
X11277357Y-10501214D01*
X11205928Y-10501214D01*
X11505928Y-10501214D02*
X11505928Y-10301214D01*
X11505928Y-10358357D02*
X11520214Y-10329786D01*
X11534500Y-10315500D01*
X11563071Y-10301214D01*
X11591643Y-10301214D01*
X11691643Y-10501214D02*
X11691643Y-10301214D01*
X11691643Y-10201214D02*
X11677357Y-10215500D01*
X11691643Y-10229786D01*
X11705928Y-10215500D01*
X11691643Y-10201214D01*
X11691643Y-10229786D01*
X11877357Y-10501214D02*
X11848786Y-10486929D01*
X11834500Y-10458357D01*
X11834500Y-10201214D01*
X12034500Y-10501214D02*
X12005928Y-10486929D01*
X11991643Y-10458357D01*
X11991643Y-10201214D01*
X12377357Y-10501214D02*
X12377357Y-10201214D01*
X12477357Y-10415500D01*
X12577357Y-10201214D01*
X12577357Y-10501214D01*
X12848786Y-10501214D02*
X12848786Y-10344072D01*
X12834500Y-10315500D01*
X12805928Y-10301214D01*
X12748786Y-10301214D01*
X12720214Y-10315500D01*
X12848786Y-10486929D02*
X12820214Y-10501214D01*
X12748786Y-10501214D01*
X12720214Y-10486929D01*
X12705928Y-10458357D01*
X12705928Y-10429786D01*
X12720214Y-10401214D01*
X12748786Y-10386929D01*
X12820214Y-10386929D01*
X12848786Y-10372643D01*
X12991643Y-10301214D02*
X12991643Y-10601214D01*
X12991643Y-10315500D02*
X13020214Y-10301214D01*
X13077357Y-10301214D01*
X13105928Y-10315500D01*
X13120214Y-10329786D01*
X13134500Y-10358357D01*
X13134500Y-10444072D01*
X13120214Y-10472643D01*
X13105928Y-10486929D01*
X13077357Y-10501214D01*
X13020214Y-10501214D01*
X12991643Y-10486929D01*
X13263071Y-10472643D02*
X13277357Y-10486929D01*
X13263071Y-10501214D01*
X13248786Y-10486929D01*
X13263071Y-10472643D01*
X13263071Y-10501214D01*
X13263071Y-10315500D02*
X13277357Y-10329786D01*
X13263071Y-10344072D01*
X13248786Y-10329786D01*
X13263071Y-10315500D01*
X13263071Y-10344072D01*
M02*
