M48
; DRILL file {KiCad (5.1.12)-1} date 08/27/22 08:41:57
; FORMAT={-:-/ absolute / inch / decimal}
; #@! TF.CreationDate,2022-08-27T08:41:57-05:00
; #@! TF.GenerationSoftware,Kicad,Pcbnew,(5.1.12)-1
; #@! TF.FileFunction,Plated,1,2,PTH
FMAT,2
INCH
T1C0.0157
T2C0.0276
T3C0.0315
T4C0.0354
T5C0.0394
%
G90
G05
T1
X3.84Y-1.32
X4.1Y-1.32
X4.34Y-1.32
X4.58Y-1.32
X4.82Y-1.32
T2
X5.4Y-1.37
X5.4Y-1.52
X5.4Y-1.67
X5.4Y-1.82
X5.4Y-1.97
X5.4Y-2.12
X5.4Y-2.27
X5.4Y-2.42
X5.4Y-2.57
X5.4Y-2.72
X5.4Y-2.87
X5.4Y-3.02
X5.4Y-3.17
X5.4Y-3.32
X5.4Y-3.47
X5.4Y-3.62
X5.4Y-3.78
X5.4Y-3.94
X5.4Y-4.1
X5.4Y-4.26
X5.4Y-4.42
X5.4Y-4.58
X5.4Y-4.74
X5.4Y-4.91
X5.7Y-1.37
X5.7Y-1.52
X5.7Y-1.67
X5.7Y-1.82
X5.7Y-1.97
X5.7Y-2.12
X5.7Y-2.27
X5.7Y-2.42
X5.7Y-2.57
X5.7Y-2.72
X5.7Y-2.87
X5.7Y-3.02
X5.7Y-3.17
X5.7Y-3.32
X5.7Y-3.47
X5.7Y-3.62
X5.7Y-3.78
X5.7Y-3.94
X5.7Y-4.1
X5.7Y-4.26
X5.7Y-4.42
X5.7Y-4.58
X5.7Y-4.74
X5.7Y-4.91
T3
X3.3416Y-1.79
X3.44Y-1.79
X4.03Y-2.01
X4.03Y-2.11
X4.03Y-2.21
X4.03Y-2.31
X4.03Y-2.41
X4.03Y-2.51
X4.03Y-2.61
X4.03Y-2.71
X4.03Y-3.26
X4.03Y-3.36
X4.03Y-3.46
X4.03Y-3.56
X4.03Y-3.66
X4.03Y-3.76
X4.03Y-3.86
X4.03Y-3.96
X4.33Y-2.01
X4.33Y-2.11
X4.33Y-2.21
X4.33Y-2.31
X4.33Y-2.41
X4.33Y-2.51
X4.33Y-2.61
X4.33Y-2.71
X4.33Y-3.26
X4.33Y-3.36
X4.33Y-3.46
X4.33Y-3.56
X4.33Y-3.66
X4.33Y-3.76
X4.33Y-3.86
X4.33Y-3.96
T4
X3.35Y-2.15
X3.35Y-2.55
X3.35Y-2.95
X3.35Y-3.35
X3.35Y-3.75
X3.35Y-4.15
X3.35Y-4.55
X3.35Y-4.95
X3.45Y-2.15
X3.45Y-2.55
X3.45Y-2.95
X3.45Y-3.35
X3.45Y-3.75
X3.45Y-4.15
X3.45Y-4.55
X3.45Y-4.95
T5
X3.34Y-1.39
X3.44Y-1.39
X4.98Y-1.82
X4.98Y-1.92
X4.98Y-2.02
X4.98Y-2.12
X4.98Y-2.22
X4.98Y-2.32
X4.98Y-2.42
X4.98Y-2.52
X4.98Y-2.62
X4.98Y-2.72
X4.98Y-2.82
X4.98Y-2.92
X4.98Y-3.02
X4.98Y-3.12
X4.98Y-3.22
X4.98Y-3.32
X5.02Y-3.96
X5.02Y-4.06
X5.02Y-4.16
X5.02Y-4.26
X5.02Y-4.36
X5.02Y-4.46
X5.02Y-4.56
X5.02Y-4.66
T0
M30
