%TF.GenerationSoftware,KiCad,Pcbnew,(5.1.12)-1*%
%TF.CreationDate,2022-08-27T08:41:52-05:00*%
%TF.ProjectId,LeProbe,4c655072-6f62-4652-9e6b-696361645f70,rev?*%
%TF.SameCoordinates,Original*%
%TF.FileFunction,Soldermask,Bot*%
%TF.FilePolarity,Negative*%
%FSLAX46Y46*%
G04 Gerber Fmt 4.6, Leading zero omitted, Abs format (unit mm)*
G04 Created by KiCad (PCBNEW (5.1.12)-1) date 2022-08-27 08:41:52*
%MOMM*%
%LPD*%
G01*
G04 APERTURE LIST*
%ADD10C,1.600000*%
%ADD11C,1.800000*%
%ADD12R,1.800000X1.800000*%
%ADD13R,1.700000X1.700000*%
%ADD14O,1.700000X1.700000*%
%ADD15C,1.400000*%
%ADD16O,1.400000X1.400000*%
%ADD17O,1.600000X1.600000*%
%ADD18R,1.600000X1.600000*%
G04 APERTURE END LIST*
D10*
%TO.C,C1*%
X87376000Y-45466000D03*
X84876000Y-45466000D03*
%TD*%
D11*
%TO.C,D8*%
X87630000Y-125730000D03*
D12*
X85090000Y-125730000D03*
%TD*%
D11*
%TO.C,D7*%
X87630000Y-115570000D03*
D12*
X85090000Y-115570000D03*
%TD*%
%TO.C,D6*%
X85090000Y-105410000D03*
D11*
X87630000Y-105410000D03*
%TD*%
D12*
%TO.C,D5*%
X85090000Y-95250000D03*
D11*
X87630000Y-95250000D03*
%TD*%
%TO.C,D4*%
X87630000Y-85090000D03*
D12*
X85090000Y-85090000D03*
%TD*%
%TO.C,D3*%
X85090000Y-74930000D03*
D11*
X87630000Y-74930000D03*
%TD*%
%TO.C,D2*%
X87630000Y-64770000D03*
D12*
X85090000Y-64770000D03*
%TD*%
%TO.C,D1*%
X85090000Y-54610000D03*
D11*
X87630000Y-54610000D03*
%TD*%
D13*
%TO.C,J1*%
X84836000Y-35306000D03*
D14*
X87376000Y-35306000D03*
%TD*%
D13*
%TO.C,J2*%
X126492000Y-46228000D03*
D14*
X126492000Y-48768000D03*
X126492000Y-51308000D03*
X126492000Y-53848000D03*
X126492000Y-56388000D03*
X126492000Y-58928000D03*
X126492000Y-61468000D03*
X126492000Y-64008000D03*
X126492000Y-66548000D03*
X126492000Y-69088000D03*
X126492000Y-71628000D03*
X126492000Y-74168000D03*
X126492000Y-76708000D03*
X126492000Y-79248000D03*
X126492000Y-81788000D03*
X126492000Y-84328000D03*
%TD*%
D13*
%TO.C,J3*%
X127508000Y-100584000D03*
D14*
X127508000Y-103124000D03*
X127508000Y-105664000D03*
X127508000Y-108204000D03*
X127508000Y-110744000D03*
X127508000Y-113284000D03*
X127508000Y-115824000D03*
X127508000Y-118364000D03*
%TD*%
D15*
%TO.C,R1*%
X137160000Y-34798000D03*
D16*
X144780000Y-34798000D03*
%TD*%
%TO.C,R2*%
X144780000Y-38608000D03*
D15*
X137160000Y-38608000D03*
%TD*%
%TO.C,R3*%
X137160000Y-42418000D03*
D16*
X144780000Y-42418000D03*
%TD*%
%TO.C,R4*%
X144780000Y-46228000D03*
D15*
X137160000Y-46228000D03*
%TD*%
%TO.C,R5*%
X137160000Y-50038000D03*
D16*
X144780000Y-50038000D03*
%TD*%
%TO.C,R6*%
X144780000Y-53848000D03*
D15*
X137160000Y-53848000D03*
%TD*%
%TO.C,R7*%
X137160000Y-57658000D03*
D16*
X144780000Y-57658000D03*
%TD*%
%TO.C,R8*%
X144780000Y-61468000D03*
D15*
X137160000Y-61468000D03*
%TD*%
%TO.C,R9*%
X137160000Y-65278000D03*
D16*
X144780000Y-65278000D03*
%TD*%
%TO.C,R10*%
X144780000Y-69088000D03*
D15*
X137160000Y-69088000D03*
%TD*%
%TO.C,R11*%
X137160000Y-72898000D03*
D16*
X144780000Y-72898000D03*
%TD*%
%TO.C,R12*%
X144780000Y-76708000D03*
D15*
X137160000Y-76708000D03*
%TD*%
%TO.C,R13*%
X137160000Y-80518000D03*
D16*
X144780000Y-80518000D03*
%TD*%
%TO.C,R14*%
X144780000Y-84328000D03*
D15*
X137160000Y-84328000D03*
%TD*%
%TO.C,R15*%
X137160000Y-88138000D03*
D16*
X144780000Y-88138000D03*
%TD*%
%TO.C,R16*%
X144780000Y-91948000D03*
D15*
X137160000Y-91948000D03*
%TD*%
D16*
%TO.C,R17*%
X144780000Y-124714000D03*
D15*
X137160000Y-124714000D03*
%TD*%
D16*
%TO.C,R18*%
X144780000Y-120396000D03*
D15*
X137160000Y-120396000D03*
%TD*%
%TO.C,R19*%
X137160000Y-116332000D03*
D16*
X144780000Y-116332000D03*
%TD*%
%TO.C,R20*%
X144780000Y-112268000D03*
D15*
X137160000Y-112268000D03*
%TD*%
%TO.C,R21*%
X137160000Y-108204000D03*
D16*
X144780000Y-108204000D03*
%TD*%
%TO.C,R22*%
X144780000Y-104140000D03*
D15*
X137160000Y-104140000D03*
%TD*%
%TO.C,R23*%
X137160000Y-100076000D03*
D16*
X144780000Y-100076000D03*
%TD*%
D15*
%TO.C,R24*%
X137160000Y-96012000D03*
D16*
X144780000Y-96012000D03*
%TD*%
D17*
%TO.C,SW1*%
X109982000Y-51054000D03*
X102362000Y-68834000D03*
X109982000Y-53594000D03*
X102362000Y-66294000D03*
X109982000Y-56134000D03*
X102362000Y-63754000D03*
X109982000Y-58674000D03*
X102362000Y-61214000D03*
X109982000Y-61214000D03*
X102362000Y-58674000D03*
X109982000Y-63754000D03*
X102362000Y-56134000D03*
X109982000Y-66294000D03*
X102362000Y-53594000D03*
X109982000Y-68834000D03*
D18*
X102362000Y-51054000D03*
%TD*%
%TO.C,SW2*%
X102362000Y-82804000D03*
D17*
X109982000Y-100584000D03*
X102362000Y-85344000D03*
X109982000Y-98044000D03*
X102362000Y-87884000D03*
X109982000Y-95504000D03*
X102362000Y-90424000D03*
X109982000Y-92964000D03*
X102362000Y-92964000D03*
X109982000Y-90424000D03*
X102362000Y-95504000D03*
X109982000Y-87884000D03*
X102362000Y-98044000D03*
X109982000Y-85344000D03*
X102362000Y-100584000D03*
X109982000Y-82804000D03*
%TD*%
M02*
