%TF.GenerationSoftware,KiCad,Pcbnew,(5.1.12)-1*%
%TF.CreationDate,2022-08-27T08:41:51-05:00*%
%TF.ProjectId,LeProbe,4c655072-6f62-4652-9e6b-696361645f70,rev?*%
%TF.SameCoordinates,Original*%
%TF.FileFunction,Copper,L2,Bot*%
%TF.FilePolarity,Positive*%
%FSLAX46Y46*%
G04 Gerber Fmt 4.6, Leading zero omitted, Abs format (unit mm)*
G04 Created by KiCad (PCBNEW (5.1.12)-1) date 2022-08-27 08:41:51*
%MOMM*%
%LPD*%
G01*
G04 APERTURE LIST*
%TA.AperFunction,ComponentPad*%
%ADD10C,1.600000*%
%TD*%
%TA.AperFunction,ComponentPad*%
%ADD11C,1.800000*%
%TD*%
%TA.AperFunction,ComponentPad*%
%ADD12R,1.800000X1.800000*%
%TD*%
%TA.AperFunction,ComponentPad*%
%ADD13R,1.700000X1.700000*%
%TD*%
%TA.AperFunction,ComponentPad*%
%ADD14O,1.700000X1.700000*%
%TD*%
%TA.AperFunction,ComponentPad*%
%ADD15C,1.400000*%
%TD*%
%TA.AperFunction,ComponentPad*%
%ADD16O,1.400000X1.400000*%
%TD*%
%TA.AperFunction,ComponentPad*%
%ADD17O,1.600000X1.600000*%
%TD*%
%TA.AperFunction,ComponentPad*%
%ADD18R,1.600000X1.600000*%
%TD*%
%TA.AperFunction,ViaPad*%
%ADD19C,0.800000*%
%TD*%
%TA.AperFunction,Conductor*%
%ADD20C,0.250000*%
%TD*%
G04 APERTURE END LIST*
D10*
%TO.P,C1,1*%
%TO.N,GND*%
X87376000Y-45466000D03*
%TO.P,C1,2*%
%TO.N,+5V*%
X84876000Y-45466000D03*
%TD*%
D11*
%TO.P,D8,2*%
%TO.N,Net-(D8-Pad2)*%
X87630000Y-125730000D03*
D12*
%TO.P,D8,1*%
%TO.N,Net-(D8-Pad1)*%
X85090000Y-125730000D03*
%TD*%
D11*
%TO.P,D7,2*%
%TO.N,Net-(D7-Pad2)*%
X87630000Y-115570000D03*
D12*
%TO.P,D7,1*%
%TO.N,Net-(D7-Pad1)*%
X85090000Y-115570000D03*
%TD*%
%TO.P,D6,1*%
%TO.N,Net-(D6-Pad1)*%
X85090000Y-105410000D03*
D11*
%TO.P,D6,2*%
%TO.N,Net-(D6-Pad2)*%
X87630000Y-105410000D03*
%TD*%
D12*
%TO.P,D5,1*%
%TO.N,Net-(D5-Pad1)*%
X85090000Y-95250000D03*
D11*
%TO.P,D5,2*%
%TO.N,Net-(D5-Pad2)*%
X87630000Y-95250000D03*
%TD*%
%TO.P,D4,2*%
%TO.N,Net-(D4-Pad2)*%
X87630000Y-85090000D03*
D12*
%TO.P,D4,1*%
%TO.N,Net-(D4-Pad1)*%
X85090000Y-85090000D03*
%TD*%
%TO.P,D3,1*%
%TO.N,Net-(D3-Pad1)*%
X85090000Y-74930000D03*
D11*
%TO.P,D3,2*%
%TO.N,Net-(D3-Pad2)*%
X87630000Y-74930000D03*
%TD*%
%TO.P,D2,2*%
%TO.N,Net-(D2-Pad2)*%
X87630000Y-64770000D03*
D12*
%TO.P,D2,1*%
%TO.N,Net-(D2-Pad1)*%
X85090000Y-64770000D03*
%TD*%
%TO.P,D1,1*%
%TO.N,Net-(D1-Pad1)*%
X85090000Y-54610000D03*
D11*
%TO.P,D1,2*%
%TO.N,Net-(D1-Pad2)*%
X87630000Y-54610000D03*
%TD*%
D13*
%TO.P,J1,1*%
%TO.N,+5V*%
X84836000Y-35306000D03*
D14*
%TO.P,J1,2*%
%TO.N,GND*%
X87376000Y-35306000D03*
%TD*%
D13*
%TO.P,J2,1*%
%TO.N,Net-(J2-Pad1)*%
X126492000Y-46228000D03*
D14*
%TO.P,J2,2*%
%TO.N,Net-(J2-Pad2)*%
X126492000Y-48768000D03*
%TO.P,J2,3*%
%TO.N,Net-(J2-Pad3)*%
X126492000Y-51308000D03*
%TO.P,J2,4*%
%TO.N,Net-(J2-Pad4)*%
X126492000Y-53848000D03*
%TO.P,J2,5*%
%TO.N,Net-(J2-Pad5)*%
X126492000Y-56388000D03*
%TO.P,J2,6*%
%TO.N,Net-(J2-Pad6)*%
X126492000Y-58928000D03*
%TO.P,J2,7*%
%TO.N,Net-(J2-Pad7)*%
X126492000Y-61468000D03*
%TO.P,J2,8*%
%TO.N,Net-(J2-Pad8)*%
X126492000Y-64008000D03*
%TO.P,J2,9*%
%TO.N,Net-(J2-Pad9)*%
X126492000Y-66548000D03*
%TO.P,J2,10*%
%TO.N,Net-(J2-Pad10)*%
X126492000Y-69088000D03*
%TO.P,J2,11*%
%TO.N,Net-(J2-Pad11)*%
X126492000Y-71628000D03*
%TO.P,J2,12*%
%TO.N,Net-(J2-Pad12)*%
X126492000Y-74168000D03*
%TO.P,J2,13*%
%TO.N,Net-(J2-Pad13)*%
X126492000Y-76708000D03*
%TO.P,J2,14*%
%TO.N,Net-(J2-Pad14)*%
X126492000Y-79248000D03*
%TO.P,J2,15*%
%TO.N,Net-(J2-Pad15)*%
X126492000Y-81788000D03*
%TO.P,J2,16*%
%TO.N,Net-(J2-Pad16)*%
X126492000Y-84328000D03*
%TD*%
D13*
%TO.P,J3,1*%
%TO.N,Net-(D1-Pad2)*%
X127508000Y-100584000D03*
D14*
%TO.P,J3,2*%
%TO.N,Net-(D2-Pad2)*%
X127508000Y-103124000D03*
%TO.P,J3,3*%
%TO.N,Net-(D3-Pad2)*%
X127508000Y-105664000D03*
%TO.P,J3,4*%
%TO.N,Net-(D4-Pad2)*%
X127508000Y-108204000D03*
%TO.P,J3,5*%
%TO.N,Net-(D5-Pad2)*%
X127508000Y-110744000D03*
%TO.P,J3,6*%
%TO.N,Net-(D6-Pad2)*%
X127508000Y-113284000D03*
%TO.P,J3,7*%
%TO.N,Net-(D7-Pad2)*%
X127508000Y-115824000D03*
%TO.P,J3,8*%
%TO.N,Net-(D8-Pad2)*%
X127508000Y-118364000D03*
%TD*%
D15*
%TO.P,R1,1*%
%TO.N,GND*%
X137160000Y-34798000D03*
D16*
%TO.P,R1,2*%
%TO.N,Net-(J2-Pad1)*%
X144780000Y-34798000D03*
%TD*%
%TO.P,R2,2*%
%TO.N,Net-(J2-Pad2)*%
X144780000Y-38608000D03*
D15*
%TO.P,R2,1*%
%TO.N,GND*%
X137160000Y-38608000D03*
%TD*%
%TO.P,R3,1*%
%TO.N,GND*%
X137160000Y-42418000D03*
D16*
%TO.P,R3,2*%
%TO.N,Net-(J2-Pad3)*%
X144780000Y-42418000D03*
%TD*%
%TO.P,R4,2*%
%TO.N,Net-(J2-Pad4)*%
X144780000Y-46228000D03*
D15*
%TO.P,R4,1*%
%TO.N,GND*%
X137160000Y-46228000D03*
%TD*%
%TO.P,R5,1*%
%TO.N,GND*%
X137160000Y-50038000D03*
D16*
%TO.P,R5,2*%
%TO.N,Net-(J2-Pad5)*%
X144780000Y-50038000D03*
%TD*%
%TO.P,R6,2*%
%TO.N,Net-(J2-Pad6)*%
X144780000Y-53848000D03*
D15*
%TO.P,R6,1*%
%TO.N,GND*%
X137160000Y-53848000D03*
%TD*%
%TO.P,R7,1*%
%TO.N,GND*%
X137160000Y-57658000D03*
D16*
%TO.P,R7,2*%
%TO.N,Net-(J2-Pad7)*%
X144780000Y-57658000D03*
%TD*%
%TO.P,R8,2*%
%TO.N,Net-(J2-Pad8)*%
X144780000Y-61468000D03*
D15*
%TO.P,R8,1*%
%TO.N,GND*%
X137160000Y-61468000D03*
%TD*%
%TO.P,R9,1*%
%TO.N,GND*%
X137160000Y-65278000D03*
D16*
%TO.P,R9,2*%
%TO.N,Net-(J2-Pad9)*%
X144780000Y-65278000D03*
%TD*%
%TO.P,R10,2*%
%TO.N,Net-(J2-Pad10)*%
X144780000Y-69088000D03*
D15*
%TO.P,R10,1*%
%TO.N,GND*%
X137160000Y-69088000D03*
%TD*%
%TO.P,R11,1*%
%TO.N,GND*%
X137160000Y-72898000D03*
D16*
%TO.P,R11,2*%
%TO.N,Net-(J2-Pad11)*%
X144780000Y-72898000D03*
%TD*%
%TO.P,R12,2*%
%TO.N,Net-(J2-Pad12)*%
X144780000Y-76708000D03*
D15*
%TO.P,R12,1*%
%TO.N,GND*%
X137160000Y-76708000D03*
%TD*%
%TO.P,R13,1*%
%TO.N,GND*%
X137160000Y-80518000D03*
D16*
%TO.P,R13,2*%
%TO.N,Net-(J2-Pad13)*%
X144780000Y-80518000D03*
%TD*%
%TO.P,R14,2*%
%TO.N,Net-(J2-Pad14)*%
X144780000Y-84328000D03*
D15*
%TO.P,R14,1*%
%TO.N,GND*%
X137160000Y-84328000D03*
%TD*%
%TO.P,R15,1*%
%TO.N,GND*%
X137160000Y-88138000D03*
D16*
%TO.P,R15,2*%
%TO.N,Net-(J2-Pad15)*%
X144780000Y-88138000D03*
%TD*%
%TO.P,R16,2*%
%TO.N,Net-(J2-Pad16)*%
X144780000Y-91948000D03*
D15*
%TO.P,R16,1*%
%TO.N,GND*%
X137160000Y-91948000D03*
%TD*%
D16*
%TO.P,R17,2*%
%TO.N,Net-(D8-Pad1)*%
X144780000Y-124714000D03*
D15*
%TO.P,R17,1*%
%TO.N,GND*%
X137160000Y-124714000D03*
%TD*%
D16*
%TO.P,R18,2*%
%TO.N,Net-(D7-Pad1)*%
X144780000Y-120396000D03*
D15*
%TO.P,R18,1*%
%TO.N,GND*%
X137160000Y-120396000D03*
%TD*%
%TO.P,R19,1*%
%TO.N,GND*%
X137160000Y-116332000D03*
D16*
%TO.P,R19,2*%
%TO.N,Net-(D6-Pad1)*%
X144780000Y-116332000D03*
%TD*%
%TO.P,R20,2*%
%TO.N,Net-(D5-Pad1)*%
X144780000Y-112268000D03*
D15*
%TO.P,R20,1*%
%TO.N,GND*%
X137160000Y-112268000D03*
%TD*%
%TO.P,R21,1*%
%TO.N,GND*%
X137160000Y-108204000D03*
D16*
%TO.P,R21,2*%
%TO.N,Net-(D4-Pad1)*%
X144780000Y-108204000D03*
%TD*%
%TO.P,R22,2*%
%TO.N,Net-(D3-Pad1)*%
X144780000Y-104140000D03*
D15*
%TO.P,R22,1*%
%TO.N,GND*%
X137160000Y-104140000D03*
%TD*%
%TO.P,R23,1*%
%TO.N,GND*%
X137160000Y-100076000D03*
D16*
%TO.P,R23,2*%
%TO.N,Net-(D2-Pad1)*%
X144780000Y-100076000D03*
%TD*%
D15*
%TO.P,R24,1*%
%TO.N,GND*%
X137160000Y-96012000D03*
D16*
%TO.P,R24,2*%
%TO.N,Net-(D1-Pad1)*%
X144780000Y-96012000D03*
%TD*%
D17*
%TO.P,SW1,16*%
%TO.N,Net-(J2-Pad1)*%
X109982000Y-51054000D03*
%TO.P,SW1,8*%
%TO.N,+5V*%
X102362000Y-68834000D03*
%TO.P,SW1,15*%
%TO.N,Net-(J2-Pad2)*%
X109982000Y-53594000D03*
%TO.P,SW1,7*%
%TO.N,+5V*%
X102362000Y-66294000D03*
%TO.P,SW1,14*%
%TO.N,Net-(J2-Pad3)*%
X109982000Y-56134000D03*
%TO.P,SW1,6*%
%TO.N,+5V*%
X102362000Y-63754000D03*
%TO.P,SW1,13*%
%TO.N,Net-(J2-Pad4)*%
X109982000Y-58674000D03*
%TO.P,SW1,5*%
%TO.N,+5V*%
X102362000Y-61214000D03*
%TO.P,SW1,12*%
%TO.N,Net-(J2-Pad5)*%
X109982000Y-61214000D03*
%TO.P,SW1,4*%
%TO.N,+5V*%
X102362000Y-58674000D03*
%TO.P,SW1,11*%
%TO.N,Net-(J2-Pad6)*%
X109982000Y-63754000D03*
%TO.P,SW1,3*%
%TO.N,+5V*%
X102362000Y-56134000D03*
%TO.P,SW1,10*%
%TO.N,Net-(J2-Pad7)*%
X109982000Y-66294000D03*
%TO.P,SW1,2*%
%TO.N,+5V*%
X102362000Y-53594000D03*
%TO.P,SW1,9*%
%TO.N,Net-(J2-Pad8)*%
X109982000Y-68834000D03*
D18*
%TO.P,SW1,1*%
%TO.N,+5V*%
X102362000Y-51054000D03*
%TD*%
%TO.P,SW2,1*%
%TO.N,+5V*%
X102362000Y-82804000D03*
D17*
%TO.P,SW2,9*%
%TO.N,Net-(J2-Pad16)*%
X109982000Y-100584000D03*
%TO.P,SW2,2*%
%TO.N,+5V*%
X102362000Y-85344000D03*
%TO.P,SW2,10*%
%TO.N,Net-(J2-Pad15)*%
X109982000Y-98044000D03*
%TO.P,SW2,3*%
%TO.N,+5V*%
X102362000Y-87884000D03*
%TO.P,SW2,11*%
%TO.N,Net-(J2-Pad14)*%
X109982000Y-95504000D03*
%TO.P,SW2,4*%
%TO.N,+5V*%
X102362000Y-90424000D03*
%TO.P,SW2,12*%
%TO.N,Net-(J2-Pad13)*%
X109982000Y-92964000D03*
%TO.P,SW2,5*%
%TO.N,+5V*%
X102362000Y-92964000D03*
%TO.P,SW2,13*%
%TO.N,Net-(J2-Pad12)*%
X109982000Y-90424000D03*
%TO.P,SW2,6*%
%TO.N,+5V*%
X102362000Y-95504000D03*
%TO.P,SW2,14*%
%TO.N,Net-(J2-Pad11)*%
X109982000Y-87884000D03*
%TO.P,SW2,7*%
%TO.N,+5V*%
X102362000Y-98044000D03*
%TO.P,SW2,15*%
%TO.N,Net-(J2-Pad10)*%
X109982000Y-85344000D03*
%TO.P,SW2,8*%
%TO.N,+5V*%
X102362000Y-100584000D03*
%TO.P,SW2,16*%
%TO.N,Net-(J2-Pad9)*%
X109982000Y-82804000D03*
%TD*%
D19*
%TO.N,GND*%
X97536000Y-33528000D03*
X104140000Y-33528000D03*
X110236000Y-33528000D03*
X116332000Y-33528000D03*
X122428000Y-33528000D03*
%TD*%
D20*
%TO.N,Net-(D1-Pad1)*%
X85090000Y-55760000D02*
X105530000Y-76200000D01*
X85090000Y-54610000D02*
X85090000Y-55760000D01*
X105530000Y-76200000D02*
X110744000Y-76200000D01*
X143754999Y-94986999D02*
X144780000Y-96012000D01*
X129530999Y-94986999D02*
X143754999Y-94986999D01*
X110744000Y-76200000D02*
X129530999Y-94986999D01*
%TO.N,Net-(D2-Pad1)*%
X143754999Y-99050999D02*
X144780000Y-100076000D01*
X127000000Y-96012000D02*
X143754999Y-99050999D01*
X99060000Y-78740000D02*
X110869003Y-78740000D01*
X110869003Y-78740000D02*
X127000000Y-96012000D01*
X85090000Y-64770000D02*
X99060000Y-78740000D01*
%TO.N,Net-(D3-Pad1)*%
X129032000Y-97028000D02*
X135636000Y-102108000D01*
X124968000Y-97028000D02*
X129032000Y-97028000D01*
X113284000Y-107188000D02*
X124968000Y-97028000D01*
X100076000Y-105664000D02*
X101600000Y-107188000D01*
X101600000Y-107188000D02*
X113284000Y-107188000D01*
X100076000Y-91066000D02*
X100076000Y-105664000D01*
X135636000Y-102108000D02*
X144780000Y-104140000D01*
X85090000Y-76080000D02*
X100076000Y-91066000D01*
X85090000Y-74930000D02*
X85090000Y-76080000D01*
%TO.N,Net-(D4-Pad1)*%
X143256000Y-106680000D02*
X144780000Y-108204000D01*
X135128000Y-105664000D02*
X143256000Y-106680000D01*
X132080000Y-103632000D02*
X135128000Y-105664000D01*
X129540000Y-98044000D02*
X132080000Y-103632000D01*
X125476000Y-97536000D02*
X129540000Y-98044000D01*
X99060000Y-105284410D02*
X101542009Y-108204000D01*
X113792000Y-108204000D02*
X125476000Y-97536000D01*
X101542009Y-108204000D02*
X113792000Y-108204000D01*
X99060000Y-91948000D02*
X99060000Y-105284410D01*
X93427001Y-86315001D02*
X99060000Y-91948000D01*
X86315001Y-86315001D02*
X93427001Y-86315001D01*
X85090000Y-85090000D02*
X86315001Y-86315001D01*
%TO.N,Net-(D5-Pad1)*%
X142748000Y-110236000D02*
X144780000Y-112268000D01*
X130048000Y-100838998D02*
X130048000Y-103124000D01*
X130048000Y-103124000D02*
X135636000Y-109728000D01*
X129032000Y-98552000D02*
X130048000Y-100838998D01*
X125476000Y-98552000D02*
X129032000Y-98552000D01*
X114808000Y-109728000D02*
X125476000Y-98552000D01*
X114808000Y-110236000D02*
X114808000Y-109728000D01*
X135636000Y-109728000D02*
X142748000Y-110236000D01*
X100076000Y-110236000D02*
X114808000Y-110236000D01*
X85090000Y-95250000D02*
X100076000Y-110236000D01*
%TO.N,Net-(D6-Pad1)*%
X149352000Y-120904000D02*
X144780000Y-116332000D01*
X143764000Y-130556000D02*
X149352000Y-124460000D01*
X81788000Y-127000000D02*
X84836000Y-130556000D01*
X84836000Y-130556000D02*
X143764000Y-130556000D01*
X82296000Y-115978998D02*
X81788000Y-127000000D01*
X83820000Y-109728000D02*
X82296000Y-115978998D01*
X149352000Y-124460000D02*
X149352000Y-120904000D01*
X85090000Y-105918000D02*
X83820000Y-109728000D01*
X85090000Y-105410000D02*
X85090000Y-105918000D01*
%TO.N,Net-(D7-Pad1)*%
X147320000Y-124460000D02*
X144780000Y-120396000D01*
X143256000Y-129540000D02*
X147320000Y-124460000D01*
X85344000Y-129540000D02*
X143256000Y-129540000D01*
X82804000Y-127000000D02*
X85344000Y-129540000D01*
X82804000Y-117856000D02*
X82804000Y-127000000D01*
X85090000Y-115570000D02*
X82804000Y-117856000D01*
%TO.N,Net-(D8-Pad1)*%
X141535991Y-127958009D02*
X144780000Y-124714000D01*
X87318009Y-127958009D02*
X141535991Y-127958009D01*
X85090000Y-125730000D02*
X87318009Y-127958009D01*
%TO.N,Net-(J2-Pad1)*%
X139452998Y-34798000D02*
X128022998Y-46228000D01*
X128022998Y-46228000D02*
X126492000Y-46228000D01*
X144780000Y-34798000D02*
X139452998Y-34798000D01*
%TO.N,Net-(J2-Pad2)*%
X131816999Y-43443001D02*
X126492000Y-48768000D01*
X139944999Y-43443001D02*
X131816999Y-43443001D01*
X144780000Y-38608000D02*
X139944999Y-43443001D01*
%TO.N,Net-(J2-Pad3)*%
X130546999Y-47253001D02*
X126492000Y-51308000D01*
X139944999Y-47253001D02*
X130546999Y-47253001D01*
X144780000Y-42418000D02*
X139944999Y-47253001D01*
%TO.N,Net-(J2-Pad4)*%
X131327001Y-49012999D02*
X126492000Y-53848000D01*
X141995001Y-49012999D02*
X131327001Y-49012999D01*
X144780000Y-46228000D02*
X141995001Y-49012999D01*
%TO.N,Net-(J2-Pad5)*%
X136912998Y-56388000D02*
X126492000Y-56388000D01*
X143262998Y-50038000D02*
X136912998Y-56388000D01*
X144780000Y-50038000D02*
X143262998Y-50038000D01*
%TO.N,Net-(J2-Pad6)*%
X126736999Y-58683001D02*
X126492000Y-58928000D01*
X139944999Y-58683001D02*
X126736999Y-58683001D01*
X144780000Y-53848000D02*
X139944999Y-58683001D01*
%TO.N,Net-(J2-Pad7)*%
X128826989Y-59133011D02*
X126492000Y-61468000D01*
X143304989Y-59133011D02*
X128826989Y-59133011D01*
X144780000Y-57658000D02*
X143304989Y-59133011D01*
%TO.N,Net-(J2-Pad8)*%
X128006999Y-62493001D02*
X126492000Y-64008000D01*
X143754999Y-62493001D02*
X128006999Y-62493001D01*
X144780000Y-61468000D02*
X143754999Y-62493001D01*
%TO.N,Net-(J2-Pad9)*%
X126736999Y-66303001D02*
X126492000Y-66548000D01*
X143754999Y-66303001D02*
X126736999Y-66303001D01*
X144780000Y-65278000D02*
X143754999Y-66303001D01*
%TO.N,Net-(J2-Pad10)*%
X127517001Y-70113001D02*
X126492000Y-69088000D01*
X143754999Y-70113001D02*
X127517001Y-70113001D01*
X144780000Y-69088000D02*
X143754999Y-70113001D01*
%TO.N,Net-(J2-Pad11)*%
X128787001Y-73923001D02*
X126492000Y-71628000D01*
X143754999Y-73923001D02*
X128787001Y-73923001D01*
X144780000Y-72898000D02*
X143754999Y-73923001D01*
%TO.N,Net-(J2-Pad12)*%
X128006999Y-75682999D02*
X126492000Y-74168000D01*
X143754999Y-75682999D02*
X128006999Y-75682999D01*
X144780000Y-76708000D02*
X143754999Y-75682999D01*
%TO.N,Net-(J2-Pad13)*%
X134867002Y-76708000D02*
X126492000Y-76708000D01*
X138677002Y-80518000D02*
X134867002Y-76708000D01*
X144780000Y-80518000D02*
X138677002Y-80518000D01*
%TO.N,Net-(J2-Pad14)*%
X133597002Y-79248000D02*
X126492000Y-79248000D01*
X138677002Y-84328000D02*
X133597002Y-79248000D01*
X144780000Y-84328000D02*
X138677002Y-84328000D01*
%TO.N,Net-(J2-Pad15)*%
X131816999Y-87112999D02*
X126492000Y-81788000D01*
X143754999Y-87112999D02*
X131816999Y-87112999D01*
X144780000Y-88138000D02*
X143754999Y-87112999D01*
%TO.N,Net-(J2-Pad16)*%
X133086999Y-90922999D02*
X126492000Y-84328000D01*
X143754999Y-90922999D02*
X133086999Y-90922999D01*
X144780000Y-91948000D02*
X143754999Y-90922999D01*
%TD*%
M02*
