%TF.GenerationSoftware,KiCad,Pcbnew,(5.1.12)-1*%
%TF.CreationDate,2022-08-27T08:41:51-05:00*%
%TF.ProjectId,LeProbe,4c655072-6f62-4652-9e6b-696361645f70,rev?*%
%TF.SameCoordinates,Original*%
%TF.FileFunction,Copper,L1,Top*%
%TF.FilePolarity,Positive*%
%FSLAX46Y46*%
G04 Gerber Fmt 4.6, Leading zero omitted, Abs format (unit mm)*
G04 Created by KiCad (PCBNEW (5.1.12)-1) date 2022-08-27 08:41:51*
%MOMM*%
%LPD*%
G01*
G04 APERTURE LIST*
%TA.AperFunction,ComponentPad*%
%ADD10C,1.600000*%
%TD*%
%TA.AperFunction,ComponentPad*%
%ADD11C,1.800000*%
%TD*%
%TA.AperFunction,ComponentPad*%
%ADD12R,1.800000X1.800000*%
%TD*%
%TA.AperFunction,ComponentPad*%
%ADD13R,1.700000X1.700000*%
%TD*%
%TA.AperFunction,ComponentPad*%
%ADD14O,1.700000X1.700000*%
%TD*%
%TA.AperFunction,ComponentPad*%
%ADD15C,1.400000*%
%TD*%
%TA.AperFunction,ComponentPad*%
%ADD16O,1.400000X1.400000*%
%TD*%
%TA.AperFunction,ComponentPad*%
%ADD17O,1.600000X1.600000*%
%TD*%
%TA.AperFunction,ComponentPad*%
%ADD18R,1.600000X1.600000*%
%TD*%
%TA.AperFunction,ViaPad*%
%ADD19C,0.800000*%
%TD*%
%TA.AperFunction,Conductor*%
%ADD20C,0.250000*%
%TD*%
%TA.AperFunction,Conductor*%
%ADD21C,1.000000*%
%TD*%
%TA.AperFunction,Conductor*%
%ADD22C,0.254000*%
%TD*%
%TA.AperFunction,Conductor*%
%ADD23C,0.100000*%
%TD*%
G04 APERTURE END LIST*
D10*
%TO.P,C1,1*%
%TO.N,GND*%
X87376000Y-45466000D03*
%TO.P,C1,2*%
%TO.N,+5V*%
X84876000Y-45466000D03*
%TD*%
D11*
%TO.P,D8,2*%
%TO.N,Net-(D8-Pad2)*%
X87630000Y-125730000D03*
D12*
%TO.P,D8,1*%
%TO.N,Net-(D8-Pad1)*%
X85090000Y-125730000D03*
%TD*%
D11*
%TO.P,D7,2*%
%TO.N,Net-(D7-Pad2)*%
X87630000Y-115570000D03*
D12*
%TO.P,D7,1*%
%TO.N,Net-(D7-Pad1)*%
X85090000Y-115570000D03*
%TD*%
%TO.P,D6,1*%
%TO.N,Net-(D6-Pad1)*%
X85090000Y-105410000D03*
D11*
%TO.P,D6,2*%
%TO.N,Net-(D6-Pad2)*%
X87630000Y-105410000D03*
%TD*%
D12*
%TO.P,D5,1*%
%TO.N,Net-(D5-Pad1)*%
X85090000Y-95250000D03*
D11*
%TO.P,D5,2*%
%TO.N,Net-(D5-Pad2)*%
X87630000Y-95250000D03*
%TD*%
%TO.P,D4,2*%
%TO.N,Net-(D4-Pad2)*%
X87630000Y-85090000D03*
D12*
%TO.P,D4,1*%
%TO.N,Net-(D4-Pad1)*%
X85090000Y-85090000D03*
%TD*%
%TO.P,D3,1*%
%TO.N,Net-(D3-Pad1)*%
X85090000Y-74930000D03*
D11*
%TO.P,D3,2*%
%TO.N,Net-(D3-Pad2)*%
X87630000Y-74930000D03*
%TD*%
%TO.P,D2,2*%
%TO.N,Net-(D2-Pad2)*%
X87630000Y-64770000D03*
D12*
%TO.P,D2,1*%
%TO.N,Net-(D2-Pad1)*%
X85090000Y-64770000D03*
%TD*%
%TO.P,D1,1*%
%TO.N,Net-(D1-Pad1)*%
X85090000Y-54610000D03*
D11*
%TO.P,D1,2*%
%TO.N,Net-(D1-Pad2)*%
X87630000Y-54610000D03*
%TD*%
D13*
%TO.P,J1,1*%
%TO.N,+5V*%
X84836000Y-35306000D03*
D14*
%TO.P,J1,2*%
%TO.N,GND*%
X87376000Y-35306000D03*
%TD*%
D13*
%TO.P,J2,1*%
%TO.N,Net-(J2-Pad1)*%
X126492000Y-46228000D03*
D14*
%TO.P,J2,2*%
%TO.N,Net-(J2-Pad2)*%
X126492000Y-48768000D03*
%TO.P,J2,3*%
%TO.N,Net-(J2-Pad3)*%
X126492000Y-51308000D03*
%TO.P,J2,4*%
%TO.N,Net-(J2-Pad4)*%
X126492000Y-53848000D03*
%TO.P,J2,5*%
%TO.N,Net-(J2-Pad5)*%
X126492000Y-56388000D03*
%TO.P,J2,6*%
%TO.N,Net-(J2-Pad6)*%
X126492000Y-58928000D03*
%TO.P,J2,7*%
%TO.N,Net-(J2-Pad7)*%
X126492000Y-61468000D03*
%TO.P,J2,8*%
%TO.N,Net-(J2-Pad8)*%
X126492000Y-64008000D03*
%TO.P,J2,9*%
%TO.N,Net-(J2-Pad9)*%
X126492000Y-66548000D03*
%TO.P,J2,10*%
%TO.N,Net-(J2-Pad10)*%
X126492000Y-69088000D03*
%TO.P,J2,11*%
%TO.N,Net-(J2-Pad11)*%
X126492000Y-71628000D03*
%TO.P,J2,12*%
%TO.N,Net-(J2-Pad12)*%
X126492000Y-74168000D03*
%TO.P,J2,13*%
%TO.N,Net-(J2-Pad13)*%
X126492000Y-76708000D03*
%TO.P,J2,14*%
%TO.N,Net-(J2-Pad14)*%
X126492000Y-79248000D03*
%TO.P,J2,15*%
%TO.N,Net-(J2-Pad15)*%
X126492000Y-81788000D03*
%TO.P,J2,16*%
%TO.N,Net-(J2-Pad16)*%
X126492000Y-84328000D03*
%TD*%
D13*
%TO.P,J3,1*%
%TO.N,Net-(D1-Pad2)*%
X127508000Y-100584000D03*
D14*
%TO.P,J3,2*%
%TO.N,Net-(D2-Pad2)*%
X127508000Y-103124000D03*
%TO.P,J3,3*%
%TO.N,Net-(D3-Pad2)*%
X127508000Y-105664000D03*
%TO.P,J3,4*%
%TO.N,Net-(D4-Pad2)*%
X127508000Y-108204000D03*
%TO.P,J3,5*%
%TO.N,Net-(D5-Pad2)*%
X127508000Y-110744000D03*
%TO.P,J3,6*%
%TO.N,Net-(D6-Pad2)*%
X127508000Y-113284000D03*
%TO.P,J3,7*%
%TO.N,Net-(D7-Pad2)*%
X127508000Y-115824000D03*
%TO.P,J3,8*%
%TO.N,Net-(D8-Pad2)*%
X127508000Y-118364000D03*
%TD*%
D15*
%TO.P,R1,1*%
%TO.N,GND*%
X137160000Y-34798000D03*
D16*
%TO.P,R1,2*%
%TO.N,Net-(J2-Pad1)*%
X144780000Y-34798000D03*
%TD*%
%TO.P,R2,2*%
%TO.N,Net-(J2-Pad2)*%
X144780000Y-38608000D03*
D15*
%TO.P,R2,1*%
%TO.N,GND*%
X137160000Y-38608000D03*
%TD*%
%TO.P,R3,1*%
%TO.N,GND*%
X137160000Y-42418000D03*
D16*
%TO.P,R3,2*%
%TO.N,Net-(J2-Pad3)*%
X144780000Y-42418000D03*
%TD*%
%TO.P,R4,2*%
%TO.N,Net-(J2-Pad4)*%
X144780000Y-46228000D03*
D15*
%TO.P,R4,1*%
%TO.N,GND*%
X137160000Y-46228000D03*
%TD*%
%TO.P,R5,1*%
%TO.N,GND*%
X137160000Y-50038000D03*
D16*
%TO.P,R5,2*%
%TO.N,Net-(J2-Pad5)*%
X144780000Y-50038000D03*
%TD*%
%TO.P,R6,2*%
%TO.N,Net-(J2-Pad6)*%
X144780000Y-53848000D03*
D15*
%TO.P,R6,1*%
%TO.N,GND*%
X137160000Y-53848000D03*
%TD*%
%TO.P,R7,1*%
%TO.N,GND*%
X137160000Y-57658000D03*
D16*
%TO.P,R7,2*%
%TO.N,Net-(J2-Pad7)*%
X144780000Y-57658000D03*
%TD*%
%TO.P,R8,2*%
%TO.N,Net-(J2-Pad8)*%
X144780000Y-61468000D03*
D15*
%TO.P,R8,1*%
%TO.N,GND*%
X137160000Y-61468000D03*
%TD*%
%TO.P,R9,1*%
%TO.N,GND*%
X137160000Y-65278000D03*
D16*
%TO.P,R9,2*%
%TO.N,Net-(J2-Pad9)*%
X144780000Y-65278000D03*
%TD*%
%TO.P,R10,2*%
%TO.N,Net-(J2-Pad10)*%
X144780000Y-69088000D03*
D15*
%TO.P,R10,1*%
%TO.N,GND*%
X137160000Y-69088000D03*
%TD*%
%TO.P,R11,1*%
%TO.N,GND*%
X137160000Y-72898000D03*
D16*
%TO.P,R11,2*%
%TO.N,Net-(J2-Pad11)*%
X144780000Y-72898000D03*
%TD*%
%TO.P,R12,2*%
%TO.N,Net-(J2-Pad12)*%
X144780000Y-76708000D03*
D15*
%TO.P,R12,1*%
%TO.N,GND*%
X137160000Y-76708000D03*
%TD*%
%TO.P,R13,1*%
%TO.N,GND*%
X137160000Y-80518000D03*
D16*
%TO.P,R13,2*%
%TO.N,Net-(J2-Pad13)*%
X144780000Y-80518000D03*
%TD*%
%TO.P,R14,2*%
%TO.N,Net-(J2-Pad14)*%
X144780000Y-84328000D03*
D15*
%TO.P,R14,1*%
%TO.N,GND*%
X137160000Y-84328000D03*
%TD*%
%TO.P,R15,1*%
%TO.N,GND*%
X137160000Y-88138000D03*
D16*
%TO.P,R15,2*%
%TO.N,Net-(J2-Pad15)*%
X144780000Y-88138000D03*
%TD*%
%TO.P,R16,2*%
%TO.N,Net-(J2-Pad16)*%
X144780000Y-91948000D03*
D15*
%TO.P,R16,1*%
%TO.N,GND*%
X137160000Y-91948000D03*
%TD*%
D16*
%TO.P,R17,2*%
%TO.N,Net-(D8-Pad1)*%
X144780000Y-124714000D03*
D15*
%TO.P,R17,1*%
%TO.N,GND*%
X137160000Y-124714000D03*
%TD*%
D16*
%TO.P,R18,2*%
%TO.N,Net-(D7-Pad1)*%
X144780000Y-120396000D03*
D15*
%TO.P,R18,1*%
%TO.N,GND*%
X137160000Y-120396000D03*
%TD*%
%TO.P,R19,1*%
%TO.N,GND*%
X137160000Y-116332000D03*
D16*
%TO.P,R19,2*%
%TO.N,Net-(D6-Pad1)*%
X144780000Y-116332000D03*
%TD*%
%TO.P,R20,2*%
%TO.N,Net-(D5-Pad1)*%
X144780000Y-112268000D03*
D15*
%TO.P,R20,1*%
%TO.N,GND*%
X137160000Y-112268000D03*
%TD*%
%TO.P,R21,1*%
%TO.N,GND*%
X137160000Y-108204000D03*
D16*
%TO.P,R21,2*%
%TO.N,Net-(D4-Pad1)*%
X144780000Y-108204000D03*
%TD*%
%TO.P,R22,2*%
%TO.N,Net-(D3-Pad1)*%
X144780000Y-104140000D03*
D15*
%TO.P,R22,1*%
%TO.N,GND*%
X137160000Y-104140000D03*
%TD*%
%TO.P,R23,1*%
%TO.N,GND*%
X137160000Y-100076000D03*
D16*
%TO.P,R23,2*%
%TO.N,Net-(D2-Pad1)*%
X144780000Y-100076000D03*
%TD*%
D15*
%TO.P,R24,1*%
%TO.N,GND*%
X137160000Y-96012000D03*
D16*
%TO.P,R24,2*%
%TO.N,Net-(D1-Pad1)*%
X144780000Y-96012000D03*
%TD*%
D17*
%TO.P,SW1,16*%
%TO.N,Net-(J2-Pad1)*%
X109982000Y-51054000D03*
%TO.P,SW1,8*%
%TO.N,+5V*%
X102362000Y-68834000D03*
%TO.P,SW1,15*%
%TO.N,Net-(J2-Pad2)*%
X109982000Y-53594000D03*
%TO.P,SW1,7*%
%TO.N,+5V*%
X102362000Y-66294000D03*
%TO.P,SW1,14*%
%TO.N,Net-(J2-Pad3)*%
X109982000Y-56134000D03*
%TO.P,SW1,6*%
%TO.N,+5V*%
X102362000Y-63754000D03*
%TO.P,SW1,13*%
%TO.N,Net-(J2-Pad4)*%
X109982000Y-58674000D03*
%TO.P,SW1,5*%
%TO.N,+5V*%
X102362000Y-61214000D03*
%TO.P,SW1,12*%
%TO.N,Net-(J2-Pad5)*%
X109982000Y-61214000D03*
%TO.P,SW1,4*%
%TO.N,+5V*%
X102362000Y-58674000D03*
%TO.P,SW1,11*%
%TO.N,Net-(J2-Pad6)*%
X109982000Y-63754000D03*
%TO.P,SW1,3*%
%TO.N,+5V*%
X102362000Y-56134000D03*
%TO.P,SW1,10*%
%TO.N,Net-(J2-Pad7)*%
X109982000Y-66294000D03*
%TO.P,SW1,2*%
%TO.N,+5V*%
X102362000Y-53594000D03*
%TO.P,SW1,9*%
%TO.N,Net-(J2-Pad8)*%
X109982000Y-68834000D03*
D18*
%TO.P,SW1,1*%
%TO.N,+5V*%
X102362000Y-51054000D03*
%TD*%
%TO.P,SW2,1*%
%TO.N,+5V*%
X102362000Y-82804000D03*
D17*
%TO.P,SW2,9*%
%TO.N,Net-(J2-Pad16)*%
X109982000Y-100584000D03*
%TO.P,SW2,2*%
%TO.N,+5V*%
X102362000Y-85344000D03*
%TO.P,SW2,10*%
%TO.N,Net-(J2-Pad15)*%
X109982000Y-98044000D03*
%TO.P,SW2,3*%
%TO.N,+5V*%
X102362000Y-87884000D03*
%TO.P,SW2,11*%
%TO.N,Net-(J2-Pad14)*%
X109982000Y-95504000D03*
%TO.P,SW2,4*%
%TO.N,+5V*%
X102362000Y-90424000D03*
%TO.P,SW2,12*%
%TO.N,Net-(J2-Pad13)*%
X109982000Y-92964000D03*
%TO.P,SW2,5*%
%TO.N,+5V*%
X102362000Y-92964000D03*
%TO.P,SW2,13*%
%TO.N,Net-(J2-Pad12)*%
X109982000Y-90424000D03*
%TO.P,SW2,6*%
%TO.N,+5V*%
X102362000Y-95504000D03*
%TO.P,SW2,14*%
%TO.N,Net-(J2-Pad11)*%
X109982000Y-87884000D03*
%TO.P,SW2,7*%
%TO.N,+5V*%
X102362000Y-98044000D03*
%TO.P,SW2,15*%
%TO.N,Net-(J2-Pad10)*%
X109982000Y-85344000D03*
%TO.P,SW2,8*%
%TO.N,+5V*%
X102362000Y-100584000D03*
%TO.P,SW2,16*%
%TO.N,Net-(J2-Pad9)*%
X109982000Y-82804000D03*
%TD*%
D19*
%TO.N,GND*%
X97536000Y-33528000D03*
X104140000Y-33528000D03*
X110236000Y-33528000D03*
X116332000Y-33528000D03*
X122428000Y-33528000D03*
%TD*%
D20*
%TO.N,GND*%
X87376000Y-35306000D02*
X87376000Y-45466000D01*
%TO.N,+5V*%
X84836000Y-35306000D02*
X84836000Y-35560000D01*
D21*
X84836000Y-45146002D02*
X84876000Y-45186002D01*
X84876000Y-45186002D02*
X84876000Y-45466000D01*
X84836000Y-35306000D02*
X84836000Y-45146002D01*
X84876000Y-45466000D02*
X84876000Y-47792000D01*
X88138000Y-51054000D02*
X102362000Y-51054000D01*
X84876000Y-47792000D02*
X88138000Y-51054000D01*
X102362000Y-51054000D02*
X102362000Y-53594000D01*
X102362000Y-53594000D02*
X102362000Y-56134000D01*
X102362000Y-56134000D02*
X102362000Y-58674000D01*
X102362000Y-58674000D02*
X102362000Y-61214000D01*
X102362000Y-61214000D02*
X102362000Y-63754000D01*
X102362000Y-63754000D02*
X102362000Y-66294000D01*
X102362000Y-66294000D02*
X102362000Y-68834000D01*
X102362000Y-68834000D02*
X102362000Y-82804000D01*
X102362000Y-82804000D02*
X102362000Y-85344000D01*
X102362000Y-85344000D02*
X102362000Y-87884000D01*
X102362000Y-87884000D02*
X102362000Y-90424000D01*
X102362000Y-90424000D02*
X102362000Y-92964000D01*
X102362000Y-92964000D02*
X102362000Y-95504000D01*
X102362000Y-95504000D02*
X102362000Y-98044000D01*
X102362000Y-98044000D02*
X102362000Y-100584000D01*
%TO.N,Net-(D1-Pad2)*%
X127508000Y-100584000D02*
X118872000Y-100584000D01*
X118872000Y-100584000D02*
X113792000Y-105664000D01*
X113792000Y-105664000D02*
X101092000Y-105664000D01*
X101092000Y-105664000D02*
X99060000Y-103632000D01*
X99060000Y-103632000D02*
X99060000Y-57404000D01*
X96266000Y-54610000D02*
X87630000Y-54610000D01*
X99060000Y-57404000D02*
X96266000Y-54610000D01*
%TO.N,Net-(D2-Pad2)*%
X94742000Y-64770000D02*
X87630000Y-64770000D01*
X97028000Y-67056000D02*
X94742000Y-64770000D01*
X100076000Y-107696000D02*
X97282000Y-104902000D01*
X116332000Y-107696000D02*
X100076000Y-107696000D01*
X97282000Y-104902000D02*
X97028000Y-67056000D01*
X120904000Y-103124000D02*
X116332000Y-107696000D01*
X127508000Y-103124000D02*
X120904000Y-103124000D01*
%TO.N,Net-(D3-Pad2)*%
X127508000Y-105664000D02*
X122428000Y-105664000D01*
X122428000Y-105664000D02*
X118364000Y-109728000D01*
X118364000Y-109728000D02*
X99060000Y-109728000D01*
X99060000Y-109728000D02*
X95504000Y-106172000D01*
X95504000Y-106172000D02*
X95504000Y-77216000D01*
X93218000Y-74930000D02*
X87630000Y-74930000D01*
X95504000Y-77216000D02*
X93218000Y-74930000D01*
%TO.N,Net-(D4-Pad2)*%
X127508000Y-108204000D02*
X122936000Y-108204000D01*
X122936000Y-108204000D02*
X119380000Y-111760000D01*
X119380000Y-111760000D02*
X98044000Y-111760000D01*
X98044000Y-111760000D02*
X93472000Y-107188000D01*
X93472000Y-107188000D02*
X93472000Y-86868000D01*
X91694000Y-85090000D02*
X87630000Y-85090000D01*
X93472000Y-86868000D02*
X91694000Y-85090000D01*
%TO.N,Net-(D5-Pad2)*%
X127508000Y-110744000D02*
X122936000Y-110744000D01*
X122936000Y-110744000D02*
X119888000Y-113792000D01*
X119888000Y-113792000D02*
X97536000Y-113792000D01*
X97536000Y-113792000D02*
X91948000Y-108204000D01*
X91948000Y-99568000D02*
X87630000Y-95250000D01*
X91948000Y-108204000D02*
X91948000Y-99568000D01*
%TO.N,Net-(D6-Pad2)*%
X87630000Y-106682792D02*
X87630000Y-105410000D01*
X120396000Y-115316000D02*
X97028000Y-115316000D01*
X122936000Y-113284000D02*
X120396000Y-115316000D01*
X97028000Y-115316000D02*
X87630000Y-106682792D01*
X127508000Y-113284000D02*
X122936000Y-113284000D01*
%TO.N,Net-(D7-Pad2)*%
X89230001Y-117170001D02*
X87630000Y-115570000D01*
X122097999Y-117170001D02*
X89230001Y-117170001D01*
X123444000Y-115824000D02*
X122097999Y-117170001D01*
X127508000Y-115824000D02*
X123444000Y-115824000D01*
%TO.N,Net-(D8-Pad2)*%
X120142000Y-125730000D02*
X87630000Y-125730000D01*
X127508000Y-118364000D02*
X120142000Y-125730000D01*
D20*
%TO.N,Net-(J2-Pad1)*%
X109982000Y-51054000D02*
X113284000Y-47752000D01*
X124968000Y-47752000D02*
X126492000Y-46228000D01*
X113284000Y-47752000D02*
X124968000Y-47752000D01*
%TO.N,Net-(J2-Pad2)*%
X109982000Y-53594000D02*
X113792000Y-49784000D01*
X125476000Y-49784000D02*
X126492000Y-48768000D01*
X113792000Y-49784000D02*
X125476000Y-49784000D01*
%TO.N,Net-(J2-Pad3)*%
X109982000Y-56134000D02*
X114300000Y-51816000D01*
X125984000Y-51816000D02*
X126492000Y-51308000D01*
X114300000Y-51816000D02*
X125984000Y-51816000D01*
%TO.N,Net-(J2-Pad4)*%
X109982000Y-58674000D02*
X114808000Y-53848000D01*
X114808000Y-53848000D02*
X126492000Y-53848000D01*
%TO.N,Net-(J2-Pad5)*%
X109982000Y-61214000D02*
X114808000Y-56388000D01*
X114808000Y-56388000D02*
X126492000Y-56388000D01*
%TO.N,Net-(J2-Pad6)*%
X109982000Y-63754000D02*
X114808000Y-58928000D01*
X114808000Y-58928000D02*
X126492000Y-58928000D01*
%TO.N,Net-(J2-Pad7)*%
X109982000Y-66294000D02*
X114808000Y-61468000D01*
X114808000Y-61468000D02*
X126492000Y-61468000D01*
%TO.N,Net-(J2-Pad8)*%
X109982000Y-68834000D02*
X114808000Y-64008000D01*
X114808000Y-64008000D02*
X126492000Y-64008000D01*
%TO.N,Net-(J2-Pad9)*%
X109982000Y-82804000D02*
X109982000Y-74930000D01*
X118364000Y-66548000D02*
X126492000Y-66548000D01*
X109982000Y-74930000D02*
X118364000Y-66548000D01*
%TO.N,Net-(J2-Pad10)*%
X109982000Y-85344000D02*
X112268000Y-83058000D01*
X112268000Y-83058000D02*
X112268000Y-75184000D01*
X118364000Y-69088000D02*
X126492000Y-69088000D01*
X112268000Y-75184000D02*
X118364000Y-69088000D01*
%TO.N,Net-(J2-Pad11)*%
X109982000Y-87884000D02*
X113284000Y-84582000D01*
X113284000Y-84582000D02*
X113284000Y-77216000D01*
X118872000Y-71628000D02*
X126492000Y-71628000D01*
X113284000Y-77216000D02*
X118872000Y-71628000D01*
%TO.N,Net-(J2-Pad12)*%
X109982000Y-90424000D02*
X114554000Y-85852000D01*
X114554000Y-85852000D02*
X114554000Y-77470000D01*
X114554000Y-77470000D02*
X117856000Y-74168000D01*
X117856000Y-74168000D02*
X126492000Y-74168000D01*
%TO.N,Net-(J2-Pad13)*%
X109982000Y-92964000D02*
X115570000Y-87376000D01*
X115570000Y-87376000D02*
X115570000Y-78486000D01*
X117348000Y-76708000D02*
X126492000Y-76708000D01*
X115570000Y-78486000D02*
X117348000Y-76708000D01*
%TO.N,Net-(J2-Pad14)*%
X116713000Y-88773000D02*
X116713000Y-80899000D01*
X109982000Y-95504000D02*
X116713000Y-88773000D01*
X116713000Y-88773000D02*
X116840000Y-88646000D01*
X118364000Y-79248000D02*
X126492000Y-79248000D01*
X116713000Y-80899000D02*
X118364000Y-79248000D01*
%TO.N,Net-(J2-Pad15)*%
X109982000Y-98044000D02*
X118110000Y-89916000D01*
X118110000Y-89916000D02*
X118110000Y-84074000D01*
X120396000Y-81788000D02*
X126492000Y-81788000D01*
X118110000Y-84074000D02*
X120396000Y-81788000D01*
%TO.N,Net-(J2-Pad16)*%
X109982000Y-100584000D02*
X119888000Y-90678000D01*
X119888000Y-90678000D02*
X119888000Y-86868000D01*
X122428000Y-84328000D02*
X126492000Y-84328000D01*
X119888000Y-86868000D02*
X122428000Y-84328000D01*
%TD*%
D22*
%TO.N,GND*%
X149708001Y-131420000D02*
X81432000Y-131420000D01*
X81432000Y-53710000D01*
X83551928Y-53710000D01*
X83551928Y-55510000D01*
X83564188Y-55634482D01*
X83600498Y-55754180D01*
X83659463Y-55864494D01*
X83738815Y-55961185D01*
X83835506Y-56040537D01*
X83945820Y-56099502D01*
X84065518Y-56135812D01*
X84190000Y-56148072D01*
X85990000Y-56148072D01*
X86114482Y-56135812D01*
X86234180Y-56099502D01*
X86344494Y-56040537D01*
X86441185Y-55961185D01*
X86520537Y-55864494D01*
X86579502Y-55754180D01*
X86585056Y-55735873D01*
X86651495Y-55802312D01*
X86902905Y-55970299D01*
X87182257Y-56086011D01*
X87478816Y-56145000D01*
X87781184Y-56145000D01*
X88077743Y-56086011D01*
X88357095Y-55970299D01*
X88608505Y-55802312D01*
X88665817Y-55745000D01*
X95795869Y-55745000D01*
X97925001Y-57874134D01*
X97925001Y-66359525D01*
X97902957Y-66333029D01*
X97869988Y-66292856D01*
X97867288Y-66290156D01*
X97829018Y-66244157D01*
X97788443Y-66211311D01*
X95583996Y-64006865D01*
X95548449Y-63963551D01*
X95375623Y-63821716D01*
X95178447Y-63716324D01*
X94964499Y-63651423D01*
X94797752Y-63635000D01*
X94797751Y-63635000D01*
X94742000Y-63629509D01*
X94686249Y-63635000D01*
X88665817Y-63635000D01*
X88608505Y-63577688D01*
X88357095Y-63409701D01*
X88077743Y-63293989D01*
X87781184Y-63235000D01*
X87478816Y-63235000D01*
X87182257Y-63293989D01*
X86902905Y-63409701D01*
X86651495Y-63577688D01*
X86585056Y-63644127D01*
X86579502Y-63625820D01*
X86520537Y-63515506D01*
X86441185Y-63418815D01*
X86344494Y-63339463D01*
X86234180Y-63280498D01*
X86114482Y-63244188D01*
X85990000Y-63231928D01*
X84190000Y-63231928D01*
X84065518Y-63244188D01*
X83945820Y-63280498D01*
X83835506Y-63339463D01*
X83738815Y-63418815D01*
X83659463Y-63515506D01*
X83600498Y-63625820D01*
X83564188Y-63745518D01*
X83551928Y-63870000D01*
X83551928Y-65670000D01*
X83564188Y-65794482D01*
X83600498Y-65914180D01*
X83659463Y-66024494D01*
X83738815Y-66121185D01*
X83835506Y-66200537D01*
X83945820Y-66259502D01*
X84065518Y-66295812D01*
X84190000Y-66308072D01*
X85990000Y-66308072D01*
X86114482Y-66295812D01*
X86234180Y-66259502D01*
X86344494Y-66200537D01*
X86441185Y-66121185D01*
X86520537Y-66024494D01*
X86579502Y-65914180D01*
X86585056Y-65895873D01*
X86651495Y-65962312D01*
X86902905Y-66130299D01*
X87182257Y-66246011D01*
X87478816Y-66305000D01*
X87781184Y-66305000D01*
X88077743Y-66246011D01*
X88357095Y-66130299D01*
X88608505Y-65962312D01*
X88665817Y-65905000D01*
X94271869Y-65905000D01*
X95896151Y-67529283D01*
X95953406Y-76060275D01*
X94059996Y-74166865D01*
X94024449Y-74123551D01*
X93851623Y-73981716D01*
X93654447Y-73876324D01*
X93440499Y-73811423D01*
X93273752Y-73795000D01*
X93273751Y-73795000D01*
X93218000Y-73789509D01*
X93162249Y-73795000D01*
X88665817Y-73795000D01*
X88608505Y-73737688D01*
X88357095Y-73569701D01*
X88077743Y-73453989D01*
X87781184Y-73395000D01*
X87478816Y-73395000D01*
X87182257Y-73453989D01*
X86902905Y-73569701D01*
X86651495Y-73737688D01*
X86585056Y-73804127D01*
X86579502Y-73785820D01*
X86520537Y-73675506D01*
X86441185Y-73578815D01*
X86344494Y-73499463D01*
X86234180Y-73440498D01*
X86114482Y-73404188D01*
X85990000Y-73391928D01*
X84190000Y-73391928D01*
X84065518Y-73404188D01*
X83945820Y-73440498D01*
X83835506Y-73499463D01*
X83738815Y-73578815D01*
X83659463Y-73675506D01*
X83600498Y-73785820D01*
X83564188Y-73905518D01*
X83551928Y-74030000D01*
X83551928Y-75830000D01*
X83564188Y-75954482D01*
X83600498Y-76074180D01*
X83659463Y-76184494D01*
X83738815Y-76281185D01*
X83835506Y-76360537D01*
X83945820Y-76419502D01*
X84065518Y-76455812D01*
X84190000Y-76468072D01*
X85990000Y-76468072D01*
X86114482Y-76455812D01*
X86234180Y-76419502D01*
X86344494Y-76360537D01*
X86441185Y-76281185D01*
X86520537Y-76184494D01*
X86579502Y-76074180D01*
X86585056Y-76055873D01*
X86651495Y-76122312D01*
X86902905Y-76290299D01*
X87182257Y-76406011D01*
X87478816Y-76465000D01*
X87781184Y-76465000D01*
X88077743Y-76406011D01*
X88357095Y-76290299D01*
X88608505Y-76122312D01*
X88665817Y-76065000D01*
X92747869Y-76065000D01*
X94369001Y-77686133D01*
X94369001Y-86171888D01*
X94313989Y-86104856D01*
X94313987Y-86104854D01*
X94278449Y-86061551D01*
X94235146Y-86026013D01*
X92535995Y-84326864D01*
X92500449Y-84283551D01*
X92327623Y-84141716D01*
X92130447Y-84036324D01*
X91916499Y-83971423D01*
X91749752Y-83955000D01*
X91749751Y-83955000D01*
X91694000Y-83949509D01*
X91638249Y-83955000D01*
X88665817Y-83955000D01*
X88608505Y-83897688D01*
X88357095Y-83729701D01*
X88077743Y-83613989D01*
X87781184Y-83555000D01*
X87478816Y-83555000D01*
X87182257Y-83613989D01*
X86902905Y-83729701D01*
X86651495Y-83897688D01*
X86585056Y-83964127D01*
X86579502Y-83945820D01*
X86520537Y-83835506D01*
X86441185Y-83738815D01*
X86344494Y-83659463D01*
X86234180Y-83600498D01*
X86114482Y-83564188D01*
X85990000Y-83551928D01*
X84190000Y-83551928D01*
X84065518Y-83564188D01*
X83945820Y-83600498D01*
X83835506Y-83659463D01*
X83738815Y-83738815D01*
X83659463Y-83835506D01*
X83600498Y-83945820D01*
X83564188Y-84065518D01*
X83551928Y-84190000D01*
X83551928Y-85990000D01*
X83564188Y-86114482D01*
X83600498Y-86234180D01*
X83659463Y-86344494D01*
X83738815Y-86441185D01*
X83835506Y-86520537D01*
X83945820Y-86579502D01*
X84065518Y-86615812D01*
X84190000Y-86628072D01*
X85990000Y-86628072D01*
X86114482Y-86615812D01*
X86234180Y-86579502D01*
X86344494Y-86520537D01*
X86441185Y-86441185D01*
X86520537Y-86344494D01*
X86579502Y-86234180D01*
X86585056Y-86215873D01*
X86651495Y-86282312D01*
X86902905Y-86450299D01*
X87182257Y-86566011D01*
X87478816Y-86625000D01*
X87781184Y-86625000D01*
X88077743Y-86566011D01*
X88357095Y-86450299D01*
X88608505Y-86282312D01*
X88665817Y-86225000D01*
X91223869Y-86225000D01*
X92337001Y-87338134D01*
X92337000Y-98351869D01*
X89165000Y-95179869D01*
X89165000Y-95098816D01*
X89106011Y-94802257D01*
X88990299Y-94522905D01*
X88822312Y-94271495D01*
X88608505Y-94057688D01*
X88357095Y-93889701D01*
X88077743Y-93773989D01*
X87781184Y-93715000D01*
X87478816Y-93715000D01*
X87182257Y-93773989D01*
X86902905Y-93889701D01*
X86651495Y-94057688D01*
X86585056Y-94124127D01*
X86579502Y-94105820D01*
X86520537Y-93995506D01*
X86441185Y-93898815D01*
X86344494Y-93819463D01*
X86234180Y-93760498D01*
X86114482Y-93724188D01*
X85990000Y-93711928D01*
X84190000Y-93711928D01*
X84065518Y-93724188D01*
X83945820Y-93760498D01*
X83835506Y-93819463D01*
X83738815Y-93898815D01*
X83659463Y-93995506D01*
X83600498Y-94105820D01*
X83564188Y-94225518D01*
X83551928Y-94350000D01*
X83551928Y-96150000D01*
X83564188Y-96274482D01*
X83600498Y-96394180D01*
X83659463Y-96504494D01*
X83738815Y-96601185D01*
X83835506Y-96680537D01*
X83945820Y-96739502D01*
X84065518Y-96775812D01*
X84190000Y-96788072D01*
X85990000Y-96788072D01*
X86114482Y-96775812D01*
X86234180Y-96739502D01*
X86344494Y-96680537D01*
X86441185Y-96601185D01*
X86520537Y-96504494D01*
X86579502Y-96394180D01*
X86585056Y-96375873D01*
X86651495Y-96442312D01*
X86902905Y-96610299D01*
X87182257Y-96726011D01*
X87478816Y-96785000D01*
X87559869Y-96785000D01*
X90813001Y-100038133D01*
X90813000Y-108065560D01*
X88885095Y-106294544D01*
X88990299Y-106137095D01*
X89106011Y-105857743D01*
X89165000Y-105561184D01*
X89165000Y-105258816D01*
X89106011Y-104962257D01*
X88990299Y-104682905D01*
X88822312Y-104431495D01*
X88608505Y-104217688D01*
X88357095Y-104049701D01*
X88077743Y-103933989D01*
X87781184Y-103875000D01*
X87478816Y-103875000D01*
X87182257Y-103933989D01*
X86902905Y-104049701D01*
X86651495Y-104217688D01*
X86585056Y-104284127D01*
X86579502Y-104265820D01*
X86520537Y-104155506D01*
X86441185Y-104058815D01*
X86344494Y-103979463D01*
X86234180Y-103920498D01*
X86114482Y-103884188D01*
X85990000Y-103871928D01*
X84190000Y-103871928D01*
X84065518Y-103884188D01*
X83945820Y-103920498D01*
X83835506Y-103979463D01*
X83738815Y-104058815D01*
X83659463Y-104155506D01*
X83600498Y-104265820D01*
X83564188Y-104385518D01*
X83551928Y-104510000D01*
X83551928Y-106310000D01*
X83564188Y-106434482D01*
X83600498Y-106554180D01*
X83659463Y-106664494D01*
X83738815Y-106761185D01*
X83835506Y-106840537D01*
X83945820Y-106899502D01*
X84065518Y-106935812D01*
X84190000Y-106948072D01*
X85990000Y-106948072D01*
X86114482Y-106935812D01*
X86234180Y-106899502D01*
X86344494Y-106840537D01*
X86441185Y-106761185D01*
X86492336Y-106698858D01*
X86490534Y-106731122D01*
X86502823Y-106817974D01*
X86511423Y-106905290D01*
X86518461Y-106928491D01*
X86521857Y-106952492D01*
X86550857Y-107035286D01*
X86576324Y-107119238D01*
X86587752Y-107140619D01*
X86595766Y-107163498D01*
X86640356Y-107239035D01*
X86681716Y-107316415D01*
X86697098Y-107335158D01*
X86709419Y-107356030D01*
X86767881Y-107421407D01*
X86823551Y-107489241D01*
X86885494Y-107540077D01*
X96132959Y-116035001D01*
X89700133Y-116035001D01*
X89165000Y-115499869D01*
X89165000Y-115418816D01*
X89106011Y-115122257D01*
X88990299Y-114842905D01*
X88822312Y-114591495D01*
X88608505Y-114377688D01*
X88357095Y-114209701D01*
X88077743Y-114093989D01*
X87781184Y-114035000D01*
X87478816Y-114035000D01*
X87182257Y-114093989D01*
X86902905Y-114209701D01*
X86651495Y-114377688D01*
X86585056Y-114444127D01*
X86579502Y-114425820D01*
X86520537Y-114315506D01*
X86441185Y-114218815D01*
X86344494Y-114139463D01*
X86234180Y-114080498D01*
X86114482Y-114044188D01*
X85990000Y-114031928D01*
X84190000Y-114031928D01*
X84065518Y-114044188D01*
X83945820Y-114080498D01*
X83835506Y-114139463D01*
X83738815Y-114218815D01*
X83659463Y-114315506D01*
X83600498Y-114425820D01*
X83564188Y-114545518D01*
X83551928Y-114670000D01*
X83551928Y-116470000D01*
X83564188Y-116594482D01*
X83600498Y-116714180D01*
X83659463Y-116824494D01*
X83738815Y-116921185D01*
X83835506Y-117000537D01*
X83945820Y-117059502D01*
X84065518Y-117095812D01*
X84190000Y-117108072D01*
X85990000Y-117108072D01*
X86114482Y-117095812D01*
X86234180Y-117059502D01*
X86344494Y-117000537D01*
X86441185Y-116921185D01*
X86520537Y-116824494D01*
X86579502Y-116714180D01*
X86585056Y-116695873D01*
X86651495Y-116762312D01*
X86902905Y-116930299D01*
X87182257Y-117046011D01*
X87478816Y-117105000D01*
X87559869Y-117105000D01*
X88388010Y-117933141D01*
X88423552Y-117976450D01*
X88596378Y-118118285D01*
X88793554Y-118223677D01*
X88957706Y-118273472D01*
X89007501Y-118288578D01*
X89230000Y-118310492D01*
X89285752Y-118305001D01*
X122042248Y-118305001D01*
X122097999Y-118310492D01*
X122153750Y-118305001D01*
X122153751Y-118305001D01*
X122320498Y-118288578D01*
X122534446Y-118223677D01*
X122731622Y-118118285D01*
X122904448Y-117976450D01*
X122939995Y-117933136D01*
X123914132Y-116959000D01*
X126542893Y-116959000D01*
X126561368Y-116977475D01*
X126735760Y-117094000D01*
X126561368Y-117210525D01*
X126354525Y-117417368D01*
X126192010Y-117660589D01*
X126080068Y-117930842D01*
X126023000Y-118217740D01*
X126023000Y-118243868D01*
X119671869Y-124595000D01*
X88665817Y-124595000D01*
X88608505Y-124537688D01*
X88357095Y-124369701D01*
X88077743Y-124253989D01*
X87781184Y-124195000D01*
X87478816Y-124195000D01*
X87182257Y-124253989D01*
X86902905Y-124369701D01*
X86651495Y-124537688D01*
X86585056Y-124604127D01*
X86579502Y-124585820D01*
X86520537Y-124475506D01*
X86441185Y-124378815D01*
X86344494Y-124299463D01*
X86234180Y-124240498D01*
X86114482Y-124204188D01*
X85990000Y-124191928D01*
X84190000Y-124191928D01*
X84065518Y-124204188D01*
X83945820Y-124240498D01*
X83835506Y-124299463D01*
X83738815Y-124378815D01*
X83659463Y-124475506D01*
X83600498Y-124585820D01*
X83564188Y-124705518D01*
X83551928Y-124830000D01*
X83551928Y-126630000D01*
X83564188Y-126754482D01*
X83600498Y-126874180D01*
X83659463Y-126984494D01*
X83738815Y-127081185D01*
X83835506Y-127160537D01*
X83945820Y-127219502D01*
X84065518Y-127255812D01*
X84190000Y-127268072D01*
X85990000Y-127268072D01*
X86114482Y-127255812D01*
X86234180Y-127219502D01*
X86344494Y-127160537D01*
X86441185Y-127081185D01*
X86520537Y-126984494D01*
X86579502Y-126874180D01*
X86585056Y-126855873D01*
X86651495Y-126922312D01*
X86902905Y-127090299D01*
X87182257Y-127206011D01*
X87478816Y-127265000D01*
X87781184Y-127265000D01*
X88077743Y-127206011D01*
X88357095Y-127090299D01*
X88608505Y-126922312D01*
X88665817Y-126865000D01*
X120086249Y-126865000D01*
X120142000Y-126870491D01*
X120197751Y-126865000D01*
X120197752Y-126865000D01*
X120364499Y-126848577D01*
X120578447Y-126783676D01*
X120775623Y-126678284D01*
X120948449Y-126536449D01*
X120983996Y-126493135D01*
X121841862Y-125635269D01*
X136418336Y-125635269D01*
X136477797Y-125869037D01*
X136716242Y-125979934D01*
X136971740Y-126042183D01*
X137234473Y-126053390D01*
X137494344Y-126013125D01*
X137741366Y-125922935D01*
X137842203Y-125869037D01*
X137901664Y-125635269D01*
X137160000Y-124893605D01*
X136418336Y-125635269D01*
X121841862Y-125635269D01*
X122688658Y-124788473D01*
X135820610Y-124788473D01*
X135860875Y-125048344D01*
X135951065Y-125295366D01*
X136004963Y-125396203D01*
X136238731Y-125455664D01*
X136980395Y-124714000D01*
X137339605Y-124714000D01*
X138081269Y-125455664D01*
X138315037Y-125396203D01*
X138425934Y-125157758D01*
X138488183Y-124902260D01*
X138499390Y-124639527D01*
X138490557Y-124582514D01*
X143445000Y-124582514D01*
X143445000Y-124845486D01*
X143496304Y-125103405D01*
X143596939Y-125346359D01*
X143743038Y-125565013D01*
X143928987Y-125750962D01*
X144147641Y-125897061D01*
X144390595Y-125997696D01*
X144648514Y-126049000D01*
X144911486Y-126049000D01*
X145169405Y-125997696D01*
X145412359Y-125897061D01*
X145631013Y-125750962D01*
X145816962Y-125565013D01*
X145963061Y-125346359D01*
X146063696Y-125103405D01*
X146115000Y-124845486D01*
X146115000Y-124582514D01*
X146063696Y-124324595D01*
X145963061Y-124081641D01*
X145816962Y-123862987D01*
X145631013Y-123677038D01*
X145412359Y-123530939D01*
X145169405Y-123430304D01*
X144911486Y-123379000D01*
X144648514Y-123379000D01*
X144390595Y-123430304D01*
X144147641Y-123530939D01*
X143928987Y-123677038D01*
X143743038Y-123862987D01*
X143596939Y-124081641D01*
X143496304Y-124324595D01*
X143445000Y-124582514D01*
X138490557Y-124582514D01*
X138459125Y-124379656D01*
X138368935Y-124132634D01*
X138315037Y-124031797D01*
X138081269Y-123972336D01*
X137339605Y-124714000D01*
X136980395Y-124714000D01*
X136238731Y-123972336D01*
X136004963Y-124031797D01*
X135894066Y-124270242D01*
X135831817Y-124525740D01*
X135820610Y-124788473D01*
X122688658Y-124788473D01*
X123684400Y-123792731D01*
X136418336Y-123792731D01*
X137160000Y-124534395D01*
X137901664Y-123792731D01*
X137842203Y-123558963D01*
X137603758Y-123448066D01*
X137348260Y-123385817D01*
X137085527Y-123374610D01*
X136825656Y-123414875D01*
X136578634Y-123505065D01*
X136477797Y-123558963D01*
X136418336Y-123792731D01*
X123684400Y-123792731D01*
X126159862Y-121317269D01*
X136418336Y-121317269D01*
X136477797Y-121551037D01*
X136716242Y-121661934D01*
X136971740Y-121724183D01*
X137234473Y-121735390D01*
X137494344Y-121695125D01*
X137741366Y-121604935D01*
X137842203Y-121551037D01*
X137901664Y-121317269D01*
X137160000Y-120575605D01*
X136418336Y-121317269D01*
X126159862Y-121317269D01*
X127006658Y-120470473D01*
X135820610Y-120470473D01*
X135860875Y-120730344D01*
X135951065Y-120977366D01*
X136004963Y-121078203D01*
X136238731Y-121137664D01*
X136980395Y-120396000D01*
X137339605Y-120396000D01*
X138081269Y-121137664D01*
X138315037Y-121078203D01*
X138425934Y-120839758D01*
X138488183Y-120584260D01*
X138499390Y-120321527D01*
X138490557Y-120264514D01*
X143445000Y-120264514D01*
X143445000Y-120527486D01*
X143496304Y-120785405D01*
X143596939Y-121028359D01*
X143743038Y-121247013D01*
X143928987Y-121432962D01*
X144147641Y-121579061D01*
X144390595Y-121679696D01*
X144648514Y-121731000D01*
X144911486Y-121731000D01*
X145169405Y-121679696D01*
X145412359Y-121579061D01*
X145631013Y-121432962D01*
X145816962Y-121247013D01*
X145963061Y-121028359D01*
X146063696Y-120785405D01*
X146115000Y-120527486D01*
X146115000Y-120264514D01*
X146063696Y-120006595D01*
X145963061Y-119763641D01*
X145816962Y-119544987D01*
X145631013Y-119359038D01*
X145412359Y-119212939D01*
X145169405Y-119112304D01*
X144911486Y-119061000D01*
X144648514Y-119061000D01*
X144390595Y-119112304D01*
X144147641Y-119212939D01*
X143928987Y-119359038D01*
X143743038Y-119544987D01*
X143596939Y-119763641D01*
X143496304Y-120006595D01*
X143445000Y-120264514D01*
X138490557Y-120264514D01*
X138459125Y-120061656D01*
X138368935Y-119814634D01*
X138315037Y-119713797D01*
X138081269Y-119654336D01*
X137339605Y-120396000D01*
X136980395Y-120396000D01*
X136238731Y-119654336D01*
X136004963Y-119713797D01*
X135894066Y-119952242D01*
X135831817Y-120207740D01*
X135820610Y-120470473D01*
X127006658Y-120470473D01*
X127628132Y-119849000D01*
X127654260Y-119849000D01*
X127941158Y-119791932D01*
X128211411Y-119679990D01*
X128454632Y-119517475D01*
X128497376Y-119474731D01*
X136418336Y-119474731D01*
X137160000Y-120216395D01*
X137901664Y-119474731D01*
X137842203Y-119240963D01*
X137603758Y-119130066D01*
X137348260Y-119067817D01*
X137085527Y-119056610D01*
X136825656Y-119096875D01*
X136578634Y-119187065D01*
X136477797Y-119240963D01*
X136418336Y-119474731D01*
X128497376Y-119474731D01*
X128661475Y-119310632D01*
X128823990Y-119067411D01*
X128935932Y-118797158D01*
X128993000Y-118510260D01*
X128993000Y-118217740D01*
X128935932Y-117930842D01*
X128823990Y-117660589D01*
X128661475Y-117417368D01*
X128497376Y-117253269D01*
X136418336Y-117253269D01*
X136477797Y-117487037D01*
X136716242Y-117597934D01*
X136971740Y-117660183D01*
X137234473Y-117671390D01*
X137494344Y-117631125D01*
X137741366Y-117540935D01*
X137842203Y-117487037D01*
X137901664Y-117253269D01*
X137160000Y-116511605D01*
X136418336Y-117253269D01*
X128497376Y-117253269D01*
X128454632Y-117210525D01*
X128280240Y-117094000D01*
X128454632Y-116977475D01*
X128661475Y-116770632D01*
X128823990Y-116527411D01*
X128874083Y-116406473D01*
X135820610Y-116406473D01*
X135860875Y-116666344D01*
X135951065Y-116913366D01*
X136004963Y-117014203D01*
X136238731Y-117073664D01*
X136980395Y-116332000D01*
X137339605Y-116332000D01*
X138081269Y-117073664D01*
X138315037Y-117014203D01*
X138425934Y-116775758D01*
X138488183Y-116520260D01*
X138499390Y-116257527D01*
X138490557Y-116200514D01*
X143445000Y-116200514D01*
X143445000Y-116463486D01*
X143496304Y-116721405D01*
X143596939Y-116964359D01*
X143743038Y-117183013D01*
X143928987Y-117368962D01*
X144147641Y-117515061D01*
X144390595Y-117615696D01*
X144648514Y-117667000D01*
X144911486Y-117667000D01*
X145169405Y-117615696D01*
X145412359Y-117515061D01*
X145631013Y-117368962D01*
X145816962Y-117183013D01*
X145963061Y-116964359D01*
X146063696Y-116721405D01*
X146115000Y-116463486D01*
X146115000Y-116200514D01*
X146063696Y-115942595D01*
X145963061Y-115699641D01*
X145816962Y-115480987D01*
X145631013Y-115295038D01*
X145412359Y-115148939D01*
X145169405Y-115048304D01*
X144911486Y-114997000D01*
X144648514Y-114997000D01*
X144390595Y-115048304D01*
X144147641Y-115148939D01*
X143928987Y-115295038D01*
X143743038Y-115480987D01*
X143596939Y-115699641D01*
X143496304Y-115942595D01*
X143445000Y-116200514D01*
X138490557Y-116200514D01*
X138459125Y-115997656D01*
X138368935Y-115750634D01*
X138315037Y-115649797D01*
X138081269Y-115590336D01*
X137339605Y-116332000D01*
X136980395Y-116332000D01*
X136238731Y-115590336D01*
X136004963Y-115649797D01*
X135894066Y-115888242D01*
X135831817Y-116143740D01*
X135820610Y-116406473D01*
X128874083Y-116406473D01*
X128935932Y-116257158D01*
X128993000Y-115970260D01*
X128993000Y-115677740D01*
X128939889Y-115410731D01*
X136418336Y-115410731D01*
X137160000Y-116152395D01*
X137901664Y-115410731D01*
X137842203Y-115176963D01*
X137603758Y-115066066D01*
X137348260Y-115003817D01*
X137085527Y-114992610D01*
X136825656Y-115032875D01*
X136578634Y-115123065D01*
X136477797Y-115176963D01*
X136418336Y-115410731D01*
X128939889Y-115410731D01*
X128935932Y-115390842D01*
X128823990Y-115120589D01*
X128661475Y-114877368D01*
X128454632Y-114670525D01*
X128280240Y-114554000D01*
X128454632Y-114437475D01*
X128661475Y-114230632D01*
X128823990Y-113987411D01*
X128935932Y-113717158D01*
X128993000Y-113430260D01*
X128993000Y-113189269D01*
X136418336Y-113189269D01*
X136477797Y-113423037D01*
X136716242Y-113533934D01*
X136971740Y-113596183D01*
X137234473Y-113607390D01*
X137494344Y-113567125D01*
X137741366Y-113476935D01*
X137842203Y-113423037D01*
X137901664Y-113189269D01*
X137160000Y-112447605D01*
X136418336Y-113189269D01*
X128993000Y-113189269D01*
X128993000Y-113137740D01*
X128935932Y-112850842D01*
X128823990Y-112580589D01*
X128664887Y-112342473D01*
X135820610Y-112342473D01*
X135860875Y-112602344D01*
X135951065Y-112849366D01*
X136004963Y-112950203D01*
X136238731Y-113009664D01*
X136980395Y-112268000D01*
X137339605Y-112268000D01*
X138081269Y-113009664D01*
X138315037Y-112950203D01*
X138425934Y-112711758D01*
X138488183Y-112456260D01*
X138499390Y-112193527D01*
X138490557Y-112136514D01*
X143445000Y-112136514D01*
X143445000Y-112399486D01*
X143496304Y-112657405D01*
X143596939Y-112900359D01*
X143743038Y-113119013D01*
X143928987Y-113304962D01*
X144147641Y-113451061D01*
X144390595Y-113551696D01*
X144648514Y-113603000D01*
X144911486Y-113603000D01*
X145169405Y-113551696D01*
X145412359Y-113451061D01*
X145631013Y-113304962D01*
X145816962Y-113119013D01*
X145963061Y-112900359D01*
X146063696Y-112657405D01*
X146115000Y-112399486D01*
X146115000Y-112136514D01*
X146063696Y-111878595D01*
X145963061Y-111635641D01*
X145816962Y-111416987D01*
X145631013Y-111231038D01*
X145412359Y-111084939D01*
X145169405Y-110984304D01*
X144911486Y-110933000D01*
X144648514Y-110933000D01*
X144390595Y-110984304D01*
X144147641Y-111084939D01*
X143928987Y-111231038D01*
X143743038Y-111416987D01*
X143596939Y-111635641D01*
X143496304Y-111878595D01*
X143445000Y-112136514D01*
X138490557Y-112136514D01*
X138459125Y-111933656D01*
X138368935Y-111686634D01*
X138315037Y-111585797D01*
X138081269Y-111526336D01*
X137339605Y-112268000D01*
X136980395Y-112268000D01*
X136238731Y-111526336D01*
X136004963Y-111585797D01*
X135894066Y-111824242D01*
X135831817Y-112079740D01*
X135820610Y-112342473D01*
X128664887Y-112342473D01*
X128661475Y-112337368D01*
X128454632Y-112130525D01*
X128280240Y-112014000D01*
X128454632Y-111897475D01*
X128661475Y-111690632D01*
X128823990Y-111447411D01*
X128865692Y-111346731D01*
X136418336Y-111346731D01*
X137160000Y-112088395D01*
X137901664Y-111346731D01*
X137842203Y-111112963D01*
X137603758Y-111002066D01*
X137348260Y-110939817D01*
X137085527Y-110928610D01*
X136825656Y-110968875D01*
X136578634Y-111059065D01*
X136477797Y-111112963D01*
X136418336Y-111346731D01*
X128865692Y-111346731D01*
X128935932Y-111177158D01*
X128993000Y-110890260D01*
X128993000Y-110597740D01*
X128935932Y-110310842D01*
X128823990Y-110040589D01*
X128661475Y-109797368D01*
X128454632Y-109590525D01*
X128280240Y-109474000D01*
X128454632Y-109357475D01*
X128661475Y-109150632D01*
X128678422Y-109125269D01*
X136418336Y-109125269D01*
X136477797Y-109359037D01*
X136716242Y-109469934D01*
X136971740Y-109532183D01*
X137234473Y-109543390D01*
X137494344Y-109503125D01*
X137741366Y-109412935D01*
X137842203Y-109359037D01*
X137901664Y-109125269D01*
X137160000Y-108383605D01*
X136418336Y-109125269D01*
X128678422Y-109125269D01*
X128823990Y-108907411D01*
X128935932Y-108637158D01*
X128993000Y-108350260D01*
X128993000Y-108278473D01*
X135820610Y-108278473D01*
X135860875Y-108538344D01*
X135951065Y-108785366D01*
X136004963Y-108886203D01*
X136238731Y-108945664D01*
X136980395Y-108204000D01*
X137339605Y-108204000D01*
X138081269Y-108945664D01*
X138315037Y-108886203D01*
X138425934Y-108647758D01*
X138488183Y-108392260D01*
X138499390Y-108129527D01*
X138490557Y-108072514D01*
X143445000Y-108072514D01*
X143445000Y-108335486D01*
X143496304Y-108593405D01*
X143596939Y-108836359D01*
X143743038Y-109055013D01*
X143928987Y-109240962D01*
X144147641Y-109387061D01*
X144390595Y-109487696D01*
X144648514Y-109539000D01*
X144911486Y-109539000D01*
X145169405Y-109487696D01*
X145412359Y-109387061D01*
X145631013Y-109240962D01*
X145816962Y-109055013D01*
X145963061Y-108836359D01*
X146063696Y-108593405D01*
X146115000Y-108335486D01*
X146115000Y-108072514D01*
X146063696Y-107814595D01*
X145963061Y-107571641D01*
X145816962Y-107352987D01*
X145631013Y-107167038D01*
X145412359Y-107020939D01*
X145169405Y-106920304D01*
X144911486Y-106869000D01*
X144648514Y-106869000D01*
X144390595Y-106920304D01*
X144147641Y-107020939D01*
X143928987Y-107167038D01*
X143743038Y-107352987D01*
X143596939Y-107571641D01*
X143496304Y-107814595D01*
X143445000Y-108072514D01*
X138490557Y-108072514D01*
X138459125Y-107869656D01*
X138368935Y-107622634D01*
X138315037Y-107521797D01*
X138081269Y-107462336D01*
X137339605Y-108204000D01*
X136980395Y-108204000D01*
X136238731Y-107462336D01*
X136004963Y-107521797D01*
X135894066Y-107760242D01*
X135831817Y-108015740D01*
X135820610Y-108278473D01*
X128993000Y-108278473D01*
X128993000Y-108057740D01*
X128935932Y-107770842D01*
X128823990Y-107500589D01*
X128678423Y-107282731D01*
X136418336Y-107282731D01*
X137160000Y-108024395D01*
X137901664Y-107282731D01*
X137842203Y-107048963D01*
X137603758Y-106938066D01*
X137348260Y-106875817D01*
X137085527Y-106864610D01*
X136825656Y-106904875D01*
X136578634Y-106995065D01*
X136477797Y-107048963D01*
X136418336Y-107282731D01*
X128678423Y-107282731D01*
X128661475Y-107257368D01*
X128454632Y-107050525D01*
X128280240Y-106934000D01*
X128454632Y-106817475D01*
X128661475Y-106610632D01*
X128823990Y-106367411D01*
X128935932Y-106097158D01*
X128993000Y-105810260D01*
X128993000Y-105517740D01*
X128935932Y-105230842D01*
X128865693Y-105061269D01*
X136418336Y-105061269D01*
X136477797Y-105295037D01*
X136716242Y-105405934D01*
X136971740Y-105468183D01*
X137234473Y-105479390D01*
X137494344Y-105439125D01*
X137741366Y-105348935D01*
X137842203Y-105295037D01*
X137901664Y-105061269D01*
X137160000Y-104319605D01*
X136418336Y-105061269D01*
X128865693Y-105061269D01*
X128823990Y-104960589D01*
X128661475Y-104717368D01*
X128454632Y-104510525D01*
X128280240Y-104394000D01*
X128454632Y-104277475D01*
X128517634Y-104214473D01*
X135820610Y-104214473D01*
X135860875Y-104474344D01*
X135951065Y-104721366D01*
X136004963Y-104822203D01*
X136238731Y-104881664D01*
X136980395Y-104140000D01*
X137339605Y-104140000D01*
X138081269Y-104881664D01*
X138315037Y-104822203D01*
X138425934Y-104583758D01*
X138488183Y-104328260D01*
X138499390Y-104065527D01*
X138490557Y-104008514D01*
X143445000Y-104008514D01*
X143445000Y-104271486D01*
X143496304Y-104529405D01*
X143596939Y-104772359D01*
X143743038Y-104991013D01*
X143928987Y-105176962D01*
X144147641Y-105323061D01*
X144390595Y-105423696D01*
X144648514Y-105475000D01*
X144911486Y-105475000D01*
X145169405Y-105423696D01*
X145412359Y-105323061D01*
X145631013Y-105176962D01*
X145816962Y-104991013D01*
X145963061Y-104772359D01*
X146063696Y-104529405D01*
X146115000Y-104271486D01*
X146115000Y-104008514D01*
X146063696Y-103750595D01*
X145963061Y-103507641D01*
X145816962Y-103288987D01*
X145631013Y-103103038D01*
X145412359Y-102956939D01*
X145169405Y-102856304D01*
X144911486Y-102805000D01*
X144648514Y-102805000D01*
X144390595Y-102856304D01*
X144147641Y-102956939D01*
X143928987Y-103103038D01*
X143743038Y-103288987D01*
X143596939Y-103507641D01*
X143496304Y-103750595D01*
X143445000Y-104008514D01*
X138490557Y-104008514D01*
X138459125Y-103805656D01*
X138368935Y-103558634D01*
X138315037Y-103457797D01*
X138081269Y-103398336D01*
X137339605Y-104140000D01*
X136980395Y-104140000D01*
X136238731Y-103398336D01*
X136004963Y-103457797D01*
X135894066Y-103696242D01*
X135831817Y-103951740D01*
X135820610Y-104214473D01*
X128517634Y-104214473D01*
X128661475Y-104070632D01*
X128823990Y-103827411D01*
X128935932Y-103557158D01*
X128993000Y-103270260D01*
X128993000Y-103218731D01*
X136418336Y-103218731D01*
X137160000Y-103960395D01*
X137901664Y-103218731D01*
X137842203Y-102984963D01*
X137603758Y-102874066D01*
X137348260Y-102811817D01*
X137085527Y-102800610D01*
X136825656Y-102840875D01*
X136578634Y-102931065D01*
X136477797Y-102984963D01*
X136418336Y-103218731D01*
X128993000Y-103218731D01*
X128993000Y-102977740D01*
X128935932Y-102690842D01*
X128823990Y-102420589D01*
X128661475Y-102177368D01*
X128529620Y-102045513D01*
X128602180Y-102023502D01*
X128712494Y-101964537D01*
X128809185Y-101885185D01*
X128888537Y-101788494D01*
X128947502Y-101678180D01*
X128983812Y-101558482D01*
X128996072Y-101434000D01*
X128996072Y-100997269D01*
X136418336Y-100997269D01*
X136477797Y-101231037D01*
X136716242Y-101341934D01*
X136971740Y-101404183D01*
X137234473Y-101415390D01*
X137494344Y-101375125D01*
X137741366Y-101284935D01*
X137842203Y-101231037D01*
X137901664Y-100997269D01*
X137160000Y-100255605D01*
X136418336Y-100997269D01*
X128996072Y-100997269D01*
X128996072Y-100150473D01*
X135820610Y-100150473D01*
X135860875Y-100410344D01*
X135951065Y-100657366D01*
X136004963Y-100758203D01*
X136238731Y-100817664D01*
X136980395Y-100076000D01*
X137339605Y-100076000D01*
X138081269Y-100817664D01*
X138315037Y-100758203D01*
X138425934Y-100519758D01*
X138488183Y-100264260D01*
X138499390Y-100001527D01*
X138490557Y-99944514D01*
X143445000Y-99944514D01*
X143445000Y-100207486D01*
X143496304Y-100465405D01*
X143596939Y-100708359D01*
X143743038Y-100927013D01*
X143928987Y-101112962D01*
X144147641Y-101259061D01*
X144390595Y-101359696D01*
X144648514Y-101411000D01*
X144911486Y-101411000D01*
X145169405Y-101359696D01*
X145412359Y-101259061D01*
X145631013Y-101112962D01*
X145816962Y-100927013D01*
X145963061Y-100708359D01*
X146063696Y-100465405D01*
X146115000Y-100207486D01*
X146115000Y-99944514D01*
X146063696Y-99686595D01*
X145963061Y-99443641D01*
X145816962Y-99224987D01*
X145631013Y-99039038D01*
X145412359Y-98892939D01*
X145169405Y-98792304D01*
X144911486Y-98741000D01*
X144648514Y-98741000D01*
X144390595Y-98792304D01*
X144147641Y-98892939D01*
X143928987Y-99039038D01*
X143743038Y-99224987D01*
X143596939Y-99443641D01*
X143496304Y-99686595D01*
X143445000Y-99944514D01*
X138490557Y-99944514D01*
X138459125Y-99741656D01*
X138368935Y-99494634D01*
X138315037Y-99393797D01*
X138081269Y-99334336D01*
X137339605Y-100076000D01*
X136980395Y-100076000D01*
X136238731Y-99334336D01*
X136004963Y-99393797D01*
X135894066Y-99632242D01*
X135831817Y-99887740D01*
X135820610Y-100150473D01*
X128996072Y-100150473D01*
X128996072Y-99734000D01*
X128983812Y-99609518D01*
X128947502Y-99489820D01*
X128888537Y-99379506D01*
X128809185Y-99282815D01*
X128712494Y-99203463D01*
X128621325Y-99154731D01*
X136418336Y-99154731D01*
X137160000Y-99896395D01*
X137901664Y-99154731D01*
X137842203Y-98920963D01*
X137603758Y-98810066D01*
X137348260Y-98747817D01*
X137085527Y-98736610D01*
X136825656Y-98776875D01*
X136578634Y-98867065D01*
X136477797Y-98920963D01*
X136418336Y-99154731D01*
X128621325Y-99154731D01*
X128602180Y-99144498D01*
X128482482Y-99108188D01*
X128358000Y-99095928D01*
X126658000Y-99095928D01*
X126533518Y-99108188D01*
X126413820Y-99144498D01*
X126303506Y-99203463D01*
X126206815Y-99282815D01*
X126127463Y-99379506D01*
X126090317Y-99449000D01*
X118927751Y-99449000D01*
X118872000Y-99443509D01*
X118816248Y-99449000D01*
X118649501Y-99465423D01*
X118435553Y-99530324D01*
X118238377Y-99635716D01*
X118065551Y-99777551D01*
X118030009Y-99820859D01*
X113321869Y-104529000D01*
X101562132Y-104529000D01*
X100195000Y-103161869D01*
X100195000Y-57459752D01*
X100200491Y-57404000D01*
X100178577Y-57181501D01*
X100113676Y-56967553D01*
X100008284Y-56770377D01*
X99901989Y-56640856D01*
X99901987Y-56640854D01*
X99866449Y-56597551D01*
X99823146Y-56562013D01*
X97107996Y-53846865D01*
X97072449Y-53803551D01*
X96899623Y-53661716D01*
X96702447Y-53556324D01*
X96488499Y-53491423D01*
X96321752Y-53475000D01*
X96321751Y-53475000D01*
X96266000Y-53469509D01*
X96210249Y-53475000D01*
X88665817Y-53475000D01*
X88608505Y-53417688D01*
X88357095Y-53249701D01*
X88077743Y-53133989D01*
X87781184Y-53075000D01*
X87478816Y-53075000D01*
X87182257Y-53133989D01*
X86902905Y-53249701D01*
X86651495Y-53417688D01*
X86585056Y-53484127D01*
X86579502Y-53465820D01*
X86520537Y-53355506D01*
X86441185Y-53258815D01*
X86344494Y-53179463D01*
X86234180Y-53120498D01*
X86114482Y-53084188D01*
X85990000Y-53071928D01*
X84190000Y-53071928D01*
X84065518Y-53084188D01*
X83945820Y-53120498D01*
X83835506Y-53179463D01*
X83738815Y-53258815D01*
X83659463Y-53355506D01*
X83600498Y-53465820D01*
X83564188Y-53585518D01*
X83551928Y-53710000D01*
X81432000Y-53710000D01*
X81432000Y-34456000D01*
X83347928Y-34456000D01*
X83347928Y-36156000D01*
X83360188Y-36280482D01*
X83396498Y-36400180D01*
X83455463Y-36510494D01*
X83534815Y-36607185D01*
X83631506Y-36686537D01*
X83701000Y-36723683D01*
X83701001Y-44641579D01*
X83604320Y-44786273D01*
X83496147Y-45047426D01*
X83441000Y-45324665D01*
X83441000Y-45607335D01*
X83496147Y-45884574D01*
X83604320Y-46145727D01*
X83741000Y-46350284D01*
X83741001Y-47736239D01*
X83735509Y-47792000D01*
X83757423Y-48014498D01*
X83822324Y-48228446D01*
X83822325Y-48228447D01*
X83927717Y-48425623D01*
X84069552Y-48598449D01*
X84112860Y-48633991D01*
X87296013Y-51817146D01*
X87331551Y-51860449D01*
X87374854Y-51895987D01*
X87374856Y-51895989D01*
X87504377Y-52002284D01*
X87701553Y-52107676D01*
X87915501Y-52172577D01*
X88138000Y-52194491D01*
X88193752Y-52189000D01*
X101021043Y-52189000D01*
X101031463Y-52208494D01*
X101110815Y-52305185D01*
X101207506Y-52384537D01*
X101227001Y-52394957D01*
X101227001Y-52709715D01*
X101090320Y-52914273D01*
X100982147Y-53175426D01*
X100927000Y-53452665D01*
X100927000Y-53735335D01*
X100982147Y-54012574D01*
X101090320Y-54273727D01*
X101227000Y-54478284D01*
X101227001Y-55249715D01*
X101090320Y-55454273D01*
X100982147Y-55715426D01*
X100927000Y-55992665D01*
X100927000Y-56275335D01*
X100982147Y-56552574D01*
X101090320Y-56813727D01*
X101227000Y-57018284D01*
X101227001Y-57789715D01*
X101090320Y-57994273D01*
X100982147Y-58255426D01*
X100927000Y-58532665D01*
X100927000Y-58815335D01*
X100982147Y-59092574D01*
X101090320Y-59353727D01*
X101227000Y-59558284D01*
X101227001Y-60329715D01*
X101090320Y-60534273D01*
X100982147Y-60795426D01*
X100927000Y-61072665D01*
X100927000Y-61355335D01*
X100982147Y-61632574D01*
X101090320Y-61893727D01*
X101227000Y-62098284D01*
X101227001Y-62869715D01*
X101090320Y-63074273D01*
X100982147Y-63335426D01*
X100927000Y-63612665D01*
X100927000Y-63895335D01*
X100982147Y-64172574D01*
X101090320Y-64433727D01*
X101227000Y-64638284D01*
X101227001Y-65409715D01*
X101090320Y-65614273D01*
X100982147Y-65875426D01*
X100927000Y-66152665D01*
X100927000Y-66435335D01*
X100982147Y-66712574D01*
X101090320Y-66973727D01*
X101227000Y-67178284D01*
X101227001Y-67949715D01*
X101090320Y-68154273D01*
X100982147Y-68415426D01*
X100927000Y-68692665D01*
X100927000Y-68975335D01*
X100982147Y-69252574D01*
X101090320Y-69513727D01*
X101227000Y-69718284D01*
X101227001Y-81463043D01*
X101207506Y-81473463D01*
X101110815Y-81552815D01*
X101031463Y-81649506D01*
X100972498Y-81759820D01*
X100936188Y-81879518D01*
X100923928Y-82004000D01*
X100923928Y-83604000D01*
X100936188Y-83728482D01*
X100972498Y-83848180D01*
X101031463Y-83958494D01*
X101110815Y-84055185D01*
X101207506Y-84134537D01*
X101227001Y-84144957D01*
X101227001Y-84459715D01*
X101090320Y-84664273D01*
X100982147Y-84925426D01*
X100927000Y-85202665D01*
X100927000Y-85485335D01*
X100982147Y-85762574D01*
X101090320Y-86023727D01*
X101227000Y-86228284D01*
X101227001Y-86999715D01*
X101090320Y-87204273D01*
X100982147Y-87465426D01*
X100927000Y-87742665D01*
X100927000Y-88025335D01*
X100982147Y-88302574D01*
X101090320Y-88563727D01*
X101227000Y-88768284D01*
X101227001Y-89539715D01*
X101090320Y-89744273D01*
X100982147Y-90005426D01*
X100927000Y-90282665D01*
X100927000Y-90565335D01*
X100982147Y-90842574D01*
X101090320Y-91103727D01*
X101227000Y-91308284D01*
X101227001Y-92079715D01*
X101090320Y-92284273D01*
X100982147Y-92545426D01*
X100927000Y-92822665D01*
X100927000Y-93105335D01*
X100982147Y-93382574D01*
X101090320Y-93643727D01*
X101227000Y-93848284D01*
X101227001Y-94619715D01*
X101090320Y-94824273D01*
X100982147Y-95085426D01*
X100927000Y-95362665D01*
X100927000Y-95645335D01*
X100982147Y-95922574D01*
X101090320Y-96183727D01*
X101227000Y-96388284D01*
X101227001Y-97159715D01*
X101090320Y-97364273D01*
X100982147Y-97625426D01*
X100927000Y-97902665D01*
X100927000Y-98185335D01*
X100982147Y-98462574D01*
X101090320Y-98723727D01*
X101227000Y-98928284D01*
X101227001Y-99699715D01*
X101090320Y-99904273D01*
X100982147Y-100165426D01*
X100927000Y-100442665D01*
X100927000Y-100725335D01*
X100982147Y-101002574D01*
X101090320Y-101263727D01*
X101247363Y-101498759D01*
X101447241Y-101698637D01*
X101682273Y-101855680D01*
X101943426Y-101963853D01*
X102220665Y-102019000D01*
X102503335Y-102019000D01*
X102780574Y-101963853D01*
X103041727Y-101855680D01*
X103276759Y-101698637D01*
X103476637Y-101498759D01*
X103633680Y-101263727D01*
X103741853Y-101002574D01*
X103797000Y-100725335D01*
X103797000Y-100442665D01*
X103741853Y-100165426D01*
X103633680Y-99904273D01*
X103497000Y-99699716D01*
X103497000Y-98928284D01*
X103633680Y-98723727D01*
X103741853Y-98462574D01*
X103797000Y-98185335D01*
X103797000Y-97902665D01*
X103741853Y-97625426D01*
X103633680Y-97364273D01*
X103497000Y-97159716D01*
X103497000Y-96388284D01*
X103633680Y-96183727D01*
X103741853Y-95922574D01*
X103797000Y-95645335D01*
X103797000Y-95362665D01*
X103741853Y-95085426D01*
X103633680Y-94824273D01*
X103497000Y-94619716D01*
X103497000Y-93848284D01*
X103633680Y-93643727D01*
X103741853Y-93382574D01*
X103797000Y-93105335D01*
X103797000Y-92822665D01*
X103741853Y-92545426D01*
X103633680Y-92284273D01*
X103497000Y-92079716D01*
X103497000Y-91308284D01*
X103633680Y-91103727D01*
X103741853Y-90842574D01*
X103797000Y-90565335D01*
X103797000Y-90282665D01*
X103741853Y-90005426D01*
X103633680Y-89744273D01*
X103497000Y-89539716D01*
X103497000Y-88768284D01*
X103633680Y-88563727D01*
X103741853Y-88302574D01*
X103797000Y-88025335D01*
X103797000Y-87742665D01*
X103741853Y-87465426D01*
X103633680Y-87204273D01*
X103497000Y-86999716D01*
X103497000Y-86228284D01*
X103633680Y-86023727D01*
X103741853Y-85762574D01*
X103797000Y-85485335D01*
X103797000Y-85202665D01*
X103741853Y-84925426D01*
X103633680Y-84664273D01*
X103497000Y-84459716D01*
X103497000Y-84144957D01*
X103516494Y-84134537D01*
X103613185Y-84055185D01*
X103692537Y-83958494D01*
X103751502Y-83848180D01*
X103787812Y-83728482D01*
X103800072Y-83604000D01*
X103800072Y-82004000D01*
X103787812Y-81879518D01*
X103751502Y-81759820D01*
X103692537Y-81649506D01*
X103613185Y-81552815D01*
X103516494Y-81473463D01*
X103497000Y-81463043D01*
X103497000Y-69718284D01*
X103633680Y-69513727D01*
X103741853Y-69252574D01*
X103797000Y-68975335D01*
X103797000Y-68692665D01*
X103741853Y-68415426D01*
X103633680Y-68154273D01*
X103497000Y-67949716D01*
X103497000Y-67178284D01*
X103633680Y-66973727D01*
X103741853Y-66712574D01*
X103797000Y-66435335D01*
X103797000Y-66152665D01*
X103741853Y-65875426D01*
X103633680Y-65614273D01*
X103497000Y-65409716D01*
X103497000Y-64638284D01*
X103633680Y-64433727D01*
X103741853Y-64172574D01*
X103797000Y-63895335D01*
X103797000Y-63612665D01*
X103741853Y-63335426D01*
X103633680Y-63074273D01*
X103497000Y-62869716D01*
X103497000Y-62098284D01*
X103633680Y-61893727D01*
X103741853Y-61632574D01*
X103797000Y-61355335D01*
X103797000Y-61072665D01*
X103741853Y-60795426D01*
X103633680Y-60534273D01*
X103497000Y-60329716D01*
X103497000Y-59558284D01*
X103633680Y-59353727D01*
X103741853Y-59092574D01*
X103797000Y-58815335D01*
X103797000Y-58532665D01*
X103741853Y-58255426D01*
X103633680Y-57994273D01*
X103497000Y-57789716D01*
X103497000Y-57018284D01*
X103633680Y-56813727D01*
X103741853Y-56552574D01*
X103797000Y-56275335D01*
X103797000Y-55992665D01*
X103741853Y-55715426D01*
X103633680Y-55454273D01*
X103497000Y-55249716D01*
X103497000Y-54478284D01*
X103633680Y-54273727D01*
X103741853Y-54012574D01*
X103797000Y-53735335D01*
X103797000Y-53452665D01*
X103741853Y-53175426D01*
X103633680Y-52914273D01*
X103497000Y-52709716D01*
X103497000Y-52394957D01*
X103516494Y-52384537D01*
X103613185Y-52305185D01*
X103692537Y-52208494D01*
X103751502Y-52098180D01*
X103787812Y-51978482D01*
X103800072Y-51854000D01*
X103800072Y-50912665D01*
X108547000Y-50912665D01*
X108547000Y-51195335D01*
X108602147Y-51472574D01*
X108710320Y-51733727D01*
X108867363Y-51968759D01*
X109067241Y-52168637D01*
X109299759Y-52324000D01*
X109067241Y-52479363D01*
X108867363Y-52679241D01*
X108710320Y-52914273D01*
X108602147Y-53175426D01*
X108547000Y-53452665D01*
X108547000Y-53735335D01*
X108602147Y-54012574D01*
X108710320Y-54273727D01*
X108867363Y-54508759D01*
X109067241Y-54708637D01*
X109299759Y-54864000D01*
X109067241Y-55019363D01*
X108867363Y-55219241D01*
X108710320Y-55454273D01*
X108602147Y-55715426D01*
X108547000Y-55992665D01*
X108547000Y-56275335D01*
X108602147Y-56552574D01*
X108710320Y-56813727D01*
X108867363Y-57048759D01*
X109067241Y-57248637D01*
X109299759Y-57404000D01*
X109067241Y-57559363D01*
X108867363Y-57759241D01*
X108710320Y-57994273D01*
X108602147Y-58255426D01*
X108547000Y-58532665D01*
X108547000Y-58815335D01*
X108602147Y-59092574D01*
X108710320Y-59353727D01*
X108867363Y-59588759D01*
X109067241Y-59788637D01*
X109299759Y-59944000D01*
X109067241Y-60099363D01*
X108867363Y-60299241D01*
X108710320Y-60534273D01*
X108602147Y-60795426D01*
X108547000Y-61072665D01*
X108547000Y-61355335D01*
X108602147Y-61632574D01*
X108710320Y-61893727D01*
X108867363Y-62128759D01*
X109067241Y-62328637D01*
X109299759Y-62484000D01*
X109067241Y-62639363D01*
X108867363Y-62839241D01*
X108710320Y-63074273D01*
X108602147Y-63335426D01*
X108547000Y-63612665D01*
X108547000Y-63895335D01*
X108602147Y-64172574D01*
X108710320Y-64433727D01*
X108867363Y-64668759D01*
X109067241Y-64868637D01*
X109299759Y-65024000D01*
X109067241Y-65179363D01*
X108867363Y-65379241D01*
X108710320Y-65614273D01*
X108602147Y-65875426D01*
X108547000Y-66152665D01*
X108547000Y-66435335D01*
X108602147Y-66712574D01*
X108710320Y-66973727D01*
X108867363Y-67208759D01*
X109067241Y-67408637D01*
X109299759Y-67564000D01*
X109067241Y-67719363D01*
X108867363Y-67919241D01*
X108710320Y-68154273D01*
X108602147Y-68415426D01*
X108547000Y-68692665D01*
X108547000Y-68975335D01*
X108602147Y-69252574D01*
X108710320Y-69513727D01*
X108867363Y-69748759D01*
X109067241Y-69948637D01*
X109302273Y-70105680D01*
X109563426Y-70213853D01*
X109840665Y-70269000D01*
X110123335Y-70269000D01*
X110400574Y-70213853D01*
X110661727Y-70105680D01*
X110896759Y-69948637D01*
X111096637Y-69748759D01*
X111253680Y-69513727D01*
X111361853Y-69252574D01*
X111417000Y-68975335D01*
X111417000Y-68692665D01*
X111380688Y-68510113D01*
X115122802Y-64768000D01*
X125213822Y-64768000D01*
X125338525Y-64954632D01*
X125545368Y-65161475D01*
X125719760Y-65278000D01*
X125545368Y-65394525D01*
X125338525Y-65601368D01*
X125213822Y-65788000D01*
X118401322Y-65788000D01*
X118363999Y-65784324D01*
X118326676Y-65788000D01*
X118326667Y-65788000D01*
X118215014Y-65798997D01*
X118071753Y-65842454D01*
X117939723Y-65913026D01*
X117879669Y-65962312D01*
X117823999Y-66007999D01*
X117800201Y-66036997D01*
X109470998Y-74366201D01*
X109442000Y-74389999D01*
X109418202Y-74418997D01*
X109418201Y-74418998D01*
X109347026Y-74505724D01*
X109276454Y-74637754D01*
X109232998Y-74781015D01*
X109218324Y-74930000D01*
X109222001Y-74967332D01*
X109222000Y-81585956D01*
X109067241Y-81689363D01*
X108867363Y-81889241D01*
X108710320Y-82124273D01*
X108602147Y-82385426D01*
X108547000Y-82662665D01*
X108547000Y-82945335D01*
X108602147Y-83222574D01*
X108710320Y-83483727D01*
X108867363Y-83718759D01*
X109067241Y-83918637D01*
X109299759Y-84074000D01*
X109067241Y-84229363D01*
X108867363Y-84429241D01*
X108710320Y-84664273D01*
X108602147Y-84925426D01*
X108547000Y-85202665D01*
X108547000Y-85485335D01*
X108602147Y-85762574D01*
X108710320Y-86023727D01*
X108867363Y-86258759D01*
X109067241Y-86458637D01*
X109299759Y-86614000D01*
X109067241Y-86769363D01*
X108867363Y-86969241D01*
X108710320Y-87204273D01*
X108602147Y-87465426D01*
X108547000Y-87742665D01*
X108547000Y-88025335D01*
X108602147Y-88302574D01*
X108710320Y-88563727D01*
X108867363Y-88798759D01*
X109067241Y-88998637D01*
X109299759Y-89154000D01*
X109067241Y-89309363D01*
X108867363Y-89509241D01*
X108710320Y-89744273D01*
X108602147Y-90005426D01*
X108547000Y-90282665D01*
X108547000Y-90565335D01*
X108602147Y-90842574D01*
X108710320Y-91103727D01*
X108867363Y-91338759D01*
X109067241Y-91538637D01*
X109299759Y-91694000D01*
X109067241Y-91849363D01*
X108867363Y-92049241D01*
X108710320Y-92284273D01*
X108602147Y-92545426D01*
X108547000Y-92822665D01*
X108547000Y-93105335D01*
X108602147Y-93382574D01*
X108710320Y-93643727D01*
X108867363Y-93878759D01*
X109067241Y-94078637D01*
X109299759Y-94234000D01*
X109067241Y-94389363D01*
X108867363Y-94589241D01*
X108710320Y-94824273D01*
X108602147Y-95085426D01*
X108547000Y-95362665D01*
X108547000Y-95645335D01*
X108602147Y-95922574D01*
X108710320Y-96183727D01*
X108867363Y-96418759D01*
X109067241Y-96618637D01*
X109299759Y-96774000D01*
X109067241Y-96929363D01*
X108867363Y-97129241D01*
X108710320Y-97364273D01*
X108602147Y-97625426D01*
X108547000Y-97902665D01*
X108547000Y-98185335D01*
X108602147Y-98462574D01*
X108710320Y-98723727D01*
X108867363Y-98958759D01*
X109067241Y-99158637D01*
X109299759Y-99314000D01*
X109067241Y-99469363D01*
X108867363Y-99669241D01*
X108710320Y-99904273D01*
X108602147Y-100165426D01*
X108547000Y-100442665D01*
X108547000Y-100725335D01*
X108602147Y-101002574D01*
X108710320Y-101263727D01*
X108867363Y-101498759D01*
X109067241Y-101698637D01*
X109302273Y-101855680D01*
X109563426Y-101963853D01*
X109840665Y-102019000D01*
X110123335Y-102019000D01*
X110400574Y-101963853D01*
X110661727Y-101855680D01*
X110896759Y-101698637D01*
X111096637Y-101498759D01*
X111253680Y-101263727D01*
X111361853Y-101002574D01*
X111417000Y-100725335D01*
X111417000Y-100442665D01*
X111380688Y-100260113D01*
X114707532Y-96933269D01*
X136418336Y-96933269D01*
X136477797Y-97167037D01*
X136716242Y-97277934D01*
X136971740Y-97340183D01*
X137234473Y-97351390D01*
X137494344Y-97311125D01*
X137741366Y-97220935D01*
X137842203Y-97167037D01*
X137901664Y-96933269D01*
X137160000Y-96191605D01*
X136418336Y-96933269D01*
X114707532Y-96933269D01*
X115554328Y-96086473D01*
X135820610Y-96086473D01*
X135860875Y-96346344D01*
X135951065Y-96593366D01*
X136004963Y-96694203D01*
X136238731Y-96753664D01*
X136980395Y-96012000D01*
X137339605Y-96012000D01*
X138081269Y-96753664D01*
X138315037Y-96694203D01*
X138425934Y-96455758D01*
X138488183Y-96200260D01*
X138499390Y-95937527D01*
X138490557Y-95880514D01*
X143445000Y-95880514D01*
X143445000Y-96143486D01*
X143496304Y-96401405D01*
X143596939Y-96644359D01*
X143743038Y-96863013D01*
X143928987Y-97048962D01*
X144147641Y-97195061D01*
X144390595Y-97295696D01*
X144648514Y-97347000D01*
X144911486Y-97347000D01*
X145169405Y-97295696D01*
X145412359Y-97195061D01*
X145631013Y-97048962D01*
X145816962Y-96863013D01*
X145963061Y-96644359D01*
X146063696Y-96401405D01*
X146115000Y-96143486D01*
X146115000Y-95880514D01*
X146063696Y-95622595D01*
X145963061Y-95379641D01*
X145816962Y-95160987D01*
X145631013Y-94975038D01*
X145412359Y-94828939D01*
X145169405Y-94728304D01*
X144911486Y-94677000D01*
X144648514Y-94677000D01*
X144390595Y-94728304D01*
X144147641Y-94828939D01*
X143928987Y-94975038D01*
X143743038Y-95160987D01*
X143596939Y-95379641D01*
X143496304Y-95622595D01*
X143445000Y-95880514D01*
X138490557Y-95880514D01*
X138459125Y-95677656D01*
X138368935Y-95430634D01*
X138315037Y-95329797D01*
X138081269Y-95270336D01*
X137339605Y-96012000D01*
X136980395Y-96012000D01*
X136238731Y-95270336D01*
X136004963Y-95329797D01*
X135894066Y-95568242D01*
X135831817Y-95823740D01*
X135820610Y-96086473D01*
X115554328Y-96086473D01*
X116550070Y-95090731D01*
X136418336Y-95090731D01*
X137160000Y-95832395D01*
X137901664Y-95090731D01*
X137842203Y-94856963D01*
X137603758Y-94746066D01*
X137348260Y-94683817D01*
X137085527Y-94672610D01*
X136825656Y-94712875D01*
X136578634Y-94803065D01*
X136477797Y-94856963D01*
X136418336Y-95090731D01*
X116550070Y-95090731D01*
X118771532Y-92869269D01*
X136418336Y-92869269D01*
X136477797Y-93103037D01*
X136716242Y-93213934D01*
X136971740Y-93276183D01*
X137234473Y-93287390D01*
X137494344Y-93247125D01*
X137741366Y-93156935D01*
X137842203Y-93103037D01*
X137901664Y-92869269D01*
X137160000Y-92127605D01*
X136418336Y-92869269D01*
X118771532Y-92869269D01*
X119618328Y-92022473D01*
X135820610Y-92022473D01*
X135860875Y-92282344D01*
X135951065Y-92529366D01*
X136004963Y-92630203D01*
X136238731Y-92689664D01*
X136980395Y-91948000D01*
X137339605Y-91948000D01*
X138081269Y-92689664D01*
X138315037Y-92630203D01*
X138425934Y-92391758D01*
X138488183Y-92136260D01*
X138499390Y-91873527D01*
X138490557Y-91816514D01*
X143445000Y-91816514D01*
X143445000Y-92079486D01*
X143496304Y-92337405D01*
X143596939Y-92580359D01*
X143743038Y-92799013D01*
X143928987Y-92984962D01*
X144147641Y-93131061D01*
X144390595Y-93231696D01*
X144648514Y-93283000D01*
X144911486Y-93283000D01*
X145169405Y-93231696D01*
X145412359Y-93131061D01*
X145631013Y-92984962D01*
X145816962Y-92799013D01*
X145963061Y-92580359D01*
X146063696Y-92337405D01*
X146115000Y-92079486D01*
X146115000Y-91816514D01*
X146063696Y-91558595D01*
X145963061Y-91315641D01*
X145816962Y-91096987D01*
X145631013Y-90911038D01*
X145412359Y-90764939D01*
X145169405Y-90664304D01*
X144911486Y-90613000D01*
X144648514Y-90613000D01*
X144390595Y-90664304D01*
X144147641Y-90764939D01*
X143928987Y-90911038D01*
X143743038Y-91096987D01*
X143596939Y-91315641D01*
X143496304Y-91558595D01*
X143445000Y-91816514D01*
X138490557Y-91816514D01*
X138459125Y-91613656D01*
X138368935Y-91366634D01*
X138315037Y-91265797D01*
X138081269Y-91206336D01*
X137339605Y-91948000D01*
X136980395Y-91948000D01*
X136238731Y-91206336D01*
X136004963Y-91265797D01*
X135894066Y-91504242D01*
X135831817Y-91759740D01*
X135820610Y-92022473D01*
X119618328Y-92022473D01*
X120399004Y-91241798D01*
X120428001Y-91218001D01*
X120522974Y-91102276D01*
X120563354Y-91026731D01*
X136418336Y-91026731D01*
X137160000Y-91768395D01*
X137901664Y-91026731D01*
X137842203Y-90792963D01*
X137603758Y-90682066D01*
X137348260Y-90619817D01*
X137085527Y-90608610D01*
X136825656Y-90648875D01*
X136578634Y-90739065D01*
X136477797Y-90792963D01*
X136418336Y-91026731D01*
X120563354Y-91026731D01*
X120593546Y-90970247D01*
X120637003Y-90826986D01*
X120648000Y-90715333D01*
X120648000Y-90715332D01*
X120651677Y-90678000D01*
X120648000Y-90640667D01*
X120648000Y-89059269D01*
X136418336Y-89059269D01*
X136477797Y-89293037D01*
X136716242Y-89403934D01*
X136971740Y-89466183D01*
X137234473Y-89477390D01*
X137494344Y-89437125D01*
X137741366Y-89346935D01*
X137842203Y-89293037D01*
X137901664Y-89059269D01*
X137160000Y-88317605D01*
X136418336Y-89059269D01*
X120648000Y-89059269D01*
X120648000Y-88212473D01*
X135820610Y-88212473D01*
X135860875Y-88472344D01*
X135951065Y-88719366D01*
X136004963Y-88820203D01*
X136238731Y-88879664D01*
X136980395Y-88138000D01*
X137339605Y-88138000D01*
X138081269Y-88879664D01*
X138315037Y-88820203D01*
X138425934Y-88581758D01*
X138488183Y-88326260D01*
X138499390Y-88063527D01*
X138490557Y-88006514D01*
X143445000Y-88006514D01*
X143445000Y-88269486D01*
X143496304Y-88527405D01*
X143596939Y-88770359D01*
X143743038Y-88989013D01*
X143928987Y-89174962D01*
X144147641Y-89321061D01*
X144390595Y-89421696D01*
X144648514Y-89473000D01*
X144911486Y-89473000D01*
X145169405Y-89421696D01*
X145412359Y-89321061D01*
X145631013Y-89174962D01*
X145816962Y-88989013D01*
X145963061Y-88770359D01*
X146063696Y-88527405D01*
X146115000Y-88269486D01*
X146115000Y-88006514D01*
X146063696Y-87748595D01*
X145963061Y-87505641D01*
X145816962Y-87286987D01*
X145631013Y-87101038D01*
X145412359Y-86954939D01*
X145169405Y-86854304D01*
X144911486Y-86803000D01*
X144648514Y-86803000D01*
X144390595Y-86854304D01*
X144147641Y-86954939D01*
X143928987Y-87101038D01*
X143743038Y-87286987D01*
X143596939Y-87505641D01*
X143496304Y-87748595D01*
X143445000Y-88006514D01*
X138490557Y-88006514D01*
X138459125Y-87803656D01*
X138368935Y-87556634D01*
X138315037Y-87455797D01*
X138081269Y-87396336D01*
X137339605Y-88138000D01*
X136980395Y-88138000D01*
X136238731Y-87396336D01*
X136004963Y-87455797D01*
X135894066Y-87694242D01*
X135831817Y-87949740D01*
X135820610Y-88212473D01*
X120648000Y-88212473D01*
X120648000Y-87216731D01*
X136418336Y-87216731D01*
X137160000Y-87958395D01*
X137901664Y-87216731D01*
X137842203Y-86982963D01*
X137603758Y-86872066D01*
X137348260Y-86809817D01*
X137085527Y-86798610D01*
X136825656Y-86838875D01*
X136578634Y-86929065D01*
X136477797Y-86982963D01*
X136418336Y-87216731D01*
X120648000Y-87216731D01*
X120648000Y-87182801D01*
X122742803Y-85088000D01*
X125213822Y-85088000D01*
X125338525Y-85274632D01*
X125545368Y-85481475D01*
X125788589Y-85643990D01*
X126058842Y-85755932D01*
X126345740Y-85813000D01*
X126638260Y-85813000D01*
X126925158Y-85755932D01*
X127195411Y-85643990D01*
X127438632Y-85481475D01*
X127645475Y-85274632D01*
X127662422Y-85249269D01*
X136418336Y-85249269D01*
X136477797Y-85483037D01*
X136716242Y-85593934D01*
X136971740Y-85656183D01*
X137234473Y-85667390D01*
X137494344Y-85627125D01*
X137741366Y-85536935D01*
X137842203Y-85483037D01*
X137901664Y-85249269D01*
X137160000Y-84507605D01*
X136418336Y-85249269D01*
X127662422Y-85249269D01*
X127807990Y-85031411D01*
X127919932Y-84761158D01*
X127977000Y-84474260D01*
X127977000Y-84402473D01*
X135820610Y-84402473D01*
X135860875Y-84662344D01*
X135951065Y-84909366D01*
X136004963Y-85010203D01*
X136238731Y-85069664D01*
X136980395Y-84328000D01*
X137339605Y-84328000D01*
X138081269Y-85069664D01*
X138315037Y-85010203D01*
X138425934Y-84771758D01*
X138488183Y-84516260D01*
X138499390Y-84253527D01*
X138490557Y-84196514D01*
X143445000Y-84196514D01*
X143445000Y-84459486D01*
X143496304Y-84717405D01*
X143596939Y-84960359D01*
X143743038Y-85179013D01*
X143928987Y-85364962D01*
X144147641Y-85511061D01*
X144390595Y-85611696D01*
X144648514Y-85663000D01*
X144911486Y-85663000D01*
X145169405Y-85611696D01*
X145412359Y-85511061D01*
X145631013Y-85364962D01*
X145816962Y-85179013D01*
X145963061Y-84960359D01*
X146063696Y-84717405D01*
X146115000Y-84459486D01*
X146115000Y-84196514D01*
X146063696Y-83938595D01*
X145963061Y-83695641D01*
X145816962Y-83476987D01*
X145631013Y-83291038D01*
X145412359Y-83144939D01*
X145169405Y-83044304D01*
X144911486Y-82993000D01*
X144648514Y-82993000D01*
X144390595Y-83044304D01*
X144147641Y-83144939D01*
X143928987Y-83291038D01*
X143743038Y-83476987D01*
X143596939Y-83695641D01*
X143496304Y-83938595D01*
X143445000Y-84196514D01*
X138490557Y-84196514D01*
X138459125Y-83993656D01*
X138368935Y-83746634D01*
X138315037Y-83645797D01*
X138081269Y-83586336D01*
X137339605Y-84328000D01*
X136980395Y-84328000D01*
X136238731Y-83586336D01*
X136004963Y-83645797D01*
X135894066Y-83884242D01*
X135831817Y-84139740D01*
X135820610Y-84402473D01*
X127977000Y-84402473D01*
X127977000Y-84181740D01*
X127919932Y-83894842D01*
X127807990Y-83624589D01*
X127662423Y-83406731D01*
X136418336Y-83406731D01*
X137160000Y-84148395D01*
X137901664Y-83406731D01*
X137842203Y-83172963D01*
X137603758Y-83062066D01*
X137348260Y-82999817D01*
X137085527Y-82988610D01*
X136825656Y-83028875D01*
X136578634Y-83119065D01*
X136477797Y-83172963D01*
X136418336Y-83406731D01*
X127662423Y-83406731D01*
X127645475Y-83381368D01*
X127438632Y-83174525D01*
X127264240Y-83058000D01*
X127438632Y-82941475D01*
X127645475Y-82734632D01*
X127807990Y-82491411D01*
X127919932Y-82221158D01*
X127977000Y-81934260D01*
X127977000Y-81641740D01*
X127936726Y-81439269D01*
X136418336Y-81439269D01*
X136477797Y-81673037D01*
X136716242Y-81783934D01*
X136971740Y-81846183D01*
X137234473Y-81857390D01*
X137494344Y-81817125D01*
X137741366Y-81726935D01*
X137842203Y-81673037D01*
X137901664Y-81439269D01*
X137160000Y-80697605D01*
X136418336Y-81439269D01*
X127936726Y-81439269D01*
X127919932Y-81354842D01*
X127807990Y-81084589D01*
X127645475Y-80841368D01*
X127438632Y-80634525D01*
X127375697Y-80592473D01*
X135820610Y-80592473D01*
X135860875Y-80852344D01*
X135951065Y-81099366D01*
X136004963Y-81200203D01*
X136238731Y-81259664D01*
X136980395Y-80518000D01*
X137339605Y-80518000D01*
X138081269Y-81259664D01*
X138315037Y-81200203D01*
X138425934Y-80961758D01*
X138488183Y-80706260D01*
X138499390Y-80443527D01*
X138490557Y-80386514D01*
X143445000Y-80386514D01*
X143445000Y-80649486D01*
X143496304Y-80907405D01*
X143596939Y-81150359D01*
X143743038Y-81369013D01*
X143928987Y-81554962D01*
X144147641Y-81701061D01*
X144390595Y-81801696D01*
X144648514Y-81853000D01*
X144911486Y-81853000D01*
X145169405Y-81801696D01*
X145412359Y-81701061D01*
X145631013Y-81554962D01*
X145816962Y-81369013D01*
X145963061Y-81150359D01*
X146063696Y-80907405D01*
X146115000Y-80649486D01*
X146115000Y-80386514D01*
X146063696Y-80128595D01*
X145963061Y-79885641D01*
X145816962Y-79666987D01*
X145631013Y-79481038D01*
X145412359Y-79334939D01*
X145169405Y-79234304D01*
X144911486Y-79183000D01*
X144648514Y-79183000D01*
X144390595Y-79234304D01*
X144147641Y-79334939D01*
X143928987Y-79481038D01*
X143743038Y-79666987D01*
X143596939Y-79885641D01*
X143496304Y-80128595D01*
X143445000Y-80386514D01*
X138490557Y-80386514D01*
X138459125Y-80183656D01*
X138368935Y-79936634D01*
X138315037Y-79835797D01*
X138081269Y-79776336D01*
X137339605Y-80518000D01*
X136980395Y-80518000D01*
X136238731Y-79776336D01*
X136004963Y-79835797D01*
X135894066Y-80074242D01*
X135831817Y-80329740D01*
X135820610Y-80592473D01*
X127375697Y-80592473D01*
X127264240Y-80518000D01*
X127438632Y-80401475D01*
X127645475Y-80194632D01*
X127807990Y-79951411D01*
X127919932Y-79681158D01*
X127936725Y-79596731D01*
X136418336Y-79596731D01*
X137160000Y-80338395D01*
X137901664Y-79596731D01*
X137842203Y-79362963D01*
X137603758Y-79252066D01*
X137348260Y-79189817D01*
X137085527Y-79178610D01*
X136825656Y-79218875D01*
X136578634Y-79309065D01*
X136477797Y-79362963D01*
X136418336Y-79596731D01*
X127936725Y-79596731D01*
X127977000Y-79394260D01*
X127977000Y-79101740D01*
X127919932Y-78814842D01*
X127807990Y-78544589D01*
X127645475Y-78301368D01*
X127438632Y-78094525D01*
X127264240Y-77978000D01*
X127438632Y-77861475D01*
X127645475Y-77654632D01*
X127662422Y-77629269D01*
X136418336Y-77629269D01*
X136477797Y-77863037D01*
X136716242Y-77973934D01*
X136971740Y-78036183D01*
X137234473Y-78047390D01*
X137494344Y-78007125D01*
X137741366Y-77916935D01*
X137842203Y-77863037D01*
X137901664Y-77629269D01*
X137160000Y-76887605D01*
X136418336Y-77629269D01*
X127662422Y-77629269D01*
X127807990Y-77411411D01*
X127919932Y-77141158D01*
X127977000Y-76854260D01*
X127977000Y-76782473D01*
X135820610Y-76782473D01*
X135860875Y-77042344D01*
X135951065Y-77289366D01*
X136004963Y-77390203D01*
X136238731Y-77449664D01*
X136980395Y-76708000D01*
X137339605Y-76708000D01*
X138081269Y-77449664D01*
X138315037Y-77390203D01*
X138425934Y-77151758D01*
X138488183Y-76896260D01*
X138499390Y-76633527D01*
X138490557Y-76576514D01*
X143445000Y-76576514D01*
X143445000Y-76839486D01*
X143496304Y-77097405D01*
X143596939Y-77340359D01*
X143743038Y-77559013D01*
X143928987Y-77744962D01*
X144147641Y-77891061D01*
X144390595Y-77991696D01*
X144648514Y-78043000D01*
X144911486Y-78043000D01*
X145169405Y-77991696D01*
X145412359Y-77891061D01*
X145631013Y-77744962D01*
X145816962Y-77559013D01*
X145963061Y-77340359D01*
X146063696Y-77097405D01*
X146115000Y-76839486D01*
X146115000Y-76576514D01*
X146063696Y-76318595D01*
X145963061Y-76075641D01*
X145816962Y-75856987D01*
X145631013Y-75671038D01*
X145412359Y-75524939D01*
X145169405Y-75424304D01*
X144911486Y-75373000D01*
X144648514Y-75373000D01*
X144390595Y-75424304D01*
X144147641Y-75524939D01*
X143928987Y-75671038D01*
X143743038Y-75856987D01*
X143596939Y-76075641D01*
X143496304Y-76318595D01*
X143445000Y-76576514D01*
X138490557Y-76576514D01*
X138459125Y-76373656D01*
X138368935Y-76126634D01*
X138315037Y-76025797D01*
X138081269Y-75966336D01*
X137339605Y-76708000D01*
X136980395Y-76708000D01*
X136238731Y-75966336D01*
X136004963Y-76025797D01*
X135894066Y-76264242D01*
X135831817Y-76519740D01*
X135820610Y-76782473D01*
X127977000Y-76782473D01*
X127977000Y-76561740D01*
X127919932Y-76274842D01*
X127807990Y-76004589D01*
X127662423Y-75786731D01*
X136418336Y-75786731D01*
X137160000Y-76528395D01*
X137901664Y-75786731D01*
X137842203Y-75552963D01*
X137603758Y-75442066D01*
X137348260Y-75379817D01*
X137085527Y-75368610D01*
X136825656Y-75408875D01*
X136578634Y-75499065D01*
X136477797Y-75552963D01*
X136418336Y-75786731D01*
X127662423Y-75786731D01*
X127645475Y-75761368D01*
X127438632Y-75554525D01*
X127264240Y-75438000D01*
X127438632Y-75321475D01*
X127645475Y-75114632D01*
X127807990Y-74871411D01*
X127919932Y-74601158D01*
X127977000Y-74314260D01*
X127977000Y-74021740D01*
X127936726Y-73819269D01*
X136418336Y-73819269D01*
X136477797Y-74053037D01*
X136716242Y-74163934D01*
X136971740Y-74226183D01*
X137234473Y-74237390D01*
X137494344Y-74197125D01*
X137741366Y-74106935D01*
X137842203Y-74053037D01*
X137901664Y-73819269D01*
X137160000Y-73077605D01*
X136418336Y-73819269D01*
X127936726Y-73819269D01*
X127919932Y-73734842D01*
X127807990Y-73464589D01*
X127645475Y-73221368D01*
X127438632Y-73014525D01*
X127375697Y-72972473D01*
X135820610Y-72972473D01*
X135860875Y-73232344D01*
X135951065Y-73479366D01*
X136004963Y-73580203D01*
X136238731Y-73639664D01*
X136980395Y-72898000D01*
X137339605Y-72898000D01*
X138081269Y-73639664D01*
X138315037Y-73580203D01*
X138425934Y-73341758D01*
X138488183Y-73086260D01*
X138499390Y-72823527D01*
X138490557Y-72766514D01*
X143445000Y-72766514D01*
X143445000Y-73029486D01*
X143496304Y-73287405D01*
X143596939Y-73530359D01*
X143743038Y-73749013D01*
X143928987Y-73934962D01*
X144147641Y-74081061D01*
X144390595Y-74181696D01*
X144648514Y-74233000D01*
X144911486Y-74233000D01*
X145169405Y-74181696D01*
X145412359Y-74081061D01*
X145631013Y-73934962D01*
X145816962Y-73749013D01*
X145963061Y-73530359D01*
X146063696Y-73287405D01*
X146115000Y-73029486D01*
X146115000Y-72766514D01*
X146063696Y-72508595D01*
X145963061Y-72265641D01*
X145816962Y-72046987D01*
X145631013Y-71861038D01*
X145412359Y-71714939D01*
X145169405Y-71614304D01*
X144911486Y-71563000D01*
X144648514Y-71563000D01*
X144390595Y-71614304D01*
X144147641Y-71714939D01*
X143928987Y-71861038D01*
X143743038Y-72046987D01*
X143596939Y-72265641D01*
X143496304Y-72508595D01*
X143445000Y-72766514D01*
X138490557Y-72766514D01*
X138459125Y-72563656D01*
X138368935Y-72316634D01*
X138315037Y-72215797D01*
X138081269Y-72156336D01*
X137339605Y-72898000D01*
X136980395Y-72898000D01*
X136238731Y-72156336D01*
X136004963Y-72215797D01*
X135894066Y-72454242D01*
X135831817Y-72709740D01*
X135820610Y-72972473D01*
X127375697Y-72972473D01*
X127264240Y-72898000D01*
X127438632Y-72781475D01*
X127645475Y-72574632D01*
X127807990Y-72331411D01*
X127919932Y-72061158D01*
X127936725Y-71976731D01*
X136418336Y-71976731D01*
X137160000Y-72718395D01*
X137901664Y-71976731D01*
X137842203Y-71742963D01*
X137603758Y-71632066D01*
X137348260Y-71569817D01*
X137085527Y-71558610D01*
X136825656Y-71598875D01*
X136578634Y-71689065D01*
X136477797Y-71742963D01*
X136418336Y-71976731D01*
X127936725Y-71976731D01*
X127977000Y-71774260D01*
X127977000Y-71481740D01*
X127919932Y-71194842D01*
X127807990Y-70924589D01*
X127645475Y-70681368D01*
X127438632Y-70474525D01*
X127264240Y-70358000D01*
X127438632Y-70241475D01*
X127645475Y-70034632D01*
X127662422Y-70009269D01*
X136418336Y-70009269D01*
X136477797Y-70243037D01*
X136716242Y-70353934D01*
X136971740Y-70416183D01*
X137234473Y-70427390D01*
X137494344Y-70387125D01*
X137741366Y-70296935D01*
X137842203Y-70243037D01*
X137901664Y-70009269D01*
X137160000Y-69267605D01*
X136418336Y-70009269D01*
X127662422Y-70009269D01*
X127807990Y-69791411D01*
X127919932Y-69521158D01*
X127977000Y-69234260D01*
X127977000Y-69162473D01*
X135820610Y-69162473D01*
X135860875Y-69422344D01*
X135951065Y-69669366D01*
X136004963Y-69770203D01*
X136238731Y-69829664D01*
X136980395Y-69088000D01*
X137339605Y-69088000D01*
X138081269Y-69829664D01*
X138315037Y-69770203D01*
X138425934Y-69531758D01*
X138488183Y-69276260D01*
X138499390Y-69013527D01*
X138490557Y-68956514D01*
X143445000Y-68956514D01*
X143445000Y-69219486D01*
X143496304Y-69477405D01*
X143596939Y-69720359D01*
X143743038Y-69939013D01*
X143928987Y-70124962D01*
X144147641Y-70271061D01*
X144390595Y-70371696D01*
X144648514Y-70423000D01*
X144911486Y-70423000D01*
X145169405Y-70371696D01*
X145412359Y-70271061D01*
X145631013Y-70124962D01*
X145816962Y-69939013D01*
X145963061Y-69720359D01*
X146063696Y-69477405D01*
X146115000Y-69219486D01*
X146115000Y-68956514D01*
X146063696Y-68698595D01*
X145963061Y-68455641D01*
X145816962Y-68236987D01*
X145631013Y-68051038D01*
X145412359Y-67904939D01*
X145169405Y-67804304D01*
X144911486Y-67753000D01*
X144648514Y-67753000D01*
X144390595Y-67804304D01*
X144147641Y-67904939D01*
X143928987Y-68051038D01*
X143743038Y-68236987D01*
X143596939Y-68455641D01*
X143496304Y-68698595D01*
X143445000Y-68956514D01*
X138490557Y-68956514D01*
X138459125Y-68753656D01*
X138368935Y-68506634D01*
X138315037Y-68405797D01*
X138081269Y-68346336D01*
X137339605Y-69088000D01*
X136980395Y-69088000D01*
X136238731Y-68346336D01*
X136004963Y-68405797D01*
X135894066Y-68644242D01*
X135831817Y-68899740D01*
X135820610Y-69162473D01*
X127977000Y-69162473D01*
X127977000Y-68941740D01*
X127919932Y-68654842D01*
X127807990Y-68384589D01*
X127662423Y-68166731D01*
X136418336Y-68166731D01*
X137160000Y-68908395D01*
X137901664Y-68166731D01*
X137842203Y-67932963D01*
X137603758Y-67822066D01*
X137348260Y-67759817D01*
X137085527Y-67748610D01*
X136825656Y-67788875D01*
X136578634Y-67879065D01*
X136477797Y-67932963D01*
X136418336Y-68166731D01*
X127662423Y-68166731D01*
X127645475Y-68141368D01*
X127438632Y-67934525D01*
X127264240Y-67818000D01*
X127438632Y-67701475D01*
X127645475Y-67494632D01*
X127807990Y-67251411D01*
X127919932Y-66981158D01*
X127977000Y-66694260D01*
X127977000Y-66401740D01*
X127936726Y-66199269D01*
X136418336Y-66199269D01*
X136477797Y-66433037D01*
X136716242Y-66543934D01*
X136971740Y-66606183D01*
X137234473Y-66617390D01*
X137494344Y-66577125D01*
X137741366Y-66486935D01*
X137842203Y-66433037D01*
X137901664Y-66199269D01*
X137160000Y-65457605D01*
X136418336Y-66199269D01*
X127936726Y-66199269D01*
X127919932Y-66114842D01*
X127807990Y-65844589D01*
X127645475Y-65601368D01*
X127438632Y-65394525D01*
X127375697Y-65352473D01*
X135820610Y-65352473D01*
X135860875Y-65612344D01*
X135951065Y-65859366D01*
X136004963Y-65960203D01*
X136238731Y-66019664D01*
X136980395Y-65278000D01*
X137339605Y-65278000D01*
X138081269Y-66019664D01*
X138315037Y-65960203D01*
X138425934Y-65721758D01*
X138488183Y-65466260D01*
X138499390Y-65203527D01*
X138490557Y-65146514D01*
X143445000Y-65146514D01*
X143445000Y-65409486D01*
X143496304Y-65667405D01*
X143596939Y-65910359D01*
X143743038Y-66129013D01*
X143928987Y-66314962D01*
X144147641Y-66461061D01*
X144390595Y-66561696D01*
X144648514Y-66613000D01*
X144911486Y-66613000D01*
X145169405Y-66561696D01*
X145412359Y-66461061D01*
X145631013Y-66314962D01*
X145816962Y-66129013D01*
X145963061Y-65910359D01*
X146063696Y-65667405D01*
X146115000Y-65409486D01*
X146115000Y-65146514D01*
X146063696Y-64888595D01*
X145963061Y-64645641D01*
X145816962Y-64426987D01*
X145631013Y-64241038D01*
X145412359Y-64094939D01*
X145169405Y-63994304D01*
X144911486Y-63943000D01*
X144648514Y-63943000D01*
X144390595Y-63994304D01*
X144147641Y-64094939D01*
X143928987Y-64241038D01*
X143743038Y-64426987D01*
X143596939Y-64645641D01*
X143496304Y-64888595D01*
X143445000Y-65146514D01*
X138490557Y-65146514D01*
X138459125Y-64943656D01*
X138368935Y-64696634D01*
X138315037Y-64595797D01*
X138081269Y-64536336D01*
X137339605Y-65278000D01*
X136980395Y-65278000D01*
X136238731Y-64536336D01*
X136004963Y-64595797D01*
X135894066Y-64834242D01*
X135831817Y-65089740D01*
X135820610Y-65352473D01*
X127375697Y-65352473D01*
X127264240Y-65278000D01*
X127438632Y-65161475D01*
X127645475Y-64954632D01*
X127807990Y-64711411D01*
X127919932Y-64441158D01*
X127936725Y-64356731D01*
X136418336Y-64356731D01*
X137160000Y-65098395D01*
X137901664Y-64356731D01*
X137842203Y-64122963D01*
X137603758Y-64012066D01*
X137348260Y-63949817D01*
X137085527Y-63938610D01*
X136825656Y-63978875D01*
X136578634Y-64069065D01*
X136477797Y-64122963D01*
X136418336Y-64356731D01*
X127936725Y-64356731D01*
X127977000Y-64154260D01*
X127977000Y-63861740D01*
X127919932Y-63574842D01*
X127807990Y-63304589D01*
X127645475Y-63061368D01*
X127438632Y-62854525D01*
X127264240Y-62738000D01*
X127438632Y-62621475D01*
X127645475Y-62414632D01*
X127662422Y-62389269D01*
X136418336Y-62389269D01*
X136477797Y-62623037D01*
X136716242Y-62733934D01*
X136971740Y-62796183D01*
X137234473Y-62807390D01*
X137494344Y-62767125D01*
X137741366Y-62676935D01*
X137842203Y-62623037D01*
X137901664Y-62389269D01*
X137160000Y-61647605D01*
X136418336Y-62389269D01*
X127662422Y-62389269D01*
X127807990Y-62171411D01*
X127919932Y-61901158D01*
X127977000Y-61614260D01*
X127977000Y-61542473D01*
X135820610Y-61542473D01*
X135860875Y-61802344D01*
X135951065Y-62049366D01*
X136004963Y-62150203D01*
X136238731Y-62209664D01*
X136980395Y-61468000D01*
X137339605Y-61468000D01*
X138081269Y-62209664D01*
X138315037Y-62150203D01*
X138425934Y-61911758D01*
X138488183Y-61656260D01*
X138499390Y-61393527D01*
X138490557Y-61336514D01*
X143445000Y-61336514D01*
X143445000Y-61599486D01*
X143496304Y-61857405D01*
X143596939Y-62100359D01*
X143743038Y-62319013D01*
X143928987Y-62504962D01*
X144147641Y-62651061D01*
X144390595Y-62751696D01*
X144648514Y-62803000D01*
X144911486Y-62803000D01*
X145169405Y-62751696D01*
X145412359Y-62651061D01*
X145631013Y-62504962D01*
X145816962Y-62319013D01*
X145963061Y-62100359D01*
X146063696Y-61857405D01*
X146115000Y-61599486D01*
X146115000Y-61336514D01*
X146063696Y-61078595D01*
X145963061Y-60835641D01*
X145816962Y-60616987D01*
X145631013Y-60431038D01*
X145412359Y-60284939D01*
X145169405Y-60184304D01*
X144911486Y-60133000D01*
X144648514Y-60133000D01*
X144390595Y-60184304D01*
X144147641Y-60284939D01*
X143928987Y-60431038D01*
X143743038Y-60616987D01*
X143596939Y-60835641D01*
X143496304Y-61078595D01*
X143445000Y-61336514D01*
X138490557Y-61336514D01*
X138459125Y-61133656D01*
X138368935Y-60886634D01*
X138315037Y-60785797D01*
X138081269Y-60726336D01*
X137339605Y-61468000D01*
X136980395Y-61468000D01*
X136238731Y-60726336D01*
X136004963Y-60785797D01*
X135894066Y-61024242D01*
X135831817Y-61279740D01*
X135820610Y-61542473D01*
X127977000Y-61542473D01*
X127977000Y-61321740D01*
X127919932Y-61034842D01*
X127807990Y-60764589D01*
X127662423Y-60546731D01*
X136418336Y-60546731D01*
X137160000Y-61288395D01*
X137901664Y-60546731D01*
X137842203Y-60312963D01*
X137603758Y-60202066D01*
X137348260Y-60139817D01*
X137085527Y-60128610D01*
X136825656Y-60168875D01*
X136578634Y-60259065D01*
X136477797Y-60312963D01*
X136418336Y-60546731D01*
X127662423Y-60546731D01*
X127645475Y-60521368D01*
X127438632Y-60314525D01*
X127264240Y-60198000D01*
X127438632Y-60081475D01*
X127645475Y-59874632D01*
X127807990Y-59631411D01*
X127919932Y-59361158D01*
X127977000Y-59074260D01*
X127977000Y-58781740D01*
X127936726Y-58579269D01*
X136418336Y-58579269D01*
X136477797Y-58813037D01*
X136716242Y-58923934D01*
X136971740Y-58986183D01*
X137234473Y-58997390D01*
X137494344Y-58957125D01*
X137741366Y-58866935D01*
X137842203Y-58813037D01*
X137901664Y-58579269D01*
X137160000Y-57837605D01*
X136418336Y-58579269D01*
X127936726Y-58579269D01*
X127919932Y-58494842D01*
X127807990Y-58224589D01*
X127645475Y-57981368D01*
X127438632Y-57774525D01*
X127375697Y-57732473D01*
X135820610Y-57732473D01*
X135860875Y-57992344D01*
X135951065Y-58239366D01*
X136004963Y-58340203D01*
X136238731Y-58399664D01*
X136980395Y-57658000D01*
X137339605Y-57658000D01*
X138081269Y-58399664D01*
X138315037Y-58340203D01*
X138425934Y-58101758D01*
X138488183Y-57846260D01*
X138499390Y-57583527D01*
X138490557Y-57526514D01*
X143445000Y-57526514D01*
X143445000Y-57789486D01*
X143496304Y-58047405D01*
X143596939Y-58290359D01*
X143743038Y-58509013D01*
X143928987Y-58694962D01*
X144147641Y-58841061D01*
X144390595Y-58941696D01*
X144648514Y-58993000D01*
X144911486Y-58993000D01*
X145169405Y-58941696D01*
X145412359Y-58841061D01*
X145631013Y-58694962D01*
X145816962Y-58509013D01*
X145963061Y-58290359D01*
X146063696Y-58047405D01*
X146115000Y-57789486D01*
X146115000Y-57526514D01*
X146063696Y-57268595D01*
X145963061Y-57025641D01*
X145816962Y-56806987D01*
X145631013Y-56621038D01*
X145412359Y-56474939D01*
X145169405Y-56374304D01*
X144911486Y-56323000D01*
X144648514Y-56323000D01*
X144390595Y-56374304D01*
X144147641Y-56474939D01*
X143928987Y-56621038D01*
X143743038Y-56806987D01*
X143596939Y-57025641D01*
X143496304Y-57268595D01*
X143445000Y-57526514D01*
X138490557Y-57526514D01*
X138459125Y-57323656D01*
X138368935Y-57076634D01*
X138315037Y-56975797D01*
X138081269Y-56916336D01*
X137339605Y-57658000D01*
X136980395Y-57658000D01*
X136238731Y-56916336D01*
X136004963Y-56975797D01*
X135894066Y-57214242D01*
X135831817Y-57469740D01*
X135820610Y-57732473D01*
X127375697Y-57732473D01*
X127264240Y-57658000D01*
X127438632Y-57541475D01*
X127645475Y-57334632D01*
X127807990Y-57091411D01*
X127919932Y-56821158D01*
X127936725Y-56736731D01*
X136418336Y-56736731D01*
X137160000Y-57478395D01*
X137901664Y-56736731D01*
X137842203Y-56502963D01*
X137603758Y-56392066D01*
X137348260Y-56329817D01*
X137085527Y-56318610D01*
X136825656Y-56358875D01*
X136578634Y-56449065D01*
X136477797Y-56502963D01*
X136418336Y-56736731D01*
X127936725Y-56736731D01*
X127977000Y-56534260D01*
X127977000Y-56241740D01*
X127919932Y-55954842D01*
X127807990Y-55684589D01*
X127645475Y-55441368D01*
X127438632Y-55234525D01*
X127264240Y-55118000D01*
X127438632Y-55001475D01*
X127645475Y-54794632D01*
X127662422Y-54769269D01*
X136418336Y-54769269D01*
X136477797Y-55003037D01*
X136716242Y-55113934D01*
X136971740Y-55176183D01*
X137234473Y-55187390D01*
X137494344Y-55147125D01*
X137741366Y-55056935D01*
X137842203Y-55003037D01*
X137901664Y-54769269D01*
X137160000Y-54027605D01*
X136418336Y-54769269D01*
X127662422Y-54769269D01*
X127807990Y-54551411D01*
X127919932Y-54281158D01*
X127977000Y-53994260D01*
X127977000Y-53922473D01*
X135820610Y-53922473D01*
X135860875Y-54182344D01*
X135951065Y-54429366D01*
X136004963Y-54530203D01*
X136238731Y-54589664D01*
X136980395Y-53848000D01*
X137339605Y-53848000D01*
X138081269Y-54589664D01*
X138315037Y-54530203D01*
X138425934Y-54291758D01*
X138488183Y-54036260D01*
X138499390Y-53773527D01*
X138490557Y-53716514D01*
X143445000Y-53716514D01*
X143445000Y-53979486D01*
X143496304Y-54237405D01*
X143596939Y-54480359D01*
X143743038Y-54699013D01*
X143928987Y-54884962D01*
X144147641Y-55031061D01*
X144390595Y-55131696D01*
X144648514Y-55183000D01*
X144911486Y-55183000D01*
X145169405Y-55131696D01*
X145412359Y-55031061D01*
X145631013Y-54884962D01*
X145816962Y-54699013D01*
X145963061Y-54480359D01*
X146063696Y-54237405D01*
X146115000Y-53979486D01*
X146115000Y-53716514D01*
X146063696Y-53458595D01*
X145963061Y-53215641D01*
X145816962Y-52996987D01*
X145631013Y-52811038D01*
X145412359Y-52664939D01*
X145169405Y-52564304D01*
X144911486Y-52513000D01*
X144648514Y-52513000D01*
X144390595Y-52564304D01*
X144147641Y-52664939D01*
X143928987Y-52811038D01*
X143743038Y-52996987D01*
X143596939Y-53215641D01*
X143496304Y-53458595D01*
X143445000Y-53716514D01*
X138490557Y-53716514D01*
X138459125Y-53513656D01*
X138368935Y-53266634D01*
X138315037Y-53165797D01*
X138081269Y-53106336D01*
X137339605Y-53848000D01*
X136980395Y-53848000D01*
X136238731Y-53106336D01*
X136004963Y-53165797D01*
X135894066Y-53404242D01*
X135831817Y-53659740D01*
X135820610Y-53922473D01*
X127977000Y-53922473D01*
X127977000Y-53701740D01*
X127919932Y-53414842D01*
X127807990Y-53144589D01*
X127662423Y-52926731D01*
X136418336Y-52926731D01*
X137160000Y-53668395D01*
X137901664Y-52926731D01*
X137842203Y-52692963D01*
X137603758Y-52582066D01*
X137348260Y-52519817D01*
X137085527Y-52508610D01*
X136825656Y-52548875D01*
X136578634Y-52639065D01*
X136477797Y-52692963D01*
X136418336Y-52926731D01*
X127662423Y-52926731D01*
X127645475Y-52901368D01*
X127438632Y-52694525D01*
X127264240Y-52578000D01*
X127438632Y-52461475D01*
X127645475Y-52254632D01*
X127807990Y-52011411D01*
X127919932Y-51741158D01*
X127977000Y-51454260D01*
X127977000Y-51161740D01*
X127936726Y-50959269D01*
X136418336Y-50959269D01*
X136477797Y-51193037D01*
X136716242Y-51303934D01*
X136971740Y-51366183D01*
X137234473Y-51377390D01*
X137494344Y-51337125D01*
X137741366Y-51246935D01*
X137842203Y-51193037D01*
X137901664Y-50959269D01*
X137160000Y-50217605D01*
X136418336Y-50959269D01*
X127936726Y-50959269D01*
X127919932Y-50874842D01*
X127807990Y-50604589D01*
X127645475Y-50361368D01*
X127438632Y-50154525D01*
X127375697Y-50112473D01*
X135820610Y-50112473D01*
X135860875Y-50372344D01*
X135951065Y-50619366D01*
X136004963Y-50720203D01*
X136238731Y-50779664D01*
X136980395Y-50038000D01*
X137339605Y-50038000D01*
X138081269Y-50779664D01*
X138315037Y-50720203D01*
X138425934Y-50481758D01*
X138488183Y-50226260D01*
X138499390Y-49963527D01*
X138490557Y-49906514D01*
X143445000Y-49906514D01*
X143445000Y-50169486D01*
X143496304Y-50427405D01*
X143596939Y-50670359D01*
X143743038Y-50889013D01*
X143928987Y-51074962D01*
X144147641Y-51221061D01*
X144390595Y-51321696D01*
X144648514Y-51373000D01*
X144911486Y-51373000D01*
X145169405Y-51321696D01*
X145412359Y-51221061D01*
X145631013Y-51074962D01*
X145816962Y-50889013D01*
X145963061Y-50670359D01*
X146063696Y-50427405D01*
X146115000Y-50169486D01*
X146115000Y-49906514D01*
X146063696Y-49648595D01*
X145963061Y-49405641D01*
X145816962Y-49186987D01*
X145631013Y-49001038D01*
X145412359Y-48854939D01*
X145169405Y-48754304D01*
X144911486Y-48703000D01*
X144648514Y-48703000D01*
X144390595Y-48754304D01*
X144147641Y-48854939D01*
X143928987Y-49001038D01*
X143743038Y-49186987D01*
X143596939Y-49405641D01*
X143496304Y-49648595D01*
X143445000Y-49906514D01*
X138490557Y-49906514D01*
X138459125Y-49703656D01*
X138368935Y-49456634D01*
X138315037Y-49355797D01*
X138081269Y-49296336D01*
X137339605Y-50038000D01*
X136980395Y-50038000D01*
X136238731Y-49296336D01*
X136004963Y-49355797D01*
X135894066Y-49594242D01*
X135831817Y-49849740D01*
X135820610Y-50112473D01*
X127375697Y-50112473D01*
X127264240Y-50038000D01*
X127438632Y-49921475D01*
X127645475Y-49714632D01*
X127807990Y-49471411D01*
X127919932Y-49201158D01*
X127936725Y-49116731D01*
X136418336Y-49116731D01*
X137160000Y-49858395D01*
X137901664Y-49116731D01*
X137842203Y-48882963D01*
X137603758Y-48772066D01*
X137348260Y-48709817D01*
X137085527Y-48698610D01*
X136825656Y-48738875D01*
X136578634Y-48829065D01*
X136477797Y-48882963D01*
X136418336Y-49116731D01*
X127936725Y-49116731D01*
X127977000Y-48914260D01*
X127977000Y-48621740D01*
X127919932Y-48334842D01*
X127807990Y-48064589D01*
X127645475Y-47821368D01*
X127513620Y-47689513D01*
X127586180Y-47667502D01*
X127696494Y-47608537D01*
X127793185Y-47529185D01*
X127872537Y-47432494D01*
X127931502Y-47322180D01*
X127967812Y-47202482D01*
X127973052Y-47149269D01*
X136418336Y-47149269D01*
X136477797Y-47383037D01*
X136716242Y-47493934D01*
X136971740Y-47556183D01*
X137234473Y-47567390D01*
X137494344Y-47527125D01*
X137741366Y-47436935D01*
X137842203Y-47383037D01*
X137901664Y-47149269D01*
X137160000Y-46407605D01*
X136418336Y-47149269D01*
X127973052Y-47149269D01*
X127980072Y-47078000D01*
X127980072Y-46302473D01*
X135820610Y-46302473D01*
X135860875Y-46562344D01*
X135951065Y-46809366D01*
X136004963Y-46910203D01*
X136238731Y-46969664D01*
X136980395Y-46228000D01*
X137339605Y-46228000D01*
X138081269Y-46969664D01*
X138315037Y-46910203D01*
X138425934Y-46671758D01*
X138488183Y-46416260D01*
X138499390Y-46153527D01*
X138490557Y-46096514D01*
X143445000Y-46096514D01*
X143445000Y-46359486D01*
X143496304Y-46617405D01*
X143596939Y-46860359D01*
X143743038Y-47079013D01*
X143928987Y-47264962D01*
X144147641Y-47411061D01*
X144390595Y-47511696D01*
X144648514Y-47563000D01*
X144911486Y-47563000D01*
X145169405Y-47511696D01*
X145412359Y-47411061D01*
X145631013Y-47264962D01*
X145816962Y-47079013D01*
X145963061Y-46860359D01*
X146063696Y-46617405D01*
X146115000Y-46359486D01*
X146115000Y-46096514D01*
X146063696Y-45838595D01*
X145963061Y-45595641D01*
X145816962Y-45376987D01*
X145631013Y-45191038D01*
X145412359Y-45044939D01*
X145169405Y-44944304D01*
X144911486Y-44893000D01*
X144648514Y-44893000D01*
X144390595Y-44944304D01*
X144147641Y-45044939D01*
X143928987Y-45191038D01*
X143743038Y-45376987D01*
X143596939Y-45595641D01*
X143496304Y-45838595D01*
X143445000Y-46096514D01*
X138490557Y-46096514D01*
X138459125Y-45893656D01*
X138368935Y-45646634D01*
X138315037Y-45545797D01*
X138081269Y-45486336D01*
X137339605Y-46228000D01*
X136980395Y-46228000D01*
X136238731Y-45486336D01*
X136004963Y-45545797D01*
X135894066Y-45784242D01*
X135831817Y-46039740D01*
X135820610Y-46302473D01*
X127980072Y-46302473D01*
X127980072Y-45378000D01*
X127973053Y-45306731D01*
X136418336Y-45306731D01*
X137160000Y-46048395D01*
X137901664Y-45306731D01*
X137842203Y-45072963D01*
X137603758Y-44962066D01*
X137348260Y-44899817D01*
X137085527Y-44888610D01*
X136825656Y-44928875D01*
X136578634Y-45019065D01*
X136477797Y-45072963D01*
X136418336Y-45306731D01*
X127973053Y-45306731D01*
X127967812Y-45253518D01*
X127931502Y-45133820D01*
X127872537Y-45023506D01*
X127793185Y-44926815D01*
X127696494Y-44847463D01*
X127586180Y-44788498D01*
X127466482Y-44752188D01*
X127342000Y-44739928D01*
X125642000Y-44739928D01*
X125517518Y-44752188D01*
X125397820Y-44788498D01*
X125287506Y-44847463D01*
X125190815Y-44926815D01*
X125111463Y-45023506D01*
X125052498Y-45133820D01*
X125016188Y-45253518D01*
X125003928Y-45378000D01*
X125003928Y-46641270D01*
X124653199Y-46992000D01*
X113321322Y-46992000D01*
X113283999Y-46988324D01*
X113246676Y-46992000D01*
X113246667Y-46992000D01*
X113135014Y-47002997D01*
X112991753Y-47046454D01*
X112859724Y-47117026D01*
X112743999Y-47211999D01*
X112720201Y-47240997D01*
X110305887Y-49655312D01*
X110123335Y-49619000D01*
X109840665Y-49619000D01*
X109563426Y-49674147D01*
X109302273Y-49782320D01*
X109067241Y-49939363D01*
X108867363Y-50139241D01*
X108710320Y-50374273D01*
X108602147Y-50635426D01*
X108547000Y-50912665D01*
X103800072Y-50912665D01*
X103800072Y-50254000D01*
X103787812Y-50129518D01*
X103751502Y-50009820D01*
X103692537Y-49899506D01*
X103613185Y-49802815D01*
X103516494Y-49723463D01*
X103406180Y-49664498D01*
X103286482Y-49628188D01*
X103162000Y-49615928D01*
X101562000Y-49615928D01*
X101437518Y-49628188D01*
X101317820Y-49664498D01*
X101207506Y-49723463D01*
X101110815Y-49802815D01*
X101031463Y-49899506D01*
X101021043Y-49919000D01*
X88608133Y-49919000D01*
X86011000Y-47321869D01*
X86011000Y-46458702D01*
X86562903Y-46458702D01*
X86634486Y-46702671D01*
X86889996Y-46823571D01*
X87164184Y-46892300D01*
X87446512Y-46906217D01*
X87726130Y-46864787D01*
X87992292Y-46769603D01*
X88117514Y-46702671D01*
X88189097Y-46458702D01*
X87376000Y-45645605D01*
X86562903Y-46458702D01*
X86011000Y-46458702D01*
X86011000Y-46350284D01*
X86124692Y-46180131D01*
X86139329Y-46207514D01*
X86383298Y-46279097D01*
X87196395Y-45466000D01*
X87555605Y-45466000D01*
X88368702Y-46279097D01*
X88612671Y-46207514D01*
X88733571Y-45952004D01*
X88802300Y-45677816D01*
X88816217Y-45395488D01*
X88774787Y-45115870D01*
X88679603Y-44849708D01*
X88612671Y-44724486D01*
X88368702Y-44652903D01*
X87555605Y-45466000D01*
X87196395Y-45466000D01*
X86383298Y-44652903D01*
X86139329Y-44724486D01*
X86125676Y-44753341D01*
X85990637Y-44551241D01*
X85971000Y-44531604D01*
X85971000Y-44473298D01*
X86562903Y-44473298D01*
X87376000Y-45286395D01*
X88189097Y-44473298D01*
X88117514Y-44229329D01*
X87862004Y-44108429D01*
X87587816Y-44039700D01*
X87305488Y-44025783D01*
X87025870Y-44067213D01*
X86759708Y-44162397D01*
X86634486Y-44229329D01*
X86562903Y-44473298D01*
X85971000Y-44473298D01*
X85971000Y-43339269D01*
X136418336Y-43339269D01*
X136477797Y-43573037D01*
X136716242Y-43683934D01*
X136971740Y-43746183D01*
X137234473Y-43757390D01*
X137494344Y-43717125D01*
X137741366Y-43626935D01*
X137842203Y-43573037D01*
X137901664Y-43339269D01*
X137160000Y-42597605D01*
X136418336Y-43339269D01*
X85971000Y-43339269D01*
X85971000Y-42492473D01*
X135820610Y-42492473D01*
X135860875Y-42752344D01*
X135951065Y-42999366D01*
X136004963Y-43100203D01*
X136238731Y-43159664D01*
X136980395Y-42418000D01*
X137339605Y-42418000D01*
X138081269Y-43159664D01*
X138315037Y-43100203D01*
X138425934Y-42861758D01*
X138488183Y-42606260D01*
X138499390Y-42343527D01*
X138490557Y-42286514D01*
X143445000Y-42286514D01*
X143445000Y-42549486D01*
X143496304Y-42807405D01*
X143596939Y-43050359D01*
X143743038Y-43269013D01*
X143928987Y-43454962D01*
X144147641Y-43601061D01*
X144390595Y-43701696D01*
X144648514Y-43753000D01*
X144911486Y-43753000D01*
X145169405Y-43701696D01*
X145412359Y-43601061D01*
X145631013Y-43454962D01*
X145816962Y-43269013D01*
X145963061Y-43050359D01*
X146063696Y-42807405D01*
X146115000Y-42549486D01*
X146115000Y-42286514D01*
X146063696Y-42028595D01*
X145963061Y-41785641D01*
X145816962Y-41566987D01*
X145631013Y-41381038D01*
X145412359Y-41234939D01*
X145169405Y-41134304D01*
X144911486Y-41083000D01*
X144648514Y-41083000D01*
X144390595Y-41134304D01*
X144147641Y-41234939D01*
X143928987Y-41381038D01*
X143743038Y-41566987D01*
X143596939Y-41785641D01*
X143496304Y-42028595D01*
X143445000Y-42286514D01*
X138490557Y-42286514D01*
X138459125Y-42083656D01*
X138368935Y-41836634D01*
X138315037Y-41735797D01*
X138081269Y-41676336D01*
X137339605Y-42418000D01*
X136980395Y-42418000D01*
X136238731Y-41676336D01*
X136004963Y-41735797D01*
X135894066Y-41974242D01*
X135831817Y-42229740D01*
X135820610Y-42492473D01*
X85971000Y-42492473D01*
X85971000Y-41496731D01*
X136418336Y-41496731D01*
X137160000Y-42238395D01*
X137901664Y-41496731D01*
X137842203Y-41262963D01*
X137603758Y-41152066D01*
X137348260Y-41089817D01*
X137085527Y-41078610D01*
X136825656Y-41118875D01*
X136578634Y-41209065D01*
X136477797Y-41262963D01*
X136418336Y-41496731D01*
X85971000Y-41496731D01*
X85971000Y-39529269D01*
X136418336Y-39529269D01*
X136477797Y-39763037D01*
X136716242Y-39873934D01*
X136971740Y-39936183D01*
X137234473Y-39947390D01*
X137494344Y-39907125D01*
X137741366Y-39816935D01*
X137842203Y-39763037D01*
X137901664Y-39529269D01*
X137160000Y-38787605D01*
X136418336Y-39529269D01*
X85971000Y-39529269D01*
X85971000Y-38682473D01*
X135820610Y-38682473D01*
X135860875Y-38942344D01*
X135951065Y-39189366D01*
X136004963Y-39290203D01*
X136238731Y-39349664D01*
X136980395Y-38608000D01*
X137339605Y-38608000D01*
X138081269Y-39349664D01*
X138315037Y-39290203D01*
X138425934Y-39051758D01*
X138488183Y-38796260D01*
X138499390Y-38533527D01*
X138490557Y-38476514D01*
X143445000Y-38476514D01*
X143445000Y-38739486D01*
X143496304Y-38997405D01*
X143596939Y-39240359D01*
X143743038Y-39459013D01*
X143928987Y-39644962D01*
X144147641Y-39791061D01*
X144390595Y-39891696D01*
X144648514Y-39943000D01*
X144911486Y-39943000D01*
X145169405Y-39891696D01*
X145412359Y-39791061D01*
X145631013Y-39644962D01*
X145816962Y-39459013D01*
X145963061Y-39240359D01*
X146063696Y-38997405D01*
X146115000Y-38739486D01*
X146115000Y-38476514D01*
X146063696Y-38218595D01*
X145963061Y-37975641D01*
X145816962Y-37756987D01*
X145631013Y-37571038D01*
X145412359Y-37424939D01*
X145169405Y-37324304D01*
X144911486Y-37273000D01*
X144648514Y-37273000D01*
X144390595Y-37324304D01*
X144147641Y-37424939D01*
X143928987Y-37571038D01*
X143743038Y-37756987D01*
X143596939Y-37975641D01*
X143496304Y-38218595D01*
X143445000Y-38476514D01*
X138490557Y-38476514D01*
X138459125Y-38273656D01*
X138368935Y-38026634D01*
X138315037Y-37925797D01*
X138081269Y-37866336D01*
X137339605Y-38608000D01*
X136980395Y-38608000D01*
X136238731Y-37866336D01*
X136004963Y-37925797D01*
X135894066Y-38164242D01*
X135831817Y-38419740D01*
X135820610Y-38682473D01*
X85971000Y-38682473D01*
X85971000Y-37686731D01*
X136418336Y-37686731D01*
X137160000Y-38428395D01*
X137901664Y-37686731D01*
X137842203Y-37452963D01*
X137603758Y-37342066D01*
X137348260Y-37279817D01*
X137085527Y-37268610D01*
X136825656Y-37308875D01*
X136578634Y-37399065D01*
X136477797Y-37452963D01*
X136418336Y-37686731D01*
X85971000Y-37686731D01*
X85971000Y-36723683D01*
X86040494Y-36686537D01*
X86137185Y-36607185D01*
X86216537Y-36510494D01*
X86275502Y-36400180D01*
X86299966Y-36319534D01*
X86375731Y-36403588D01*
X86609080Y-36577641D01*
X86871901Y-36702825D01*
X87019110Y-36747476D01*
X87249000Y-36626155D01*
X87249000Y-35433000D01*
X87503000Y-35433000D01*
X87503000Y-36626155D01*
X87732890Y-36747476D01*
X87880099Y-36702825D01*
X88142920Y-36577641D01*
X88376269Y-36403588D01*
X88571178Y-36187355D01*
X88720157Y-35937252D01*
X88797482Y-35719269D01*
X136418336Y-35719269D01*
X136477797Y-35953037D01*
X136716242Y-36063934D01*
X136971740Y-36126183D01*
X137234473Y-36137390D01*
X137494344Y-36097125D01*
X137741366Y-36006935D01*
X137842203Y-35953037D01*
X137901664Y-35719269D01*
X137160000Y-34977605D01*
X136418336Y-35719269D01*
X88797482Y-35719269D01*
X88817481Y-35662891D01*
X88696814Y-35433000D01*
X87503000Y-35433000D01*
X87249000Y-35433000D01*
X87229000Y-35433000D01*
X87229000Y-35179000D01*
X87249000Y-35179000D01*
X87249000Y-33985845D01*
X87503000Y-33985845D01*
X87503000Y-35179000D01*
X88696814Y-35179000D01*
X88817481Y-34949109D01*
X88790296Y-34872473D01*
X135820610Y-34872473D01*
X135860875Y-35132344D01*
X135951065Y-35379366D01*
X136004963Y-35480203D01*
X136238731Y-35539664D01*
X136980395Y-34798000D01*
X137339605Y-34798000D01*
X138081269Y-35539664D01*
X138315037Y-35480203D01*
X138425934Y-35241758D01*
X138488183Y-34986260D01*
X138499390Y-34723527D01*
X138490557Y-34666514D01*
X143445000Y-34666514D01*
X143445000Y-34929486D01*
X143496304Y-35187405D01*
X143596939Y-35430359D01*
X143743038Y-35649013D01*
X143928987Y-35834962D01*
X144147641Y-35981061D01*
X144390595Y-36081696D01*
X144648514Y-36133000D01*
X144911486Y-36133000D01*
X145169405Y-36081696D01*
X145412359Y-35981061D01*
X145631013Y-35834962D01*
X145816962Y-35649013D01*
X145963061Y-35430359D01*
X146063696Y-35187405D01*
X146115000Y-34929486D01*
X146115000Y-34666514D01*
X146063696Y-34408595D01*
X145963061Y-34165641D01*
X145816962Y-33946987D01*
X145631013Y-33761038D01*
X145412359Y-33614939D01*
X145169405Y-33514304D01*
X144911486Y-33463000D01*
X144648514Y-33463000D01*
X144390595Y-33514304D01*
X144147641Y-33614939D01*
X143928987Y-33761038D01*
X143743038Y-33946987D01*
X143596939Y-34165641D01*
X143496304Y-34408595D01*
X143445000Y-34666514D01*
X138490557Y-34666514D01*
X138459125Y-34463656D01*
X138368935Y-34216634D01*
X138315037Y-34115797D01*
X138081269Y-34056336D01*
X137339605Y-34798000D01*
X136980395Y-34798000D01*
X136238731Y-34056336D01*
X136004963Y-34115797D01*
X135894066Y-34354242D01*
X135831817Y-34609740D01*
X135820610Y-34872473D01*
X88790296Y-34872473D01*
X88720157Y-34674748D01*
X88571178Y-34424645D01*
X88376269Y-34208412D01*
X88142920Y-34034359D01*
X87880099Y-33909175D01*
X87773136Y-33876731D01*
X136418336Y-33876731D01*
X137160000Y-34618395D01*
X137901664Y-33876731D01*
X137842203Y-33642963D01*
X137603758Y-33532066D01*
X137348260Y-33469817D01*
X137085527Y-33458610D01*
X136825656Y-33498875D01*
X136578634Y-33589065D01*
X136477797Y-33642963D01*
X136418336Y-33876731D01*
X87773136Y-33876731D01*
X87732890Y-33864524D01*
X87503000Y-33985845D01*
X87249000Y-33985845D01*
X87019110Y-33864524D01*
X86871901Y-33909175D01*
X86609080Y-34034359D01*
X86375731Y-34208412D01*
X86299966Y-34292466D01*
X86275502Y-34211820D01*
X86216537Y-34101506D01*
X86137185Y-34004815D01*
X86040494Y-33925463D01*
X85930180Y-33866498D01*
X85810482Y-33830188D01*
X85686000Y-33817928D01*
X83986000Y-33817928D01*
X83861518Y-33830188D01*
X83741820Y-33866498D01*
X83631506Y-33925463D01*
X83534815Y-34004815D01*
X83455463Y-34101506D01*
X83396498Y-34211820D01*
X83360188Y-34331518D01*
X83347928Y-34456000D01*
X81432000Y-34456000D01*
X81432000Y-31140000D01*
X149708000Y-31140000D01*
X149708001Y-131420000D01*
%TA.AperFunction,Conductor*%
D23*
G36*
X149708001Y-131420000D02*
G01*
X81432000Y-131420000D01*
X81432000Y-53710000D01*
X83551928Y-53710000D01*
X83551928Y-55510000D01*
X83564188Y-55634482D01*
X83600498Y-55754180D01*
X83659463Y-55864494D01*
X83738815Y-55961185D01*
X83835506Y-56040537D01*
X83945820Y-56099502D01*
X84065518Y-56135812D01*
X84190000Y-56148072D01*
X85990000Y-56148072D01*
X86114482Y-56135812D01*
X86234180Y-56099502D01*
X86344494Y-56040537D01*
X86441185Y-55961185D01*
X86520537Y-55864494D01*
X86579502Y-55754180D01*
X86585056Y-55735873D01*
X86651495Y-55802312D01*
X86902905Y-55970299D01*
X87182257Y-56086011D01*
X87478816Y-56145000D01*
X87781184Y-56145000D01*
X88077743Y-56086011D01*
X88357095Y-55970299D01*
X88608505Y-55802312D01*
X88665817Y-55745000D01*
X95795869Y-55745000D01*
X97925001Y-57874134D01*
X97925001Y-66359525D01*
X97902957Y-66333029D01*
X97869988Y-66292856D01*
X97867288Y-66290156D01*
X97829018Y-66244157D01*
X97788443Y-66211311D01*
X95583996Y-64006865D01*
X95548449Y-63963551D01*
X95375623Y-63821716D01*
X95178447Y-63716324D01*
X94964499Y-63651423D01*
X94797752Y-63635000D01*
X94797751Y-63635000D01*
X94742000Y-63629509D01*
X94686249Y-63635000D01*
X88665817Y-63635000D01*
X88608505Y-63577688D01*
X88357095Y-63409701D01*
X88077743Y-63293989D01*
X87781184Y-63235000D01*
X87478816Y-63235000D01*
X87182257Y-63293989D01*
X86902905Y-63409701D01*
X86651495Y-63577688D01*
X86585056Y-63644127D01*
X86579502Y-63625820D01*
X86520537Y-63515506D01*
X86441185Y-63418815D01*
X86344494Y-63339463D01*
X86234180Y-63280498D01*
X86114482Y-63244188D01*
X85990000Y-63231928D01*
X84190000Y-63231928D01*
X84065518Y-63244188D01*
X83945820Y-63280498D01*
X83835506Y-63339463D01*
X83738815Y-63418815D01*
X83659463Y-63515506D01*
X83600498Y-63625820D01*
X83564188Y-63745518D01*
X83551928Y-63870000D01*
X83551928Y-65670000D01*
X83564188Y-65794482D01*
X83600498Y-65914180D01*
X83659463Y-66024494D01*
X83738815Y-66121185D01*
X83835506Y-66200537D01*
X83945820Y-66259502D01*
X84065518Y-66295812D01*
X84190000Y-66308072D01*
X85990000Y-66308072D01*
X86114482Y-66295812D01*
X86234180Y-66259502D01*
X86344494Y-66200537D01*
X86441185Y-66121185D01*
X86520537Y-66024494D01*
X86579502Y-65914180D01*
X86585056Y-65895873D01*
X86651495Y-65962312D01*
X86902905Y-66130299D01*
X87182257Y-66246011D01*
X87478816Y-66305000D01*
X87781184Y-66305000D01*
X88077743Y-66246011D01*
X88357095Y-66130299D01*
X88608505Y-65962312D01*
X88665817Y-65905000D01*
X94271869Y-65905000D01*
X95896151Y-67529283D01*
X95953406Y-76060275D01*
X94059996Y-74166865D01*
X94024449Y-74123551D01*
X93851623Y-73981716D01*
X93654447Y-73876324D01*
X93440499Y-73811423D01*
X93273752Y-73795000D01*
X93273751Y-73795000D01*
X93218000Y-73789509D01*
X93162249Y-73795000D01*
X88665817Y-73795000D01*
X88608505Y-73737688D01*
X88357095Y-73569701D01*
X88077743Y-73453989D01*
X87781184Y-73395000D01*
X87478816Y-73395000D01*
X87182257Y-73453989D01*
X86902905Y-73569701D01*
X86651495Y-73737688D01*
X86585056Y-73804127D01*
X86579502Y-73785820D01*
X86520537Y-73675506D01*
X86441185Y-73578815D01*
X86344494Y-73499463D01*
X86234180Y-73440498D01*
X86114482Y-73404188D01*
X85990000Y-73391928D01*
X84190000Y-73391928D01*
X84065518Y-73404188D01*
X83945820Y-73440498D01*
X83835506Y-73499463D01*
X83738815Y-73578815D01*
X83659463Y-73675506D01*
X83600498Y-73785820D01*
X83564188Y-73905518D01*
X83551928Y-74030000D01*
X83551928Y-75830000D01*
X83564188Y-75954482D01*
X83600498Y-76074180D01*
X83659463Y-76184494D01*
X83738815Y-76281185D01*
X83835506Y-76360537D01*
X83945820Y-76419502D01*
X84065518Y-76455812D01*
X84190000Y-76468072D01*
X85990000Y-76468072D01*
X86114482Y-76455812D01*
X86234180Y-76419502D01*
X86344494Y-76360537D01*
X86441185Y-76281185D01*
X86520537Y-76184494D01*
X86579502Y-76074180D01*
X86585056Y-76055873D01*
X86651495Y-76122312D01*
X86902905Y-76290299D01*
X87182257Y-76406011D01*
X87478816Y-76465000D01*
X87781184Y-76465000D01*
X88077743Y-76406011D01*
X88357095Y-76290299D01*
X88608505Y-76122312D01*
X88665817Y-76065000D01*
X92747869Y-76065000D01*
X94369001Y-77686133D01*
X94369001Y-86171888D01*
X94313989Y-86104856D01*
X94313987Y-86104854D01*
X94278449Y-86061551D01*
X94235146Y-86026013D01*
X92535995Y-84326864D01*
X92500449Y-84283551D01*
X92327623Y-84141716D01*
X92130447Y-84036324D01*
X91916499Y-83971423D01*
X91749752Y-83955000D01*
X91749751Y-83955000D01*
X91694000Y-83949509D01*
X91638249Y-83955000D01*
X88665817Y-83955000D01*
X88608505Y-83897688D01*
X88357095Y-83729701D01*
X88077743Y-83613989D01*
X87781184Y-83555000D01*
X87478816Y-83555000D01*
X87182257Y-83613989D01*
X86902905Y-83729701D01*
X86651495Y-83897688D01*
X86585056Y-83964127D01*
X86579502Y-83945820D01*
X86520537Y-83835506D01*
X86441185Y-83738815D01*
X86344494Y-83659463D01*
X86234180Y-83600498D01*
X86114482Y-83564188D01*
X85990000Y-83551928D01*
X84190000Y-83551928D01*
X84065518Y-83564188D01*
X83945820Y-83600498D01*
X83835506Y-83659463D01*
X83738815Y-83738815D01*
X83659463Y-83835506D01*
X83600498Y-83945820D01*
X83564188Y-84065518D01*
X83551928Y-84190000D01*
X83551928Y-85990000D01*
X83564188Y-86114482D01*
X83600498Y-86234180D01*
X83659463Y-86344494D01*
X83738815Y-86441185D01*
X83835506Y-86520537D01*
X83945820Y-86579502D01*
X84065518Y-86615812D01*
X84190000Y-86628072D01*
X85990000Y-86628072D01*
X86114482Y-86615812D01*
X86234180Y-86579502D01*
X86344494Y-86520537D01*
X86441185Y-86441185D01*
X86520537Y-86344494D01*
X86579502Y-86234180D01*
X86585056Y-86215873D01*
X86651495Y-86282312D01*
X86902905Y-86450299D01*
X87182257Y-86566011D01*
X87478816Y-86625000D01*
X87781184Y-86625000D01*
X88077743Y-86566011D01*
X88357095Y-86450299D01*
X88608505Y-86282312D01*
X88665817Y-86225000D01*
X91223869Y-86225000D01*
X92337001Y-87338134D01*
X92337000Y-98351869D01*
X89165000Y-95179869D01*
X89165000Y-95098816D01*
X89106011Y-94802257D01*
X88990299Y-94522905D01*
X88822312Y-94271495D01*
X88608505Y-94057688D01*
X88357095Y-93889701D01*
X88077743Y-93773989D01*
X87781184Y-93715000D01*
X87478816Y-93715000D01*
X87182257Y-93773989D01*
X86902905Y-93889701D01*
X86651495Y-94057688D01*
X86585056Y-94124127D01*
X86579502Y-94105820D01*
X86520537Y-93995506D01*
X86441185Y-93898815D01*
X86344494Y-93819463D01*
X86234180Y-93760498D01*
X86114482Y-93724188D01*
X85990000Y-93711928D01*
X84190000Y-93711928D01*
X84065518Y-93724188D01*
X83945820Y-93760498D01*
X83835506Y-93819463D01*
X83738815Y-93898815D01*
X83659463Y-93995506D01*
X83600498Y-94105820D01*
X83564188Y-94225518D01*
X83551928Y-94350000D01*
X83551928Y-96150000D01*
X83564188Y-96274482D01*
X83600498Y-96394180D01*
X83659463Y-96504494D01*
X83738815Y-96601185D01*
X83835506Y-96680537D01*
X83945820Y-96739502D01*
X84065518Y-96775812D01*
X84190000Y-96788072D01*
X85990000Y-96788072D01*
X86114482Y-96775812D01*
X86234180Y-96739502D01*
X86344494Y-96680537D01*
X86441185Y-96601185D01*
X86520537Y-96504494D01*
X86579502Y-96394180D01*
X86585056Y-96375873D01*
X86651495Y-96442312D01*
X86902905Y-96610299D01*
X87182257Y-96726011D01*
X87478816Y-96785000D01*
X87559869Y-96785000D01*
X90813001Y-100038133D01*
X90813000Y-108065560D01*
X88885095Y-106294544D01*
X88990299Y-106137095D01*
X89106011Y-105857743D01*
X89165000Y-105561184D01*
X89165000Y-105258816D01*
X89106011Y-104962257D01*
X88990299Y-104682905D01*
X88822312Y-104431495D01*
X88608505Y-104217688D01*
X88357095Y-104049701D01*
X88077743Y-103933989D01*
X87781184Y-103875000D01*
X87478816Y-103875000D01*
X87182257Y-103933989D01*
X86902905Y-104049701D01*
X86651495Y-104217688D01*
X86585056Y-104284127D01*
X86579502Y-104265820D01*
X86520537Y-104155506D01*
X86441185Y-104058815D01*
X86344494Y-103979463D01*
X86234180Y-103920498D01*
X86114482Y-103884188D01*
X85990000Y-103871928D01*
X84190000Y-103871928D01*
X84065518Y-103884188D01*
X83945820Y-103920498D01*
X83835506Y-103979463D01*
X83738815Y-104058815D01*
X83659463Y-104155506D01*
X83600498Y-104265820D01*
X83564188Y-104385518D01*
X83551928Y-104510000D01*
X83551928Y-106310000D01*
X83564188Y-106434482D01*
X83600498Y-106554180D01*
X83659463Y-106664494D01*
X83738815Y-106761185D01*
X83835506Y-106840537D01*
X83945820Y-106899502D01*
X84065518Y-106935812D01*
X84190000Y-106948072D01*
X85990000Y-106948072D01*
X86114482Y-106935812D01*
X86234180Y-106899502D01*
X86344494Y-106840537D01*
X86441185Y-106761185D01*
X86492336Y-106698858D01*
X86490534Y-106731122D01*
X86502823Y-106817974D01*
X86511423Y-106905290D01*
X86518461Y-106928491D01*
X86521857Y-106952492D01*
X86550857Y-107035286D01*
X86576324Y-107119238D01*
X86587752Y-107140619D01*
X86595766Y-107163498D01*
X86640356Y-107239035D01*
X86681716Y-107316415D01*
X86697098Y-107335158D01*
X86709419Y-107356030D01*
X86767881Y-107421407D01*
X86823551Y-107489241D01*
X86885494Y-107540077D01*
X96132959Y-116035001D01*
X89700133Y-116035001D01*
X89165000Y-115499869D01*
X89165000Y-115418816D01*
X89106011Y-115122257D01*
X88990299Y-114842905D01*
X88822312Y-114591495D01*
X88608505Y-114377688D01*
X88357095Y-114209701D01*
X88077743Y-114093989D01*
X87781184Y-114035000D01*
X87478816Y-114035000D01*
X87182257Y-114093989D01*
X86902905Y-114209701D01*
X86651495Y-114377688D01*
X86585056Y-114444127D01*
X86579502Y-114425820D01*
X86520537Y-114315506D01*
X86441185Y-114218815D01*
X86344494Y-114139463D01*
X86234180Y-114080498D01*
X86114482Y-114044188D01*
X85990000Y-114031928D01*
X84190000Y-114031928D01*
X84065518Y-114044188D01*
X83945820Y-114080498D01*
X83835506Y-114139463D01*
X83738815Y-114218815D01*
X83659463Y-114315506D01*
X83600498Y-114425820D01*
X83564188Y-114545518D01*
X83551928Y-114670000D01*
X83551928Y-116470000D01*
X83564188Y-116594482D01*
X83600498Y-116714180D01*
X83659463Y-116824494D01*
X83738815Y-116921185D01*
X83835506Y-117000537D01*
X83945820Y-117059502D01*
X84065518Y-117095812D01*
X84190000Y-117108072D01*
X85990000Y-117108072D01*
X86114482Y-117095812D01*
X86234180Y-117059502D01*
X86344494Y-117000537D01*
X86441185Y-116921185D01*
X86520537Y-116824494D01*
X86579502Y-116714180D01*
X86585056Y-116695873D01*
X86651495Y-116762312D01*
X86902905Y-116930299D01*
X87182257Y-117046011D01*
X87478816Y-117105000D01*
X87559869Y-117105000D01*
X88388010Y-117933141D01*
X88423552Y-117976450D01*
X88596378Y-118118285D01*
X88793554Y-118223677D01*
X88957706Y-118273472D01*
X89007501Y-118288578D01*
X89230000Y-118310492D01*
X89285752Y-118305001D01*
X122042248Y-118305001D01*
X122097999Y-118310492D01*
X122153750Y-118305001D01*
X122153751Y-118305001D01*
X122320498Y-118288578D01*
X122534446Y-118223677D01*
X122731622Y-118118285D01*
X122904448Y-117976450D01*
X122939995Y-117933136D01*
X123914132Y-116959000D01*
X126542893Y-116959000D01*
X126561368Y-116977475D01*
X126735760Y-117094000D01*
X126561368Y-117210525D01*
X126354525Y-117417368D01*
X126192010Y-117660589D01*
X126080068Y-117930842D01*
X126023000Y-118217740D01*
X126023000Y-118243868D01*
X119671869Y-124595000D01*
X88665817Y-124595000D01*
X88608505Y-124537688D01*
X88357095Y-124369701D01*
X88077743Y-124253989D01*
X87781184Y-124195000D01*
X87478816Y-124195000D01*
X87182257Y-124253989D01*
X86902905Y-124369701D01*
X86651495Y-124537688D01*
X86585056Y-124604127D01*
X86579502Y-124585820D01*
X86520537Y-124475506D01*
X86441185Y-124378815D01*
X86344494Y-124299463D01*
X86234180Y-124240498D01*
X86114482Y-124204188D01*
X85990000Y-124191928D01*
X84190000Y-124191928D01*
X84065518Y-124204188D01*
X83945820Y-124240498D01*
X83835506Y-124299463D01*
X83738815Y-124378815D01*
X83659463Y-124475506D01*
X83600498Y-124585820D01*
X83564188Y-124705518D01*
X83551928Y-124830000D01*
X83551928Y-126630000D01*
X83564188Y-126754482D01*
X83600498Y-126874180D01*
X83659463Y-126984494D01*
X83738815Y-127081185D01*
X83835506Y-127160537D01*
X83945820Y-127219502D01*
X84065518Y-127255812D01*
X84190000Y-127268072D01*
X85990000Y-127268072D01*
X86114482Y-127255812D01*
X86234180Y-127219502D01*
X86344494Y-127160537D01*
X86441185Y-127081185D01*
X86520537Y-126984494D01*
X86579502Y-126874180D01*
X86585056Y-126855873D01*
X86651495Y-126922312D01*
X86902905Y-127090299D01*
X87182257Y-127206011D01*
X87478816Y-127265000D01*
X87781184Y-127265000D01*
X88077743Y-127206011D01*
X88357095Y-127090299D01*
X88608505Y-126922312D01*
X88665817Y-126865000D01*
X120086249Y-126865000D01*
X120142000Y-126870491D01*
X120197751Y-126865000D01*
X120197752Y-126865000D01*
X120364499Y-126848577D01*
X120578447Y-126783676D01*
X120775623Y-126678284D01*
X120948449Y-126536449D01*
X120983996Y-126493135D01*
X121841862Y-125635269D01*
X136418336Y-125635269D01*
X136477797Y-125869037D01*
X136716242Y-125979934D01*
X136971740Y-126042183D01*
X137234473Y-126053390D01*
X137494344Y-126013125D01*
X137741366Y-125922935D01*
X137842203Y-125869037D01*
X137901664Y-125635269D01*
X137160000Y-124893605D01*
X136418336Y-125635269D01*
X121841862Y-125635269D01*
X122688658Y-124788473D01*
X135820610Y-124788473D01*
X135860875Y-125048344D01*
X135951065Y-125295366D01*
X136004963Y-125396203D01*
X136238731Y-125455664D01*
X136980395Y-124714000D01*
X137339605Y-124714000D01*
X138081269Y-125455664D01*
X138315037Y-125396203D01*
X138425934Y-125157758D01*
X138488183Y-124902260D01*
X138499390Y-124639527D01*
X138490557Y-124582514D01*
X143445000Y-124582514D01*
X143445000Y-124845486D01*
X143496304Y-125103405D01*
X143596939Y-125346359D01*
X143743038Y-125565013D01*
X143928987Y-125750962D01*
X144147641Y-125897061D01*
X144390595Y-125997696D01*
X144648514Y-126049000D01*
X144911486Y-126049000D01*
X145169405Y-125997696D01*
X145412359Y-125897061D01*
X145631013Y-125750962D01*
X145816962Y-125565013D01*
X145963061Y-125346359D01*
X146063696Y-125103405D01*
X146115000Y-124845486D01*
X146115000Y-124582514D01*
X146063696Y-124324595D01*
X145963061Y-124081641D01*
X145816962Y-123862987D01*
X145631013Y-123677038D01*
X145412359Y-123530939D01*
X145169405Y-123430304D01*
X144911486Y-123379000D01*
X144648514Y-123379000D01*
X144390595Y-123430304D01*
X144147641Y-123530939D01*
X143928987Y-123677038D01*
X143743038Y-123862987D01*
X143596939Y-124081641D01*
X143496304Y-124324595D01*
X143445000Y-124582514D01*
X138490557Y-124582514D01*
X138459125Y-124379656D01*
X138368935Y-124132634D01*
X138315037Y-124031797D01*
X138081269Y-123972336D01*
X137339605Y-124714000D01*
X136980395Y-124714000D01*
X136238731Y-123972336D01*
X136004963Y-124031797D01*
X135894066Y-124270242D01*
X135831817Y-124525740D01*
X135820610Y-124788473D01*
X122688658Y-124788473D01*
X123684400Y-123792731D01*
X136418336Y-123792731D01*
X137160000Y-124534395D01*
X137901664Y-123792731D01*
X137842203Y-123558963D01*
X137603758Y-123448066D01*
X137348260Y-123385817D01*
X137085527Y-123374610D01*
X136825656Y-123414875D01*
X136578634Y-123505065D01*
X136477797Y-123558963D01*
X136418336Y-123792731D01*
X123684400Y-123792731D01*
X126159862Y-121317269D01*
X136418336Y-121317269D01*
X136477797Y-121551037D01*
X136716242Y-121661934D01*
X136971740Y-121724183D01*
X137234473Y-121735390D01*
X137494344Y-121695125D01*
X137741366Y-121604935D01*
X137842203Y-121551037D01*
X137901664Y-121317269D01*
X137160000Y-120575605D01*
X136418336Y-121317269D01*
X126159862Y-121317269D01*
X127006658Y-120470473D01*
X135820610Y-120470473D01*
X135860875Y-120730344D01*
X135951065Y-120977366D01*
X136004963Y-121078203D01*
X136238731Y-121137664D01*
X136980395Y-120396000D01*
X137339605Y-120396000D01*
X138081269Y-121137664D01*
X138315037Y-121078203D01*
X138425934Y-120839758D01*
X138488183Y-120584260D01*
X138499390Y-120321527D01*
X138490557Y-120264514D01*
X143445000Y-120264514D01*
X143445000Y-120527486D01*
X143496304Y-120785405D01*
X143596939Y-121028359D01*
X143743038Y-121247013D01*
X143928987Y-121432962D01*
X144147641Y-121579061D01*
X144390595Y-121679696D01*
X144648514Y-121731000D01*
X144911486Y-121731000D01*
X145169405Y-121679696D01*
X145412359Y-121579061D01*
X145631013Y-121432962D01*
X145816962Y-121247013D01*
X145963061Y-121028359D01*
X146063696Y-120785405D01*
X146115000Y-120527486D01*
X146115000Y-120264514D01*
X146063696Y-120006595D01*
X145963061Y-119763641D01*
X145816962Y-119544987D01*
X145631013Y-119359038D01*
X145412359Y-119212939D01*
X145169405Y-119112304D01*
X144911486Y-119061000D01*
X144648514Y-119061000D01*
X144390595Y-119112304D01*
X144147641Y-119212939D01*
X143928987Y-119359038D01*
X143743038Y-119544987D01*
X143596939Y-119763641D01*
X143496304Y-120006595D01*
X143445000Y-120264514D01*
X138490557Y-120264514D01*
X138459125Y-120061656D01*
X138368935Y-119814634D01*
X138315037Y-119713797D01*
X138081269Y-119654336D01*
X137339605Y-120396000D01*
X136980395Y-120396000D01*
X136238731Y-119654336D01*
X136004963Y-119713797D01*
X135894066Y-119952242D01*
X135831817Y-120207740D01*
X135820610Y-120470473D01*
X127006658Y-120470473D01*
X127628132Y-119849000D01*
X127654260Y-119849000D01*
X127941158Y-119791932D01*
X128211411Y-119679990D01*
X128454632Y-119517475D01*
X128497376Y-119474731D01*
X136418336Y-119474731D01*
X137160000Y-120216395D01*
X137901664Y-119474731D01*
X137842203Y-119240963D01*
X137603758Y-119130066D01*
X137348260Y-119067817D01*
X137085527Y-119056610D01*
X136825656Y-119096875D01*
X136578634Y-119187065D01*
X136477797Y-119240963D01*
X136418336Y-119474731D01*
X128497376Y-119474731D01*
X128661475Y-119310632D01*
X128823990Y-119067411D01*
X128935932Y-118797158D01*
X128993000Y-118510260D01*
X128993000Y-118217740D01*
X128935932Y-117930842D01*
X128823990Y-117660589D01*
X128661475Y-117417368D01*
X128497376Y-117253269D01*
X136418336Y-117253269D01*
X136477797Y-117487037D01*
X136716242Y-117597934D01*
X136971740Y-117660183D01*
X137234473Y-117671390D01*
X137494344Y-117631125D01*
X137741366Y-117540935D01*
X137842203Y-117487037D01*
X137901664Y-117253269D01*
X137160000Y-116511605D01*
X136418336Y-117253269D01*
X128497376Y-117253269D01*
X128454632Y-117210525D01*
X128280240Y-117094000D01*
X128454632Y-116977475D01*
X128661475Y-116770632D01*
X128823990Y-116527411D01*
X128874083Y-116406473D01*
X135820610Y-116406473D01*
X135860875Y-116666344D01*
X135951065Y-116913366D01*
X136004963Y-117014203D01*
X136238731Y-117073664D01*
X136980395Y-116332000D01*
X137339605Y-116332000D01*
X138081269Y-117073664D01*
X138315037Y-117014203D01*
X138425934Y-116775758D01*
X138488183Y-116520260D01*
X138499390Y-116257527D01*
X138490557Y-116200514D01*
X143445000Y-116200514D01*
X143445000Y-116463486D01*
X143496304Y-116721405D01*
X143596939Y-116964359D01*
X143743038Y-117183013D01*
X143928987Y-117368962D01*
X144147641Y-117515061D01*
X144390595Y-117615696D01*
X144648514Y-117667000D01*
X144911486Y-117667000D01*
X145169405Y-117615696D01*
X145412359Y-117515061D01*
X145631013Y-117368962D01*
X145816962Y-117183013D01*
X145963061Y-116964359D01*
X146063696Y-116721405D01*
X146115000Y-116463486D01*
X146115000Y-116200514D01*
X146063696Y-115942595D01*
X145963061Y-115699641D01*
X145816962Y-115480987D01*
X145631013Y-115295038D01*
X145412359Y-115148939D01*
X145169405Y-115048304D01*
X144911486Y-114997000D01*
X144648514Y-114997000D01*
X144390595Y-115048304D01*
X144147641Y-115148939D01*
X143928987Y-115295038D01*
X143743038Y-115480987D01*
X143596939Y-115699641D01*
X143496304Y-115942595D01*
X143445000Y-116200514D01*
X138490557Y-116200514D01*
X138459125Y-115997656D01*
X138368935Y-115750634D01*
X138315037Y-115649797D01*
X138081269Y-115590336D01*
X137339605Y-116332000D01*
X136980395Y-116332000D01*
X136238731Y-115590336D01*
X136004963Y-115649797D01*
X135894066Y-115888242D01*
X135831817Y-116143740D01*
X135820610Y-116406473D01*
X128874083Y-116406473D01*
X128935932Y-116257158D01*
X128993000Y-115970260D01*
X128993000Y-115677740D01*
X128939889Y-115410731D01*
X136418336Y-115410731D01*
X137160000Y-116152395D01*
X137901664Y-115410731D01*
X137842203Y-115176963D01*
X137603758Y-115066066D01*
X137348260Y-115003817D01*
X137085527Y-114992610D01*
X136825656Y-115032875D01*
X136578634Y-115123065D01*
X136477797Y-115176963D01*
X136418336Y-115410731D01*
X128939889Y-115410731D01*
X128935932Y-115390842D01*
X128823990Y-115120589D01*
X128661475Y-114877368D01*
X128454632Y-114670525D01*
X128280240Y-114554000D01*
X128454632Y-114437475D01*
X128661475Y-114230632D01*
X128823990Y-113987411D01*
X128935932Y-113717158D01*
X128993000Y-113430260D01*
X128993000Y-113189269D01*
X136418336Y-113189269D01*
X136477797Y-113423037D01*
X136716242Y-113533934D01*
X136971740Y-113596183D01*
X137234473Y-113607390D01*
X137494344Y-113567125D01*
X137741366Y-113476935D01*
X137842203Y-113423037D01*
X137901664Y-113189269D01*
X137160000Y-112447605D01*
X136418336Y-113189269D01*
X128993000Y-113189269D01*
X128993000Y-113137740D01*
X128935932Y-112850842D01*
X128823990Y-112580589D01*
X128664887Y-112342473D01*
X135820610Y-112342473D01*
X135860875Y-112602344D01*
X135951065Y-112849366D01*
X136004963Y-112950203D01*
X136238731Y-113009664D01*
X136980395Y-112268000D01*
X137339605Y-112268000D01*
X138081269Y-113009664D01*
X138315037Y-112950203D01*
X138425934Y-112711758D01*
X138488183Y-112456260D01*
X138499390Y-112193527D01*
X138490557Y-112136514D01*
X143445000Y-112136514D01*
X143445000Y-112399486D01*
X143496304Y-112657405D01*
X143596939Y-112900359D01*
X143743038Y-113119013D01*
X143928987Y-113304962D01*
X144147641Y-113451061D01*
X144390595Y-113551696D01*
X144648514Y-113603000D01*
X144911486Y-113603000D01*
X145169405Y-113551696D01*
X145412359Y-113451061D01*
X145631013Y-113304962D01*
X145816962Y-113119013D01*
X145963061Y-112900359D01*
X146063696Y-112657405D01*
X146115000Y-112399486D01*
X146115000Y-112136514D01*
X146063696Y-111878595D01*
X145963061Y-111635641D01*
X145816962Y-111416987D01*
X145631013Y-111231038D01*
X145412359Y-111084939D01*
X145169405Y-110984304D01*
X144911486Y-110933000D01*
X144648514Y-110933000D01*
X144390595Y-110984304D01*
X144147641Y-111084939D01*
X143928987Y-111231038D01*
X143743038Y-111416987D01*
X143596939Y-111635641D01*
X143496304Y-111878595D01*
X143445000Y-112136514D01*
X138490557Y-112136514D01*
X138459125Y-111933656D01*
X138368935Y-111686634D01*
X138315037Y-111585797D01*
X138081269Y-111526336D01*
X137339605Y-112268000D01*
X136980395Y-112268000D01*
X136238731Y-111526336D01*
X136004963Y-111585797D01*
X135894066Y-111824242D01*
X135831817Y-112079740D01*
X135820610Y-112342473D01*
X128664887Y-112342473D01*
X128661475Y-112337368D01*
X128454632Y-112130525D01*
X128280240Y-112014000D01*
X128454632Y-111897475D01*
X128661475Y-111690632D01*
X128823990Y-111447411D01*
X128865692Y-111346731D01*
X136418336Y-111346731D01*
X137160000Y-112088395D01*
X137901664Y-111346731D01*
X137842203Y-111112963D01*
X137603758Y-111002066D01*
X137348260Y-110939817D01*
X137085527Y-110928610D01*
X136825656Y-110968875D01*
X136578634Y-111059065D01*
X136477797Y-111112963D01*
X136418336Y-111346731D01*
X128865692Y-111346731D01*
X128935932Y-111177158D01*
X128993000Y-110890260D01*
X128993000Y-110597740D01*
X128935932Y-110310842D01*
X128823990Y-110040589D01*
X128661475Y-109797368D01*
X128454632Y-109590525D01*
X128280240Y-109474000D01*
X128454632Y-109357475D01*
X128661475Y-109150632D01*
X128678422Y-109125269D01*
X136418336Y-109125269D01*
X136477797Y-109359037D01*
X136716242Y-109469934D01*
X136971740Y-109532183D01*
X137234473Y-109543390D01*
X137494344Y-109503125D01*
X137741366Y-109412935D01*
X137842203Y-109359037D01*
X137901664Y-109125269D01*
X137160000Y-108383605D01*
X136418336Y-109125269D01*
X128678422Y-109125269D01*
X128823990Y-108907411D01*
X128935932Y-108637158D01*
X128993000Y-108350260D01*
X128993000Y-108278473D01*
X135820610Y-108278473D01*
X135860875Y-108538344D01*
X135951065Y-108785366D01*
X136004963Y-108886203D01*
X136238731Y-108945664D01*
X136980395Y-108204000D01*
X137339605Y-108204000D01*
X138081269Y-108945664D01*
X138315037Y-108886203D01*
X138425934Y-108647758D01*
X138488183Y-108392260D01*
X138499390Y-108129527D01*
X138490557Y-108072514D01*
X143445000Y-108072514D01*
X143445000Y-108335486D01*
X143496304Y-108593405D01*
X143596939Y-108836359D01*
X143743038Y-109055013D01*
X143928987Y-109240962D01*
X144147641Y-109387061D01*
X144390595Y-109487696D01*
X144648514Y-109539000D01*
X144911486Y-109539000D01*
X145169405Y-109487696D01*
X145412359Y-109387061D01*
X145631013Y-109240962D01*
X145816962Y-109055013D01*
X145963061Y-108836359D01*
X146063696Y-108593405D01*
X146115000Y-108335486D01*
X146115000Y-108072514D01*
X146063696Y-107814595D01*
X145963061Y-107571641D01*
X145816962Y-107352987D01*
X145631013Y-107167038D01*
X145412359Y-107020939D01*
X145169405Y-106920304D01*
X144911486Y-106869000D01*
X144648514Y-106869000D01*
X144390595Y-106920304D01*
X144147641Y-107020939D01*
X143928987Y-107167038D01*
X143743038Y-107352987D01*
X143596939Y-107571641D01*
X143496304Y-107814595D01*
X143445000Y-108072514D01*
X138490557Y-108072514D01*
X138459125Y-107869656D01*
X138368935Y-107622634D01*
X138315037Y-107521797D01*
X138081269Y-107462336D01*
X137339605Y-108204000D01*
X136980395Y-108204000D01*
X136238731Y-107462336D01*
X136004963Y-107521797D01*
X135894066Y-107760242D01*
X135831817Y-108015740D01*
X135820610Y-108278473D01*
X128993000Y-108278473D01*
X128993000Y-108057740D01*
X128935932Y-107770842D01*
X128823990Y-107500589D01*
X128678423Y-107282731D01*
X136418336Y-107282731D01*
X137160000Y-108024395D01*
X137901664Y-107282731D01*
X137842203Y-107048963D01*
X137603758Y-106938066D01*
X137348260Y-106875817D01*
X137085527Y-106864610D01*
X136825656Y-106904875D01*
X136578634Y-106995065D01*
X136477797Y-107048963D01*
X136418336Y-107282731D01*
X128678423Y-107282731D01*
X128661475Y-107257368D01*
X128454632Y-107050525D01*
X128280240Y-106934000D01*
X128454632Y-106817475D01*
X128661475Y-106610632D01*
X128823990Y-106367411D01*
X128935932Y-106097158D01*
X128993000Y-105810260D01*
X128993000Y-105517740D01*
X128935932Y-105230842D01*
X128865693Y-105061269D01*
X136418336Y-105061269D01*
X136477797Y-105295037D01*
X136716242Y-105405934D01*
X136971740Y-105468183D01*
X137234473Y-105479390D01*
X137494344Y-105439125D01*
X137741366Y-105348935D01*
X137842203Y-105295037D01*
X137901664Y-105061269D01*
X137160000Y-104319605D01*
X136418336Y-105061269D01*
X128865693Y-105061269D01*
X128823990Y-104960589D01*
X128661475Y-104717368D01*
X128454632Y-104510525D01*
X128280240Y-104394000D01*
X128454632Y-104277475D01*
X128517634Y-104214473D01*
X135820610Y-104214473D01*
X135860875Y-104474344D01*
X135951065Y-104721366D01*
X136004963Y-104822203D01*
X136238731Y-104881664D01*
X136980395Y-104140000D01*
X137339605Y-104140000D01*
X138081269Y-104881664D01*
X138315037Y-104822203D01*
X138425934Y-104583758D01*
X138488183Y-104328260D01*
X138499390Y-104065527D01*
X138490557Y-104008514D01*
X143445000Y-104008514D01*
X143445000Y-104271486D01*
X143496304Y-104529405D01*
X143596939Y-104772359D01*
X143743038Y-104991013D01*
X143928987Y-105176962D01*
X144147641Y-105323061D01*
X144390595Y-105423696D01*
X144648514Y-105475000D01*
X144911486Y-105475000D01*
X145169405Y-105423696D01*
X145412359Y-105323061D01*
X145631013Y-105176962D01*
X145816962Y-104991013D01*
X145963061Y-104772359D01*
X146063696Y-104529405D01*
X146115000Y-104271486D01*
X146115000Y-104008514D01*
X146063696Y-103750595D01*
X145963061Y-103507641D01*
X145816962Y-103288987D01*
X145631013Y-103103038D01*
X145412359Y-102956939D01*
X145169405Y-102856304D01*
X144911486Y-102805000D01*
X144648514Y-102805000D01*
X144390595Y-102856304D01*
X144147641Y-102956939D01*
X143928987Y-103103038D01*
X143743038Y-103288987D01*
X143596939Y-103507641D01*
X143496304Y-103750595D01*
X143445000Y-104008514D01*
X138490557Y-104008514D01*
X138459125Y-103805656D01*
X138368935Y-103558634D01*
X138315037Y-103457797D01*
X138081269Y-103398336D01*
X137339605Y-104140000D01*
X136980395Y-104140000D01*
X136238731Y-103398336D01*
X136004963Y-103457797D01*
X135894066Y-103696242D01*
X135831817Y-103951740D01*
X135820610Y-104214473D01*
X128517634Y-104214473D01*
X128661475Y-104070632D01*
X128823990Y-103827411D01*
X128935932Y-103557158D01*
X128993000Y-103270260D01*
X128993000Y-103218731D01*
X136418336Y-103218731D01*
X137160000Y-103960395D01*
X137901664Y-103218731D01*
X137842203Y-102984963D01*
X137603758Y-102874066D01*
X137348260Y-102811817D01*
X137085527Y-102800610D01*
X136825656Y-102840875D01*
X136578634Y-102931065D01*
X136477797Y-102984963D01*
X136418336Y-103218731D01*
X128993000Y-103218731D01*
X128993000Y-102977740D01*
X128935932Y-102690842D01*
X128823990Y-102420589D01*
X128661475Y-102177368D01*
X128529620Y-102045513D01*
X128602180Y-102023502D01*
X128712494Y-101964537D01*
X128809185Y-101885185D01*
X128888537Y-101788494D01*
X128947502Y-101678180D01*
X128983812Y-101558482D01*
X128996072Y-101434000D01*
X128996072Y-100997269D01*
X136418336Y-100997269D01*
X136477797Y-101231037D01*
X136716242Y-101341934D01*
X136971740Y-101404183D01*
X137234473Y-101415390D01*
X137494344Y-101375125D01*
X137741366Y-101284935D01*
X137842203Y-101231037D01*
X137901664Y-100997269D01*
X137160000Y-100255605D01*
X136418336Y-100997269D01*
X128996072Y-100997269D01*
X128996072Y-100150473D01*
X135820610Y-100150473D01*
X135860875Y-100410344D01*
X135951065Y-100657366D01*
X136004963Y-100758203D01*
X136238731Y-100817664D01*
X136980395Y-100076000D01*
X137339605Y-100076000D01*
X138081269Y-100817664D01*
X138315037Y-100758203D01*
X138425934Y-100519758D01*
X138488183Y-100264260D01*
X138499390Y-100001527D01*
X138490557Y-99944514D01*
X143445000Y-99944514D01*
X143445000Y-100207486D01*
X143496304Y-100465405D01*
X143596939Y-100708359D01*
X143743038Y-100927013D01*
X143928987Y-101112962D01*
X144147641Y-101259061D01*
X144390595Y-101359696D01*
X144648514Y-101411000D01*
X144911486Y-101411000D01*
X145169405Y-101359696D01*
X145412359Y-101259061D01*
X145631013Y-101112962D01*
X145816962Y-100927013D01*
X145963061Y-100708359D01*
X146063696Y-100465405D01*
X146115000Y-100207486D01*
X146115000Y-99944514D01*
X146063696Y-99686595D01*
X145963061Y-99443641D01*
X145816962Y-99224987D01*
X145631013Y-99039038D01*
X145412359Y-98892939D01*
X145169405Y-98792304D01*
X144911486Y-98741000D01*
X144648514Y-98741000D01*
X144390595Y-98792304D01*
X144147641Y-98892939D01*
X143928987Y-99039038D01*
X143743038Y-99224987D01*
X143596939Y-99443641D01*
X143496304Y-99686595D01*
X143445000Y-99944514D01*
X138490557Y-99944514D01*
X138459125Y-99741656D01*
X138368935Y-99494634D01*
X138315037Y-99393797D01*
X138081269Y-99334336D01*
X137339605Y-100076000D01*
X136980395Y-100076000D01*
X136238731Y-99334336D01*
X136004963Y-99393797D01*
X135894066Y-99632242D01*
X135831817Y-99887740D01*
X135820610Y-100150473D01*
X128996072Y-100150473D01*
X128996072Y-99734000D01*
X128983812Y-99609518D01*
X128947502Y-99489820D01*
X128888537Y-99379506D01*
X128809185Y-99282815D01*
X128712494Y-99203463D01*
X128621325Y-99154731D01*
X136418336Y-99154731D01*
X137160000Y-99896395D01*
X137901664Y-99154731D01*
X137842203Y-98920963D01*
X137603758Y-98810066D01*
X137348260Y-98747817D01*
X137085527Y-98736610D01*
X136825656Y-98776875D01*
X136578634Y-98867065D01*
X136477797Y-98920963D01*
X136418336Y-99154731D01*
X128621325Y-99154731D01*
X128602180Y-99144498D01*
X128482482Y-99108188D01*
X128358000Y-99095928D01*
X126658000Y-99095928D01*
X126533518Y-99108188D01*
X126413820Y-99144498D01*
X126303506Y-99203463D01*
X126206815Y-99282815D01*
X126127463Y-99379506D01*
X126090317Y-99449000D01*
X118927751Y-99449000D01*
X118872000Y-99443509D01*
X118816248Y-99449000D01*
X118649501Y-99465423D01*
X118435553Y-99530324D01*
X118238377Y-99635716D01*
X118065551Y-99777551D01*
X118030009Y-99820859D01*
X113321869Y-104529000D01*
X101562132Y-104529000D01*
X100195000Y-103161869D01*
X100195000Y-57459752D01*
X100200491Y-57404000D01*
X100178577Y-57181501D01*
X100113676Y-56967553D01*
X100008284Y-56770377D01*
X99901989Y-56640856D01*
X99901987Y-56640854D01*
X99866449Y-56597551D01*
X99823146Y-56562013D01*
X97107996Y-53846865D01*
X97072449Y-53803551D01*
X96899623Y-53661716D01*
X96702447Y-53556324D01*
X96488499Y-53491423D01*
X96321752Y-53475000D01*
X96321751Y-53475000D01*
X96266000Y-53469509D01*
X96210249Y-53475000D01*
X88665817Y-53475000D01*
X88608505Y-53417688D01*
X88357095Y-53249701D01*
X88077743Y-53133989D01*
X87781184Y-53075000D01*
X87478816Y-53075000D01*
X87182257Y-53133989D01*
X86902905Y-53249701D01*
X86651495Y-53417688D01*
X86585056Y-53484127D01*
X86579502Y-53465820D01*
X86520537Y-53355506D01*
X86441185Y-53258815D01*
X86344494Y-53179463D01*
X86234180Y-53120498D01*
X86114482Y-53084188D01*
X85990000Y-53071928D01*
X84190000Y-53071928D01*
X84065518Y-53084188D01*
X83945820Y-53120498D01*
X83835506Y-53179463D01*
X83738815Y-53258815D01*
X83659463Y-53355506D01*
X83600498Y-53465820D01*
X83564188Y-53585518D01*
X83551928Y-53710000D01*
X81432000Y-53710000D01*
X81432000Y-34456000D01*
X83347928Y-34456000D01*
X83347928Y-36156000D01*
X83360188Y-36280482D01*
X83396498Y-36400180D01*
X83455463Y-36510494D01*
X83534815Y-36607185D01*
X83631506Y-36686537D01*
X83701000Y-36723683D01*
X83701001Y-44641579D01*
X83604320Y-44786273D01*
X83496147Y-45047426D01*
X83441000Y-45324665D01*
X83441000Y-45607335D01*
X83496147Y-45884574D01*
X83604320Y-46145727D01*
X83741000Y-46350284D01*
X83741001Y-47736239D01*
X83735509Y-47792000D01*
X83757423Y-48014498D01*
X83822324Y-48228446D01*
X83822325Y-48228447D01*
X83927717Y-48425623D01*
X84069552Y-48598449D01*
X84112860Y-48633991D01*
X87296013Y-51817146D01*
X87331551Y-51860449D01*
X87374854Y-51895987D01*
X87374856Y-51895989D01*
X87504377Y-52002284D01*
X87701553Y-52107676D01*
X87915501Y-52172577D01*
X88138000Y-52194491D01*
X88193752Y-52189000D01*
X101021043Y-52189000D01*
X101031463Y-52208494D01*
X101110815Y-52305185D01*
X101207506Y-52384537D01*
X101227001Y-52394957D01*
X101227001Y-52709715D01*
X101090320Y-52914273D01*
X100982147Y-53175426D01*
X100927000Y-53452665D01*
X100927000Y-53735335D01*
X100982147Y-54012574D01*
X101090320Y-54273727D01*
X101227000Y-54478284D01*
X101227001Y-55249715D01*
X101090320Y-55454273D01*
X100982147Y-55715426D01*
X100927000Y-55992665D01*
X100927000Y-56275335D01*
X100982147Y-56552574D01*
X101090320Y-56813727D01*
X101227000Y-57018284D01*
X101227001Y-57789715D01*
X101090320Y-57994273D01*
X100982147Y-58255426D01*
X100927000Y-58532665D01*
X100927000Y-58815335D01*
X100982147Y-59092574D01*
X101090320Y-59353727D01*
X101227000Y-59558284D01*
X101227001Y-60329715D01*
X101090320Y-60534273D01*
X100982147Y-60795426D01*
X100927000Y-61072665D01*
X100927000Y-61355335D01*
X100982147Y-61632574D01*
X101090320Y-61893727D01*
X101227000Y-62098284D01*
X101227001Y-62869715D01*
X101090320Y-63074273D01*
X100982147Y-63335426D01*
X100927000Y-63612665D01*
X100927000Y-63895335D01*
X100982147Y-64172574D01*
X101090320Y-64433727D01*
X101227000Y-64638284D01*
X101227001Y-65409715D01*
X101090320Y-65614273D01*
X100982147Y-65875426D01*
X100927000Y-66152665D01*
X100927000Y-66435335D01*
X100982147Y-66712574D01*
X101090320Y-66973727D01*
X101227000Y-67178284D01*
X101227001Y-67949715D01*
X101090320Y-68154273D01*
X100982147Y-68415426D01*
X100927000Y-68692665D01*
X100927000Y-68975335D01*
X100982147Y-69252574D01*
X101090320Y-69513727D01*
X101227000Y-69718284D01*
X101227001Y-81463043D01*
X101207506Y-81473463D01*
X101110815Y-81552815D01*
X101031463Y-81649506D01*
X100972498Y-81759820D01*
X100936188Y-81879518D01*
X100923928Y-82004000D01*
X100923928Y-83604000D01*
X100936188Y-83728482D01*
X100972498Y-83848180D01*
X101031463Y-83958494D01*
X101110815Y-84055185D01*
X101207506Y-84134537D01*
X101227001Y-84144957D01*
X101227001Y-84459715D01*
X101090320Y-84664273D01*
X100982147Y-84925426D01*
X100927000Y-85202665D01*
X100927000Y-85485335D01*
X100982147Y-85762574D01*
X101090320Y-86023727D01*
X101227000Y-86228284D01*
X101227001Y-86999715D01*
X101090320Y-87204273D01*
X100982147Y-87465426D01*
X100927000Y-87742665D01*
X100927000Y-88025335D01*
X100982147Y-88302574D01*
X101090320Y-88563727D01*
X101227000Y-88768284D01*
X101227001Y-89539715D01*
X101090320Y-89744273D01*
X100982147Y-90005426D01*
X100927000Y-90282665D01*
X100927000Y-90565335D01*
X100982147Y-90842574D01*
X101090320Y-91103727D01*
X101227000Y-91308284D01*
X101227001Y-92079715D01*
X101090320Y-92284273D01*
X100982147Y-92545426D01*
X100927000Y-92822665D01*
X100927000Y-93105335D01*
X100982147Y-93382574D01*
X101090320Y-93643727D01*
X101227000Y-93848284D01*
X101227001Y-94619715D01*
X101090320Y-94824273D01*
X100982147Y-95085426D01*
X100927000Y-95362665D01*
X100927000Y-95645335D01*
X100982147Y-95922574D01*
X101090320Y-96183727D01*
X101227000Y-96388284D01*
X101227001Y-97159715D01*
X101090320Y-97364273D01*
X100982147Y-97625426D01*
X100927000Y-97902665D01*
X100927000Y-98185335D01*
X100982147Y-98462574D01*
X101090320Y-98723727D01*
X101227000Y-98928284D01*
X101227001Y-99699715D01*
X101090320Y-99904273D01*
X100982147Y-100165426D01*
X100927000Y-100442665D01*
X100927000Y-100725335D01*
X100982147Y-101002574D01*
X101090320Y-101263727D01*
X101247363Y-101498759D01*
X101447241Y-101698637D01*
X101682273Y-101855680D01*
X101943426Y-101963853D01*
X102220665Y-102019000D01*
X102503335Y-102019000D01*
X102780574Y-101963853D01*
X103041727Y-101855680D01*
X103276759Y-101698637D01*
X103476637Y-101498759D01*
X103633680Y-101263727D01*
X103741853Y-101002574D01*
X103797000Y-100725335D01*
X103797000Y-100442665D01*
X103741853Y-100165426D01*
X103633680Y-99904273D01*
X103497000Y-99699716D01*
X103497000Y-98928284D01*
X103633680Y-98723727D01*
X103741853Y-98462574D01*
X103797000Y-98185335D01*
X103797000Y-97902665D01*
X103741853Y-97625426D01*
X103633680Y-97364273D01*
X103497000Y-97159716D01*
X103497000Y-96388284D01*
X103633680Y-96183727D01*
X103741853Y-95922574D01*
X103797000Y-95645335D01*
X103797000Y-95362665D01*
X103741853Y-95085426D01*
X103633680Y-94824273D01*
X103497000Y-94619716D01*
X103497000Y-93848284D01*
X103633680Y-93643727D01*
X103741853Y-93382574D01*
X103797000Y-93105335D01*
X103797000Y-92822665D01*
X103741853Y-92545426D01*
X103633680Y-92284273D01*
X103497000Y-92079716D01*
X103497000Y-91308284D01*
X103633680Y-91103727D01*
X103741853Y-90842574D01*
X103797000Y-90565335D01*
X103797000Y-90282665D01*
X103741853Y-90005426D01*
X103633680Y-89744273D01*
X103497000Y-89539716D01*
X103497000Y-88768284D01*
X103633680Y-88563727D01*
X103741853Y-88302574D01*
X103797000Y-88025335D01*
X103797000Y-87742665D01*
X103741853Y-87465426D01*
X103633680Y-87204273D01*
X103497000Y-86999716D01*
X103497000Y-86228284D01*
X103633680Y-86023727D01*
X103741853Y-85762574D01*
X103797000Y-85485335D01*
X103797000Y-85202665D01*
X103741853Y-84925426D01*
X103633680Y-84664273D01*
X103497000Y-84459716D01*
X103497000Y-84144957D01*
X103516494Y-84134537D01*
X103613185Y-84055185D01*
X103692537Y-83958494D01*
X103751502Y-83848180D01*
X103787812Y-83728482D01*
X103800072Y-83604000D01*
X103800072Y-82004000D01*
X103787812Y-81879518D01*
X103751502Y-81759820D01*
X103692537Y-81649506D01*
X103613185Y-81552815D01*
X103516494Y-81473463D01*
X103497000Y-81463043D01*
X103497000Y-69718284D01*
X103633680Y-69513727D01*
X103741853Y-69252574D01*
X103797000Y-68975335D01*
X103797000Y-68692665D01*
X103741853Y-68415426D01*
X103633680Y-68154273D01*
X103497000Y-67949716D01*
X103497000Y-67178284D01*
X103633680Y-66973727D01*
X103741853Y-66712574D01*
X103797000Y-66435335D01*
X103797000Y-66152665D01*
X103741853Y-65875426D01*
X103633680Y-65614273D01*
X103497000Y-65409716D01*
X103497000Y-64638284D01*
X103633680Y-64433727D01*
X103741853Y-64172574D01*
X103797000Y-63895335D01*
X103797000Y-63612665D01*
X103741853Y-63335426D01*
X103633680Y-63074273D01*
X103497000Y-62869716D01*
X103497000Y-62098284D01*
X103633680Y-61893727D01*
X103741853Y-61632574D01*
X103797000Y-61355335D01*
X103797000Y-61072665D01*
X103741853Y-60795426D01*
X103633680Y-60534273D01*
X103497000Y-60329716D01*
X103497000Y-59558284D01*
X103633680Y-59353727D01*
X103741853Y-59092574D01*
X103797000Y-58815335D01*
X103797000Y-58532665D01*
X103741853Y-58255426D01*
X103633680Y-57994273D01*
X103497000Y-57789716D01*
X103497000Y-57018284D01*
X103633680Y-56813727D01*
X103741853Y-56552574D01*
X103797000Y-56275335D01*
X103797000Y-55992665D01*
X103741853Y-55715426D01*
X103633680Y-55454273D01*
X103497000Y-55249716D01*
X103497000Y-54478284D01*
X103633680Y-54273727D01*
X103741853Y-54012574D01*
X103797000Y-53735335D01*
X103797000Y-53452665D01*
X103741853Y-53175426D01*
X103633680Y-52914273D01*
X103497000Y-52709716D01*
X103497000Y-52394957D01*
X103516494Y-52384537D01*
X103613185Y-52305185D01*
X103692537Y-52208494D01*
X103751502Y-52098180D01*
X103787812Y-51978482D01*
X103800072Y-51854000D01*
X103800072Y-50912665D01*
X108547000Y-50912665D01*
X108547000Y-51195335D01*
X108602147Y-51472574D01*
X108710320Y-51733727D01*
X108867363Y-51968759D01*
X109067241Y-52168637D01*
X109299759Y-52324000D01*
X109067241Y-52479363D01*
X108867363Y-52679241D01*
X108710320Y-52914273D01*
X108602147Y-53175426D01*
X108547000Y-53452665D01*
X108547000Y-53735335D01*
X108602147Y-54012574D01*
X108710320Y-54273727D01*
X108867363Y-54508759D01*
X109067241Y-54708637D01*
X109299759Y-54864000D01*
X109067241Y-55019363D01*
X108867363Y-55219241D01*
X108710320Y-55454273D01*
X108602147Y-55715426D01*
X108547000Y-55992665D01*
X108547000Y-56275335D01*
X108602147Y-56552574D01*
X108710320Y-56813727D01*
X108867363Y-57048759D01*
X109067241Y-57248637D01*
X109299759Y-57404000D01*
X109067241Y-57559363D01*
X108867363Y-57759241D01*
X108710320Y-57994273D01*
X108602147Y-58255426D01*
X108547000Y-58532665D01*
X108547000Y-58815335D01*
X108602147Y-59092574D01*
X108710320Y-59353727D01*
X108867363Y-59588759D01*
X109067241Y-59788637D01*
X109299759Y-59944000D01*
X109067241Y-60099363D01*
X108867363Y-60299241D01*
X108710320Y-60534273D01*
X108602147Y-60795426D01*
X108547000Y-61072665D01*
X108547000Y-61355335D01*
X108602147Y-61632574D01*
X108710320Y-61893727D01*
X108867363Y-62128759D01*
X109067241Y-62328637D01*
X109299759Y-62484000D01*
X109067241Y-62639363D01*
X108867363Y-62839241D01*
X108710320Y-63074273D01*
X108602147Y-63335426D01*
X108547000Y-63612665D01*
X108547000Y-63895335D01*
X108602147Y-64172574D01*
X108710320Y-64433727D01*
X108867363Y-64668759D01*
X109067241Y-64868637D01*
X109299759Y-65024000D01*
X109067241Y-65179363D01*
X108867363Y-65379241D01*
X108710320Y-65614273D01*
X108602147Y-65875426D01*
X108547000Y-66152665D01*
X108547000Y-66435335D01*
X108602147Y-66712574D01*
X108710320Y-66973727D01*
X108867363Y-67208759D01*
X109067241Y-67408637D01*
X109299759Y-67564000D01*
X109067241Y-67719363D01*
X108867363Y-67919241D01*
X108710320Y-68154273D01*
X108602147Y-68415426D01*
X108547000Y-68692665D01*
X108547000Y-68975335D01*
X108602147Y-69252574D01*
X108710320Y-69513727D01*
X108867363Y-69748759D01*
X109067241Y-69948637D01*
X109302273Y-70105680D01*
X109563426Y-70213853D01*
X109840665Y-70269000D01*
X110123335Y-70269000D01*
X110400574Y-70213853D01*
X110661727Y-70105680D01*
X110896759Y-69948637D01*
X111096637Y-69748759D01*
X111253680Y-69513727D01*
X111361853Y-69252574D01*
X111417000Y-68975335D01*
X111417000Y-68692665D01*
X111380688Y-68510113D01*
X115122802Y-64768000D01*
X125213822Y-64768000D01*
X125338525Y-64954632D01*
X125545368Y-65161475D01*
X125719760Y-65278000D01*
X125545368Y-65394525D01*
X125338525Y-65601368D01*
X125213822Y-65788000D01*
X118401322Y-65788000D01*
X118363999Y-65784324D01*
X118326676Y-65788000D01*
X118326667Y-65788000D01*
X118215014Y-65798997D01*
X118071753Y-65842454D01*
X117939723Y-65913026D01*
X117879669Y-65962312D01*
X117823999Y-66007999D01*
X117800201Y-66036997D01*
X109470998Y-74366201D01*
X109442000Y-74389999D01*
X109418202Y-74418997D01*
X109418201Y-74418998D01*
X109347026Y-74505724D01*
X109276454Y-74637754D01*
X109232998Y-74781015D01*
X109218324Y-74930000D01*
X109222001Y-74967332D01*
X109222000Y-81585956D01*
X109067241Y-81689363D01*
X108867363Y-81889241D01*
X108710320Y-82124273D01*
X108602147Y-82385426D01*
X108547000Y-82662665D01*
X108547000Y-82945335D01*
X108602147Y-83222574D01*
X108710320Y-83483727D01*
X108867363Y-83718759D01*
X109067241Y-83918637D01*
X109299759Y-84074000D01*
X109067241Y-84229363D01*
X108867363Y-84429241D01*
X108710320Y-84664273D01*
X108602147Y-84925426D01*
X108547000Y-85202665D01*
X108547000Y-85485335D01*
X108602147Y-85762574D01*
X108710320Y-86023727D01*
X108867363Y-86258759D01*
X109067241Y-86458637D01*
X109299759Y-86614000D01*
X109067241Y-86769363D01*
X108867363Y-86969241D01*
X108710320Y-87204273D01*
X108602147Y-87465426D01*
X108547000Y-87742665D01*
X108547000Y-88025335D01*
X108602147Y-88302574D01*
X108710320Y-88563727D01*
X108867363Y-88798759D01*
X109067241Y-88998637D01*
X109299759Y-89154000D01*
X109067241Y-89309363D01*
X108867363Y-89509241D01*
X108710320Y-89744273D01*
X108602147Y-90005426D01*
X108547000Y-90282665D01*
X108547000Y-90565335D01*
X108602147Y-90842574D01*
X108710320Y-91103727D01*
X108867363Y-91338759D01*
X109067241Y-91538637D01*
X109299759Y-91694000D01*
X109067241Y-91849363D01*
X108867363Y-92049241D01*
X108710320Y-92284273D01*
X108602147Y-92545426D01*
X108547000Y-92822665D01*
X108547000Y-93105335D01*
X108602147Y-93382574D01*
X108710320Y-93643727D01*
X108867363Y-93878759D01*
X109067241Y-94078637D01*
X109299759Y-94234000D01*
X109067241Y-94389363D01*
X108867363Y-94589241D01*
X108710320Y-94824273D01*
X108602147Y-95085426D01*
X108547000Y-95362665D01*
X108547000Y-95645335D01*
X108602147Y-95922574D01*
X108710320Y-96183727D01*
X108867363Y-96418759D01*
X109067241Y-96618637D01*
X109299759Y-96774000D01*
X109067241Y-96929363D01*
X108867363Y-97129241D01*
X108710320Y-97364273D01*
X108602147Y-97625426D01*
X108547000Y-97902665D01*
X108547000Y-98185335D01*
X108602147Y-98462574D01*
X108710320Y-98723727D01*
X108867363Y-98958759D01*
X109067241Y-99158637D01*
X109299759Y-99314000D01*
X109067241Y-99469363D01*
X108867363Y-99669241D01*
X108710320Y-99904273D01*
X108602147Y-100165426D01*
X108547000Y-100442665D01*
X108547000Y-100725335D01*
X108602147Y-101002574D01*
X108710320Y-101263727D01*
X108867363Y-101498759D01*
X109067241Y-101698637D01*
X109302273Y-101855680D01*
X109563426Y-101963853D01*
X109840665Y-102019000D01*
X110123335Y-102019000D01*
X110400574Y-101963853D01*
X110661727Y-101855680D01*
X110896759Y-101698637D01*
X111096637Y-101498759D01*
X111253680Y-101263727D01*
X111361853Y-101002574D01*
X111417000Y-100725335D01*
X111417000Y-100442665D01*
X111380688Y-100260113D01*
X114707532Y-96933269D01*
X136418336Y-96933269D01*
X136477797Y-97167037D01*
X136716242Y-97277934D01*
X136971740Y-97340183D01*
X137234473Y-97351390D01*
X137494344Y-97311125D01*
X137741366Y-97220935D01*
X137842203Y-97167037D01*
X137901664Y-96933269D01*
X137160000Y-96191605D01*
X136418336Y-96933269D01*
X114707532Y-96933269D01*
X115554328Y-96086473D01*
X135820610Y-96086473D01*
X135860875Y-96346344D01*
X135951065Y-96593366D01*
X136004963Y-96694203D01*
X136238731Y-96753664D01*
X136980395Y-96012000D01*
X137339605Y-96012000D01*
X138081269Y-96753664D01*
X138315037Y-96694203D01*
X138425934Y-96455758D01*
X138488183Y-96200260D01*
X138499390Y-95937527D01*
X138490557Y-95880514D01*
X143445000Y-95880514D01*
X143445000Y-96143486D01*
X143496304Y-96401405D01*
X143596939Y-96644359D01*
X143743038Y-96863013D01*
X143928987Y-97048962D01*
X144147641Y-97195061D01*
X144390595Y-97295696D01*
X144648514Y-97347000D01*
X144911486Y-97347000D01*
X145169405Y-97295696D01*
X145412359Y-97195061D01*
X145631013Y-97048962D01*
X145816962Y-96863013D01*
X145963061Y-96644359D01*
X146063696Y-96401405D01*
X146115000Y-96143486D01*
X146115000Y-95880514D01*
X146063696Y-95622595D01*
X145963061Y-95379641D01*
X145816962Y-95160987D01*
X145631013Y-94975038D01*
X145412359Y-94828939D01*
X145169405Y-94728304D01*
X144911486Y-94677000D01*
X144648514Y-94677000D01*
X144390595Y-94728304D01*
X144147641Y-94828939D01*
X143928987Y-94975038D01*
X143743038Y-95160987D01*
X143596939Y-95379641D01*
X143496304Y-95622595D01*
X143445000Y-95880514D01*
X138490557Y-95880514D01*
X138459125Y-95677656D01*
X138368935Y-95430634D01*
X138315037Y-95329797D01*
X138081269Y-95270336D01*
X137339605Y-96012000D01*
X136980395Y-96012000D01*
X136238731Y-95270336D01*
X136004963Y-95329797D01*
X135894066Y-95568242D01*
X135831817Y-95823740D01*
X135820610Y-96086473D01*
X115554328Y-96086473D01*
X116550070Y-95090731D01*
X136418336Y-95090731D01*
X137160000Y-95832395D01*
X137901664Y-95090731D01*
X137842203Y-94856963D01*
X137603758Y-94746066D01*
X137348260Y-94683817D01*
X137085527Y-94672610D01*
X136825656Y-94712875D01*
X136578634Y-94803065D01*
X136477797Y-94856963D01*
X136418336Y-95090731D01*
X116550070Y-95090731D01*
X118771532Y-92869269D01*
X136418336Y-92869269D01*
X136477797Y-93103037D01*
X136716242Y-93213934D01*
X136971740Y-93276183D01*
X137234473Y-93287390D01*
X137494344Y-93247125D01*
X137741366Y-93156935D01*
X137842203Y-93103037D01*
X137901664Y-92869269D01*
X137160000Y-92127605D01*
X136418336Y-92869269D01*
X118771532Y-92869269D01*
X119618328Y-92022473D01*
X135820610Y-92022473D01*
X135860875Y-92282344D01*
X135951065Y-92529366D01*
X136004963Y-92630203D01*
X136238731Y-92689664D01*
X136980395Y-91948000D01*
X137339605Y-91948000D01*
X138081269Y-92689664D01*
X138315037Y-92630203D01*
X138425934Y-92391758D01*
X138488183Y-92136260D01*
X138499390Y-91873527D01*
X138490557Y-91816514D01*
X143445000Y-91816514D01*
X143445000Y-92079486D01*
X143496304Y-92337405D01*
X143596939Y-92580359D01*
X143743038Y-92799013D01*
X143928987Y-92984962D01*
X144147641Y-93131061D01*
X144390595Y-93231696D01*
X144648514Y-93283000D01*
X144911486Y-93283000D01*
X145169405Y-93231696D01*
X145412359Y-93131061D01*
X145631013Y-92984962D01*
X145816962Y-92799013D01*
X145963061Y-92580359D01*
X146063696Y-92337405D01*
X146115000Y-92079486D01*
X146115000Y-91816514D01*
X146063696Y-91558595D01*
X145963061Y-91315641D01*
X145816962Y-91096987D01*
X145631013Y-90911038D01*
X145412359Y-90764939D01*
X145169405Y-90664304D01*
X144911486Y-90613000D01*
X144648514Y-90613000D01*
X144390595Y-90664304D01*
X144147641Y-90764939D01*
X143928987Y-90911038D01*
X143743038Y-91096987D01*
X143596939Y-91315641D01*
X143496304Y-91558595D01*
X143445000Y-91816514D01*
X138490557Y-91816514D01*
X138459125Y-91613656D01*
X138368935Y-91366634D01*
X138315037Y-91265797D01*
X138081269Y-91206336D01*
X137339605Y-91948000D01*
X136980395Y-91948000D01*
X136238731Y-91206336D01*
X136004963Y-91265797D01*
X135894066Y-91504242D01*
X135831817Y-91759740D01*
X135820610Y-92022473D01*
X119618328Y-92022473D01*
X120399004Y-91241798D01*
X120428001Y-91218001D01*
X120522974Y-91102276D01*
X120563354Y-91026731D01*
X136418336Y-91026731D01*
X137160000Y-91768395D01*
X137901664Y-91026731D01*
X137842203Y-90792963D01*
X137603758Y-90682066D01*
X137348260Y-90619817D01*
X137085527Y-90608610D01*
X136825656Y-90648875D01*
X136578634Y-90739065D01*
X136477797Y-90792963D01*
X136418336Y-91026731D01*
X120563354Y-91026731D01*
X120593546Y-90970247D01*
X120637003Y-90826986D01*
X120648000Y-90715333D01*
X120648000Y-90715332D01*
X120651677Y-90678000D01*
X120648000Y-90640667D01*
X120648000Y-89059269D01*
X136418336Y-89059269D01*
X136477797Y-89293037D01*
X136716242Y-89403934D01*
X136971740Y-89466183D01*
X137234473Y-89477390D01*
X137494344Y-89437125D01*
X137741366Y-89346935D01*
X137842203Y-89293037D01*
X137901664Y-89059269D01*
X137160000Y-88317605D01*
X136418336Y-89059269D01*
X120648000Y-89059269D01*
X120648000Y-88212473D01*
X135820610Y-88212473D01*
X135860875Y-88472344D01*
X135951065Y-88719366D01*
X136004963Y-88820203D01*
X136238731Y-88879664D01*
X136980395Y-88138000D01*
X137339605Y-88138000D01*
X138081269Y-88879664D01*
X138315037Y-88820203D01*
X138425934Y-88581758D01*
X138488183Y-88326260D01*
X138499390Y-88063527D01*
X138490557Y-88006514D01*
X143445000Y-88006514D01*
X143445000Y-88269486D01*
X143496304Y-88527405D01*
X143596939Y-88770359D01*
X143743038Y-88989013D01*
X143928987Y-89174962D01*
X144147641Y-89321061D01*
X144390595Y-89421696D01*
X144648514Y-89473000D01*
X144911486Y-89473000D01*
X145169405Y-89421696D01*
X145412359Y-89321061D01*
X145631013Y-89174962D01*
X145816962Y-88989013D01*
X145963061Y-88770359D01*
X146063696Y-88527405D01*
X146115000Y-88269486D01*
X146115000Y-88006514D01*
X146063696Y-87748595D01*
X145963061Y-87505641D01*
X145816962Y-87286987D01*
X145631013Y-87101038D01*
X145412359Y-86954939D01*
X145169405Y-86854304D01*
X144911486Y-86803000D01*
X144648514Y-86803000D01*
X144390595Y-86854304D01*
X144147641Y-86954939D01*
X143928987Y-87101038D01*
X143743038Y-87286987D01*
X143596939Y-87505641D01*
X143496304Y-87748595D01*
X143445000Y-88006514D01*
X138490557Y-88006514D01*
X138459125Y-87803656D01*
X138368935Y-87556634D01*
X138315037Y-87455797D01*
X138081269Y-87396336D01*
X137339605Y-88138000D01*
X136980395Y-88138000D01*
X136238731Y-87396336D01*
X136004963Y-87455797D01*
X135894066Y-87694242D01*
X135831817Y-87949740D01*
X135820610Y-88212473D01*
X120648000Y-88212473D01*
X120648000Y-87216731D01*
X136418336Y-87216731D01*
X137160000Y-87958395D01*
X137901664Y-87216731D01*
X137842203Y-86982963D01*
X137603758Y-86872066D01*
X137348260Y-86809817D01*
X137085527Y-86798610D01*
X136825656Y-86838875D01*
X136578634Y-86929065D01*
X136477797Y-86982963D01*
X136418336Y-87216731D01*
X120648000Y-87216731D01*
X120648000Y-87182801D01*
X122742803Y-85088000D01*
X125213822Y-85088000D01*
X125338525Y-85274632D01*
X125545368Y-85481475D01*
X125788589Y-85643990D01*
X126058842Y-85755932D01*
X126345740Y-85813000D01*
X126638260Y-85813000D01*
X126925158Y-85755932D01*
X127195411Y-85643990D01*
X127438632Y-85481475D01*
X127645475Y-85274632D01*
X127662422Y-85249269D01*
X136418336Y-85249269D01*
X136477797Y-85483037D01*
X136716242Y-85593934D01*
X136971740Y-85656183D01*
X137234473Y-85667390D01*
X137494344Y-85627125D01*
X137741366Y-85536935D01*
X137842203Y-85483037D01*
X137901664Y-85249269D01*
X137160000Y-84507605D01*
X136418336Y-85249269D01*
X127662422Y-85249269D01*
X127807990Y-85031411D01*
X127919932Y-84761158D01*
X127977000Y-84474260D01*
X127977000Y-84402473D01*
X135820610Y-84402473D01*
X135860875Y-84662344D01*
X135951065Y-84909366D01*
X136004963Y-85010203D01*
X136238731Y-85069664D01*
X136980395Y-84328000D01*
X137339605Y-84328000D01*
X138081269Y-85069664D01*
X138315037Y-85010203D01*
X138425934Y-84771758D01*
X138488183Y-84516260D01*
X138499390Y-84253527D01*
X138490557Y-84196514D01*
X143445000Y-84196514D01*
X143445000Y-84459486D01*
X143496304Y-84717405D01*
X143596939Y-84960359D01*
X143743038Y-85179013D01*
X143928987Y-85364962D01*
X144147641Y-85511061D01*
X144390595Y-85611696D01*
X144648514Y-85663000D01*
X144911486Y-85663000D01*
X145169405Y-85611696D01*
X145412359Y-85511061D01*
X145631013Y-85364962D01*
X145816962Y-85179013D01*
X145963061Y-84960359D01*
X146063696Y-84717405D01*
X146115000Y-84459486D01*
X146115000Y-84196514D01*
X146063696Y-83938595D01*
X145963061Y-83695641D01*
X145816962Y-83476987D01*
X145631013Y-83291038D01*
X145412359Y-83144939D01*
X145169405Y-83044304D01*
X144911486Y-82993000D01*
X144648514Y-82993000D01*
X144390595Y-83044304D01*
X144147641Y-83144939D01*
X143928987Y-83291038D01*
X143743038Y-83476987D01*
X143596939Y-83695641D01*
X143496304Y-83938595D01*
X143445000Y-84196514D01*
X138490557Y-84196514D01*
X138459125Y-83993656D01*
X138368935Y-83746634D01*
X138315037Y-83645797D01*
X138081269Y-83586336D01*
X137339605Y-84328000D01*
X136980395Y-84328000D01*
X136238731Y-83586336D01*
X136004963Y-83645797D01*
X135894066Y-83884242D01*
X135831817Y-84139740D01*
X135820610Y-84402473D01*
X127977000Y-84402473D01*
X127977000Y-84181740D01*
X127919932Y-83894842D01*
X127807990Y-83624589D01*
X127662423Y-83406731D01*
X136418336Y-83406731D01*
X137160000Y-84148395D01*
X137901664Y-83406731D01*
X137842203Y-83172963D01*
X137603758Y-83062066D01*
X137348260Y-82999817D01*
X137085527Y-82988610D01*
X136825656Y-83028875D01*
X136578634Y-83119065D01*
X136477797Y-83172963D01*
X136418336Y-83406731D01*
X127662423Y-83406731D01*
X127645475Y-83381368D01*
X127438632Y-83174525D01*
X127264240Y-83058000D01*
X127438632Y-82941475D01*
X127645475Y-82734632D01*
X127807990Y-82491411D01*
X127919932Y-82221158D01*
X127977000Y-81934260D01*
X127977000Y-81641740D01*
X127936726Y-81439269D01*
X136418336Y-81439269D01*
X136477797Y-81673037D01*
X136716242Y-81783934D01*
X136971740Y-81846183D01*
X137234473Y-81857390D01*
X137494344Y-81817125D01*
X137741366Y-81726935D01*
X137842203Y-81673037D01*
X137901664Y-81439269D01*
X137160000Y-80697605D01*
X136418336Y-81439269D01*
X127936726Y-81439269D01*
X127919932Y-81354842D01*
X127807990Y-81084589D01*
X127645475Y-80841368D01*
X127438632Y-80634525D01*
X127375697Y-80592473D01*
X135820610Y-80592473D01*
X135860875Y-80852344D01*
X135951065Y-81099366D01*
X136004963Y-81200203D01*
X136238731Y-81259664D01*
X136980395Y-80518000D01*
X137339605Y-80518000D01*
X138081269Y-81259664D01*
X138315037Y-81200203D01*
X138425934Y-80961758D01*
X138488183Y-80706260D01*
X138499390Y-80443527D01*
X138490557Y-80386514D01*
X143445000Y-80386514D01*
X143445000Y-80649486D01*
X143496304Y-80907405D01*
X143596939Y-81150359D01*
X143743038Y-81369013D01*
X143928987Y-81554962D01*
X144147641Y-81701061D01*
X144390595Y-81801696D01*
X144648514Y-81853000D01*
X144911486Y-81853000D01*
X145169405Y-81801696D01*
X145412359Y-81701061D01*
X145631013Y-81554962D01*
X145816962Y-81369013D01*
X145963061Y-81150359D01*
X146063696Y-80907405D01*
X146115000Y-80649486D01*
X146115000Y-80386514D01*
X146063696Y-80128595D01*
X145963061Y-79885641D01*
X145816962Y-79666987D01*
X145631013Y-79481038D01*
X145412359Y-79334939D01*
X145169405Y-79234304D01*
X144911486Y-79183000D01*
X144648514Y-79183000D01*
X144390595Y-79234304D01*
X144147641Y-79334939D01*
X143928987Y-79481038D01*
X143743038Y-79666987D01*
X143596939Y-79885641D01*
X143496304Y-80128595D01*
X143445000Y-80386514D01*
X138490557Y-80386514D01*
X138459125Y-80183656D01*
X138368935Y-79936634D01*
X138315037Y-79835797D01*
X138081269Y-79776336D01*
X137339605Y-80518000D01*
X136980395Y-80518000D01*
X136238731Y-79776336D01*
X136004963Y-79835797D01*
X135894066Y-80074242D01*
X135831817Y-80329740D01*
X135820610Y-80592473D01*
X127375697Y-80592473D01*
X127264240Y-80518000D01*
X127438632Y-80401475D01*
X127645475Y-80194632D01*
X127807990Y-79951411D01*
X127919932Y-79681158D01*
X127936725Y-79596731D01*
X136418336Y-79596731D01*
X137160000Y-80338395D01*
X137901664Y-79596731D01*
X137842203Y-79362963D01*
X137603758Y-79252066D01*
X137348260Y-79189817D01*
X137085527Y-79178610D01*
X136825656Y-79218875D01*
X136578634Y-79309065D01*
X136477797Y-79362963D01*
X136418336Y-79596731D01*
X127936725Y-79596731D01*
X127977000Y-79394260D01*
X127977000Y-79101740D01*
X127919932Y-78814842D01*
X127807990Y-78544589D01*
X127645475Y-78301368D01*
X127438632Y-78094525D01*
X127264240Y-77978000D01*
X127438632Y-77861475D01*
X127645475Y-77654632D01*
X127662422Y-77629269D01*
X136418336Y-77629269D01*
X136477797Y-77863037D01*
X136716242Y-77973934D01*
X136971740Y-78036183D01*
X137234473Y-78047390D01*
X137494344Y-78007125D01*
X137741366Y-77916935D01*
X137842203Y-77863037D01*
X137901664Y-77629269D01*
X137160000Y-76887605D01*
X136418336Y-77629269D01*
X127662422Y-77629269D01*
X127807990Y-77411411D01*
X127919932Y-77141158D01*
X127977000Y-76854260D01*
X127977000Y-76782473D01*
X135820610Y-76782473D01*
X135860875Y-77042344D01*
X135951065Y-77289366D01*
X136004963Y-77390203D01*
X136238731Y-77449664D01*
X136980395Y-76708000D01*
X137339605Y-76708000D01*
X138081269Y-77449664D01*
X138315037Y-77390203D01*
X138425934Y-77151758D01*
X138488183Y-76896260D01*
X138499390Y-76633527D01*
X138490557Y-76576514D01*
X143445000Y-76576514D01*
X143445000Y-76839486D01*
X143496304Y-77097405D01*
X143596939Y-77340359D01*
X143743038Y-77559013D01*
X143928987Y-77744962D01*
X144147641Y-77891061D01*
X144390595Y-77991696D01*
X144648514Y-78043000D01*
X144911486Y-78043000D01*
X145169405Y-77991696D01*
X145412359Y-77891061D01*
X145631013Y-77744962D01*
X145816962Y-77559013D01*
X145963061Y-77340359D01*
X146063696Y-77097405D01*
X146115000Y-76839486D01*
X146115000Y-76576514D01*
X146063696Y-76318595D01*
X145963061Y-76075641D01*
X145816962Y-75856987D01*
X145631013Y-75671038D01*
X145412359Y-75524939D01*
X145169405Y-75424304D01*
X144911486Y-75373000D01*
X144648514Y-75373000D01*
X144390595Y-75424304D01*
X144147641Y-75524939D01*
X143928987Y-75671038D01*
X143743038Y-75856987D01*
X143596939Y-76075641D01*
X143496304Y-76318595D01*
X143445000Y-76576514D01*
X138490557Y-76576514D01*
X138459125Y-76373656D01*
X138368935Y-76126634D01*
X138315037Y-76025797D01*
X138081269Y-75966336D01*
X137339605Y-76708000D01*
X136980395Y-76708000D01*
X136238731Y-75966336D01*
X136004963Y-76025797D01*
X135894066Y-76264242D01*
X135831817Y-76519740D01*
X135820610Y-76782473D01*
X127977000Y-76782473D01*
X127977000Y-76561740D01*
X127919932Y-76274842D01*
X127807990Y-76004589D01*
X127662423Y-75786731D01*
X136418336Y-75786731D01*
X137160000Y-76528395D01*
X137901664Y-75786731D01*
X137842203Y-75552963D01*
X137603758Y-75442066D01*
X137348260Y-75379817D01*
X137085527Y-75368610D01*
X136825656Y-75408875D01*
X136578634Y-75499065D01*
X136477797Y-75552963D01*
X136418336Y-75786731D01*
X127662423Y-75786731D01*
X127645475Y-75761368D01*
X127438632Y-75554525D01*
X127264240Y-75438000D01*
X127438632Y-75321475D01*
X127645475Y-75114632D01*
X127807990Y-74871411D01*
X127919932Y-74601158D01*
X127977000Y-74314260D01*
X127977000Y-74021740D01*
X127936726Y-73819269D01*
X136418336Y-73819269D01*
X136477797Y-74053037D01*
X136716242Y-74163934D01*
X136971740Y-74226183D01*
X137234473Y-74237390D01*
X137494344Y-74197125D01*
X137741366Y-74106935D01*
X137842203Y-74053037D01*
X137901664Y-73819269D01*
X137160000Y-73077605D01*
X136418336Y-73819269D01*
X127936726Y-73819269D01*
X127919932Y-73734842D01*
X127807990Y-73464589D01*
X127645475Y-73221368D01*
X127438632Y-73014525D01*
X127375697Y-72972473D01*
X135820610Y-72972473D01*
X135860875Y-73232344D01*
X135951065Y-73479366D01*
X136004963Y-73580203D01*
X136238731Y-73639664D01*
X136980395Y-72898000D01*
X137339605Y-72898000D01*
X138081269Y-73639664D01*
X138315037Y-73580203D01*
X138425934Y-73341758D01*
X138488183Y-73086260D01*
X138499390Y-72823527D01*
X138490557Y-72766514D01*
X143445000Y-72766514D01*
X143445000Y-73029486D01*
X143496304Y-73287405D01*
X143596939Y-73530359D01*
X143743038Y-73749013D01*
X143928987Y-73934962D01*
X144147641Y-74081061D01*
X144390595Y-74181696D01*
X144648514Y-74233000D01*
X144911486Y-74233000D01*
X145169405Y-74181696D01*
X145412359Y-74081061D01*
X145631013Y-73934962D01*
X145816962Y-73749013D01*
X145963061Y-73530359D01*
X146063696Y-73287405D01*
X146115000Y-73029486D01*
X146115000Y-72766514D01*
X146063696Y-72508595D01*
X145963061Y-72265641D01*
X145816962Y-72046987D01*
X145631013Y-71861038D01*
X145412359Y-71714939D01*
X145169405Y-71614304D01*
X144911486Y-71563000D01*
X144648514Y-71563000D01*
X144390595Y-71614304D01*
X144147641Y-71714939D01*
X143928987Y-71861038D01*
X143743038Y-72046987D01*
X143596939Y-72265641D01*
X143496304Y-72508595D01*
X143445000Y-72766514D01*
X138490557Y-72766514D01*
X138459125Y-72563656D01*
X138368935Y-72316634D01*
X138315037Y-72215797D01*
X138081269Y-72156336D01*
X137339605Y-72898000D01*
X136980395Y-72898000D01*
X136238731Y-72156336D01*
X136004963Y-72215797D01*
X135894066Y-72454242D01*
X135831817Y-72709740D01*
X135820610Y-72972473D01*
X127375697Y-72972473D01*
X127264240Y-72898000D01*
X127438632Y-72781475D01*
X127645475Y-72574632D01*
X127807990Y-72331411D01*
X127919932Y-72061158D01*
X127936725Y-71976731D01*
X136418336Y-71976731D01*
X137160000Y-72718395D01*
X137901664Y-71976731D01*
X137842203Y-71742963D01*
X137603758Y-71632066D01*
X137348260Y-71569817D01*
X137085527Y-71558610D01*
X136825656Y-71598875D01*
X136578634Y-71689065D01*
X136477797Y-71742963D01*
X136418336Y-71976731D01*
X127936725Y-71976731D01*
X127977000Y-71774260D01*
X127977000Y-71481740D01*
X127919932Y-71194842D01*
X127807990Y-70924589D01*
X127645475Y-70681368D01*
X127438632Y-70474525D01*
X127264240Y-70358000D01*
X127438632Y-70241475D01*
X127645475Y-70034632D01*
X127662422Y-70009269D01*
X136418336Y-70009269D01*
X136477797Y-70243037D01*
X136716242Y-70353934D01*
X136971740Y-70416183D01*
X137234473Y-70427390D01*
X137494344Y-70387125D01*
X137741366Y-70296935D01*
X137842203Y-70243037D01*
X137901664Y-70009269D01*
X137160000Y-69267605D01*
X136418336Y-70009269D01*
X127662422Y-70009269D01*
X127807990Y-69791411D01*
X127919932Y-69521158D01*
X127977000Y-69234260D01*
X127977000Y-69162473D01*
X135820610Y-69162473D01*
X135860875Y-69422344D01*
X135951065Y-69669366D01*
X136004963Y-69770203D01*
X136238731Y-69829664D01*
X136980395Y-69088000D01*
X137339605Y-69088000D01*
X138081269Y-69829664D01*
X138315037Y-69770203D01*
X138425934Y-69531758D01*
X138488183Y-69276260D01*
X138499390Y-69013527D01*
X138490557Y-68956514D01*
X143445000Y-68956514D01*
X143445000Y-69219486D01*
X143496304Y-69477405D01*
X143596939Y-69720359D01*
X143743038Y-69939013D01*
X143928987Y-70124962D01*
X144147641Y-70271061D01*
X144390595Y-70371696D01*
X144648514Y-70423000D01*
X144911486Y-70423000D01*
X145169405Y-70371696D01*
X145412359Y-70271061D01*
X145631013Y-70124962D01*
X145816962Y-69939013D01*
X145963061Y-69720359D01*
X146063696Y-69477405D01*
X146115000Y-69219486D01*
X146115000Y-68956514D01*
X146063696Y-68698595D01*
X145963061Y-68455641D01*
X145816962Y-68236987D01*
X145631013Y-68051038D01*
X145412359Y-67904939D01*
X145169405Y-67804304D01*
X144911486Y-67753000D01*
X144648514Y-67753000D01*
X144390595Y-67804304D01*
X144147641Y-67904939D01*
X143928987Y-68051038D01*
X143743038Y-68236987D01*
X143596939Y-68455641D01*
X143496304Y-68698595D01*
X143445000Y-68956514D01*
X138490557Y-68956514D01*
X138459125Y-68753656D01*
X138368935Y-68506634D01*
X138315037Y-68405797D01*
X138081269Y-68346336D01*
X137339605Y-69088000D01*
X136980395Y-69088000D01*
X136238731Y-68346336D01*
X136004963Y-68405797D01*
X135894066Y-68644242D01*
X135831817Y-68899740D01*
X135820610Y-69162473D01*
X127977000Y-69162473D01*
X127977000Y-68941740D01*
X127919932Y-68654842D01*
X127807990Y-68384589D01*
X127662423Y-68166731D01*
X136418336Y-68166731D01*
X137160000Y-68908395D01*
X137901664Y-68166731D01*
X137842203Y-67932963D01*
X137603758Y-67822066D01*
X137348260Y-67759817D01*
X137085527Y-67748610D01*
X136825656Y-67788875D01*
X136578634Y-67879065D01*
X136477797Y-67932963D01*
X136418336Y-68166731D01*
X127662423Y-68166731D01*
X127645475Y-68141368D01*
X127438632Y-67934525D01*
X127264240Y-67818000D01*
X127438632Y-67701475D01*
X127645475Y-67494632D01*
X127807990Y-67251411D01*
X127919932Y-66981158D01*
X127977000Y-66694260D01*
X127977000Y-66401740D01*
X127936726Y-66199269D01*
X136418336Y-66199269D01*
X136477797Y-66433037D01*
X136716242Y-66543934D01*
X136971740Y-66606183D01*
X137234473Y-66617390D01*
X137494344Y-66577125D01*
X137741366Y-66486935D01*
X137842203Y-66433037D01*
X137901664Y-66199269D01*
X137160000Y-65457605D01*
X136418336Y-66199269D01*
X127936726Y-66199269D01*
X127919932Y-66114842D01*
X127807990Y-65844589D01*
X127645475Y-65601368D01*
X127438632Y-65394525D01*
X127375697Y-65352473D01*
X135820610Y-65352473D01*
X135860875Y-65612344D01*
X135951065Y-65859366D01*
X136004963Y-65960203D01*
X136238731Y-66019664D01*
X136980395Y-65278000D01*
X137339605Y-65278000D01*
X138081269Y-66019664D01*
X138315037Y-65960203D01*
X138425934Y-65721758D01*
X138488183Y-65466260D01*
X138499390Y-65203527D01*
X138490557Y-65146514D01*
X143445000Y-65146514D01*
X143445000Y-65409486D01*
X143496304Y-65667405D01*
X143596939Y-65910359D01*
X143743038Y-66129013D01*
X143928987Y-66314962D01*
X144147641Y-66461061D01*
X144390595Y-66561696D01*
X144648514Y-66613000D01*
X144911486Y-66613000D01*
X145169405Y-66561696D01*
X145412359Y-66461061D01*
X145631013Y-66314962D01*
X145816962Y-66129013D01*
X145963061Y-65910359D01*
X146063696Y-65667405D01*
X146115000Y-65409486D01*
X146115000Y-65146514D01*
X146063696Y-64888595D01*
X145963061Y-64645641D01*
X145816962Y-64426987D01*
X145631013Y-64241038D01*
X145412359Y-64094939D01*
X145169405Y-63994304D01*
X144911486Y-63943000D01*
X144648514Y-63943000D01*
X144390595Y-63994304D01*
X144147641Y-64094939D01*
X143928987Y-64241038D01*
X143743038Y-64426987D01*
X143596939Y-64645641D01*
X143496304Y-64888595D01*
X143445000Y-65146514D01*
X138490557Y-65146514D01*
X138459125Y-64943656D01*
X138368935Y-64696634D01*
X138315037Y-64595797D01*
X138081269Y-64536336D01*
X137339605Y-65278000D01*
X136980395Y-65278000D01*
X136238731Y-64536336D01*
X136004963Y-64595797D01*
X135894066Y-64834242D01*
X135831817Y-65089740D01*
X135820610Y-65352473D01*
X127375697Y-65352473D01*
X127264240Y-65278000D01*
X127438632Y-65161475D01*
X127645475Y-64954632D01*
X127807990Y-64711411D01*
X127919932Y-64441158D01*
X127936725Y-64356731D01*
X136418336Y-64356731D01*
X137160000Y-65098395D01*
X137901664Y-64356731D01*
X137842203Y-64122963D01*
X137603758Y-64012066D01*
X137348260Y-63949817D01*
X137085527Y-63938610D01*
X136825656Y-63978875D01*
X136578634Y-64069065D01*
X136477797Y-64122963D01*
X136418336Y-64356731D01*
X127936725Y-64356731D01*
X127977000Y-64154260D01*
X127977000Y-63861740D01*
X127919932Y-63574842D01*
X127807990Y-63304589D01*
X127645475Y-63061368D01*
X127438632Y-62854525D01*
X127264240Y-62738000D01*
X127438632Y-62621475D01*
X127645475Y-62414632D01*
X127662422Y-62389269D01*
X136418336Y-62389269D01*
X136477797Y-62623037D01*
X136716242Y-62733934D01*
X136971740Y-62796183D01*
X137234473Y-62807390D01*
X137494344Y-62767125D01*
X137741366Y-62676935D01*
X137842203Y-62623037D01*
X137901664Y-62389269D01*
X137160000Y-61647605D01*
X136418336Y-62389269D01*
X127662422Y-62389269D01*
X127807990Y-62171411D01*
X127919932Y-61901158D01*
X127977000Y-61614260D01*
X127977000Y-61542473D01*
X135820610Y-61542473D01*
X135860875Y-61802344D01*
X135951065Y-62049366D01*
X136004963Y-62150203D01*
X136238731Y-62209664D01*
X136980395Y-61468000D01*
X137339605Y-61468000D01*
X138081269Y-62209664D01*
X138315037Y-62150203D01*
X138425934Y-61911758D01*
X138488183Y-61656260D01*
X138499390Y-61393527D01*
X138490557Y-61336514D01*
X143445000Y-61336514D01*
X143445000Y-61599486D01*
X143496304Y-61857405D01*
X143596939Y-62100359D01*
X143743038Y-62319013D01*
X143928987Y-62504962D01*
X144147641Y-62651061D01*
X144390595Y-62751696D01*
X144648514Y-62803000D01*
X144911486Y-62803000D01*
X145169405Y-62751696D01*
X145412359Y-62651061D01*
X145631013Y-62504962D01*
X145816962Y-62319013D01*
X145963061Y-62100359D01*
X146063696Y-61857405D01*
X146115000Y-61599486D01*
X146115000Y-61336514D01*
X146063696Y-61078595D01*
X145963061Y-60835641D01*
X145816962Y-60616987D01*
X145631013Y-60431038D01*
X145412359Y-60284939D01*
X145169405Y-60184304D01*
X144911486Y-60133000D01*
X144648514Y-60133000D01*
X144390595Y-60184304D01*
X144147641Y-60284939D01*
X143928987Y-60431038D01*
X143743038Y-60616987D01*
X143596939Y-60835641D01*
X143496304Y-61078595D01*
X143445000Y-61336514D01*
X138490557Y-61336514D01*
X138459125Y-61133656D01*
X138368935Y-60886634D01*
X138315037Y-60785797D01*
X138081269Y-60726336D01*
X137339605Y-61468000D01*
X136980395Y-61468000D01*
X136238731Y-60726336D01*
X136004963Y-60785797D01*
X135894066Y-61024242D01*
X135831817Y-61279740D01*
X135820610Y-61542473D01*
X127977000Y-61542473D01*
X127977000Y-61321740D01*
X127919932Y-61034842D01*
X127807990Y-60764589D01*
X127662423Y-60546731D01*
X136418336Y-60546731D01*
X137160000Y-61288395D01*
X137901664Y-60546731D01*
X137842203Y-60312963D01*
X137603758Y-60202066D01*
X137348260Y-60139817D01*
X137085527Y-60128610D01*
X136825656Y-60168875D01*
X136578634Y-60259065D01*
X136477797Y-60312963D01*
X136418336Y-60546731D01*
X127662423Y-60546731D01*
X127645475Y-60521368D01*
X127438632Y-60314525D01*
X127264240Y-60198000D01*
X127438632Y-60081475D01*
X127645475Y-59874632D01*
X127807990Y-59631411D01*
X127919932Y-59361158D01*
X127977000Y-59074260D01*
X127977000Y-58781740D01*
X127936726Y-58579269D01*
X136418336Y-58579269D01*
X136477797Y-58813037D01*
X136716242Y-58923934D01*
X136971740Y-58986183D01*
X137234473Y-58997390D01*
X137494344Y-58957125D01*
X137741366Y-58866935D01*
X137842203Y-58813037D01*
X137901664Y-58579269D01*
X137160000Y-57837605D01*
X136418336Y-58579269D01*
X127936726Y-58579269D01*
X127919932Y-58494842D01*
X127807990Y-58224589D01*
X127645475Y-57981368D01*
X127438632Y-57774525D01*
X127375697Y-57732473D01*
X135820610Y-57732473D01*
X135860875Y-57992344D01*
X135951065Y-58239366D01*
X136004963Y-58340203D01*
X136238731Y-58399664D01*
X136980395Y-57658000D01*
X137339605Y-57658000D01*
X138081269Y-58399664D01*
X138315037Y-58340203D01*
X138425934Y-58101758D01*
X138488183Y-57846260D01*
X138499390Y-57583527D01*
X138490557Y-57526514D01*
X143445000Y-57526514D01*
X143445000Y-57789486D01*
X143496304Y-58047405D01*
X143596939Y-58290359D01*
X143743038Y-58509013D01*
X143928987Y-58694962D01*
X144147641Y-58841061D01*
X144390595Y-58941696D01*
X144648514Y-58993000D01*
X144911486Y-58993000D01*
X145169405Y-58941696D01*
X145412359Y-58841061D01*
X145631013Y-58694962D01*
X145816962Y-58509013D01*
X145963061Y-58290359D01*
X146063696Y-58047405D01*
X146115000Y-57789486D01*
X146115000Y-57526514D01*
X146063696Y-57268595D01*
X145963061Y-57025641D01*
X145816962Y-56806987D01*
X145631013Y-56621038D01*
X145412359Y-56474939D01*
X145169405Y-56374304D01*
X144911486Y-56323000D01*
X144648514Y-56323000D01*
X144390595Y-56374304D01*
X144147641Y-56474939D01*
X143928987Y-56621038D01*
X143743038Y-56806987D01*
X143596939Y-57025641D01*
X143496304Y-57268595D01*
X143445000Y-57526514D01*
X138490557Y-57526514D01*
X138459125Y-57323656D01*
X138368935Y-57076634D01*
X138315037Y-56975797D01*
X138081269Y-56916336D01*
X137339605Y-57658000D01*
X136980395Y-57658000D01*
X136238731Y-56916336D01*
X136004963Y-56975797D01*
X135894066Y-57214242D01*
X135831817Y-57469740D01*
X135820610Y-57732473D01*
X127375697Y-57732473D01*
X127264240Y-57658000D01*
X127438632Y-57541475D01*
X127645475Y-57334632D01*
X127807990Y-57091411D01*
X127919932Y-56821158D01*
X127936725Y-56736731D01*
X136418336Y-56736731D01*
X137160000Y-57478395D01*
X137901664Y-56736731D01*
X137842203Y-56502963D01*
X137603758Y-56392066D01*
X137348260Y-56329817D01*
X137085527Y-56318610D01*
X136825656Y-56358875D01*
X136578634Y-56449065D01*
X136477797Y-56502963D01*
X136418336Y-56736731D01*
X127936725Y-56736731D01*
X127977000Y-56534260D01*
X127977000Y-56241740D01*
X127919932Y-55954842D01*
X127807990Y-55684589D01*
X127645475Y-55441368D01*
X127438632Y-55234525D01*
X127264240Y-55118000D01*
X127438632Y-55001475D01*
X127645475Y-54794632D01*
X127662422Y-54769269D01*
X136418336Y-54769269D01*
X136477797Y-55003037D01*
X136716242Y-55113934D01*
X136971740Y-55176183D01*
X137234473Y-55187390D01*
X137494344Y-55147125D01*
X137741366Y-55056935D01*
X137842203Y-55003037D01*
X137901664Y-54769269D01*
X137160000Y-54027605D01*
X136418336Y-54769269D01*
X127662422Y-54769269D01*
X127807990Y-54551411D01*
X127919932Y-54281158D01*
X127977000Y-53994260D01*
X127977000Y-53922473D01*
X135820610Y-53922473D01*
X135860875Y-54182344D01*
X135951065Y-54429366D01*
X136004963Y-54530203D01*
X136238731Y-54589664D01*
X136980395Y-53848000D01*
X137339605Y-53848000D01*
X138081269Y-54589664D01*
X138315037Y-54530203D01*
X138425934Y-54291758D01*
X138488183Y-54036260D01*
X138499390Y-53773527D01*
X138490557Y-53716514D01*
X143445000Y-53716514D01*
X143445000Y-53979486D01*
X143496304Y-54237405D01*
X143596939Y-54480359D01*
X143743038Y-54699013D01*
X143928987Y-54884962D01*
X144147641Y-55031061D01*
X144390595Y-55131696D01*
X144648514Y-55183000D01*
X144911486Y-55183000D01*
X145169405Y-55131696D01*
X145412359Y-55031061D01*
X145631013Y-54884962D01*
X145816962Y-54699013D01*
X145963061Y-54480359D01*
X146063696Y-54237405D01*
X146115000Y-53979486D01*
X146115000Y-53716514D01*
X146063696Y-53458595D01*
X145963061Y-53215641D01*
X145816962Y-52996987D01*
X145631013Y-52811038D01*
X145412359Y-52664939D01*
X145169405Y-52564304D01*
X144911486Y-52513000D01*
X144648514Y-52513000D01*
X144390595Y-52564304D01*
X144147641Y-52664939D01*
X143928987Y-52811038D01*
X143743038Y-52996987D01*
X143596939Y-53215641D01*
X143496304Y-53458595D01*
X143445000Y-53716514D01*
X138490557Y-53716514D01*
X138459125Y-53513656D01*
X138368935Y-53266634D01*
X138315037Y-53165797D01*
X138081269Y-53106336D01*
X137339605Y-53848000D01*
X136980395Y-53848000D01*
X136238731Y-53106336D01*
X136004963Y-53165797D01*
X135894066Y-53404242D01*
X135831817Y-53659740D01*
X135820610Y-53922473D01*
X127977000Y-53922473D01*
X127977000Y-53701740D01*
X127919932Y-53414842D01*
X127807990Y-53144589D01*
X127662423Y-52926731D01*
X136418336Y-52926731D01*
X137160000Y-53668395D01*
X137901664Y-52926731D01*
X137842203Y-52692963D01*
X137603758Y-52582066D01*
X137348260Y-52519817D01*
X137085527Y-52508610D01*
X136825656Y-52548875D01*
X136578634Y-52639065D01*
X136477797Y-52692963D01*
X136418336Y-52926731D01*
X127662423Y-52926731D01*
X127645475Y-52901368D01*
X127438632Y-52694525D01*
X127264240Y-52578000D01*
X127438632Y-52461475D01*
X127645475Y-52254632D01*
X127807990Y-52011411D01*
X127919932Y-51741158D01*
X127977000Y-51454260D01*
X127977000Y-51161740D01*
X127936726Y-50959269D01*
X136418336Y-50959269D01*
X136477797Y-51193037D01*
X136716242Y-51303934D01*
X136971740Y-51366183D01*
X137234473Y-51377390D01*
X137494344Y-51337125D01*
X137741366Y-51246935D01*
X137842203Y-51193037D01*
X137901664Y-50959269D01*
X137160000Y-50217605D01*
X136418336Y-50959269D01*
X127936726Y-50959269D01*
X127919932Y-50874842D01*
X127807990Y-50604589D01*
X127645475Y-50361368D01*
X127438632Y-50154525D01*
X127375697Y-50112473D01*
X135820610Y-50112473D01*
X135860875Y-50372344D01*
X135951065Y-50619366D01*
X136004963Y-50720203D01*
X136238731Y-50779664D01*
X136980395Y-50038000D01*
X137339605Y-50038000D01*
X138081269Y-50779664D01*
X138315037Y-50720203D01*
X138425934Y-50481758D01*
X138488183Y-50226260D01*
X138499390Y-49963527D01*
X138490557Y-49906514D01*
X143445000Y-49906514D01*
X143445000Y-50169486D01*
X143496304Y-50427405D01*
X143596939Y-50670359D01*
X143743038Y-50889013D01*
X143928987Y-51074962D01*
X144147641Y-51221061D01*
X144390595Y-51321696D01*
X144648514Y-51373000D01*
X144911486Y-51373000D01*
X145169405Y-51321696D01*
X145412359Y-51221061D01*
X145631013Y-51074962D01*
X145816962Y-50889013D01*
X145963061Y-50670359D01*
X146063696Y-50427405D01*
X146115000Y-50169486D01*
X146115000Y-49906514D01*
X146063696Y-49648595D01*
X145963061Y-49405641D01*
X145816962Y-49186987D01*
X145631013Y-49001038D01*
X145412359Y-48854939D01*
X145169405Y-48754304D01*
X144911486Y-48703000D01*
X144648514Y-48703000D01*
X144390595Y-48754304D01*
X144147641Y-48854939D01*
X143928987Y-49001038D01*
X143743038Y-49186987D01*
X143596939Y-49405641D01*
X143496304Y-49648595D01*
X143445000Y-49906514D01*
X138490557Y-49906514D01*
X138459125Y-49703656D01*
X138368935Y-49456634D01*
X138315037Y-49355797D01*
X138081269Y-49296336D01*
X137339605Y-50038000D01*
X136980395Y-50038000D01*
X136238731Y-49296336D01*
X136004963Y-49355797D01*
X135894066Y-49594242D01*
X135831817Y-49849740D01*
X135820610Y-50112473D01*
X127375697Y-50112473D01*
X127264240Y-50038000D01*
X127438632Y-49921475D01*
X127645475Y-49714632D01*
X127807990Y-49471411D01*
X127919932Y-49201158D01*
X127936725Y-49116731D01*
X136418336Y-49116731D01*
X137160000Y-49858395D01*
X137901664Y-49116731D01*
X137842203Y-48882963D01*
X137603758Y-48772066D01*
X137348260Y-48709817D01*
X137085527Y-48698610D01*
X136825656Y-48738875D01*
X136578634Y-48829065D01*
X136477797Y-48882963D01*
X136418336Y-49116731D01*
X127936725Y-49116731D01*
X127977000Y-48914260D01*
X127977000Y-48621740D01*
X127919932Y-48334842D01*
X127807990Y-48064589D01*
X127645475Y-47821368D01*
X127513620Y-47689513D01*
X127586180Y-47667502D01*
X127696494Y-47608537D01*
X127793185Y-47529185D01*
X127872537Y-47432494D01*
X127931502Y-47322180D01*
X127967812Y-47202482D01*
X127973052Y-47149269D01*
X136418336Y-47149269D01*
X136477797Y-47383037D01*
X136716242Y-47493934D01*
X136971740Y-47556183D01*
X137234473Y-47567390D01*
X137494344Y-47527125D01*
X137741366Y-47436935D01*
X137842203Y-47383037D01*
X137901664Y-47149269D01*
X137160000Y-46407605D01*
X136418336Y-47149269D01*
X127973052Y-47149269D01*
X127980072Y-47078000D01*
X127980072Y-46302473D01*
X135820610Y-46302473D01*
X135860875Y-46562344D01*
X135951065Y-46809366D01*
X136004963Y-46910203D01*
X136238731Y-46969664D01*
X136980395Y-46228000D01*
X137339605Y-46228000D01*
X138081269Y-46969664D01*
X138315037Y-46910203D01*
X138425934Y-46671758D01*
X138488183Y-46416260D01*
X138499390Y-46153527D01*
X138490557Y-46096514D01*
X143445000Y-46096514D01*
X143445000Y-46359486D01*
X143496304Y-46617405D01*
X143596939Y-46860359D01*
X143743038Y-47079013D01*
X143928987Y-47264962D01*
X144147641Y-47411061D01*
X144390595Y-47511696D01*
X144648514Y-47563000D01*
X144911486Y-47563000D01*
X145169405Y-47511696D01*
X145412359Y-47411061D01*
X145631013Y-47264962D01*
X145816962Y-47079013D01*
X145963061Y-46860359D01*
X146063696Y-46617405D01*
X146115000Y-46359486D01*
X146115000Y-46096514D01*
X146063696Y-45838595D01*
X145963061Y-45595641D01*
X145816962Y-45376987D01*
X145631013Y-45191038D01*
X145412359Y-45044939D01*
X145169405Y-44944304D01*
X144911486Y-44893000D01*
X144648514Y-44893000D01*
X144390595Y-44944304D01*
X144147641Y-45044939D01*
X143928987Y-45191038D01*
X143743038Y-45376987D01*
X143596939Y-45595641D01*
X143496304Y-45838595D01*
X143445000Y-46096514D01*
X138490557Y-46096514D01*
X138459125Y-45893656D01*
X138368935Y-45646634D01*
X138315037Y-45545797D01*
X138081269Y-45486336D01*
X137339605Y-46228000D01*
X136980395Y-46228000D01*
X136238731Y-45486336D01*
X136004963Y-45545797D01*
X135894066Y-45784242D01*
X135831817Y-46039740D01*
X135820610Y-46302473D01*
X127980072Y-46302473D01*
X127980072Y-45378000D01*
X127973053Y-45306731D01*
X136418336Y-45306731D01*
X137160000Y-46048395D01*
X137901664Y-45306731D01*
X137842203Y-45072963D01*
X137603758Y-44962066D01*
X137348260Y-44899817D01*
X137085527Y-44888610D01*
X136825656Y-44928875D01*
X136578634Y-45019065D01*
X136477797Y-45072963D01*
X136418336Y-45306731D01*
X127973053Y-45306731D01*
X127967812Y-45253518D01*
X127931502Y-45133820D01*
X127872537Y-45023506D01*
X127793185Y-44926815D01*
X127696494Y-44847463D01*
X127586180Y-44788498D01*
X127466482Y-44752188D01*
X127342000Y-44739928D01*
X125642000Y-44739928D01*
X125517518Y-44752188D01*
X125397820Y-44788498D01*
X125287506Y-44847463D01*
X125190815Y-44926815D01*
X125111463Y-45023506D01*
X125052498Y-45133820D01*
X125016188Y-45253518D01*
X125003928Y-45378000D01*
X125003928Y-46641270D01*
X124653199Y-46992000D01*
X113321322Y-46992000D01*
X113283999Y-46988324D01*
X113246676Y-46992000D01*
X113246667Y-46992000D01*
X113135014Y-47002997D01*
X112991753Y-47046454D01*
X112859724Y-47117026D01*
X112743999Y-47211999D01*
X112720201Y-47240997D01*
X110305887Y-49655312D01*
X110123335Y-49619000D01*
X109840665Y-49619000D01*
X109563426Y-49674147D01*
X109302273Y-49782320D01*
X109067241Y-49939363D01*
X108867363Y-50139241D01*
X108710320Y-50374273D01*
X108602147Y-50635426D01*
X108547000Y-50912665D01*
X103800072Y-50912665D01*
X103800072Y-50254000D01*
X103787812Y-50129518D01*
X103751502Y-50009820D01*
X103692537Y-49899506D01*
X103613185Y-49802815D01*
X103516494Y-49723463D01*
X103406180Y-49664498D01*
X103286482Y-49628188D01*
X103162000Y-49615928D01*
X101562000Y-49615928D01*
X101437518Y-49628188D01*
X101317820Y-49664498D01*
X101207506Y-49723463D01*
X101110815Y-49802815D01*
X101031463Y-49899506D01*
X101021043Y-49919000D01*
X88608133Y-49919000D01*
X86011000Y-47321869D01*
X86011000Y-46458702D01*
X86562903Y-46458702D01*
X86634486Y-46702671D01*
X86889996Y-46823571D01*
X87164184Y-46892300D01*
X87446512Y-46906217D01*
X87726130Y-46864787D01*
X87992292Y-46769603D01*
X88117514Y-46702671D01*
X88189097Y-46458702D01*
X87376000Y-45645605D01*
X86562903Y-46458702D01*
X86011000Y-46458702D01*
X86011000Y-46350284D01*
X86124692Y-46180131D01*
X86139329Y-46207514D01*
X86383298Y-46279097D01*
X87196395Y-45466000D01*
X87555605Y-45466000D01*
X88368702Y-46279097D01*
X88612671Y-46207514D01*
X88733571Y-45952004D01*
X88802300Y-45677816D01*
X88816217Y-45395488D01*
X88774787Y-45115870D01*
X88679603Y-44849708D01*
X88612671Y-44724486D01*
X88368702Y-44652903D01*
X87555605Y-45466000D01*
X87196395Y-45466000D01*
X86383298Y-44652903D01*
X86139329Y-44724486D01*
X86125676Y-44753341D01*
X85990637Y-44551241D01*
X85971000Y-44531604D01*
X85971000Y-44473298D01*
X86562903Y-44473298D01*
X87376000Y-45286395D01*
X88189097Y-44473298D01*
X88117514Y-44229329D01*
X87862004Y-44108429D01*
X87587816Y-44039700D01*
X87305488Y-44025783D01*
X87025870Y-44067213D01*
X86759708Y-44162397D01*
X86634486Y-44229329D01*
X86562903Y-44473298D01*
X85971000Y-44473298D01*
X85971000Y-43339269D01*
X136418336Y-43339269D01*
X136477797Y-43573037D01*
X136716242Y-43683934D01*
X136971740Y-43746183D01*
X137234473Y-43757390D01*
X137494344Y-43717125D01*
X137741366Y-43626935D01*
X137842203Y-43573037D01*
X137901664Y-43339269D01*
X137160000Y-42597605D01*
X136418336Y-43339269D01*
X85971000Y-43339269D01*
X85971000Y-42492473D01*
X135820610Y-42492473D01*
X135860875Y-42752344D01*
X135951065Y-42999366D01*
X136004963Y-43100203D01*
X136238731Y-43159664D01*
X136980395Y-42418000D01*
X137339605Y-42418000D01*
X138081269Y-43159664D01*
X138315037Y-43100203D01*
X138425934Y-42861758D01*
X138488183Y-42606260D01*
X138499390Y-42343527D01*
X138490557Y-42286514D01*
X143445000Y-42286514D01*
X143445000Y-42549486D01*
X143496304Y-42807405D01*
X143596939Y-43050359D01*
X143743038Y-43269013D01*
X143928987Y-43454962D01*
X144147641Y-43601061D01*
X144390595Y-43701696D01*
X144648514Y-43753000D01*
X144911486Y-43753000D01*
X145169405Y-43701696D01*
X145412359Y-43601061D01*
X145631013Y-43454962D01*
X145816962Y-43269013D01*
X145963061Y-43050359D01*
X146063696Y-42807405D01*
X146115000Y-42549486D01*
X146115000Y-42286514D01*
X146063696Y-42028595D01*
X145963061Y-41785641D01*
X145816962Y-41566987D01*
X145631013Y-41381038D01*
X145412359Y-41234939D01*
X145169405Y-41134304D01*
X144911486Y-41083000D01*
X144648514Y-41083000D01*
X144390595Y-41134304D01*
X144147641Y-41234939D01*
X143928987Y-41381038D01*
X143743038Y-41566987D01*
X143596939Y-41785641D01*
X143496304Y-42028595D01*
X143445000Y-42286514D01*
X138490557Y-42286514D01*
X138459125Y-42083656D01*
X138368935Y-41836634D01*
X138315037Y-41735797D01*
X138081269Y-41676336D01*
X137339605Y-42418000D01*
X136980395Y-42418000D01*
X136238731Y-41676336D01*
X136004963Y-41735797D01*
X135894066Y-41974242D01*
X135831817Y-42229740D01*
X135820610Y-42492473D01*
X85971000Y-42492473D01*
X85971000Y-41496731D01*
X136418336Y-41496731D01*
X137160000Y-42238395D01*
X137901664Y-41496731D01*
X137842203Y-41262963D01*
X137603758Y-41152066D01*
X137348260Y-41089817D01*
X137085527Y-41078610D01*
X136825656Y-41118875D01*
X136578634Y-41209065D01*
X136477797Y-41262963D01*
X136418336Y-41496731D01*
X85971000Y-41496731D01*
X85971000Y-39529269D01*
X136418336Y-39529269D01*
X136477797Y-39763037D01*
X136716242Y-39873934D01*
X136971740Y-39936183D01*
X137234473Y-39947390D01*
X137494344Y-39907125D01*
X137741366Y-39816935D01*
X137842203Y-39763037D01*
X137901664Y-39529269D01*
X137160000Y-38787605D01*
X136418336Y-39529269D01*
X85971000Y-39529269D01*
X85971000Y-38682473D01*
X135820610Y-38682473D01*
X135860875Y-38942344D01*
X135951065Y-39189366D01*
X136004963Y-39290203D01*
X136238731Y-39349664D01*
X136980395Y-38608000D01*
X137339605Y-38608000D01*
X138081269Y-39349664D01*
X138315037Y-39290203D01*
X138425934Y-39051758D01*
X138488183Y-38796260D01*
X138499390Y-38533527D01*
X138490557Y-38476514D01*
X143445000Y-38476514D01*
X143445000Y-38739486D01*
X143496304Y-38997405D01*
X143596939Y-39240359D01*
X143743038Y-39459013D01*
X143928987Y-39644962D01*
X144147641Y-39791061D01*
X144390595Y-39891696D01*
X144648514Y-39943000D01*
X144911486Y-39943000D01*
X145169405Y-39891696D01*
X145412359Y-39791061D01*
X145631013Y-39644962D01*
X145816962Y-39459013D01*
X145963061Y-39240359D01*
X146063696Y-38997405D01*
X146115000Y-38739486D01*
X146115000Y-38476514D01*
X146063696Y-38218595D01*
X145963061Y-37975641D01*
X145816962Y-37756987D01*
X145631013Y-37571038D01*
X145412359Y-37424939D01*
X145169405Y-37324304D01*
X144911486Y-37273000D01*
X144648514Y-37273000D01*
X144390595Y-37324304D01*
X144147641Y-37424939D01*
X143928987Y-37571038D01*
X143743038Y-37756987D01*
X143596939Y-37975641D01*
X143496304Y-38218595D01*
X143445000Y-38476514D01*
X138490557Y-38476514D01*
X138459125Y-38273656D01*
X138368935Y-38026634D01*
X138315037Y-37925797D01*
X138081269Y-37866336D01*
X137339605Y-38608000D01*
X136980395Y-38608000D01*
X136238731Y-37866336D01*
X136004963Y-37925797D01*
X135894066Y-38164242D01*
X135831817Y-38419740D01*
X135820610Y-38682473D01*
X85971000Y-38682473D01*
X85971000Y-37686731D01*
X136418336Y-37686731D01*
X137160000Y-38428395D01*
X137901664Y-37686731D01*
X137842203Y-37452963D01*
X137603758Y-37342066D01*
X137348260Y-37279817D01*
X137085527Y-37268610D01*
X136825656Y-37308875D01*
X136578634Y-37399065D01*
X136477797Y-37452963D01*
X136418336Y-37686731D01*
X85971000Y-37686731D01*
X85971000Y-36723683D01*
X86040494Y-36686537D01*
X86137185Y-36607185D01*
X86216537Y-36510494D01*
X86275502Y-36400180D01*
X86299966Y-36319534D01*
X86375731Y-36403588D01*
X86609080Y-36577641D01*
X86871901Y-36702825D01*
X87019110Y-36747476D01*
X87249000Y-36626155D01*
X87249000Y-35433000D01*
X87503000Y-35433000D01*
X87503000Y-36626155D01*
X87732890Y-36747476D01*
X87880099Y-36702825D01*
X88142920Y-36577641D01*
X88376269Y-36403588D01*
X88571178Y-36187355D01*
X88720157Y-35937252D01*
X88797482Y-35719269D01*
X136418336Y-35719269D01*
X136477797Y-35953037D01*
X136716242Y-36063934D01*
X136971740Y-36126183D01*
X137234473Y-36137390D01*
X137494344Y-36097125D01*
X137741366Y-36006935D01*
X137842203Y-35953037D01*
X137901664Y-35719269D01*
X137160000Y-34977605D01*
X136418336Y-35719269D01*
X88797482Y-35719269D01*
X88817481Y-35662891D01*
X88696814Y-35433000D01*
X87503000Y-35433000D01*
X87249000Y-35433000D01*
X87229000Y-35433000D01*
X87229000Y-35179000D01*
X87249000Y-35179000D01*
X87249000Y-33985845D01*
X87503000Y-33985845D01*
X87503000Y-35179000D01*
X88696814Y-35179000D01*
X88817481Y-34949109D01*
X88790296Y-34872473D01*
X135820610Y-34872473D01*
X135860875Y-35132344D01*
X135951065Y-35379366D01*
X136004963Y-35480203D01*
X136238731Y-35539664D01*
X136980395Y-34798000D01*
X137339605Y-34798000D01*
X138081269Y-35539664D01*
X138315037Y-35480203D01*
X138425934Y-35241758D01*
X138488183Y-34986260D01*
X138499390Y-34723527D01*
X138490557Y-34666514D01*
X143445000Y-34666514D01*
X143445000Y-34929486D01*
X143496304Y-35187405D01*
X143596939Y-35430359D01*
X143743038Y-35649013D01*
X143928987Y-35834962D01*
X144147641Y-35981061D01*
X144390595Y-36081696D01*
X144648514Y-36133000D01*
X144911486Y-36133000D01*
X145169405Y-36081696D01*
X145412359Y-35981061D01*
X145631013Y-35834962D01*
X145816962Y-35649013D01*
X145963061Y-35430359D01*
X146063696Y-35187405D01*
X146115000Y-34929486D01*
X146115000Y-34666514D01*
X146063696Y-34408595D01*
X145963061Y-34165641D01*
X145816962Y-33946987D01*
X145631013Y-33761038D01*
X145412359Y-33614939D01*
X145169405Y-33514304D01*
X144911486Y-33463000D01*
X144648514Y-33463000D01*
X144390595Y-33514304D01*
X144147641Y-33614939D01*
X143928987Y-33761038D01*
X143743038Y-33946987D01*
X143596939Y-34165641D01*
X143496304Y-34408595D01*
X143445000Y-34666514D01*
X138490557Y-34666514D01*
X138459125Y-34463656D01*
X138368935Y-34216634D01*
X138315037Y-34115797D01*
X138081269Y-34056336D01*
X137339605Y-34798000D01*
X136980395Y-34798000D01*
X136238731Y-34056336D01*
X136004963Y-34115797D01*
X135894066Y-34354242D01*
X135831817Y-34609740D01*
X135820610Y-34872473D01*
X88790296Y-34872473D01*
X88720157Y-34674748D01*
X88571178Y-34424645D01*
X88376269Y-34208412D01*
X88142920Y-34034359D01*
X87880099Y-33909175D01*
X87773136Y-33876731D01*
X136418336Y-33876731D01*
X137160000Y-34618395D01*
X137901664Y-33876731D01*
X137842203Y-33642963D01*
X137603758Y-33532066D01*
X137348260Y-33469817D01*
X137085527Y-33458610D01*
X136825656Y-33498875D01*
X136578634Y-33589065D01*
X136477797Y-33642963D01*
X136418336Y-33876731D01*
X87773136Y-33876731D01*
X87732890Y-33864524D01*
X87503000Y-33985845D01*
X87249000Y-33985845D01*
X87019110Y-33864524D01*
X86871901Y-33909175D01*
X86609080Y-34034359D01*
X86375731Y-34208412D01*
X86299966Y-34292466D01*
X86275502Y-34211820D01*
X86216537Y-34101506D01*
X86137185Y-34004815D01*
X86040494Y-33925463D01*
X85930180Y-33866498D01*
X85810482Y-33830188D01*
X85686000Y-33817928D01*
X83986000Y-33817928D01*
X83861518Y-33830188D01*
X83741820Y-33866498D01*
X83631506Y-33925463D01*
X83534815Y-34004815D01*
X83455463Y-34101506D01*
X83396498Y-34211820D01*
X83360188Y-34331518D01*
X83347928Y-34456000D01*
X81432000Y-34456000D01*
X81432000Y-31140000D01*
X149708000Y-31140000D01*
X149708001Y-131420000D01*
G37*
%TD.AperFunction*%
%TD*%
M02*
