%FSLAX45Y45*%
G04 Gerber Fmt 4.5, Leading zero omitted, Abs format (unit mm)*
G04 Created by KiCad (PCBNEW (5.1.12)-1) date 2022-10-05 17:56:05*
%MOMM*%
%LPD*%
G01*
G04 APERTURE LIST*
%TA.AperFunction,Profile*%
%ADD10C,0.050000*%
%TD*%
%ADD11C,0.200000*%
%ADD12C,0.300000*%
G04 APERTURE END LIST*
D10*
X12700000Y-10541000D02*
X12700000Y-5080000D01*
X20955000Y-10541000D02*
X12700000Y-10541000D01*
X20955000Y-5080000D02*
X20955000Y-10541000D01*
X12700000Y-5080000D02*
X20955000Y-5080000D01*
D11*
X17873860Y-9262200D02*
X17913860Y-9302200D01*
X17913860Y-9262200D02*
X17873860Y-9302200D01*
X17958310Y-9505000D02*
X17998310Y-9545000D01*
X17998310Y-9505000D02*
X17958310Y-9545000D01*
X19045890Y-7219000D02*
X19085890Y-7259000D01*
X19085890Y-7219000D02*
X19045890Y-7259000D01*
X13629000Y-6096000D02*
G75*
G03*
X13629000Y-6096000I-40000J0D01*
G01*
X13629000Y-6350000D02*
G75*
G03*
X13629000Y-6350000I-40000J0D01*
G01*
X13629000Y-6604000D02*
G75*
G03*
X13629000Y-6604000I-40000J0D01*
G01*
X13629000Y-6858000D02*
G75*
G03*
X13629000Y-6858000I-40000J0D01*
G01*
X13629000Y-7112000D02*
G75*
G03*
X13629000Y-7112000I-40000J0D01*
G01*
X13629000Y-7366000D02*
G75*
G03*
X13629000Y-7366000I-40000J0D01*
G01*
X13629000Y-7620000D02*
G75*
G03*
X13629000Y-7620000I-40000J0D01*
G01*
X13629000Y-8636000D02*
G75*
G03*
X13629000Y-8636000I-40000J0D01*
G01*
X13629000Y-8890000D02*
G75*
G03*
X13629000Y-8890000I-40000J0D01*
G01*
X13629000Y-9144000D02*
G75*
G03*
X13629000Y-9144000I-40000J0D01*
G01*
X13629000Y-9398000D02*
G75*
G03*
X13629000Y-9398000I-40000J0D01*
G01*
X13629000Y-9652000D02*
G75*
G03*
X13629000Y-9652000I-40000J0D01*
G01*
X13629000Y-9906000D02*
G75*
G03*
X13629000Y-9906000I-40000J0D01*
G01*
X13629000Y-10160000D02*
G75*
G03*
X13629000Y-10160000I-40000J0D01*
G01*
X13883000Y-5461000D02*
G75*
G03*
X13883000Y-5461000I-40000J0D01*
G01*
X13883000Y-8128000D02*
G75*
G03*
X13883000Y-8128000I-40000J0D01*
G01*
X14133000Y-5461000D02*
G75*
G03*
X14133000Y-5461000I-40000J0D01*
G01*
X14133000Y-8128000D02*
G75*
G03*
X14133000Y-8128000I-40000J0D01*
G01*
X14391000Y-6096000D02*
G75*
G03*
X14391000Y-6096000I-40000J0D01*
G01*
X14391000Y-6350000D02*
G75*
G03*
X14391000Y-6350000I-40000J0D01*
G01*
X14391000Y-6604000D02*
G75*
G03*
X14391000Y-6604000I-40000J0D01*
G01*
X14391000Y-6858000D02*
G75*
G03*
X14391000Y-6858000I-40000J0D01*
G01*
X14391000Y-7112000D02*
G75*
G03*
X14391000Y-7112000I-40000J0D01*
G01*
X14391000Y-7366000D02*
G75*
G03*
X14391000Y-7366000I-40000J0D01*
G01*
X14391000Y-7620000D02*
G75*
G03*
X14391000Y-7620000I-40000J0D01*
G01*
X14391000Y-8636000D02*
G75*
G03*
X14391000Y-8636000I-40000J0D01*
G01*
X14391000Y-8890000D02*
G75*
G03*
X14391000Y-8890000I-40000J0D01*
G01*
X14391000Y-9144000D02*
G75*
G03*
X14391000Y-9144000I-40000J0D01*
G01*
X14391000Y-9398000D02*
G75*
G03*
X14391000Y-9398000I-40000J0D01*
G01*
X14391000Y-9652000D02*
G75*
G03*
X14391000Y-9652000I-40000J0D01*
G01*
X14391000Y-9906000D02*
G75*
G03*
X14391000Y-9906000I-40000J0D01*
G01*
X14391000Y-10160000D02*
G75*
G03*
X14391000Y-10160000I-40000J0D01*
G01*
X15153000Y-6096000D02*
G75*
G03*
X15153000Y-6096000I-40000J0D01*
G01*
X15153000Y-6350000D02*
G75*
G03*
X15153000Y-6350000I-40000J0D01*
G01*
X15153000Y-6604000D02*
G75*
G03*
X15153000Y-6604000I-40000J0D01*
G01*
X15153000Y-6858000D02*
G75*
G03*
X15153000Y-6858000I-40000J0D01*
G01*
X15153000Y-7112000D02*
G75*
G03*
X15153000Y-7112000I-40000J0D01*
G01*
X15153000Y-7366000D02*
G75*
G03*
X15153000Y-7366000I-40000J0D01*
G01*
X15153000Y-7620000D02*
G75*
G03*
X15153000Y-7620000I-40000J0D01*
G01*
X15153000Y-8636000D02*
G75*
G03*
X15153000Y-8636000I-40000J0D01*
G01*
X15153000Y-8890000D02*
G75*
G03*
X15153000Y-8890000I-40000J0D01*
G01*
X15153000Y-9144000D02*
G75*
G03*
X15153000Y-9144000I-40000J0D01*
G01*
X15153000Y-9398000D02*
G75*
G03*
X15153000Y-9398000I-40000J0D01*
G01*
X15153000Y-9652000D02*
G75*
G03*
X15153000Y-9652000I-40000J0D01*
G01*
X15153000Y-9906000D02*
G75*
G03*
X15153000Y-9906000I-40000J0D01*
G01*
X15153000Y-10160000D02*
G75*
G03*
X15153000Y-10160000I-40000J0D01*
G01*
X15407000Y-5461000D02*
G75*
G03*
X15407000Y-5461000I-40000J0D01*
G01*
X15407000Y-8128000D02*
G75*
G03*
X15407000Y-8128000I-40000J0D01*
G01*
X15657000Y-5461000D02*
G75*
G03*
X15657000Y-5461000I-40000J0D01*
G01*
X15657000Y-8128000D02*
G75*
G03*
X15657000Y-8128000I-40000J0D01*
G01*
X15915000Y-6096000D02*
G75*
G03*
X15915000Y-6096000I-40000J0D01*
G01*
X15915000Y-6350000D02*
G75*
G03*
X15915000Y-6350000I-40000J0D01*
G01*
X15915000Y-6604000D02*
G75*
G03*
X15915000Y-6604000I-40000J0D01*
G01*
X15915000Y-6858000D02*
G75*
G03*
X15915000Y-6858000I-40000J0D01*
G01*
X15915000Y-7112000D02*
G75*
G03*
X15915000Y-7112000I-40000J0D01*
G01*
X15915000Y-7366000D02*
G75*
G03*
X15915000Y-7366000I-40000J0D01*
G01*
X15915000Y-7620000D02*
G75*
G03*
X15915000Y-7620000I-40000J0D01*
G01*
X15915000Y-8636000D02*
G75*
G03*
X15915000Y-8636000I-40000J0D01*
G01*
X15915000Y-8890000D02*
G75*
G03*
X15915000Y-8890000I-40000J0D01*
G01*
X15915000Y-9144000D02*
G75*
G03*
X15915000Y-9144000I-40000J0D01*
G01*
X15915000Y-9398000D02*
G75*
G03*
X15915000Y-9398000I-40000J0D01*
G01*
X15915000Y-9652000D02*
G75*
G03*
X15915000Y-9652000I-40000J0D01*
G01*
X15915000Y-9906000D02*
G75*
G03*
X15915000Y-9906000I-40000J0D01*
G01*
X15915000Y-10160000D02*
G75*
G03*
X15915000Y-10160000I-40000J0D01*
G01*
X16677000Y-6096000D02*
G75*
G03*
X16677000Y-6096000I-40000J0D01*
G01*
X16677000Y-6350000D02*
G75*
G03*
X16677000Y-6350000I-40000J0D01*
G01*
X16677000Y-6604000D02*
G75*
G03*
X16677000Y-6604000I-40000J0D01*
G01*
X16677000Y-6858000D02*
G75*
G03*
X16677000Y-6858000I-40000J0D01*
G01*
X16677000Y-7112000D02*
G75*
G03*
X16677000Y-7112000I-40000J0D01*
G01*
X16677000Y-7366000D02*
G75*
G03*
X16677000Y-7366000I-40000J0D01*
G01*
X16677000Y-7620000D02*
G75*
G03*
X16677000Y-7620000I-40000J0D01*
G01*
X16677000Y-8636000D02*
G75*
G03*
X16677000Y-8636000I-40000J0D01*
G01*
X16677000Y-8890000D02*
G75*
G03*
X16677000Y-8890000I-40000J0D01*
G01*
X16677000Y-9144000D02*
G75*
G03*
X16677000Y-9144000I-40000J0D01*
G01*
X16677000Y-9398000D02*
G75*
G03*
X16677000Y-9398000I-40000J0D01*
G01*
X16677000Y-9652000D02*
G75*
G03*
X16677000Y-9652000I-40000J0D01*
G01*
X16677000Y-9906000D02*
G75*
G03*
X16677000Y-9906000I-40000J0D01*
G01*
X16677000Y-10160000D02*
G75*
G03*
X16677000Y-10160000I-40000J0D01*
G01*
X16931000Y-5461000D02*
G75*
G03*
X16931000Y-5461000I-40000J0D01*
G01*
X16931000Y-8128000D02*
G75*
G03*
X16931000Y-8128000I-40000J0D01*
G01*
X17181000Y-5461000D02*
G75*
G03*
X17181000Y-5461000I-40000J0D01*
G01*
X17181000Y-8128000D02*
G75*
G03*
X17181000Y-8128000I-40000J0D01*
G01*
X17439000Y-6096000D02*
G75*
G03*
X17439000Y-6096000I-40000J0D01*
G01*
X17439000Y-6350000D02*
G75*
G03*
X17439000Y-6350000I-40000J0D01*
G01*
X17439000Y-6604000D02*
G75*
G03*
X17439000Y-6604000I-40000J0D01*
G01*
X17439000Y-6858000D02*
G75*
G03*
X17439000Y-6858000I-40000J0D01*
G01*
X17439000Y-7112000D02*
G75*
G03*
X17439000Y-7112000I-40000J0D01*
G01*
X17439000Y-7366000D02*
G75*
G03*
X17439000Y-7366000I-40000J0D01*
G01*
X17439000Y-7620000D02*
G75*
G03*
X17439000Y-7620000I-40000J0D01*
G01*
X17439000Y-8636000D02*
G75*
G03*
X17439000Y-8636000I-40000J0D01*
G01*
X17439000Y-8890000D02*
G75*
G03*
X17439000Y-8890000I-40000J0D01*
G01*
X17439000Y-9144000D02*
G75*
G03*
X17439000Y-9144000I-40000J0D01*
G01*
X17439000Y-9398000D02*
G75*
G03*
X17439000Y-9398000I-40000J0D01*
G01*
X17439000Y-9652000D02*
G75*
G03*
X17439000Y-9652000I-40000J0D01*
G01*
X17439000Y-9906000D02*
G75*
G03*
X17439000Y-9906000I-40000J0D01*
G01*
X17439000Y-10160000D02*
G75*
G03*
X17439000Y-10160000I-40000J0D01*
G01*
X18201000Y-6096000D02*
G75*
G03*
X18201000Y-6096000I-40000J0D01*
G01*
X18201000Y-6350000D02*
G75*
G03*
X18201000Y-6350000I-40000J0D01*
G01*
X18201000Y-6604000D02*
G75*
G03*
X18201000Y-6604000I-40000J0D01*
G01*
X18201000Y-6858000D02*
G75*
G03*
X18201000Y-6858000I-40000J0D01*
G01*
X18201000Y-7112000D02*
G75*
G03*
X18201000Y-7112000I-40000J0D01*
G01*
X18201000Y-7366000D02*
G75*
G03*
X18201000Y-7366000I-40000J0D01*
G01*
X18201000Y-7620000D02*
G75*
G03*
X18201000Y-7620000I-40000J0D01*
G01*
X18201000Y-8636000D02*
G75*
G03*
X18201000Y-8636000I-40000J0D01*
G01*
X18201000Y-8890000D02*
G75*
G03*
X18201000Y-8890000I-40000J0D01*
G01*
X18201000Y-9144000D02*
G75*
G03*
X18201000Y-9144000I-40000J0D01*
G01*
X18201000Y-9398000D02*
G75*
G03*
X18201000Y-9398000I-40000J0D01*
G01*
X18201000Y-9652000D02*
G75*
G03*
X18201000Y-9652000I-40000J0D01*
G01*
X18201000Y-9906000D02*
G75*
G03*
X18201000Y-9906000I-40000J0D01*
G01*
X18201000Y-10160000D02*
G75*
G03*
X18201000Y-10160000I-40000J0D01*
G01*
X18455000Y-5461000D02*
G75*
G03*
X18455000Y-5461000I-40000J0D01*
G01*
X18455000Y-8128000D02*
G75*
G03*
X18455000Y-8128000I-40000J0D01*
G01*
X18705000Y-5461000D02*
G75*
G03*
X18705000Y-5461000I-40000J0D01*
G01*
X18705000Y-8128000D02*
G75*
G03*
X18705000Y-8128000I-40000J0D01*
G01*
X18963000Y-6096000D02*
G75*
G03*
X18963000Y-6096000I-40000J0D01*
G01*
X18963000Y-6350000D02*
G75*
G03*
X18963000Y-6350000I-40000J0D01*
G01*
X18963000Y-6604000D02*
G75*
G03*
X18963000Y-6604000I-40000J0D01*
G01*
X18963000Y-6858000D02*
G75*
G03*
X18963000Y-6858000I-40000J0D01*
G01*
X18963000Y-7112000D02*
G75*
G03*
X18963000Y-7112000I-40000J0D01*
G01*
X18963000Y-7366000D02*
G75*
G03*
X18963000Y-7366000I-40000J0D01*
G01*
X18963000Y-7620000D02*
G75*
G03*
X18963000Y-7620000I-40000J0D01*
G01*
X18963000Y-8636000D02*
G75*
G03*
X18963000Y-8636000I-40000J0D01*
G01*
X18963000Y-8890000D02*
G75*
G03*
X18963000Y-8890000I-40000J0D01*
G01*
X18963000Y-9144000D02*
G75*
G03*
X18963000Y-9144000I-40000J0D01*
G01*
X18963000Y-9398000D02*
G75*
G03*
X18963000Y-9398000I-40000J0D01*
G01*
X18963000Y-9652000D02*
G75*
G03*
X18963000Y-9652000I-40000J0D01*
G01*
X18963000Y-9906000D02*
G75*
G03*
X18963000Y-9906000I-40000J0D01*
G01*
X18963000Y-10160000D02*
G75*
G03*
X18963000Y-10160000I-40000J0D01*
G01*
X20447000Y-5284000D02*
X20447000Y-5384000D01*
X20397000Y-5334000D02*
X20497000Y-5334000D01*
X20447000Y-5538000D02*
X20447000Y-5638000D01*
X20397000Y-5588000D02*
X20497000Y-5588000D01*
X20447000Y-5792000D02*
X20447000Y-5892000D01*
X20397000Y-5842000D02*
X20497000Y-5842000D01*
X20447000Y-6046000D02*
X20447000Y-6146000D01*
X20397000Y-6096000D02*
X20497000Y-6096000D01*
X20447000Y-6300000D02*
X20447000Y-6400000D01*
X20397000Y-6350000D02*
X20497000Y-6350000D01*
X20447000Y-6554000D02*
X20447000Y-6654000D01*
X20397000Y-6604000D02*
X20497000Y-6604000D01*
X20447000Y-6808000D02*
X20447000Y-6908000D01*
X20397000Y-6858000D02*
X20497000Y-6858000D01*
X20447000Y-7062000D02*
X20447000Y-7162000D01*
X20397000Y-7112000D02*
X20497000Y-7112000D01*
X20447000Y-7316000D02*
X20447000Y-7416000D01*
X20397000Y-7366000D02*
X20497000Y-7366000D01*
X20447000Y-7570000D02*
X20447000Y-7670000D01*
X20397000Y-7620000D02*
X20497000Y-7620000D01*
X20447000Y-7824000D02*
X20447000Y-7924000D01*
X20397000Y-7874000D02*
X20497000Y-7874000D01*
X20447000Y-8078000D02*
X20447000Y-8178000D01*
X20397000Y-8128000D02*
X20497000Y-8128000D01*
X20447000Y-8332000D02*
X20447000Y-8432000D01*
X20397000Y-8382000D02*
X20497000Y-8382000D01*
X20447000Y-8586000D02*
X20447000Y-8686000D01*
X20397000Y-8636000D02*
X20497000Y-8636000D01*
X20447000Y-8840000D02*
X20447000Y-8940000D01*
X20397000Y-8890000D02*
X20497000Y-8890000D01*
X20447000Y-9094000D02*
X20447000Y-9194000D01*
X20397000Y-9144000D02*
X20497000Y-9144000D01*
X20447000Y-9348000D02*
X20447000Y-9448000D01*
X20397000Y-9398000D02*
X20497000Y-9398000D01*
X20447000Y-9602000D02*
X20447000Y-9702000D01*
X20397000Y-9652000D02*
X20497000Y-9652000D01*
X20447000Y-9856000D02*
X20447000Y-9956000D01*
X20397000Y-9906000D02*
X20497000Y-9906000D01*
X20447000Y-10110000D02*
X20447000Y-10210000D01*
X20397000Y-10160000D02*
X20497000Y-10160000D01*
X20701000Y-5284000D02*
X20701000Y-5384000D01*
X20651000Y-5334000D02*
X20751000Y-5334000D01*
X20701000Y-5538000D02*
X20701000Y-5638000D01*
X20651000Y-5588000D02*
X20751000Y-5588000D01*
X20701000Y-5792000D02*
X20701000Y-5892000D01*
X20651000Y-5842000D02*
X20751000Y-5842000D01*
X20701000Y-6046000D02*
X20701000Y-6146000D01*
X20651000Y-6096000D02*
X20751000Y-6096000D01*
X20701000Y-6300000D02*
X20701000Y-6400000D01*
X20651000Y-6350000D02*
X20751000Y-6350000D01*
X20701000Y-6554000D02*
X20701000Y-6654000D01*
X20651000Y-6604000D02*
X20751000Y-6604000D01*
X20701000Y-6808000D02*
X20701000Y-6908000D01*
X20651000Y-6858000D02*
X20751000Y-6858000D01*
X20701000Y-7062000D02*
X20701000Y-7162000D01*
X20651000Y-7112000D02*
X20751000Y-7112000D01*
X20701000Y-7316000D02*
X20701000Y-7416000D01*
X20651000Y-7366000D02*
X20751000Y-7366000D01*
X20701000Y-7570000D02*
X20701000Y-7670000D01*
X20651000Y-7620000D02*
X20751000Y-7620000D01*
X20701000Y-7824000D02*
X20701000Y-7924000D01*
X20651000Y-7874000D02*
X20751000Y-7874000D01*
X20701000Y-8078000D02*
X20701000Y-8178000D01*
X20651000Y-8128000D02*
X20751000Y-8128000D01*
X20701000Y-8332000D02*
X20701000Y-8432000D01*
X20651000Y-8382000D02*
X20751000Y-8382000D01*
X20701000Y-8586000D02*
X20701000Y-8686000D01*
X20651000Y-8636000D02*
X20751000Y-8636000D01*
X20701000Y-8840000D02*
X20701000Y-8940000D01*
X20651000Y-8890000D02*
X20751000Y-8890000D01*
X20701000Y-9094000D02*
X20701000Y-9194000D01*
X20651000Y-9144000D02*
X20751000Y-9144000D01*
X20701000Y-9348000D02*
X20701000Y-9448000D01*
X20651000Y-9398000D02*
X20751000Y-9398000D01*
X20701000Y-9602000D02*
X20701000Y-9702000D01*
X20651000Y-9652000D02*
X20751000Y-9652000D01*
X20701000Y-9856000D02*
X20701000Y-9956000D01*
X20651000Y-9906000D02*
X20751000Y-9906000D01*
X20701000Y-10110000D02*
X20701000Y-10210000D01*
X20651000Y-10160000D02*
X20751000Y-10160000D01*
D12*
X12983928Y-11009214D02*
X12983928Y-10709214D01*
X13055357Y-10709214D01*
X13098214Y-10723500D01*
X13126786Y-10752072D01*
X13141071Y-10780643D01*
X13155357Y-10837786D01*
X13155357Y-10880643D01*
X13141071Y-10937786D01*
X13126786Y-10966357D01*
X13098214Y-10994929D01*
X13055357Y-11009214D01*
X12983928Y-11009214D01*
X13283928Y-11009214D02*
X13283928Y-10809214D01*
X13283928Y-10866357D02*
X13298214Y-10837786D01*
X13312500Y-10823500D01*
X13341071Y-10809214D01*
X13369643Y-10809214D01*
X13469643Y-11009214D02*
X13469643Y-10809214D01*
X13469643Y-10709214D02*
X13455357Y-10723500D01*
X13469643Y-10737786D01*
X13483928Y-10723500D01*
X13469643Y-10709214D01*
X13469643Y-10737786D01*
X13655357Y-11009214D02*
X13626786Y-10994929D01*
X13612500Y-10966357D01*
X13612500Y-10709214D01*
X13812500Y-11009214D02*
X13783928Y-10994929D01*
X13769643Y-10966357D01*
X13769643Y-10709214D01*
X14155357Y-11009214D02*
X14155357Y-10709214D01*
X14255357Y-10923500D01*
X14355357Y-10709214D01*
X14355357Y-11009214D01*
X14626786Y-11009214D02*
X14626786Y-10852072D01*
X14612500Y-10823500D01*
X14583928Y-10809214D01*
X14526786Y-10809214D01*
X14498214Y-10823500D01*
X14626786Y-10994929D02*
X14598214Y-11009214D01*
X14526786Y-11009214D01*
X14498214Y-10994929D01*
X14483928Y-10966357D01*
X14483928Y-10937786D01*
X14498214Y-10909214D01*
X14526786Y-10894929D01*
X14598214Y-10894929D01*
X14626786Y-10880643D01*
X14769643Y-10809214D02*
X14769643Y-11109214D01*
X14769643Y-10823500D02*
X14798214Y-10809214D01*
X14855357Y-10809214D01*
X14883928Y-10823500D01*
X14898214Y-10837786D01*
X14912500Y-10866357D01*
X14912500Y-10952072D01*
X14898214Y-10980643D01*
X14883928Y-10994929D01*
X14855357Y-11009214D01*
X14798214Y-11009214D01*
X14769643Y-10994929D01*
X15041071Y-10980643D02*
X15055357Y-10994929D01*
X15041071Y-11009214D01*
X15026786Y-10994929D01*
X15041071Y-10980643D01*
X15041071Y-11009214D01*
X15041071Y-10823500D02*
X15055357Y-10837786D01*
X15041071Y-10852072D01*
X15026786Y-10837786D01*
X15041071Y-10823500D01*
X15041071Y-10852072D01*
X12657500Y-11483500D02*
X12697500Y-11523500D01*
X12697500Y-11483500D02*
X12657500Y-11523500D01*
X13041071Y-11339214D02*
X13069643Y-11339214D01*
X13098214Y-11353500D01*
X13112500Y-11367786D01*
X13126786Y-11396357D01*
X13141071Y-11453500D01*
X13141071Y-11524929D01*
X13126786Y-11582071D01*
X13112500Y-11610643D01*
X13098214Y-11624929D01*
X13069643Y-11639214D01*
X13041071Y-11639214D01*
X13012500Y-11624929D01*
X12998214Y-11610643D01*
X12983928Y-11582071D01*
X12969643Y-11524929D01*
X12969643Y-11453500D01*
X12983928Y-11396357D01*
X12998214Y-11367786D01*
X13012500Y-11353500D01*
X13041071Y-11339214D01*
X13269643Y-11610643D02*
X13283928Y-11624929D01*
X13269643Y-11639214D01*
X13255357Y-11624929D01*
X13269643Y-11610643D01*
X13269643Y-11639214D01*
X13541071Y-11439214D02*
X13541071Y-11639214D01*
X13469643Y-11324929D02*
X13398214Y-11539214D01*
X13583928Y-11539214D01*
X13755357Y-11339214D02*
X13783928Y-11339214D01*
X13812500Y-11353500D01*
X13826786Y-11367786D01*
X13841071Y-11396357D01*
X13855357Y-11453500D01*
X13855357Y-11524929D01*
X13841071Y-11582071D01*
X13826786Y-11610643D01*
X13812500Y-11624929D01*
X13783928Y-11639214D01*
X13755357Y-11639214D01*
X13726786Y-11624929D01*
X13712500Y-11610643D01*
X13698214Y-11582071D01*
X13683928Y-11524929D01*
X13683928Y-11453500D01*
X13698214Y-11396357D01*
X13712500Y-11367786D01*
X13726786Y-11353500D01*
X13755357Y-11339214D01*
X14041071Y-11339214D02*
X14069643Y-11339214D01*
X14098214Y-11353500D01*
X14112500Y-11367786D01*
X14126786Y-11396357D01*
X14141071Y-11453500D01*
X14141071Y-11524929D01*
X14126786Y-11582071D01*
X14112500Y-11610643D01*
X14098214Y-11624929D01*
X14069643Y-11639214D01*
X14041071Y-11639214D01*
X14012500Y-11624929D01*
X13998214Y-11610643D01*
X13983928Y-11582071D01*
X13969643Y-11524929D01*
X13969643Y-11453500D01*
X13983928Y-11396357D01*
X13998214Y-11367786D01*
X14012500Y-11353500D01*
X14041071Y-11339214D01*
X14269643Y-11639214D02*
X14269643Y-11439214D01*
X14269643Y-11467786D02*
X14283928Y-11453500D01*
X14312500Y-11439214D01*
X14355357Y-11439214D01*
X14383928Y-11453500D01*
X14398214Y-11482071D01*
X14398214Y-11639214D01*
X14398214Y-11482071D02*
X14412500Y-11453500D01*
X14441071Y-11439214D01*
X14483928Y-11439214D01*
X14512500Y-11453500D01*
X14526786Y-11482071D01*
X14526786Y-11639214D01*
X14669643Y-11639214D02*
X14669643Y-11439214D01*
X14669643Y-11467786D02*
X14683928Y-11453500D01*
X14712500Y-11439214D01*
X14755357Y-11439214D01*
X14783928Y-11453500D01*
X14798214Y-11482071D01*
X14798214Y-11639214D01*
X14798214Y-11482071D02*
X14812500Y-11453500D01*
X14841071Y-11439214D01*
X14883928Y-11439214D01*
X14912500Y-11453500D01*
X14926786Y-11482071D01*
X14926786Y-11639214D01*
X15512500Y-11324929D02*
X15255357Y-11710643D01*
X15898214Y-11339214D02*
X15926786Y-11339214D01*
X15955357Y-11353500D01*
X15969643Y-11367786D01*
X15983928Y-11396357D01*
X15998214Y-11453500D01*
X15998214Y-11524929D01*
X15983928Y-11582071D01*
X15969643Y-11610643D01*
X15955357Y-11624929D01*
X15926786Y-11639214D01*
X15898214Y-11639214D01*
X15869643Y-11624929D01*
X15855357Y-11610643D01*
X15841071Y-11582071D01*
X15826786Y-11524929D01*
X15826786Y-11453500D01*
X15841071Y-11396357D01*
X15855357Y-11367786D01*
X15869643Y-11353500D01*
X15898214Y-11339214D01*
X16126786Y-11610643D02*
X16141071Y-11624929D01*
X16126786Y-11639214D01*
X16112500Y-11624929D01*
X16126786Y-11610643D01*
X16126786Y-11639214D01*
X16326786Y-11339214D02*
X16355357Y-11339214D01*
X16383928Y-11353500D01*
X16398214Y-11367786D01*
X16412500Y-11396357D01*
X16426786Y-11453500D01*
X16426786Y-11524929D01*
X16412500Y-11582071D01*
X16398214Y-11610643D01*
X16383928Y-11624929D01*
X16355357Y-11639214D01*
X16326786Y-11639214D01*
X16298214Y-11624929D01*
X16283928Y-11610643D01*
X16269643Y-11582071D01*
X16255357Y-11524929D01*
X16255357Y-11453500D01*
X16269643Y-11396357D01*
X16283928Y-11367786D01*
X16298214Y-11353500D01*
X16326786Y-11339214D01*
X16712500Y-11639214D02*
X16541071Y-11639214D01*
X16626786Y-11639214D02*
X16626786Y-11339214D01*
X16598214Y-11382071D01*
X16569643Y-11410643D01*
X16541071Y-11424929D01*
X16983928Y-11339214D02*
X16841071Y-11339214D01*
X16826786Y-11482071D01*
X16841071Y-11467786D01*
X16869643Y-11453500D01*
X16941071Y-11453500D01*
X16969643Y-11467786D01*
X16983928Y-11482071D01*
X16998214Y-11510643D01*
X16998214Y-11582071D01*
X16983928Y-11610643D01*
X16969643Y-11624929D01*
X16941071Y-11639214D01*
X16869643Y-11639214D01*
X16841071Y-11624929D01*
X16826786Y-11610643D01*
X17098214Y-11339214D02*
X17298214Y-11339214D01*
X17169643Y-11639214D01*
X17398214Y-11339214D02*
X17398214Y-11396357D01*
X17512500Y-11339214D02*
X17512500Y-11396357D01*
X17955357Y-11753500D02*
X17941071Y-11739214D01*
X17912500Y-11696357D01*
X17898214Y-11667786D01*
X17883928Y-11624929D01*
X17869643Y-11553500D01*
X17869643Y-11496357D01*
X17883928Y-11424929D01*
X17898214Y-11382071D01*
X17912500Y-11353500D01*
X17941071Y-11310643D01*
X17955357Y-11296357D01*
X18041071Y-11339214D02*
X18226786Y-11339214D01*
X18126786Y-11453500D01*
X18169643Y-11453500D01*
X18198214Y-11467786D01*
X18212500Y-11482071D01*
X18226786Y-11510643D01*
X18226786Y-11582071D01*
X18212500Y-11610643D01*
X18198214Y-11624929D01*
X18169643Y-11639214D01*
X18083928Y-11639214D01*
X18055357Y-11624929D01*
X18041071Y-11610643D01*
X18583928Y-11639214D02*
X18583928Y-11339214D01*
X18712500Y-11639214D02*
X18712500Y-11482071D01*
X18698214Y-11453500D01*
X18669643Y-11439214D01*
X18626786Y-11439214D01*
X18598214Y-11453500D01*
X18583928Y-11467786D01*
X18898214Y-11639214D02*
X18869643Y-11624929D01*
X18855357Y-11610643D01*
X18841071Y-11582071D01*
X18841071Y-11496357D01*
X18855357Y-11467786D01*
X18869643Y-11453500D01*
X18898214Y-11439214D01*
X18941071Y-11439214D01*
X18969643Y-11453500D01*
X18983928Y-11467786D01*
X18998214Y-11496357D01*
X18998214Y-11582071D01*
X18983928Y-11610643D01*
X18969643Y-11624929D01*
X18941071Y-11639214D01*
X18898214Y-11639214D01*
X19169643Y-11639214D02*
X19141071Y-11624929D01*
X19126786Y-11596357D01*
X19126786Y-11339214D01*
X19398214Y-11624929D02*
X19369643Y-11639214D01*
X19312500Y-11639214D01*
X19283928Y-11624929D01*
X19269643Y-11596357D01*
X19269643Y-11482071D01*
X19283928Y-11453500D01*
X19312500Y-11439214D01*
X19369643Y-11439214D01*
X19398214Y-11453500D01*
X19412500Y-11482071D01*
X19412500Y-11510643D01*
X19269643Y-11539214D01*
X19526786Y-11624929D02*
X19555357Y-11639214D01*
X19612500Y-11639214D01*
X19641071Y-11624929D01*
X19655357Y-11596357D01*
X19655357Y-11582071D01*
X19641071Y-11553500D01*
X19612500Y-11539214D01*
X19569643Y-11539214D01*
X19541071Y-11524929D01*
X19526786Y-11496357D01*
X19526786Y-11482071D01*
X19541071Y-11453500D01*
X19569643Y-11439214D01*
X19612500Y-11439214D01*
X19641071Y-11453500D01*
X19755357Y-11753500D02*
X19769643Y-11739214D01*
X19798214Y-11696357D01*
X19812500Y-11667786D01*
X19826786Y-11624929D01*
X19841071Y-11553500D01*
X19841071Y-11496357D01*
X19826786Y-11424929D01*
X19812500Y-11382071D01*
X19798214Y-11353500D01*
X19769643Y-11310643D01*
X19755357Y-11296357D01*
X12697500Y-11899500D02*
G75*
G03*
X12697500Y-11899500I-40000J0D01*
G01*
X13041071Y-11735214D02*
X13069643Y-11735214D01*
X13098214Y-11749500D01*
X13112500Y-11763786D01*
X13126786Y-11792357D01*
X13141071Y-11849500D01*
X13141071Y-11920929D01*
X13126786Y-11978071D01*
X13112500Y-12006643D01*
X13098214Y-12020929D01*
X13069643Y-12035214D01*
X13041071Y-12035214D01*
X13012500Y-12020929D01*
X12998214Y-12006643D01*
X12983928Y-11978071D01*
X12969643Y-11920929D01*
X12969643Y-11849500D01*
X12983928Y-11792357D01*
X12998214Y-11763786D01*
X13012500Y-11749500D01*
X13041071Y-11735214D01*
X13269643Y-12006643D02*
X13283928Y-12020929D01*
X13269643Y-12035214D01*
X13255357Y-12020929D01*
X13269643Y-12006643D01*
X13269643Y-12035214D01*
X13455357Y-11863786D02*
X13426786Y-11849500D01*
X13412500Y-11835214D01*
X13398214Y-11806643D01*
X13398214Y-11792357D01*
X13412500Y-11763786D01*
X13426786Y-11749500D01*
X13455357Y-11735214D01*
X13512500Y-11735214D01*
X13541071Y-11749500D01*
X13555357Y-11763786D01*
X13569643Y-11792357D01*
X13569643Y-11806643D01*
X13555357Y-11835214D01*
X13541071Y-11849500D01*
X13512500Y-11863786D01*
X13455357Y-11863786D01*
X13426786Y-11878071D01*
X13412500Y-11892357D01*
X13398214Y-11920929D01*
X13398214Y-11978071D01*
X13412500Y-12006643D01*
X13426786Y-12020929D01*
X13455357Y-12035214D01*
X13512500Y-12035214D01*
X13541071Y-12020929D01*
X13555357Y-12006643D01*
X13569643Y-11978071D01*
X13569643Y-11920929D01*
X13555357Y-11892357D01*
X13541071Y-11878071D01*
X13512500Y-11863786D01*
X13755357Y-11735214D02*
X13783928Y-11735214D01*
X13812500Y-11749500D01*
X13826786Y-11763786D01*
X13841071Y-11792357D01*
X13855357Y-11849500D01*
X13855357Y-11920929D01*
X13841071Y-11978071D01*
X13826786Y-12006643D01*
X13812500Y-12020929D01*
X13783928Y-12035214D01*
X13755357Y-12035214D01*
X13726786Y-12020929D01*
X13712500Y-12006643D01*
X13698214Y-11978071D01*
X13683928Y-11920929D01*
X13683928Y-11849500D01*
X13698214Y-11792357D01*
X13712500Y-11763786D01*
X13726786Y-11749500D01*
X13755357Y-11735214D01*
X14041071Y-11735214D02*
X14069643Y-11735214D01*
X14098214Y-11749500D01*
X14112500Y-11763786D01*
X14126786Y-11792357D01*
X14141071Y-11849500D01*
X14141071Y-11920929D01*
X14126786Y-11978071D01*
X14112500Y-12006643D01*
X14098214Y-12020929D01*
X14069643Y-12035214D01*
X14041071Y-12035214D01*
X14012500Y-12020929D01*
X13998214Y-12006643D01*
X13983928Y-11978071D01*
X13969643Y-11920929D01*
X13969643Y-11849500D01*
X13983928Y-11792357D01*
X13998214Y-11763786D01*
X14012500Y-11749500D01*
X14041071Y-11735214D01*
X14269643Y-12035214D02*
X14269643Y-11835214D01*
X14269643Y-11863786D02*
X14283928Y-11849500D01*
X14312500Y-11835214D01*
X14355357Y-11835214D01*
X14383928Y-11849500D01*
X14398214Y-11878071D01*
X14398214Y-12035214D01*
X14398214Y-11878071D02*
X14412500Y-11849500D01*
X14441071Y-11835214D01*
X14483928Y-11835214D01*
X14512500Y-11849500D01*
X14526786Y-11878071D01*
X14526786Y-12035214D01*
X14669643Y-12035214D02*
X14669643Y-11835214D01*
X14669643Y-11863786D02*
X14683928Y-11849500D01*
X14712500Y-11835214D01*
X14755357Y-11835214D01*
X14783928Y-11849500D01*
X14798214Y-11878071D01*
X14798214Y-12035214D01*
X14798214Y-11878071D02*
X14812500Y-11849500D01*
X14841071Y-11835214D01*
X14883928Y-11835214D01*
X14912500Y-11849500D01*
X14926786Y-11878071D01*
X14926786Y-12035214D01*
X15512500Y-11720929D02*
X15255357Y-12106643D01*
X15898214Y-11735214D02*
X15926786Y-11735214D01*
X15955357Y-11749500D01*
X15969643Y-11763786D01*
X15983928Y-11792357D01*
X15998214Y-11849500D01*
X15998214Y-11920929D01*
X15983928Y-11978071D01*
X15969643Y-12006643D01*
X15955357Y-12020929D01*
X15926786Y-12035214D01*
X15898214Y-12035214D01*
X15869643Y-12020929D01*
X15855357Y-12006643D01*
X15841071Y-11978071D01*
X15826786Y-11920929D01*
X15826786Y-11849500D01*
X15841071Y-11792357D01*
X15855357Y-11763786D01*
X15869643Y-11749500D01*
X15898214Y-11735214D01*
X16126786Y-12006643D02*
X16141071Y-12020929D01*
X16126786Y-12035214D01*
X16112500Y-12020929D01*
X16126786Y-12006643D01*
X16126786Y-12035214D01*
X16326786Y-11735214D02*
X16355357Y-11735214D01*
X16383928Y-11749500D01*
X16398214Y-11763786D01*
X16412500Y-11792357D01*
X16426786Y-11849500D01*
X16426786Y-11920929D01*
X16412500Y-11978071D01*
X16398214Y-12006643D01*
X16383928Y-12020929D01*
X16355357Y-12035214D01*
X16326786Y-12035214D01*
X16298214Y-12020929D01*
X16283928Y-12006643D01*
X16269643Y-11978071D01*
X16255357Y-11920929D01*
X16255357Y-11849500D01*
X16269643Y-11792357D01*
X16283928Y-11763786D01*
X16298214Y-11749500D01*
X16326786Y-11735214D01*
X16526786Y-11735214D02*
X16712500Y-11735214D01*
X16612500Y-11849500D01*
X16655357Y-11849500D01*
X16683928Y-11863786D01*
X16698214Y-11878071D01*
X16712500Y-11906643D01*
X16712500Y-11978071D01*
X16698214Y-12006643D01*
X16683928Y-12020929D01*
X16655357Y-12035214D01*
X16569643Y-12035214D01*
X16541071Y-12020929D01*
X16526786Y-12006643D01*
X16998214Y-12035214D02*
X16826786Y-12035214D01*
X16912500Y-12035214D02*
X16912500Y-11735214D01*
X16883928Y-11778071D01*
X16855357Y-11806643D01*
X16826786Y-11820929D01*
X17269643Y-11735214D02*
X17126786Y-11735214D01*
X17112500Y-11878071D01*
X17126786Y-11863786D01*
X17155357Y-11849500D01*
X17226786Y-11849500D01*
X17255357Y-11863786D01*
X17269643Y-11878071D01*
X17283928Y-11906643D01*
X17283928Y-11978071D01*
X17269643Y-12006643D01*
X17255357Y-12020929D01*
X17226786Y-12035214D01*
X17155357Y-12035214D01*
X17126786Y-12020929D01*
X17112500Y-12006643D01*
X17398214Y-11735214D02*
X17398214Y-11792357D01*
X17512500Y-11735214D02*
X17512500Y-11792357D01*
X17955357Y-12149500D02*
X17941071Y-12135214D01*
X17912500Y-12092357D01*
X17898214Y-12063786D01*
X17883928Y-12020929D01*
X17869643Y-11949500D01*
X17869643Y-11892357D01*
X17883928Y-11820929D01*
X17898214Y-11778071D01*
X17912500Y-11749500D01*
X17941071Y-11706643D01*
X17955357Y-11692357D01*
X18226786Y-12035214D02*
X18055357Y-12035214D01*
X18141071Y-12035214D02*
X18141071Y-11735214D01*
X18112500Y-11778071D01*
X18083928Y-11806643D01*
X18055357Y-11820929D01*
X18341071Y-11763786D02*
X18355357Y-11749500D01*
X18383928Y-11735214D01*
X18455357Y-11735214D01*
X18483928Y-11749500D01*
X18498214Y-11763786D01*
X18512500Y-11792357D01*
X18512500Y-11820929D01*
X18498214Y-11863786D01*
X18326786Y-12035214D01*
X18512500Y-12035214D01*
X18683928Y-11863786D02*
X18655357Y-11849500D01*
X18641071Y-11835214D01*
X18626786Y-11806643D01*
X18626786Y-11792357D01*
X18641071Y-11763786D01*
X18655357Y-11749500D01*
X18683928Y-11735214D01*
X18741071Y-11735214D01*
X18769643Y-11749500D01*
X18783928Y-11763786D01*
X18798214Y-11792357D01*
X18798214Y-11806643D01*
X18783928Y-11835214D01*
X18769643Y-11849500D01*
X18741071Y-11863786D01*
X18683928Y-11863786D01*
X18655357Y-11878071D01*
X18641071Y-11892357D01*
X18626786Y-11920929D01*
X18626786Y-11978071D01*
X18641071Y-12006643D01*
X18655357Y-12020929D01*
X18683928Y-12035214D01*
X18741071Y-12035214D01*
X18769643Y-12020929D01*
X18783928Y-12006643D01*
X18798214Y-11978071D01*
X18798214Y-11920929D01*
X18783928Y-11892357D01*
X18769643Y-11878071D01*
X18741071Y-11863786D01*
X19155357Y-12035214D02*
X19155357Y-11735214D01*
X19283928Y-12035214D02*
X19283928Y-11878071D01*
X19269643Y-11849500D01*
X19241071Y-11835214D01*
X19198214Y-11835214D01*
X19169643Y-11849500D01*
X19155357Y-11863786D01*
X19469643Y-12035214D02*
X19441071Y-12020929D01*
X19426786Y-12006643D01*
X19412500Y-11978071D01*
X19412500Y-11892357D01*
X19426786Y-11863786D01*
X19441071Y-11849500D01*
X19469643Y-11835214D01*
X19512500Y-11835214D01*
X19541071Y-11849500D01*
X19555357Y-11863786D01*
X19569643Y-11892357D01*
X19569643Y-11978071D01*
X19555357Y-12006643D01*
X19541071Y-12020929D01*
X19512500Y-12035214D01*
X19469643Y-12035214D01*
X19741071Y-12035214D02*
X19712500Y-12020929D01*
X19698214Y-11992357D01*
X19698214Y-11735214D01*
X19969643Y-12020929D02*
X19941071Y-12035214D01*
X19883928Y-12035214D01*
X19855357Y-12020929D01*
X19841071Y-11992357D01*
X19841071Y-11878071D01*
X19855357Y-11849500D01*
X19883928Y-11835214D01*
X19941071Y-11835214D01*
X19969643Y-11849500D01*
X19983928Y-11878071D01*
X19983928Y-11906643D01*
X19841071Y-11935214D01*
X20098214Y-12020929D02*
X20126786Y-12035214D01*
X20183928Y-12035214D01*
X20212500Y-12020929D01*
X20226786Y-11992357D01*
X20226786Y-11978071D01*
X20212500Y-11949500D01*
X20183928Y-11935214D01*
X20141071Y-11935214D01*
X20112500Y-11920929D01*
X20098214Y-11892357D01*
X20098214Y-11878071D01*
X20112500Y-11849500D01*
X20141071Y-11835214D01*
X20183928Y-11835214D01*
X20212500Y-11849500D01*
X20326786Y-12149500D02*
X20341071Y-12135214D01*
X20369643Y-12092357D01*
X20383928Y-12063786D01*
X20398214Y-12020929D01*
X20412500Y-11949500D01*
X20412500Y-11892357D01*
X20398214Y-11820929D01*
X20383928Y-11778071D01*
X20369643Y-11749500D01*
X20341071Y-11706643D01*
X20326786Y-11692357D01*
X12647500Y-12245500D02*
X12647500Y-12345500D01*
X12597500Y-12295500D02*
X12697500Y-12295500D01*
X13141071Y-12431214D02*
X12969643Y-12431214D01*
X13055357Y-12431214D02*
X13055357Y-12131214D01*
X13026786Y-12174071D01*
X12998214Y-12202643D01*
X12969643Y-12216929D01*
X13269643Y-12402643D02*
X13283928Y-12416929D01*
X13269643Y-12431214D01*
X13255357Y-12416929D01*
X13269643Y-12402643D01*
X13269643Y-12431214D01*
X13469643Y-12131214D02*
X13498214Y-12131214D01*
X13526786Y-12145500D01*
X13541071Y-12159786D01*
X13555357Y-12188357D01*
X13569643Y-12245500D01*
X13569643Y-12316929D01*
X13555357Y-12374071D01*
X13541071Y-12402643D01*
X13526786Y-12416929D01*
X13498214Y-12431214D01*
X13469643Y-12431214D01*
X13441071Y-12416929D01*
X13426786Y-12402643D01*
X13412500Y-12374071D01*
X13398214Y-12316929D01*
X13398214Y-12245500D01*
X13412500Y-12188357D01*
X13426786Y-12159786D01*
X13441071Y-12145500D01*
X13469643Y-12131214D01*
X13755357Y-12131214D02*
X13783928Y-12131214D01*
X13812500Y-12145500D01*
X13826786Y-12159786D01*
X13841071Y-12188357D01*
X13855357Y-12245500D01*
X13855357Y-12316929D01*
X13841071Y-12374071D01*
X13826786Y-12402643D01*
X13812500Y-12416929D01*
X13783928Y-12431214D01*
X13755357Y-12431214D01*
X13726786Y-12416929D01*
X13712500Y-12402643D01*
X13698214Y-12374071D01*
X13683928Y-12316929D01*
X13683928Y-12245500D01*
X13698214Y-12188357D01*
X13712500Y-12159786D01*
X13726786Y-12145500D01*
X13755357Y-12131214D01*
X14041071Y-12131214D02*
X14069643Y-12131214D01*
X14098214Y-12145500D01*
X14112500Y-12159786D01*
X14126786Y-12188357D01*
X14141071Y-12245500D01*
X14141071Y-12316929D01*
X14126786Y-12374071D01*
X14112500Y-12402643D01*
X14098214Y-12416929D01*
X14069643Y-12431214D01*
X14041071Y-12431214D01*
X14012500Y-12416929D01*
X13998214Y-12402643D01*
X13983928Y-12374071D01*
X13969643Y-12316929D01*
X13969643Y-12245500D01*
X13983928Y-12188357D01*
X13998214Y-12159786D01*
X14012500Y-12145500D01*
X14041071Y-12131214D01*
X14269643Y-12431214D02*
X14269643Y-12231214D01*
X14269643Y-12259786D02*
X14283928Y-12245500D01*
X14312500Y-12231214D01*
X14355357Y-12231214D01*
X14383928Y-12245500D01*
X14398214Y-12274071D01*
X14398214Y-12431214D01*
X14398214Y-12274071D02*
X14412500Y-12245500D01*
X14441071Y-12231214D01*
X14483928Y-12231214D01*
X14512500Y-12245500D01*
X14526786Y-12274071D01*
X14526786Y-12431214D01*
X14669643Y-12431214D02*
X14669643Y-12231214D01*
X14669643Y-12259786D02*
X14683928Y-12245500D01*
X14712500Y-12231214D01*
X14755357Y-12231214D01*
X14783928Y-12245500D01*
X14798214Y-12274071D01*
X14798214Y-12431214D01*
X14798214Y-12274071D02*
X14812500Y-12245500D01*
X14841071Y-12231214D01*
X14883928Y-12231214D01*
X14912500Y-12245500D01*
X14926786Y-12274071D01*
X14926786Y-12431214D01*
X15512500Y-12116929D02*
X15255357Y-12502643D01*
X15898214Y-12131214D02*
X15926786Y-12131214D01*
X15955357Y-12145500D01*
X15969643Y-12159786D01*
X15983928Y-12188357D01*
X15998214Y-12245500D01*
X15998214Y-12316929D01*
X15983928Y-12374071D01*
X15969643Y-12402643D01*
X15955357Y-12416929D01*
X15926786Y-12431214D01*
X15898214Y-12431214D01*
X15869643Y-12416929D01*
X15855357Y-12402643D01*
X15841071Y-12374071D01*
X15826786Y-12316929D01*
X15826786Y-12245500D01*
X15841071Y-12188357D01*
X15855357Y-12159786D01*
X15869643Y-12145500D01*
X15898214Y-12131214D01*
X16126786Y-12402643D02*
X16141071Y-12416929D01*
X16126786Y-12431214D01*
X16112500Y-12416929D01*
X16126786Y-12402643D01*
X16126786Y-12431214D01*
X16326786Y-12131214D02*
X16355357Y-12131214D01*
X16383928Y-12145500D01*
X16398214Y-12159786D01*
X16412500Y-12188357D01*
X16426786Y-12245500D01*
X16426786Y-12316929D01*
X16412500Y-12374071D01*
X16398214Y-12402643D01*
X16383928Y-12416929D01*
X16355357Y-12431214D01*
X16326786Y-12431214D01*
X16298214Y-12416929D01*
X16283928Y-12402643D01*
X16269643Y-12374071D01*
X16255357Y-12316929D01*
X16255357Y-12245500D01*
X16269643Y-12188357D01*
X16283928Y-12159786D01*
X16298214Y-12145500D01*
X16326786Y-12131214D01*
X16526786Y-12131214D02*
X16712500Y-12131214D01*
X16612500Y-12245500D01*
X16655357Y-12245500D01*
X16683928Y-12259786D01*
X16698214Y-12274071D01*
X16712500Y-12302643D01*
X16712500Y-12374071D01*
X16698214Y-12402643D01*
X16683928Y-12416929D01*
X16655357Y-12431214D01*
X16569643Y-12431214D01*
X16541071Y-12416929D01*
X16526786Y-12402643D01*
X16855357Y-12431214D02*
X16912500Y-12431214D01*
X16941071Y-12416929D01*
X16955357Y-12402643D01*
X16983928Y-12359786D01*
X16998214Y-12302643D01*
X16998214Y-12188357D01*
X16983928Y-12159786D01*
X16969643Y-12145500D01*
X16941071Y-12131214D01*
X16883928Y-12131214D01*
X16855357Y-12145500D01*
X16841071Y-12159786D01*
X16826786Y-12188357D01*
X16826786Y-12259786D01*
X16841071Y-12288357D01*
X16855357Y-12302643D01*
X16883928Y-12316929D01*
X16941071Y-12316929D01*
X16969643Y-12302643D01*
X16983928Y-12288357D01*
X16998214Y-12259786D01*
X17255357Y-12231214D02*
X17255357Y-12431214D01*
X17183928Y-12116929D02*
X17112500Y-12331214D01*
X17298214Y-12331214D01*
X17398214Y-12131214D02*
X17398214Y-12188357D01*
X17512500Y-12131214D02*
X17512500Y-12188357D01*
X17955357Y-12545500D02*
X17941071Y-12531214D01*
X17912500Y-12488357D01*
X17898214Y-12459786D01*
X17883928Y-12416929D01*
X17869643Y-12345500D01*
X17869643Y-12288357D01*
X17883928Y-12216929D01*
X17898214Y-12174071D01*
X17912500Y-12145500D01*
X17941071Y-12102643D01*
X17955357Y-12088357D01*
X18198214Y-12231214D02*
X18198214Y-12431214D01*
X18126786Y-12116929D02*
X18055357Y-12331214D01*
X18241071Y-12331214D01*
X18412500Y-12131214D02*
X18441071Y-12131214D01*
X18469643Y-12145500D01*
X18483928Y-12159786D01*
X18498214Y-12188357D01*
X18512500Y-12245500D01*
X18512500Y-12316929D01*
X18498214Y-12374071D01*
X18483928Y-12402643D01*
X18469643Y-12416929D01*
X18441071Y-12431214D01*
X18412500Y-12431214D01*
X18383928Y-12416929D01*
X18369643Y-12402643D01*
X18355357Y-12374071D01*
X18341071Y-12316929D01*
X18341071Y-12245500D01*
X18355357Y-12188357D01*
X18369643Y-12159786D01*
X18383928Y-12145500D01*
X18412500Y-12131214D01*
X18869643Y-12431214D02*
X18869643Y-12131214D01*
X18998214Y-12431214D02*
X18998214Y-12274071D01*
X18983928Y-12245500D01*
X18955357Y-12231214D01*
X18912500Y-12231214D01*
X18883928Y-12245500D01*
X18869643Y-12259786D01*
X19183928Y-12431214D02*
X19155357Y-12416929D01*
X19141071Y-12402643D01*
X19126786Y-12374071D01*
X19126786Y-12288357D01*
X19141071Y-12259786D01*
X19155357Y-12245500D01*
X19183928Y-12231214D01*
X19226786Y-12231214D01*
X19255357Y-12245500D01*
X19269643Y-12259786D01*
X19283928Y-12288357D01*
X19283928Y-12374071D01*
X19269643Y-12402643D01*
X19255357Y-12416929D01*
X19226786Y-12431214D01*
X19183928Y-12431214D01*
X19455357Y-12431214D02*
X19426786Y-12416929D01*
X19412500Y-12388357D01*
X19412500Y-12131214D01*
X19683928Y-12416929D02*
X19655357Y-12431214D01*
X19598214Y-12431214D01*
X19569643Y-12416929D01*
X19555357Y-12388357D01*
X19555357Y-12274071D01*
X19569643Y-12245500D01*
X19598214Y-12231214D01*
X19655357Y-12231214D01*
X19683928Y-12245500D01*
X19698214Y-12274071D01*
X19698214Y-12302643D01*
X19555357Y-12331214D01*
X19812500Y-12416929D02*
X19841071Y-12431214D01*
X19898214Y-12431214D01*
X19926786Y-12416929D01*
X19941071Y-12388357D01*
X19941071Y-12374071D01*
X19926786Y-12345500D01*
X19898214Y-12331214D01*
X19855357Y-12331214D01*
X19826786Y-12316929D01*
X19812500Y-12288357D01*
X19812500Y-12274071D01*
X19826786Y-12245500D01*
X19855357Y-12231214D01*
X19898214Y-12231214D01*
X19926786Y-12245500D01*
X20041071Y-12545500D02*
X20055357Y-12531214D01*
X20083928Y-12488357D01*
X20098214Y-12459786D01*
X20112500Y-12416929D01*
X20126786Y-12345500D01*
X20126786Y-12288357D01*
X20112500Y-12216929D01*
X20098214Y-12174071D01*
X20083928Y-12145500D01*
X20055357Y-12102643D01*
X20041071Y-12088357D01*
M02*
