M48
; DRILL file {KiCad (5.1.12)-1} date 10/05/22 17:56:04
; FORMAT={-:-/ absolute / metric / decimal}
; #@! TF.CreationDate,2022-10-05T17:56:04-05:00
; #@! TF.GenerationSoftware,Kicad,Pcbnew,(5.1.12)-1
; #@! TF.FileFunction,Plated,1,2,PTH
FMAT,2
METRIC
T1C0.400
T2C0.800
T3C1.000
%
G90
G05
T1
X178.939Y-92.822
X179.783Y-95.25
X190.659Y-72.39
T2
X135.89Y-60.96
X135.89Y-63.5
X135.89Y-66.04
X135.89Y-68.58
X135.89Y-71.12
X135.89Y-73.66
X135.89Y-76.2
X135.89Y-86.36
X135.89Y-88.9
X135.89Y-91.44
X135.89Y-93.98
X135.89Y-96.52
X135.89Y-99.06
X135.89Y-101.6
X138.43Y-54.61
X138.43Y-81.28
X140.93Y-54.61
X140.93Y-81.28
X143.51Y-60.96
X143.51Y-63.5
X143.51Y-66.04
X143.51Y-68.58
X143.51Y-71.12
X143.51Y-73.66
X143.51Y-76.2
X143.51Y-86.36
X143.51Y-88.9
X143.51Y-91.44
X143.51Y-93.98
X143.51Y-96.52
X143.51Y-99.06
X143.51Y-101.6
X151.13Y-60.96
X151.13Y-63.5
X151.13Y-66.04
X151.13Y-68.58
X151.13Y-71.12
X151.13Y-73.66
X151.13Y-76.2
X151.13Y-86.36
X151.13Y-88.9
X151.13Y-91.44
X151.13Y-93.98
X151.13Y-96.52
X151.13Y-99.06
X151.13Y-101.6
X153.67Y-54.61
X153.67Y-81.28
X156.17Y-54.61
X156.17Y-81.28
X158.75Y-60.96
X158.75Y-63.5
X158.75Y-66.04
X158.75Y-68.58
X158.75Y-71.12
X158.75Y-73.66
X158.75Y-76.2
X158.75Y-86.36
X158.75Y-88.9
X158.75Y-91.44
X158.75Y-93.98
X158.75Y-96.52
X158.75Y-99.06
X158.75Y-101.6
X166.37Y-60.96
X166.37Y-63.5
X166.37Y-66.04
X166.37Y-68.58
X166.37Y-71.12
X166.37Y-73.66
X166.37Y-76.2
X166.37Y-86.36
X166.37Y-88.9
X166.37Y-91.44
X166.37Y-93.98
X166.37Y-96.52
X166.37Y-99.06
X166.37Y-101.6
X168.91Y-54.61
X168.91Y-81.28
X171.41Y-54.61
X171.41Y-81.28
X173.99Y-60.96
X173.99Y-63.5
X173.99Y-66.04
X173.99Y-68.58
X173.99Y-71.12
X173.99Y-73.66
X173.99Y-76.2
X173.99Y-86.36
X173.99Y-88.9
X173.99Y-91.44
X173.99Y-93.98
X173.99Y-96.52
X173.99Y-99.06
X173.99Y-101.6
X181.61Y-60.96
X181.61Y-63.5
X181.61Y-66.04
X181.61Y-68.58
X181.61Y-71.12
X181.61Y-73.66
X181.61Y-76.2
X181.61Y-86.36
X181.61Y-88.9
X181.61Y-91.44
X181.61Y-93.98
X181.61Y-96.52
X181.61Y-99.06
X181.61Y-101.6
X184.15Y-54.61
X184.15Y-81.28
X186.65Y-54.61
X186.65Y-81.28
X189.23Y-60.96
X189.23Y-63.5
X189.23Y-66.04
X189.23Y-68.58
X189.23Y-71.12
X189.23Y-73.66
X189.23Y-76.2
X189.23Y-86.36
X189.23Y-88.9
X189.23Y-91.44
X189.23Y-93.98
X189.23Y-96.52
X189.23Y-99.06
X189.23Y-101.6
T3
X204.47Y-53.34
X204.47Y-55.88
X204.47Y-58.42
X204.47Y-60.96
X204.47Y-63.5
X204.47Y-66.04
X204.47Y-68.58
X204.47Y-71.12
X204.47Y-73.66
X204.47Y-76.2
X204.47Y-78.74
X204.47Y-81.28
X204.47Y-83.82
X204.47Y-86.36
X204.47Y-88.9
X204.47Y-91.44
X204.47Y-93.98
X204.47Y-96.52
X204.47Y-99.06
X204.47Y-101.6
X207.01Y-53.34
X207.01Y-55.88
X207.01Y-58.42
X207.01Y-60.96
X207.01Y-63.5
X207.01Y-66.04
X207.01Y-68.58
X207.01Y-71.12
X207.01Y-73.66
X207.01Y-76.2
X207.01Y-78.74
X207.01Y-81.28
X207.01Y-83.82
X207.01Y-86.36
X207.01Y-88.9
X207.01Y-91.44
X207.01Y-93.98
X207.01Y-96.52
X207.01Y-99.06
X207.01Y-101.6
T0
M30
