G04 #@! TF.GenerationSoftware,KiCad,Pcbnew,(5.1.12)-1*
G04 #@! TF.CreationDate,2022-10-05T17:55:37-05:00*
G04 #@! TF.ProjectId,address_logic,61646472-6573-4735-9f6c-6f6769632e6b,rev?*
G04 #@! TF.SameCoordinates,Original*
G04 #@! TF.FileFunction,Legend,Top*
G04 #@! TF.FilePolarity,Positive*
%FSLAX46Y46*%
G04 Gerber Fmt 4.6, Leading zero omitted, Abs format (unit mm)*
G04 Created by KiCad (PCBNEW (5.1.12)-1) date 2022-10-05 17:55:37*
%MOMM*%
%LPD*%
G01*
G04 APERTURE LIST*
%ADD10C,0.150000*%
%ADD11C,0.120000*%
%ADD12C,1.600000*%
%ADD13O,1.700000X1.700000*%
%ADD14R,1.700000X1.700000*%
%ADD15O,1.600000X1.600000*%
%ADD16R,1.600000X1.600000*%
G04 APERTURE END LIST*
D10*
X179355714Y-86812380D02*
X178784285Y-86812380D01*
X179070000Y-86812380D02*
X179070000Y-85812380D01*
X178974761Y-85955238D01*
X178879523Y-86050476D01*
X178784285Y-86098095D01*
X164115714Y-86812380D02*
X163544285Y-86812380D01*
X163830000Y-86812380D02*
X163830000Y-85812380D01*
X163734761Y-85955238D01*
X163639523Y-86050476D01*
X163544285Y-86098095D01*
X148875714Y-86812380D02*
X148304285Y-86812380D01*
X148590000Y-86812380D02*
X148590000Y-85812380D01*
X148494761Y-85955238D01*
X148399523Y-86050476D01*
X148304285Y-86098095D01*
X133635714Y-86812380D02*
X133064285Y-86812380D01*
X133350000Y-86812380D02*
X133350000Y-85812380D01*
X133254761Y-85955238D01*
X133159523Y-86050476D01*
X133064285Y-86098095D01*
X179355714Y-61412380D02*
X178784285Y-61412380D01*
X179070000Y-61412380D02*
X179070000Y-60412380D01*
X178974761Y-60555238D01*
X178879523Y-60650476D01*
X178784285Y-60698095D01*
X164115714Y-61412380D02*
X163544285Y-61412380D01*
X163830000Y-61412380D02*
X163830000Y-60412380D01*
X163734761Y-60555238D01*
X163639523Y-60650476D01*
X163544285Y-60698095D01*
X148875714Y-61412380D02*
X148304285Y-61412380D01*
X148590000Y-61412380D02*
X148590000Y-60412380D01*
X148494761Y-60555238D01*
X148399523Y-60650476D01*
X148304285Y-60698095D01*
X133635714Y-61412380D02*
X133064285Y-61412380D01*
X133350000Y-61412380D02*
X133350000Y-60412380D01*
X133254761Y-60555238D01*
X133159523Y-60650476D01*
X133064285Y-60698095D01*
X194689642Y-102052380D02*
X194356309Y-101576190D01*
X194118214Y-102052380D02*
X194118214Y-101052380D01*
X194499166Y-101052380D01*
X194594404Y-101100000D01*
X194642023Y-101147619D01*
X194689642Y-101242857D01*
X194689642Y-101385714D01*
X194642023Y-101480952D01*
X194594404Y-101528571D01*
X194499166Y-101576190D01*
X194118214Y-101576190D01*
X195308690Y-101052380D02*
X195499166Y-101052380D01*
X195594404Y-101100000D01*
X195689642Y-101195238D01*
X195737261Y-101385714D01*
X195737261Y-101719047D01*
X195689642Y-101909523D01*
X195594404Y-102004761D01*
X195499166Y-102052380D01*
X195308690Y-102052380D01*
X195213452Y-102004761D01*
X195118214Y-101909523D01*
X195070595Y-101719047D01*
X195070595Y-101385714D01*
X195118214Y-101195238D01*
X195213452Y-101100000D01*
X195308690Y-101052380D01*
X196165833Y-102052380D02*
X196165833Y-101052380D01*
X196499166Y-101766666D01*
X196832500Y-101052380D01*
X196832500Y-102052380D01*
X197880119Y-101957142D02*
X197832500Y-102004761D01*
X197689642Y-102052380D01*
X197594404Y-102052380D01*
X197451547Y-102004761D01*
X197356309Y-101909523D01*
X197308690Y-101814285D01*
X197261071Y-101623809D01*
X197261071Y-101480952D01*
X197308690Y-101290476D01*
X197356309Y-101195238D01*
X197451547Y-101100000D01*
X197594404Y-101052380D01*
X197689642Y-101052380D01*
X197832500Y-101100000D01*
X197880119Y-101147619D01*
X198261071Y-102004761D02*
X198403928Y-102052380D01*
X198642023Y-102052380D01*
X198737261Y-102004761D01*
X198784880Y-101957142D01*
X198832500Y-101861904D01*
X198832500Y-101766666D01*
X198784880Y-101671428D01*
X198737261Y-101623809D01*
X198642023Y-101576190D01*
X198451547Y-101528571D01*
X198356309Y-101480952D01*
X198308690Y-101433333D01*
X198261071Y-101338095D01*
X198261071Y-101242857D01*
X198308690Y-101147619D01*
X198356309Y-101100000D01*
X198451547Y-101052380D01*
X198689642Y-101052380D01*
X198832500Y-101100000D01*
X200022976Y-102052380D02*
X200022976Y-101052380D01*
X200594404Y-102052380D01*
X200594404Y-101052380D01*
X201642023Y-101957142D02*
X201594404Y-102004761D01*
X201451547Y-102052380D01*
X201356309Y-102052380D01*
X201213452Y-102004761D01*
X201118214Y-101909523D01*
X201070595Y-101814285D01*
X201022976Y-101623809D01*
X201022976Y-101480952D01*
X201070595Y-101290476D01*
X201118214Y-101195238D01*
X201213452Y-101100000D01*
X201356309Y-101052380D01*
X201451547Y-101052380D01*
X201594404Y-101100000D01*
X201642023Y-101147619D01*
X193880119Y-99512380D02*
X193546785Y-99036190D01*
X193308690Y-99512380D02*
X193308690Y-98512380D01*
X193689642Y-98512380D01*
X193784880Y-98560000D01*
X193832500Y-98607619D01*
X193880119Y-98702857D01*
X193880119Y-98845714D01*
X193832500Y-98940952D01*
X193784880Y-98988571D01*
X193689642Y-99036190D01*
X193308690Y-99036190D01*
X194261071Y-99226666D02*
X194737261Y-99226666D01*
X194165833Y-99512380D02*
X194499166Y-98512380D01*
X194832500Y-99512380D01*
X195165833Y-99512380D02*
X195165833Y-98512380D01*
X195499166Y-99226666D01*
X195832500Y-98512380D01*
X195832500Y-99512380D01*
X196880119Y-99417142D02*
X196832500Y-99464761D01*
X196689642Y-99512380D01*
X196594404Y-99512380D01*
X196451547Y-99464761D01*
X196356309Y-99369523D01*
X196308690Y-99274285D01*
X196261071Y-99083809D01*
X196261071Y-98940952D01*
X196308690Y-98750476D01*
X196356309Y-98655238D01*
X196451547Y-98560000D01*
X196594404Y-98512380D01*
X196689642Y-98512380D01*
X196832500Y-98560000D01*
X196880119Y-98607619D01*
X197261071Y-99464761D02*
X197403928Y-99512380D01*
X197642023Y-99512380D01*
X197737261Y-99464761D01*
X197784880Y-99417142D01*
X197832500Y-99321904D01*
X197832500Y-99226666D01*
X197784880Y-99131428D01*
X197737261Y-99083809D01*
X197642023Y-99036190D01*
X197451547Y-98988571D01*
X197356309Y-98940952D01*
X197308690Y-98893333D01*
X197261071Y-98798095D01*
X197261071Y-98702857D01*
X197308690Y-98607619D01*
X197356309Y-98560000D01*
X197451547Y-98512380D01*
X197689642Y-98512380D01*
X197832500Y-98560000D01*
X199594404Y-99512380D02*
X199261071Y-99036190D01*
X199022976Y-99512380D02*
X199022976Y-98512380D01*
X199403928Y-98512380D01*
X199499166Y-98560000D01*
X199546785Y-98607619D01*
X199594404Y-98702857D01*
X199594404Y-98845714D01*
X199546785Y-98940952D01*
X199499166Y-98988571D01*
X199403928Y-99036190D01*
X199022976Y-99036190D01*
X200022976Y-99512380D02*
X200022976Y-98512380D01*
X200594404Y-99512380D01*
X200594404Y-98512380D01*
X201594404Y-98560000D02*
X201499166Y-98512380D01*
X201356309Y-98512380D01*
X201213452Y-98560000D01*
X201118214Y-98655238D01*
X201070595Y-98750476D01*
X201022976Y-98940952D01*
X201022976Y-99083809D01*
X201070595Y-99274285D01*
X201118214Y-99369523D01*
X201213452Y-99464761D01*
X201356309Y-99512380D01*
X201451547Y-99512380D01*
X201594404Y-99464761D01*
X201642023Y-99417142D01*
X201642023Y-99083809D01*
X201451547Y-99083809D01*
X192642023Y-96686666D02*
X193118214Y-96686666D01*
X192546785Y-96972380D02*
X192880119Y-95972380D01*
X193213452Y-96972380D01*
X194070595Y-96972380D02*
X193499166Y-96972380D01*
X193784880Y-96972380D02*
X193784880Y-95972380D01*
X193689642Y-96115238D01*
X193594404Y-96210476D01*
X193499166Y-96258095D01*
X194975357Y-95972380D02*
X194499166Y-95972380D01*
X194451547Y-96448571D01*
X194499166Y-96400952D01*
X194594404Y-96353333D01*
X194832500Y-96353333D01*
X194927738Y-96400952D01*
X194975357Y-96448571D01*
X195022976Y-96543809D01*
X195022976Y-96781904D01*
X194975357Y-96877142D01*
X194927738Y-96924761D01*
X194832500Y-96972380D01*
X194594404Y-96972380D01*
X194499166Y-96924761D01*
X194451547Y-96877142D01*
X196213452Y-96972380D02*
X196213452Y-95972380D01*
X196594404Y-95972380D01*
X196689642Y-96020000D01*
X196737261Y-96067619D01*
X196784880Y-96162857D01*
X196784880Y-96305714D01*
X196737261Y-96400952D01*
X196689642Y-96448571D01*
X196594404Y-96496190D01*
X196213452Y-96496190D01*
X197213452Y-96972380D02*
X197213452Y-95972380D01*
X197213452Y-96448571D02*
X197784880Y-96448571D01*
X197784880Y-96972380D02*
X197784880Y-95972380D01*
X198261071Y-96972380D02*
X198261071Y-95972380D01*
X198689642Y-96067619D02*
X198737261Y-96020000D01*
X198832500Y-95972380D01*
X199070595Y-95972380D01*
X199165833Y-96020000D01*
X199213452Y-96067619D01*
X199261071Y-96162857D01*
X199261071Y-96258095D01*
X199213452Y-96400952D01*
X198642023Y-96972380D01*
X199261071Y-96972380D01*
X199832500Y-96972380D02*
X199737261Y-96924761D01*
X199689642Y-96877142D01*
X199642023Y-96781904D01*
X199642023Y-96496190D01*
X199689642Y-96400952D01*
X199737261Y-96353333D01*
X199832500Y-96305714D01*
X199975357Y-96305714D01*
X200070595Y-96353333D01*
X200118214Y-96400952D01*
X200165833Y-96496190D01*
X200165833Y-96781904D01*
X200118214Y-96877142D01*
X200070595Y-96924761D01*
X199975357Y-96972380D01*
X199832500Y-96972380D01*
X201022976Y-96305714D02*
X201022976Y-96972380D01*
X200594404Y-96305714D02*
X200594404Y-96829523D01*
X200642023Y-96924761D01*
X200737261Y-96972380D01*
X200880119Y-96972380D01*
X200975357Y-96924761D01*
X201022976Y-96877142D01*
X201356309Y-96305714D02*
X201737261Y-96305714D01*
X201499166Y-95972380D02*
X201499166Y-96829523D01*
X201546785Y-96924761D01*
X201642023Y-96972380D01*
X201737261Y-96972380D01*
X192642023Y-94146666D02*
X193118214Y-94146666D01*
X192546785Y-94432380D02*
X192880119Y-93432380D01*
X193213452Y-94432380D01*
X194070595Y-94432380D02*
X193499166Y-94432380D01*
X193784880Y-94432380D02*
X193784880Y-93432380D01*
X193689642Y-93575238D01*
X193594404Y-93670476D01*
X193499166Y-93718095D01*
X194927738Y-93765714D02*
X194927738Y-94432380D01*
X194689642Y-93384761D02*
X194451547Y-94099047D01*
X195070595Y-94099047D01*
X196213452Y-94432380D02*
X196213452Y-93432380D01*
X196594404Y-93432380D01*
X196689642Y-93480000D01*
X196737261Y-93527619D01*
X196784880Y-93622857D01*
X196784880Y-93765714D01*
X196737261Y-93860952D01*
X196689642Y-93908571D01*
X196594404Y-93956190D01*
X196213452Y-93956190D01*
X197213452Y-94432380D02*
X197213452Y-93432380D01*
X197213452Y-93908571D02*
X197784880Y-93908571D01*
X197784880Y-94432380D02*
X197784880Y-93432380D01*
X198261071Y-94432380D02*
X198261071Y-93432380D01*
X199261071Y-94432380D02*
X198689642Y-94432380D01*
X198975357Y-94432380D02*
X198975357Y-93432380D01*
X198880119Y-93575238D01*
X198784880Y-93670476D01*
X198689642Y-93718095D01*
X199832500Y-94432380D02*
X199737261Y-94384761D01*
X199689642Y-94337142D01*
X199642023Y-94241904D01*
X199642023Y-93956190D01*
X199689642Y-93860952D01*
X199737261Y-93813333D01*
X199832500Y-93765714D01*
X199975357Y-93765714D01*
X200070595Y-93813333D01*
X200118214Y-93860952D01*
X200165833Y-93956190D01*
X200165833Y-94241904D01*
X200118214Y-94337142D01*
X200070595Y-94384761D01*
X199975357Y-94432380D01*
X199832500Y-94432380D01*
X201022976Y-93765714D02*
X201022976Y-94432380D01*
X200594404Y-93765714D02*
X200594404Y-94289523D01*
X200642023Y-94384761D01*
X200737261Y-94432380D01*
X200880119Y-94432380D01*
X200975357Y-94384761D01*
X201022976Y-94337142D01*
X201356309Y-93765714D02*
X201737261Y-93765714D01*
X201499166Y-93432380D02*
X201499166Y-94289523D01*
X201546785Y-94384761D01*
X201642023Y-94432380D01*
X201737261Y-94432380D01*
X195975357Y-91606666D02*
X196451547Y-91606666D01*
X195880119Y-91892380D02*
X196213452Y-90892380D01*
X196546785Y-91892380D01*
X197403928Y-91892380D02*
X196832500Y-91892380D01*
X197118214Y-91892380D02*
X197118214Y-90892380D01*
X197022976Y-91035238D01*
X196927738Y-91130476D01*
X196832500Y-91178095D01*
X197737261Y-90892380D02*
X198356309Y-90892380D01*
X198022976Y-91273333D01*
X198165833Y-91273333D01*
X198261071Y-91320952D01*
X198308690Y-91368571D01*
X198356309Y-91463809D01*
X198356309Y-91701904D01*
X198308690Y-91797142D01*
X198261071Y-91844761D01*
X198165833Y-91892380D01*
X197880119Y-91892380D01*
X197784880Y-91844761D01*
X197737261Y-91797142D01*
X199546785Y-91892380D02*
X199546785Y-90892380D01*
X200594404Y-91892380D02*
X200261071Y-91416190D01*
X200022976Y-91892380D02*
X200022976Y-90892380D01*
X200403928Y-90892380D01*
X200499166Y-90940000D01*
X200546785Y-90987619D01*
X200594404Y-91082857D01*
X200594404Y-91225714D01*
X200546785Y-91320952D01*
X200499166Y-91368571D01*
X200403928Y-91416190D01*
X200022976Y-91416190D01*
X201689642Y-91987619D02*
X201594404Y-91940000D01*
X201499166Y-91844761D01*
X201356309Y-91701904D01*
X201261071Y-91654285D01*
X201165833Y-91654285D01*
X201213452Y-91892380D02*
X201118214Y-91844761D01*
X201022976Y-91749523D01*
X200975357Y-91559047D01*
X200975357Y-91225714D01*
X201022976Y-91035238D01*
X201118214Y-90940000D01*
X201213452Y-90892380D01*
X201403928Y-90892380D01*
X201499166Y-90940000D01*
X201594404Y-91035238D01*
X201642023Y-91225714D01*
X201642023Y-91559047D01*
X201594404Y-91749523D01*
X201499166Y-91844761D01*
X201403928Y-91892380D01*
X201213452Y-91892380D01*
X192594404Y-89066666D02*
X193070595Y-89066666D01*
X192499166Y-89352380D02*
X192832500Y-88352380D01*
X193165833Y-89352380D01*
X194022976Y-89352380D02*
X193451547Y-89352380D01*
X193737261Y-89352380D02*
X193737261Y-88352380D01*
X193642023Y-88495238D01*
X193546785Y-88590476D01*
X193451547Y-88638095D01*
X194403928Y-88447619D02*
X194451547Y-88400000D01*
X194546785Y-88352380D01*
X194784880Y-88352380D01*
X194880119Y-88400000D01*
X194927738Y-88447619D01*
X194975357Y-88542857D01*
X194975357Y-88638095D01*
X194927738Y-88780952D01*
X194356309Y-89352380D01*
X194975357Y-89352380D01*
X196499166Y-88828571D02*
X196165833Y-88828571D01*
X196165833Y-89352380D02*
X196165833Y-88352380D01*
X196642023Y-88352380D01*
X197594404Y-89352380D02*
X197261071Y-88876190D01*
X197022976Y-89352380D02*
X197022976Y-88352380D01*
X197403928Y-88352380D01*
X197499166Y-88400000D01*
X197546785Y-88447619D01*
X197594404Y-88542857D01*
X197594404Y-88685714D01*
X197546785Y-88780952D01*
X197499166Y-88828571D01*
X197403928Y-88876190D01*
X197022976Y-88876190D01*
X198022976Y-89352380D02*
X198022976Y-88352380D01*
X198356309Y-89066666D01*
X198689642Y-88352380D01*
X198689642Y-89352380D01*
X199499166Y-88828571D02*
X199642023Y-88876190D01*
X199689642Y-88923809D01*
X199737261Y-89019047D01*
X199737261Y-89161904D01*
X199689642Y-89257142D01*
X199642023Y-89304761D01*
X199546785Y-89352380D01*
X199165833Y-89352380D01*
X199165833Y-88352380D01*
X199499166Y-88352380D01*
X199594404Y-88400000D01*
X199642023Y-88447619D01*
X199689642Y-88542857D01*
X199689642Y-88638095D01*
X199642023Y-88733333D01*
X199594404Y-88780952D01*
X199499166Y-88828571D01*
X199165833Y-88828571D01*
X200165833Y-88352380D02*
X200165833Y-89161904D01*
X200213452Y-89257142D01*
X200261071Y-89304761D01*
X200356309Y-89352380D01*
X200546785Y-89352380D01*
X200642023Y-89304761D01*
X200689642Y-89257142D01*
X200737261Y-89161904D01*
X200737261Y-88352380D01*
X201546785Y-88828571D02*
X201213452Y-88828571D01*
X201213452Y-89352380D02*
X201213452Y-88352380D01*
X201689642Y-88352380D01*
X194737261Y-86526666D02*
X195213452Y-86526666D01*
X194642023Y-86812380D02*
X194975357Y-85812380D01*
X195308690Y-86812380D01*
X196165833Y-86812380D02*
X195594404Y-86812380D01*
X195880119Y-86812380D02*
X195880119Y-85812380D01*
X195784880Y-85955238D01*
X195689642Y-86050476D01*
X195594404Y-86098095D01*
X197118214Y-86812380D02*
X196546785Y-86812380D01*
X196832500Y-86812380D02*
X196832500Y-85812380D01*
X196737261Y-85955238D01*
X196642023Y-86050476D01*
X196546785Y-86098095D01*
X198261071Y-86764761D02*
X198403928Y-86812380D01*
X198642023Y-86812380D01*
X198737261Y-86764761D01*
X198784880Y-86717142D01*
X198832500Y-86621904D01*
X198832500Y-86526666D01*
X198784880Y-86431428D01*
X198737261Y-86383809D01*
X198642023Y-86336190D01*
X198451547Y-86288571D01*
X198356309Y-86240952D01*
X198308690Y-86193333D01*
X198261071Y-86098095D01*
X198261071Y-86002857D01*
X198308690Y-85907619D01*
X198356309Y-85860000D01*
X198451547Y-85812380D01*
X198689642Y-85812380D01*
X198832500Y-85860000D01*
X199832500Y-86717142D02*
X199784880Y-86764761D01*
X199642023Y-86812380D01*
X199546785Y-86812380D01*
X199403928Y-86764761D01*
X199308690Y-86669523D01*
X199261071Y-86574285D01*
X199213452Y-86383809D01*
X199213452Y-86240952D01*
X199261071Y-86050476D01*
X199308690Y-85955238D01*
X199403928Y-85860000D01*
X199546785Y-85812380D01*
X199642023Y-85812380D01*
X199784880Y-85860000D01*
X199832500Y-85907619D01*
X200737261Y-86812380D02*
X200261071Y-86812380D01*
X200261071Y-85812380D01*
X201070595Y-86812380D02*
X201070595Y-85812380D01*
X201642023Y-86812380D02*
X201213452Y-86240952D01*
X201642023Y-85812380D02*
X201070595Y-86383809D01*
X194832500Y-83986666D02*
X195308690Y-83986666D01*
X194737261Y-84272380D02*
X195070595Y-83272380D01*
X195403928Y-84272380D01*
X196261071Y-84272380D02*
X195689642Y-84272380D01*
X195975357Y-84272380D02*
X195975357Y-83272380D01*
X195880119Y-83415238D01*
X195784880Y-83510476D01*
X195689642Y-83558095D01*
X196880119Y-83272380D02*
X196975357Y-83272380D01*
X197070595Y-83320000D01*
X197118214Y-83367619D01*
X197165833Y-83462857D01*
X197213452Y-83653333D01*
X197213452Y-83891428D01*
X197165833Y-84081904D01*
X197118214Y-84177142D01*
X197070595Y-84224761D01*
X196975357Y-84272380D01*
X196880119Y-84272380D01*
X196784880Y-84224761D01*
X196737261Y-84177142D01*
X196689642Y-84081904D01*
X196642023Y-83891428D01*
X196642023Y-83653333D01*
X196689642Y-83462857D01*
X196737261Y-83367619D01*
X196784880Y-83320000D01*
X196880119Y-83272380D01*
X198737261Y-83748571D02*
X198403928Y-83748571D01*
X198403928Y-84272380D02*
X198403928Y-83272380D01*
X198880119Y-83272380D01*
X199832500Y-84177142D02*
X199784880Y-84224761D01*
X199642023Y-84272380D01*
X199546785Y-84272380D01*
X199403928Y-84224761D01*
X199308690Y-84129523D01*
X199261071Y-84034285D01*
X199213452Y-83843809D01*
X199213452Y-83700952D01*
X199261071Y-83510476D01*
X199308690Y-83415238D01*
X199403928Y-83320000D01*
X199546785Y-83272380D01*
X199642023Y-83272380D01*
X199784880Y-83320000D01*
X199832500Y-83367619D01*
X200737261Y-84272380D02*
X200261071Y-84272380D01*
X200261071Y-83272380D01*
X201070595Y-84272380D02*
X201070595Y-83272380D01*
X201642023Y-84272380D02*
X201213452Y-83700952D01*
X201642023Y-83272380D02*
X201070595Y-83843809D01*
X196642023Y-81446666D02*
X197118214Y-81446666D01*
X196546785Y-81732380D02*
X196880119Y-80732380D01*
X197213452Y-81732380D01*
X197594404Y-81732380D02*
X197784880Y-81732380D01*
X197880119Y-81684761D01*
X197927738Y-81637142D01*
X198022976Y-81494285D01*
X198070595Y-81303809D01*
X198070595Y-80922857D01*
X198022976Y-80827619D01*
X197975357Y-80780000D01*
X197880119Y-80732380D01*
X197689642Y-80732380D01*
X197594404Y-80780000D01*
X197546785Y-80827619D01*
X197499166Y-80922857D01*
X197499166Y-81160952D01*
X197546785Y-81256190D01*
X197594404Y-81303809D01*
X197689642Y-81351428D01*
X197880119Y-81351428D01*
X197975357Y-81303809D01*
X198022976Y-81256190D01*
X198070595Y-81160952D01*
X199832500Y-81637142D02*
X199784880Y-81684761D01*
X199642023Y-81732380D01*
X199546785Y-81732380D01*
X199403928Y-81684761D01*
X199308690Y-81589523D01*
X199261071Y-81494285D01*
X199213452Y-81303809D01*
X199213452Y-81160952D01*
X199261071Y-80970476D01*
X199308690Y-80875238D01*
X199403928Y-80780000D01*
X199546785Y-80732380D01*
X199642023Y-80732380D01*
X199784880Y-80780000D01*
X199832500Y-80827619D01*
X200737261Y-81732380D02*
X200261071Y-81732380D01*
X200261071Y-80732380D01*
X201070595Y-81732380D02*
X201070595Y-80732380D01*
X201642023Y-81732380D02*
X201213452Y-81160952D01*
X201642023Y-80732380D02*
X201070595Y-81303809D01*
X197308690Y-78906666D02*
X197784880Y-78906666D01*
X197213452Y-79192380D02*
X197546785Y-78192380D01*
X197880119Y-79192380D01*
X198356309Y-78620952D02*
X198261071Y-78573333D01*
X198213452Y-78525714D01*
X198165833Y-78430476D01*
X198165833Y-78382857D01*
X198213452Y-78287619D01*
X198261071Y-78240000D01*
X198356309Y-78192380D01*
X198546785Y-78192380D01*
X198642023Y-78240000D01*
X198689642Y-78287619D01*
X198737261Y-78382857D01*
X198737261Y-78430476D01*
X198689642Y-78525714D01*
X198642023Y-78573333D01*
X198546785Y-78620952D01*
X198356309Y-78620952D01*
X198261071Y-78668571D01*
X198213452Y-78716190D01*
X198165833Y-78811428D01*
X198165833Y-79001904D01*
X198213452Y-79097142D01*
X198261071Y-79144761D01*
X198356309Y-79192380D01*
X198546785Y-79192380D01*
X198642023Y-79144761D01*
X198689642Y-79097142D01*
X198737261Y-79001904D01*
X198737261Y-78811428D01*
X198689642Y-78716190D01*
X198642023Y-78668571D01*
X198546785Y-78620952D01*
X200499166Y-79192380D02*
X200165833Y-78716190D01*
X199927738Y-79192380D02*
X199927738Y-78192380D01*
X200308690Y-78192380D01*
X200403928Y-78240000D01*
X200451547Y-78287619D01*
X200499166Y-78382857D01*
X200499166Y-78525714D01*
X200451547Y-78620952D01*
X200403928Y-78668571D01*
X200308690Y-78716190D01*
X199927738Y-78716190D01*
X200832500Y-78192380D02*
X201070595Y-79192380D01*
X201261071Y-78478095D01*
X201451547Y-79192380D01*
X201689642Y-78192380D01*
X197499166Y-76366666D02*
X197975357Y-76366666D01*
X197403928Y-76652380D02*
X197737261Y-75652380D01*
X198070595Y-76652380D01*
X198308690Y-75652380D02*
X198975357Y-75652380D01*
X198546785Y-76652380D01*
X200118214Y-76652380D02*
X200118214Y-75652380D01*
X200356309Y-75652380D01*
X200499166Y-75700000D01*
X200594404Y-75795238D01*
X200642023Y-75890476D01*
X200689642Y-76080952D01*
X200689642Y-76223809D01*
X200642023Y-76414285D01*
X200594404Y-76509523D01*
X200499166Y-76604761D01*
X200356309Y-76652380D01*
X200118214Y-76652380D01*
X201022976Y-75652380D02*
X201689642Y-75652380D01*
X201261071Y-76652380D01*
X197499166Y-73826666D02*
X197975357Y-73826666D01*
X197403928Y-74112380D02*
X197737261Y-73112380D01*
X198070595Y-74112380D01*
X198832500Y-73112380D02*
X198642023Y-73112380D01*
X198546785Y-73160000D01*
X198499166Y-73207619D01*
X198403928Y-73350476D01*
X198356309Y-73540952D01*
X198356309Y-73921904D01*
X198403928Y-74017142D01*
X198451547Y-74064761D01*
X198546785Y-74112380D01*
X198737261Y-74112380D01*
X198832500Y-74064761D01*
X198880119Y-74017142D01*
X198927738Y-73921904D01*
X198927738Y-73683809D01*
X198880119Y-73588571D01*
X198832500Y-73540952D01*
X198737261Y-73493333D01*
X198546785Y-73493333D01*
X198451547Y-73540952D01*
X198403928Y-73588571D01*
X198356309Y-73683809D01*
X200118214Y-74112380D02*
X200118214Y-73112380D01*
X200356309Y-73112380D01*
X200499166Y-73160000D01*
X200594404Y-73255238D01*
X200642023Y-73350476D01*
X200689642Y-73540952D01*
X200689642Y-73683809D01*
X200642023Y-73874285D01*
X200594404Y-73969523D01*
X200499166Y-74064761D01*
X200356309Y-74112380D01*
X200118214Y-74112380D01*
X201546785Y-73112380D02*
X201356309Y-73112380D01*
X201261071Y-73160000D01*
X201213452Y-73207619D01*
X201118214Y-73350476D01*
X201070595Y-73540952D01*
X201070595Y-73921904D01*
X201118214Y-74017142D01*
X201165833Y-74064761D01*
X201261071Y-74112380D01*
X201451547Y-74112380D01*
X201546785Y-74064761D01*
X201594404Y-74017142D01*
X201642023Y-73921904D01*
X201642023Y-73683809D01*
X201594404Y-73588571D01*
X201546785Y-73540952D01*
X201451547Y-73493333D01*
X201261071Y-73493333D01*
X201165833Y-73540952D01*
X201118214Y-73588571D01*
X201070595Y-73683809D01*
X197499166Y-71286666D02*
X197975357Y-71286666D01*
X197403928Y-71572380D02*
X197737261Y-70572380D01*
X198070595Y-71572380D01*
X198880119Y-70572380D02*
X198403928Y-70572380D01*
X198356309Y-71048571D01*
X198403928Y-71000952D01*
X198499166Y-70953333D01*
X198737261Y-70953333D01*
X198832500Y-71000952D01*
X198880119Y-71048571D01*
X198927738Y-71143809D01*
X198927738Y-71381904D01*
X198880119Y-71477142D01*
X198832500Y-71524761D01*
X198737261Y-71572380D01*
X198499166Y-71572380D01*
X198403928Y-71524761D01*
X198356309Y-71477142D01*
X200118214Y-71572380D02*
X200118214Y-70572380D01*
X200356309Y-70572380D01*
X200499166Y-70620000D01*
X200594404Y-70715238D01*
X200642023Y-70810476D01*
X200689642Y-71000952D01*
X200689642Y-71143809D01*
X200642023Y-71334285D01*
X200594404Y-71429523D01*
X200499166Y-71524761D01*
X200356309Y-71572380D01*
X200118214Y-71572380D01*
X201594404Y-70572380D02*
X201118214Y-70572380D01*
X201070595Y-71048571D01*
X201118214Y-71000952D01*
X201213452Y-70953333D01*
X201451547Y-70953333D01*
X201546785Y-71000952D01*
X201594404Y-71048571D01*
X201642023Y-71143809D01*
X201642023Y-71381904D01*
X201594404Y-71477142D01*
X201546785Y-71524761D01*
X201451547Y-71572380D01*
X201213452Y-71572380D01*
X201118214Y-71524761D01*
X201070595Y-71477142D01*
X197499166Y-68746666D02*
X197975357Y-68746666D01*
X197403928Y-69032380D02*
X197737261Y-68032380D01*
X198070595Y-69032380D01*
X198832500Y-68365714D02*
X198832500Y-69032380D01*
X198594404Y-67984761D02*
X198356309Y-68699047D01*
X198975357Y-68699047D01*
X200118214Y-69032380D02*
X200118214Y-68032380D01*
X200356309Y-68032380D01*
X200499166Y-68080000D01*
X200594404Y-68175238D01*
X200642023Y-68270476D01*
X200689642Y-68460952D01*
X200689642Y-68603809D01*
X200642023Y-68794285D01*
X200594404Y-68889523D01*
X200499166Y-68984761D01*
X200356309Y-69032380D01*
X200118214Y-69032380D01*
X201546785Y-68365714D02*
X201546785Y-69032380D01*
X201308690Y-67984761D02*
X201070595Y-68699047D01*
X201689642Y-68699047D01*
X197499166Y-66206666D02*
X197975357Y-66206666D01*
X197403928Y-66492380D02*
X197737261Y-65492380D01*
X198070595Y-66492380D01*
X198308690Y-65492380D02*
X198927738Y-65492380D01*
X198594404Y-65873333D01*
X198737261Y-65873333D01*
X198832500Y-65920952D01*
X198880119Y-65968571D01*
X198927738Y-66063809D01*
X198927738Y-66301904D01*
X198880119Y-66397142D01*
X198832500Y-66444761D01*
X198737261Y-66492380D01*
X198451547Y-66492380D01*
X198356309Y-66444761D01*
X198308690Y-66397142D01*
X200118214Y-66492380D02*
X200118214Y-65492380D01*
X200356309Y-65492380D01*
X200499166Y-65540000D01*
X200594404Y-65635238D01*
X200642023Y-65730476D01*
X200689642Y-65920952D01*
X200689642Y-66063809D01*
X200642023Y-66254285D01*
X200594404Y-66349523D01*
X200499166Y-66444761D01*
X200356309Y-66492380D01*
X200118214Y-66492380D01*
X201022976Y-65492380D02*
X201642023Y-65492380D01*
X201308690Y-65873333D01*
X201451547Y-65873333D01*
X201546785Y-65920952D01*
X201594404Y-65968571D01*
X201642023Y-66063809D01*
X201642023Y-66301904D01*
X201594404Y-66397142D01*
X201546785Y-66444761D01*
X201451547Y-66492380D01*
X201165833Y-66492380D01*
X201070595Y-66444761D01*
X201022976Y-66397142D01*
X197499166Y-63666666D02*
X197975357Y-63666666D01*
X197403928Y-63952380D02*
X197737261Y-62952380D01*
X198070595Y-63952380D01*
X198356309Y-63047619D02*
X198403928Y-63000000D01*
X198499166Y-62952380D01*
X198737261Y-62952380D01*
X198832500Y-63000000D01*
X198880119Y-63047619D01*
X198927738Y-63142857D01*
X198927738Y-63238095D01*
X198880119Y-63380952D01*
X198308690Y-63952380D01*
X198927738Y-63952380D01*
X200118214Y-63952380D02*
X200118214Y-62952380D01*
X200356309Y-62952380D01*
X200499166Y-63000000D01*
X200594404Y-63095238D01*
X200642023Y-63190476D01*
X200689642Y-63380952D01*
X200689642Y-63523809D01*
X200642023Y-63714285D01*
X200594404Y-63809523D01*
X200499166Y-63904761D01*
X200356309Y-63952380D01*
X200118214Y-63952380D01*
X201070595Y-63047619D02*
X201118214Y-63000000D01*
X201213452Y-62952380D01*
X201451547Y-62952380D01*
X201546785Y-63000000D01*
X201594404Y-63047619D01*
X201642023Y-63142857D01*
X201642023Y-63238095D01*
X201594404Y-63380952D01*
X201022976Y-63952380D01*
X201642023Y-63952380D01*
X197499166Y-61126666D02*
X197975357Y-61126666D01*
X197403928Y-61412380D02*
X197737261Y-60412380D01*
X198070595Y-61412380D01*
X198927738Y-61412380D02*
X198356309Y-61412380D01*
X198642023Y-61412380D02*
X198642023Y-60412380D01*
X198546785Y-60555238D01*
X198451547Y-60650476D01*
X198356309Y-60698095D01*
X200118214Y-61412380D02*
X200118214Y-60412380D01*
X200356309Y-60412380D01*
X200499166Y-60460000D01*
X200594404Y-60555238D01*
X200642023Y-60650476D01*
X200689642Y-60840952D01*
X200689642Y-60983809D01*
X200642023Y-61174285D01*
X200594404Y-61269523D01*
X200499166Y-61364761D01*
X200356309Y-61412380D01*
X200118214Y-61412380D01*
X201642023Y-61412380D02*
X201070595Y-61412380D01*
X201356309Y-61412380D02*
X201356309Y-60412380D01*
X201261071Y-60555238D01*
X201165833Y-60650476D01*
X201070595Y-60698095D01*
X197499166Y-58586666D02*
X197975357Y-58586666D01*
X197403928Y-58872380D02*
X197737261Y-57872380D01*
X198070595Y-58872380D01*
X198594404Y-57872380D02*
X198689642Y-57872380D01*
X198784880Y-57920000D01*
X198832500Y-57967619D01*
X198880119Y-58062857D01*
X198927738Y-58253333D01*
X198927738Y-58491428D01*
X198880119Y-58681904D01*
X198832500Y-58777142D01*
X198784880Y-58824761D01*
X198689642Y-58872380D01*
X198594404Y-58872380D01*
X198499166Y-58824761D01*
X198451547Y-58777142D01*
X198403928Y-58681904D01*
X198356309Y-58491428D01*
X198356309Y-58253333D01*
X198403928Y-58062857D01*
X198451547Y-57967619D01*
X198499166Y-57920000D01*
X198594404Y-57872380D01*
X200118214Y-58872380D02*
X200118214Y-57872380D01*
X200356309Y-57872380D01*
X200499166Y-57920000D01*
X200594404Y-58015238D01*
X200642023Y-58110476D01*
X200689642Y-58300952D01*
X200689642Y-58443809D01*
X200642023Y-58634285D01*
X200594404Y-58729523D01*
X200499166Y-58824761D01*
X200356309Y-58872380D01*
X200118214Y-58872380D01*
X201308690Y-57872380D02*
X201403928Y-57872380D01*
X201499166Y-57920000D01*
X201546785Y-57967619D01*
X201594404Y-58062857D01*
X201642023Y-58253333D01*
X201642023Y-58491428D01*
X201594404Y-58681904D01*
X201546785Y-58777142D01*
X201499166Y-58824761D01*
X201403928Y-58872380D01*
X201308690Y-58872380D01*
X201213452Y-58824761D01*
X201165833Y-58777142D01*
X201118214Y-58681904D01*
X201070595Y-58491428D01*
X201070595Y-58253333D01*
X201118214Y-58062857D01*
X201165833Y-57967619D01*
X201213452Y-57920000D01*
X201308690Y-57872380D01*
X194499166Y-56332380D02*
X194165833Y-55856190D01*
X193927738Y-56332380D02*
X193927738Y-55332380D01*
X194308690Y-55332380D01*
X194403928Y-55380000D01*
X194451547Y-55427619D01*
X194499166Y-55522857D01*
X194499166Y-55665714D01*
X194451547Y-55760952D01*
X194403928Y-55808571D01*
X194308690Y-55856190D01*
X193927738Y-55856190D01*
X194927738Y-55808571D02*
X195261071Y-55808571D01*
X195403928Y-56332380D02*
X194927738Y-56332380D01*
X194927738Y-55332380D01*
X195403928Y-55332380D01*
X195784880Y-56284761D02*
X195927738Y-56332380D01*
X196165833Y-56332380D01*
X196261071Y-56284761D01*
X196308690Y-56237142D01*
X196356309Y-56141904D01*
X196356309Y-56046666D01*
X196308690Y-55951428D01*
X196261071Y-55903809D01*
X196165833Y-55856190D01*
X195975357Y-55808571D01*
X195880119Y-55760952D01*
X195832500Y-55713333D01*
X195784880Y-55618095D01*
X195784880Y-55522857D01*
X195832500Y-55427619D01*
X195880119Y-55380000D01*
X195975357Y-55332380D01*
X196213452Y-55332380D01*
X196356309Y-55380000D01*
X196784880Y-55808571D02*
X197118214Y-55808571D01*
X197261071Y-56332380D02*
X196784880Y-56332380D01*
X196784880Y-55332380D01*
X197261071Y-55332380D01*
X197546785Y-55332380D02*
X198118214Y-55332380D01*
X197832500Y-56332380D02*
X197832500Y-55332380D01*
X199070595Y-55332380D02*
X199403928Y-56332380D01*
X199737261Y-55332380D01*
X200642023Y-56237142D02*
X200594404Y-56284761D01*
X200451547Y-56332380D01*
X200356309Y-56332380D01*
X200213452Y-56284761D01*
X200118214Y-56189523D01*
X200070595Y-56094285D01*
X200022976Y-55903809D01*
X200022976Y-55760952D01*
X200070595Y-55570476D01*
X200118214Y-55475238D01*
X200213452Y-55380000D01*
X200356309Y-55332380D01*
X200451547Y-55332380D01*
X200594404Y-55380000D01*
X200642023Y-55427619D01*
X201642023Y-56237142D02*
X201594404Y-56284761D01*
X201451547Y-56332380D01*
X201356309Y-56332380D01*
X201213452Y-56284761D01*
X201118214Y-56189523D01*
X201070595Y-56094285D01*
X201022976Y-55903809D01*
X201022976Y-55760952D01*
X201070595Y-55570476D01*
X201118214Y-55475238D01*
X201213452Y-55380000D01*
X201356309Y-55332380D01*
X201451547Y-55332380D01*
X201594404Y-55380000D01*
X201642023Y-55427619D01*
X195737261Y-52840000D02*
X195642023Y-52792380D01*
X195499166Y-52792380D01*
X195356309Y-52840000D01*
X195261071Y-52935238D01*
X195213452Y-53030476D01*
X195165833Y-53220952D01*
X195165833Y-53363809D01*
X195213452Y-53554285D01*
X195261071Y-53649523D01*
X195356309Y-53744761D01*
X195499166Y-53792380D01*
X195594404Y-53792380D01*
X195737261Y-53744761D01*
X195784880Y-53697142D01*
X195784880Y-53363809D01*
X195594404Y-53363809D01*
X196213452Y-53792380D02*
X196213452Y-52792380D01*
X196784880Y-53792380D01*
X196784880Y-52792380D01*
X197261071Y-53792380D02*
X197261071Y-52792380D01*
X197499166Y-52792380D01*
X197642023Y-52840000D01*
X197737261Y-52935238D01*
X197784880Y-53030476D01*
X197832500Y-53220952D01*
X197832500Y-53363809D01*
X197784880Y-53554285D01*
X197737261Y-53649523D01*
X197642023Y-53744761D01*
X197499166Y-53792380D01*
X197261071Y-53792380D01*
X199546785Y-52840000D02*
X199451547Y-52792380D01*
X199308690Y-52792380D01*
X199165833Y-52840000D01*
X199070595Y-52935238D01*
X199022976Y-53030476D01*
X198975357Y-53220952D01*
X198975357Y-53363809D01*
X199022976Y-53554285D01*
X199070595Y-53649523D01*
X199165833Y-53744761D01*
X199308690Y-53792380D01*
X199403928Y-53792380D01*
X199546785Y-53744761D01*
X199594404Y-53697142D01*
X199594404Y-53363809D01*
X199403928Y-53363809D01*
X200022976Y-53792380D02*
X200022976Y-52792380D01*
X200594404Y-53792380D01*
X200594404Y-52792380D01*
X201070595Y-53792380D02*
X201070595Y-52792380D01*
X201308690Y-52792380D01*
X201451547Y-52840000D01*
X201546785Y-52935238D01*
X201594404Y-53030476D01*
X201642023Y-53220952D01*
X201642023Y-53363809D01*
X201594404Y-53554285D01*
X201546785Y-53649523D01*
X201451547Y-53744761D01*
X201308690Y-53792380D01*
X201070595Y-53792380D01*
X129992380Y-104225238D02*
X128992380Y-104225238D01*
X129706666Y-103891904D01*
X128992380Y-103558571D01*
X129992380Y-103558571D01*
X128992380Y-102653809D02*
X128992380Y-102844285D01*
X129040000Y-102939523D01*
X129087619Y-102987142D01*
X129230476Y-103082380D01*
X129420952Y-103130000D01*
X129801904Y-103130000D01*
X129897142Y-103082380D01*
X129944761Y-103034761D01*
X129992380Y-102939523D01*
X129992380Y-102749047D01*
X129944761Y-102653809D01*
X129897142Y-102606190D01*
X129801904Y-102558571D01*
X129563809Y-102558571D01*
X129468571Y-102606190D01*
X129420952Y-102653809D01*
X129373333Y-102749047D01*
X129373333Y-102939523D01*
X129420952Y-103034761D01*
X129468571Y-103082380D01*
X129563809Y-103130000D01*
X128992380Y-101653809D02*
X128992380Y-102130000D01*
X129468571Y-102177619D01*
X129420952Y-102130000D01*
X129373333Y-102034761D01*
X129373333Y-101796666D01*
X129420952Y-101701428D01*
X129468571Y-101653809D01*
X129563809Y-101606190D01*
X129801904Y-101606190D01*
X129897142Y-101653809D01*
X129944761Y-101701428D01*
X129992380Y-101796666D01*
X129992380Y-102034761D01*
X129944761Y-102130000D01*
X129897142Y-102177619D01*
X128992380Y-100987142D02*
X128992380Y-100891904D01*
X129040000Y-100796666D01*
X129087619Y-100749047D01*
X129182857Y-100701428D01*
X129373333Y-100653809D01*
X129611428Y-100653809D01*
X129801904Y-100701428D01*
X129897142Y-100749047D01*
X129944761Y-100796666D01*
X129992380Y-100891904D01*
X129992380Y-100987142D01*
X129944761Y-101082380D01*
X129897142Y-101130000D01*
X129801904Y-101177619D01*
X129611428Y-101225238D01*
X129373333Y-101225238D01*
X129182857Y-101177619D01*
X129087619Y-101130000D01*
X129040000Y-101082380D01*
X128992380Y-100987142D01*
X129087619Y-100272857D02*
X129040000Y-100225238D01*
X128992380Y-100130000D01*
X128992380Y-99891904D01*
X129040000Y-99796666D01*
X129087619Y-99749047D01*
X129182857Y-99701428D01*
X129278095Y-99701428D01*
X129420952Y-99749047D01*
X129992380Y-100320476D01*
X129992380Y-99701428D01*
X129706666Y-98558571D02*
X129706666Y-98082380D01*
X129992380Y-98653809D02*
X128992380Y-98320476D01*
X129992380Y-97987142D01*
X129992380Y-97225238D02*
X128992380Y-97225238D01*
X129944761Y-97225238D02*
X129992380Y-97320476D01*
X129992380Y-97510952D01*
X129944761Y-97606190D01*
X129897142Y-97653809D01*
X129801904Y-97701428D01*
X129516190Y-97701428D01*
X129420952Y-97653809D01*
X129373333Y-97606190D01*
X129325714Y-97510952D01*
X129325714Y-97320476D01*
X129373333Y-97225238D01*
X129992380Y-96320476D02*
X128992380Y-96320476D01*
X129944761Y-96320476D02*
X129992380Y-96415714D01*
X129992380Y-96606190D01*
X129944761Y-96701428D01*
X129897142Y-96749047D01*
X129801904Y-96796666D01*
X129516190Y-96796666D01*
X129420952Y-96749047D01*
X129373333Y-96701428D01*
X129325714Y-96606190D01*
X129325714Y-96415714D01*
X129373333Y-96320476D01*
X129992380Y-95844285D02*
X129325714Y-95844285D01*
X129516190Y-95844285D02*
X129420952Y-95796666D01*
X129373333Y-95749047D01*
X129325714Y-95653809D01*
X129325714Y-95558571D01*
X129944761Y-94844285D02*
X129992380Y-94939523D01*
X129992380Y-95130000D01*
X129944761Y-95225238D01*
X129849523Y-95272857D01*
X129468571Y-95272857D01*
X129373333Y-95225238D01*
X129325714Y-95130000D01*
X129325714Y-94939523D01*
X129373333Y-94844285D01*
X129468571Y-94796666D01*
X129563809Y-94796666D01*
X129659047Y-95272857D01*
X129944761Y-94415714D02*
X129992380Y-94320476D01*
X129992380Y-94130000D01*
X129944761Y-94034761D01*
X129849523Y-93987142D01*
X129801904Y-93987142D01*
X129706666Y-94034761D01*
X129659047Y-94130000D01*
X129659047Y-94272857D01*
X129611428Y-94368095D01*
X129516190Y-94415714D01*
X129468571Y-94415714D01*
X129373333Y-94368095D01*
X129325714Y-94272857D01*
X129325714Y-94130000D01*
X129373333Y-94034761D01*
X129944761Y-93606190D02*
X129992380Y-93510952D01*
X129992380Y-93320476D01*
X129944761Y-93225238D01*
X129849523Y-93177619D01*
X129801904Y-93177619D01*
X129706666Y-93225238D01*
X129659047Y-93320476D01*
X129659047Y-93463333D01*
X129611428Y-93558571D01*
X129516190Y-93606190D01*
X129468571Y-93606190D01*
X129373333Y-93558571D01*
X129325714Y-93463333D01*
X129325714Y-93320476D01*
X129373333Y-93225238D01*
X129992380Y-91510952D02*
X129992380Y-91987142D01*
X128992380Y-91987142D01*
X129992380Y-91034761D02*
X129944761Y-91130000D01*
X129897142Y-91177619D01*
X129801904Y-91225238D01*
X129516190Y-91225238D01*
X129420952Y-91177619D01*
X129373333Y-91130000D01*
X129325714Y-91034761D01*
X129325714Y-90891904D01*
X129373333Y-90796666D01*
X129420952Y-90749047D01*
X129516190Y-90701428D01*
X129801904Y-90701428D01*
X129897142Y-90749047D01*
X129944761Y-90796666D01*
X129992380Y-90891904D01*
X129992380Y-91034761D01*
X129325714Y-89844285D02*
X130135238Y-89844285D01*
X130230476Y-89891904D01*
X130278095Y-89939523D01*
X130325714Y-90034761D01*
X130325714Y-90177619D01*
X130278095Y-90272857D01*
X129944761Y-89844285D02*
X129992380Y-89939523D01*
X129992380Y-90130000D01*
X129944761Y-90225238D01*
X129897142Y-90272857D01*
X129801904Y-90320476D01*
X129516190Y-90320476D01*
X129420952Y-90272857D01*
X129373333Y-90225238D01*
X129325714Y-90130000D01*
X129325714Y-89939523D01*
X129373333Y-89844285D01*
X129992380Y-89368095D02*
X129325714Y-89368095D01*
X128992380Y-89368095D02*
X129040000Y-89415714D01*
X129087619Y-89368095D01*
X129040000Y-89320476D01*
X128992380Y-89368095D01*
X129087619Y-89368095D01*
X129944761Y-88463333D02*
X129992380Y-88558571D01*
X129992380Y-88749047D01*
X129944761Y-88844285D01*
X129897142Y-88891904D01*
X129801904Y-88939523D01*
X129516190Y-88939523D01*
X129420952Y-88891904D01*
X129373333Y-88844285D01*
X129325714Y-88749047D01*
X129325714Y-88558571D01*
X129373333Y-88463333D01*
X129325714Y-87272857D02*
X130182857Y-87272857D01*
X130278095Y-87320476D01*
X130325714Y-87415714D01*
X130325714Y-87463333D01*
X128992380Y-87272857D02*
X129040000Y-87320476D01*
X129087619Y-87272857D01*
X129040000Y-87225238D01*
X128992380Y-87272857D01*
X129087619Y-87272857D01*
X129992380Y-86796666D02*
X128992380Y-86796666D01*
X129992380Y-86368095D02*
X129468571Y-86368095D01*
X129373333Y-86415714D01*
X129325714Y-86510952D01*
X129325714Y-86653809D01*
X129373333Y-86749047D01*
X129420952Y-86796666D01*
X129944761Y-85510952D02*
X129992380Y-85606190D01*
X129992380Y-85796666D01*
X129944761Y-85891904D01*
X129849523Y-85939523D01*
X129468571Y-85939523D01*
X129373333Y-85891904D01*
X129325714Y-85796666D01*
X129325714Y-85606190D01*
X129373333Y-85510952D01*
X129468571Y-85463333D01*
X129563809Y-85463333D01*
X129659047Y-85939523D01*
X129516190Y-84415714D02*
X129468571Y-84463333D01*
X129420952Y-84558571D01*
X129420952Y-84653809D01*
X129468571Y-84749047D01*
X129516190Y-84796666D01*
X129611428Y-84844285D01*
X129706666Y-84844285D01*
X129801904Y-84796666D01*
X129849523Y-84749047D01*
X129897142Y-84653809D01*
X129897142Y-84558571D01*
X129849523Y-84463333D01*
X129801904Y-84415714D01*
X129420952Y-84415714D02*
X129801904Y-84415714D01*
X129849523Y-84368095D01*
X129849523Y-84320476D01*
X129801904Y-84225238D01*
X129706666Y-84177619D01*
X129468571Y-84177619D01*
X129325714Y-84272857D01*
X129230476Y-84415714D01*
X129182857Y-84606190D01*
X129230476Y-84796666D01*
X129325714Y-84939523D01*
X129468571Y-85034761D01*
X129659047Y-85082380D01*
X129849523Y-85034761D01*
X129992380Y-84939523D01*
X130087619Y-84796666D01*
X130135238Y-84606190D01*
X130087619Y-84415714D01*
X129992380Y-84272857D01*
X129325714Y-83749047D02*
X130182857Y-83749047D01*
X130278095Y-83796666D01*
X130325714Y-83891904D01*
X130325714Y-83939523D01*
X128992380Y-83749047D02*
X129040000Y-83796666D01*
X129087619Y-83749047D01*
X129040000Y-83701428D01*
X128992380Y-83749047D01*
X129087619Y-83749047D01*
X129944761Y-82891904D02*
X129992380Y-82987142D01*
X129992380Y-83177619D01*
X129944761Y-83272857D01*
X129849523Y-83320476D01*
X129468571Y-83320476D01*
X129373333Y-83272857D01*
X129325714Y-83177619D01*
X129325714Y-82987142D01*
X129373333Y-82891904D01*
X129468571Y-82844285D01*
X129563809Y-82844285D01*
X129659047Y-83320476D01*
X129992380Y-82415714D02*
X129325714Y-82415714D01*
X129516190Y-82415714D02*
X129420952Y-82368095D01*
X129373333Y-82320476D01*
X129325714Y-82225238D01*
X129325714Y-82130000D01*
X129944761Y-81415714D02*
X129992380Y-81510952D01*
X129992380Y-81701428D01*
X129944761Y-81796666D01*
X129849523Y-81844285D01*
X129468571Y-81844285D01*
X129373333Y-81796666D01*
X129325714Y-81701428D01*
X129325714Y-81510952D01*
X129373333Y-81415714D01*
X129468571Y-81368095D01*
X129563809Y-81368095D01*
X129659047Y-81844285D01*
X129992380Y-80939523D02*
X129325714Y-80939523D01*
X129420952Y-80939523D02*
X129373333Y-80891904D01*
X129325714Y-80796666D01*
X129325714Y-80653809D01*
X129373333Y-80558571D01*
X129468571Y-80510952D01*
X129992380Y-80510952D01*
X129468571Y-80510952D02*
X129373333Y-80463333D01*
X129325714Y-80368095D01*
X129325714Y-80225238D01*
X129373333Y-80130000D01*
X129468571Y-80082380D01*
X129992380Y-80082380D01*
X129325714Y-79701428D02*
X129992380Y-79463333D01*
X129325714Y-79225238D02*
X129992380Y-79463333D01*
X130230476Y-79558571D01*
X130278095Y-79606190D01*
X130325714Y-79701428D01*
X129944761Y-78463333D02*
X129992380Y-78558571D01*
X129992380Y-78749047D01*
X129944761Y-78844285D01*
X129849523Y-78891904D01*
X129468571Y-78891904D01*
X129373333Y-78844285D01*
X129325714Y-78749047D01*
X129325714Y-78558571D01*
X129373333Y-78463333D01*
X129468571Y-78415714D01*
X129563809Y-78415714D01*
X129659047Y-78891904D01*
X129325714Y-77987142D02*
X129992380Y-77987142D01*
X129420952Y-77987142D02*
X129373333Y-77939523D01*
X129325714Y-77844285D01*
X129325714Y-77701428D01*
X129373333Y-77606190D01*
X129468571Y-77558571D01*
X129992380Y-77558571D01*
X129325714Y-76653809D02*
X130135238Y-76653809D01*
X130230476Y-76701428D01*
X130278095Y-76749047D01*
X130325714Y-76844285D01*
X130325714Y-76987142D01*
X130278095Y-77082380D01*
X129944761Y-76653809D02*
X129992380Y-76749047D01*
X129992380Y-76939523D01*
X129944761Y-77034761D01*
X129897142Y-77082380D01*
X129801904Y-77130000D01*
X129516190Y-77130000D01*
X129420952Y-77082380D01*
X129373333Y-77034761D01*
X129325714Y-76939523D01*
X129325714Y-76749047D01*
X129373333Y-76653809D01*
X129992380Y-76034761D02*
X129944761Y-76130000D01*
X129849523Y-76177619D01*
X128992380Y-76177619D01*
X129992380Y-75653809D02*
X129325714Y-75653809D01*
X128992380Y-75653809D02*
X129040000Y-75701428D01*
X129087619Y-75653809D01*
X129040000Y-75606190D01*
X128992380Y-75653809D01*
X129087619Y-75653809D01*
X129944761Y-75225238D02*
X129992380Y-75130000D01*
X129992380Y-74939523D01*
X129944761Y-74844285D01*
X129849523Y-74796666D01*
X129801904Y-74796666D01*
X129706666Y-74844285D01*
X129659047Y-74939523D01*
X129659047Y-75082380D01*
X129611428Y-75177619D01*
X129516190Y-75225238D01*
X129468571Y-75225238D01*
X129373333Y-75177619D01*
X129325714Y-75082380D01*
X129325714Y-74939523D01*
X129373333Y-74844285D01*
X129992380Y-74368095D02*
X128992380Y-74368095D01*
X129992380Y-73939523D02*
X129468571Y-73939523D01*
X129373333Y-73987142D01*
X129325714Y-74082380D01*
X129325714Y-74225238D01*
X129373333Y-74320476D01*
X129420952Y-74368095D01*
X129897142Y-73463333D02*
X129944761Y-73415714D01*
X129992380Y-73463333D01*
X129944761Y-73510952D01*
X129897142Y-73463333D01*
X129992380Y-73463333D01*
X129992380Y-72844285D02*
X129944761Y-72939523D01*
X129897142Y-72987142D01*
X129801904Y-73034761D01*
X129516190Y-73034761D01*
X129420952Y-72987142D01*
X129373333Y-72939523D01*
X129325714Y-72844285D01*
X129325714Y-72701428D01*
X129373333Y-72606190D01*
X129420952Y-72558571D01*
X129516190Y-72510952D01*
X129801904Y-72510952D01*
X129897142Y-72558571D01*
X129944761Y-72606190D01*
X129992380Y-72701428D01*
X129992380Y-72844285D01*
X129992380Y-72082380D02*
X129325714Y-72082380D01*
X129516190Y-72082380D02*
X129420952Y-72034761D01*
X129373333Y-71987142D01*
X129325714Y-71891904D01*
X129325714Y-71796666D01*
X129325714Y-71034761D02*
X130135238Y-71034761D01*
X130230476Y-71082380D01*
X130278095Y-71130000D01*
X130325714Y-71225238D01*
X130325714Y-71368095D01*
X130278095Y-71463333D01*
X129944761Y-71034761D02*
X129992380Y-71130000D01*
X129992380Y-71320476D01*
X129944761Y-71415714D01*
X129897142Y-71463333D01*
X129801904Y-71510952D01*
X129516190Y-71510952D01*
X129420952Y-71463333D01*
X129373333Y-71415714D01*
X129325714Y-71320476D01*
X129325714Y-71130000D01*
X129373333Y-71034761D01*
X178522380Y-96622857D02*
X178522380Y-95956190D01*
X179522380Y-96384761D01*
X178522380Y-95670476D02*
X178522380Y-95051428D01*
X178903333Y-95384761D01*
X178903333Y-95241904D01*
X178950952Y-95146666D01*
X178998571Y-95099047D01*
X179093809Y-95051428D01*
X179331904Y-95051428D01*
X179427142Y-95099047D01*
X179474761Y-95146666D01*
X179522380Y-95241904D01*
X179522380Y-95527619D01*
X179474761Y-95622857D01*
X179427142Y-95670476D01*
X179522380Y-94146666D02*
X179522380Y-94622857D01*
X178522380Y-94622857D01*
X179474761Y-93860952D02*
X179522380Y-93718095D01*
X179522380Y-93480000D01*
X179474761Y-93384761D01*
X179427142Y-93337142D01*
X179331904Y-93289523D01*
X179236666Y-93289523D01*
X179141428Y-93337142D01*
X179093809Y-93384761D01*
X179046190Y-93480000D01*
X178998571Y-93670476D01*
X178950952Y-93765714D01*
X178903333Y-93813333D01*
X178808095Y-93860952D01*
X178712857Y-93860952D01*
X178617619Y-93813333D01*
X178570000Y-93765714D01*
X178522380Y-93670476D01*
X178522380Y-93432380D01*
X178570000Y-93289523D01*
X178522380Y-92670476D02*
X178522380Y-92575238D01*
X178570000Y-92480000D01*
X178617619Y-92432380D01*
X178712857Y-92384761D01*
X178903333Y-92337142D01*
X179141428Y-92337142D01*
X179331904Y-92384761D01*
X179427142Y-92432380D01*
X179474761Y-92480000D01*
X179522380Y-92575238D01*
X179522380Y-92670476D01*
X179474761Y-92765714D01*
X179427142Y-92813333D01*
X179331904Y-92860952D01*
X179141428Y-92908571D01*
X178903333Y-92908571D01*
X178712857Y-92860952D01*
X178617619Y-92813333D01*
X178570000Y-92765714D01*
X178522380Y-92670476D01*
X178950952Y-91765714D02*
X178903333Y-91860952D01*
X178855714Y-91908571D01*
X178760476Y-91956190D01*
X178712857Y-91956190D01*
X178617619Y-91908571D01*
X178570000Y-91860952D01*
X178522380Y-91765714D01*
X178522380Y-91575238D01*
X178570000Y-91480000D01*
X178617619Y-91432380D01*
X178712857Y-91384761D01*
X178760476Y-91384761D01*
X178855714Y-91432380D01*
X178903333Y-91480000D01*
X178950952Y-91575238D01*
X178950952Y-91765714D01*
X178998571Y-91860952D01*
X179046190Y-91908571D01*
X179141428Y-91956190D01*
X179331904Y-91956190D01*
X179427142Y-91908571D01*
X179474761Y-91860952D01*
X179522380Y-91765714D01*
X179522380Y-91575238D01*
X179474761Y-91480000D01*
X179427142Y-91432380D01*
X179331904Y-91384761D01*
X179141428Y-91384761D01*
X179046190Y-91432380D01*
X178998571Y-91480000D01*
X178950952Y-91575238D01*
X163282380Y-96622857D02*
X163282380Y-95956190D01*
X164282380Y-96384761D01*
X163615714Y-95146666D02*
X164282380Y-95146666D01*
X163234761Y-95384761D02*
X163949047Y-95622857D01*
X163949047Y-95003809D01*
X164282380Y-94146666D02*
X164282380Y-94622857D01*
X163282380Y-94622857D01*
X164234761Y-93860952D02*
X164282380Y-93718095D01*
X164282380Y-93480000D01*
X164234761Y-93384761D01*
X164187142Y-93337142D01*
X164091904Y-93289523D01*
X163996666Y-93289523D01*
X163901428Y-93337142D01*
X163853809Y-93384761D01*
X163806190Y-93480000D01*
X163758571Y-93670476D01*
X163710952Y-93765714D01*
X163663333Y-93813333D01*
X163568095Y-93860952D01*
X163472857Y-93860952D01*
X163377619Y-93813333D01*
X163330000Y-93765714D01*
X163282380Y-93670476D01*
X163282380Y-93432380D01*
X163330000Y-93289523D01*
X164282380Y-92337142D02*
X164282380Y-92908571D01*
X164282380Y-92622857D02*
X163282380Y-92622857D01*
X163425238Y-92718095D01*
X163520476Y-92813333D01*
X163568095Y-92908571D01*
X163615714Y-91480000D02*
X164282380Y-91480000D01*
X163234761Y-91718095D02*
X163949047Y-91956190D01*
X163949047Y-91337142D01*
X148042380Y-96622857D02*
X148042380Y-95956190D01*
X149042380Y-96384761D01*
X148375714Y-95146666D02*
X149042380Y-95146666D01*
X147994761Y-95384761D02*
X148709047Y-95622857D01*
X148709047Y-95003809D01*
X149042380Y-94146666D02*
X149042380Y-94622857D01*
X148042380Y-94622857D01*
X148994761Y-93860952D02*
X149042380Y-93718095D01*
X149042380Y-93480000D01*
X148994761Y-93384761D01*
X148947142Y-93337142D01*
X148851904Y-93289523D01*
X148756666Y-93289523D01*
X148661428Y-93337142D01*
X148613809Y-93384761D01*
X148566190Y-93480000D01*
X148518571Y-93670476D01*
X148470952Y-93765714D01*
X148423333Y-93813333D01*
X148328095Y-93860952D01*
X148232857Y-93860952D01*
X148137619Y-93813333D01*
X148090000Y-93765714D01*
X148042380Y-93670476D01*
X148042380Y-93432380D01*
X148090000Y-93289523D01*
X148137619Y-92908571D02*
X148090000Y-92860952D01*
X148042380Y-92765714D01*
X148042380Y-92527619D01*
X148090000Y-92432380D01*
X148137619Y-92384761D01*
X148232857Y-92337142D01*
X148328095Y-92337142D01*
X148470952Y-92384761D01*
X149042380Y-92956190D01*
X149042380Y-92337142D01*
X149042380Y-91384761D02*
X149042380Y-91956190D01*
X149042380Y-91670476D02*
X148042380Y-91670476D01*
X148185238Y-91765714D01*
X148280476Y-91860952D01*
X148328095Y-91956190D01*
X132802380Y-96622857D02*
X132802380Y-95956190D01*
X133802380Y-96384761D01*
X133135714Y-95146666D02*
X133802380Y-95146666D01*
X132754761Y-95384761D02*
X133469047Y-95622857D01*
X133469047Y-95003809D01*
X133802380Y-94146666D02*
X133802380Y-94622857D01*
X132802380Y-94622857D01*
X133754761Y-93860952D02*
X133802380Y-93718095D01*
X133802380Y-93480000D01*
X133754761Y-93384761D01*
X133707142Y-93337142D01*
X133611904Y-93289523D01*
X133516666Y-93289523D01*
X133421428Y-93337142D01*
X133373809Y-93384761D01*
X133326190Y-93480000D01*
X133278571Y-93670476D01*
X133230952Y-93765714D01*
X133183333Y-93813333D01*
X133088095Y-93860952D01*
X132992857Y-93860952D01*
X132897619Y-93813333D01*
X132850000Y-93765714D01*
X132802380Y-93670476D01*
X132802380Y-93432380D01*
X132850000Y-93289523D01*
X132802380Y-92670476D02*
X132802380Y-92575238D01*
X132850000Y-92480000D01*
X132897619Y-92432380D01*
X132992857Y-92384761D01*
X133183333Y-92337142D01*
X133421428Y-92337142D01*
X133611904Y-92384761D01*
X133707142Y-92432380D01*
X133754761Y-92480000D01*
X133802380Y-92575238D01*
X133802380Y-92670476D01*
X133754761Y-92765714D01*
X133707142Y-92813333D01*
X133611904Y-92860952D01*
X133421428Y-92908571D01*
X133183333Y-92908571D01*
X132992857Y-92860952D01*
X132897619Y-92813333D01*
X132850000Y-92765714D01*
X132802380Y-92670476D01*
X132802380Y-91718095D02*
X132802380Y-91622857D01*
X132850000Y-91527619D01*
X132897619Y-91480000D01*
X132992857Y-91432380D01*
X133183333Y-91384761D01*
X133421428Y-91384761D01*
X133611904Y-91432380D01*
X133707142Y-91480000D01*
X133754761Y-91527619D01*
X133802380Y-91622857D01*
X133802380Y-91718095D01*
X133754761Y-91813333D01*
X133707142Y-91860952D01*
X133611904Y-91908571D01*
X133421428Y-91956190D01*
X133183333Y-91956190D01*
X132992857Y-91908571D01*
X132897619Y-91860952D01*
X132850000Y-91813333D01*
X132802380Y-91718095D01*
X178522380Y-71222857D02*
X178522380Y-70556190D01*
X179522380Y-70984761D01*
X178855714Y-69746666D02*
X179522380Y-69746666D01*
X178474761Y-69984761D02*
X179189047Y-70222857D01*
X179189047Y-69603809D01*
X179522380Y-68746666D02*
X179522380Y-69222857D01*
X178522380Y-69222857D01*
X179474761Y-68460952D02*
X179522380Y-68318095D01*
X179522380Y-68080000D01*
X179474761Y-67984761D01*
X179427142Y-67937142D01*
X179331904Y-67889523D01*
X179236666Y-67889523D01*
X179141428Y-67937142D01*
X179093809Y-67984761D01*
X179046190Y-68080000D01*
X178998571Y-68270476D01*
X178950952Y-68365714D01*
X178903333Y-68413333D01*
X178808095Y-68460952D01*
X178712857Y-68460952D01*
X178617619Y-68413333D01*
X178570000Y-68365714D01*
X178522380Y-68270476D01*
X178522380Y-68032380D01*
X178570000Y-67889523D01*
X179522380Y-66937142D02*
X179522380Y-67508571D01*
X179522380Y-67222857D02*
X178522380Y-67222857D01*
X178665238Y-67318095D01*
X178760476Y-67413333D01*
X178808095Y-67508571D01*
X178855714Y-66080000D02*
X179522380Y-66080000D01*
X178474761Y-66318095D02*
X179189047Y-66556190D01*
X179189047Y-65937142D01*
X163282380Y-71222857D02*
X163282380Y-70556190D01*
X164282380Y-70984761D01*
X163615714Y-69746666D02*
X164282380Y-69746666D01*
X163234761Y-69984761D02*
X163949047Y-70222857D01*
X163949047Y-69603809D01*
X164282380Y-68746666D02*
X164282380Y-69222857D01*
X163282380Y-69222857D01*
X164234761Y-68460952D02*
X164282380Y-68318095D01*
X164282380Y-68080000D01*
X164234761Y-67984761D01*
X164187142Y-67937142D01*
X164091904Y-67889523D01*
X163996666Y-67889523D01*
X163901428Y-67937142D01*
X163853809Y-67984761D01*
X163806190Y-68080000D01*
X163758571Y-68270476D01*
X163710952Y-68365714D01*
X163663333Y-68413333D01*
X163568095Y-68460952D01*
X163472857Y-68460952D01*
X163377619Y-68413333D01*
X163330000Y-68365714D01*
X163282380Y-68270476D01*
X163282380Y-68032380D01*
X163330000Y-67889523D01*
X163282380Y-67556190D02*
X163282380Y-66937142D01*
X163663333Y-67270476D01*
X163663333Y-67127619D01*
X163710952Y-67032380D01*
X163758571Y-66984761D01*
X163853809Y-66937142D01*
X164091904Y-66937142D01*
X164187142Y-66984761D01*
X164234761Y-67032380D01*
X164282380Y-67127619D01*
X164282380Y-67413333D01*
X164234761Y-67508571D01*
X164187142Y-67556190D01*
X163377619Y-66556190D02*
X163330000Y-66508571D01*
X163282380Y-66413333D01*
X163282380Y-66175238D01*
X163330000Y-66080000D01*
X163377619Y-66032380D01*
X163472857Y-65984761D01*
X163568095Y-65984761D01*
X163710952Y-66032380D01*
X164282380Y-66603809D01*
X164282380Y-65984761D01*
X148042380Y-71222857D02*
X148042380Y-70556190D01*
X149042380Y-70984761D01*
X148375714Y-69746666D02*
X149042380Y-69746666D01*
X147994761Y-69984761D02*
X148709047Y-70222857D01*
X148709047Y-69603809D01*
X149042380Y-68746666D02*
X149042380Y-69222857D01*
X148042380Y-69222857D01*
X148994761Y-68460952D02*
X149042380Y-68318095D01*
X149042380Y-68080000D01*
X148994761Y-67984761D01*
X148947142Y-67937142D01*
X148851904Y-67889523D01*
X148756666Y-67889523D01*
X148661428Y-67937142D01*
X148613809Y-67984761D01*
X148566190Y-68080000D01*
X148518571Y-68270476D01*
X148470952Y-68365714D01*
X148423333Y-68413333D01*
X148328095Y-68460952D01*
X148232857Y-68460952D01*
X148137619Y-68413333D01*
X148090000Y-68365714D01*
X148042380Y-68270476D01*
X148042380Y-68032380D01*
X148090000Y-67889523D01*
X148042380Y-67270476D02*
X148042380Y-67175238D01*
X148090000Y-67080000D01*
X148137619Y-67032380D01*
X148232857Y-66984761D01*
X148423333Y-66937142D01*
X148661428Y-66937142D01*
X148851904Y-66984761D01*
X148947142Y-67032380D01*
X148994761Y-67080000D01*
X149042380Y-67175238D01*
X149042380Y-67270476D01*
X148994761Y-67365714D01*
X148947142Y-67413333D01*
X148851904Y-67460952D01*
X148661428Y-67508571D01*
X148423333Y-67508571D01*
X148232857Y-67460952D01*
X148137619Y-67413333D01*
X148090000Y-67365714D01*
X148042380Y-67270476D01*
X148470952Y-66365714D02*
X148423333Y-66460952D01*
X148375714Y-66508571D01*
X148280476Y-66556190D01*
X148232857Y-66556190D01*
X148137619Y-66508571D01*
X148090000Y-66460952D01*
X148042380Y-66365714D01*
X148042380Y-66175238D01*
X148090000Y-66080000D01*
X148137619Y-66032380D01*
X148232857Y-65984761D01*
X148280476Y-65984761D01*
X148375714Y-66032380D01*
X148423333Y-66080000D01*
X148470952Y-66175238D01*
X148470952Y-66365714D01*
X148518571Y-66460952D01*
X148566190Y-66508571D01*
X148661428Y-66556190D01*
X148851904Y-66556190D01*
X148947142Y-66508571D01*
X148994761Y-66460952D01*
X149042380Y-66365714D01*
X149042380Y-66175238D01*
X148994761Y-66080000D01*
X148947142Y-66032380D01*
X148851904Y-65984761D01*
X148661428Y-65984761D01*
X148566190Y-66032380D01*
X148518571Y-66080000D01*
X148470952Y-66175238D01*
X132802380Y-71222857D02*
X132802380Y-70556190D01*
X133802380Y-70984761D01*
X133135714Y-69746666D02*
X133802380Y-69746666D01*
X132754761Y-69984761D02*
X133469047Y-70222857D01*
X133469047Y-69603809D01*
X133802380Y-68746666D02*
X133802380Y-69222857D01*
X132802380Y-69222857D01*
X133754761Y-68460952D02*
X133802380Y-68318095D01*
X133802380Y-68080000D01*
X133754761Y-67984761D01*
X133707142Y-67937142D01*
X133611904Y-67889523D01*
X133516666Y-67889523D01*
X133421428Y-67937142D01*
X133373809Y-67984761D01*
X133326190Y-68080000D01*
X133278571Y-68270476D01*
X133230952Y-68365714D01*
X133183333Y-68413333D01*
X133088095Y-68460952D01*
X132992857Y-68460952D01*
X132897619Y-68413333D01*
X132850000Y-68365714D01*
X132802380Y-68270476D01*
X132802380Y-68032380D01*
X132850000Y-67889523D01*
X132897619Y-67508571D02*
X132850000Y-67460952D01*
X132802380Y-67365714D01*
X132802380Y-67127619D01*
X132850000Y-67032380D01*
X132897619Y-66984761D01*
X132992857Y-66937142D01*
X133088095Y-66937142D01*
X133230952Y-66984761D01*
X133802380Y-67556190D01*
X133802380Y-66937142D01*
X133802380Y-65984761D02*
X133802380Y-66556190D01*
X133802380Y-66270476D02*
X132802380Y-66270476D01*
X132945238Y-66365714D01*
X133040476Y-66460952D01*
X133088095Y-66556190D01*
D11*
X137660000Y-53190000D02*
X141700000Y-53190000D01*
X137660000Y-56030000D02*
X141700000Y-56030000D01*
X137660000Y-53190000D02*
X137660000Y-53815000D01*
X137660000Y-55405000D02*
X137660000Y-56030000D01*
X141700000Y-53190000D02*
X141700000Y-53815000D01*
X141700000Y-55405000D02*
X141700000Y-56030000D01*
X152900000Y-53190000D02*
X156940000Y-53190000D01*
X152900000Y-56030000D02*
X156940000Y-56030000D01*
X152900000Y-53190000D02*
X152900000Y-53815000D01*
X152900000Y-55405000D02*
X152900000Y-56030000D01*
X156940000Y-53190000D02*
X156940000Y-53815000D01*
X156940000Y-55405000D02*
X156940000Y-56030000D01*
X168140000Y-53190000D02*
X172180000Y-53190000D01*
X168140000Y-56030000D02*
X172180000Y-56030000D01*
X168140000Y-53190000D02*
X168140000Y-53815000D01*
X168140000Y-55405000D02*
X168140000Y-56030000D01*
X172180000Y-53190000D02*
X172180000Y-53815000D01*
X172180000Y-55405000D02*
X172180000Y-56030000D01*
X187420000Y-55405000D02*
X187420000Y-56030000D01*
X187420000Y-53190000D02*
X187420000Y-53815000D01*
X183380000Y-55405000D02*
X183380000Y-56030000D01*
X183380000Y-53190000D02*
X183380000Y-53815000D01*
X183380000Y-56030000D02*
X187420000Y-56030000D01*
X183380000Y-53190000D02*
X187420000Y-53190000D01*
X137660000Y-79860000D02*
X141700000Y-79860000D01*
X137660000Y-82700000D02*
X141700000Y-82700000D01*
X137660000Y-79860000D02*
X137660000Y-80485000D01*
X137660000Y-82075000D02*
X137660000Y-82700000D01*
X141700000Y-79860000D02*
X141700000Y-80485000D01*
X141700000Y-82075000D02*
X141700000Y-82700000D01*
X156940000Y-82075000D02*
X156940000Y-82700000D01*
X156940000Y-79860000D02*
X156940000Y-80485000D01*
X152900000Y-82075000D02*
X152900000Y-82700000D01*
X152900000Y-79860000D02*
X152900000Y-80485000D01*
X152900000Y-82700000D02*
X156940000Y-82700000D01*
X152900000Y-79860000D02*
X156940000Y-79860000D01*
X172180000Y-82075000D02*
X172180000Y-82700000D01*
X172180000Y-79860000D02*
X172180000Y-80485000D01*
X168140000Y-82075000D02*
X168140000Y-82700000D01*
X168140000Y-79860000D02*
X168140000Y-80485000D01*
X168140000Y-82700000D02*
X172180000Y-82700000D01*
X168140000Y-79860000D02*
X172180000Y-79860000D01*
X187420000Y-82075000D02*
X187420000Y-82700000D01*
X187420000Y-79860000D02*
X187420000Y-80485000D01*
X183380000Y-82075000D02*
X183380000Y-82700000D01*
X183380000Y-79860000D02*
X183380000Y-80485000D01*
X183380000Y-82700000D02*
X187420000Y-82700000D01*
X183380000Y-79860000D02*
X187420000Y-79860000D01*
X203200000Y-52070000D02*
X204470000Y-52070000D01*
X203200000Y-53340000D02*
X203200000Y-52070000D01*
X205512929Y-101980000D02*
X205967071Y-101980000D01*
X205512929Y-101220000D02*
X205967071Y-101220000D01*
X208052929Y-101980000D02*
X208450000Y-101980000D01*
X208052929Y-101220000D02*
X208450000Y-101220000D01*
X217110000Y-101980000D02*
X211110000Y-101980000D01*
X217110000Y-101220000D02*
X217110000Y-101980000D01*
X211110000Y-101220000D02*
X217110000Y-101220000D01*
X208450000Y-100330000D02*
X211110000Y-100330000D01*
X205512929Y-99440000D02*
X205967071Y-99440000D01*
X205512929Y-98680000D02*
X205967071Y-98680000D01*
X208052929Y-99440000D02*
X208450000Y-99440000D01*
X208052929Y-98680000D02*
X208450000Y-98680000D01*
X217110000Y-99440000D02*
X211110000Y-99440000D01*
X217110000Y-98680000D02*
X217110000Y-99440000D01*
X211110000Y-98680000D02*
X217110000Y-98680000D01*
X208450000Y-97790000D02*
X211110000Y-97790000D01*
X205512929Y-96900000D02*
X205967071Y-96900000D01*
X205512929Y-96140000D02*
X205967071Y-96140000D01*
X208052929Y-96900000D02*
X208450000Y-96900000D01*
X208052929Y-96140000D02*
X208450000Y-96140000D01*
X217110000Y-96900000D02*
X211110000Y-96900000D01*
X217110000Y-96140000D02*
X217110000Y-96900000D01*
X211110000Y-96140000D02*
X217110000Y-96140000D01*
X208450000Y-95250000D02*
X211110000Y-95250000D01*
X205512929Y-94360000D02*
X205967071Y-94360000D01*
X205512929Y-93600000D02*
X205967071Y-93600000D01*
X208052929Y-94360000D02*
X208450000Y-94360000D01*
X208052929Y-93600000D02*
X208450000Y-93600000D01*
X217110000Y-94360000D02*
X211110000Y-94360000D01*
X217110000Y-93600000D02*
X217110000Y-94360000D01*
X211110000Y-93600000D02*
X217110000Y-93600000D01*
X208450000Y-92710000D02*
X211110000Y-92710000D01*
X205512929Y-91820000D02*
X205967071Y-91820000D01*
X205512929Y-91060000D02*
X205967071Y-91060000D01*
X208052929Y-91820000D02*
X208450000Y-91820000D01*
X208052929Y-91060000D02*
X208450000Y-91060000D01*
X217110000Y-91820000D02*
X211110000Y-91820000D01*
X217110000Y-91060000D02*
X217110000Y-91820000D01*
X211110000Y-91060000D02*
X217110000Y-91060000D01*
X208450000Y-90170000D02*
X211110000Y-90170000D01*
X205512929Y-89280000D02*
X205967071Y-89280000D01*
X205512929Y-88520000D02*
X205967071Y-88520000D01*
X208052929Y-89280000D02*
X208450000Y-89280000D01*
X208052929Y-88520000D02*
X208450000Y-88520000D01*
X217110000Y-89280000D02*
X211110000Y-89280000D01*
X217110000Y-88520000D02*
X217110000Y-89280000D01*
X211110000Y-88520000D02*
X217110000Y-88520000D01*
X208450000Y-87630000D02*
X211110000Y-87630000D01*
X205512929Y-86740000D02*
X205967071Y-86740000D01*
X205512929Y-85980000D02*
X205967071Y-85980000D01*
X208052929Y-86740000D02*
X208450000Y-86740000D01*
X208052929Y-85980000D02*
X208450000Y-85980000D01*
X217110000Y-86740000D02*
X211110000Y-86740000D01*
X217110000Y-85980000D02*
X217110000Y-86740000D01*
X211110000Y-85980000D02*
X217110000Y-85980000D01*
X208450000Y-85090000D02*
X211110000Y-85090000D01*
X205512929Y-84200000D02*
X205967071Y-84200000D01*
X205512929Y-83440000D02*
X205967071Y-83440000D01*
X208052929Y-84200000D02*
X208450000Y-84200000D01*
X208052929Y-83440000D02*
X208450000Y-83440000D01*
X217110000Y-84200000D02*
X211110000Y-84200000D01*
X217110000Y-83440000D02*
X217110000Y-84200000D01*
X211110000Y-83440000D02*
X217110000Y-83440000D01*
X208450000Y-82550000D02*
X211110000Y-82550000D01*
X205512929Y-81660000D02*
X205967071Y-81660000D01*
X205512929Y-80900000D02*
X205967071Y-80900000D01*
X208052929Y-81660000D02*
X208450000Y-81660000D01*
X208052929Y-80900000D02*
X208450000Y-80900000D01*
X217110000Y-81660000D02*
X211110000Y-81660000D01*
X217110000Y-80900000D02*
X217110000Y-81660000D01*
X211110000Y-80900000D02*
X217110000Y-80900000D01*
X208450000Y-80010000D02*
X211110000Y-80010000D01*
X205512929Y-79120000D02*
X205967071Y-79120000D01*
X205512929Y-78360000D02*
X205967071Y-78360000D01*
X208052929Y-79120000D02*
X208450000Y-79120000D01*
X208052929Y-78360000D02*
X208450000Y-78360000D01*
X217110000Y-79120000D02*
X211110000Y-79120000D01*
X217110000Y-78360000D02*
X217110000Y-79120000D01*
X211110000Y-78360000D02*
X217110000Y-78360000D01*
X208450000Y-77470000D02*
X211110000Y-77470000D01*
X205512929Y-76580000D02*
X205967071Y-76580000D01*
X205512929Y-75820000D02*
X205967071Y-75820000D01*
X208052929Y-76580000D02*
X208450000Y-76580000D01*
X208052929Y-75820000D02*
X208450000Y-75820000D01*
X217110000Y-76580000D02*
X211110000Y-76580000D01*
X217110000Y-75820000D02*
X217110000Y-76580000D01*
X211110000Y-75820000D02*
X217110000Y-75820000D01*
X208450000Y-74930000D02*
X211110000Y-74930000D01*
X205512929Y-74040000D02*
X205967071Y-74040000D01*
X205512929Y-73280000D02*
X205967071Y-73280000D01*
X208052929Y-74040000D02*
X208450000Y-74040000D01*
X208052929Y-73280000D02*
X208450000Y-73280000D01*
X217110000Y-74040000D02*
X211110000Y-74040000D01*
X217110000Y-73280000D02*
X217110000Y-74040000D01*
X211110000Y-73280000D02*
X217110000Y-73280000D01*
X208450000Y-72390000D02*
X211110000Y-72390000D01*
X205512929Y-71500000D02*
X205967071Y-71500000D01*
X205512929Y-70740000D02*
X205967071Y-70740000D01*
X208052929Y-71500000D02*
X208450000Y-71500000D01*
X208052929Y-70740000D02*
X208450000Y-70740000D01*
X217110000Y-71500000D02*
X211110000Y-71500000D01*
X217110000Y-70740000D02*
X217110000Y-71500000D01*
X211110000Y-70740000D02*
X217110000Y-70740000D01*
X208450000Y-69850000D02*
X211110000Y-69850000D01*
X205512929Y-68960000D02*
X205967071Y-68960000D01*
X205512929Y-68200000D02*
X205967071Y-68200000D01*
X208052929Y-68960000D02*
X208450000Y-68960000D01*
X208052929Y-68200000D02*
X208450000Y-68200000D01*
X217110000Y-68960000D02*
X211110000Y-68960000D01*
X217110000Y-68200000D02*
X217110000Y-68960000D01*
X211110000Y-68200000D02*
X217110000Y-68200000D01*
X208450000Y-67310000D02*
X211110000Y-67310000D01*
X205512929Y-66420000D02*
X205967071Y-66420000D01*
X205512929Y-65660000D02*
X205967071Y-65660000D01*
X208052929Y-66420000D02*
X208450000Y-66420000D01*
X208052929Y-65660000D02*
X208450000Y-65660000D01*
X217110000Y-66420000D02*
X211110000Y-66420000D01*
X217110000Y-65660000D02*
X217110000Y-66420000D01*
X211110000Y-65660000D02*
X217110000Y-65660000D01*
X208450000Y-64770000D02*
X211110000Y-64770000D01*
X205512929Y-63880000D02*
X205967071Y-63880000D01*
X205512929Y-63120000D02*
X205967071Y-63120000D01*
X208052929Y-63880000D02*
X208450000Y-63880000D01*
X208052929Y-63120000D02*
X208450000Y-63120000D01*
X217110000Y-63880000D02*
X211110000Y-63880000D01*
X217110000Y-63120000D02*
X217110000Y-63880000D01*
X211110000Y-63120000D02*
X217110000Y-63120000D01*
X208450000Y-62230000D02*
X211110000Y-62230000D01*
X205512929Y-61340000D02*
X205967071Y-61340000D01*
X205512929Y-60580000D02*
X205967071Y-60580000D01*
X208052929Y-61340000D02*
X208450000Y-61340000D01*
X208052929Y-60580000D02*
X208450000Y-60580000D01*
X217110000Y-61340000D02*
X211110000Y-61340000D01*
X217110000Y-60580000D02*
X217110000Y-61340000D01*
X211110000Y-60580000D02*
X217110000Y-60580000D01*
X208450000Y-59690000D02*
X211110000Y-59690000D01*
X205512929Y-58800000D02*
X205967071Y-58800000D01*
X205512929Y-58040000D02*
X205967071Y-58040000D01*
X208052929Y-58800000D02*
X208450000Y-58800000D01*
X208052929Y-58040000D02*
X208450000Y-58040000D01*
X217110000Y-58800000D02*
X211110000Y-58800000D01*
X217110000Y-58040000D02*
X217110000Y-58800000D01*
X211110000Y-58040000D02*
X217110000Y-58040000D01*
X208450000Y-57150000D02*
X211110000Y-57150000D01*
X205512929Y-56260000D02*
X205967071Y-56260000D01*
X205512929Y-55500000D02*
X205967071Y-55500000D01*
X208052929Y-56260000D02*
X208450000Y-56260000D01*
X208052929Y-55500000D02*
X208450000Y-55500000D01*
X217110000Y-56260000D02*
X211110000Y-56260000D01*
X217110000Y-55500000D02*
X217110000Y-56260000D01*
X211110000Y-55500000D02*
X217110000Y-55500000D01*
X208450000Y-54610000D02*
X211110000Y-54610000D01*
X205580000Y-53720000D02*
X205967071Y-53720000D01*
X205580000Y-52960000D02*
X205967071Y-52960000D01*
X208052929Y-53720000D02*
X208450000Y-53720000D01*
X208052929Y-52960000D02*
X208450000Y-52960000D01*
X211110000Y-53620000D02*
X217110000Y-53620000D01*
X211110000Y-53500000D02*
X217110000Y-53500000D01*
X211110000Y-53380000D02*
X217110000Y-53380000D01*
X211110000Y-53260000D02*
X217110000Y-53260000D01*
X211110000Y-53140000D02*
X217110000Y-53140000D01*
X211110000Y-53020000D02*
X217110000Y-53020000D01*
X217110000Y-53720000D02*
X211110000Y-53720000D01*
X217110000Y-52960000D02*
X217110000Y-53720000D01*
X211110000Y-52960000D02*
X217110000Y-52960000D01*
X211110000Y-52010000D02*
X208450000Y-52010000D01*
X211110000Y-102930000D02*
X211110000Y-52010000D01*
X208450000Y-102930000D02*
X211110000Y-102930000D01*
X208450000Y-52010000D02*
X208450000Y-102930000D01*
X144840000Y-59570000D02*
X134560000Y-59570000D01*
X144840000Y-77590000D02*
X144840000Y-59570000D01*
X134560000Y-77590000D02*
X144840000Y-77590000D01*
X134560000Y-59570000D02*
X134560000Y-77590000D01*
X142350000Y-59630000D02*
X140700000Y-59630000D01*
X142350000Y-77530000D02*
X142350000Y-59630000D01*
X137050000Y-77530000D02*
X142350000Y-77530000D01*
X137050000Y-59630000D02*
X137050000Y-77530000D01*
X138700000Y-59630000D02*
X137050000Y-59630000D01*
X140700000Y-59630000D02*
G75*
G02*
X138700000Y-59630000I-1000000J0D01*
G01*
X153940000Y-59630000D02*
X152290000Y-59630000D01*
X152290000Y-59630000D02*
X152290000Y-77530000D01*
X152290000Y-77530000D02*
X157590000Y-77530000D01*
X157590000Y-77530000D02*
X157590000Y-59630000D01*
X157590000Y-59630000D02*
X155940000Y-59630000D01*
X149800000Y-59570000D02*
X149800000Y-77590000D01*
X149800000Y-77590000D02*
X160080000Y-77590000D01*
X160080000Y-77590000D02*
X160080000Y-59570000D01*
X160080000Y-59570000D02*
X149800000Y-59570000D01*
X155940000Y-59630000D02*
G75*
G02*
X153940000Y-59630000I-1000000J0D01*
G01*
X169180000Y-59630000D02*
X167530000Y-59630000D01*
X167530000Y-59630000D02*
X167530000Y-77530000D01*
X167530000Y-77530000D02*
X172830000Y-77530000D01*
X172830000Y-77530000D02*
X172830000Y-59630000D01*
X172830000Y-59630000D02*
X171180000Y-59630000D01*
X165040000Y-59570000D02*
X165040000Y-77590000D01*
X165040000Y-77590000D02*
X175320000Y-77590000D01*
X175320000Y-77590000D02*
X175320000Y-59570000D01*
X175320000Y-59570000D02*
X165040000Y-59570000D01*
X171180000Y-59630000D02*
G75*
G02*
X169180000Y-59630000I-1000000J0D01*
G01*
X184420000Y-59630000D02*
X182770000Y-59630000D01*
X182770000Y-59630000D02*
X182770000Y-77530000D01*
X182770000Y-77530000D02*
X188070000Y-77530000D01*
X188070000Y-77530000D02*
X188070000Y-59630000D01*
X188070000Y-59630000D02*
X186420000Y-59630000D01*
X180280000Y-59570000D02*
X180280000Y-77590000D01*
X180280000Y-77590000D02*
X190560000Y-77590000D01*
X190560000Y-77590000D02*
X190560000Y-59570000D01*
X190560000Y-59570000D02*
X180280000Y-59570000D01*
X186420000Y-59630000D02*
G75*
G02*
X184420000Y-59630000I-1000000J0D01*
G01*
X144840000Y-84970000D02*
X134560000Y-84970000D01*
X144840000Y-102990000D02*
X144840000Y-84970000D01*
X134560000Y-102990000D02*
X144840000Y-102990000D01*
X134560000Y-84970000D02*
X134560000Y-102990000D01*
X142350000Y-85030000D02*
X140700000Y-85030000D01*
X142350000Y-102930000D02*
X142350000Y-85030000D01*
X137050000Y-102930000D02*
X142350000Y-102930000D01*
X137050000Y-85030000D02*
X137050000Y-102930000D01*
X138700000Y-85030000D02*
X137050000Y-85030000D01*
X140700000Y-85030000D02*
G75*
G02*
X138700000Y-85030000I-1000000J0D01*
G01*
X160080000Y-84970000D02*
X149800000Y-84970000D01*
X160080000Y-102990000D02*
X160080000Y-84970000D01*
X149800000Y-102990000D02*
X160080000Y-102990000D01*
X149800000Y-84970000D02*
X149800000Y-102990000D01*
X157590000Y-85030000D02*
X155940000Y-85030000D01*
X157590000Y-102930000D02*
X157590000Y-85030000D01*
X152290000Y-102930000D02*
X157590000Y-102930000D01*
X152290000Y-85030000D02*
X152290000Y-102930000D01*
X153940000Y-85030000D02*
X152290000Y-85030000D01*
X155940000Y-85030000D02*
G75*
G02*
X153940000Y-85030000I-1000000J0D01*
G01*
X169180000Y-85030000D02*
X167530000Y-85030000D01*
X167530000Y-85030000D02*
X167530000Y-102930000D01*
X167530000Y-102930000D02*
X172830000Y-102930000D01*
X172830000Y-102930000D02*
X172830000Y-85030000D01*
X172830000Y-85030000D02*
X171180000Y-85030000D01*
X165040000Y-84970000D02*
X165040000Y-102990000D01*
X165040000Y-102990000D02*
X175320000Y-102990000D01*
X175320000Y-102990000D02*
X175320000Y-84970000D01*
X175320000Y-84970000D02*
X165040000Y-84970000D01*
X171180000Y-85030000D02*
G75*
G02*
X169180000Y-85030000I-1000000J0D01*
G01*
X190560000Y-84970000D02*
X180280000Y-84970000D01*
X190560000Y-102990000D02*
X190560000Y-84970000D01*
X180280000Y-102990000D02*
X190560000Y-102990000D01*
X180280000Y-84970000D02*
X180280000Y-102990000D01*
X188070000Y-85030000D02*
X186420000Y-85030000D01*
X188070000Y-102930000D02*
X188070000Y-85030000D01*
X182770000Y-102930000D02*
X188070000Y-102930000D01*
X182770000Y-85030000D02*
X182770000Y-102930000D01*
X184420000Y-85030000D02*
X182770000Y-85030000D01*
X186420000Y-85030000D02*
G75*
G02*
X184420000Y-85030000I-1000000J0D01*
G01*
D10*
X139513333Y-52417142D02*
X139465714Y-52464761D01*
X139322857Y-52512380D01*
X139227619Y-52512380D01*
X139084761Y-52464761D01*
X138989523Y-52369523D01*
X138941904Y-52274285D01*
X138894285Y-52083809D01*
X138894285Y-51940952D01*
X138941904Y-51750476D01*
X138989523Y-51655238D01*
X139084761Y-51560000D01*
X139227619Y-51512380D01*
X139322857Y-51512380D01*
X139465714Y-51560000D01*
X139513333Y-51607619D01*
X140465714Y-52512380D02*
X139894285Y-52512380D01*
X140180000Y-52512380D02*
X140180000Y-51512380D01*
X140084761Y-51655238D01*
X139989523Y-51750476D01*
X139894285Y-51798095D01*
X154753333Y-52417142D02*
X154705714Y-52464761D01*
X154562857Y-52512380D01*
X154467619Y-52512380D01*
X154324761Y-52464761D01*
X154229523Y-52369523D01*
X154181904Y-52274285D01*
X154134285Y-52083809D01*
X154134285Y-51940952D01*
X154181904Y-51750476D01*
X154229523Y-51655238D01*
X154324761Y-51560000D01*
X154467619Y-51512380D01*
X154562857Y-51512380D01*
X154705714Y-51560000D01*
X154753333Y-51607619D01*
X155134285Y-51607619D02*
X155181904Y-51560000D01*
X155277142Y-51512380D01*
X155515238Y-51512380D01*
X155610476Y-51560000D01*
X155658095Y-51607619D01*
X155705714Y-51702857D01*
X155705714Y-51798095D01*
X155658095Y-51940952D01*
X155086666Y-52512380D01*
X155705714Y-52512380D01*
X169993333Y-52417142D02*
X169945714Y-52464761D01*
X169802857Y-52512380D01*
X169707619Y-52512380D01*
X169564761Y-52464761D01*
X169469523Y-52369523D01*
X169421904Y-52274285D01*
X169374285Y-52083809D01*
X169374285Y-51940952D01*
X169421904Y-51750476D01*
X169469523Y-51655238D01*
X169564761Y-51560000D01*
X169707619Y-51512380D01*
X169802857Y-51512380D01*
X169945714Y-51560000D01*
X169993333Y-51607619D01*
X170326666Y-51512380D02*
X170945714Y-51512380D01*
X170612380Y-51893333D01*
X170755238Y-51893333D01*
X170850476Y-51940952D01*
X170898095Y-51988571D01*
X170945714Y-52083809D01*
X170945714Y-52321904D01*
X170898095Y-52417142D01*
X170850476Y-52464761D01*
X170755238Y-52512380D01*
X170469523Y-52512380D01*
X170374285Y-52464761D01*
X170326666Y-52417142D01*
X185233333Y-52417142D02*
X185185714Y-52464761D01*
X185042857Y-52512380D01*
X184947619Y-52512380D01*
X184804761Y-52464761D01*
X184709523Y-52369523D01*
X184661904Y-52274285D01*
X184614285Y-52083809D01*
X184614285Y-51940952D01*
X184661904Y-51750476D01*
X184709523Y-51655238D01*
X184804761Y-51560000D01*
X184947619Y-51512380D01*
X185042857Y-51512380D01*
X185185714Y-51560000D01*
X185233333Y-51607619D01*
X186090476Y-51845714D02*
X186090476Y-52512380D01*
X185852380Y-51464761D02*
X185614285Y-52179047D01*
X186233333Y-52179047D01*
X139513333Y-79087142D02*
X139465714Y-79134761D01*
X139322857Y-79182380D01*
X139227619Y-79182380D01*
X139084761Y-79134761D01*
X138989523Y-79039523D01*
X138941904Y-78944285D01*
X138894285Y-78753809D01*
X138894285Y-78610952D01*
X138941904Y-78420476D01*
X138989523Y-78325238D01*
X139084761Y-78230000D01*
X139227619Y-78182380D01*
X139322857Y-78182380D01*
X139465714Y-78230000D01*
X139513333Y-78277619D01*
X140418095Y-78182380D02*
X139941904Y-78182380D01*
X139894285Y-78658571D01*
X139941904Y-78610952D01*
X140037142Y-78563333D01*
X140275238Y-78563333D01*
X140370476Y-78610952D01*
X140418095Y-78658571D01*
X140465714Y-78753809D01*
X140465714Y-78991904D01*
X140418095Y-79087142D01*
X140370476Y-79134761D01*
X140275238Y-79182380D01*
X140037142Y-79182380D01*
X139941904Y-79134761D01*
X139894285Y-79087142D01*
X154753333Y-79087142D02*
X154705714Y-79134761D01*
X154562857Y-79182380D01*
X154467619Y-79182380D01*
X154324761Y-79134761D01*
X154229523Y-79039523D01*
X154181904Y-78944285D01*
X154134285Y-78753809D01*
X154134285Y-78610952D01*
X154181904Y-78420476D01*
X154229523Y-78325238D01*
X154324761Y-78230000D01*
X154467619Y-78182380D01*
X154562857Y-78182380D01*
X154705714Y-78230000D01*
X154753333Y-78277619D01*
X155610476Y-78182380D02*
X155420000Y-78182380D01*
X155324761Y-78230000D01*
X155277142Y-78277619D01*
X155181904Y-78420476D01*
X155134285Y-78610952D01*
X155134285Y-78991904D01*
X155181904Y-79087142D01*
X155229523Y-79134761D01*
X155324761Y-79182380D01*
X155515238Y-79182380D01*
X155610476Y-79134761D01*
X155658095Y-79087142D01*
X155705714Y-78991904D01*
X155705714Y-78753809D01*
X155658095Y-78658571D01*
X155610476Y-78610952D01*
X155515238Y-78563333D01*
X155324761Y-78563333D01*
X155229523Y-78610952D01*
X155181904Y-78658571D01*
X155134285Y-78753809D01*
X169993333Y-79087142D02*
X169945714Y-79134761D01*
X169802857Y-79182380D01*
X169707619Y-79182380D01*
X169564761Y-79134761D01*
X169469523Y-79039523D01*
X169421904Y-78944285D01*
X169374285Y-78753809D01*
X169374285Y-78610952D01*
X169421904Y-78420476D01*
X169469523Y-78325238D01*
X169564761Y-78230000D01*
X169707619Y-78182380D01*
X169802857Y-78182380D01*
X169945714Y-78230000D01*
X169993333Y-78277619D01*
X170326666Y-78182380D02*
X170993333Y-78182380D01*
X170564761Y-79182380D01*
X185233333Y-79087142D02*
X185185714Y-79134761D01*
X185042857Y-79182380D01*
X184947619Y-79182380D01*
X184804761Y-79134761D01*
X184709523Y-79039523D01*
X184661904Y-78944285D01*
X184614285Y-78753809D01*
X184614285Y-78610952D01*
X184661904Y-78420476D01*
X184709523Y-78325238D01*
X184804761Y-78230000D01*
X184947619Y-78182380D01*
X185042857Y-78182380D01*
X185185714Y-78230000D01*
X185233333Y-78277619D01*
X185804761Y-78610952D02*
X185709523Y-78563333D01*
X185661904Y-78515714D01*
X185614285Y-78420476D01*
X185614285Y-78372857D01*
X185661904Y-78277619D01*
X185709523Y-78230000D01*
X185804761Y-78182380D01*
X185995238Y-78182380D01*
X186090476Y-78230000D01*
X186138095Y-78277619D01*
X186185714Y-78372857D01*
X186185714Y-78420476D01*
X186138095Y-78515714D01*
X186090476Y-78563333D01*
X185995238Y-78610952D01*
X185804761Y-78610952D01*
X185709523Y-78658571D01*
X185661904Y-78706190D01*
X185614285Y-78801428D01*
X185614285Y-78991904D01*
X185661904Y-79087142D01*
X185709523Y-79134761D01*
X185804761Y-79182380D01*
X185995238Y-79182380D01*
X186090476Y-79134761D01*
X186138095Y-79087142D01*
X186185714Y-78991904D01*
X186185714Y-78801428D01*
X186138095Y-78706190D01*
X186090476Y-78658571D01*
X185995238Y-78610952D01*
X209791666Y-50522380D02*
X209791666Y-51236666D01*
X209744047Y-51379523D01*
X209648809Y-51474761D01*
X209505952Y-51522380D01*
X209410714Y-51522380D01*
X210791666Y-51522380D02*
X210220238Y-51522380D01*
X210505952Y-51522380D02*
X210505952Y-50522380D01*
X210410714Y-50665238D01*
X210315476Y-50760476D01*
X210220238Y-50808095D01*
X138938095Y-58082380D02*
X138938095Y-58891904D01*
X138985714Y-58987142D01*
X139033333Y-59034761D01*
X139128571Y-59082380D01*
X139319047Y-59082380D01*
X139414285Y-59034761D01*
X139461904Y-58987142D01*
X139509523Y-58891904D01*
X139509523Y-58082380D01*
X140509523Y-59082380D02*
X139938095Y-59082380D01*
X140223809Y-59082380D02*
X140223809Y-58082380D01*
X140128571Y-58225238D01*
X140033333Y-58320476D01*
X139938095Y-58368095D01*
X154178095Y-58082380D02*
X154178095Y-58891904D01*
X154225714Y-58987142D01*
X154273333Y-59034761D01*
X154368571Y-59082380D01*
X154559047Y-59082380D01*
X154654285Y-59034761D01*
X154701904Y-58987142D01*
X154749523Y-58891904D01*
X154749523Y-58082380D01*
X155178095Y-58177619D02*
X155225714Y-58130000D01*
X155320952Y-58082380D01*
X155559047Y-58082380D01*
X155654285Y-58130000D01*
X155701904Y-58177619D01*
X155749523Y-58272857D01*
X155749523Y-58368095D01*
X155701904Y-58510952D01*
X155130476Y-59082380D01*
X155749523Y-59082380D01*
X169418095Y-58082380D02*
X169418095Y-58891904D01*
X169465714Y-58987142D01*
X169513333Y-59034761D01*
X169608571Y-59082380D01*
X169799047Y-59082380D01*
X169894285Y-59034761D01*
X169941904Y-58987142D01*
X169989523Y-58891904D01*
X169989523Y-58082380D01*
X170370476Y-58082380D02*
X170989523Y-58082380D01*
X170656190Y-58463333D01*
X170799047Y-58463333D01*
X170894285Y-58510952D01*
X170941904Y-58558571D01*
X170989523Y-58653809D01*
X170989523Y-58891904D01*
X170941904Y-58987142D01*
X170894285Y-59034761D01*
X170799047Y-59082380D01*
X170513333Y-59082380D01*
X170418095Y-59034761D01*
X170370476Y-58987142D01*
X184658095Y-58082380D02*
X184658095Y-58891904D01*
X184705714Y-58987142D01*
X184753333Y-59034761D01*
X184848571Y-59082380D01*
X185039047Y-59082380D01*
X185134285Y-59034761D01*
X185181904Y-58987142D01*
X185229523Y-58891904D01*
X185229523Y-58082380D01*
X186134285Y-58415714D02*
X186134285Y-59082380D01*
X185896190Y-58034761D02*
X185658095Y-58749047D01*
X186277142Y-58749047D01*
X138938095Y-83482380D02*
X138938095Y-84291904D01*
X138985714Y-84387142D01*
X139033333Y-84434761D01*
X139128571Y-84482380D01*
X139319047Y-84482380D01*
X139414285Y-84434761D01*
X139461904Y-84387142D01*
X139509523Y-84291904D01*
X139509523Y-83482380D01*
X140461904Y-83482380D02*
X139985714Y-83482380D01*
X139938095Y-83958571D01*
X139985714Y-83910952D01*
X140080952Y-83863333D01*
X140319047Y-83863333D01*
X140414285Y-83910952D01*
X140461904Y-83958571D01*
X140509523Y-84053809D01*
X140509523Y-84291904D01*
X140461904Y-84387142D01*
X140414285Y-84434761D01*
X140319047Y-84482380D01*
X140080952Y-84482380D01*
X139985714Y-84434761D01*
X139938095Y-84387142D01*
X154178095Y-83482380D02*
X154178095Y-84291904D01*
X154225714Y-84387142D01*
X154273333Y-84434761D01*
X154368571Y-84482380D01*
X154559047Y-84482380D01*
X154654285Y-84434761D01*
X154701904Y-84387142D01*
X154749523Y-84291904D01*
X154749523Y-83482380D01*
X155654285Y-83482380D02*
X155463809Y-83482380D01*
X155368571Y-83530000D01*
X155320952Y-83577619D01*
X155225714Y-83720476D01*
X155178095Y-83910952D01*
X155178095Y-84291904D01*
X155225714Y-84387142D01*
X155273333Y-84434761D01*
X155368571Y-84482380D01*
X155559047Y-84482380D01*
X155654285Y-84434761D01*
X155701904Y-84387142D01*
X155749523Y-84291904D01*
X155749523Y-84053809D01*
X155701904Y-83958571D01*
X155654285Y-83910952D01*
X155559047Y-83863333D01*
X155368571Y-83863333D01*
X155273333Y-83910952D01*
X155225714Y-83958571D01*
X155178095Y-84053809D01*
X169418095Y-83482380D02*
X169418095Y-84291904D01*
X169465714Y-84387142D01*
X169513333Y-84434761D01*
X169608571Y-84482380D01*
X169799047Y-84482380D01*
X169894285Y-84434761D01*
X169941904Y-84387142D01*
X169989523Y-84291904D01*
X169989523Y-83482380D01*
X170370476Y-83482380D02*
X171037142Y-83482380D01*
X170608571Y-84482380D01*
X184658095Y-83482380D02*
X184658095Y-84291904D01*
X184705714Y-84387142D01*
X184753333Y-84434761D01*
X184848571Y-84482380D01*
X185039047Y-84482380D01*
X185134285Y-84434761D01*
X185181904Y-84387142D01*
X185229523Y-84291904D01*
X185229523Y-83482380D01*
X185848571Y-83910952D02*
X185753333Y-83863333D01*
X185705714Y-83815714D01*
X185658095Y-83720476D01*
X185658095Y-83672857D01*
X185705714Y-83577619D01*
X185753333Y-83530000D01*
X185848571Y-83482380D01*
X186039047Y-83482380D01*
X186134285Y-83530000D01*
X186181904Y-83577619D01*
X186229523Y-83672857D01*
X186229523Y-83720476D01*
X186181904Y-83815714D01*
X186134285Y-83863333D01*
X186039047Y-83910952D01*
X185848571Y-83910952D01*
X185753333Y-83958571D01*
X185705714Y-84006190D01*
X185658095Y-84101428D01*
X185658095Y-84291904D01*
X185705714Y-84387142D01*
X185753333Y-84434761D01*
X185848571Y-84482380D01*
X186039047Y-84482380D01*
X186134285Y-84434761D01*
X186181904Y-84387142D01*
X186229523Y-84291904D01*
X186229523Y-84101428D01*
X186181904Y-84006190D01*
X186134285Y-83958571D01*
X186039047Y-83910952D01*
%LPC*%
D12*
X138430000Y-54610000D03*
X140930000Y-54610000D03*
X153670000Y-54610000D03*
X156170000Y-54610000D03*
X168910000Y-54610000D03*
X171410000Y-54610000D03*
X186650000Y-54610000D03*
X184150000Y-54610000D03*
X138430000Y-81280000D03*
X140930000Y-81280000D03*
X156170000Y-81280000D03*
X153670000Y-81280000D03*
X171410000Y-81280000D03*
X168910000Y-81280000D03*
X186650000Y-81280000D03*
X184150000Y-81280000D03*
D13*
X207010000Y-101600000D03*
X204470000Y-101600000D03*
X207010000Y-99060000D03*
X204470000Y-99060000D03*
X207010000Y-96520000D03*
X204470000Y-96520000D03*
X207010000Y-93980000D03*
X204470000Y-93980000D03*
X207010000Y-91440000D03*
X204470000Y-91440000D03*
X207010000Y-88900000D03*
X204470000Y-88900000D03*
X207010000Y-86360000D03*
X204470000Y-86360000D03*
X207010000Y-83820000D03*
X204470000Y-83820000D03*
X207010000Y-81280000D03*
X204470000Y-81280000D03*
X207010000Y-78740000D03*
X204470000Y-78740000D03*
X207010000Y-76200000D03*
X204470000Y-76200000D03*
X207010000Y-73660000D03*
X204470000Y-73660000D03*
X207010000Y-71120000D03*
X204470000Y-71120000D03*
X207010000Y-68580000D03*
X204470000Y-68580000D03*
X207010000Y-66040000D03*
X204470000Y-66040000D03*
X207010000Y-63500000D03*
X204470000Y-63500000D03*
X207010000Y-60960000D03*
X204470000Y-60960000D03*
X207010000Y-58420000D03*
X204470000Y-58420000D03*
X207010000Y-55880000D03*
X204470000Y-55880000D03*
X207010000Y-53340000D03*
D14*
X204470000Y-53340000D03*
D15*
X143510000Y-60960000D03*
X135890000Y-76200000D03*
X143510000Y-63500000D03*
X135890000Y-73660000D03*
X143510000Y-66040000D03*
X135890000Y-71120000D03*
X143510000Y-68580000D03*
X135890000Y-68580000D03*
X143510000Y-71120000D03*
X135890000Y-66040000D03*
X143510000Y-73660000D03*
X135890000Y-63500000D03*
X143510000Y-76200000D03*
D16*
X135890000Y-60960000D03*
X151130000Y-60960000D03*
D15*
X158750000Y-76200000D03*
X151130000Y-63500000D03*
X158750000Y-73660000D03*
X151130000Y-66040000D03*
X158750000Y-71120000D03*
X151130000Y-68580000D03*
X158750000Y-68580000D03*
X151130000Y-71120000D03*
X158750000Y-66040000D03*
X151130000Y-73660000D03*
X158750000Y-63500000D03*
X151130000Y-76200000D03*
X158750000Y-60960000D03*
D16*
X166370000Y-60960000D03*
D15*
X173990000Y-76200000D03*
X166370000Y-63500000D03*
X173990000Y-73660000D03*
X166370000Y-66040000D03*
X173990000Y-71120000D03*
X166370000Y-68580000D03*
X173990000Y-68580000D03*
X166370000Y-71120000D03*
X173990000Y-66040000D03*
X166370000Y-73660000D03*
X173990000Y-63500000D03*
X166370000Y-76200000D03*
X173990000Y-60960000D03*
D16*
X181610000Y-60960000D03*
D15*
X189230000Y-76200000D03*
X181610000Y-63500000D03*
X189230000Y-73660000D03*
X181610000Y-66040000D03*
X189230000Y-71120000D03*
X181610000Y-68580000D03*
X189230000Y-68580000D03*
X181610000Y-71120000D03*
X189230000Y-66040000D03*
X181610000Y-73660000D03*
X189230000Y-63500000D03*
X181610000Y-76200000D03*
X189230000Y-60960000D03*
X143510000Y-86360000D03*
X135890000Y-101600000D03*
X143510000Y-88900000D03*
X135890000Y-99060000D03*
X143510000Y-91440000D03*
X135890000Y-96520000D03*
X143510000Y-93980000D03*
X135890000Y-93980000D03*
X143510000Y-96520000D03*
X135890000Y-91440000D03*
X143510000Y-99060000D03*
X135890000Y-88900000D03*
X143510000Y-101600000D03*
D16*
X135890000Y-86360000D03*
D15*
X158750000Y-86360000D03*
X151130000Y-101600000D03*
X158750000Y-88900000D03*
X151130000Y-99060000D03*
X158750000Y-91440000D03*
X151130000Y-96520000D03*
X158750000Y-93980000D03*
X151130000Y-93980000D03*
X158750000Y-96520000D03*
X151130000Y-91440000D03*
X158750000Y-99060000D03*
X151130000Y-88900000D03*
X158750000Y-101600000D03*
D16*
X151130000Y-86360000D03*
X166370000Y-86360000D03*
D15*
X173990000Y-101600000D03*
X166370000Y-88900000D03*
X173990000Y-99060000D03*
X166370000Y-91440000D03*
X173990000Y-96520000D03*
X166370000Y-93980000D03*
X173990000Y-93980000D03*
X166370000Y-96520000D03*
X173990000Y-91440000D03*
X166370000Y-99060000D03*
X173990000Y-88900000D03*
X166370000Y-101600000D03*
X173990000Y-86360000D03*
X189230000Y-86360000D03*
X181610000Y-101600000D03*
X189230000Y-88900000D03*
X181610000Y-99060000D03*
X189230000Y-91440000D03*
X181610000Y-96520000D03*
X189230000Y-93980000D03*
X181610000Y-93980000D03*
X189230000Y-96520000D03*
X181610000Y-91440000D03*
X189230000Y-99060000D03*
X181610000Y-88900000D03*
X189230000Y-101600000D03*
D16*
X181610000Y-86360000D03*
M02*
