G04 #@! TF.GenerationSoftware,KiCad,Pcbnew,(5.1.12)-1*
G04 #@! TF.CreationDate,2022-10-05T17:55:37-05:00*
G04 #@! TF.ProjectId,address_logic,61646472-6573-4735-9f6c-6f6769632e6b,rev?*
G04 #@! TF.SameCoordinates,Original*
G04 #@! TF.FileFunction,Copper,L1,Top*
G04 #@! TF.FilePolarity,Positive*
%FSLAX46Y46*%
G04 Gerber Fmt 4.6, Leading zero omitted, Abs format (unit mm)*
G04 Created by KiCad (PCBNEW (5.1.12)-1) date 2022-10-05 17:55:37*
%MOMM*%
%LPD*%
G01*
G04 APERTURE LIST*
G04 #@! TA.AperFunction,ComponentPad*
%ADD10C,1.600000*%
G04 #@! TD*
G04 #@! TA.AperFunction,ComponentPad*
%ADD11O,1.700000X1.700000*%
G04 #@! TD*
G04 #@! TA.AperFunction,ComponentPad*
%ADD12R,1.700000X1.700000*%
G04 #@! TD*
G04 #@! TA.AperFunction,ComponentPad*
%ADD13O,1.600000X1.600000*%
G04 #@! TD*
G04 #@! TA.AperFunction,ComponentPad*
%ADD14R,1.600000X1.600000*%
G04 #@! TD*
G04 #@! TA.AperFunction,ViaPad*
%ADD15C,0.800000*%
G04 #@! TD*
G04 #@! TA.AperFunction,Conductor*
%ADD16C,0.250000*%
G04 #@! TD*
G04 APERTURE END LIST*
D10*
X138430000Y-54610000D03*
X140930000Y-54610000D03*
X153670000Y-54610000D03*
X156170000Y-54610000D03*
X168910000Y-54610000D03*
X171410000Y-54610000D03*
X186650000Y-54610000D03*
X184150000Y-54610000D03*
X138430000Y-81280000D03*
X140930000Y-81280000D03*
X156170000Y-81280000D03*
X153670000Y-81280000D03*
X171410000Y-81280000D03*
X168910000Y-81280000D03*
X186650000Y-81280000D03*
X184150000Y-81280000D03*
D11*
X207010000Y-101600000D03*
X204470000Y-101600000D03*
X207010000Y-99060000D03*
X204470000Y-99060000D03*
X207010000Y-96520000D03*
X204470000Y-96520000D03*
X207010000Y-93980000D03*
X204470000Y-93980000D03*
X207010000Y-91440000D03*
X204470000Y-91440000D03*
X207010000Y-88900000D03*
X204470000Y-88900000D03*
X207010000Y-86360000D03*
X204470000Y-86360000D03*
X207010000Y-83820000D03*
X204470000Y-83820000D03*
X207010000Y-81280000D03*
X204470000Y-81280000D03*
X207010000Y-78740000D03*
X204470000Y-78740000D03*
X207010000Y-76200000D03*
X204470000Y-76200000D03*
X207010000Y-73660000D03*
X204470000Y-73660000D03*
X207010000Y-71120000D03*
X204470000Y-71120000D03*
X207010000Y-68580000D03*
X204470000Y-68580000D03*
X207010000Y-66040000D03*
X204470000Y-66040000D03*
X207010000Y-63500000D03*
X204470000Y-63500000D03*
X207010000Y-60960000D03*
X204470000Y-60960000D03*
X207010000Y-58420000D03*
X204470000Y-58420000D03*
X207010000Y-55880000D03*
X204470000Y-55880000D03*
X207010000Y-53340000D03*
D12*
X204470000Y-53340000D03*
D13*
X143510000Y-60960000D03*
X135890000Y-76200000D03*
X143510000Y-63500000D03*
X135890000Y-73660000D03*
X143510000Y-66040000D03*
X135890000Y-71120000D03*
X143510000Y-68580000D03*
X135890000Y-68580000D03*
X143510000Y-71120000D03*
X135890000Y-66040000D03*
X143510000Y-73660000D03*
X135890000Y-63500000D03*
X143510000Y-76200000D03*
D14*
X135890000Y-60960000D03*
X151130000Y-60960000D03*
D13*
X158750000Y-76200000D03*
X151130000Y-63500000D03*
X158750000Y-73660000D03*
X151130000Y-66040000D03*
X158750000Y-71120000D03*
X151130000Y-68580000D03*
X158750000Y-68580000D03*
X151130000Y-71120000D03*
X158750000Y-66040000D03*
X151130000Y-73660000D03*
X158750000Y-63500000D03*
X151130000Y-76200000D03*
X158750000Y-60960000D03*
D14*
X166370000Y-60960000D03*
D13*
X173990000Y-76200000D03*
X166370000Y-63500000D03*
X173990000Y-73660000D03*
X166370000Y-66040000D03*
X173990000Y-71120000D03*
X166370000Y-68580000D03*
X173990000Y-68580000D03*
X166370000Y-71120000D03*
X173990000Y-66040000D03*
X166370000Y-73660000D03*
X173990000Y-63500000D03*
X166370000Y-76200000D03*
X173990000Y-60960000D03*
D14*
X181610000Y-60960000D03*
D13*
X189230000Y-76200000D03*
X181610000Y-63500000D03*
X189230000Y-73660000D03*
X181610000Y-66040000D03*
X189230000Y-71120000D03*
X181610000Y-68580000D03*
X189230000Y-68580000D03*
X181610000Y-71120000D03*
X189230000Y-66040000D03*
X181610000Y-73660000D03*
X189230000Y-63500000D03*
X181610000Y-76200000D03*
X189230000Y-60960000D03*
X143510000Y-86360000D03*
X135890000Y-101600000D03*
X143510000Y-88900000D03*
X135890000Y-99060000D03*
X143510000Y-91440000D03*
X135890000Y-96520000D03*
X143510000Y-93980000D03*
X135890000Y-93980000D03*
X143510000Y-96520000D03*
X135890000Y-91440000D03*
X143510000Y-99060000D03*
X135890000Y-88900000D03*
X143510000Y-101600000D03*
D14*
X135890000Y-86360000D03*
D13*
X158750000Y-86360000D03*
X151130000Y-101600000D03*
X158750000Y-88900000D03*
X151130000Y-99060000D03*
X158750000Y-91440000D03*
X151130000Y-96520000D03*
X158750000Y-93980000D03*
X151130000Y-93980000D03*
X158750000Y-96520000D03*
X151130000Y-91440000D03*
X158750000Y-99060000D03*
X151130000Y-88900000D03*
X158750000Y-101600000D03*
D14*
X151130000Y-86360000D03*
X166370000Y-86360000D03*
D13*
X173990000Y-101600000D03*
X166370000Y-88900000D03*
X173990000Y-99060000D03*
X166370000Y-91440000D03*
X173990000Y-96520000D03*
X166370000Y-93980000D03*
X173990000Y-93980000D03*
X166370000Y-96520000D03*
X173990000Y-91440000D03*
X166370000Y-99060000D03*
X173990000Y-88900000D03*
X166370000Y-101600000D03*
X173990000Y-86360000D03*
X189230000Y-86360000D03*
X181610000Y-101600000D03*
X189230000Y-88900000D03*
X181610000Y-99060000D03*
X189230000Y-91440000D03*
X181610000Y-96520000D03*
X189230000Y-93980000D03*
X181610000Y-93980000D03*
X189230000Y-96520000D03*
X181610000Y-91440000D03*
X189230000Y-99060000D03*
X181610000Y-88900000D03*
X189230000Y-101600000D03*
D14*
X181610000Y-86360000D03*
D15*
X178938600Y-92822000D03*
X190658900Y-72390000D03*
X179783100Y-95250000D03*
D16*
X181610000Y-101600000D02*
X180484900Y-101600000D01*
X166370000Y-101600000D02*
X167495100Y-101600000D01*
X167495100Y-101600000D02*
X168640600Y-102745500D01*
X168640600Y-102745500D02*
X179339400Y-102745500D01*
X179339400Y-102745500D02*
X180484900Y-101600000D01*
X181610000Y-76200000D02*
X180484900Y-76200000D01*
X171410000Y-81280000D02*
X175404900Y-81280000D01*
X175404900Y-81280000D02*
X180484900Y-76200000D01*
X140930000Y-54610000D02*
X142060300Y-53479700D01*
X142060300Y-53479700D02*
X155039700Y-53479700D01*
X155039700Y-53479700D02*
X156170000Y-54610000D01*
X136452600Y-76200000D02*
X134736700Y-74484100D01*
X134736700Y-74484100D02*
X134736700Y-65566400D01*
X134736700Y-65566400D02*
X135533100Y-64770000D01*
X135533100Y-64770000D02*
X136274200Y-64770000D01*
X136274200Y-64770000D02*
X140930000Y-60114200D01*
X140930000Y-60114200D02*
X140930000Y-54610000D01*
X156170000Y-54610000D02*
X157310600Y-53469400D01*
X157310600Y-53469400D02*
X170269400Y-53469400D01*
X170269400Y-53469400D02*
X171410000Y-54610000D01*
X136452600Y-76200000D02*
X137015100Y-76200000D01*
X135890000Y-76200000D02*
X136452600Y-76200000D01*
X151130000Y-76200000D02*
X150004900Y-76200000D01*
X140930000Y-79990000D02*
X140805100Y-79990000D01*
X140805100Y-79990000D02*
X137015100Y-76200000D01*
X150004900Y-76200000D02*
X146214900Y-79990000D01*
X146214900Y-79990000D02*
X140930000Y-79990000D01*
X140930000Y-81280000D02*
X140930000Y-79990000D01*
X151130000Y-76200000D02*
X152255100Y-76200000D01*
X156170000Y-79807200D02*
X155862300Y-79807200D01*
X155862300Y-79807200D02*
X152255100Y-76200000D01*
X156170000Y-79807200D02*
X161637700Y-79807200D01*
X161637700Y-79807200D02*
X165244900Y-76200000D01*
X156170000Y-81280000D02*
X156170000Y-79807200D01*
X186650000Y-53954100D02*
X202680800Y-53954100D01*
X202680800Y-53954100D02*
X203294900Y-53340000D01*
X171410000Y-54610000D02*
X172554500Y-53465500D01*
X172554500Y-53465500D02*
X186161400Y-53465500D01*
X186161400Y-53465500D02*
X186650000Y-53954100D01*
X186650000Y-54610000D02*
X186650000Y-53954100D01*
X204470000Y-53340000D02*
X203294900Y-53340000D01*
X207010000Y-53340000D02*
X204470000Y-53340000D01*
X166370000Y-76200000D02*
X165244900Y-76200000D01*
X135890000Y-101600000D02*
X137015100Y-101600000D01*
X151130000Y-101600000D02*
X150004900Y-101600000D01*
X150004900Y-101600000D02*
X148814300Y-100409400D01*
X148814300Y-100409400D02*
X138205700Y-100409400D01*
X138205700Y-100409400D02*
X137015100Y-101600000D01*
X152255100Y-101600000D02*
X151130000Y-101600000D01*
X153154500Y-102499400D02*
X152255100Y-101600000D01*
X157984398Y-102499400D02*
X153154500Y-102499400D01*
X158209999Y-102725001D02*
X157984398Y-102499400D01*
X159515602Y-102499400D02*
X159290001Y-102725001D01*
X159290001Y-102725001D02*
X158209999Y-102725001D01*
X164345500Y-102499400D02*
X159515602Y-102499400D01*
X165244900Y-101600000D02*
X164345500Y-102499400D01*
X166370000Y-101600000D02*
X165244900Y-101600000D01*
X204470000Y-63500000D02*
X203294900Y-63500000D01*
X158750000Y-73660000D02*
X157624900Y-73660000D01*
X157624900Y-73660000D02*
X157624900Y-73378700D01*
X157624900Y-73378700D02*
X151556200Y-67310000D01*
X151556200Y-67310000D02*
X150802500Y-67310000D01*
X150802500Y-67310000D02*
X149979400Y-66486900D01*
X149979400Y-66486900D02*
X149979400Y-59980500D01*
X149979400Y-59980500D02*
X150125200Y-59834700D01*
X150125200Y-59834700D02*
X199629600Y-59834700D01*
X199629600Y-59834700D02*
X203294900Y-63500000D01*
X204470000Y-66040000D02*
X203294900Y-66040000D01*
X158750000Y-71120000D02*
X159875100Y-71120000D01*
X159875100Y-71120000D02*
X163685100Y-67310000D01*
X163685100Y-67310000D02*
X174470800Y-67310000D01*
X174470800Y-67310000D02*
X179410000Y-62370800D01*
X179410000Y-62370800D02*
X199625700Y-62370800D01*
X199625700Y-62370800D02*
X203294900Y-66040000D01*
X135890000Y-69994900D02*
X136171400Y-69994900D01*
X136171400Y-69994900D02*
X137015100Y-69151200D01*
X137015100Y-69151200D02*
X137015100Y-68347100D01*
X137015100Y-68347100D02*
X143058300Y-62303900D01*
X143058300Y-62303900D02*
X145274500Y-62303900D01*
X145274500Y-62303900D02*
X148218700Y-59359700D01*
X148218700Y-59359700D02*
X201087700Y-59359700D01*
X201087700Y-59359700D02*
X203993000Y-62265000D01*
X203993000Y-62265000D02*
X205003300Y-62265000D01*
X205003300Y-62265000D02*
X205647900Y-62909600D01*
X205647900Y-62909600D02*
X205647900Y-74212200D01*
X205647900Y-74212200D02*
X204835200Y-75024900D01*
X204835200Y-75024900D02*
X204470000Y-75024900D01*
X204470000Y-76200000D02*
X204470000Y-75024900D01*
X135890000Y-71120000D02*
X135890000Y-69994900D01*
X189230000Y-68580000D02*
X193134900Y-68580000D01*
X193134900Y-68580000D02*
X203294900Y-78740000D01*
X204470000Y-78740000D02*
X203294900Y-78740000D01*
X181610000Y-93980000D02*
X182735100Y-93980000D01*
X204470000Y-81280000D02*
X204470000Y-82455100D01*
X204470000Y-82455100D02*
X204837200Y-82455100D01*
X204837200Y-82455100D02*
X205645200Y-83263100D01*
X205645200Y-83263100D02*
X205645200Y-86885700D01*
X205645200Y-86885700D02*
X204900900Y-87630000D01*
X204900900Y-87630000D02*
X203294800Y-87630000D01*
X203294800Y-87630000D02*
X195795300Y-95129500D01*
X195795300Y-95129500D02*
X183884600Y-95129500D01*
X183884600Y-95129500D02*
X182735100Y-93980000D01*
X181610000Y-88900000D02*
X180484900Y-88900000D01*
X166370000Y-86360000D02*
X167495100Y-86360000D01*
X167495100Y-86360000D02*
X168620200Y-87485100D01*
X168620200Y-87485100D02*
X179070000Y-87485100D01*
X179070000Y-87485100D02*
X180484900Y-88900000D01*
X182735100Y-88900000D02*
X187815100Y-83820000D01*
X187815100Y-83820000D02*
X204470000Y-83820000D01*
X181610000Y-88900000D02*
X182735100Y-88900000D01*
X203294900Y-86360000D02*
X199567600Y-90087300D01*
X199567600Y-90087300D02*
X168847700Y-90087300D01*
X168847700Y-90087300D02*
X168847700Y-90087400D01*
X168847700Y-90087400D02*
X167495100Y-91440000D01*
X204470000Y-86360000D02*
X203294900Y-86360000D01*
X166370000Y-91440000D02*
X167495100Y-91440000D01*
X151130000Y-96520000D02*
X152255100Y-96520000D01*
X189230000Y-99060000D02*
X188104900Y-99060000D01*
X188104900Y-99060000D02*
X186955500Y-100209400D01*
X186955500Y-100209400D02*
X155944500Y-100209400D01*
X155944500Y-100209400D02*
X152255100Y-96520000D01*
X203294900Y-101600000D02*
X200754900Y-99060000D01*
X200754900Y-99060000D02*
X189230000Y-99060000D01*
X204470000Y-101600000D02*
X203294900Y-101600000D01*
X207010000Y-88900000D02*
X205834900Y-88900000D01*
X166370000Y-96520000D02*
X167495100Y-96520000D01*
X167495100Y-96520000D02*
X168627000Y-97651900D01*
X168627000Y-97651900D02*
X195027700Y-97651900D01*
X195027700Y-97651900D02*
X202509600Y-90170000D01*
X202509600Y-90170000D02*
X204930100Y-90170000D01*
X204930100Y-90170000D02*
X205834900Y-89265200D01*
X205834900Y-89265200D02*
X205834900Y-88900000D01*
X207010000Y-86360000D02*
X207010000Y-85184900D01*
X173990000Y-71120000D02*
X175115100Y-71120000D01*
X175115100Y-71120000D02*
X178794500Y-67440600D01*
X178794500Y-67440600D02*
X193115200Y-67440600D01*
X193115200Y-67440600D02*
X203144600Y-77470000D01*
X203144600Y-77470000D02*
X207476400Y-77470000D01*
X207476400Y-77470000D02*
X208206300Y-78199900D01*
X208206300Y-78199900D02*
X208206300Y-84353800D01*
X208206300Y-84353800D02*
X207375200Y-85184900D01*
X207375200Y-85184900D02*
X207010000Y-85184900D01*
X137015100Y-88900000D02*
X138205700Y-90090600D01*
X138205700Y-90090600D02*
X151701100Y-90090600D01*
X151701100Y-90090600D02*
X158647800Y-83143900D01*
X158647800Y-83143900D02*
X163161900Y-83143900D01*
X163161900Y-83143900D02*
X170105800Y-76200000D01*
X170105800Y-76200000D02*
X173990000Y-76200000D01*
X205834900Y-81280000D02*
X205834900Y-80914800D01*
X205834900Y-80914800D02*
X204930100Y-80010000D01*
X204930100Y-80010000D02*
X201137200Y-80010000D01*
X201137200Y-80010000D02*
X191105600Y-69978400D01*
X191105600Y-69978400D02*
X181055400Y-69978400D01*
X181055400Y-69978400D02*
X175115100Y-75918700D01*
X175115100Y-75918700D02*
X175115100Y-76200000D01*
X207010000Y-81280000D02*
X205834900Y-81280000D01*
X173990000Y-76200000D02*
X175115100Y-76200000D01*
X135890000Y-88900000D02*
X137015100Y-88900000D01*
X143510000Y-60960000D02*
X144635100Y-60960000D01*
X144635100Y-60960000D02*
X150985100Y-54610000D01*
X150985100Y-54610000D02*
X153670000Y-54610000D01*
X168910000Y-81280000D02*
X170051800Y-82421800D01*
X170051800Y-82421800D02*
X183008200Y-82421800D01*
X183008200Y-82421800D02*
X184150000Y-81280000D01*
X207010000Y-55880000D02*
X205834900Y-55880000D01*
X184150000Y-54610000D02*
X185275200Y-55735200D01*
X185275200Y-55735200D02*
X196792400Y-55735200D01*
X196792400Y-55735200D02*
X197859900Y-54667700D01*
X197859900Y-54667700D02*
X204987800Y-54667700D01*
X204987800Y-54667700D02*
X205834900Y-55514800D01*
X205834900Y-55514800D02*
X205834900Y-55880000D01*
X143510000Y-86360000D02*
X144635100Y-86360000D01*
X153670000Y-81280000D02*
X149715100Y-81280000D01*
X149715100Y-81280000D02*
X144635100Y-86360000D01*
X143510000Y-63500000D02*
X144635100Y-63500000D01*
X158750000Y-76200000D02*
X157624900Y-76200000D01*
X157624900Y-76200000D02*
X157624900Y-75918700D01*
X157624900Y-75918700D02*
X151630100Y-69923900D01*
X151630100Y-69923900D02*
X150825800Y-69923900D01*
X150825800Y-69923900D02*
X144635100Y-63733200D01*
X144635100Y-63733200D02*
X144635100Y-63500000D01*
X151130000Y-71120000D02*
X150004900Y-71120000D01*
X150004900Y-71120000D02*
X147464900Y-73660000D01*
X147464900Y-73660000D02*
X143510000Y-73660000D01*
X151130000Y-60960000D02*
X152255100Y-60960000D01*
X166370000Y-66040000D02*
X165244900Y-66040000D01*
X165244900Y-66040000D02*
X164119800Y-64914900D01*
X164119800Y-64914900D02*
X156210000Y-64914900D01*
X156210000Y-64914900D02*
X152255100Y-60960000D01*
X188104900Y-93980000D02*
X186946900Y-92822000D01*
X186946900Y-92822000D02*
X178938600Y-92822000D01*
X189230000Y-93980000D02*
X188104900Y-93980000D01*
X166370000Y-72245100D02*
X166651300Y-72245100D01*
X166651300Y-72245100D02*
X167992300Y-73586100D01*
X167992300Y-73586100D02*
X167992300Y-76868300D01*
X167992300Y-76868300D02*
X162714900Y-82145700D01*
X162714900Y-82145700D02*
X158119000Y-82145700D01*
X158119000Y-82145700D02*
X152779600Y-87485100D01*
X152779600Y-87485100D02*
X138140200Y-87485100D01*
X138140200Y-87485100D02*
X137015100Y-86360000D01*
X135890000Y-86360000D02*
X137015100Y-86360000D01*
X166370000Y-71120000D02*
X166370000Y-72245100D01*
X152849900Y-86360000D02*
X151130000Y-86360000D01*
X157514400Y-81695500D02*
X152849900Y-86360000D01*
X162528500Y-81695500D02*
X157514400Y-81695500D01*
X167542200Y-76681800D02*
X162528500Y-81695500D01*
X166553801Y-74785001D02*
X167542200Y-75773400D01*
X165829999Y-74785001D02*
X166553801Y-74785001D01*
X180484900Y-63500000D02*
X180484900Y-63781300D01*
X180484900Y-63781300D02*
X174416200Y-69850000D01*
X165244999Y-74200001D02*
X165829999Y-74785001D01*
X165980700Y-69850000D02*
X165835701Y-69994999D01*
X167542200Y-75773400D02*
X167542200Y-76681800D01*
X165244999Y-73119999D02*
X165244999Y-74200001D01*
X174416200Y-69850000D02*
X165980700Y-69850000D01*
X165835701Y-69994999D02*
X165829999Y-69994999D01*
X181610000Y-63500000D02*
X180484900Y-63500000D01*
X165829999Y-69994999D02*
X165244999Y-70579999D01*
X165244999Y-70579999D02*
X165244999Y-71660001D01*
X165244999Y-71660001D02*
X165264400Y-71679402D01*
X165264400Y-71679402D02*
X165264400Y-73100598D01*
X165264400Y-73100598D02*
X165244999Y-73119999D01*
X188104900Y-71120000D02*
X184439700Y-74785200D01*
X184439700Y-74785200D02*
X181263000Y-74785200D01*
X181263000Y-74785200D02*
X177115200Y-78933000D01*
X177115200Y-78933000D02*
X169665800Y-78933000D01*
X169665800Y-78933000D02*
X160968800Y-87630000D01*
X160968800Y-87630000D02*
X158386900Y-87630000D01*
X158386900Y-87630000D02*
X157110600Y-88906300D01*
X157110600Y-88906300D02*
X157110600Y-96528700D01*
X157110600Y-96528700D02*
X158516800Y-97934900D01*
X158516800Y-97934900D02*
X158750000Y-97934900D01*
X158750000Y-99060000D02*
X158750000Y-97934900D01*
X189230000Y-71120000D02*
X188104900Y-71120000D01*
X151130000Y-88900000D02*
X152255100Y-88900000D01*
X181610000Y-68580000D02*
X180484900Y-68580000D01*
X180484900Y-68580000D02*
X176530000Y-72534900D01*
X176530000Y-72534900D02*
X173134200Y-72534900D01*
X173134200Y-72534900D02*
X163073200Y-82595900D01*
X163073200Y-82595900D02*
X158559200Y-82595900D01*
X158559200Y-82595900D02*
X152255100Y-88900000D01*
X181610000Y-85234900D02*
X181891300Y-85234900D01*
X181891300Y-85234900D02*
X185400000Y-81726200D01*
X185400000Y-81726200D02*
X185400000Y-75824700D01*
X185400000Y-75824700D02*
X188834700Y-72390000D01*
X188834700Y-72390000D02*
X190658900Y-72390000D01*
X181610000Y-86360000D02*
X181610000Y-85234900D01*
X158750000Y-96520000D02*
X158750000Y-95394900D01*
X181610000Y-86360000D02*
X180484900Y-86360000D01*
X180484900Y-86360000D02*
X179358600Y-85233700D01*
X179358600Y-85233700D02*
X164216300Y-85233700D01*
X164216300Y-85233700D02*
X159280000Y-90170000D01*
X159280000Y-90170000D02*
X158348900Y-90170000D01*
X158348900Y-90170000D02*
X157560800Y-90958100D01*
X157560800Y-90958100D02*
X157560800Y-94438900D01*
X157560800Y-94438900D02*
X158516800Y-95394900D01*
X158516800Y-95394900D02*
X158750000Y-95394900D01*
X170063800Y-77898200D02*
X176246700Y-77898200D01*
X151130000Y-93980000D02*
X151130000Y-92854900D01*
X151463999Y-92565001D02*
X151670001Y-92565001D01*
X151670001Y-92565001D02*
X152255001Y-91980001D01*
X151130000Y-92854900D02*
X151174100Y-92854900D01*
X157624999Y-85819999D02*
X158209999Y-85234999D01*
X158209999Y-85234999D02*
X158794001Y-85234999D01*
X176246700Y-77898200D02*
X180484900Y-73660000D01*
X151174100Y-92854900D02*
X151463999Y-92565001D01*
X180484900Y-73660000D02*
X181610000Y-73660000D01*
X164313400Y-83648600D02*
X170063800Y-77898200D01*
X152255001Y-91773999D02*
X157624999Y-86404001D01*
X152255001Y-91980001D02*
X152255001Y-91773999D01*
X157624999Y-86404001D02*
X157624999Y-85819999D01*
X158794001Y-85234999D02*
X160380400Y-83648600D01*
X160380400Y-83648600D02*
X164313400Y-83648600D01*
X163807800Y-90337100D02*
X162704900Y-91440000D01*
X162704900Y-91440000D02*
X158750000Y-91440000D01*
X165244900Y-88900000D02*
X163807800Y-90337100D01*
X166370000Y-88900000D02*
X165244900Y-88900000D01*
X180484900Y-96520000D02*
X181610000Y-96520000D01*
X176143800Y-92636100D02*
X180027700Y-96520000D01*
X180027700Y-96520000D02*
X180484900Y-96520000D01*
X166106800Y-92636100D02*
X176143800Y-92636100D01*
X166035701Y-92565001D02*
X166106800Y-92636100D01*
X165829999Y-92565001D02*
X166035701Y-92565001D01*
X165244999Y-91980001D02*
X165829999Y-92565001D01*
X165244999Y-91774299D02*
X165244999Y-91980001D01*
X163807800Y-90337100D02*
X165244999Y-91774299D01*
X179783100Y-95250000D02*
X182405500Y-95250000D01*
X182405500Y-95250000D02*
X183675500Y-96520000D01*
X183675500Y-96520000D02*
X189230000Y-96520000D01*
M02*
