G04 #@! TF.GenerationSoftware,KiCad,Pcbnew,(5.1.12)-1*
G04 #@! TF.CreationDate,2022-10-05T17:55:37-05:00*
G04 #@! TF.ProjectId,address_logic,61646472-6573-4735-9f6c-6f6769632e6b,rev?*
G04 #@! TF.SameCoordinates,Original*
G04 #@! TF.FileFunction,Legend,Bot*
G04 #@! TF.FilePolarity,Positive*
%FSLAX46Y46*%
G04 Gerber Fmt 4.6, Leading zero omitted, Abs format (unit mm)*
G04 Created by KiCad (PCBNEW (5.1.12)-1) date 2022-10-05 17:55:37*
%MOMM*%
%LPD*%
G01*
G04 APERTURE LIST*
%ADD10C,1.600000*%
%ADD11O,1.700000X1.700000*%
%ADD12R,1.700000X1.700000*%
%ADD13O,1.600000X1.600000*%
%ADD14R,1.600000X1.600000*%
G04 APERTURE END LIST*
%LPC*%
D10*
X138430000Y-54610000D03*
X140930000Y-54610000D03*
X153670000Y-54610000D03*
X156170000Y-54610000D03*
X168910000Y-54610000D03*
X171410000Y-54610000D03*
X186650000Y-54610000D03*
X184150000Y-54610000D03*
X138430000Y-81280000D03*
X140930000Y-81280000D03*
X156170000Y-81280000D03*
X153670000Y-81280000D03*
X171410000Y-81280000D03*
X168910000Y-81280000D03*
X186650000Y-81280000D03*
X184150000Y-81280000D03*
D11*
X207010000Y-101600000D03*
X204470000Y-101600000D03*
X207010000Y-99060000D03*
X204470000Y-99060000D03*
X207010000Y-96520000D03*
X204470000Y-96520000D03*
X207010000Y-93980000D03*
X204470000Y-93980000D03*
X207010000Y-91440000D03*
X204470000Y-91440000D03*
X207010000Y-88900000D03*
X204470000Y-88900000D03*
X207010000Y-86360000D03*
X204470000Y-86360000D03*
X207010000Y-83820000D03*
X204470000Y-83820000D03*
X207010000Y-81280000D03*
X204470000Y-81280000D03*
X207010000Y-78740000D03*
X204470000Y-78740000D03*
X207010000Y-76200000D03*
X204470000Y-76200000D03*
X207010000Y-73660000D03*
X204470000Y-73660000D03*
X207010000Y-71120000D03*
X204470000Y-71120000D03*
X207010000Y-68580000D03*
X204470000Y-68580000D03*
X207010000Y-66040000D03*
X204470000Y-66040000D03*
X207010000Y-63500000D03*
X204470000Y-63500000D03*
X207010000Y-60960000D03*
X204470000Y-60960000D03*
X207010000Y-58420000D03*
X204470000Y-58420000D03*
X207010000Y-55880000D03*
X204470000Y-55880000D03*
X207010000Y-53340000D03*
D12*
X204470000Y-53340000D03*
D13*
X143510000Y-60960000D03*
X135890000Y-76200000D03*
X143510000Y-63500000D03*
X135890000Y-73660000D03*
X143510000Y-66040000D03*
X135890000Y-71120000D03*
X143510000Y-68580000D03*
X135890000Y-68580000D03*
X143510000Y-71120000D03*
X135890000Y-66040000D03*
X143510000Y-73660000D03*
X135890000Y-63500000D03*
X143510000Y-76200000D03*
D14*
X135890000Y-60960000D03*
X151130000Y-60960000D03*
D13*
X158750000Y-76200000D03*
X151130000Y-63500000D03*
X158750000Y-73660000D03*
X151130000Y-66040000D03*
X158750000Y-71120000D03*
X151130000Y-68580000D03*
X158750000Y-68580000D03*
X151130000Y-71120000D03*
X158750000Y-66040000D03*
X151130000Y-73660000D03*
X158750000Y-63500000D03*
X151130000Y-76200000D03*
X158750000Y-60960000D03*
D14*
X166370000Y-60960000D03*
D13*
X173990000Y-76200000D03*
X166370000Y-63500000D03*
X173990000Y-73660000D03*
X166370000Y-66040000D03*
X173990000Y-71120000D03*
X166370000Y-68580000D03*
X173990000Y-68580000D03*
X166370000Y-71120000D03*
X173990000Y-66040000D03*
X166370000Y-73660000D03*
X173990000Y-63500000D03*
X166370000Y-76200000D03*
X173990000Y-60960000D03*
D14*
X181610000Y-60960000D03*
D13*
X189230000Y-76200000D03*
X181610000Y-63500000D03*
X189230000Y-73660000D03*
X181610000Y-66040000D03*
X189230000Y-71120000D03*
X181610000Y-68580000D03*
X189230000Y-68580000D03*
X181610000Y-71120000D03*
X189230000Y-66040000D03*
X181610000Y-73660000D03*
X189230000Y-63500000D03*
X181610000Y-76200000D03*
X189230000Y-60960000D03*
X143510000Y-86360000D03*
X135890000Y-101600000D03*
X143510000Y-88900000D03*
X135890000Y-99060000D03*
X143510000Y-91440000D03*
X135890000Y-96520000D03*
X143510000Y-93980000D03*
X135890000Y-93980000D03*
X143510000Y-96520000D03*
X135890000Y-91440000D03*
X143510000Y-99060000D03*
X135890000Y-88900000D03*
X143510000Y-101600000D03*
D14*
X135890000Y-86360000D03*
D13*
X158750000Y-86360000D03*
X151130000Y-101600000D03*
X158750000Y-88900000D03*
X151130000Y-99060000D03*
X158750000Y-91440000D03*
X151130000Y-96520000D03*
X158750000Y-93980000D03*
X151130000Y-93980000D03*
X158750000Y-96520000D03*
X151130000Y-91440000D03*
X158750000Y-99060000D03*
X151130000Y-88900000D03*
X158750000Y-101600000D03*
D14*
X151130000Y-86360000D03*
X166370000Y-86360000D03*
D13*
X173990000Y-101600000D03*
X166370000Y-88900000D03*
X173990000Y-99060000D03*
X166370000Y-91440000D03*
X173990000Y-96520000D03*
X166370000Y-93980000D03*
X173990000Y-93980000D03*
X166370000Y-96520000D03*
X173990000Y-91440000D03*
X166370000Y-99060000D03*
X173990000Y-88900000D03*
X166370000Y-101600000D03*
X173990000Y-86360000D03*
X189230000Y-86360000D03*
X181610000Y-101600000D03*
X189230000Y-88900000D03*
X181610000Y-99060000D03*
X189230000Y-91440000D03*
X181610000Y-96520000D03*
X189230000Y-93980000D03*
X181610000Y-93980000D03*
X189230000Y-96520000D03*
X181610000Y-91440000D03*
X189230000Y-99060000D03*
X181610000Y-88900000D03*
X189230000Y-101600000D03*
D14*
X181610000Y-86360000D03*
M02*
