G04 #@! TF.GenerationSoftware,KiCad,Pcbnew,(5.1.12)-1*
G04 #@! TF.CreationDate,2022-10-05T17:55:37-05:00*
G04 #@! TF.ProjectId,address_logic,61646472-6573-4735-9f6c-6f6769632e6b,rev?*
G04 #@! TF.SameCoordinates,Original*
G04 #@! TF.FileFunction,Copper,L2,Bot*
G04 #@! TF.FilePolarity,Positive*
%FSLAX46Y46*%
G04 Gerber Fmt 4.6, Leading zero omitted, Abs format (unit mm)*
G04 Created by KiCad (PCBNEW (5.1.12)-1) date 2022-10-05 17:55:37*
%MOMM*%
%LPD*%
G01*
G04 APERTURE LIST*
G04 #@! TA.AperFunction,ComponentPad*
%ADD10C,1.600000*%
G04 #@! TD*
G04 #@! TA.AperFunction,ComponentPad*
%ADD11O,1.700000X1.700000*%
G04 #@! TD*
G04 #@! TA.AperFunction,ComponentPad*
%ADD12R,1.700000X1.700000*%
G04 #@! TD*
G04 #@! TA.AperFunction,ComponentPad*
%ADD13O,1.600000X1.600000*%
G04 #@! TD*
G04 #@! TA.AperFunction,ComponentPad*
%ADD14R,1.600000X1.600000*%
G04 #@! TD*
G04 #@! TA.AperFunction,ViaPad*
%ADD15C,0.800000*%
G04 #@! TD*
G04 #@! TA.AperFunction,Conductor*
%ADD16C,0.250000*%
G04 #@! TD*
G04 APERTURE END LIST*
D10*
X138430000Y-54610000D03*
X140930000Y-54610000D03*
X153670000Y-54610000D03*
X156170000Y-54610000D03*
X168910000Y-54610000D03*
X171410000Y-54610000D03*
X186650000Y-54610000D03*
X184150000Y-54610000D03*
X138430000Y-81280000D03*
X140930000Y-81280000D03*
X156170000Y-81280000D03*
X153670000Y-81280000D03*
X171410000Y-81280000D03*
X168910000Y-81280000D03*
X186650000Y-81280000D03*
X184150000Y-81280000D03*
D11*
X207010000Y-101600000D03*
X204470000Y-101600000D03*
X207010000Y-99060000D03*
X204470000Y-99060000D03*
X207010000Y-96520000D03*
X204470000Y-96520000D03*
X207010000Y-93980000D03*
X204470000Y-93980000D03*
X207010000Y-91440000D03*
X204470000Y-91440000D03*
X207010000Y-88900000D03*
X204470000Y-88900000D03*
X207010000Y-86360000D03*
X204470000Y-86360000D03*
X207010000Y-83820000D03*
X204470000Y-83820000D03*
X207010000Y-81280000D03*
X204470000Y-81280000D03*
X207010000Y-78740000D03*
X204470000Y-78740000D03*
X207010000Y-76200000D03*
X204470000Y-76200000D03*
X207010000Y-73660000D03*
X204470000Y-73660000D03*
X207010000Y-71120000D03*
X204470000Y-71120000D03*
X207010000Y-68580000D03*
X204470000Y-68580000D03*
X207010000Y-66040000D03*
X204470000Y-66040000D03*
X207010000Y-63500000D03*
X204470000Y-63500000D03*
X207010000Y-60960000D03*
X204470000Y-60960000D03*
X207010000Y-58420000D03*
X204470000Y-58420000D03*
X207010000Y-55880000D03*
X204470000Y-55880000D03*
X207010000Y-53340000D03*
D12*
X204470000Y-53340000D03*
D13*
X143510000Y-60960000D03*
X135890000Y-76200000D03*
X143510000Y-63500000D03*
X135890000Y-73660000D03*
X143510000Y-66040000D03*
X135890000Y-71120000D03*
X143510000Y-68580000D03*
X135890000Y-68580000D03*
X143510000Y-71120000D03*
X135890000Y-66040000D03*
X143510000Y-73660000D03*
X135890000Y-63500000D03*
X143510000Y-76200000D03*
D14*
X135890000Y-60960000D03*
X151130000Y-60960000D03*
D13*
X158750000Y-76200000D03*
X151130000Y-63500000D03*
X158750000Y-73660000D03*
X151130000Y-66040000D03*
X158750000Y-71120000D03*
X151130000Y-68580000D03*
X158750000Y-68580000D03*
X151130000Y-71120000D03*
X158750000Y-66040000D03*
X151130000Y-73660000D03*
X158750000Y-63500000D03*
X151130000Y-76200000D03*
X158750000Y-60960000D03*
D14*
X166370000Y-60960000D03*
D13*
X173990000Y-76200000D03*
X166370000Y-63500000D03*
X173990000Y-73660000D03*
X166370000Y-66040000D03*
X173990000Y-71120000D03*
X166370000Y-68580000D03*
X173990000Y-68580000D03*
X166370000Y-71120000D03*
X173990000Y-66040000D03*
X166370000Y-73660000D03*
X173990000Y-63500000D03*
X166370000Y-76200000D03*
X173990000Y-60960000D03*
D14*
X181610000Y-60960000D03*
D13*
X189230000Y-76200000D03*
X181610000Y-63500000D03*
X189230000Y-73660000D03*
X181610000Y-66040000D03*
X189230000Y-71120000D03*
X181610000Y-68580000D03*
X189230000Y-68580000D03*
X181610000Y-71120000D03*
X189230000Y-66040000D03*
X181610000Y-73660000D03*
X189230000Y-63500000D03*
X181610000Y-76200000D03*
X189230000Y-60960000D03*
X143510000Y-86360000D03*
X135890000Y-101600000D03*
X143510000Y-88900000D03*
X135890000Y-99060000D03*
X143510000Y-91440000D03*
X135890000Y-96520000D03*
X143510000Y-93980000D03*
X135890000Y-93980000D03*
X143510000Y-96520000D03*
X135890000Y-91440000D03*
X143510000Y-99060000D03*
X135890000Y-88900000D03*
X143510000Y-101600000D03*
D14*
X135890000Y-86360000D03*
D13*
X158750000Y-86360000D03*
X151130000Y-101600000D03*
X158750000Y-88900000D03*
X151130000Y-99060000D03*
X158750000Y-91440000D03*
X151130000Y-96520000D03*
X158750000Y-93980000D03*
X151130000Y-93980000D03*
X158750000Y-96520000D03*
X151130000Y-91440000D03*
X158750000Y-99060000D03*
X151130000Y-88900000D03*
X158750000Y-101600000D03*
D14*
X151130000Y-86360000D03*
X166370000Y-86360000D03*
D13*
X173990000Y-101600000D03*
X166370000Y-88900000D03*
X173990000Y-99060000D03*
X166370000Y-91440000D03*
X173990000Y-96520000D03*
X166370000Y-93980000D03*
X173990000Y-93980000D03*
X166370000Y-96520000D03*
X173990000Y-91440000D03*
X166370000Y-99060000D03*
X173990000Y-88900000D03*
X166370000Y-101600000D03*
X173990000Y-86360000D03*
X189230000Y-86360000D03*
X181610000Y-101600000D03*
X189230000Y-88900000D03*
X181610000Y-99060000D03*
X189230000Y-91440000D03*
X181610000Y-96520000D03*
X189230000Y-93980000D03*
X181610000Y-93980000D03*
X189230000Y-96520000D03*
X181610000Y-91440000D03*
X189230000Y-99060000D03*
X181610000Y-88900000D03*
X189230000Y-101600000D03*
D14*
X181610000Y-86360000D03*
D15*
X178938600Y-92822000D03*
X190658900Y-72390000D03*
X179783100Y-95250000D03*
D16*
X166370000Y-76200000D02*
X166370000Y-77325100D01*
X166370000Y-77325100D02*
X167455100Y-77325100D01*
X167455100Y-77325100D02*
X171410000Y-81280000D01*
X181610000Y-76200000D02*
X181610000Y-77325100D01*
X181610000Y-77325100D02*
X182695100Y-77325100D01*
X182695100Y-77325100D02*
X186650000Y-81280000D01*
X151130000Y-101600000D02*
X151130000Y-100474900D01*
X151130000Y-100474900D02*
X150848700Y-100474900D01*
X150848700Y-100474900D02*
X144884800Y-94511000D01*
X144884800Y-94511000D02*
X144884800Y-85234800D01*
X144884800Y-85234800D02*
X140930000Y-81280000D01*
X204470000Y-68580000D02*
X188395500Y-52505500D01*
X135890000Y-54848587D02*
X135890000Y-60960000D01*
X188395500Y-52505500D02*
X138233087Y-52505500D01*
X138233087Y-52505500D02*
X135890000Y-54848587D01*
X204470000Y-69944900D02*
X204470000Y-71120000D01*
X204123400Y-69944900D02*
X204470000Y-69944900D01*
X187166000Y-52987500D02*
X204123400Y-69944900D01*
X138782500Y-52987500D02*
X187166000Y-52987500D01*
X137304999Y-54465001D02*
X137304999Y-54069999D01*
X138285001Y-53484999D02*
X138782500Y-52987500D01*
X135890000Y-62374900D02*
X136593200Y-62374900D01*
X136593200Y-62374900D02*
X137015100Y-61953000D01*
X137015100Y-61953000D02*
X137015100Y-54754900D01*
X135890000Y-63500000D02*
X135890000Y-62374900D01*
X137015100Y-54754900D02*
X137304999Y-54465001D01*
X137304999Y-54069999D02*
X137889999Y-53484999D01*
X137889999Y-53484999D02*
X138285001Y-53484999D01*
X204470000Y-73660000D02*
X203294900Y-73660000D01*
X135890000Y-68580000D02*
X137015100Y-68580000D01*
X137015100Y-68580000D02*
X137015100Y-68298700D01*
X137015100Y-68298700D02*
X143083800Y-62230000D01*
X143083800Y-62230000D02*
X143886600Y-62230000D01*
X143886600Y-62230000D02*
X152673900Y-53442700D01*
X152673900Y-53442700D02*
X184593100Y-53442700D01*
X184593100Y-53442700D02*
X185400000Y-54249600D01*
X185400000Y-54249600D02*
X185400000Y-54951000D01*
X185400000Y-54951000D02*
X203294900Y-72845900D01*
X203294900Y-72845900D02*
X203294900Y-73660000D01*
X204470000Y-81280000D02*
X204470000Y-80104900D01*
X189230000Y-63500000D02*
X203105200Y-77375200D01*
X203105200Y-77375200D02*
X203105200Y-79105400D01*
X203105200Y-79105400D02*
X204104700Y-80104900D01*
X204104700Y-80104900D02*
X204470000Y-80104900D01*
X204470000Y-88900000D02*
X204470000Y-87724900D01*
X181610000Y-60960000D02*
X182735100Y-60960000D01*
X182735100Y-60960000D02*
X186545100Y-64770000D01*
X186545100Y-64770000D02*
X189562800Y-64770000D01*
X189562800Y-64770000D02*
X198247500Y-73454700D01*
X198247500Y-73454700D02*
X198247500Y-75558500D01*
X198247500Y-75558500D02*
X203105300Y-80416300D01*
X203105300Y-80416300D02*
X203105300Y-86725500D01*
X203105300Y-86725500D02*
X204104700Y-87724900D01*
X204104700Y-87724900D02*
X204470000Y-87724900D01*
X182735100Y-66040000D02*
X182735100Y-66321300D01*
X182735100Y-66321300D02*
X188873900Y-72460100D01*
X188873900Y-72460100D02*
X189626400Y-72460100D01*
X189626400Y-72460100D02*
X202600600Y-85434300D01*
X202600600Y-85434300D02*
X202600600Y-88760900D01*
X202600600Y-88760900D02*
X204104600Y-90264900D01*
X204104600Y-90264900D02*
X204470000Y-90264900D01*
X204470000Y-91440000D02*
X204470000Y-90264900D01*
X181610000Y-66040000D02*
X182735100Y-66040000D01*
X181610000Y-71120000D02*
X182735100Y-71120000D01*
X182735100Y-71120000D02*
X186545100Y-74930000D01*
X186545100Y-74930000D02*
X189599300Y-74930000D01*
X189599300Y-74930000D02*
X195111500Y-80442200D01*
X195111500Y-80442200D02*
X195111500Y-84621500D01*
X195111500Y-84621500D02*
X204470000Y-93980000D01*
X203294900Y-99060000D02*
X204470000Y-99060000D01*
X147650100Y-103200100D02*
X199154800Y-103200100D01*
X144342501Y-99892501D02*
X147650100Y-103200100D01*
X144050001Y-100185001D02*
X144342501Y-99892501D01*
X142969999Y-100185001D02*
X144050001Y-100185001D01*
X142384999Y-99600001D02*
X142969999Y-100185001D01*
X142384999Y-98519999D02*
X142384999Y-99600001D01*
X199154800Y-103200100D02*
X203294900Y-99060000D01*
X142677499Y-98227499D02*
X142384999Y-98519999D01*
X137015100Y-92565100D02*
X142677499Y-98227499D01*
X137015100Y-91440000D02*
X137015100Y-92565100D01*
X135890000Y-91440000D02*
X137015100Y-91440000D01*
X189230000Y-99060000D02*
X189230000Y-97934900D01*
X189230000Y-76200000D02*
X189230000Y-77325100D01*
X189230000Y-77325100D02*
X190379500Y-78474600D01*
X190379500Y-78474600D02*
X190379500Y-97018500D01*
X190379500Y-97018500D02*
X189463100Y-97934900D01*
X189463100Y-97934900D02*
X189230000Y-97934900D01*
X205834900Y-99060000D02*
X205834900Y-98694800D01*
X205834900Y-98694800D02*
X205009500Y-97869400D01*
X205009500Y-97869400D02*
X203760600Y-97869400D01*
X203760600Y-97869400D02*
X202148600Y-99481400D01*
X202148600Y-99481400D02*
X201512100Y-99481400D01*
X201512100Y-99481400D02*
X198243600Y-102749900D01*
X198243600Y-102749900D02*
X173538700Y-102749900D01*
X173538700Y-102749900D02*
X171356900Y-100568000D01*
X143510000Y-77325100D02*
X144213600Y-77325100D01*
X144213600Y-77325100D02*
X152273800Y-85385300D01*
X152273800Y-85385300D02*
X152273800Y-86021900D01*
X152273800Y-86021900D02*
X152974800Y-86722900D01*
X152974800Y-86722900D02*
X152974800Y-88948200D01*
X152974800Y-88948200D02*
X153424900Y-89398300D01*
X153424900Y-89398300D02*
X153424900Y-97932600D01*
X153424900Y-97932600D02*
X158228700Y-102736400D01*
X158228700Y-102736400D02*
X169188500Y-102736400D01*
X169188500Y-102736400D02*
X171356900Y-100568000D01*
X171356900Y-100568000D02*
X172864900Y-99060000D01*
X207010000Y-99060000D02*
X205834900Y-99060000D01*
X143510000Y-76200000D02*
X143510000Y-77325100D01*
X173990000Y-99060000D02*
X172864900Y-99060000D01*
X165244900Y-96520000D02*
X165244900Y-96238700D01*
X165244900Y-96238700D02*
X159321000Y-90314800D01*
X159321000Y-90314800D02*
X158566000Y-90314800D01*
X158566000Y-90314800D02*
X149980500Y-81729300D01*
X149980500Y-81729300D02*
X149980500Y-75701400D01*
X149980500Y-75701400D02*
X150896800Y-74785100D01*
X150896800Y-74785100D02*
X151130000Y-74785100D01*
X151130000Y-73660000D02*
X151130000Y-74785100D01*
X166370000Y-96520000D02*
X165244900Y-96520000D01*
X207010000Y-82644900D02*
X206644700Y-82644900D01*
X206644700Y-82644900D02*
X205740000Y-81740200D01*
X205740000Y-81740200D02*
X205740000Y-78250600D01*
X205740000Y-78250600D02*
X205054200Y-77564800D01*
X205054200Y-77564800D02*
X204172400Y-77564800D01*
X204172400Y-77564800D02*
X202901300Y-76293700D01*
X202901300Y-76293700D02*
X202901300Y-75520000D01*
X202901300Y-75520000D02*
X189466500Y-62085200D01*
X189466500Y-62085200D02*
X187147500Y-62085200D01*
X187147500Y-62085200D02*
X184897100Y-59834800D01*
X184897100Y-59834800D02*
X178519200Y-59834800D01*
X178519200Y-59834800D02*
X176236500Y-62117500D01*
X176236500Y-62117500D02*
X172136900Y-62117500D01*
X172136900Y-62117500D02*
X169404100Y-59384700D01*
X169404100Y-59384700D02*
X163990400Y-59384700D01*
X163990400Y-59384700D02*
X159875100Y-63500000D01*
X207010000Y-83820000D02*
X207010000Y-82644900D01*
X158750000Y-63500000D02*
X159875100Y-63500000D01*
X158750000Y-58657300D02*
X164862700Y-58657300D01*
X164862700Y-58657300D02*
X168910000Y-54610000D01*
X153670000Y-54610000D02*
X157717300Y-58657300D01*
X157717300Y-58657300D02*
X158750000Y-58657300D01*
X158750000Y-59834900D02*
X158750000Y-58657300D01*
X158750000Y-60960000D02*
X158750000Y-62085100D01*
X154232600Y-81280000D02*
X153670000Y-81280000D01*
X159312600Y-86360000D02*
X154232600Y-81280000D01*
X154232600Y-81280000D02*
X154232600Y-66369300D01*
X154232600Y-66369300D02*
X158516800Y-62085100D01*
X158516800Y-62085100D02*
X158750000Y-62085100D01*
X158750000Y-60960000D02*
X158750000Y-59834900D01*
X159312600Y-86360000D02*
X159875100Y-86360000D01*
X158750000Y-86360000D02*
X159312600Y-86360000D01*
X168910000Y-82080000D02*
X164155100Y-82080000D01*
X164155100Y-82080000D02*
X159875100Y-86360000D01*
X172864900Y-86360000D02*
X172864900Y-86034900D01*
X172864900Y-86034900D02*
X168910000Y-82080000D01*
X168910000Y-82080000D02*
X168910000Y-81280000D01*
X189230000Y-60960000D02*
X189230000Y-59834900D01*
X189230000Y-59834900D02*
X184150000Y-54754900D01*
X184150000Y-54754900D02*
X184150000Y-54610000D01*
X174062500Y-59762400D02*
X179214900Y-54610000D01*
X179214900Y-54610000D02*
X184150000Y-54610000D01*
X173990000Y-59947400D02*
X173990000Y-59834900D01*
X173990000Y-59834900D02*
X174062500Y-59762400D01*
X174062500Y-59762400D02*
X168910000Y-54610000D01*
X173990000Y-60960000D02*
X173990000Y-59947400D01*
X142384900Y-86360000D02*
X142384900Y-85234900D01*
X142384900Y-85234900D02*
X138430000Y-81280000D01*
X189230000Y-86360000D02*
X189230000Y-85234900D01*
X184150000Y-81280000D02*
X188104900Y-85234900D01*
X188104900Y-85234900D02*
X189230000Y-85234900D01*
X143510000Y-60960000D02*
X143510000Y-59834900D01*
X143510000Y-59834900D02*
X138430000Y-54754900D01*
X138430000Y-54754900D02*
X138430000Y-54610000D01*
X143510000Y-86360000D02*
X142384900Y-86360000D01*
X173990000Y-86360000D02*
X172864900Y-86360000D01*
X135890000Y-73660000D02*
X135890000Y-72534900D01*
X143510000Y-66040000D02*
X142384900Y-66040000D01*
X142384900Y-66040000D02*
X142384900Y-66273100D01*
X142384900Y-66273100D02*
X136123100Y-72534900D01*
X136123100Y-72534900D02*
X135890000Y-72534900D01*
X144924800Y-73039100D02*
X144130800Y-72245100D01*
X144924800Y-77399600D02*
X144924800Y-73039100D01*
X157624900Y-90099700D02*
X144924800Y-77399600D01*
X157624900Y-99631200D02*
X157624900Y-90099700D01*
X144130800Y-72245100D02*
X143510000Y-72245100D01*
X158468600Y-100474900D02*
X157624900Y-99631200D01*
X143510000Y-72245100D02*
X143510000Y-71120000D01*
X158750000Y-100474900D02*
X158468600Y-100474900D01*
X158750000Y-101600000D02*
X158750000Y-100474900D01*
X151130000Y-99060000D02*
X151130000Y-97934900D01*
X143510000Y-73660000D02*
X143510000Y-74785100D01*
X143510000Y-74785100D02*
X143228700Y-74785100D01*
X143228700Y-74785100D02*
X142384300Y-75629500D01*
X142384300Y-75629500D02*
X142384300Y-79657700D01*
X142384300Y-79657700D02*
X149715200Y-86988600D01*
X149715200Y-86988600D02*
X149715200Y-96753300D01*
X149715200Y-96753300D02*
X150896800Y-97934900D01*
X150896800Y-97934900D02*
X151130000Y-97934900D01*
X158750000Y-88900000D02*
X158750000Y-87774900D01*
X151130000Y-63500000D02*
X151130000Y-64625100D01*
X151130000Y-64625100D02*
X151411400Y-64625100D01*
X151411400Y-64625100D02*
X152255100Y-65468800D01*
X152255100Y-65468800D02*
X152255100Y-81542300D01*
X152255100Y-81542300D02*
X158487700Y-87774900D01*
X158487700Y-87774900D02*
X158750000Y-87774900D01*
X166370000Y-93980000D02*
X165244900Y-93980000D01*
X165244900Y-93980000D02*
X160164900Y-88900000D01*
X160164900Y-88900000D02*
X158750000Y-88900000D01*
X151130000Y-68580000D02*
X151130000Y-66040000D01*
X164727100Y-74557100D02*
X158750000Y-68580000D01*
X165829999Y-74785001D02*
X165602098Y-74557100D01*
X166910001Y-74785001D02*
X165829999Y-74785001D01*
X167137902Y-74557100D02*
X166910001Y-74785001D01*
X171967800Y-74557100D02*
X167137902Y-74557100D01*
X172864900Y-73660000D02*
X171967800Y-74557100D01*
X165602098Y-74557100D02*
X164727100Y-74557100D01*
X173990000Y-73660000D02*
X172864900Y-73660000D01*
X158750000Y-66040000D02*
X158750000Y-67165100D01*
X166370000Y-73660000D02*
X165244900Y-73660000D01*
X165244900Y-73660000D02*
X165244900Y-73426900D01*
X165244900Y-73426900D02*
X158983100Y-67165100D01*
X158983100Y-67165100D02*
X158750000Y-67165100D01*
X167495100Y-60960000D02*
X167495100Y-61241300D01*
X167495100Y-61241300D02*
X173563800Y-67310000D01*
X173563800Y-67310000D02*
X174311900Y-67310000D01*
X174311900Y-67310000D02*
X179745100Y-72743200D01*
X179745100Y-72743200D02*
X179745100Y-88683200D01*
X179745100Y-88683200D02*
X181376800Y-90314900D01*
X181376800Y-90314900D02*
X181610000Y-90314900D01*
X181610000Y-91440000D02*
X181610000Y-90314900D01*
X166370000Y-60960000D02*
X167495100Y-60960000D01*
X181610000Y-99060000D02*
X181610000Y-97934900D01*
X166370000Y-63500000D02*
X167495100Y-63500000D01*
X167495100Y-63500000D02*
X167495100Y-63781300D01*
X167495100Y-63781300D02*
X173563800Y-69850000D01*
X173563800Y-69850000D02*
X174366700Y-69850000D01*
X174366700Y-69850000D02*
X179180200Y-74663500D01*
X179180200Y-74663500D02*
X179180200Y-92022200D01*
X179180200Y-92022200D02*
X180283100Y-93125100D01*
X180283100Y-93125100D02*
X180283100Y-94259200D01*
X180283100Y-94259200D02*
X180565300Y-94541400D01*
X180565300Y-94541400D02*
X180565300Y-95894700D01*
X180565300Y-95894700D02*
X180472800Y-95987200D01*
X180472800Y-95987200D02*
X180472800Y-97030900D01*
X180472800Y-97030900D02*
X181376800Y-97934900D01*
X181376800Y-97934900D02*
X181610000Y-97934900D01*
X167495100Y-71120000D02*
X168620200Y-72245100D01*
X168620200Y-72245100D02*
X174181200Y-72245100D01*
X174181200Y-72245100D02*
X178675500Y-76739400D01*
X178675500Y-76739400D02*
X178675500Y-92558900D01*
X178675500Y-92558900D02*
X178938600Y-92822000D01*
X166370000Y-71120000D02*
X167495100Y-71120000D01*
X189230000Y-67165100D02*
X189511300Y-67165100D01*
X189511300Y-67165100D02*
X190658900Y-68312700D01*
X190658900Y-68312700D02*
X190658900Y-72390000D01*
X189230000Y-66040000D02*
X189230000Y-67165100D01*
X189230000Y-88900000D02*
X189230000Y-90025100D01*
X173990000Y-101600000D02*
X175115100Y-101600000D01*
X175115100Y-101600000D02*
X176240200Y-100474900D01*
X176240200Y-100474900D02*
X181793400Y-100474900D01*
X181793400Y-100474900D02*
X185420000Y-96848300D01*
X185420000Y-96848300D02*
X185420000Y-93601900D01*
X185420000Y-93601900D02*
X188996800Y-90025100D01*
X188996800Y-90025100D02*
X189230000Y-90025100D01*
X167495100Y-99060000D02*
X171305100Y-95250000D01*
X171305100Y-95250000D02*
X179783100Y-95250000D01*
X166370000Y-99060000D02*
X167495100Y-99060000D01*
X189230000Y-91440000D02*
X189230000Y-92565100D01*
X189230000Y-101600000D02*
X189230000Y-100474900D01*
X189230000Y-100474900D02*
X188948700Y-100474900D01*
X188948700Y-100474900D02*
X188096500Y-99622700D01*
X188096500Y-99622700D02*
X188096500Y-93465400D01*
X188096500Y-93465400D02*
X188996800Y-92565100D01*
X188996800Y-92565100D02*
X189230000Y-92565100D01*
X166370000Y-68580000D02*
X166370000Y-67454900D01*
X189230000Y-73660000D02*
X188104900Y-73660000D01*
X188104900Y-73660000D02*
X184294900Y-69850000D01*
X184294900Y-69850000D02*
X181129200Y-69850000D01*
X181129200Y-69850000D02*
X176049200Y-64770000D01*
X176049200Y-64770000D02*
X173645800Y-64770000D01*
X173645800Y-64770000D02*
X168710700Y-59834900D01*
X168710700Y-59834900D02*
X165435400Y-59834900D01*
X165435400Y-59834900D02*
X165195300Y-60075000D01*
X165195300Y-60075000D02*
X165195300Y-66513400D01*
X165195300Y-66513400D02*
X166136800Y-67454900D01*
X166136800Y-67454900D02*
X166370000Y-67454900D01*
X204470000Y-95344900D02*
X204835200Y-95344900D01*
X204835200Y-95344900D02*
X205647000Y-94533100D01*
X205647000Y-94533100D02*
X205647000Y-93456100D01*
X205647000Y-93456100D02*
X204995700Y-92804800D01*
X204995700Y-92804800D02*
X204172900Y-92804800D01*
X204172900Y-92804800D02*
X200913000Y-89544900D01*
X200913000Y-89544900D02*
X200913000Y-85342900D01*
X200913000Y-85342900D02*
X200912900Y-85342900D01*
X200912900Y-85342900D02*
X189230000Y-73660000D01*
X204470000Y-96520000D02*
X204470000Y-95344900D01*
M02*
