M48
; DRILL file {KiCad (5.1.12)-1} date 10/05/22 17:58:03
; FORMAT={-:-/ absolute / metric / decimal}
; #@! TF.CreationDate,2022-10-05T17:58:03-05:00
; #@! TF.GenerationSoftware,Kicad,Pcbnew,(5.1.12)-1
; #@! TF.FileFunction,Plated,1,2,PTH
FMAT,2
METRIC
T1C0.400
T2C0.800
T3C1.000
%
G90
G05
T1
X155.089Y-57.649
X167.884Y-78.134
X171.678Y-67.24
X172.61Y-65.366
X173.563Y-76.583
T2
X114.3Y-53.695
X114.3Y-56.235
X114.3Y-58.775
X114.3Y-61.315
X114.3Y-63.855
X114.3Y-66.395
X114.3Y-68.935
X114.3Y-71.475
X114.3Y-74.015
X114.3Y-76.555
X114.3Y-79.095
X114.3Y-81.635
X114.3Y-84.175
X114.3Y-86.715
X120.65Y-95.25
X123.15Y-95.25
X129.54Y-53.695
X129.54Y-56.235
X129.54Y-58.775
X129.54Y-61.315
X129.54Y-63.855
X129.54Y-66.395
X129.54Y-68.935
X129.54Y-71.475
X129.54Y-74.015
X129.54Y-76.555
X129.54Y-79.095
X129.54Y-81.635
X129.54Y-84.175
X129.54Y-86.715
X144.78Y-53.695
X144.78Y-56.235
X144.78Y-58.775
X144.78Y-61.315
X144.78Y-63.855
X144.78Y-66.395
X144.78Y-68.935
X144.78Y-71.475
X144.78Y-74.015
X144.78Y-76.555
X144.78Y-79.095
X144.78Y-81.635
X144.78Y-84.175
X144.78Y-86.715
X151.13Y-95.25
X153.63Y-95.25
X160.02Y-53.695
X160.02Y-56.235
X160.02Y-58.775
X160.02Y-61.315
X160.02Y-63.855
X160.02Y-66.395
X160.02Y-68.935
X160.02Y-71.475
X160.02Y-74.015
X160.02Y-76.555
X160.02Y-79.095
X160.02Y-81.635
X160.02Y-84.175
X160.02Y-86.715
T3
X175.26Y-46.99
X175.26Y-49.53
X175.26Y-52.07
X175.26Y-54.61
X175.26Y-57.15
X175.26Y-59.69
X175.26Y-62.23
X175.26Y-64.77
X175.26Y-67.31
X175.26Y-69.85
X175.26Y-72.39
X175.26Y-74.93
X175.26Y-77.47
X175.26Y-80.01
X175.26Y-82.55
X175.26Y-85.09
X175.26Y-87.63
X175.26Y-90.17
X175.26Y-92.71
X175.26Y-95.25
X177.8Y-46.99
X177.8Y-49.53
X177.8Y-52.07
X177.8Y-54.61
X177.8Y-57.15
X177.8Y-59.69
X177.8Y-62.23
X177.8Y-64.77
X177.8Y-67.31
X177.8Y-69.85
X177.8Y-72.39
X177.8Y-74.93
X177.8Y-77.47
X177.8Y-80.01
X177.8Y-82.55
X177.8Y-85.09
X177.8Y-87.63
X177.8Y-90.17
X177.8Y-92.71
X177.8Y-95.25
T0
M30
