G04 #@! TF.GenerationSoftware,KiCad,Pcbnew,(5.1.12)-1*
G04 #@! TF.CreationDate,2022-10-05T17:57:38-05:00*
G04 #@! TF.ProjectId,memory,6d656d6f-7279-42e6-9b69-6361645f7063,rev?*
G04 #@! TF.SameCoordinates,Original*
G04 #@! TF.FileFunction,Soldermask,Bot*
G04 #@! TF.FilePolarity,Negative*
%FSLAX46Y46*%
G04 Gerber Fmt 4.6, Leading zero omitted, Abs format (unit mm)*
G04 Created by KiCad (PCBNEW (5.1.12)-1) date 2022-10-05 17:57:38*
%MOMM*%
%LPD*%
G01*
G04 APERTURE LIST*
%ADD10C,1.600000*%
%ADD11O,1.700000X1.700000*%
%ADD12R,1.700000X1.700000*%
%ADD13R,1.600000X1.600000*%
%ADD14O,1.600000X1.600000*%
G04 APERTURE END LIST*
D10*
X120650000Y-95250000D03*
X123150000Y-95250000D03*
X153630000Y-95250000D03*
X151130000Y-95250000D03*
D11*
X177800000Y-95250000D03*
X175260000Y-95250000D03*
X177800000Y-92710000D03*
X175260000Y-92710000D03*
X177800000Y-90170000D03*
X175260000Y-90170000D03*
X177800000Y-87630000D03*
X175260000Y-87630000D03*
X177800000Y-85090000D03*
X175260000Y-85090000D03*
X177800000Y-82550000D03*
X175260000Y-82550000D03*
X177800000Y-80010000D03*
X175260000Y-80010000D03*
X177800000Y-77470000D03*
X175260000Y-77470000D03*
X177800000Y-74930000D03*
X175260000Y-74930000D03*
X177800000Y-72390000D03*
X175260000Y-72390000D03*
X177800000Y-69850000D03*
X175260000Y-69850000D03*
X177800000Y-67310000D03*
X175260000Y-67310000D03*
X177800000Y-64770000D03*
X175260000Y-64770000D03*
X177800000Y-62230000D03*
X175260000Y-62230000D03*
X177800000Y-59690000D03*
X175260000Y-59690000D03*
X177800000Y-57150000D03*
X175260000Y-57150000D03*
X177800000Y-54610000D03*
X175260000Y-54610000D03*
X177800000Y-52070000D03*
X175260000Y-52070000D03*
X177800000Y-49530000D03*
X175260000Y-49530000D03*
X177800000Y-46990000D03*
D12*
X175260000Y-46990000D03*
D13*
X114300000Y-53695000D03*
D14*
X129540000Y-86715000D03*
X114300000Y-56235000D03*
X129540000Y-84175000D03*
X114300000Y-58775000D03*
X129540000Y-81635000D03*
X114300000Y-61315000D03*
X129540000Y-79095000D03*
X114300000Y-63855000D03*
X129540000Y-76555000D03*
X114300000Y-66395000D03*
X129540000Y-74015000D03*
X114300000Y-68935000D03*
X129540000Y-71475000D03*
X114300000Y-71475000D03*
X129540000Y-68935000D03*
X114300000Y-74015000D03*
X129540000Y-66395000D03*
X114300000Y-76555000D03*
X129540000Y-63855000D03*
X114300000Y-79095000D03*
X129540000Y-61315000D03*
X114300000Y-81635000D03*
X129540000Y-58775000D03*
X114300000Y-84175000D03*
X129540000Y-56235000D03*
X114300000Y-86715000D03*
X129540000Y-53695000D03*
X160020000Y-53695000D03*
X144780000Y-86715000D03*
X160020000Y-56235000D03*
X144780000Y-84175000D03*
X160020000Y-58775000D03*
X144780000Y-81635000D03*
X160020000Y-61315000D03*
X144780000Y-79095000D03*
X160020000Y-63855000D03*
X144780000Y-76555000D03*
X160020000Y-66395000D03*
X144780000Y-74015000D03*
X160020000Y-68935000D03*
X144780000Y-71475000D03*
X160020000Y-71475000D03*
X144780000Y-68935000D03*
X160020000Y-74015000D03*
X144780000Y-66395000D03*
X160020000Y-76555000D03*
X144780000Y-63855000D03*
X160020000Y-79095000D03*
X144780000Y-61315000D03*
X160020000Y-81635000D03*
X144780000Y-58775000D03*
X160020000Y-84175000D03*
X144780000Y-56235000D03*
X160020000Y-86715000D03*
D13*
X144780000Y-53695000D03*
M02*
