M48
; DRILL file {KiCad (5.1.12)-1} date 10/05/22 17:50:50
; FORMAT={-:-/ absolute / metric / decimal}
; #@! TF.CreationDate,2022-10-05T17:50:50-05:00
; #@! TF.GenerationSoftware,Kicad,Pcbnew,(5.1.12)-1
; #@! TF.FileFunction,Plated,1,2,PTH
FMAT,2
METRIC
T1C0.800
T2C1.000
T3C1.600
%
G90
G05
T1
X48.0Y-50.0
X50.5Y-50.0
X94.0Y-50.0
X96.5Y-50.0
X141.0Y-50.0
X143.5Y-50.0
X186.0Y-50.0
X188.5Y-50.0
X232.0Y-50.0
X234.5Y-50.0
T2
X48.46Y-57.0
X48.46Y-59.54
X48.46Y-62.08
X48.46Y-64.62
X48.46Y-67.16
X48.46Y-69.7
X48.46Y-72.24
X48.46Y-74.78
X48.46Y-77.32
X48.46Y-79.86
X48.46Y-82.4
X48.46Y-84.94
X48.46Y-87.48
X48.46Y-90.02
X48.46Y-92.56
X48.46Y-95.1
X48.46Y-97.64
X48.46Y-100.18
X48.46Y-102.72
X48.46Y-105.26
X48.46Y-116.0
X51.0Y-57.0
X51.0Y-59.54
X51.0Y-62.08
X51.0Y-64.62
X51.0Y-67.16
X51.0Y-69.7
X51.0Y-72.24
X51.0Y-74.78
X51.0Y-77.32
X51.0Y-79.86
X51.0Y-82.4
X51.0Y-84.94
X51.0Y-87.48
X51.0Y-90.02
X51.0Y-92.56
X51.0Y-95.1
X51.0Y-97.64
X51.0Y-100.18
X51.0Y-102.72
X51.0Y-105.26
X51.0Y-116.0
X94.46Y-57.0
X94.46Y-59.54
X94.46Y-62.08
X94.46Y-64.62
X94.46Y-67.16
X94.46Y-69.7
X94.46Y-72.24
X94.46Y-74.78
X94.46Y-77.32
X94.46Y-79.86
X94.46Y-82.4
X94.46Y-84.94
X94.46Y-87.48
X94.46Y-90.02
X94.46Y-92.56
X94.46Y-95.1
X94.46Y-97.64
X94.46Y-100.18
X94.46Y-102.72
X94.46Y-105.26
X97.0Y-57.0
X97.0Y-59.54
X97.0Y-62.08
X97.0Y-64.62
X97.0Y-67.16
X97.0Y-69.7
X97.0Y-72.24
X97.0Y-74.78
X97.0Y-77.32
X97.0Y-79.86
X97.0Y-82.4
X97.0Y-84.94
X97.0Y-87.48
X97.0Y-90.02
X97.0Y-92.56
X97.0Y-95.1
X97.0Y-97.64
X97.0Y-100.18
X97.0Y-102.72
X97.0Y-105.26
X141.46Y-57.0
X141.46Y-59.54
X141.46Y-62.08
X141.46Y-64.62
X141.46Y-67.16
X141.46Y-69.7
X141.46Y-72.24
X141.46Y-74.78
X141.46Y-77.32
X141.46Y-79.86
X141.46Y-82.4
X141.46Y-84.94
X141.46Y-87.48
X141.46Y-90.02
X141.46Y-92.56
X141.46Y-95.1
X141.46Y-97.64
X141.46Y-100.18
X141.46Y-102.72
X141.46Y-105.26
X144.0Y-57.0
X144.0Y-59.54
X144.0Y-62.08
X144.0Y-64.62
X144.0Y-67.16
X144.0Y-69.7
X144.0Y-72.24
X144.0Y-74.78
X144.0Y-77.32
X144.0Y-79.86
X144.0Y-82.4
X144.0Y-84.94
X144.0Y-87.48
X144.0Y-90.02
X144.0Y-92.56
X144.0Y-95.1
X144.0Y-97.64
X144.0Y-100.18
X144.0Y-102.72
X144.0Y-105.26
X186.46Y-57.0
X186.46Y-59.54
X186.46Y-62.08
X186.46Y-64.62
X186.46Y-67.16
X186.46Y-69.7
X186.46Y-72.24
X186.46Y-74.78
X186.46Y-77.32
X186.46Y-79.86
X186.46Y-82.4
X186.46Y-84.94
X186.46Y-87.48
X186.46Y-90.02
X186.46Y-92.56
X186.46Y-95.1
X186.46Y-97.64
X186.46Y-100.18
X186.46Y-102.72
X186.46Y-105.26
X189.0Y-57.0
X189.0Y-59.54
X189.0Y-62.08
X189.0Y-64.62
X189.0Y-67.16
X189.0Y-69.7
X189.0Y-72.24
X189.0Y-74.78
X189.0Y-77.32
X189.0Y-79.86
X189.0Y-82.4
X189.0Y-84.94
X189.0Y-87.48
X189.0Y-90.02
X189.0Y-92.56
X189.0Y-95.1
X189.0Y-97.64
X189.0Y-100.18
X189.0Y-102.72
X189.0Y-105.26
X232.46Y-57.0
X232.46Y-59.54
X232.46Y-62.08
X232.46Y-64.62
X232.46Y-67.16
X232.46Y-69.7
X232.46Y-72.24
X232.46Y-74.78
X232.46Y-77.32
X232.46Y-79.86
X232.46Y-82.4
X232.46Y-84.94
X232.46Y-87.48
X232.46Y-90.02
X232.46Y-92.56
X232.46Y-95.1
X232.46Y-97.64
X232.46Y-100.18
X232.46Y-102.72
X232.46Y-105.26
X235.0Y-57.0
X235.0Y-59.54
X235.0Y-62.08
X235.0Y-64.62
X235.0Y-67.16
X235.0Y-69.7
X235.0Y-72.24
X235.0Y-74.78
X235.0Y-77.32
X235.0Y-79.86
X235.0Y-82.4
X235.0Y-84.94
X235.0Y-87.48
X235.0Y-90.02
X235.0Y-92.56
X235.0Y-95.1
X235.0Y-97.64
X235.0Y-100.18
X235.0Y-102.72
X235.0Y-105.26
T3
X31.3Y-40.0
X36.0Y-37.0
X36.0Y-43.0
T0
M30
