G04 #@! TF.GenerationSoftware,KiCad,Pcbnew,(5.1.12)-1*
G04 #@! TF.CreationDate,2022-10-05T17:50:00-05:00*
G04 #@! TF.ProjectId,motherboard,6d6f7468-6572-4626-9f61-72642e6b6963,rev?*
G04 #@! TF.SameCoordinates,Original*
G04 #@! TF.FileFunction,Legend,Bot*
G04 #@! TF.FilePolarity,Positive*
%FSLAX46Y46*%
G04 Gerber Fmt 4.6, Leading zero omitted, Abs format (unit mm)*
G04 Created by KiCad (PCBNEW (5.1.12)-1) date 2022-10-05 17:50:00*
%MOMM*%
%LPD*%
G01*
G04 APERTURE LIST*
%ADD10O,1.700000X1.700000*%
%ADD11R,1.700000X1.700000*%
%ADD12C,1.600000*%
%ADD13R,2.600000X2.600000*%
%ADD14C,2.600000*%
G04 APERTURE END LIST*
%LPC*%
D10*
X232460000Y-105260000D03*
X235000000Y-105260000D03*
X232460000Y-102720000D03*
X235000000Y-102720000D03*
X232460000Y-100180000D03*
X235000000Y-100180000D03*
X232460000Y-97640000D03*
X235000000Y-97640000D03*
X232460000Y-95100000D03*
X235000000Y-95100000D03*
X232460000Y-92560000D03*
X235000000Y-92560000D03*
X232460000Y-90020000D03*
X235000000Y-90020000D03*
X232460000Y-87480000D03*
X235000000Y-87480000D03*
X232460000Y-84940000D03*
X235000000Y-84940000D03*
X232460000Y-82400000D03*
X235000000Y-82400000D03*
X232460000Y-79860000D03*
X235000000Y-79860000D03*
X232460000Y-77320000D03*
X235000000Y-77320000D03*
X232460000Y-74780000D03*
X235000000Y-74780000D03*
X232460000Y-72240000D03*
X235000000Y-72240000D03*
X232460000Y-69700000D03*
X235000000Y-69700000D03*
X232460000Y-67160000D03*
X235000000Y-67160000D03*
X232460000Y-64620000D03*
X235000000Y-64620000D03*
X232460000Y-62080000D03*
X235000000Y-62080000D03*
X232460000Y-59540000D03*
X235000000Y-59540000D03*
X232460000Y-57000000D03*
D11*
X235000000Y-57000000D03*
D10*
X186460000Y-105260000D03*
X189000000Y-105260000D03*
X186460000Y-102720000D03*
X189000000Y-102720000D03*
X186460000Y-100180000D03*
X189000000Y-100180000D03*
X186460000Y-97640000D03*
X189000000Y-97640000D03*
X186460000Y-95100000D03*
X189000000Y-95100000D03*
X186460000Y-92560000D03*
X189000000Y-92560000D03*
X186460000Y-90020000D03*
X189000000Y-90020000D03*
X186460000Y-87480000D03*
X189000000Y-87480000D03*
X186460000Y-84940000D03*
X189000000Y-84940000D03*
X186460000Y-82400000D03*
X189000000Y-82400000D03*
X186460000Y-79860000D03*
X189000000Y-79860000D03*
X186460000Y-77320000D03*
X189000000Y-77320000D03*
X186460000Y-74780000D03*
X189000000Y-74780000D03*
X186460000Y-72240000D03*
X189000000Y-72240000D03*
X186460000Y-69700000D03*
X189000000Y-69700000D03*
X186460000Y-67160000D03*
X189000000Y-67160000D03*
X186460000Y-64620000D03*
X189000000Y-64620000D03*
X186460000Y-62080000D03*
X189000000Y-62080000D03*
X186460000Y-59540000D03*
X189000000Y-59540000D03*
X186460000Y-57000000D03*
D11*
X189000000Y-57000000D03*
D10*
X141460000Y-105260000D03*
X144000000Y-105260000D03*
X141460000Y-102720000D03*
X144000000Y-102720000D03*
X141460000Y-100180000D03*
X144000000Y-100180000D03*
X141460000Y-97640000D03*
X144000000Y-97640000D03*
X141460000Y-95100000D03*
X144000000Y-95100000D03*
X141460000Y-92560000D03*
X144000000Y-92560000D03*
X141460000Y-90020000D03*
X144000000Y-90020000D03*
X141460000Y-87480000D03*
X144000000Y-87480000D03*
X141460000Y-84940000D03*
X144000000Y-84940000D03*
X141460000Y-82400000D03*
X144000000Y-82400000D03*
X141460000Y-79860000D03*
X144000000Y-79860000D03*
X141460000Y-77320000D03*
X144000000Y-77320000D03*
X141460000Y-74780000D03*
X144000000Y-74780000D03*
X141460000Y-72240000D03*
X144000000Y-72240000D03*
X141460000Y-69700000D03*
X144000000Y-69700000D03*
X141460000Y-67160000D03*
X144000000Y-67160000D03*
X141460000Y-64620000D03*
X144000000Y-64620000D03*
X141460000Y-62080000D03*
X144000000Y-62080000D03*
X141460000Y-59540000D03*
X144000000Y-59540000D03*
X141460000Y-57000000D03*
D11*
X144000000Y-57000000D03*
D10*
X94460000Y-105260000D03*
X97000000Y-105260000D03*
X94460000Y-102720000D03*
X97000000Y-102720000D03*
X94460000Y-100180000D03*
X97000000Y-100180000D03*
X94460000Y-97640000D03*
X97000000Y-97640000D03*
X94460000Y-95100000D03*
X97000000Y-95100000D03*
X94460000Y-92560000D03*
X97000000Y-92560000D03*
X94460000Y-90020000D03*
X97000000Y-90020000D03*
X94460000Y-87480000D03*
X97000000Y-87480000D03*
X94460000Y-84940000D03*
X97000000Y-84940000D03*
X94460000Y-82400000D03*
X97000000Y-82400000D03*
X94460000Y-79860000D03*
X97000000Y-79860000D03*
X94460000Y-77320000D03*
X97000000Y-77320000D03*
X94460000Y-74780000D03*
X97000000Y-74780000D03*
X94460000Y-72240000D03*
X97000000Y-72240000D03*
X94460000Y-69700000D03*
X97000000Y-69700000D03*
X94460000Y-67160000D03*
X97000000Y-67160000D03*
X94460000Y-64620000D03*
X97000000Y-64620000D03*
X94460000Y-62080000D03*
X97000000Y-62080000D03*
X94460000Y-59540000D03*
X97000000Y-59540000D03*
X94460000Y-57000000D03*
D11*
X97000000Y-57000000D03*
D10*
X48460000Y-105260000D03*
X51000000Y-105260000D03*
X48460000Y-102720000D03*
X51000000Y-102720000D03*
X48460000Y-100180000D03*
X51000000Y-100180000D03*
X48460000Y-97640000D03*
X51000000Y-97640000D03*
X48460000Y-95100000D03*
X51000000Y-95100000D03*
X48460000Y-92560000D03*
X51000000Y-92560000D03*
X48460000Y-90020000D03*
X51000000Y-90020000D03*
X48460000Y-87480000D03*
X51000000Y-87480000D03*
X48460000Y-84940000D03*
X51000000Y-84940000D03*
X48460000Y-82400000D03*
X51000000Y-82400000D03*
X48460000Y-79860000D03*
X51000000Y-79860000D03*
X48460000Y-77320000D03*
X51000000Y-77320000D03*
X48460000Y-74780000D03*
X51000000Y-74780000D03*
X48460000Y-72240000D03*
X51000000Y-72240000D03*
X48460000Y-69700000D03*
X51000000Y-69700000D03*
X48460000Y-67160000D03*
X51000000Y-67160000D03*
X48460000Y-64620000D03*
X51000000Y-64620000D03*
X48460000Y-62080000D03*
X51000000Y-62080000D03*
X48460000Y-59540000D03*
X51000000Y-59540000D03*
X48460000Y-57000000D03*
D11*
X51000000Y-57000000D03*
D12*
X232000000Y-50000000D03*
X234500000Y-50000000D03*
X96500000Y-50000000D03*
X94000000Y-50000000D03*
X186000000Y-50000000D03*
X188500000Y-50000000D03*
X143500000Y-50000000D03*
X141000000Y-50000000D03*
X48000000Y-50000000D03*
X50500000Y-50000000D03*
D13*
X36000000Y-43000000D03*
D14*
X36000000Y-37000000D03*
X31300000Y-40000000D03*
D11*
X51000000Y-116000000D03*
D10*
X48460000Y-116000000D03*
M02*
