%FSLAX45Y45*%
G04 Gerber Fmt 4.5, Leading zero omitted, Abs format (unit mm)*
G04 Created by KiCad (PCBNEW (5.1.12)-1) date 2022-10-05 17:51:13*
%MOMM*%
%LPD*%
G01*
G04 APERTURE LIST*
%TA.AperFunction,Profile*%
%ADD10C,0.050000*%
%TD*%
%ADD11C,0.200000*%
%ADD12C,0.300000*%
G04 APERTURE END LIST*
D10*
X2921000Y-12192000D02*
X2921000Y-2794000D01*
X24511000Y-12192000D02*
X2921000Y-12192000D01*
X24511000Y-2794000D02*
X24511000Y-12192000D01*
X2921000Y-2794000D02*
X24511000Y-2794000D01*
D11*
X4760000Y-4960000D02*
X4840000Y-5040000D01*
X4840000Y-4960000D02*
X4760000Y-5040000D01*
X5010000Y-4960000D02*
X5090000Y-5040000D01*
X5090000Y-4960000D02*
X5010000Y-5040000D01*
X9360000Y-4960000D02*
X9440000Y-5040000D01*
X9440000Y-4960000D02*
X9360000Y-5040000D01*
X9610000Y-4960000D02*
X9690000Y-5040000D01*
X9690000Y-4960000D02*
X9610000Y-5040000D01*
X14060000Y-4960000D02*
X14140000Y-5040000D01*
X14140000Y-4960000D02*
X14060000Y-5040000D01*
X14310000Y-4960000D02*
X14390000Y-5040000D01*
X14390000Y-4960000D02*
X14310000Y-5040000D01*
X18560000Y-4960000D02*
X18640000Y-5040000D01*
X18640000Y-4960000D02*
X18560000Y-5040000D01*
X18810000Y-4960000D02*
X18890000Y-5040000D01*
X18890000Y-4960000D02*
X18810000Y-5040000D01*
X23160000Y-4960000D02*
X23240000Y-5040000D01*
X23240000Y-4960000D02*
X23160000Y-5040000D01*
X23410000Y-4960000D02*
X23490000Y-5040000D01*
X23490000Y-4960000D02*
X23410000Y-5040000D01*
X4896000Y-5700000D02*
G75*
G03*
X4896000Y-5700000I-50000J0D01*
G01*
X4896000Y-5954000D02*
G75*
G03*
X4896000Y-5954000I-50000J0D01*
G01*
X4896000Y-6208000D02*
G75*
G03*
X4896000Y-6208000I-50000J0D01*
G01*
X4896000Y-6462000D02*
G75*
G03*
X4896000Y-6462000I-50000J0D01*
G01*
X4896000Y-6716000D02*
G75*
G03*
X4896000Y-6716000I-50000J0D01*
G01*
X4896000Y-6970000D02*
G75*
G03*
X4896000Y-6970000I-50000J0D01*
G01*
X4896000Y-7224000D02*
G75*
G03*
X4896000Y-7224000I-50000J0D01*
G01*
X4896000Y-7478000D02*
G75*
G03*
X4896000Y-7478000I-50000J0D01*
G01*
X4896000Y-7732000D02*
G75*
G03*
X4896000Y-7732000I-50000J0D01*
G01*
X4896000Y-7986000D02*
G75*
G03*
X4896000Y-7986000I-50000J0D01*
G01*
X4896000Y-8240000D02*
G75*
G03*
X4896000Y-8240000I-50000J0D01*
G01*
X4896000Y-8494000D02*
G75*
G03*
X4896000Y-8494000I-50000J0D01*
G01*
X4896000Y-8748000D02*
G75*
G03*
X4896000Y-8748000I-50000J0D01*
G01*
X4896000Y-9002000D02*
G75*
G03*
X4896000Y-9002000I-50000J0D01*
G01*
X4896000Y-9256000D02*
G75*
G03*
X4896000Y-9256000I-50000J0D01*
G01*
X4896000Y-9510000D02*
G75*
G03*
X4896000Y-9510000I-50000J0D01*
G01*
X4896000Y-9764000D02*
G75*
G03*
X4896000Y-9764000I-50000J0D01*
G01*
X4896000Y-10018000D02*
G75*
G03*
X4896000Y-10018000I-50000J0D01*
G01*
X4896000Y-10272000D02*
G75*
G03*
X4896000Y-10272000I-50000J0D01*
G01*
X4896000Y-10526000D02*
G75*
G03*
X4896000Y-10526000I-50000J0D01*
G01*
X4896000Y-11600000D02*
G75*
G03*
X4896000Y-11600000I-50000J0D01*
G01*
X5150000Y-5700000D02*
G75*
G03*
X5150000Y-5700000I-50000J0D01*
G01*
X5150000Y-5954000D02*
G75*
G03*
X5150000Y-5954000I-50000J0D01*
G01*
X5150000Y-6208000D02*
G75*
G03*
X5150000Y-6208000I-50000J0D01*
G01*
X5150000Y-6462000D02*
G75*
G03*
X5150000Y-6462000I-50000J0D01*
G01*
X5150000Y-6716000D02*
G75*
G03*
X5150000Y-6716000I-50000J0D01*
G01*
X5150000Y-6970000D02*
G75*
G03*
X5150000Y-6970000I-50000J0D01*
G01*
X5150000Y-7224000D02*
G75*
G03*
X5150000Y-7224000I-50000J0D01*
G01*
X5150000Y-7478000D02*
G75*
G03*
X5150000Y-7478000I-50000J0D01*
G01*
X5150000Y-7732000D02*
G75*
G03*
X5150000Y-7732000I-50000J0D01*
G01*
X5150000Y-7986000D02*
G75*
G03*
X5150000Y-7986000I-50000J0D01*
G01*
X5150000Y-8240000D02*
G75*
G03*
X5150000Y-8240000I-50000J0D01*
G01*
X5150000Y-8494000D02*
G75*
G03*
X5150000Y-8494000I-50000J0D01*
G01*
X5150000Y-8748000D02*
G75*
G03*
X5150000Y-8748000I-50000J0D01*
G01*
X5150000Y-9002000D02*
G75*
G03*
X5150000Y-9002000I-50000J0D01*
G01*
X5150000Y-9256000D02*
G75*
G03*
X5150000Y-9256000I-50000J0D01*
G01*
X5150000Y-9510000D02*
G75*
G03*
X5150000Y-9510000I-50000J0D01*
G01*
X5150000Y-9764000D02*
G75*
G03*
X5150000Y-9764000I-50000J0D01*
G01*
X5150000Y-10018000D02*
G75*
G03*
X5150000Y-10018000I-50000J0D01*
G01*
X5150000Y-10272000D02*
G75*
G03*
X5150000Y-10272000I-50000J0D01*
G01*
X5150000Y-10526000D02*
G75*
G03*
X5150000Y-10526000I-50000J0D01*
G01*
X5150000Y-11600000D02*
G75*
G03*
X5150000Y-11600000I-50000J0D01*
G01*
X9496000Y-5700000D02*
G75*
G03*
X9496000Y-5700000I-50000J0D01*
G01*
X9496000Y-5954000D02*
G75*
G03*
X9496000Y-5954000I-50000J0D01*
G01*
X9496000Y-6208000D02*
G75*
G03*
X9496000Y-6208000I-50000J0D01*
G01*
X9496000Y-6462000D02*
G75*
G03*
X9496000Y-6462000I-50000J0D01*
G01*
X9496000Y-6716000D02*
G75*
G03*
X9496000Y-6716000I-50000J0D01*
G01*
X9496000Y-6970000D02*
G75*
G03*
X9496000Y-6970000I-50000J0D01*
G01*
X9496000Y-7224000D02*
G75*
G03*
X9496000Y-7224000I-50000J0D01*
G01*
X9496000Y-7478000D02*
G75*
G03*
X9496000Y-7478000I-50000J0D01*
G01*
X9496000Y-7732000D02*
G75*
G03*
X9496000Y-7732000I-50000J0D01*
G01*
X9496000Y-7986000D02*
G75*
G03*
X9496000Y-7986000I-50000J0D01*
G01*
X9496000Y-8240000D02*
G75*
G03*
X9496000Y-8240000I-50000J0D01*
G01*
X9496000Y-8494000D02*
G75*
G03*
X9496000Y-8494000I-50000J0D01*
G01*
X9496000Y-8748000D02*
G75*
G03*
X9496000Y-8748000I-50000J0D01*
G01*
X9496000Y-9002000D02*
G75*
G03*
X9496000Y-9002000I-50000J0D01*
G01*
X9496000Y-9256000D02*
G75*
G03*
X9496000Y-9256000I-50000J0D01*
G01*
X9496000Y-9510000D02*
G75*
G03*
X9496000Y-9510000I-50000J0D01*
G01*
X9496000Y-9764000D02*
G75*
G03*
X9496000Y-9764000I-50000J0D01*
G01*
X9496000Y-10018000D02*
G75*
G03*
X9496000Y-10018000I-50000J0D01*
G01*
X9496000Y-10272000D02*
G75*
G03*
X9496000Y-10272000I-50000J0D01*
G01*
X9496000Y-10526000D02*
G75*
G03*
X9496000Y-10526000I-50000J0D01*
G01*
X9750000Y-5700000D02*
G75*
G03*
X9750000Y-5700000I-50000J0D01*
G01*
X9750000Y-5954000D02*
G75*
G03*
X9750000Y-5954000I-50000J0D01*
G01*
X9750000Y-6208000D02*
G75*
G03*
X9750000Y-6208000I-50000J0D01*
G01*
X9750000Y-6462000D02*
G75*
G03*
X9750000Y-6462000I-50000J0D01*
G01*
X9750000Y-6716000D02*
G75*
G03*
X9750000Y-6716000I-50000J0D01*
G01*
X9750000Y-6970000D02*
G75*
G03*
X9750000Y-6970000I-50000J0D01*
G01*
X9750000Y-7224000D02*
G75*
G03*
X9750000Y-7224000I-50000J0D01*
G01*
X9750000Y-7478000D02*
G75*
G03*
X9750000Y-7478000I-50000J0D01*
G01*
X9750000Y-7732000D02*
G75*
G03*
X9750000Y-7732000I-50000J0D01*
G01*
X9750000Y-7986000D02*
G75*
G03*
X9750000Y-7986000I-50000J0D01*
G01*
X9750000Y-8240000D02*
G75*
G03*
X9750000Y-8240000I-50000J0D01*
G01*
X9750000Y-8494000D02*
G75*
G03*
X9750000Y-8494000I-50000J0D01*
G01*
X9750000Y-8748000D02*
G75*
G03*
X9750000Y-8748000I-50000J0D01*
G01*
X9750000Y-9002000D02*
G75*
G03*
X9750000Y-9002000I-50000J0D01*
G01*
X9750000Y-9256000D02*
G75*
G03*
X9750000Y-9256000I-50000J0D01*
G01*
X9750000Y-9510000D02*
G75*
G03*
X9750000Y-9510000I-50000J0D01*
G01*
X9750000Y-9764000D02*
G75*
G03*
X9750000Y-9764000I-50000J0D01*
G01*
X9750000Y-10018000D02*
G75*
G03*
X9750000Y-10018000I-50000J0D01*
G01*
X9750000Y-10272000D02*
G75*
G03*
X9750000Y-10272000I-50000J0D01*
G01*
X9750000Y-10526000D02*
G75*
G03*
X9750000Y-10526000I-50000J0D01*
G01*
X14196000Y-5700000D02*
G75*
G03*
X14196000Y-5700000I-50000J0D01*
G01*
X14196000Y-5954000D02*
G75*
G03*
X14196000Y-5954000I-50000J0D01*
G01*
X14196000Y-6208000D02*
G75*
G03*
X14196000Y-6208000I-50000J0D01*
G01*
X14196000Y-6462000D02*
G75*
G03*
X14196000Y-6462000I-50000J0D01*
G01*
X14196000Y-6716000D02*
G75*
G03*
X14196000Y-6716000I-50000J0D01*
G01*
X14196000Y-6970000D02*
G75*
G03*
X14196000Y-6970000I-50000J0D01*
G01*
X14196000Y-7224000D02*
G75*
G03*
X14196000Y-7224000I-50000J0D01*
G01*
X14196000Y-7478000D02*
G75*
G03*
X14196000Y-7478000I-50000J0D01*
G01*
X14196000Y-7732000D02*
G75*
G03*
X14196000Y-7732000I-50000J0D01*
G01*
X14196000Y-7986000D02*
G75*
G03*
X14196000Y-7986000I-50000J0D01*
G01*
X14196000Y-8240000D02*
G75*
G03*
X14196000Y-8240000I-50000J0D01*
G01*
X14196000Y-8494000D02*
G75*
G03*
X14196000Y-8494000I-50000J0D01*
G01*
X14196000Y-8748000D02*
G75*
G03*
X14196000Y-8748000I-50000J0D01*
G01*
X14196000Y-9002000D02*
G75*
G03*
X14196000Y-9002000I-50000J0D01*
G01*
X14196000Y-9256000D02*
G75*
G03*
X14196000Y-9256000I-50000J0D01*
G01*
X14196000Y-9510000D02*
G75*
G03*
X14196000Y-9510000I-50000J0D01*
G01*
X14196000Y-9764000D02*
G75*
G03*
X14196000Y-9764000I-50000J0D01*
G01*
X14196000Y-10018000D02*
G75*
G03*
X14196000Y-10018000I-50000J0D01*
G01*
X14196000Y-10272000D02*
G75*
G03*
X14196000Y-10272000I-50000J0D01*
G01*
X14196000Y-10526000D02*
G75*
G03*
X14196000Y-10526000I-50000J0D01*
G01*
X14450000Y-5700000D02*
G75*
G03*
X14450000Y-5700000I-50000J0D01*
G01*
X14450000Y-5954000D02*
G75*
G03*
X14450000Y-5954000I-50000J0D01*
G01*
X14450000Y-6208000D02*
G75*
G03*
X14450000Y-6208000I-50000J0D01*
G01*
X14450000Y-6462000D02*
G75*
G03*
X14450000Y-6462000I-50000J0D01*
G01*
X14450000Y-6716000D02*
G75*
G03*
X14450000Y-6716000I-50000J0D01*
G01*
X14450000Y-6970000D02*
G75*
G03*
X14450000Y-6970000I-50000J0D01*
G01*
X14450000Y-7224000D02*
G75*
G03*
X14450000Y-7224000I-50000J0D01*
G01*
X14450000Y-7478000D02*
G75*
G03*
X14450000Y-7478000I-50000J0D01*
G01*
X14450000Y-7732000D02*
G75*
G03*
X14450000Y-7732000I-50000J0D01*
G01*
X14450000Y-7986000D02*
G75*
G03*
X14450000Y-7986000I-50000J0D01*
G01*
X14450000Y-8240000D02*
G75*
G03*
X14450000Y-8240000I-50000J0D01*
G01*
X14450000Y-8494000D02*
G75*
G03*
X14450000Y-8494000I-50000J0D01*
G01*
X14450000Y-8748000D02*
G75*
G03*
X14450000Y-8748000I-50000J0D01*
G01*
X14450000Y-9002000D02*
G75*
G03*
X14450000Y-9002000I-50000J0D01*
G01*
X14450000Y-9256000D02*
G75*
G03*
X14450000Y-9256000I-50000J0D01*
G01*
X14450000Y-9510000D02*
G75*
G03*
X14450000Y-9510000I-50000J0D01*
G01*
X14450000Y-9764000D02*
G75*
G03*
X14450000Y-9764000I-50000J0D01*
G01*
X14450000Y-10018000D02*
G75*
G03*
X14450000Y-10018000I-50000J0D01*
G01*
X14450000Y-10272000D02*
G75*
G03*
X14450000Y-10272000I-50000J0D01*
G01*
X14450000Y-10526000D02*
G75*
G03*
X14450000Y-10526000I-50000J0D01*
G01*
X18696000Y-5700000D02*
G75*
G03*
X18696000Y-5700000I-50000J0D01*
G01*
X18696000Y-5954000D02*
G75*
G03*
X18696000Y-5954000I-50000J0D01*
G01*
X18696000Y-6208000D02*
G75*
G03*
X18696000Y-6208000I-50000J0D01*
G01*
X18696000Y-6462000D02*
G75*
G03*
X18696000Y-6462000I-50000J0D01*
G01*
X18696000Y-6716000D02*
G75*
G03*
X18696000Y-6716000I-50000J0D01*
G01*
X18696000Y-6970000D02*
G75*
G03*
X18696000Y-6970000I-50000J0D01*
G01*
X18696000Y-7224000D02*
G75*
G03*
X18696000Y-7224000I-50000J0D01*
G01*
X18696000Y-7478000D02*
G75*
G03*
X18696000Y-7478000I-50000J0D01*
G01*
X18696000Y-7732000D02*
G75*
G03*
X18696000Y-7732000I-50000J0D01*
G01*
X18696000Y-7986000D02*
G75*
G03*
X18696000Y-7986000I-50000J0D01*
G01*
X18696000Y-8240000D02*
G75*
G03*
X18696000Y-8240000I-50000J0D01*
G01*
X18696000Y-8494000D02*
G75*
G03*
X18696000Y-8494000I-50000J0D01*
G01*
X18696000Y-8748000D02*
G75*
G03*
X18696000Y-8748000I-50000J0D01*
G01*
X18696000Y-9002000D02*
G75*
G03*
X18696000Y-9002000I-50000J0D01*
G01*
X18696000Y-9256000D02*
G75*
G03*
X18696000Y-9256000I-50000J0D01*
G01*
X18696000Y-9510000D02*
G75*
G03*
X18696000Y-9510000I-50000J0D01*
G01*
X18696000Y-9764000D02*
G75*
G03*
X18696000Y-9764000I-50000J0D01*
G01*
X18696000Y-10018000D02*
G75*
G03*
X18696000Y-10018000I-50000J0D01*
G01*
X18696000Y-10272000D02*
G75*
G03*
X18696000Y-10272000I-50000J0D01*
G01*
X18696000Y-10526000D02*
G75*
G03*
X18696000Y-10526000I-50000J0D01*
G01*
X18950000Y-5700000D02*
G75*
G03*
X18950000Y-5700000I-50000J0D01*
G01*
X18950000Y-5954000D02*
G75*
G03*
X18950000Y-5954000I-50000J0D01*
G01*
X18950000Y-6208000D02*
G75*
G03*
X18950000Y-6208000I-50000J0D01*
G01*
X18950000Y-6462000D02*
G75*
G03*
X18950000Y-6462000I-50000J0D01*
G01*
X18950000Y-6716000D02*
G75*
G03*
X18950000Y-6716000I-50000J0D01*
G01*
X18950000Y-6970000D02*
G75*
G03*
X18950000Y-6970000I-50000J0D01*
G01*
X18950000Y-7224000D02*
G75*
G03*
X18950000Y-7224000I-50000J0D01*
G01*
X18950000Y-7478000D02*
G75*
G03*
X18950000Y-7478000I-50000J0D01*
G01*
X18950000Y-7732000D02*
G75*
G03*
X18950000Y-7732000I-50000J0D01*
G01*
X18950000Y-7986000D02*
G75*
G03*
X18950000Y-7986000I-50000J0D01*
G01*
X18950000Y-8240000D02*
G75*
G03*
X18950000Y-8240000I-50000J0D01*
G01*
X18950000Y-8494000D02*
G75*
G03*
X18950000Y-8494000I-50000J0D01*
G01*
X18950000Y-8748000D02*
G75*
G03*
X18950000Y-8748000I-50000J0D01*
G01*
X18950000Y-9002000D02*
G75*
G03*
X18950000Y-9002000I-50000J0D01*
G01*
X18950000Y-9256000D02*
G75*
G03*
X18950000Y-9256000I-50000J0D01*
G01*
X18950000Y-9510000D02*
G75*
G03*
X18950000Y-9510000I-50000J0D01*
G01*
X18950000Y-9764000D02*
G75*
G03*
X18950000Y-9764000I-50000J0D01*
G01*
X18950000Y-10018000D02*
G75*
G03*
X18950000Y-10018000I-50000J0D01*
G01*
X18950000Y-10272000D02*
G75*
G03*
X18950000Y-10272000I-50000J0D01*
G01*
X18950000Y-10526000D02*
G75*
G03*
X18950000Y-10526000I-50000J0D01*
G01*
X23296000Y-5700000D02*
G75*
G03*
X23296000Y-5700000I-50000J0D01*
G01*
X23296000Y-5954000D02*
G75*
G03*
X23296000Y-5954000I-50000J0D01*
G01*
X23296000Y-6208000D02*
G75*
G03*
X23296000Y-6208000I-50000J0D01*
G01*
X23296000Y-6462000D02*
G75*
G03*
X23296000Y-6462000I-50000J0D01*
G01*
X23296000Y-6716000D02*
G75*
G03*
X23296000Y-6716000I-50000J0D01*
G01*
X23296000Y-6970000D02*
G75*
G03*
X23296000Y-6970000I-50000J0D01*
G01*
X23296000Y-7224000D02*
G75*
G03*
X23296000Y-7224000I-50000J0D01*
G01*
X23296000Y-7478000D02*
G75*
G03*
X23296000Y-7478000I-50000J0D01*
G01*
X23296000Y-7732000D02*
G75*
G03*
X23296000Y-7732000I-50000J0D01*
G01*
X23296000Y-7986000D02*
G75*
G03*
X23296000Y-7986000I-50000J0D01*
G01*
X23296000Y-8240000D02*
G75*
G03*
X23296000Y-8240000I-50000J0D01*
G01*
X23296000Y-8494000D02*
G75*
G03*
X23296000Y-8494000I-50000J0D01*
G01*
X23296000Y-8748000D02*
G75*
G03*
X23296000Y-8748000I-50000J0D01*
G01*
X23296000Y-9002000D02*
G75*
G03*
X23296000Y-9002000I-50000J0D01*
G01*
X23296000Y-9256000D02*
G75*
G03*
X23296000Y-9256000I-50000J0D01*
G01*
X23296000Y-9510000D02*
G75*
G03*
X23296000Y-9510000I-50000J0D01*
G01*
X23296000Y-9764000D02*
G75*
G03*
X23296000Y-9764000I-50000J0D01*
G01*
X23296000Y-10018000D02*
G75*
G03*
X23296000Y-10018000I-50000J0D01*
G01*
X23296000Y-10272000D02*
G75*
G03*
X23296000Y-10272000I-50000J0D01*
G01*
X23296000Y-10526000D02*
G75*
G03*
X23296000Y-10526000I-50000J0D01*
G01*
X23550000Y-5700000D02*
G75*
G03*
X23550000Y-5700000I-50000J0D01*
G01*
X23550000Y-5954000D02*
G75*
G03*
X23550000Y-5954000I-50000J0D01*
G01*
X23550000Y-6208000D02*
G75*
G03*
X23550000Y-6208000I-50000J0D01*
G01*
X23550000Y-6462000D02*
G75*
G03*
X23550000Y-6462000I-50000J0D01*
G01*
X23550000Y-6716000D02*
G75*
G03*
X23550000Y-6716000I-50000J0D01*
G01*
X23550000Y-6970000D02*
G75*
G03*
X23550000Y-6970000I-50000J0D01*
G01*
X23550000Y-7224000D02*
G75*
G03*
X23550000Y-7224000I-50000J0D01*
G01*
X23550000Y-7478000D02*
G75*
G03*
X23550000Y-7478000I-50000J0D01*
G01*
X23550000Y-7732000D02*
G75*
G03*
X23550000Y-7732000I-50000J0D01*
G01*
X23550000Y-7986000D02*
G75*
G03*
X23550000Y-7986000I-50000J0D01*
G01*
X23550000Y-8240000D02*
G75*
G03*
X23550000Y-8240000I-50000J0D01*
G01*
X23550000Y-8494000D02*
G75*
G03*
X23550000Y-8494000I-50000J0D01*
G01*
X23550000Y-8748000D02*
G75*
G03*
X23550000Y-8748000I-50000J0D01*
G01*
X23550000Y-9002000D02*
G75*
G03*
X23550000Y-9002000I-50000J0D01*
G01*
X23550000Y-9256000D02*
G75*
G03*
X23550000Y-9256000I-50000J0D01*
G01*
X23550000Y-9510000D02*
G75*
G03*
X23550000Y-9510000I-50000J0D01*
G01*
X23550000Y-9764000D02*
G75*
G03*
X23550000Y-9764000I-50000J0D01*
G01*
X23550000Y-10018000D02*
G75*
G03*
X23550000Y-10018000I-50000J0D01*
G01*
X23550000Y-10272000D02*
G75*
G03*
X23550000Y-10272000I-50000J0D01*
G01*
X23550000Y-10526000D02*
G75*
G03*
X23550000Y-10526000I-50000J0D01*
G01*
X3130000Y-3920000D02*
X3130000Y-4080000D01*
X3050000Y-4000000D02*
X3210000Y-4000000D01*
X3600000Y-3620000D02*
X3600000Y-3780000D01*
X3520000Y-3700000D02*
X3680000Y-3700000D01*
X3600000Y-4220000D02*
X3600000Y-4380000D01*
X3520000Y-4300000D02*
X3680000Y-4300000D01*
D12*
X3204928Y-12660214D02*
X3204928Y-12360214D01*
X3276357Y-12360214D01*
X3319214Y-12374500D01*
X3347786Y-12403071D01*
X3362071Y-12431643D01*
X3376357Y-12488786D01*
X3376357Y-12531643D01*
X3362071Y-12588786D01*
X3347786Y-12617357D01*
X3319214Y-12645929D01*
X3276357Y-12660214D01*
X3204928Y-12660214D01*
X3504928Y-12660214D02*
X3504928Y-12460214D01*
X3504928Y-12517357D02*
X3519214Y-12488786D01*
X3533500Y-12474500D01*
X3562071Y-12460214D01*
X3590643Y-12460214D01*
X3690643Y-12660214D02*
X3690643Y-12460214D01*
X3690643Y-12360214D02*
X3676357Y-12374500D01*
X3690643Y-12388786D01*
X3704928Y-12374500D01*
X3690643Y-12360214D01*
X3690643Y-12388786D01*
X3876357Y-12660214D02*
X3847786Y-12645929D01*
X3833500Y-12617357D01*
X3833500Y-12360214D01*
X4033500Y-12660214D02*
X4004928Y-12645929D01*
X3990643Y-12617357D01*
X3990643Y-12360214D01*
X4376357Y-12660214D02*
X4376357Y-12360214D01*
X4476357Y-12574500D01*
X4576357Y-12360214D01*
X4576357Y-12660214D01*
X4847786Y-12660214D02*
X4847786Y-12503071D01*
X4833500Y-12474500D01*
X4804928Y-12460214D01*
X4747786Y-12460214D01*
X4719214Y-12474500D01*
X4847786Y-12645929D02*
X4819214Y-12660214D01*
X4747786Y-12660214D01*
X4719214Y-12645929D01*
X4704928Y-12617357D01*
X4704928Y-12588786D01*
X4719214Y-12560214D01*
X4747786Y-12545929D01*
X4819214Y-12545929D01*
X4847786Y-12531643D01*
X4990643Y-12460214D02*
X4990643Y-12760214D01*
X4990643Y-12474500D02*
X5019214Y-12460214D01*
X5076357Y-12460214D01*
X5104928Y-12474500D01*
X5119214Y-12488786D01*
X5133500Y-12517357D01*
X5133500Y-12603071D01*
X5119214Y-12631643D01*
X5104928Y-12645929D01*
X5076357Y-12660214D01*
X5019214Y-12660214D01*
X4990643Y-12645929D01*
X5262071Y-12631643D02*
X5276357Y-12645929D01*
X5262071Y-12660214D01*
X5247786Y-12645929D01*
X5262071Y-12631643D01*
X5262071Y-12660214D01*
X5262071Y-12474500D02*
X5276357Y-12488786D01*
X5262071Y-12503071D01*
X5247786Y-12488786D01*
X5262071Y-12474500D01*
X5262071Y-12503071D01*
X2838500Y-13114500D02*
X2918500Y-13194500D01*
X2918500Y-13114500D02*
X2838500Y-13194500D01*
X3262071Y-12990214D02*
X3290643Y-12990214D01*
X3319214Y-13004500D01*
X3333500Y-13018786D01*
X3347786Y-13047357D01*
X3362071Y-13104500D01*
X3362071Y-13175929D01*
X3347786Y-13233071D01*
X3333500Y-13261643D01*
X3319214Y-13275929D01*
X3290643Y-13290214D01*
X3262071Y-13290214D01*
X3233500Y-13275929D01*
X3219214Y-13261643D01*
X3204928Y-13233071D01*
X3190643Y-13175929D01*
X3190643Y-13104500D01*
X3204928Y-13047357D01*
X3219214Y-13018786D01*
X3233500Y-13004500D01*
X3262071Y-12990214D01*
X3490643Y-13261643D02*
X3504928Y-13275929D01*
X3490643Y-13290214D01*
X3476357Y-13275929D01*
X3490643Y-13261643D01*
X3490643Y-13290214D01*
X3676357Y-13118786D02*
X3647786Y-13104500D01*
X3633500Y-13090214D01*
X3619214Y-13061643D01*
X3619214Y-13047357D01*
X3633500Y-13018786D01*
X3647786Y-13004500D01*
X3676357Y-12990214D01*
X3733500Y-12990214D01*
X3762071Y-13004500D01*
X3776357Y-13018786D01*
X3790643Y-13047357D01*
X3790643Y-13061643D01*
X3776357Y-13090214D01*
X3762071Y-13104500D01*
X3733500Y-13118786D01*
X3676357Y-13118786D01*
X3647786Y-13133071D01*
X3633500Y-13147357D01*
X3619214Y-13175929D01*
X3619214Y-13233071D01*
X3633500Y-13261643D01*
X3647786Y-13275929D01*
X3676357Y-13290214D01*
X3733500Y-13290214D01*
X3762071Y-13275929D01*
X3776357Y-13261643D01*
X3790643Y-13233071D01*
X3790643Y-13175929D01*
X3776357Y-13147357D01*
X3762071Y-13133071D01*
X3733500Y-13118786D01*
X3976357Y-12990214D02*
X4004928Y-12990214D01*
X4033500Y-13004500D01*
X4047786Y-13018786D01*
X4062071Y-13047357D01*
X4076357Y-13104500D01*
X4076357Y-13175929D01*
X4062071Y-13233071D01*
X4047786Y-13261643D01*
X4033500Y-13275929D01*
X4004928Y-13290214D01*
X3976357Y-13290214D01*
X3947786Y-13275929D01*
X3933500Y-13261643D01*
X3919214Y-13233071D01*
X3904928Y-13175929D01*
X3904928Y-13104500D01*
X3919214Y-13047357D01*
X3933500Y-13018786D01*
X3947786Y-13004500D01*
X3976357Y-12990214D01*
X4262071Y-12990214D02*
X4290643Y-12990214D01*
X4319214Y-13004500D01*
X4333500Y-13018786D01*
X4347786Y-13047357D01*
X4362071Y-13104500D01*
X4362071Y-13175929D01*
X4347786Y-13233071D01*
X4333500Y-13261643D01*
X4319214Y-13275929D01*
X4290643Y-13290214D01*
X4262071Y-13290214D01*
X4233500Y-13275929D01*
X4219214Y-13261643D01*
X4204928Y-13233071D01*
X4190643Y-13175929D01*
X4190643Y-13104500D01*
X4204928Y-13047357D01*
X4219214Y-13018786D01*
X4233500Y-13004500D01*
X4262071Y-12990214D01*
X4490643Y-13290214D02*
X4490643Y-13090214D01*
X4490643Y-13118786D02*
X4504928Y-13104500D01*
X4533500Y-13090214D01*
X4576357Y-13090214D01*
X4604928Y-13104500D01*
X4619214Y-13133071D01*
X4619214Y-13290214D01*
X4619214Y-13133071D02*
X4633500Y-13104500D01*
X4662071Y-13090214D01*
X4704928Y-13090214D01*
X4733500Y-13104500D01*
X4747786Y-13133071D01*
X4747786Y-13290214D01*
X4890643Y-13290214D02*
X4890643Y-13090214D01*
X4890643Y-13118786D02*
X4904928Y-13104500D01*
X4933500Y-13090214D01*
X4976357Y-13090214D01*
X5004928Y-13104500D01*
X5019214Y-13133071D01*
X5019214Y-13290214D01*
X5019214Y-13133071D02*
X5033500Y-13104500D01*
X5062071Y-13090214D01*
X5104928Y-13090214D01*
X5133500Y-13104500D01*
X5147786Y-13133071D01*
X5147786Y-13290214D01*
X5733500Y-12975929D02*
X5476357Y-13361643D01*
X6119214Y-12990214D02*
X6147786Y-12990214D01*
X6176357Y-13004500D01*
X6190643Y-13018786D01*
X6204928Y-13047357D01*
X6219214Y-13104500D01*
X6219214Y-13175929D01*
X6204928Y-13233071D01*
X6190643Y-13261643D01*
X6176357Y-13275929D01*
X6147786Y-13290214D01*
X6119214Y-13290214D01*
X6090643Y-13275929D01*
X6076357Y-13261643D01*
X6062071Y-13233071D01*
X6047786Y-13175929D01*
X6047786Y-13104500D01*
X6062071Y-13047357D01*
X6076357Y-13018786D01*
X6090643Y-13004500D01*
X6119214Y-12990214D01*
X6347786Y-13261643D02*
X6362071Y-13275929D01*
X6347786Y-13290214D01*
X6333500Y-13275929D01*
X6347786Y-13261643D01*
X6347786Y-13290214D01*
X6547786Y-12990214D02*
X6576357Y-12990214D01*
X6604928Y-13004500D01*
X6619214Y-13018786D01*
X6633500Y-13047357D01*
X6647786Y-13104500D01*
X6647786Y-13175929D01*
X6633500Y-13233071D01*
X6619214Y-13261643D01*
X6604928Y-13275929D01*
X6576357Y-13290214D01*
X6547786Y-13290214D01*
X6519214Y-13275929D01*
X6504928Y-13261643D01*
X6490643Y-13233071D01*
X6476357Y-13175929D01*
X6476357Y-13104500D01*
X6490643Y-13047357D01*
X6504928Y-13018786D01*
X6519214Y-13004500D01*
X6547786Y-12990214D01*
X6747786Y-12990214D02*
X6933500Y-12990214D01*
X6833500Y-13104500D01*
X6876357Y-13104500D01*
X6904928Y-13118786D01*
X6919214Y-13133071D01*
X6933500Y-13161643D01*
X6933500Y-13233071D01*
X6919214Y-13261643D01*
X6904928Y-13275929D01*
X6876357Y-13290214D01*
X6790643Y-13290214D01*
X6762071Y-13275929D01*
X6747786Y-13261643D01*
X7219214Y-13290214D02*
X7047786Y-13290214D01*
X7133500Y-13290214D02*
X7133500Y-12990214D01*
X7104928Y-13033071D01*
X7076357Y-13061643D01*
X7047786Y-13075929D01*
X7490643Y-12990214D02*
X7347786Y-12990214D01*
X7333500Y-13133071D01*
X7347786Y-13118786D01*
X7376357Y-13104500D01*
X7447786Y-13104500D01*
X7476357Y-13118786D01*
X7490643Y-13133071D01*
X7504928Y-13161643D01*
X7504928Y-13233071D01*
X7490643Y-13261643D01*
X7476357Y-13275929D01*
X7447786Y-13290214D01*
X7376357Y-13290214D01*
X7347786Y-13275929D01*
X7333500Y-13261643D01*
X7619214Y-12990214D02*
X7619214Y-13047357D01*
X7733500Y-12990214D02*
X7733500Y-13047357D01*
X8176357Y-13404500D02*
X8162071Y-13390214D01*
X8133500Y-13347357D01*
X8119214Y-13318786D01*
X8104928Y-13275929D01*
X8090643Y-13204500D01*
X8090643Y-13147357D01*
X8104928Y-13075929D01*
X8119214Y-13033071D01*
X8133500Y-13004500D01*
X8162071Y-12961643D01*
X8176357Y-12947357D01*
X8447786Y-13290214D02*
X8276357Y-13290214D01*
X8362071Y-13290214D02*
X8362071Y-12990214D01*
X8333500Y-13033071D01*
X8304928Y-13061643D01*
X8276357Y-13075929D01*
X8633500Y-12990214D02*
X8662071Y-12990214D01*
X8690643Y-13004500D01*
X8704928Y-13018786D01*
X8719214Y-13047357D01*
X8733500Y-13104500D01*
X8733500Y-13175929D01*
X8719214Y-13233071D01*
X8704928Y-13261643D01*
X8690643Y-13275929D01*
X8662071Y-13290214D01*
X8633500Y-13290214D01*
X8604928Y-13275929D01*
X8590643Y-13261643D01*
X8576357Y-13233071D01*
X8562071Y-13175929D01*
X8562071Y-13104500D01*
X8576357Y-13047357D01*
X8590643Y-13018786D01*
X8604928Y-13004500D01*
X8633500Y-12990214D01*
X9090643Y-13290214D02*
X9090643Y-12990214D01*
X9219214Y-13290214D02*
X9219214Y-13133071D01*
X9204928Y-13104500D01*
X9176357Y-13090214D01*
X9133500Y-13090214D01*
X9104928Y-13104500D01*
X9090643Y-13118786D01*
X9404928Y-13290214D02*
X9376357Y-13275929D01*
X9362071Y-13261643D01*
X9347786Y-13233071D01*
X9347786Y-13147357D01*
X9362071Y-13118786D01*
X9376357Y-13104500D01*
X9404928Y-13090214D01*
X9447786Y-13090214D01*
X9476357Y-13104500D01*
X9490643Y-13118786D01*
X9504928Y-13147357D01*
X9504928Y-13233071D01*
X9490643Y-13261643D01*
X9476357Y-13275929D01*
X9447786Y-13290214D01*
X9404928Y-13290214D01*
X9676357Y-13290214D02*
X9647786Y-13275929D01*
X9633500Y-13247357D01*
X9633500Y-12990214D01*
X9904928Y-13275929D02*
X9876357Y-13290214D01*
X9819214Y-13290214D01*
X9790643Y-13275929D01*
X9776357Y-13247357D01*
X9776357Y-13133071D01*
X9790643Y-13104500D01*
X9819214Y-13090214D01*
X9876357Y-13090214D01*
X9904928Y-13104500D01*
X9919214Y-13133071D01*
X9919214Y-13161643D01*
X9776357Y-13190214D01*
X10033500Y-13275929D02*
X10062071Y-13290214D01*
X10119214Y-13290214D01*
X10147786Y-13275929D01*
X10162071Y-13247357D01*
X10162071Y-13233071D01*
X10147786Y-13204500D01*
X10119214Y-13190214D01*
X10076357Y-13190214D01*
X10047786Y-13175929D01*
X10033500Y-13147357D01*
X10033500Y-13133071D01*
X10047786Y-13104500D01*
X10076357Y-13090214D01*
X10119214Y-13090214D01*
X10147786Y-13104500D01*
X10262071Y-13404500D02*
X10276357Y-13390214D01*
X10304928Y-13347357D01*
X10319214Y-13318786D01*
X10333500Y-13275929D01*
X10347786Y-13204500D01*
X10347786Y-13147357D01*
X10333500Y-13075929D01*
X10319214Y-13033071D01*
X10304928Y-13004500D01*
X10276357Y-12961643D01*
X10262071Y-12947357D01*
X2918500Y-13550500D02*
G75*
G03*
X2918500Y-13550500I-50000J0D01*
G01*
X3362071Y-13686214D02*
X3190643Y-13686214D01*
X3276357Y-13686214D02*
X3276357Y-13386214D01*
X3247786Y-13429071D01*
X3219214Y-13457643D01*
X3190643Y-13471929D01*
X3490643Y-13657643D02*
X3504928Y-13671929D01*
X3490643Y-13686214D01*
X3476357Y-13671929D01*
X3490643Y-13657643D01*
X3490643Y-13686214D01*
X3690643Y-13386214D02*
X3719214Y-13386214D01*
X3747786Y-13400500D01*
X3762071Y-13414786D01*
X3776357Y-13443357D01*
X3790643Y-13500500D01*
X3790643Y-13571929D01*
X3776357Y-13629071D01*
X3762071Y-13657643D01*
X3747786Y-13671929D01*
X3719214Y-13686214D01*
X3690643Y-13686214D01*
X3662071Y-13671929D01*
X3647786Y-13657643D01*
X3633500Y-13629071D01*
X3619214Y-13571929D01*
X3619214Y-13500500D01*
X3633500Y-13443357D01*
X3647786Y-13414786D01*
X3662071Y-13400500D01*
X3690643Y-13386214D01*
X3976357Y-13386214D02*
X4004928Y-13386214D01*
X4033500Y-13400500D01*
X4047786Y-13414786D01*
X4062071Y-13443357D01*
X4076357Y-13500500D01*
X4076357Y-13571929D01*
X4062071Y-13629071D01*
X4047786Y-13657643D01*
X4033500Y-13671929D01*
X4004928Y-13686214D01*
X3976357Y-13686214D01*
X3947786Y-13671929D01*
X3933500Y-13657643D01*
X3919214Y-13629071D01*
X3904928Y-13571929D01*
X3904928Y-13500500D01*
X3919214Y-13443357D01*
X3933500Y-13414786D01*
X3947786Y-13400500D01*
X3976357Y-13386214D01*
X4262071Y-13386214D02*
X4290643Y-13386214D01*
X4319214Y-13400500D01*
X4333500Y-13414786D01*
X4347786Y-13443357D01*
X4362071Y-13500500D01*
X4362071Y-13571929D01*
X4347786Y-13629071D01*
X4333500Y-13657643D01*
X4319214Y-13671929D01*
X4290643Y-13686214D01*
X4262071Y-13686214D01*
X4233500Y-13671929D01*
X4219214Y-13657643D01*
X4204928Y-13629071D01*
X4190643Y-13571929D01*
X4190643Y-13500500D01*
X4204928Y-13443357D01*
X4219214Y-13414786D01*
X4233500Y-13400500D01*
X4262071Y-13386214D01*
X4490643Y-13686214D02*
X4490643Y-13486214D01*
X4490643Y-13514786D02*
X4504928Y-13500500D01*
X4533500Y-13486214D01*
X4576357Y-13486214D01*
X4604928Y-13500500D01*
X4619214Y-13529071D01*
X4619214Y-13686214D01*
X4619214Y-13529071D02*
X4633500Y-13500500D01*
X4662071Y-13486214D01*
X4704928Y-13486214D01*
X4733500Y-13500500D01*
X4747786Y-13529071D01*
X4747786Y-13686214D01*
X4890643Y-13686214D02*
X4890643Y-13486214D01*
X4890643Y-13514786D02*
X4904928Y-13500500D01*
X4933500Y-13486214D01*
X4976357Y-13486214D01*
X5004928Y-13500500D01*
X5019214Y-13529071D01*
X5019214Y-13686214D01*
X5019214Y-13529071D02*
X5033500Y-13500500D01*
X5062071Y-13486214D01*
X5104928Y-13486214D01*
X5133500Y-13500500D01*
X5147786Y-13529071D01*
X5147786Y-13686214D01*
X5733500Y-13371929D02*
X5476357Y-13757643D01*
X6119214Y-13386214D02*
X6147786Y-13386214D01*
X6176357Y-13400500D01*
X6190643Y-13414786D01*
X6204928Y-13443357D01*
X6219214Y-13500500D01*
X6219214Y-13571929D01*
X6204928Y-13629071D01*
X6190643Y-13657643D01*
X6176357Y-13671929D01*
X6147786Y-13686214D01*
X6119214Y-13686214D01*
X6090643Y-13671929D01*
X6076357Y-13657643D01*
X6062071Y-13629071D01*
X6047786Y-13571929D01*
X6047786Y-13500500D01*
X6062071Y-13443357D01*
X6076357Y-13414786D01*
X6090643Y-13400500D01*
X6119214Y-13386214D01*
X6347786Y-13657643D02*
X6362071Y-13671929D01*
X6347786Y-13686214D01*
X6333500Y-13671929D01*
X6347786Y-13657643D01*
X6347786Y-13686214D01*
X6547786Y-13386214D02*
X6576357Y-13386214D01*
X6604928Y-13400500D01*
X6619214Y-13414786D01*
X6633500Y-13443357D01*
X6647786Y-13500500D01*
X6647786Y-13571929D01*
X6633500Y-13629071D01*
X6619214Y-13657643D01*
X6604928Y-13671929D01*
X6576357Y-13686214D01*
X6547786Y-13686214D01*
X6519214Y-13671929D01*
X6504928Y-13657643D01*
X6490643Y-13629071D01*
X6476357Y-13571929D01*
X6476357Y-13500500D01*
X6490643Y-13443357D01*
X6504928Y-13414786D01*
X6519214Y-13400500D01*
X6547786Y-13386214D01*
X6747786Y-13386214D02*
X6933500Y-13386214D01*
X6833500Y-13500500D01*
X6876357Y-13500500D01*
X6904928Y-13514786D01*
X6919214Y-13529071D01*
X6933500Y-13557643D01*
X6933500Y-13629071D01*
X6919214Y-13657643D01*
X6904928Y-13671929D01*
X6876357Y-13686214D01*
X6790643Y-13686214D01*
X6762071Y-13671929D01*
X6747786Y-13657643D01*
X7076357Y-13686214D02*
X7133500Y-13686214D01*
X7162071Y-13671929D01*
X7176357Y-13657643D01*
X7204928Y-13614786D01*
X7219214Y-13557643D01*
X7219214Y-13443357D01*
X7204928Y-13414786D01*
X7190643Y-13400500D01*
X7162071Y-13386214D01*
X7104928Y-13386214D01*
X7076357Y-13400500D01*
X7062071Y-13414786D01*
X7047786Y-13443357D01*
X7047786Y-13514786D01*
X7062071Y-13543357D01*
X7076357Y-13557643D01*
X7104928Y-13571929D01*
X7162071Y-13571929D01*
X7190643Y-13557643D01*
X7204928Y-13543357D01*
X7219214Y-13514786D01*
X7476357Y-13486214D02*
X7476357Y-13686214D01*
X7404928Y-13371929D02*
X7333500Y-13586214D01*
X7519214Y-13586214D01*
X7619214Y-13386214D02*
X7619214Y-13443357D01*
X7733500Y-13386214D02*
X7733500Y-13443357D01*
X8176357Y-13800500D02*
X8162071Y-13786214D01*
X8133500Y-13743357D01*
X8119214Y-13714786D01*
X8104928Y-13671929D01*
X8090643Y-13600500D01*
X8090643Y-13543357D01*
X8104928Y-13471929D01*
X8119214Y-13429071D01*
X8133500Y-13400500D01*
X8162071Y-13357643D01*
X8176357Y-13343357D01*
X8276357Y-13414786D02*
X8290643Y-13400500D01*
X8319214Y-13386214D01*
X8390643Y-13386214D01*
X8419214Y-13400500D01*
X8433500Y-13414786D01*
X8447786Y-13443357D01*
X8447786Y-13471929D01*
X8433500Y-13514786D01*
X8262071Y-13686214D01*
X8447786Y-13686214D01*
X8633500Y-13386214D02*
X8662071Y-13386214D01*
X8690643Y-13400500D01*
X8704928Y-13414786D01*
X8719214Y-13443357D01*
X8733500Y-13500500D01*
X8733500Y-13571929D01*
X8719214Y-13629071D01*
X8704928Y-13657643D01*
X8690643Y-13671929D01*
X8662071Y-13686214D01*
X8633500Y-13686214D01*
X8604928Y-13671929D01*
X8590643Y-13657643D01*
X8576357Y-13629071D01*
X8562071Y-13571929D01*
X8562071Y-13500500D01*
X8576357Y-13443357D01*
X8590643Y-13414786D01*
X8604928Y-13400500D01*
X8633500Y-13386214D01*
X8847786Y-13414786D02*
X8862071Y-13400500D01*
X8890643Y-13386214D01*
X8962071Y-13386214D01*
X8990643Y-13400500D01*
X9004928Y-13414786D01*
X9019214Y-13443357D01*
X9019214Y-13471929D01*
X9004928Y-13514786D01*
X8833500Y-13686214D01*
X9019214Y-13686214D01*
X9376357Y-13686214D02*
X9376357Y-13386214D01*
X9504928Y-13686214D02*
X9504928Y-13529071D01*
X9490643Y-13500500D01*
X9462071Y-13486214D01*
X9419214Y-13486214D01*
X9390643Y-13500500D01*
X9376357Y-13514786D01*
X9690643Y-13686214D02*
X9662071Y-13671929D01*
X9647786Y-13657643D01*
X9633500Y-13629071D01*
X9633500Y-13543357D01*
X9647786Y-13514786D01*
X9662071Y-13500500D01*
X9690643Y-13486214D01*
X9733500Y-13486214D01*
X9762071Y-13500500D01*
X9776357Y-13514786D01*
X9790643Y-13543357D01*
X9790643Y-13629071D01*
X9776357Y-13657643D01*
X9762071Y-13671929D01*
X9733500Y-13686214D01*
X9690643Y-13686214D01*
X9962071Y-13686214D02*
X9933500Y-13671929D01*
X9919214Y-13643357D01*
X9919214Y-13386214D01*
X10190643Y-13671929D02*
X10162071Y-13686214D01*
X10104928Y-13686214D01*
X10076357Y-13671929D01*
X10062071Y-13643357D01*
X10062071Y-13529071D01*
X10076357Y-13500500D01*
X10104928Y-13486214D01*
X10162071Y-13486214D01*
X10190643Y-13500500D01*
X10204928Y-13529071D01*
X10204928Y-13557643D01*
X10062071Y-13586214D01*
X10319214Y-13671929D02*
X10347786Y-13686214D01*
X10404928Y-13686214D01*
X10433500Y-13671929D01*
X10447786Y-13643357D01*
X10447786Y-13629071D01*
X10433500Y-13600500D01*
X10404928Y-13586214D01*
X10362071Y-13586214D01*
X10333500Y-13571929D01*
X10319214Y-13543357D01*
X10319214Y-13529071D01*
X10333500Y-13500500D01*
X10362071Y-13486214D01*
X10404928Y-13486214D01*
X10433500Y-13500500D01*
X10547786Y-13800500D02*
X10562071Y-13786214D01*
X10590643Y-13743357D01*
X10604928Y-13714786D01*
X10619214Y-13671929D01*
X10633500Y-13600500D01*
X10633500Y-13543357D01*
X10619214Y-13471929D01*
X10604928Y-13429071D01*
X10590643Y-13400500D01*
X10562071Y-13357643D01*
X10547786Y-13343357D01*
X2838500Y-13866500D02*
X2838500Y-14026500D01*
X2758500Y-13946500D02*
X2918500Y-13946500D01*
X3362071Y-14082214D02*
X3190643Y-14082214D01*
X3276357Y-14082214D02*
X3276357Y-13782214D01*
X3247786Y-13825071D01*
X3219214Y-13853643D01*
X3190643Y-13867929D01*
X3490643Y-14053643D02*
X3504928Y-14067929D01*
X3490643Y-14082214D01*
X3476357Y-14067929D01*
X3490643Y-14053643D01*
X3490643Y-14082214D01*
X3762071Y-13782214D02*
X3704928Y-13782214D01*
X3676357Y-13796500D01*
X3662071Y-13810786D01*
X3633500Y-13853643D01*
X3619214Y-13910786D01*
X3619214Y-14025071D01*
X3633500Y-14053643D01*
X3647786Y-14067929D01*
X3676357Y-14082214D01*
X3733500Y-14082214D01*
X3762071Y-14067929D01*
X3776357Y-14053643D01*
X3790643Y-14025071D01*
X3790643Y-13953643D01*
X3776357Y-13925071D01*
X3762071Y-13910786D01*
X3733500Y-13896500D01*
X3676357Y-13896500D01*
X3647786Y-13910786D01*
X3633500Y-13925071D01*
X3619214Y-13953643D01*
X3976357Y-13782214D02*
X4004928Y-13782214D01*
X4033500Y-13796500D01*
X4047786Y-13810786D01*
X4062071Y-13839357D01*
X4076357Y-13896500D01*
X4076357Y-13967929D01*
X4062071Y-14025071D01*
X4047786Y-14053643D01*
X4033500Y-14067929D01*
X4004928Y-14082214D01*
X3976357Y-14082214D01*
X3947786Y-14067929D01*
X3933500Y-14053643D01*
X3919214Y-14025071D01*
X3904928Y-13967929D01*
X3904928Y-13896500D01*
X3919214Y-13839357D01*
X3933500Y-13810786D01*
X3947786Y-13796500D01*
X3976357Y-13782214D01*
X4262071Y-13782214D02*
X4290643Y-13782214D01*
X4319214Y-13796500D01*
X4333500Y-13810786D01*
X4347786Y-13839357D01*
X4362071Y-13896500D01*
X4362071Y-13967929D01*
X4347786Y-14025071D01*
X4333500Y-14053643D01*
X4319214Y-14067929D01*
X4290643Y-14082214D01*
X4262071Y-14082214D01*
X4233500Y-14067929D01*
X4219214Y-14053643D01*
X4204928Y-14025071D01*
X4190643Y-13967929D01*
X4190643Y-13896500D01*
X4204928Y-13839357D01*
X4219214Y-13810786D01*
X4233500Y-13796500D01*
X4262071Y-13782214D01*
X4490643Y-14082214D02*
X4490643Y-13882214D01*
X4490643Y-13910786D02*
X4504928Y-13896500D01*
X4533500Y-13882214D01*
X4576357Y-13882214D01*
X4604928Y-13896500D01*
X4619214Y-13925071D01*
X4619214Y-14082214D01*
X4619214Y-13925071D02*
X4633500Y-13896500D01*
X4662071Y-13882214D01*
X4704928Y-13882214D01*
X4733500Y-13896500D01*
X4747786Y-13925071D01*
X4747786Y-14082214D01*
X4890643Y-14082214D02*
X4890643Y-13882214D01*
X4890643Y-13910786D02*
X4904928Y-13896500D01*
X4933500Y-13882214D01*
X4976357Y-13882214D01*
X5004928Y-13896500D01*
X5019214Y-13925071D01*
X5019214Y-14082214D01*
X5019214Y-13925071D02*
X5033500Y-13896500D01*
X5062071Y-13882214D01*
X5104928Y-13882214D01*
X5133500Y-13896500D01*
X5147786Y-13925071D01*
X5147786Y-14082214D01*
X5733500Y-13767929D02*
X5476357Y-14153643D01*
X6119214Y-13782214D02*
X6147786Y-13782214D01*
X6176357Y-13796500D01*
X6190643Y-13810786D01*
X6204928Y-13839357D01*
X6219214Y-13896500D01*
X6219214Y-13967929D01*
X6204928Y-14025071D01*
X6190643Y-14053643D01*
X6176357Y-14067929D01*
X6147786Y-14082214D01*
X6119214Y-14082214D01*
X6090643Y-14067929D01*
X6076357Y-14053643D01*
X6062071Y-14025071D01*
X6047786Y-13967929D01*
X6047786Y-13896500D01*
X6062071Y-13839357D01*
X6076357Y-13810786D01*
X6090643Y-13796500D01*
X6119214Y-13782214D01*
X6347786Y-14053643D02*
X6362071Y-14067929D01*
X6347786Y-14082214D01*
X6333500Y-14067929D01*
X6347786Y-14053643D01*
X6347786Y-14082214D01*
X6547786Y-13782214D02*
X6576357Y-13782214D01*
X6604928Y-13796500D01*
X6619214Y-13810786D01*
X6633500Y-13839357D01*
X6647786Y-13896500D01*
X6647786Y-13967929D01*
X6633500Y-14025071D01*
X6619214Y-14053643D01*
X6604928Y-14067929D01*
X6576357Y-14082214D01*
X6547786Y-14082214D01*
X6519214Y-14067929D01*
X6504928Y-14053643D01*
X6490643Y-14025071D01*
X6476357Y-13967929D01*
X6476357Y-13896500D01*
X6490643Y-13839357D01*
X6504928Y-13810786D01*
X6519214Y-13796500D01*
X6547786Y-13782214D01*
X6904928Y-13782214D02*
X6847786Y-13782214D01*
X6819214Y-13796500D01*
X6804928Y-13810786D01*
X6776357Y-13853643D01*
X6762071Y-13910786D01*
X6762071Y-14025071D01*
X6776357Y-14053643D01*
X6790643Y-14067929D01*
X6819214Y-14082214D01*
X6876357Y-14082214D01*
X6904928Y-14067929D01*
X6919214Y-14053643D01*
X6933500Y-14025071D01*
X6933500Y-13953643D01*
X6919214Y-13925071D01*
X6904928Y-13910786D01*
X6876357Y-13896500D01*
X6819214Y-13896500D01*
X6790643Y-13910786D01*
X6776357Y-13925071D01*
X6762071Y-13953643D01*
X7033500Y-13782214D02*
X7219214Y-13782214D01*
X7119214Y-13896500D01*
X7162071Y-13896500D01*
X7190643Y-13910786D01*
X7204928Y-13925071D01*
X7219214Y-13953643D01*
X7219214Y-14025071D01*
X7204928Y-14053643D01*
X7190643Y-14067929D01*
X7162071Y-14082214D01*
X7076357Y-14082214D01*
X7047786Y-14067929D01*
X7033500Y-14053643D01*
X7404928Y-13782214D02*
X7433500Y-13782214D01*
X7462071Y-13796500D01*
X7476357Y-13810786D01*
X7490643Y-13839357D01*
X7504928Y-13896500D01*
X7504928Y-13967929D01*
X7490643Y-14025071D01*
X7476357Y-14053643D01*
X7462071Y-14067929D01*
X7433500Y-14082214D01*
X7404928Y-14082214D01*
X7376357Y-14067929D01*
X7362071Y-14053643D01*
X7347786Y-14025071D01*
X7333500Y-13967929D01*
X7333500Y-13896500D01*
X7347786Y-13839357D01*
X7362071Y-13810786D01*
X7376357Y-13796500D01*
X7404928Y-13782214D01*
X7619214Y-13782214D02*
X7619214Y-13839357D01*
X7733500Y-13782214D02*
X7733500Y-13839357D01*
X8176357Y-14196500D02*
X8162071Y-14182214D01*
X8133500Y-14139357D01*
X8119214Y-14110786D01*
X8104928Y-14067929D01*
X8090643Y-13996500D01*
X8090643Y-13939357D01*
X8104928Y-13867929D01*
X8119214Y-13825071D01*
X8133500Y-13796500D01*
X8162071Y-13753643D01*
X8176357Y-13739357D01*
X8262071Y-13782214D02*
X8447786Y-13782214D01*
X8347786Y-13896500D01*
X8390643Y-13896500D01*
X8419214Y-13910786D01*
X8433500Y-13925071D01*
X8447786Y-13953643D01*
X8447786Y-14025071D01*
X8433500Y-14053643D01*
X8419214Y-14067929D01*
X8390643Y-14082214D01*
X8304928Y-14082214D01*
X8276357Y-14067929D01*
X8262071Y-14053643D01*
X8804928Y-14082214D02*
X8804928Y-13782214D01*
X8933500Y-14082214D02*
X8933500Y-13925071D01*
X8919214Y-13896500D01*
X8890643Y-13882214D01*
X8847786Y-13882214D01*
X8819214Y-13896500D01*
X8804928Y-13910786D01*
X9119214Y-14082214D02*
X9090643Y-14067929D01*
X9076357Y-14053643D01*
X9062071Y-14025071D01*
X9062071Y-13939357D01*
X9076357Y-13910786D01*
X9090643Y-13896500D01*
X9119214Y-13882214D01*
X9162071Y-13882214D01*
X9190643Y-13896500D01*
X9204928Y-13910786D01*
X9219214Y-13939357D01*
X9219214Y-14025071D01*
X9204928Y-14053643D01*
X9190643Y-14067929D01*
X9162071Y-14082214D01*
X9119214Y-14082214D01*
X9390643Y-14082214D02*
X9362071Y-14067929D01*
X9347786Y-14039357D01*
X9347786Y-13782214D01*
X9619214Y-14067929D02*
X9590643Y-14082214D01*
X9533500Y-14082214D01*
X9504928Y-14067929D01*
X9490643Y-14039357D01*
X9490643Y-13925071D01*
X9504928Y-13896500D01*
X9533500Y-13882214D01*
X9590643Y-13882214D01*
X9619214Y-13896500D01*
X9633500Y-13925071D01*
X9633500Y-13953643D01*
X9490643Y-13982214D01*
X9747786Y-14067929D02*
X9776357Y-14082214D01*
X9833500Y-14082214D01*
X9862071Y-14067929D01*
X9876357Y-14039357D01*
X9876357Y-14025071D01*
X9862071Y-13996500D01*
X9833500Y-13982214D01*
X9790643Y-13982214D01*
X9762071Y-13967929D01*
X9747786Y-13939357D01*
X9747786Y-13925071D01*
X9762071Y-13896500D01*
X9790643Y-13882214D01*
X9833500Y-13882214D01*
X9862071Y-13896500D01*
X9976357Y-14196500D02*
X9990643Y-14182214D01*
X10019214Y-14139357D01*
X10033500Y-14110786D01*
X10047786Y-14067929D01*
X10062071Y-13996500D01*
X10062071Y-13939357D01*
X10047786Y-13867929D01*
X10033500Y-13825071D01*
X10019214Y-13796500D01*
X9990643Y-13753643D01*
X9976357Y-13739357D01*
M02*
