G04 #@! TF.GenerationSoftware,KiCad,Pcbnew,(5.1.12)-1*
G04 #@! TF.CreationDate,2022-10-05T17:50:00-05:00*
G04 #@! TF.ProjectId,motherboard,6d6f7468-6572-4626-9f61-72642e6b6963,rev?*
G04 #@! TF.SameCoordinates,Original*
G04 #@! TF.FileFunction,Copper,L1,Top*
G04 #@! TF.FilePolarity,Positive*
%FSLAX46Y46*%
G04 Gerber Fmt 4.6, Leading zero omitted, Abs format (unit mm)*
G04 Created by KiCad (PCBNEW (5.1.12)-1) date 2022-10-05 17:50:00*
%MOMM*%
%LPD*%
G01*
G04 APERTURE LIST*
G04 #@! TA.AperFunction,ComponentPad*
%ADD10O,1.700000X1.700000*%
G04 #@! TD*
G04 #@! TA.AperFunction,ComponentPad*
%ADD11R,1.700000X1.700000*%
G04 #@! TD*
G04 #@! TA.AperFunction,ComponentPad*
%ADD12C,1.600000*%
G04 #@! TD*
G04 #@! TA.AperFunction,ComponentPad*
%ADD13R,2.600000X2.600000*%
G04 #@! TD*
G04 #@! TA.AperFunction,ComponentPad*
%ADD14C,2.600000*%
G04 #@! TD*
G04 #@! TA.AperFunction,Conductor*
%ADD15C,0.250000*%
G04 #@! TD*
G04 APERTURE END LIST*
D10*
X232460000Y-105260000D03*
X235000000Y-105260000D03*
X232460000Y-102720000D03*
X235000000Y-102720000D03*
X232460000Y-100180000D03*
X235000000Y-100180000D03*
X232460000Y-97640000D03*
X235000000Y-97640000D03*
X232460000Y-95100000D03*
X235000000Y-95100000D03*
X232460000Y-92560000D03*
X235000000Y-92560000D03*
X232460000Y-90020000D03*
X235000000Y-90020000D03*
X232460000Y-87480000D03*
X235000000Y-87480000D03*
X232460000Y-84940000D03*
X235000000Y-84940000D03*
X232460000Y-82400000D03*
X235000000Y-82400000D03*
X232460000Y-79860000D03*
X235000000Y-79860000D03*
X232460000Y-77320000D03*
X235000000Y-77320000D03*
X232460000Y-74780000D03*
X235000000Y-74780000D03*
X232460000Y-72240000D03*
X235000000Y-72240000D03*
X232460000Y-69700000D03*
X235000000Y-69700000D03*
X232460000Y-67160000D03*
X235000000Y-67160000D03*
X232460000Y-64620000D03*
X235000000Y-64620000D03*
X232460000Y-62080000D03*
X235000000Y-62080000D03*
X232460000Y-59540000D03*
X235000000Y-59540000D03*
X232460000Y-57000000D03*
D11*
X235000000Y-57000000D03*
D10*
X186460000Y-105260000D03*
X189000000Y-105260000D03*
X186460000Y-102720000D03*
X189000000Y-102720000D03*
X186460000Y-100180000D03*
X189000000Y-100180000D03*
X186460000Y-97640000D03*
X189000000Y-97640000D03*
X186460000Y-95100000D03*
X189000000Y-95100000D03*
X186460000Y-92560000D03*
X189000000Y-92560000D03*
X186460000Y-90020000D03*
X189000000Y-90020000D03*
X186460000Y-87480000D03*
X189000000Y-87480000D03*
X186460000Y-84940000D03*
X189000000Y-84940000D03*
X186460000Y-82400000D03*
X189000000Y-82400000D03*
X186460000Y-79860000D03*
X189000000Y-79860000D03*
X186460000Y-77320000D03*
X189000000Y-77320000D03*
X186460000Y-74780000D03*
X189000000Y-74780000D03*
X186460000Y-72240000D03*
X189000000Y-72240000D03*
X186460000Y-69700000D03*
X189000000Y-69700000D03*
X186460000Y-67160000D03*
X189000000Y-67160000D03*
X186460000Y-64620000D03*
X189000000Y-64620000D03*
X186460000Y-62080000D03*
X189000000Y-62080000D03*
X186460000Y-59540000D03*
X189000000Y-59540000D03*
X186460000Y-57000000D03*
D11*
X189000000Y-57000000D03*
D10*
X141460000Y-105260000D03*
X144000000Y-105260000D03*
X141460000Y-102720000D03*
X144000000Y-102720000D03*
X141460000Y-100180000D03*
X144000000Y-100180000D03*
X141460000Y-97640000D03*
X144000000Y-97640000D03*
X141460000Y-95100000D03*
X144000000Y-95100000D03*
X141460000Y-92560000D03*
X144000000Y-92560000D03*
X141460000Y-90020000D03*
X144000000Y-90020000D03*
X141460000Y-87480000D03*
X144000000Y-87480000D03*
X141460000Y-84940000D03*
X144000000Y-84940000D03*
X141460000Y-82400000D03*
X144000000Y-82400000D03*
X141460000Y-79860000D03*
X144000000Y-79860000D03*
X141460000Y-77320000D03*
X144000000Y-77320000D03*
X141460000Y-74780000D03*
X144000000Y-74780000D03*
X141460000Y-72240000D03*
X144000000Y-72240000D03*
X141460000Y-69700000D03*
X144000000Y-69700000D03*
X141460000Y-67160000D03*
X144000000Y-67160000D03*
X141460000Y-64620000D03*
X144000000Y-64620000D03*
X141460000Y-62080000D03*
X144000000Y-62080000D03*
X141460000Y-59540000D03*
X144000000Y-59540000D03*
X141460000Y-57000000D03*
D11*
X144000000Y-57000000D03*
D10*
X94460000Y-105260000D03*
X97000000Y-105260000D03*
X94460000Y-102720000D03*
X97000000Y-102720000D03*
X94460000Y-100180000D03*
X97000000Y-100180000D03*
X94460000Y-97640000D03*
X97000000Y-97640000D03*
X94460000Y-95100000D03*
X97000000Y-95100000D03*
X94460000Y-92560000D03*
X97000000Y-92560000D03*
X94460000Y-90020000D03*
X97000000Y-90020000D03*
X94460000Y-87480000D03*
X97000000Y-87480000D03*
X94460000Y-84940000D03*
X97000000Y-84940000D03*
X94460000Y-82400000D03*
X97000000Y-82400000D03*
X94460000Y-79860000D03*
X97000000Y-79860000D03*
X94460000Y-77320000D03*
X97000000Y-77320000D03*
X94460000Y-74780000D03*
X97000000Y-74780000D03*
X94460000Y-72240000D03*
X97000000Y-72240000D03*
X94460000Y-69700000D03*
X97000000Y-69700000D03*
X94460000Y-67160000D03*
X97000000Y-67160000D03*
X94460000Y-64620000D03*
X97000000Y-64620000D03*
X94460000Y-62080000D03*
X97000000Y-62080000D03*
X94460000Y-59540000D03*
X97000000Y-59540000D03*
X94460000Y-57000000D03*
D11*
X97000000Y-57000000D03*
D10*
X48460000Y-105260000D03*
X51000000Y-105260000D03*
X48460000Y-102720000D03*
X51000000Y-102720000D03*
X48460000Y-100180000D03*
X51000000Y-100180000D03*
X48460000Y-97640000D03*
X51000000Y-97640000D03*
X48460000Y-95100000D03*
X51000000Y-95100000D03*
X48460000Y-92560000D03*
X51000000Y-92560000D03*
X48460000Y-90020000D03*
X51000000Y-90020000D03*
X48460000Y-87480000D03*
X51000000Y-87480000D03*
X48460000Y-84940000D03*
X51000000Y-84940000D03*
X48460000Y-82400000D03*
X51000000Y-82400000D03*
X48460000Y-79860000D03*
X51000000Y-79860000D03*
X48460000Y-77320000D03*
X51000000Y-77320000D03*
X48460000Y-74780000D03*
X51000000Y-74780000D03*
X48460000Y-72240000D03*
X51000000Y-72240000D03*
X48460000Y-69700000D03*
X51000000Y-69700000D03*
X48460000Y-67160000D03*
X51000000Y-67160000D03*
X48460000Y-64620000D03*
X51000000Y-64620000D03*
X48460000Y-62080000D03*
X51000000Y-62080000D03*
X48460000Y-59540000D03*
X51000000Y-59540000D03*
X48460000Y-57000000D03*
D11*
X51000000Y-57000000D03*
D12*
X232000000Y-50000000D03*
X234500000Y-50000000D03*
X96500000Y-50000000D03*
X94000000Y-50000000D03*
X186000000Y-50000000D03*
X188500000Y-50000000D03*
X143500000Y-50000000D03*
X141000000Y-50000000D03*
X48000000Y-50000000D03*
X50500000Y-50000000D03*
D13*
X36000000Y-43000000D03*
D14*
X36000000Y-37000000D03*
X31300000Y-40000000D03*
D11*
X51000000Y-116000000D03*
D10*
X48460000Y-116000000D03*
D15*
X186000000Y-48826000D02*
X230826000Y-48826000D01*
X230826000Y-48826000D02*
X232000000Y-50000000D01*
X141000000Y-50000000D02*
X142174000Y-48826000D01*
X142174000Y-48826000D02*
X186000000Y-48826000D01*
X186000000Y-50000000D02*
X186000000Y-48826000D01*
X94000000Y-50000000D02*
X95125200Y-48874800D01*
X95125200Y-48874800D02*
X139874800Y-48874800D01*
X139874800Y-48874800D02*
X141000000Y-50000000D01*
X96412500Y-59540000D02*
X97000000Y-59540000D01*
X96412500Y-59540000D02*
X95824900Y-59540000D01*
X95824900Y-59540000D02*
X95824900Y-59905200D01*
X95824900Y-59905200D02*
X94999500Y-60730600D01*
X94999500Y-60730600D02*
X54002300Y-60730600D01*
X54002300Y-60730600D02*
X52811700Y-59540000D01*
X52811700Y-59540000D02*
X52175100Y-59540000D01*
X51000000Y-59540000D02*
X52175100Y-59540000D01*
X141460000Y-57000000D02*
X97000000Y-57000000D01*
X144000000Y-57000000D02*
X141460000Y-57000000D01*
X235000000Y-57000000D02*
X232460000Y-57000000D01*
X189000000Y-57000000D02*
X232460000Y-57000000D01*
X186460000Y-57000000D02*
X189000000Y-57000000D01*
X144000000Y-57000000D02*
X186460000Y-57000000D01*
X94460000Y-57000000D02*
X51000000Y-57000000D01*
X97000000Y-57000000D02*
X94460000Y-57000000D01*
X50500000Y-57000000D02*
X48460000Y-57000000D01*
X51000000Y-57000000D02*
X50500000Y-57000000D01*
X50500000Y-57000000D02*
X50500000Y-50000000D01*
X140284900Y-59540000D02*
X141479100Y-58345800D01*
X141479100Y-58345800D02*
X184090700Y-58345800D01*
X184090700Y-58345800D02*
X185284900Y-59540000D01*
X141460000Y-59540000D02*
X140284900Y-59540000D01*
X93284900Y-59540000D02*
X94460100Y-58364800D01*
X94460100Y-58364800D02*
X139109700Y-58364800D01*
X139109700Y-58364800D02*
X140284900Y-59540000D01*
X49635100Y-59540000D02*
X49635100Y-59172800D01*
X49635100Y-59172800D02*
X50443100Y-58364800D01*
X50443100Y-58364800D02*
X92109700Y-58364800D01*
X92109700Y-58364800D02*
X93284900Y-59540000D01*
X94460000Y-59540000D02*
X93284900Y-59540000D01*
X48460000Y-59540000D02*
X49635100Y-59540000D01*
X232460000Y-59540000D02*
X231284900Y-59540000D01*
X231284900Y-59540000D02*
X230090700Y-58345800D01*
X230090700Y-58345800D02*
X186479100Y-58345800D01*
X186479100Y-58345800D02*
X185284900Y-59540000D01*
X186460000Y-59540000D02*
X185284900Y-59540000D01*
X185284900Y-60899300D02*
X230104200Y-60899300D01*
X230104200Y-60899300D02*
X231284900Y-62080000D01*
X140872500Y-62080000D02*
X142053200Y-60899300D01*
X142053200Y-60899300D02*
X185284900Y-60899300D01*
X185284900Y-60899300D02*
X185284900Y-62080000D01*
X232460000Y-62080000D02*
X231284900Y-62080000D01*
X186460000Y-62080000D02*
X185284900Y-62080000D01*
X140872500Y-62080000D02*
X140284900Y-62080000D01*
X141460000Y-62080000D02*
X140872500Y-62080000D01*
X94460000Y-61629800D02*
X95219000Y-61629800D01*
X95219000Y-61629800D02*
X95986200Y-60862600D01*
X95986200Y-60862600D02*
X139067500Y-60862600D01*
X139067500Y-60862600D02*
X140284900Y-62080000D01*
X49635100Y-62080000D02*
X49635100Y-61712800D01*
X49635100Y-61712800D02*
X50485300Y-60862600D01*
X50485300Y-60862600D02*
X53179500Y-60862600D01*
X53179500Y-60862600D02*
X53946700Y-61629800D01*
X53946700Y-61629800D02*
X94460000Y-61629800D01*
X94460000Y-62080000D02*
X94460000Y-61629800D01*
X48460000Y-62080000D02*
X49635100Y-62080000D01*
X186460000Y-64169800D02*
X187219000Y-64169800D01*
X187219000Y-64169800D02*
X187986200Y-63402600D01*
X187986200Y-63402600D02*
X191179500Y-63402600D01*
X191179500Y-63402600D02*
X192396900Y-64620000D01*
X192396900Y-64620000D02*
X232460000Y-64620000D01*
X141460000Y-64169800D02*
X142219000Y-64169800D01*
X142219000Y-64169800D02*
X142986200Y-63402600D01*
X142986200Y-63402600D02*
X146179500Y-63402600D01*
X146179500Y-63402600D02*
X146946700Y-64169800D01*
X146946700Y-64169800D02*
X186460000Y-64169800D01*
X186460000Y-64620000D02*
X186460000Y-64169800D01*
X94460000Y-64169800D02*
X95219000Y-64169800D01*
X95219000Y-64169800D02*
X95986200Y-63402600D01*
X95986200Y-63402600D02*
X99179500Y-63402600D01*
X99179500Y-63402600D02*
X99946700Y-64169800D01*
X99946700Y-64169800D02*
X141460000Y-64169800D01*
X141460000Y-64620000D02*
X141460000Y-64169800D01*
X49635100Y-64620000D02*
X49635100Y-64252800D01*
X49635100Y-64252800D02*
X50485300Y-63402600D01*
X50485300Y-63402600D02*
X53179500Y-63402600D01*
X53179500Y-63402600D02*
X53946700Y-64169800D01*
X53946700Y-64169800D02*
X94460000Y-64169800D01*
X94460000Y-64620000D02*
X94460000Y-64169800D01*
X48460000Y-64620000D02*
X49635100Y-64620000D01*
X186460000Y-66709800D02*
X187219000Y-66709800D01*
X187219000Y-66709800D02*
X187986200Y-65942600D01*
X187986200Y-65942600D02*
X191179500Y-65942600D01*
X191179500Y-65942600D02*
X192396900Y-67160000D01*
X192396900Y-67160000D02*
X232460000Y-67160000D01*
X141460000Y-66709800D02*
X142219000Y-66709800D01*
X142219000Y-66709800D02*
X142986200Y-65942600D01*
X142986200Y-65942600D02*
X146179500Y-65942600D01*
X146179500Y-65942600D02*
X146946700Y-66709800D01*
X146946700Y-66709800D02*
X186460000Y-66709800D01*
X186460000Y-67160000D02*
X186460000Y-66709800D01*
X94460000Y-66709800D02*
X95219000Y-66709800D01*
X95219000Y-66709800D02*
X95986200Y-65942600D01*
X95986200Y-65942600D02*
X99179500Y-65942600D01*
X99179500Y-65942600D02*
X99946700Y-66709800D01*
X99946700Y-66709800D02*
X141460000Y-66709800D01*
X141460000Y-67160000D02*
X141460000Y-66709800D01*
X49635100Y-67160000D02*
X49635100Y-66792800D01*
X49635100Y-66792800D02*
X50485300Y-65942600D01*
X50485300Y-65942600D02*
X53179500Y-65942600D01*
X53179500Y-65942600D02*
X53946700Y-66709800D01*
X53946700Y-66709800D02*
X94460000Y-66709800D01*
X94460000Y-67160000D02*
X94460000Y-66709800D01*
X48460000Y-67160000D02*
X49635100Y-67160000D01*
X186460000Y-69249800D02*
X187219000Y-69249800D01*
X187219000Y-69249800D02*
X187986200Y-68482600D01*
X187986200Y-68482600D02*
X191179500Y-68482600D01*
X191179500Y-68482600D02*
X192396900Y-69700000D01*
X192396900Y-69700000D02*
X232460000Y-69700000D01*
X141460000Y-69249800D02*
X142219000Y-69249800D01*
X142219000Y-69249800D02*
X142986200Y-68482600D01*
X142986200Y-68482600D02*
X146179500Y-68482600D01*
X146179500Y-68482600D02*
X146946700Y-69249800D01*
X146946700Y-69249800D02*
X186460000Y-69249800D01*
X186460000Y-69700000D02*
X186460000Y-69249800D01*
X94460000Y-69249800D02*
X95219000Y-69249800D01*
X95219000Y-69249800D02*
X95986200Y-68482600D01*
X95986200Y-68482600D02*
X99179500Y-68482600D01*
X99179500Y-68482600D02*
X99946700Y-69249800D01*
X99946700Y-69249800D02*
X141460000Y-69249800D01*
X141460000Y-69700000D02*
X141460000Y-69249800D01*
X49635100Y-69700000D02*
X49635100Y-69332800D01*
X49635100Y-69332800D02*
X50485300Y-68482600D01*
X50485300Y-68482600D02*
X53179500Y-68482600D01*
X53179500Y-68482600D02*
X53946700Y-69249800D01*
X53946700Y-69249800D02*
X94460000Y-69249800D01*
X94460000Y-69700000D02*
X94460000Y-69249800D01*
X48460000Y-69700000D02*
X49635100Y-69700000D01*
X186460000Y-71789800D02*
X187219000Y-71789800D01*
X187219000Y-71789800D02*
X187986200Y-71022600D01*
X187986200Y-71022600D02*
X191179500Y-71022600D01*
X191179500Y-71022600D02*
X192396900Y-72240000D01*
X192396900Y-72240000D02*
X232460000Y-72240000D01*
X141460000Y-71789800D02*
X142219000Y-71789800D01*
X142219000Y-71789800D02*
X142986200Y-71022600D01*
X142986200Y-71022600D02*
X146179500Y-71022600D01*
X146179500Y-71022600D02*
X146946700Y-71789800D01*
X146946700Y-71789800D02*
X186460000Y-71789800D01*
X186460000Y-72240000D02*
X186460000Y-71789800D01*
X94460000Y-71789800D02*
X95219000Y-71789800D01*
X95219000Y-71789800D02*
X95986200Y-71022600D01*
X95986200Y-71022600D02*
X99179500Y-71022600D01*
X99179500Y-71022600D02*
X99946700Y-71789800D01*
X99946700Y-71789800D02*
X141460000Y-71789800D01*
X141460000Y-72240000D02*
X141460000Y-71789800D01*
X49635100Y-72240000D02*
X49635100Y-71872800D01*
X49635100Y-71872800D02*
X50485300Y-71022600D01*
X50485300Y-71022600D02*
X53179500Y-71022600D01*
X53179500Y-71022600D02*
X53946700Y-71789800D01*
X53946700Y-71789800D02*
X94460000Y-71789800D01*
X94460000Y-72240000D02*
X94460000Y-71789800D01*
X48460000Y-72240000D02*
X49635100Y-72240000D01*
X186460000Y-74329800D02*
X187219000Y-74329800D01*
X187219000Y-74329800D02*
X187986200Y-73562600D01*
X187986200Y-73562600D02*
X191179500Y-73562600D01*
X191179500Y-73562600D02*
X192396900Y-74780000D01*
X192396900Y-74780000D02*
X232460000Y-74780000D01*
X141460000Y-74329800D02*
X142219000Y-74329800D01*
X142219000Y-74329800D02*
X142986200Y-73562600D01*
X142986200Y-73562600D02*
X146179500Y-73562600D01*
X146179500Y-73562600D02*
X146946700Y-74329800D01*
X146946700Y-74329800D02*
X186460000Y-74329800D01*
X186460000Y-74780000D02*
X186460000Y-74329800D01*
X94460000Y-74329800D02*
X95219000Y-74329800D01*
X95219000Y-74329800D02*
X95986200Y-73562600D01*
X95986200Y-73562600D02*
X99179500Y-73562600D01*
X99179500Y-73562600D02*
X99946700Y-74329800D01*
X99946700Y-74329800D02*
X141460000Y-74329800D01*
X141460000Y-74780000D02*
X141460000Y-74329800D01*
X49635100Y-74780000D02*
X49635100Y-74412800D01*
X49635100Y-74412800D02*
X50485300Y-73562600D01*
X50485300Y-73562600D02*
X53179500Y-73562600D01*
X53179500Y-73562600D02*
X53946700Y-74329800D01*
X53946700Y-74329800D02*
X94460000Y-74329800D01*
X94460000Y-74780000D02*
X94460000Y-74329800D01*
X48460000Y-74780000D02*
X49635100Y-74780000D01*
X186460000Y-76869800D02*
X187219000Y-76869800D01*
X187219000Y-76869800D02*
X187986200Y-76102600D01*
X187986200Y-76102600D02*
X191179500Y-76102600D01*
X191179500Y-76102600D02*
X192396900Y-77320000D01*
X192396900Y-77320000D02*
X232460000Y-77320000D01*
X141460000Y-76869800D02*
X142219000Y-76869800D01*
X142219000Y-76869800D02*
X142986200Y-76102600D01*
X142986200Y-76102600D02*
X146179500Y-76102600D01*
X146179500Y-76102600D02*
X146946700Y-76869800D01*
X146946700Y-76869800D02*
X186460000Y-76869800D01*
X186460000Y-77320000D02*
X186460000Y-76869800D01*
X94460000Y-76869800D02*
X95219000Y-76869800D01*
X95219000Y-76869800D02*
X95986200Y-76102600D01*
X95986200Y-76102600D02*
X99179500Y-76102600D01*
X99179500Y-76102600D02*
X99946700Y-76869800D01*
X99946700Y-76869800D02*
X141460000Y-76869800D01*
X141460000Y-77320000D02*
X141460000Y-76869800D01*
X49635100Y-77320000D02*
X49635100Y-76952800D01*
X49635100Y-76952800D02*
X50485300Y-76102600D01*
X50485300Y-76102600D02*
X53179500Y-76102600D01*
X53179500Y-76102600D02*
X53946700Y-76869800D01*
X53946700Y-76869800D02*
X94460000Y-76869800D01*
X94460000Y-77320000D02*
X94460000Y-76869800D01*
X48460000Y-77320000D02*
X49635100Y-77320000D01*
X186460000Y-79409800D02*
X187219000Y-79409800D01*
X187219000Y-79409800D02*
X187986200Y-78642600D01*
X187986200Y-78642600D02*
X191179500Y-78642600D01*
X191179500Y-78642600D02*
X192396900Y-79860000D01*
X192396900Y-79860000D02*
X232460000Y-79860000D01*
X141460000Y-79409800D02*
X142219000Y-79409800D01*
X142219000Y-79409800D02*
X142986200Y-78642600D01*
X142986200Y-78642600D02*
X146179500Y-78642600D01*
X146179500Y-78642600D02*
X146946700Y-79409800D01*
X146946700Y-79409800D02*
X186460000Y-79409800D01*
X186460000Y-79860000D02*
X186460000Y-79409800D01*
X94460000Y-79409800D02*
X95219000Y-79409800D01*
X95219000Y-79409800D02*
X95986200Y-78642600D01*
X95986200Y-78642600D02*
X99179500Y-78642600D01*
X99179500Y-78642600D02*
X99946700Y-79409800D01*
X99946700Y-79409800D02*
X141460000Y-79409800D01*
X141460000Y-79860000D02*
X141460000Y-79409800D01*
X49635100Y-79860000D02*
X49635100Y-79492800D01*
X49635100Y-79492800D02*
X50485300Y-78642600D01*
X50485300Y-78642600D02*
X53179500Y-78642600D01*
X53179500Y-78642600D02*
X53946700Y-79409800D01*
X53946700Y-79409800D02*
X94460000Y-79409800D01*
X94460000Y-79860000D02*
X94460000Y-79409800D01*
X48460000Y-79860000D02*
X49635100Y-79860000D01*
X186460000Y-81949800D02*
X187219000Y-81949800D01*
X187219000Y-81949800D02*
X187986200Y-81182600D01*
X187986200Y-81182600D02*
X191179500Y-81182600D01*
X191179500Y-81182600D02*
X192396900Y-82400000D01*
X192396900Y-82400000D02*
X232460000Y-82400000D01*
X141460000Y-81949800D02*
X142219000Y-81949800D01*
X142219000Y-81949800D02*
X142986200Y-81182600D01*
X142986200Y-81182600D02*
X146179500Y-81182600D01*
X146179500Y-81182600D02*
X146946700Y-81949800D01*
X146946700Y-81949800D02*
X186460000Y-81949800D01*
X186460000Y-82400000D02*
X186460000Y-81949800D01*
X94460000Y-81949800D02*
X95219000Y-81949800D01*
X95219000Y-81949800D02*
X95986200Y-81182600D01*
X95986200Y-81182600D02*
X99179500Y-81182600D01*
X99179500Y-81182600D02*
X99946700Y-81949800D01*
X99946700Y-81949800D02*
X141460000Y-81949800D01*
X141460000Y-82400000D02*
X141460000Y-81949800D01*
X49635100Y-82400000D02*
X49635100Y-82032800D01*
X49635100Y-82032800D02*
X50485300Y-81182600D01*
X50485300Y-81182600D02*
X53179500Y-81182600D01*
X53179500Y-81182600D02*
X53946700Y-81949800D01*
X53946700Y-81949800D02*
X94460000Y-81949800D01*
X94460000Y-82400000D02*
X94460000Y-81949800D01*
X48460000Y-82400000D02*
X49635100Y-82400000D01*
X186460000Y-84489800D02*
X187219000Y-84489800D01*
X187219000Y-84489800D02*
X187986200Y-83722600D01*
X187986200Y-83722600D02*
X191179500Y-83722600D01*
X191179500Y-83722600D02*
X192396900Y-84940000D01*
X192396900Y-84940000D02*
X232460000Y-84940000D01*
X141460000Y-84489800D02*
X142219000Y-84489800D01*
X142219000Y-84489800D02*
X142986200Y-83722600D01*
X142986200Y-83722600D02*
X146179500Y-83722600D01*
X146179500Y-83722600D02*
X146946700Y-84489800D01*
X146946700Y-84489800D02*
X186460000Y-84489800D01*
X186460000Y-84940000D02*
X186460000Y-84489800D01*
X94460000Y-84489800D02*
X95219000Y-84489800D01*
X95219000Y-84489800D02*
X95986200Y-83722600D01*
X95986200Y-83722600D02*
X99179500Y-83722600D01*
X99179500Y-83722600D02*
X99946700Y-84489800D01*
X99946700Y-84489800D02*
X141460000Y-84489800D01*
X141460000Y-84940000D02*
X141460000Y-84489800D01*
X49635100Y-84940000D02*
X49635100Y-84572800D01*
X49635100Y-84572800D02*
X50485300Y-83722600D01*
X50485300Y-83722600D02*
X53179500Y-83722600D01*
X53179500Y-83722600D02*
X53946700Y-84489800D01*
X53946700Y-84489800D02*
X94460000Y-84489800D01*
X94460000Y-84940000D02*
X94460000Y-84489800D01*
X48460000Y-84940000D02*
X49635100Y-84940000D01*
X186460000Y-87029800D02*
X187219000Y-87029800D01*
X187219000Y-87029800D02*
X187986200Y-86262600D01*
X187986200Y-86262600D02*
X191179500Y-86262600D01*
X191179500Y-86262600D02*
X192396900Y-87480000D01*
X192396900Y-87480000D02*
X232460000Y-87480000D01*
X141460000Y-87029800D02*
X142219000Y-87029800D01*
X142219000Y-87029800D02*
X142986200Y-86262600D01*
X142986200Y-86262600D02*
X146179500Y-86262600D01*
X146179500Y-86262600D02*
X146946700Y-87029800D01*
X146946700Y-87029800D02*
X186460000Y-87029800D01*
X186460000Y-87480000D02*
X186460000Y-87029800D01*
X94460000Y-87029800D02*
X95219000Y-87029800D01*
X95219000Y-87029800D02*
X95986200Y-86262600D01*
X95986200Y-86262600D02*
X99179500Y-86262600D01*
X99179500Y-86262600D02*
X99946700Y-87029800D01*
X99946700Y-87029800D02*
X141460000Y-87029800D01*
X141460000Y-87480000D02*
X141460000Y-87029800D01*
X49635100Y-87480000D02*
X49635100Y-87112800D01*
X49635100Y-87112800D02*
X50485300Y-86262600D01*
X50485300Y-86262600D02*
X53179500Y-86262600D01*
X53179500Y-86262600D02*
X53946700Y-87029800D01*
X53946700Y-87029800D02*
X94460000Y-87029800D01*
X94460000Y-87480000D02*
X94460000Y-87029800D01*
X48460000Y-87480000D02*
X49635100Y-87480000D01*
X186460000Y-89569800D02*
X187219000Y-89569800D01*
X187219000Y-89569800D02*
X187986200Y-88802600D01*
X187986200Y-88802600D02*
X191179500Y-88802600D01*
X191179500Y-88802600D02*
X192396900Y-90020000D01*
X192396900Y-90020000D02*
X232460000Y-90020000D01*
X141460000Y-89569800D02*
X142219000Y-89569800D01*
X142219000Y-89569800D02*
X142986200Y-88802600D01*
X142986200Y-88802600D02*
X146179500Y-88802600D01*
X146179500Y-88802600D02*
X146946700Y-89569800D01*
X146946700Y-89569800D02*
X186460000Y-89569800D01*
X186460000Y-90020000D02*
X186460000Y-89569800D01*
X94460000Y-89569800D02*
X95219000Y-89569800D01*
X95219000Y-89569800D02*
X95986200Y-88802600D01*
X95986200Y-88802600D02*
X99179500Y-88802600D01*
X99179500Y-88802600D02*
X99946700Y-89569800D01*
X99946700Y-89569800D02*
X141460000Y-89569800D01*
X141460000Y-90020000D02*
X141460000Y-89569800D01*
X49635100Y-90020000D02*
X49635100Y-89652800D01*
X49635100Y-89652800D02*
X50485300Y-88802600D01*
X50485300Y-88802600D02*
X53179500Y-88802600D01*
X53179500Y-88802600D02*
X53946700Y-89569800D01*
X53946700Y-89569800D02*
X94460000Y-89569800D01*
X94460000Y-90020000D02*
X94460000Y-89569800D01*
X48460000Y-90020000D02*
X49635100Y-90020000D01*
X186460000Y-92109800D02*
X187219000Y-92109800D01*
X187219000Y-92109800D02*
X187986200Y-91342600D01*
X187986200Y-91342600D02*
X191179500Y-91342600D01*
X191179500Y-91342600D02*
X192396900Y-92560000D01*
X192396900Y-92560000D02*
X232460000Y-92560000D01*
X141460000Y-92109800D02*
X142219000Y-92109800D01*
X142219000Y-92109800D02*
X142986200Y-91342600D01*
X142986200Y-91342600D02*
X146179500Y-91342600D01*
X146179500Y-91342600D02*
X146946700Y-92109800D01*
X146946700Y-92109800D02*
X186460000Y-92109800D01*
X186460000Y-92560000D02*
X186460000Y-92109800D01*
X94460000Y-92109800D02*
X95219000Y-92109800D01*
X95219000Y-92109800D02*
X95986200Y-91342600D01*
X95986200Y-91342600D02*
X99179500Y-91342600D01*
X99179500Y-91342600D02*
X99946700Y-92109800D01*
X99946700Y-92109800D02*
X141460000Y-92109800D01*
X141460000Y-92560000D02*
X141460000Y-92109800D01*
X49635100Y-92560000D02*
X49635100Y-92192800D01*
X49635100Y-92192800D02*
X50485300Y-91342600D01*
X50485300Y-91342600D02*
X53179500Y-91342600D01*
X53179500Y-91342600D02*
X53946700Y-92109800D01*
X53946700Y-92109800D02*
X94460000Y-92109800D01*
X94460000Y-92560000D02*
X94460000Y-92109800D01*
X48460000Y-92560000D02*
X49635100Y-92560000D01*
X186460000Y-94649800D02*
X187219000Y-94649800D01*
X187219000Y-94649800D02*
X187986200Y-93882600D01*
X187986200Y-93882600D02*
X191179500Y-93882600D01*
X191179500Y-93882600D02*
X192396900Y-95100000D01*
X192396900Y-95100000D02*
X232460000Y-95100000D01*
X141460000Y-94649800D02*
X142219000Y-94649800D01*
X142219000Y-94649800D02*
X142986200Y-93882600D01*
X142986200Y-93882600D02*
X146179500Y-93882600D01*
X146179500Y-93882600D02*
X146946700Y-94649800D01*
X146946700Y-94649800D02*
X186460000Y-94649800D01*
X186460000Y-95100000D02*
X186460000Y-94649800D01*
X94460000Y-94649800D02*
X95219000Y-94649800D01*
X95219000Y-94649800D02*
X95986200Y-93882600D01*
X95986200Y-93882600D02*
X99179500Y-93882600D01*
X99179500Y-93882600D02*
X99946700Y-94649800D01*
X99946700Y-94649800D02*
X141460000Y-94649800D01*
X141460000Y-95100000D02*
X141460000Y-94649800D01*
X49635100Y-95100000D02*
X49635100Y-94732800D01*
X49635100Y-94732800D02*
X50485300Y-93882600D01*
X50485300Y-93882600D02*
X53179500Y-93882600D01*
X53179500Y-93882600D02*
X53946700Y-94649800D01*
X53946700Y-94649800D02*
X94460000Y-94649800D01*
X94460000Y-95100000D02*
X94460000Y-94649800D01*
X48460000Y-95100000D02*
X49635100Y-95100000D01*
X186460000Y-97189800D02*
X187219000Y-97189800D01*
X187219000Y-97189800D02*
X187986200Y-96422600D01*
X187986200Y-96422600D02*
X191179500Y-96422600D01*
X191179500Y-96422600D02*
X192396900Y-97640000D01*
X192396900Y-97640000D02*
X232460000Y-97640000D01*
X141460000Y-97189800D02*
X142219000Y-97189800D01*
X142219000Y-97189800D02*
X142986200Y-96422600D01*
X142986200Y-96422600D02*
X146179500Y-96422600D01*
X146179500Y-96422600D02*
X146946700Y-97189800D01*
X146946700Y-97189800D02*
X186460000Y-97189800D01*
X186460000Y-97640000D02*
X186460000Y-97189800D01*
X94460000Y-97189800D02*
X95219000Y-97189800D01*
X95219000Y-97189800D02*
X95986200Y-96422600D01*
X95986200Y-96422600D02*
X99179500Y-96422600D01*
X99179500Y-96422600D02*
X99946700Y-97189800D01*
X99946700Y-97189800D02*
X141460000Y-97189800D01*
X141460000Y-97640000D02*
X141460000Y-97189800D01*
X49635100Y-97640000D02*
X49635100Y-97272800D01*
X49635100Y-97272800D02*
X50485300Y-96422600D01*
X50485300Y-96422600D02*
X53179500Y-96422600D01*
X53179500Y-96422600D02*
X53946700Y-97189800D01*
X53946700Y-97189800D02*
X94460000Y-97189800D01*
X94460000Y-97640000D02*
X94460000Y-97189800D01*
X48460000Y-97640000D02*
X49635100Y-97640000D01*
X186460000Y-99729800D02*
X187219000Y-99729800D01*
X187219000Y-99729800D02*
X187986200Y-98962600D01*
X187986200Y-98962600D02*
X191179500Y-98962600D01*
X191179500Y-98962600D02*
X192396900Y-100180000D01*
X192396900Y-100180000D02*
X232460000Y-100180000D01*
X141460000Y-99729800D02*
X142219000Y-99729800D01*
X142219000Y-99729800D02*
X142986200Y-98962600D01*
X142986200Y-98962600D02*
X146179500Y-98962600D01*
X146179500Y-98962600D02*
X146946700Y-99729800D01*
X146946700Y-99729800D02*
X186460000Y-99729800D01*
X186460000Y-100180000D02*
X186460000Y-99729800D01*
X94460000Y-99729800D02*
X95219000Y-99729800D01*
X95219000Y-99729800D02*
X95986200Y-98962600D01*
X95986200Y-98962600D02*
X99179500Y-98962600D01*
X99179500Y-98962600D02*
X99946700Y-99729800D01*
X99946700Y-99729800D02*
X141460000Y-99729800D01*
X141460000Y-100180000D02*
X141460000Y-99729800D01*
X49635100Y-100180000D02*
X49635100Y-99812800D01*
X49635100Y-99812800D02*
X50485300Y-98962600D01*
X50485300Y-98962600D02*
X53179500Y-98962600D01*
X53179500Y-98962600D02*
X53946700Y-99729800D01*
X53946700Y-99729800D02*
X94460000Y-99729800D01*
X94460000Y-100180000D02*
X94460000Y-99729800D01*
X48460000Y-100180000D02*
X49635100Y-100180000D01*
X186460000Y-102269800D02*
X187219000Y-102269800D01*
X187219000Y-102269800D02*
X187986200Y-101502600D01*
X187986200Y-101502600D02*
X191179500Y-101502600D01*
X191179500Y-101502600D02*
X192396900Y-102720000D01*
X192396900Y-102720000D02*
X232460000Y-102720000D01*
X141460000Y-102269800D02*
X142219000Y-102269800D01*
X142219000Y-102269800D02*
X142986200Y-101502600D01*
X142986200Y-101502600D02*
X146179500Y-101502600D01*
X146179500Y-101502600D02*
X146946700Y-102269800D01*
X146946700Y-102269800D02*
X186460000Y-102269800D01*
X186460000Y-102720000D02*
X186460000Y-102269800D01*
X94460000Y-102269800D02*
X95219000Y-102269800D01*
X95219000Y-102269800D02*
X95986200Y-101502600D01*
X95986200Y-101502600D02*
X99179500Y-101502600D01*
X99179500Y-101502600D02*
X99946700Y-102269800D01*
X99946700Y-102269800D02*
X141460000Y-102269800D01*
X141460000Y-102720000D02*
X141460000Y-102269800D01*
X49635100Y-102720000D02*
X49635100Y-102352800D01*
X49635100Y-102352800D02*
X50485300Y-101502600D01*
X50485300Y-101502600D02*
X53179500Y-101502600D01*
X53179500Y-101502600D02*
X53946700Y-102269800D01*
X53946700Y-102269800D02*
X94460000Y-102269800D01*
X94460000Y-102720000D02*
X94460000Y-102269800D01*
X48460000Y-102720000D02*
X49635100Y-102720000D01*
X232460000Y-105260000D02*
X231284900Y-105260000D01*
X186460000Y-105260000D02*
X187635100Y-105260000D01*
X187635100Y-105260000D02*
X187635100Y-105627200D01*
X187635100Y-105627200D02*
X188449600Y-106441700D01*
X188449600Y-106441700D02*
X230103200Y-106441700D01*
X230103200Y-106441700D02*
X231284900Y-105260000D01*
X142635100Y-105260000D02*
X142635100Y-104892800D01*
X142635100Y-104892800D02*
X143445200Y-104082700D01*
X143445200Y-104082700D02*
X144897100Y-104082700D01*
X144897100Y-104082700D02*
X146074400Y-105260000D01*
X146074400Y-105260000D02*
X186460000Y-105260000D01*
X48460000Y-105260000D02*
X49635100Y-105260000D01*
X49635100Y-105260000D02*
X49635100Y-104892800D01*
X49635100Y-104892800D02*
X50444100Y-104083800D01*
X50444100Y-104083800D02*
X51893600Y-104083800D01*
X51893600Y-104083800D02*
X53069800Y-105260000D01*
X53069800Y-105260000D02*
X94460000Y-105260000D01*
X141460000Y-105260000D02*
X142635100Y-105260000D01*
X95635100Y-105260000D02*
X95635100Y-104892800D01*
X95635100Y-104892800D02*
X96445200Y-104082700D01*
X96445200Y-104082700D02*
X97897100Y-104082700D01*
X97897100Y-104082700D02*
X99074400Y-105260000D01*
X99074400Y-105260000D02*
X141460000Y-105260000D01*
X94460000Y-105260000D02*
X95635100Y-105260000D01*
X97000000Y-102720000D02*
X95824900Y-102720000D01*
X51000000Y-102720000D02*
X52175100Y-102720000D01*
X52175100Y-102720000D02*
X53370300Y-103915200D01*
X53370300Y-103915200D02*
X94994900Y-103915200D01*
X94994900Y-103915200D02*
X95824900Y-103085200D01*
X95824900Y-103085200D02*
X95824900Y-102720000D01*
X235000000Y-102720000D02*
X233824900Y-102720000D01*
X189000000Y-102720000D02*
X190175100Y-102720000D01*
X190175100Y-102720000D02*
X191365700Y-103910600D01*
X191365700Y-103910600D02*
X232999500Y-103910600D01*
X232999500Y-103910600D02*
X233824900Y-103085200D01*
X233824900Y-103085200D02*
X233824900Y-102720000D01*
X188412500Y-102720000D02*
X189000000Y-102720000D01*
X188412500Y-102720000D02*
X187824900Y-102720000D01*
X144000000Y-102720000D02*
X145175100Y-102720000D01*
X145175100Y-102720000D02*
X146365700Y-103910600D01*
X146365700Y-103910600D02*
X186999500Y-103910600D01*
X186999500Y-103910600D02*
X187824900Y-103085200D01*
X187824900Y-103085200D02*
X187824900Y-102720000D01*
X143412500Y-102720000D02*
X144000000Y-102720000D01*
X143412500Y-102720000D02*
X142824900Y-102720000D01*
X97000000Y-102720000D02*
X98175100Y-102720000D01*
X98175100Y-102720000D02*
X99365700Y-103910600D01*
X99365700Y-103910600D02*
X141999500Y-103910600D01*
X141999500Y-103910600D02*
X142824900Y-103085200D01*
X142824900Y-103085200D02*
X142824900Y-102720000D01*
X233824900Y-100180000D02*
X233824900Y-100545200D01*
X233824900Y-100545200D02*
X232999500Y-101370600D01*
X232999500Y-101370600D02*
X191947800Y-101370600D01*
X191947800Y-101370600D02*
X191947800Y-101316100D01*
X191947800Y-101316100D02*
X191552200Y-100920500D01*
X191552200Y-100920500D02*
X191126800Y-100920500D01*
X191126800Y-100920500D02*
X191021200Y-101026100D01*
X191021200Y-101026100D02*
X190175100Y-100180000D01*
X235000000Y-100180000D02*
X233824900Y-100180000D01*
X189000000Y-100180000D02*
X190175100Y-100180000D01*
X188412500Y-100180000D02*
X189000000Y-100180000D01*
X188412500Y-100180000D02*
X187824900Y-100180000D01*
X187824900Y-100180000D02*
X187824900Y-100545200D01*
X187824900Y-100545200D02*
X186999500Y-101370600D01*
X186999500Y-101370600D02*
X147002300Y-101370600D01*
X147002300Y-101370600D02*
X145811700Y-100180000D01*
X145811700Y-100180000D02*
X145175100Y-100180000D01*
X144000000Y-100180000D02*
X145175100Y-100180000D01*
X143412500Y-100180000D02*
X144000000Y-100180000D01*
X143412500Y-100180000D02*
X142824900Y-100180000D01*
X142824900Y-100180000D02*
X142824900Y-100545200D01*
X142824900Y-100545200D02*
X141999500Y-101370600D01*
X141999500Y-101370600D02*
X100002300Y-101370600D01*
X100002300Y-101370600D02*
X98811700Y-100180000D01*
X98811700Y-100180000D02*
X98175100Y-100180000D01*
X97000000Y-100180000D02*
X98175100Y-100180000D01*
X96412500Y-100180000D02*
X97000000Y-100180000D01*
X96412500Y-100180000D02*
X95824900Y-100180000D01*
X95824900Y-100180000D02*
X95824900Y-100545200D01*
X95824900Y-100545200D02*
X94999500Y-101370600D01*
X94999500Y-101370600D02*
X54002300Y-101370600D01*
X54002300Y-101370600D02*
X52811700Y-100180000D01*
X52811700Y-100180000D02*
X52175100Y-100180000D01*
X51000000Y-100180000D02*
X52175100Y-100180000D01*
X233824900Y-97640000D02*
X233824900Y-98005200D01*
X233824900Y-98005200D02*
X232999500Y-98830600D01*
X232999500Y-98830600D02*
X191947800Y-98830600D01*
X191947800Y-98830600D02*
X191947800Y-98776100D01*
X191947800Y-98776100D02*
X191552200Y-98380500D01*
X191552200Y-98380500D02*
X191126800Y-98380500D01*
X191126800Y-98380500D02*
X191021200Y-98486100D01*
X191021200Y-98486100D02*
X190175100Y-97640000D01*
X235000000Y-97640000D02*
X233824900Y-97640000D01*
X189000000Y-97640000D02*
X190175100Y-97640000D01*
X188412500Y-97640000D02*
X189000000Y-97640000D01*
X188412500Y-97640000D02*
X187824900Y-97640000D01*
X187824900Y-97640000D02*
X187824900Y-98005200D01*
X187824900Y-98005200D02*
X186999500Y-98830600D01*
X186999500Y-98830600D02*
X147002300Y-98830600D01*
X147002300Y-98830600D02*
X145811700Y-97640000D01*
X145811700Y-97640000D02*
X145175100Y-97640000D01*
X144000000Y-97640000D02*
X145175100Y-97640000D01*
X143412500Y-97640000D02*
X144000000Y-97640000D01*
X143412500Y-97640000D02*
X142824900Y-97640000D01*
X142824900Y-97640000D02*
X142824900Y-98005200D01*
X142824900Y-98005200D02*
X141999500Y-98830600D01*
X141999500Y-98830600D02*
X100002300Y-98830600D01*
X100002300Y-98830600D02*
X98811700Y-97640000D01*
X98811700Y-97640000D02*
X98175100Y-97640000D01*
X97000000Y-97640000D02*
X98175100Y-97640000D01*
X96412500Y-97640000D02*
X97000000Y-97640000D01*
X96412500Y-97640000D02*
X95824900Y-97640000D01*
X95824900Y-97640000D02*
X95824900Y-98005200D01*
X95824900Y-98005200D02*
X94999500Y-98830600D01*
X94999500Y-98830600D02*
X54002300Y-98830600D01*
X54002300Y-98830600D02*
X52811700Y-97640000D01*
X52811700Y-97640000D02*
X52175100Y-97640000D01*
X51000000Y-97640000D02*
X52175100Y-97640000D01*
X233824900Y-95100000D02*
X233824900Y-95465200D01*
X233824900Y-95465200D02*
X232999500Y-96290600D01*
X232999500Y-96290600D02*
X191947800Y-96290600D01*
X191947800Y-96290600D02*
X191947800Y-96236100D01*
X191947800Y-96236100D02*
X191552200Y-95840500D01*
X191552200Y-95840500D02*
X191126800Y-95840500D01*
X191126800Y-95840500D02*
X191021200Y-95946100D01*
X191021200Y-95946100D02*
X190175100Y-95100000D01*
X235000000Y-95100000D02*
X233824900Y-95100000D01*
X189000000Y-95100000D02*
X190175100Y-95100000D01*
X188412500Y-95100000D02*
X189000000Y-95100000D01*
X188412500Y-95100000D02*
X187824900Y-95100000D01*
X187824900Y-95100000D02*
X187824900Y-95465200D01*
X187824900Y-95465200D02*
X186999500Y-96290600D01*
X186999500Y-96290600D02*
X147002300Y-96290600D01*
X147002300Y-96290600D02*
X145811700Y-95100000D01*
X145811700Y-95100000D02*
X145175100Y-95100000D01*
X144000000Y-95100000D02*
X145175100Y-95100000D01*
X143412500Y-95100000D02*
X144000000Y-95100000D01*
X143412500Y-95100000D02*
X142824900Y-95100000D01*
X142824900Y-95100000D02*
X142824900Y-95465200D01*
X142824900Y-95465200D02*
X141999500Y-96290600D01*
X141999500Y-96290600D02*
X100002300Y-96290600D01*
X100002300Y-96290600D02*
X98811700Y-95100000D01*
X98811700Y-95100000D02*
X98175100Y-95100000D01*
X97000000Y-95100000D02*
X98175100Y-95100000D01*
X96412500Y-95100000D02*
X97000000Y-95100000D01*
X96412500Y-95100000D02*
X95824900Y-95100000D01*
X95824900Y-95100000D02*
X95824900Y-95465200D01*
X95824900Y-95465200D02*
X94999500Y-96290600D01*
X94999500Y-96290600D02*
X54002300Y-96290600D01*
X54002300Y-96290600D02*
X52811700Y-95100000D01*
X52811700Y-95100000D02*
X52175100Y-95100000D01*
X51000000Y-95100000D02*
X52175100Y-95100000D01*
X233824900Y-92560000D02*
X233824900Y-92925200D01*
X233824900Y-92925200D02*
X232999500Y-93750600D01*
X232999500Y-93750600D02*
X191947800Y-93750600D01*
X191947800Y-93750600D02*
X191947800Y-93696100D01*
X191947800Y-93696100D02*
X191552200Y-93300500D01*
X191552200Y-93300500D02*
X191126800Y-93300500D01*
X191126800Y-93300500D02*
X191021200Y-93406100D01*
X191021200Y-93406100D02*
X190175100Y-92560000D01*
X235000000Y-92560000D02*
X233824900Y-92560000D01*
X189000000Y-92560000D02*
X190175100Y-92560000D01*
X188412500Y-92560000D02*
X189000000Y-92560000D01*
X188412500Y-92560000D02*
X187824900Y-92560000D01*
X187824900Y-92560000D02*
X187824900Y-92925200D01*
X187824900Y-92925200D02*
X186999500Y-93750600D01*
X186999500Y-93750600D02*
X147002300Y-93750600D01*
X147002300Y-93750600D02*
X145811700Y-92560000D01*
X145811700Y-92560000D02*
X145175100Y-92560000D01*
X144000000Y-92560000D02*
X145175100Y-92560000D01*
X143412500Y-92560000D02*
X144000000Y-92560000D01*
X143412500Y-92560000D02*
X142824900Y-92560000D01*
X142824900Y-92560000D02*
X142824900Y-92925200D01*
X142824900Y-92925200D02*
X141999500Y-93750600D01*
X141999500Y-93750600D02*
X100002300Y-93750600D01*
X100002300Y-93750600D02*
X98811700Y-92560000D01*
X98811700Y-92560000D02*
X98175100Y-92560000D01*
X97000000Y-92560000D02*
X98175100Y-92560000D01*
X96412500Y-92560000D02*
X97000000Y-92560000D01*
X96412500Y-92560000D02*
X95824900Y-92560000D01*
X95824900Y-92560000D02*
X95824900Y-92925200D01*
X95824900Y-92925200D02*
X94999500Y-93750600D01*
X94999500Y-93750600D02*
X54002300Y-93750600D01*
X54002300Y-93750600D02*
X52811700Y-92560000D01*
X52811700Y-92560000D02*
X52175100Y-92560000D01*
X51000000Y-92560000D02*
X52175100Y-92560000D01*
X233824900Y-90020000D02*
X233824900Y-90385200D01*
X233824900Y-90385200D02*
X232999500Y-91210600D01*
X232999500Y-91210600D02*
X191947800Y-91210600D01*
X191947800Y-91210600D02*
X191947800Y-91156100D01*
X191947800Y-91156100D02*
X191552200Y-90760500D01*
X191552200Y-90760500D02*
X191126800Y-90760500D01*
X191126800Y-90760500D02*
X191021200Y-90866100D01*
X191021200Y-90866100D02*
X190175100Y-90020000D01*
X235000000Y-90020000D02*
X233824900Y-90020000D01*
X189000000Y-90020000D02*
X190175100Y-90020000D01*
X188412500Y-90020000D02*
X189000000Y-90020000D01*
X188412500Y-90020000D02*
X187824900Y-90020000D01*
X187824900Y-90020000D02*
X187824900Y-90385200D01*
X187824900Y-90385200D02*
X186999500Y-91210600D01*
X186999500Y-91210600D02*
X147002300Y-91210600D01*
X147002300Y-91210600D02*
X145811700Y-90020000D01*
X145811700Y-90020000D02*
X145175100Y-90020000D01*
X144000000Y-90020000D02*
X145175100Y-90020000D01*
X143412500Y-90020000D02*
X144000000Y-90020000D01*
X143412500Y-90020000D02*
X142824900Y-90020000D01*
X142824900Y-90020000D02*
X142824900Y-90385200D01*
X142824900Y-90385200D02*
X141999500Y-91210600D01*
X141999500Y-91210600D02*
X100002300Y-91210600D01*
X100002300Y-91210600D02*
X98811700Y-90020000D01*
X98811700Y-90020000D02*
X98175100Y-90020000D01*
X97000000Y-90020000D02*
X98175100Y-90020000D01*
X96412500Y-90020000D02*
X97000000Y-90020000D01*
X96412500Y-90020000D02*
X95824900Y-90020000D01*
X95824900Y-90020000D02*
X95824900Y-90385200D01*
X95824900Y-90385200D02*
X94999500Y-91210600D01*
X94999500Y-91210600D02*
X54002300Y-91210600D01*
X54002300Y-91210600D02*
X52811700Y-90020000D01*
X52811700Y-90020000D02*
X52175100Y-90020000D01*
X51000000Y-90020000D02*
X52175100Y-90020000D01*
X233824900Y-87480000D02*
X233824900Y-87845200D01*
X233824900Y-87845200D02*
X232999500Y-88670600D01*
X232999500Y-88670600D02*
X191947800Y-88670600D01*
X191947800Y-88670600D02*
X191947800Y-88616100D01*
X191947800Y-88616100D02*
X191552200Y-88220500D01*
X191552200Y-88220500D02*
X191126800Y-88220500D01*
X191126800Y-88220500D02*
X191021200Y-88326100D01*
X191021200Y-88326100D02*
X190175100Y-87480000D01*
X235000000Y-87480000D02*
X233824900Y-87480000D01*
X189000000Y-87480000D02*
X190175100Y-87480000D01*
X188412500Y-87480000D02*
X189000000Y-87480000D01*
X188412500Y-87480000D02*
X187824900Y-87480000D01*
X187824900Y-87480000D02*
X187824900Y-87845200D01*
X187824900Y-87845200D02*
X186999500Y-88670600D01*
X186999500Y-88670600D02*
X147002300Y-88670600D01*
X147002300Y-88670600D02*
X145811700Y-87480000D01*
X145811700Y-87480000D02*
X145175100Y-87480000D01*
X144000000Y-87480000D02*
X145175100Y-87480000D01*
X143412500Y-87480000D02*
X144000000Y-87480000D01*
X143412500Y-87480000D02*
X142824900Y-87480000D01*
X142824900Y-87480000D02*
X142824900Y-87845200D01*
X142824900Y-87845200D02*
X141999500Y-88670600D01*
X141999500Y-88670600D02*
X100002300Y-88670600D01*
X100002300Y-88670600D02*
X98811700Y-87480000D01*
X98811700Y-87480000D02*
X98175100Y-87480000D01*
X97000000Y-87480000D02*
X98175100Y-87480000D01*
X96412500Y-87480000D02*
X97000000Y-87480000D01*
X96412500Y-87480000D02*
X95824900Y-87480000D01*
X95824900Y-87480000D02*
X95824900Y-87845200D01*
X95824900Y-87845200D02*
X94999500Y-88670600D01*
X94999500Y-88670600D02*
X54002300Y-88670600D01*
X54002300Y-88670600D02*
X52811700Y-87480000D01*
X52811700Y-87480000D02*
X52175100Y-87480000D01*
X51000000Y-87480000D02*
X52175100Y-87480000D01*
X233824900Y-84940000D02*
X233824900Y-85305200D01*
X233824900Y-85305200D02*
X232999500Y-86130600D01*
X232999500Y-86130600D02*
X191947800Y-86130600D01*
X191947800Y-86130600D02*
X191947800Y-86076100D01*
X191947800Y-86076100D02*
X191552200Y-85680500D01*
X191552200Y-85680500D02*
X191126800Y-85680500D01*
X191126800Y-85680500D02*
X191021200Y-85786100D01*
X191021200Y-85786100D02*
X190175100Y-84940000D01*
X235000000Y-84940000D02*
X233824900Y-84940000D01*
X189000000Y-84940000D02*
X190175100Y-84940000D01*
X188412500Y-84940000D02*
X189000000Y-84940000D01*
X188412500Y-84940000D02*
X187824900Y-84940000D01*
X187824900Y-84940000D02*
X187824900Y-85305200D01*
X187824900Y-85305200D02*
X186999500Y-86130600D01*
X186999500Y-86130600D02*
X147002300Y-86130600D01*
X147002300Y-86130600D02*
X145811700Y-84940000D01*
X145811700Y-84940000D02*
X145175100Y-84940000D01*
X144000000Y-84940000D02*
X145175100Y-84940000D01*
X143412500Y-84940000D02*
X144000000Y-84940000D01*
X143412500Y-84940000D02*
X142824900Y-84940000D01*
X142824900Y-84940000D02*
X142824900Y-85305200D01*
X142824900Y-85305200D02*
X141999500Y-86130600D01*
X141999500Y-86130600D02*
X100002300Y-86130600D01*
X100002300Y-86130600D02*
X98811700Y-84940000D01*
X98811700Y-84940000D02*
X98175100Y-84940000D01*
X97000000Y-84940000D02*
X98175100Y-84940000D01*
X96412500Y-84940000D02*
X97000000Y-84940000D01*
X96412500Y-84940000D02*
X95824900Y-84940000D01*
X95824900Y-84940000D02*
X95824900Y-85305200D01*
X95824900Y-85305200D02*
X94999500Y-86130600D01*
X94999500Y-86130600D02*
X54002300Y-86130600D01*
X54002300Y-86130600D02*
X52811700Y-84940000D01*
X52811700Y-84940000D02*
X52175100Y-84940000D01*
X51000000Y-84940000D02*
X52175100Y-84940000D01*
X233824900Y-82400000D02*
X233824900Y-82765200D01*
X233824900Y-82765200D02*
X232999500Y-83590600D01*
X232999500Y-83590600D02*
X191947800Y-83590600D01*
X191947800Y-83590600D02*
X191947800Y-83536100D01*
X191947800Y-83536100D02*
X191552200Y-83140500D01*
X191552200Y-83140500D02*
X191126800Y-83140500D01*
X191126800Y-83140500D02*
X191021200Y-83246100D01*
X191021200Y-83246100D02*
X190175100Y-82400000D01*
X235000000Y-82400000D02*
X233824900Y-82400000D01*
X189000000Y-82400000D02*
X190175100Y-82400000D01*
X188412500Y-82400000D02*
X189000000Y-82400000D01*
X188412500Y-82400000D02*
X187824900Y-82400000D01*
X187824900Y-82400000D02*
X187824900Y-82765200D01*
X187824900Y-82765200D02*
X186999500Y-83590600D01*
X186999500Y-83590600D02*
X147002300Y-83590600D01*
X147002300Y-83590600D02*
X145811700Y-82400000D01*
X145811700Y-82400000D02*
X145175100Y-82400000D01*
X144000000Y-82400000D02*
X145175100Y-82400000D01*
X143412500Y-82400000D02*
X144000000Y-82400000D01*
X143412500Y-82400000D02*
X142824900Y-82400000D01*
X142824900Y-82400000D02*
X142824900Y-82765200D01*
X142824900Y-82765200D02*
X141999500Y-83590600D01*
X141999500Y-83590600D02*
X100002300Y-83590600D01*
X100002300Y-83590600D02*
X98811700Y-82400000D01*
X98811700Y-82400000D02*
X98175100Y-82400000D01*
X97000000Y-82400000D02*
X98175100Y-82400000D01*
X96412500Y-82400000D02*
X97000000Y-82400000D01*
X96412500Y-82400000D02*
X95824900Y-82400000D01*
X95824900Y-82400000D02*
X95824900Y-82765200D01*
X95824900Y-82765200D02*
X94999500Y-83590600D01*
X94999500Y-83590600D02*
X54002300Y-83590600D01*
X54002300Y-83590600D02*
X52811700Y-82400000D01*
X52811700Y-82400000D02*
X52175100Y-82400000D01*
X51000000Y-82400000D02*
X52175100Y-82400000D01*
X233824900Y-79860000D02*
X233824900Y-80225200D01*
X233824900Y-80225200D02*
X232999500Y-81050600D01*
X232999500Y-81050600D02*
X191947800Y-81050600D01*
X191947800Y-81050600D02*
X191947800Y-80996100D01*
X191947800Y-80996100D02*
X191552200Y-80600500D01*
X191552200Y-80600500D02*
X191126800Y-80600500D01*
X191126800Y-80600500D02*
X191021200Y-80706100D01*
X191021200Y-80706100D02*
X190175100Y-79860000D01*
X235000000Y-79860000D02*
X233824900Y-79860000D01*
X189000000Y-79860000D02*
X190175100Y-79860000D01*
X188412500Y-79860000D02*
X189000000Y-79860000D01*
X188412500Y-79860000D02*
X187824900Y-79860000D01*
X187824900Y-79860000D02*
X187824900Y-80225200D01*
X187824900Y-80225200D02*
X186999500Y-81050600D01*
X186999500Y-81050600D02*
X147002300Y-81050600D01*
X147002300Y-81050600D02*
X145811700Y-79860000D01*
X145811700Y-79860000D02*
X145175100Y-79860000D01*
X144000000Y-79860000D02*
X145175100Y-79860000D01*
X143412500Y-79860000D02*
X144000000Y-79860000D01*
X143412500Y-79860000D02*
X142824900Y-79860000D01*
X142824900Y-79860000D02*
X142824900Y-80225200D01*
X142824900Y-80225200D02*
X141999500Y-81050600D01*
X141999500Y-81050600D02*
X100002300Y-81050600D01*
X100002300Y-81050600D02*
X98811700Y-79860000D01*
X98811700Y-79860000D02*
X98175100Y-79860000D01*
X97000000Y-79860000D02*
X98175100Y-79860000D01*
X96412500Y-79860000D02*
X97000000Y-79860000D01*
X96412500Y-79860000D02*
X95824900Y-79860000D01*
X95824900Y-79860000D02*
X95824900Y-80225200D01*
X95824900Y-80225200D02*
X94999500Y-81050600D01*
X94999500Y-81050600D02*
X54002300Y-81050600D01*
X54002300Y-81050600D02*
X52811700Y-79860000D01*
X52811700Y-79860000D02*
X52175100Y-79860000D01*
X51000000Y-79860000D02*
X52175100Y-79860000D01*
X233824900Y-77320000D02*
X233824900Y-77685200D01*
X233824900Y-77685200D02*
X232999500Y-78510600D01*
X232999500Y-78510600D02*
X191947800Y-78510600D01*
X191947800Y-78510600D02*
X191947800Y-78456100D01*
X191947800Y-78456100D02*
X191552200Y-78060500D01*
X191552200Y-78060500D02*
X191126800Y-78060500D01*
X191126800Y-78060500D02*
X191021200Y-78166100D01*
X191021200Y-78166100D02*
X190175100Y-77320000D01*
X235000000Y-77320000D02*
X233824900Y-77320000D01*
X189000000Y-77320000D02*
X190175100Y-77320000D01*
X188412500Y-77320000D02*
X189000000Y-77320000D01*
X188412500Y-77320000D02*
X187824900Y-77320000D01*
X187824900Y-77320000D02*
X187824900Y-77685200D01*
X187824900Y-77685200D02*
X186999500Y-78510600D01*
X186999500Y-78510600D02*
X147002300Y-78510600D01*
X147002300Y-78510600D02*
X145811700Y-77320000D01*
X145811700Y-77320000D02*
X145175100Y-77320000D01*
X144000000Y-77320000D02*
X145175100Y-77320000D01*
X143412500Y-77320000D02*
X144000000Y-77320000D01*
X143412500Y-77320000D02*
X142824900Y-77320000D01*
X142824900Y-77320000D02*
X142824900Y-77685200D01*
X142824900Y-77685200D02*
X141999500Y-78510600D01*
X141999500Y-78510600D02*
X100002300Y-78510600D01*
X100002300Y-78510600D02*
X98811700Y-77320000D01*
X98811700Y-77320000D02*
X98175100Y-77320000D01*
X97000000Y-77320000D02*
X98175100Y-77320000D01*
X96412500Y-77320000D02*
X97000000Y-77320000D01*
X96412500Y-77320000D02*
X95824900Y-77320000D01*
X95824900Y-77320000D02*
X95824900Y-77685200D01*
X95824900Y-77685200D02*
X94999500Y-78510600D01*
X94999500Y-78510600D02*
X54002300Y-78510600D01*
X54002300Y-78510600D02*
X52811700Y-77320000D01*
X52811700Y-77320000D02*
X52175100Y-77320000D01*
X51000000Y-77320000D02*
X52175100Y-77320000D01*
X233824900Y-74780000D02*
X233824900Y-75145200D01*
X233824900Y-75145200D02*
X232999500Y-75970600D01*
X232999500Y-75970600D02*
X191947800Y-75970600D01*
X191947800Y-75970600D02*
X191947800Y-75916100D01*
X191947800Y-75916100D02*
X191552200Y-75520500D01*
X191552200Y-75520500D02*
X191126800Y-75520500D01*
X191126800Y-75520500D02*
X191021200Y-75626100D01*
X191021200Y-75626100D02*
X190175100Y-74780000D01*
X235000000Y-74780000D02*
X233824900Y-74780000D01*
X189000000Y-74780000D02*
X190175100Y-74780000D01*
X188412500Y-74780000D02*
X189000000Y-74780000D01*
X188412500Y-74780000D02*
X187824900Y-74780000D01*
X187824900Y-74780000D02*
X187824900Y-75145200D01*
X187824900Y-75145200D02*
X186999500Y-75970600D01*
X186999500Y-75970600D02*
X147002300Y-75970600D01*
X147002300Y-75970600D02*
X145811700Y-74780000D01*
X145811700Y-74780000D02*
X145175100Y-74780000D01*
X144000000Y-74780000D02*
X145175100Y-74780000D01*
X143412500Y-74780000D02*
X144000000Y-74780000D01*
X143412500Y-74780000D02*
X142824900Y-74780000D01*
X142824900Y-74780000D02*
X142824900Y-75145200D01*
X142824900Y-75145200D02*
X141999500Y-75970600D01*
X141999500Y-75970600D02*
X100002300Y-75970600D01*
X100002300Y-75970600D02*
X98811700Y-74780000D01*
X98811700Y-74780000D02*
X98175100Y-74780000D01*
X97000000Y-74780000D02*
X98175100Y-74780000D01*
X96412500Y-74780000D02*
X97000000Y-74780000D01*
X96412500Y-74780000D02*
X95824900Y-74780000D01*
X95824900Y-74780000D02*
X95824900Y-75145200D01*
X95824900Y-75145200D02*
X94999500Y-75970600D01*
X94999500Y-75970600D02*
X54002300Y-75970600D01*
X54002300Y-75970600D02*
X52811700Y-74780000D01*
X52811700Y-74780000D02*
X52175100Y-74780000D01*
X51000000Y-74780000D02*
X52175100Y-74780000D01*
X233824900Y-72240000D02*
X233824900Y-72605200D01*
X233824900Y-72605200D02*
X232999500Y-73430600D01*
X232999500Y-73430600D02*
X191947800Y-73430600D01*
X191947800Y-73430600D02*
X191947800Y-73376100D01*
X191947800Y-73376100D02*
X191552200Y-72980500D01*
X191552200Y-72980500D02*
X191126800Y-72980500D01*
X191126800Y-72980500D02*
X191021200Y-73086100D01*
X191021200Y-73086100D02*
X190175100Y-72240000D01*
X235000000Y-72240000D02*
X233824900Y-72240000D01*
X189000000Y-72240000D02*
X190175100Y-72240000D01*
X188412500Y-72240000D02*
X189000000Y-72240000D01*
X188412500Y-72240000D02*
X187824900Y-72240000D01*
X187824900Y-72240000D02*
X187824900Y-72605200D01*
X187824900Y-72605200D02*
X186999500Y-73430600D01*
X186999500Y-73430600D02*
X147002300Y-73430600D01*
X147002300Y-73430600D02*
X145811700Y-72240000D01*
X145811700Y-72240000D02*
X145175100Y-72240000D01*
X144000000Y-72240000D02*
X145175100Y-72240000D01*
X143412500Y-72240000D02*
X144000000Y-72240000D01*
X143412500Y-72240000D02*
X142824900Y-72240000D01*
X142824900Y-72240000D02*
X142824900Y-72605200D01*
X142824900Y-72605200D02*
X141999500Y-73430600D01*
X141999500Y-73430600D02*
X100002300Y-73430600D01*
X100002300Y-73430600D02*
X98811700Y-72240000D01*
X98811700Y-72240000D02*
X98175100Y-72240000D01*
X97000000Y-72240000D02*
X98175100Y-72240000D01*
X96412500Y-72240000D02*
X97000000Y-72240000D01*
X96412500Y-72240000D02*
X95824900Y-72240000D01*
X95824900Y-72240000D02*
X95824900Y-72605200D01*
X95824900Y-72605200D02*
X94999500Y-73430600D01*
X94999500Y-73430600D02*
X54002300Y-73430600D01*
X54002300Y-73430600D02*
X52811700Y-72240000D01*
X52811700Y-72240000D02*
X52175100Y-72240000D01*
X51000000Y-72240000D02*
X52175100Y-72240000D01*
X233824900Y-69700000D02*
X233824900Y-70065200D01*
X233824900Y-70065200D02*
X232999500Y-70890600D01*
X232999500Y-70890600D02*
X191947800Y-70890600D01*
X191947800Y-70890600D02*
X191947800Y-70836100D01*
X191947800Y-70836100D02*
X191552200Y-70440500D01*
X191552200Y-70440500D02*
X191126800Y-70440500D01*
X191126800Y-70440500D02*
X191021200Y-70546100D01*
X191021200Y-70546100D02*
X190175100Y-69700000D01*
X235000000Y-69700000D02*
X233824900Y-69700000D01*
X189000000Y-69700000D02*
X190175100Y-69700000D01*
X188412500Y-69700000D02*
X189000000Y-69700000D01*
X188412500Y-69700000D02*
X187824900Y-69700000D01*
X187824900Y-69700000D02*
X187824900Y-70065200D01*
X187824900Y-70065200D02*
X186999500Y-70890600D01*
X186999500Y-70890600D02*
X147002300Y-70890600D01*
X147002300Y-70890600D02*
X145811700Y-69700000D01*
X145811700Y-69700000D02*
X145175100Y-69700000D01*
X144000000Y-69700000D02*
X145175100Y-69700000D01*
X143412500Y-69700000D02*
X144000000Y-69700000D01*
X143412500Y-69700000D02*
X142824900Y-69700000D01*
X142824900Y-69700000D02*
X142824900Y-70065200D01*
X142824900Y-70065200D02*
X141999500Y-70890600D01*
X141999500Y-70890600D02*
X100002300Y-70890600D01*
X100002300Y-70890600D02*
X98811700Y-69700000D01*
X98811700Y-69700000D02*
X98175100Y-69700000D01*
X97000000Y-69700000D02*
X98175100Y-69700000D01*
X96412500Y-69700000D02*
X97000000Y-69700000D01*
X96412500Y-69700000D02*
X95824900Y-69700000D01*
X95824900Y-69700000D02*
X95824900Y-70065200D01*
X95824900Y-70065200D02*
X94999500Y-70890600D01*
X94999500Y-70890600D02*
X54002300Y-70890600D01*
X54002300Y-70890600D02*
X52811700Y-69700000D01*
X52811700Y-69700000D02*
X52175100Y-69700000D01*
X51000000Y-69700000D02*
X52175100Y-69700000D01*
X233824900Y-67160000D02*
X233824900Y-67525200D01*
X233824900Y-67525200D02*
X232999500Y-68350600D01*
X232999500Y-68350600D02*
X191947800Y-68350600D01*
X191947800Y-68350600D02*
X191947800Y-68296100D01*
X191947800Y-68296100D02*
X191552200Y-67900500D01*
X191552200Y-67900500D02*
X191126800Y-67900500D01*
X191126800Y-67900500D02*
X191021200Y-68006100D01*
X191021200Y-68006100D02*
X190175100Y-67160000D01*
X235000000Y-67160000D02*
X233824900Y-67160000D01*
X189000000Y-67160000D02*
X190175100Y-67160000D01*
X188412500Y-67160000D02*
X189000000Y-67160000D01*
X188412500Y-67160000D02*
X187824900Y-67160000D01*
X187824900Y-67160000D02*
X187824900Y-67525200D01*
X187824900Y-67525200D02*
X186999500Y-68350600D01*
X186999500Y-68350600D02*
X147002300Y-68350600D01*
X147002300Y-68350600D02*
X145811700Y-67160000D01*
X145811700Y-67160000D02*
X145175100Y-67160000D01*
X144000000Y-67160000D02*
X145175100Y-67160000D01*
X143412500Y-67160000D02*
X144000000Y-67160000D01*
X143412500Y-67160000D02*
X142824900Y-67160000D01*
X142824900Y-67160000D02*
X142824900Y-67525200D01*
X142824900Y-67525200D02*
X141999500Y-68350600D01*
X141999500Y-68350600D02*
X100002300Y-68350600D01*
X100002300Y-68350600D02*
X98811700Y-67160000D01*
X98811700Y-67160000D02*
X98175100Y-67160000D01*
X97000000Y-67160000D02*
X98175100Y-67160000D01*
X96412500Y-67160000D02*
X97000000Y-67160000D01*
X96412500Y-67160000D02*
X95824900Y-67160000D01*
X95824900Y-67160000D02*
X95824900Y-67525200D01*
X95824900Y-67525200D02*
X94999500Y-68350600D01*
X94999500Y-68350600D02*
X54002300Y-68350600D01*
X54002300Y-68350600D02*
X52811700Y-67160000D01*
X52811700Y-67160000D02*
X52175100Y-67160000D01*
X51000000Y-67160000D02*
X52175100Y-67160000D01*
X233824900Y-64620000D02*
X233824900Y-64985200D01*
X233824900Y-64985200D02*
X232999500Y-65810600D01*
X232999500Y-65810600D02*
X191947800Y-65810600D01*
X191947800Y-65810600D02*
X191947800Y-65756100D01*
X191947800Y-65756100D02*
X191552200Y-65360500D01*
X191552200Y-65360500D02*
X191126800Y-65360500D01*
X191126800Y-65360500D02*
X191021200Y-65466100D01*
X191021200Y-65466100D02*
X190175100Y-64620000D01*
X235000000Y-64620000D02*
X233824900Y-64620000D01*
X189000000Y-64620000D02*
X190175100Y-64620000D01*
X188412500Y-64620000D02*
X189000000Y-64620000D01*
X188412500Y-64620000D02*
X187824900Y-64620000D01*
X187824900Y-64620000D02*
X187824900Y-64985200D01*
X187824900Y-64985200D02*
X186999500Y-65810600D01*
X186999500Y-65810600D02*
X147002300Y-65810600D01*
X147002300Y-65810600D02*
X145811700Y-64620000D01*
X145811700Y-64620000D02*
X145175100Y-64620000D01*
X144000000Y-64620000D02*
X145175100Y-64620000D01*
X143412500Y-64620000D02*
X144000000Y-64620000D01*
X143412500Y-64620000D02*
X142824900Y-64620000D01*
X142824900Y-64620000D02*
X142824900Y-64985200D01*
X142824900Y-64985200D02*
X141999500Y-65810600D01*
X141999500Y-65810600D02*
X100002300Y-65810600D01*
X100002300Y-65810600D02*
X98811700Y-64620000D01*
X98811700Y-64620000D02*
X98175100Y-64620000D01*
X97000000Y-64620000D02*
X98175100Y-64620000D01*
X96412500Y-64620000D02*
X97000000Y-64620000D01*
X96412500Y-64620000D02*
X95824900Y-64620000D01*
X95824900Y-64620000D02*
X95824900Y-64985200D01*
X95824900Y-64985200D02*
X94999500Y-65810600D01*
X94999500Y-65810600D02*
X54002300Y-65810600D01*
X54002300Y-65810600D02*
X52811700Y-64620000D01*
X52811700Y-64620000D02*
X52175100Y-64620000D01*
X51000000Y-64620000D02*
X52175100Y-64620000D01*
X233824900Y-62080000D02*
X233824900Y-62445200D01*
X233824900Y-62445200D02*
X232999500Y-63270600D01*
X232999500Y-63270600D02*
X191947800Y-63270600D01*
X191947800Y-63270600D02*
X191947800Y-63216100D01*
X191947800Y-63216100D02*
X191552200Y-62820500D01*
X191552200Y-62820500D02*
X191126800Y-62820500D01*
X191126800Y-62820500D02*
X191021200Y-62926100D01*
X191021200Y-62926100D02*
X190175100Y-62080000D01*
X235000000Y-62080000D02*
X233824900Y-62080000D01*
X189000000Y-62080000D02*
X190175100Y-62080000D01*
X188412500Y-62080000D02*
X189000000Y-62080000D01*
X188412500Y-62080000D02*
X187824900Y-62080000D01*
X187824900Y-62080000D02*
X187824900Y-62445200D01*
X187824900Y-62445200D02*
X186999500Y-63270600D01*
X186999500Y-63270600D02*
X147002300Y-63270600D01*
X147002300Y-63270600D02*
X145811700Y-62080000D01*
X145811700Y-62080000D02*
X145175100Y-62080000D01*
X144000000Y-62080000D02*
X145175100Y-62080000D01*
X143412500Y-62080000D02*
X144000000Y-62080000D01*
X143412500Y-62080000D02*
X142824900Y-62080000D01*
X142824900Y-62080000D02*
X142824900Y-62445200D01*
X142824900Y-62445200D02*
X141999500Y-63270600D01*
X141999500Y-63270600D02*
X100002300Y-63270600D01*
X100002300Y-63270600D02*
X98811700Y-62080000D01*
X98811700Y-62080000D02*
X98175100Y-62080000D01*
X97000000Y-62080000D02*
X98175100Y-62080000D01*
X96412500Y-62080000D02*
X97000000Y-62080000D01*
X96412500Y-62080000D02*
X95824900Y-62080000D01*
X95824900Y-62080000D02*
X95824900Y-62445200D01*
X95824900Y-62445200D02*
X94999500Y-63270600D01*
X94999500Y-63270600D02*
X54002300Y-63270600D01*
X54002300Y-63270600D02*
X52811700Y-62080000D01*
X52811700Y-62080000D02*
X52175100Y-62080000D01*
X51000000Y-62080000D02*
X52175100Y-62080000D01*
M02*
