G04 #@! TF.GenerationSoftware,KiCad,Pcbnew,(5.1.12)-1*
G04 #@! TF.CreationDate,2022-10-05T17:50:00-05:00*
G04 #@! TF.ProjectId,motherboard,6d6f7468-6572-4626-9f61-72642e6b6963,rev?*
G04 #@! TF.SameCoordinates,Original*
G04 #@! TF.FileFunction,Legend,Top*
G04 #@! TF.FilePolarity,Positive*
%FSLAX46Y46*%
G04 Gerber Fmt 4.6, Leading zero omitted, Abs format (unit mm)*
G04 Created by KiCad (PCBNEW (5.1.12)-1) date 2022-10-05 17:50:00*
%MOMM*%
%LPD*%
G01*
G04 APERTURE LIST*
%ADD10C,0.150000*%
%ADD11C,0.120000*%
%ADD12O,1.700000X1.700000*%
%ADD13R,1.700000X1.700000*%
%ADD14C,1.600000*%
%ADD15R,2.600000X2.600000*%
%ADD16C,2.600000*%
G04 APERTURE END LIST*
D10*
X212139523Y-32202380D02*
X212139523Y-31202380D01*
X212472857Y-31916666D01*
X212806190Y-31202380D01*
X212806190Y-32202380D01*
X213710952Y-31202380D02*
X213520476Y-31202380D01*
X213425238Y-31250000D01*
X213377619Y-31297619D01*
X213282380Y-31440476D01*
X213234761Y-31630952D01*
X213234761Y-32011904D01*
X213282380Y-32107142D01*
X213330000Y-32154761D01*
X213425238Y-32202380D01*
X213615714Y-32202380D01*
X213710952Y-32154761D01*
X213758571Y-32107142D01*
X213806190Y-32011904D01*
X213806190Y-31773809D01*
X213758571Y-31678571D01*
X213710952Y-31630952D01*
X213615714Y-31583333D01*
X213425238Y-31583333D01*
X213330000Y-31630952D01*
X213282380Y-31678571D01*
X213234761Y-31773809D01*
X214710952Y-31202380D02*
X214234761Y-31202380D01*
X214187142Y-31678571D01*
X214234761Y-31630952D01*
X214330000Y-31583333D01*
X214568095Y-31583333D01*
X214663333Y-31630952D01*
X214710952Y-31678571D01*
X214758571Y-31773809D01*
X214758571Y-32011904D01*
X214710952Y-32107142D01*
X214663333Y-32154761D01*
X214568095Y-32202380D01*
X214330000Y-32202380D01*
X214234761Y-32154761D01*
X214187142Y-32107142D01*
X215377619Y-31202380D02*
X215472857Y-31202380D01*
X215568095Y-31250000D01*
X215615714Y-31297619D01*
X215663333Y-31392857D01*
X215710952Y-31583333D01*
X215710952Y-31821428D01*
X215663333Y-32011904D01*
X215615714Y-32107142D01*
X215568095Y-32154761D01*
X215472857Y-32202380D01*
X215377619Y-32202380D01*
X215282380Y-32154761D01*
X215234761Y-32107142D01*
X215187142Y-32011904D01*
X215139523Y-31821428D01*
X215139523Y-31583333D01*
X215187142Y-31392857D01*
X215234761Y-31297619D01*
X215282380Y-31250000D01*
X215377619Y-31202380D01*
X216091904Y-31297619D02*
X216139523Y-31250000D01*
X216234761Y-31202380D01*
X216472857Y-31202380D01*
X216568095Y-31250000D01*
X216615714Y-31297619D01*
X216663333Y-31392857D01*
X216663333Y-31488095D01*
X216615714Y-31630952D01*
X216044285Y-32202380D01*
X216663333Y-32202380D01*
X218187142Y-31678571D02*
X218330000Y-31726190D01*
X218377619Y-31773809D01*
X218425238Y-31869047D01*
X218425238Y-32011904D01*
X218377619Y-32107142D01*
X218330000Y-32154761D01*
X218234761Y-32202380D01*
X217853809Y-32202380D01*
X217853809Y-31202380D01*
X218187142Y-31202380D01*
X218282380Y-31250000D01*
X218330000Y-31297619D01*
X218377619Y-31392857D01*
X218377619Y-31488095D01*
X218330000Y-31583333D01*
X218282380Y-31630952D01*
X218187142Y-31678571D01*
X217853809Y-31678571D01*
X219282380Y-32202380D02*
X219282380Y-31678571D01*
X219234761Y-31583333D01*
X219139523Y-31535714D01*
X218949047Y-31535714D01*
X218853809Y-31583333D01*
X219282380Y-32154761D02*
X219187142Y-32202380D01*
X218949047Y-32202380D01*
X218853809Y-32154761D01*
X218806190Y-32059523D01*
X218806190Y-31964285D01*
X218853809Y-31869047D01*
X218949047Y-31821428D01*
X219187142Y-31821428D01*
X219282380Y-31773809D01*
X220187142Y-32154761D02*
X220091904Y-32202380D01*
X219901428Y-32202380D01*
X219806190Y-32154761D01*
X219758571Y-32107142D01*
X219710952Y-32011904D01*
X219710952Y-31726190D01*
X219758571Y-31630952D01*
X219806190Y-31583333D01*
X219901428Y-31535714D01*
X220091904Y-31535714D01*
X220187142Y-31583333D01*
X220615714Y-32202380D02*
X220615714Y-31202380D01*
X220710952Y-31821428D02*
X220996666Y-32202380D01*
X220996666Y-31535714D02*
X220615714Y-31916666D01*
X221425238Y-31535714D02*
X221425238Y-32535714D01*
X221425238Y-31583333D02*
X221520476Y-31535714D01*
X221710952Y-31535714D01*
X221806190Y-31583333D01*
X221853809Y-31630952D01*
X221901428Y-31726190D01*
X221901428Y-32011904D01*
X221853809Y-32107142D01*
X221806190Y-32154761D01*
X221710952Y-32202380D01*
X221520476Y-32202380D01*
X221425238Y-32154761D01*
X222472857Y-32202380D02*
X222377619Y-32154761D01*
X222330000Y-32059523D01*
X222330000Y-31202380D01*
X223282380Y-32202380D02*
X223282380Y-31678571D01*
X223234761Y-31583333D01*
X223139523Y-31535714D01*
X222949047Y-31535714D01*
X222853809Y-31583333D01*
X223282380Y-32154761D02*
X223187142Y-32202380D01*
X222949047Y-32202380D01*
X222853809Y-32154761D01*
X222806190Y-32059523D01*
X222806190Y-31964285D01*
X222853809Y-31869047D01*
X222949047Y-31821428D01*
X223187142Y-31821428D01*
X223282380Y-31773809D01*
X223758571Y-31535714D02*
X223758571Y-32202380D01*
X223758571Y-31630952D02*
X223806190Y-31583333D01*
X223901428Y-31535714D01*
X224044285Y-31535714D01*
X224139523Y-31583333D01*
X224187142Y-31678571D01*
X224187142Y-32202380D01*
X225044285Y-32154761D02*
X224949047Y-32202380D01*
X224758571Y-32202380D01*
X224663333Y-32154761D01*
X224615714Y-32059523D01*
X224615714Y-31678571D01*
X224663333Y-31583333D01*
X224758571Y-31535714D01*
X224949047Y-31535714D01*
X225044285Y-31583333D01*
X225091904Y-31678571D01*
X225091904Y-31773809D01*
X224615714Y-31869047D01*
X226282380Y-31535714D02*
X226282380Y-32392857D01*
X226234761Y-32488095D01*
X226139523Y-32535714D01*
X226091904Y-32535714D01*
X226282380Y-31202380D02*
X226234761Y-31250000D01*
X226282380Y-31297619D01*
X226330000Y-31250000D01*
X226282380Y-31202380D01*
X226282380Y-31297619D01*
X226758571Y-32202380D02*
X226758571Y-31202380D01*
X227187142Y-32202380D02*
X227187142Y-31678571D01*
X227139523Y-31583333D01*
X227044285Y-31535714D01*
X226901428Y-31535714D01*
X226806190Y-31583333D01*
X226758571Y-31630952D01*
X228044285Y-32154761D02*
X227949047Y-32202380D01*
X227758571Y-32202380D01*
X227663333Y-32154761D01*
X227615714Y-32059523D01*
X227615714Y-31678571D01*
X227663333Y-31583333D01*
X227758571Y-31535714D01*
X227949047Y-31535714D01*
X228044285Y-31583333D01*
X228091904Y-31678571D01*
X228091904Y-31773809D01*
X227615714Y-31869047D01*
X229139523Y-31726190D02*
X229091904Y-31678571D01*
X228996666Y-31630952D01*
X228901428Y-31630952D01*
X228806190Y-31678571D01*
X228758571Y-31726190D01*
X228710952Y-31821428D01*
X228710952Y-31916666D01*
X228758571Y-32011904D01*
X228806190Y-32059523D01*
X228901428Y-32107142D01*
X228996666Y-32107142D01*
X229091904Y-32059523D01*
X229139523Y-32011904D01*
X229139523Y-31630952D02*
X229139523Y-32011904D01*
X229187142Y-32059523D01*
X229234761Y-32059523D01*
X229330000Y-32011904D01*
X229377619Y-31916666D01*
X229377619Y-31678571D01*
X229282380Y-31535714D01*
X229139523Y-31440476D01*
X228949047Y-31392857D01*
X228758571Y-31440476D01*
X228615714Y-31535714D01*
X228520476Y-31678571D01*
X228472857Y-31869047D01*
X228520476Y-32059523D01*
X228615714Y-32202380D01*
X228758571Y-32297619D01*
X228949047Y-32345238D01*
X229139523Y-32297619D01*
X229282380Y-32202380D01*
X229806190Y-31535714D02*
X229806190Y-32392857D01*
X229758571Y-32488095D01*
X229663333Y-32535714D01*
X229615714Y-32535714D01*
X229806190Y-31202380D02*
X229758571Y-31250000D01*
X229806190Y-31297619D01*
X229853809Y-31250000D01*
X229806190Y-31202380D01*
X229806190Y-31297619D01*
X230663333Y-32154761D02*
X230568095Y-32202380D01*
X230377619Y-32202380D01*
X230282380Y-32154761D01*
X230234761Y-32059523D01*
X230234761Y-31678571D01*
X230282380Y-31583333D01*
X230377619Y-31535714D01*
X230568095Y-31535714D01*
X230663333Y-31583333D01*
X230710952Y-31678571D01*
X230710952Y-31773809D01*
X230234761Y-31869047D01*
X231139523Y-32202380D02*
X231139523Y-31535714D01*
X231139523Y-31726190D02*
X231187142Y-31630952D01*
X231234761Y-31583333D01*
X231330000Y-31535714D01*
X231425238Y-31535714D01*
X232139523Y-32154761D02*
X232044285Y-32202380D01*
X231853809Y-32202380D01*
X231758571Y-32154761D01*
X231710952Y-32059523D01*
X231710952Y-31678571D01*
X231758571Y-31583333D01*
X231853809Y-31535714D01*
X232044285Y-31535714D01*
X232139523Y-31583333D01*
X232187142Y-31678571D01*
X232187142Y-31773809D01*
X231710952Y-31869047D01*
X232615714Y-32202380D02*
X232615714Y-31535714D01*
X232615714Y-31630952D02*
X232663333Y-31583333D01*
X232758571Y-31535714D01*
X232901428Y-31535714D01*
X232996666Y-31583333D01*
X233044285Y-31678571D01*
X233044285Y-32202380D01*
X233044285Y-31678571D02*
X233091904Y-31583333D01*
X233187142Y-31535714D01*
X233330000Y-31535714D01*
X233425238Y-31583333D01*
X233472857Y-31678571D01*
X233472857Y-32202380D01*
X233853809Y-31535714D02*
X234091904Y-32202380D01*
X234330000Y-31535714D02*
X234091904Y-32202380D01*
X233996666Y-32440476D01*
X233949047Y-32488095D01*
X233853809Y-32535714D01*
X235091904Y-32154761D02*
X234996666Y-32202380D01*
X234806190Y-32202380D01*
X234710952Y-32154761D01*
X234663333Y-32059523D01*
X234663333Y-31678571D01*
X234710952Y-31583333D01*
X234806190Y-31535714D01*
X234996666Y-31535714D01*
X235091904Y-31583333D01*
X235139523Y-31678571D01*
X235139523Y-31773809D01*
X234663333Y-31869047D01*
X235568095Y-31535714D02*
X235568095Y-32202380D01*
X235568095Y-31630952D02*
X235615714Y-31583333D01*
X235710952Y-31535714D01*
X235853809Y-31535714D01*
X235949047Y-31583333D01*
X235996666Y-31678571D01*
X235996666Y-32202380D01*
X236901428Y-31535714D02*
X236901428Y-32345238D01*
X236853809Y-32440476D01*
X236806190Y-32488095D01*
X236710952Y-32535714D01*
X236568095Y-32535714D01*
X236472857Y-32488095D01*
X236901428Y-32154761D02*
X236806190Y-32202380D01*
X236615714Y-32202380D01*
X236520476Y-32154761D01*
X236472857Y-32107142D01*
X236425238Y-32011904D01*
X236425238Y-31726190D01*
X236472857Y-31630952D01*
X236520476Y-31583333D01*
X236615714Y-31535714D01*
X236806190Y-31535714D01*
X236901428Y-31583333D01*
X237520476Y-32202380D02*
X237425238Y-32154761D01*
X237377619Y-32059523D01*
X237377619Y-31202380D01*
X237901428Y-32202380D02*
X237901428Y-31535714D01*
X237901428Y-31202380D02*
X237853809Y-31250000D01*
X237901428Y-31297619D01*
X237949047Y-31250000D01*
X237901428Y-31202380D01*
X237901428Y-31297619D01*
X238330000Y-32154761D02*
X238425238Y-32202380D01*
X238615714Y-32202380D01*
X238710952Y-32154761D01*
X238758571Y-32059523D01*
X238758571Y-32011904D01*
X238710952Y-31916666D01*
X238615714Y-31869047D01*
X238472857Y-31869047D01*
X238377619Y-31821428D01*
X238330000Y-31726190D01*
X238330000Y-31678571D01*
X238377619Y-31583333D01*
X238472857Y-31535714D01*
X238615714Y-31535714D01*
X238710952Y-31583333D01*
X239187142Y-32202380D02*
X239187142Y-31202380D01*
X239615714Y-32202380D02*
X239615714Y-31678571D01*
X239568095Y-31583333D01*
X239472857Y-31535714D01*
X239330000Y-31535714D01*
X239234761Y-31583333D01*
X239187142Y-31630952D01*
X240091904Y-32107142D02*
X240139523Y-32154761D01*
X240091904Y-32202380D01*
X240044285Y-32154761D01*
X240091904Y-32107142D01*
X240091904Y-32202380D01*
X240710952Y-32202380D02*
X240615714Y-32154761D01*
X240568095Y-32107142D01*
X240520476Y-32011904D01*
X240520476Y-31726190D01*
X240568095Y-31630952D01*
X240615714Y-31583333D01*
X240710952Y-31535714D01*
X240853809Y-31535714D01*
X240949047Y-31583333D01*
X240996666Y-31630952D01*
X241044285Y-31726190D01*
X241044285Y-32011904D01*
X240996666Y-32107142D01*
X240949047Y-32154761D01*
X240853809Y-32202380D01*
X240710952Y-32202380D01*
X241472857Y-32202380D02*
X241472857Y-31535714D01*
X241472857Y-31726190D02*
X241520476Y-31630952D01*
X241568095Y-31583333D01*
X241663333Y-31535714D01*
X241758571Y-31535714D01*
X242520476Y-31535714D02*
X242520476Y-32345238D01*
X242472857Y-32440476D01*
X242425238Y-32488095D01*
X242330000Y-32535714D01*
X242187142Y-32535714D01*
X242091904Y-32488095D01*
X242520476Y-32154761D02*
X242425238Y-32202380D01*
X242234761Y-32202380D01*
X242139523Y-32154761D01*
X242091904Y-32107142D01*
X242044285Y-32011904D01*
X242044285Y-31726190D01*
X242091904Y-31630952D01*
X242139523Y-31583333D01*
X242234761Y-31535714D01*
X242425238Y-31535714D01*
X242520476Y-31583333D01*
X47498095Y-118880000D02*
X47402857Y-118832380D01*
X47260000Y-118832380D01*
X47117142Y-118880000D01*
X47021904Y-118975238D01*
X46974285Y-119070476D01*
X46926666Y-119260952D01*
X46926666Y-119403809D01*
X46974285Y-119594285D01*
X47021904Y-119689523D01*
X47117142Y-119784761D01*
X47260000Y-119832380D01*
X47355238Y-119832380D01*
X47498095Y-119784761D01*
X47545714Y-119737142D01*
X47545714Y-119403809D01*
X47355238Y-119403809D01*
X47974285Y-119832380D02*
X47974285Y-118832380D01*
X48545714Y-119832380D01*
X48545714Y-118832380D01*
X49021904Y-119832380D02*
X49021904Y-118832380D01*
X49260000Y-118832380D01*
X49402857Y-118880000D01*
X49498095Y-118975238D01*
X49545714Y-119070476D01*
X49593333Y-119260952D01*
X49593333Y-119403809D01*
X49545714Y-119594285D01*
X49498095Y-119689523D01*
X49402857Y-119784761D01*
X49260000Y-119832380D01*
X49021904Y-119832380D01*
X50784285Y-119451428D02*
X51546190Y-119451428D01*
X51165238Y-119832380D02*
X51165238Y-119070476D01*
X52498571Y-118832380D02*
X52022380Y-118832380D01*
X51974761Y-119308571D01*
X52022380Y-119260952D01*
X52117619Y-119213333D01*
X52355714Y-119213333D01*
X52450952Y-119260952D01*
X52498571Y-119308571D01*
X52546190Y-119403809D01*
X52546190Y-119641904D01*
X52498571Y-119737142D01*
X52450952Y-119784761D01*
X52355714Y-119832380D01*
X52117619Y-119832380D01*
X52022380Y-119784761D01*
X51974761Y-119737142D01*
X52831904Y-118832380D02*
X53165238Y-119832380D01*
X53498571Y-118832380D01*
X240514285Y-83002380D02*
X240180952Y-82526190D01*
X239942857Y-83002380D02*
X239942857Y-82002380D01*
X240323809Y-82002380D01*
X240419047Y-82050000D01*
X240466666Y-82097619D01*
X240514285Y-82192857D01*
X240514285Y-82335714D01*
X240466666Y-82430952D01*
X240419047Y-82478571D01*
X240323809Y-82526190D01*
X239942857Y-82526190D01*
X241657142Y-81954761D02*
X240800000Y-83240476D01*
X241895238Y-82002380D02*
X242133333Y-83002380D01*
X242323809Y-82288095D01*
X242514285Y-83002380D01*
X242752380Y-82002380D01*
X240561904Y-65113160D02*
X240561904Y-64113160D01*
X240800000Y-64113160D01*
X240942857Y-64160780D01*
X241038095Y-64256018D01*
X241085714Y-64351256D01*
X241133333Y-64541732D01*
X241133333Y-64684589D01*
X241085714Y-64875065D01*
X241038095Y-64970303D01*
X240942857Y-65065541D01*
X240800000Y-65113160D01*
X240561904Y-65113160D01*
X242085714Y-65113160D02*
X241514285Y-65113160D01*
X241800000Y-65113160D02*
X241800000Y-64113160D01*
X241704761Y-64256018D01*
X241609523Y-64351256D01*
X241514285Y-64398875D01*
X240561904Y-80462380D02*
X240561904Y-79462380D01*
X240800000Y-79462380D01*
X240942857Y-79510000D01*
X241038095Y-79605238D01*
X241085714Y-79700476D01*
X241133333Y-79890952D01*
X241133333Y-80033809D01*
X241085714Y-80224285D01*
X241038095Y-80319523D01*
X240942857Y-80414761D01*
X240800000Y-80462380D01*
X240561904Y-80462380D01*
X241466666Y-79462380D02*
X242133333Y-79462380D01*
X241704761Y-80462380D01*
X240561904Y-72750940D02*
X240561904Y-71750940D01*
X240800000Y-71750940D01*
X240942857Y-71798560D01*
X241038095Y-71893798D01*
X241085714Y-71989036D01*
X241133333Y-72179512D01*
X241133333Y-72322369D01*
X241085714Y-72512845D01*
X241038095Y-72608083D01*
X240942857Y-72703321D01*
X240800000Y-72750940D01*
X240561904Y-72750940D01*
X241990476Y-72084274D02*
X241990476Y-72750940D01*
X241752380Y-71703321D02*
X241514285Y-72417607D01*
X242133333Y-72417607D01*
X240538095Y-56500000D02*
X240442857Y-56452380D01*
X240300000Y-56452380D01*
X240157142Y-56500000D01*
X240061904Y-56595238D01*
X240014285Y-56690476D01*
X239966666Y-56880952D01*
X239966666Y-57023809D01*
X240014285Y-57214285D01*
X240061904Y-57309523D01*
X240157142Y-57404761D01*
X240300000Y-57452380D01*
X240395238Y-57452380D01*
X240538095Y-57404761D01*
X240585714Y-57357142D01*
X240585714Y-57023809D01*
X240395238Y-57023809D01*
X241014285Y-57452380D02*
X241014285Y-56452380D01*
X241585714Y-57452380D01*
X241585714Y-56452380D01*
X242061904Y-57452380D02*
X242061904Y-56452380D01*
X242300000Y-56452380D01*
X242442857Y-56500000D01*
X242538095Y-56595238D01*
X242585714Y-56690476D01*
X242633333Y-56880952D01*
X242633333Y-57023809D01*
X242585714Y-57214285D01*
X242538095Y-57309523D01*
X242442857Y-57404761D01*
X242300000Y-57452380D01*
X242061904Y-57452380D01*
X240316474Y-103322380D02*
X239983140Y-102846190D01*
X239745045Y-103322380D02*
X239745045Y-102322380D01*
X240125998Y-102322380D01*
X240221236Y-102370000D01*
X240268855Y-102417619D01*
X240316474Y-102512857D01*
X240316474Y-102655714D01*
X240268855Y-102750952D01*
X240221236Y-102798571D01*
X240125998Y-102846190D01*
X239745045Y-102846190D01*
X240745045Y-103322380D02*
X240745045Y-102322380D01*
X241316474Y-103322380D01*
X241316474Y-102322380D01*
X242316474Y-102370000D02*
X242221236Y-102322380D01*
X242078379Y-102322380D01*
X241935521Y-102370000D01*
X241840283Y-102465238D01*
X241792664Y-102560476D01*
X241745045Y-102750952D01*
X241745045Y-102893809D01*
X241792664Y-103084285D01*
X241840283Y-103179523D01*
X241935521Y-103274761D01*
X242078379Y-103322380D01*
X242173617Y-103322380D01*
X242316474Y-103274761D01*
X242364093Y-103227142D01*
X242364093Y-102893809D01*
X242173617Y-102893809D01*
X238340283Y-98242380D02*
X238340283Y-97242380D01*
X238721236Y-97242380D01*
X238816474Y-97290000D01*
X238864093Y-97337619D01*
X238911712Y-97432857D01*
X238911712Y-97575714D01*
X238864093Y-97670952D01*
X238816474Y-97718571D01*
X238721236Y-97766190D01*
X238340283Y-97766190D01*
X239340283Y-98242380D02*
X239340283Y-97242380D01*
X239340283Y-97718571D02*
X239911712Y-97718571D01*
X239911712Y-98242380D02*
X239911712Y-97242380D01*
X240387902Y-98242380D02*
X240387902Y-97242380D01*
X241387902Y-98242380D02*
X240816474Y-98242380D01*
X241102188Y-98242380D02*
X241102188Y-97242380D01*
X241006950Y-97385238D01*
X240911712Y-97480476D01*
X240816474Y-97528095D01*
X241959331Y-98242380D02*
X241864093Y-98194761D01*
X241816474Y-98147142D01*
X241768855Y-98051904D01*
X241768855Y-97766190D01*
X241816474Y-97670952D01*
X241864093Y-97623333D01*
X241959331Y-97575714D01*
X242102188Y-97575714D01*
X242197426Y-97623333D01*
X242245045Y-97670952D01*
X242292664Y-97766190D01*
X242292664Y-98051904D01*
X242245045Y-98147142D01*
X242197426Y-98194761D01*
X242102188Y-98242380D01*
X241959331Y-98242380D01*
X243149807Y-97575714D02*
X243149807Y-98242380D01*
X242721236Y-97575714D02*
X242721236Y-98099523D01*
X242768855Y-98194761D01*
X242864093Y-98242380D01*
X243006950Y-98242380D01*
X243102188Y-98194761D01*
X243149807Y-98147142D01*
X243483140Y-97575714D02*
X243864093Y-97575714D01*
X243625998Y-97242380D02*
X243625998Y-98099523D01*
X243673617Y-98194761D01*
X243768855Y-98242380D01*
X243864093Y-98242380D01*
X240704761Y-85447142D02*
X240657142Y-85494761D01*
X240514285Y-85542380D01*
X240419047Y-85542380D01*
X240276190Y-85494761D01*
X240180952Y-85399523D01*
X240133333Y-85304285D01*
X240085714Y-85113809D01*
X240085714Y-84970952D01*
X240133333Y-84780476D01*
X240180952Y-84685238D01*
X240276190Y-84590000D01*
X240419047Y-84542380D01*
X240514285Y-84542380D01*
X240657142Y-84590000D01*
X240704761Y-84637619D01*
X241609523Y-85542380D02*
X241133333Y-85542380D01*
X241133333Y-84542380D01*
X241942857Y-85542380D02*
X241942857Y-84542380D01*
X242514285Y-85542380D02*
X242085714Y-84970952D01*
X242514285Y-84542380D02*
X241942857Y-85113809D01*
X240561904Y-70259200D02*
X240561904Y-69259200D01*
X240800000Y-69259200D01*
X240942857Y-69306820D01*
X241038095Y-69402058D01*
X241085714Y-69497296D01*
X241133333Y-69687772D01*
X241133333Y-69830629D01*
X241085714Y-70021105D01*
X241038095Y-70116343D01*
X240942857Y-70211581D01*
X240800000Y-70259200D01*
X240561904Y-70259200D01*
X241466666Y-69259200D02*
X242085714Y-69259200D01*
X241752380Y-69640153D01*
X241895238Y-69640153D01*
X241990476Y-69687772D01*
X242038095Y-69735391D01*
X242085714Y-69830629D01*
X242085714Y-70068724D01*
X242038095Y-70163962D01*
X241990476Y-70211581D01*
X241895238Y-70259200D01*
X241609523Y-70259200D01*
X241514285Y-70211581D01*
X241466666Y-70163962D01*
X240561904Y-77935080D02*
X240561904Y-76935080D01*
X240800000Y-76935080D01*
X240942857Y-76982700D01*
X241038095Y-77077938D01*
X241085714Y-77173176D01*
X241133333Y-77363652D01*
X241133333Y-77506509D01*
X241085714Y-77696985D01*
X241038095Y-77792223D01*
X240942857Y-77887461D01*
X240800000Y-77935080D01*
X240561904Y-77935080D01*
X241990476Y-76935080D02*
X241800000Y-76935080D01*
X241704761Y-76982700D01*
X241657142Y-77030319D01*
X241561904Y-77173176D01*
X241514285Y-77363652D01*
X241514285Y-77744604D01*
X241561904Y-77839842D01*
X241609523Y-77887461D01*
X241704761Y-77935080D01*
X241895238Y-77935080D01*
X241990476Y-77887461D01*
X242038095Y-77839842D01*
X242085714Y-77744604D01*
X242085714Y-77506509D01*
X242038095Y-77411271D01*
X241990476Y-77363652D01*
X241895238Y-77316033D01*
X241704761Y-77316033D01*
X241609523Y-77363652D01*
X241561904Y-77411271D01*
X241514285Y-77506509D01*
X240561904Y-62481720D02*
X240561904Y-61481720D01*
X240800000Y-61481720D01*
X240942857Y-61529340D01*
X241038095Y-61624578D01*
X241085714Y-61719816D01*
X241133333Y-61910292D01*
X241133333Y-62053149D01*
X241085714Y-62243625D01*
X241038095Y-62338863D01*
X240942857Y-62434101D01*
X240800000Y-62481720D01*
X240561904Y-62481720D01*
X241752380Y-61481720D02*
X241847619Y-61481720D01*
X241942857Y-61529340D01*
X241990476Y-61576959D01*
X242038095Y-61672197D01*
X242085714Y-61862673D01*
X242085714Y-62100768D01*
X242038095Y-62291244D01*
X241990476Y-62386482D01*
X241942857Y-62434101D01*
X241847619Y-62481720D01*
X241752380Y-62481720D01*
X241657142Y-62434101D01*
X241609523Y-62386482D01*
X241561904Y-62291244D01*
X241514285Y-62100768D01*
X241514285Y-61862673D01*
X241561904Y-61672197D01*
X241609523Y-61576959D01*
X241657142Y-61529340D01*
X241752380Y-61481720D01*
X238252380Y-87558571D02*
X237919047Y-87558571D01*
X237919047Y-88082380D02*
X237919047Y-87082380D01*
X238395238Y-87082380D01*
X239204761Y-88082380D02*
X239204761Y-87558571D01*
X239157142Y-87463333D01*
X239061904Y-87415714D01*
X238871428Y-87415714D01*
X238776190Y-87463333D01*
X239204761Y-88034761D02*
X239109523Y-88082380D01*
X238871428Y-88082380D01*
X238776190Y-88034761D01*
X238728571Y-87939523D01*
X238728571Y-87844285D01*
X238776190Y-87749047D01*
X238871428Y-87701428D01*
X239109523Y-87701428D01*
X239204761Y-87653809D01*
X239633333Y-88034761D02*
X239728571Y-88082380D01*
X239919047Y-88082380D01*
X240014285Y-88034761D01*
X240061904Y-87939523D01*
X240061904Y-87891904D01*
X240014285Y-87796666D01*
X239919047Y-87749047D01*
X239776190Y-87749047D01*
X239680952Y-87701428D01*
X239633333Y-87606190D01*
X239633333Y-87558571D01*
X239680952Y-87463333D01*
X239776190Y-87415714D01*
X239919047Y-87415714D01*
X240014285Y-87463333D01*
X240347619Y-87415714D02*
X240728571Y-87415714D01*
X240490476Y-87082380D02*
X240490476Y-87939523D01*
X240538095Y-88034761D01*
X240633333Y-88082380D01*
X240728571Y-88082380D01*
X241633333Y-87987142D02*
X241585714Y-88034761D01*
X241442857Y-88082380D01*
X241347619Y-88082380D01*
X241204761Y-88034761D01*
X241109523Y-87939523D01*
X241061904Y-87844285D01*
X241014285Y-87653809D01*
X241014285Y-87510952D01*
X241061904Y-87320476D01*
X241109523Y-87225238D01*
X241204761Y-87130000D01*
X241347619Y-87082380D01*
X241442857Y-87082380D01*
X241585714Y-87130000D01*
X241633333Y-87177619D01*
X242204761Y-88082380D02*
X242109523Y-88034761D01*
X242061904Y-87939523D01*
X242061904Y-87082380D01*
X242728571Y-88082380D02*
X242633333Y-88034761D01*
X242585714Y-87987142D01*
X242538095Y-87891904D01*
X242538095Y-87606190D01*
X242585714Y-87510952D01*
X242633333Y-87463333D01*
X242728571Y-87415714D01*
X242871428Y-87415714D01*
X242966666Y-87463333D01*
X243014285Y-87510952D01*
X243061904Y-87606190D01*
X243061904Y-87891904D01*
X243014285Y-87987142D01*
X242966666Y-88034761D01*
X242871428Y-88082380D01*
X242728571Y-88082380D01*
X243919047Y-88034761D02*
X243823809Y-88082380D01*
X243633333Y-88082380D01*
X243538095Y-88034761D01*
X243490476Y-87987142D01*
X243442857Y-87891904D01*
X243442857Y-87606190D01*
X243490476Y-87510952D01*
X243538095Y-87463333D01*
X243633333Y-87415714D01*
X243823809Y-87415714D01*
X243919047Y-87463333D01*
X244347619Y-88082380D02*
X244347619Y-87082380D01*
X244442857Y-87701428D02*
X244728571Y-88082380D01*
X244728571Y-87415714D02*
X244347619Y-87796666D01*
X238649807Y-92638571D02*
X238316474Y-92638571D01*
X238316474Y-93162380D02*
X238316474Y-92162380D01*
X238792664Y-92162380D01*
X239745045Y-93162380D02*
X239411712Y-92686190D01*
X239173617Y-93162380D02*
X239173617Y-92162380D01*
X239554569Y-92162380D01*
X239649807Y-92210000D01*
X239697426Y-92257619D01*
X239745045Y-92352857D01*
X239745045Y-92495714D01*
X239697426Y-92590952D01*
X239649807Y-92638571D01*
X239554569Y-92686190D01*
X239173617Y-92686190D01*
X240173617Y-93162380D02*
X240173617Y-92162380D01*
X240506950Y-92876666D01*
X240840283Y-92162380D01*
X240840283Y-93162380D01*
X241649807Y-92638571D02*
X241792664Y-92686190D01*
X241840283Y-92733809D01*
X241887902Y-92829047D01*
X241887902Y-92971904D01*
X241840283Y-93067142D01*
X241792664Y-93114761D01*
X241697426Y-93162380D01*
X241316474Y-93162380D01*
X241316474Y-92162380D01*
X241649807Y-92162380D01*
X241745045Y-92210000D01*
X241792664Y-92257619D01*
X241840283Y-92352857D01*
X241840283Y-92448095D01*
X241792664Y-92543333D01*
X241745045Y-92590952D01*
X241649807Y-92638571D01*
X241316474Y-92638571D01*
X242316474Y-92162380D02*
X242316474Y-92971904D01*
X242364093Y-93067142D01*
X242411712Y-93114761D01*
X242506950Y-93162380D01*
X242697426Y-93162380D01*
X242792664Y-93114761D01*
X242840283Y-93067142D01*
X242887902Y-92971904D01*
X242887902Y-92162380D01*
X243697426Y-92638571D02*
X243364093Y-92638571D01*
X243364093Y-93162380D02*
X243364093Y-92162380D01*
X243840283Y-92162380D01*
X240006950Y-95702380D02*
X240006950Y-94702380D01*
X241054569Y-95702380D02*
X240721236Y-95226190D01*
X240483140Y-95702380D02*
X240483140Y-94702380D01*
X240864093Y-94702380D01*
X240959331Y-94750000D01*
X241006950Y-94797619D01*
X241054569Y-94892857D01*
X241054569Y-95035714D01*
X241006950Y-95130952D01*
X240959331Y-95178571D01*
X240864093Y-95226190D01*
X240483140Y-95226190D01*
X242149807Y-95797619D02*
X242054569Y-95750000D01*
X241959331Y-95654761D01*
X241816474Y-95511904D01*
X241721236Y-95464285D01*
X241625998Y-95464285D01*
X241673617Y-95702380D02*
X241578379Y-95654761D01*
X241483140Y-95559523D01*
X241435521Y-95369047D01*
X241435521Y-95035714D01*
X241483140Y-94845238D01*
X241578379Y-94750000D01*
X241673617Y-94702380D01*
X241864093Y-94702380D01*
X241959331Y-94750000D01*
X242054569Y-94845238D01*
X242102188Y-95035714D01*
X242102188Y-95369047D01*
X242054569Y-95559523D01*
X241959331Y-95654761D01*
X241864093Y-95702380D01*
X241673617Y-95702380D01*
X239966666Y-59078880D02*
X240300000Y-60078880D01*
X240633333Y-59078880D01*
X241538095Y-59983642D02*
X241490476Y-60031261D01*
X241347619Y-60078880D01*
X241252380Y-60078880D01*
X241109523Y-60031261D01*
X241014285Y-59936023D01*
X240966666Y-59840785D01*
X240919047Y-59650309D01*
X240919047Y-59507452D01*
X240966666Y-59316976D01*
X241014285Y-59221738D01*
X241109523Y-59126500D01*
X241252380Y-59078880D01*
X241347619Y-59078880D01*
X241490476Y-59126500D01*
X241538095Y-59174119D01*
X242538095Y-59983642D02*
X242490476Y-60031261D01*
X242347619Y-60078880D01*
X242252380Y-60078880D01*
X242109523Y-60031261D01*
X242014285Y-59936023D01*
X241966666Y-59840785D01*
X241919047Y-59650309D01*
X241919047Y-59507452D01*
X241966666Y-59316976D01*
X242014285Y-59221738D01*
X242109523Y-59126500D01*
X242252380Y-59078880D01*
X242347619Y-59078880D01*
X242490476Y-59126500D01*
X242538095Y-59174119D01*
X237459331Y-90574761D02*
X237602188Y-90622380D01*
X237840283Y-90622380D01*
X237935521Y-90574761D01*
X237983140Y-90527142D01*
X238030760Y-90431904D01*
X238030760Y-90336666D01*
X237983140Y-90241428D01*
X237935521Y-90193809D01*
X237840283Y-90146190D01*
X237649807Y-90098571D01*
X237554569Y-90050952D01*
X237506950Y-90003333D01*
X237459331Y-89908095D01*
X237459331Y-89812857D01*
X237506950Y-89717619D01*
X237554569Y-89670000D01*
X237649807Y-89622380D01*
X237887902Y-89622380D01*
X238030760Y-89670000D01*
X238602188Y-90622380D02*
X238506950Y-90574761D01*
X238459331Y-90479523D01*
X238459331Y-89622380D01*
X239125998Y-90622380D02*
X239030760Y-90574761D01*
X238983140Y-90527142D01*
X238935521Y-90431904D01*
X238935521Y-90146190D01*
X238983140Y-90050952D01*
X239030760Y-90003333D01*
X239125998Y-89955714D01*
X239268855Y-89955714D01*
X239364093Y-90003333D01*
X239411712Y-90050952D01*
X239459331Y-90146190D01*
X239459331Y-90431904D01*
X239411712Y-90527142D01*
X239364093Y-90574761D01*
X239268855Y-90622380D01*
X239125998Y-90622380D01*
X239792664Y-89955714D02*
X239983140Y-90622380D01*
X240173617Y-90146190D01*
X240364093Y-90622380D01*
X240554569Y-89955714D01*
X241506950Y-90527142D02*
X241459331Y-90574761D01*
X241316474Y-90622380D01*
X241221236Y-90622380D01*
X241078379Y-90574761D01*
X240983140Y-90479523D01*
X240935521Y-90384285D01*
X240887902Y-90193809D01*
X240887902Y-90050952D01*
X240935521Y-89860476D01*
X240983140Y-89765238D01*
X241078379Y-89670000D01*
X241221236Y-89622380D01*
X241316474Y-89622380D01*
X241459331Y-89670000D01*
X241506950Y-89717619D01*
X242078379Y-90622380D02*
X241983140Y-90574761D01*
X241935521Y-90479523D01*
X241935521Y-89622380D01*
X242602188Y-90622380D02*
X242506950Y-90574761D01*
X242459331Y-90527142D01*
X242411712Y-90431904D01*
X242411712Y-90146190D01*
X242459331Y-90050952D01*
X242506950Y-90003333D01*
X242602188Y-89955714D01*
X242745045Y-89955714D01*
X242840283Y-90003333D01*
X242887902Y-90050952D01*
X242935521Y-90146190D01*
X242935521Y-90431904D01*
X242887902Y-90527142D01*
X242840283Y-90574761D01*
X242745045Y-90622380D01*
X242602188Y-90622380D01*
X243792664Y-90574761D02*
X243697426Y-90622380D01*
X243506950Y-90622380D01*
X243411712Y-90574761D01*
X243364093Y-90527142D01*
X243316474Y-90431904D01*
X243316474Y-90146190D01*
X243364093Y-90050952D01*
X243411712Y-90003333D01*
X243506950Y-89955714D01*
X243697426Y-89955714D01*
X243792664Y-90003333D01*
X244221236Y-90622380D02*
X244221236Y-89622380D01*
X244316474Y-90241428D02*
X244602188Y-90622380D01*
X244602188Y-89955714D02*
X244221236Y-90336666D01*
X240561904Y-67516000D02*
X240561904Y-66516000D01*
X240800000Y-66516000D01*
X240942857Y-66563620D01*
X241038095Y-66658858D01*
X241085714Y-66754096D01*
X241133333Y-66944572D01*
X241133333Y-67087429D01*
X241085714Y-67277905D01*
X241038095Y-67373143D01*
X240942857Y-67468381D01*
X240800000Y-67516000D01*
X240561904Y-67516000D01*
X241514285Y-66611239D02*
X241561904Y-66563620D01*
X241657142Y-66516000D01*
X241895238Y-66516000D01*
X241990476Y-66563620D01*
X242038095Y-66611239D01*
X242085714Y-66706477D01*
X242085714Y-66801715D01*
X242038095Y-66944572D01*
X241466666Y-67516000D01*
X242085714Y-67516000D01*
X238340283Y-100782380D02*
X238340283Y-99782380D01*
X238721236Y-99782380D01*
X238816474Y-99830000D01*
X238864093Y-99877619D01*
X238911712Y-99972857D01*
X238911712Y-100115714D01*
X238864093Y-100210952D01*
X238816474Y-100258571D01*
X238721236Y-100306190D01*
X238340283Y-100306190D01*
X239340283Y-100782380D02*
X239340283Y-99782380D01*
X239340283Y-100258571D02*
X239911712Y-100258571D01*
X239911712Y-100782380D02*
X239911712Y-99782380D01*
X240387902Y-100782380D02*
X240387902Y-99782380D01*
X240816474Y-99877619D02*
X240864093Y-99830000D01*
X240959331Y-99782380D01*
X241197426Y-99782380D01*
X241292664Y-99830000D01*
X241340283Y-99877619D01*
X241387902Y-99972857D01*
X241387902Y-100068095D01*
X241340283Y-100210952D01*
X240768855Y-100782380D01*
X241387902Y-100782380D01*
X241959331Y-100782380D02*
X241864093Y-100734761D01*
X241816474Y-100687142D01*
X241768855Y-100591904D01*
X241768855Y-100306190D01*
X241816474Y-100210952D01*
X241864093Y-100163333D01*
X241959331Y-100115714D01*
X242102188Y-100115714D01*
X242197426Y-100163333D01*
X242245045Y-100210952D01*
X242292664Y-100306190D01*
X242292664Y-100591904D01*
X242245045Y-100687142D01*
X242197426Y-100734761D01*
X242102188Y-100782380D01*
X241959331Y-100782380D01*
X243149807Y-100115714D02*
X243149807Y-100782380D01*
X242721236Y-100115714D02*
X242721236Y-100639523D01*
X242768855Y-100734761D01*
X242864093Y-100782380D01*
X243006950Y-100782380D01*
X243102188Y-100734761D01*
X243149807Y-100687142D01*
X243483140Y-100115714D02*
X243864093Y-100115714D01*
X243625998Y-99782380D02*
X243625998Y-100639523D01*
X243673617Y-100734761D01*
X243768855Y-100782380D01*
X243864093Y-100782380D01*
X240561904Y-75229980D02*
X240561904Y-74229980D01*
X240800000Y-74229980D01*
X240942857Y-74277600D01*
X241038095Y-74372838D01*
X241085714Y-74468076D01*
X241133333Y-74658552D01*
X241133333Y-74801409D01*
X241085714Y-74991885D01*
X241038095Y-75087123D01*
X240942857Y-75182361D01*
X240800000Y-75229980D01*
X240561904Y-75229980D01*
X242038095Y-74229980D02*
X241561904Y-74229980D01*
X241514285Y-74706171D01*
X241561904Y-74658552D01*
X241657142Y-74610933D01*
X241895238Y-74610933D01*
X241990476Y-74658552D01*
X242038095Y-74706171D01*
X242085714Y-74801409D01*
X242085714Y-75039504D01*
X242038095Y-75134742D01*
X241990476Y-75182361D01*
X241895238Y-75229980D01*
X241657142Y-75229980D01*
X241561904Y-75182361D01*
X241514285Y-75134742D01*
X194794285Y-83002380D02*
X194460952Y-82526190D01*
X194222857Y-83002380D02*
X194222857Y-82002380D01*
X194603809Y-82002380D01*
X194699047Y-82050000D01*
X194746666Y-82097619D01*
X194794285Y-82192857D01*
X194794285Y-82335714D01*
X194746666Y-82430952D01*
X194699047Y-82478571D01*
X194603809Y-82526190D01*
X194222857Y-82526190D01*
X195937142Y-81954761D02*
X195080000Y-83240476D01*
X196175238Y-82002380D02*
X196413333Y-83002380D01*
X196603809Y-82288095D01*
X196794285Y-83002380D01*
X197032380Y-82002380D01*
X194841904Y-65113160D02*
X194841904Y-64113160D01*
X195080000Y-64113160D01*
X195222857Y-64160780D01*
X195318095Y-64256018D01*
X195365714Y-64351256D01*
X195413333Y-64541732D01*
X195413333Y-64684589D01*
X195365714Y-64875065D01*
X195318095Y-64970303D01*
X195222857Y-65065541D01*
X195080000Y-65113160D01*
X194841904Y-65113160D01*
X196365714Y-65113160D02*
X195794285Y-65113160D01*
X196080000Y-65113160D02*
X196080000Y-64113160D01*
X195984761Y-64256018D01*
X195889523Y-64351256D01*
X195794285Y-64398875D01*
X194841904Y-80462380D02*
X194841904Y-79462380D01*
X195080000Y-79462380D01*
X195222857Y-79510000D01*
X195318095Y-79605238D01*
X195365714Y-79700476D01*
X195413333Y-79890952D01*
X195413333Y-80033809D01*
X195365714Y-80224285D01*
X195318095Y-80319523D01*
X195222857Y-80414761D01*
X195080000Y-80462380D01*
X194841904Y-80462380D01*
X195746666Y-79462380D02*
X196413333Y-79462380D01*
X195984761Y-80462380D01*
X194841904Y-72750940D02*
X194841904Y-71750940D01*
X195080000Y-71750940D01*
X195222857Y-71798560D01*
X195318095Y-71893798D01*
X195365714Y-71989036D01*
X195413333Y-72179512D01*
X195413333Y-72322369D01*
X195365714Y-72512845D01*
X195318095Y-72608083D01*
X195222857Y-72703321D01*
X195080000Y-72750940D01*
X194841904Y-72750940D01*
X196270476Y-72084274D02*
X196270476Y-72750940D01*
X196032380Y-71703321D02*
X195794285Y-72417607D01*
X196413333Y-72417607D01*
X194818095Y-56500000D02*
X194722857Y-56452380D01*
X194580000Y-56452380D01*
X194437142Y-56500000D01*
X194341904Y-56595238D01*
X194294285Y-56690476D01*
X194246666Y-56880952D01*
X194246666Y-57023809D01*
X194294285Y-57214285D01*
X194341904Y-57309523D01*
X194437142Y-57404761D01*
X194580000Y-57452380D01*
X194675238Y-57452380D01*
X194818095Y-57404761D01*
X194865714Y-57357142D01*
X194865714Y-57023809D01*
X194675238Y-57023809D01*
X195294285Y-57452380D02*
X195294285Y-56452380D01*
X195865714Y-57452380D01*
X195865714Y-56452380D01*
X196341904Y-57452380D02*
X196341904Y-56452380D01*
X196580000Y-56452380D01*
X196722857Y-56500000D01*
X196818095Y-56595238D01*
X196865714Y-56690476D01*
X196913333Y-56880952D01*
X196913333Y-57023809D01*
X196865714Y-57214285D01*
X196818095Y-57309523D01*
X196722857Y-57404761D01*
X196580000Y-57452380D01*
X196341904Y-57452380D01*
X194596474Y-103322380D02*
X194263140Y-102846190D01*
X194025045Y-103322380D02*
X194025045Y-102322380D01*
X194405998Y-102322380D01*
X194501236Y-102370000D01*
X194548855Y-102417619D01*
X194596474Y-102512857D01*
X194596474Y-102655714D01*
X194548855Y-102750952D01*
X194501236Y-102798571D01*
X194405998Y-102846190D01*
X194025045Y-102846190D01*
X195025045Y-103322380D02*
X195025045Y-102322380D01*
X195596474Y-103322380D01*
X195596474Y-102322380D01*
X196596474Y-102370000D02*
X196501236Y-102322380D01*
X196358379Y-102322380D01*
X196215521Y-102370000D01*
X196120283Y-102465238D01*
X196072664Y-102560476D01*
X196025045Y-102750952D01*
X196025045Y-102893809D01*
X196072664Y-103084285D01*
X196120283Y-103179523D01*
X196215521Y-103274761D01*
X196358379Y-103322380D01*
X196453617Y-103322380D01*
X196596474Y-103274761D01*
X196644093Y-103227142D01*
X196644093Y-102893809D01*
X196453617Y-102893809D01*
X192620283Y-98242380D02*
X192620283Y-97242380D01*
X193001236Y-97242380D01*
X193096474Y-97290000D01*
X193144093Y-97337619D01*
X193191712Y-97432857D01*
X193191712Y-97575714D01*
X193144093Y-97670952D01*
X193096474Y-97718571D01*
X193001236Y-97766190D01*
X192620283Y-97766190D01*
X193620283Y-98242380D02*
X193620283Y-97242380D01*
X193620283Y-97718571D02*
X194191712Y-97718571D01*
X194191712Y-98242380D02*
X194191712Y-97242380D01*
X194667902Y-98242380D02*
X194667902Y-97242380D01*
X195667902Y-98242380D02*
X195096474Y-98242380D01*
X195382188Y-98242380D02*
X195382188Y-97242380D01*
X195286950Y-97385238D01*
X195191712Y-97480476D01*
X195096474Y-97528095D01*
X196239331Y-98242380D02*
X196144093Y-98194761D01*
X196096474Y-98147142D01*
X196048855Y-98051904D01*
X196048855Y-97766190D01*
X196096474Y-97670952D01*
X196144093Y-97623333D01*
X196239331Y-97575714D01*
X196382188Y-97575714D01*
X196477426Y-97623333D01*
X196525045Y-97670952D01*
X196572664Y-97766190D01*
X196572664Y-98051904D01*
X196525045Y-98147142D01*
X196477426Y-98194761D01*
X196382188Y-98242380D01*
X196239331Y-98242380D01*
X197429807Y-97575714D02*
X197429807Y-98242380D01*
X197001236Y-97575714D02*
X197001236Y-98099523D01*
X197048855Y-98194761D01*
X197144093Y-98242380D01*
X197286950Y-98242380D01*
X197382188Y-98194761D01*
X197429807Y-98147142D01*
X197763140Y-97575714D02*
X198144093Y-97575714D01*
X197905998Y-97242380D02*
X197905998Y-98099523D01*
X197953617Y-98194761D01*
X198048855Y-98242380D01*
X198144093Y-98242380D01*
X194984761Y-85447142D02*
X194937142Y-85494761D01*
X194794285Y-85542380D01*
X194699047Y-85542380D01*
X194556190Y-85494761D01*
X194460952Y-85399523D01*
X194413333Y-85304285D01*
X194365714Y-85113809D01*
X194365714Y-84970952D01*
X194413333Y-84780476D01*
X194460952Y-84685238D01*
X194556190Y-84590000D01*
X194699047Y-84542380D01*
X194794285Y-84542380D01*
X194937142Y-84590000D01*
X194984761Y-84637619D01*
X195889523Y-85542380D02*
X195413333Y-85542380D01*
X195413333Y-84542380D01*
X196222857Y-85542380D02*
X196222857Y-84542380D01*
X196794285Y-85542380D02*
X196365714Y-84970952D01*
X196794285Y-84542380D02*
X196222857Y-85113809D01*
X194841904Y-70259200D02*
X194841904Y-69259200D01*
X195080000Y-69259200D01*
X195222857Y-69306820D01*
X195318095Y-69402058D01*
X195365714Y-69497296D01*
X195413333Y-69687772D01*
X195413333Y-69830629D01*
X195365714Y-70021105D01*
X195318095Y-70116343D01*
X195222857Y-70211581D01*
X195080000Y-70259200D01*
X194841904Y-70259200D01*
X195746666Y-69259200D02*
X196365714Y-69259200D01*
X196032380Y-69640153D01*
X196175238Y-69640153D01*
X196270476Y-69687772D01*
X196318095Y-69735391D01*
X196365714Y-69830629D01*
X196365714Y-70068724D01*
X196318095Y-70163962D01*
X196270476Y-70211581D01*
X196175238Y-70259200D01*
X195889523Y-70259200D01*
X195794285Y-70211581D01*
X195746666Y-70163962D01*
X194841904Y-77935080D02*
X194841904Y-76935080D01*
X195080000Y-76935080D01*
X195222857Y-76982700D01*
X195318095Y-77077938D01*
X195365714Y-77173176D01*
X195413333Y-77363652D01*
X195413333Y-77506509D01*
X195365714Y-77696985D01*
X195318095Y-77792223D01*
X195222857Y-77887461D01*
X195080000Y-77935080D01*
X194841904Y-77935080D01*
X196270476Y-76935080D02*
X196080000Y-76935080D01*
X195984761Y-76982700D01*
X195937142Y-77030319D01*
X195841904Y-77173176D01*
X195794285Y-77363652D01*
X195794285Y-77744604D01*
X195841904Y-77839842D01*
X195889523Y-77887461D01*
X195984761Y-77935080D01*
X196175238Y-77935080D01*
X196270476Y-77887461D01*
X196318095Y-77839842D01*
X196365714Y-77744604D01*
X196365714Y-77506509D01*
X196318095Y-77411271D01*
X196270476Y-77363652D01*
X196175238Y-77316033D01*
X195984761Y-77316033D01*
X195889523Y-77363652D01*
X195841904Y-77411271D01*
X195794285Y-77506509D01*
X194841904Y-62481720D02*
X194841904Y-61481720D01*
X195080000Y-61481720D01*
X195222857Y-61529340D01*
X195318095Y-61624578D01*
X195365714Y-61719816D01*
X195413333Y-61910292D01*
X195413333Y-62053149D01*
X195365714Y-62243625D01*
X195318095Y-62338863D01*
X195222857Y-62434101D01*
X195080000Y-62481720D01*
X194841904Y-62481720D01*
X196032380Y-61481720D02*
X196127619Y-61481720D01*
X196222857Y-61529340D01*
X196270476Y-61576959D01*
X196318095Y-61672197D01*
X196365714Y-61862673D01*
X196365714Y-62100768D01*
X196318095Y-62291244D01*
X196270476Y-62386482D01*
X196222857Y-62434101D01*
X196127619Y-62481720D01*
X196032380Y-62481720D01*
X195937142Y-62434101D01*
X195889523Y-62386482D01*
X195841904Y-62291244D01*
X195794285Y-62100768D01*
X195794285Y-61862673D01*
X195841904Y-61672197D01*
X195889523Y-61576959D01*
X195937142Y-61529340D01*
X196032380Y-61481720D01*
X192532380Y-87558571D02*
X192199047Y-87558571D01*
X192199047Y-88082380D02*
X192199047Y-87082380D01*
X192675238Y-87082380D01*
X193484761Y-88082380D02*
X193484761Y-87558571D01*
X193437142Y-87463333D01*
X193341904Y-87415714D01*
X193151428Y-87415714D01*
X193056190Y-87463333D01*
X193484761Y-88034761D02*
X193389523Y-88082380D01*
X193151428Y-88082380D01*
X193056190Y-88034761D01*
X193008571Y-87939523D01*
X193008571Y-87844285D01*
X193056190Y-87749047D01*
X193151428Y-87701428D01*
X193389523Y-87701428D01*
X193484761Y-87653809D01*
X193913333Y-88034761D02*
X194008571Y-88082380D01*
X194199047Y-88082380D01*
X194294285Y-88034761D01*
X194341904Y-87939523D01*
X194341904Y-87891904D01*
X194294285Y-87796666D01*
X194199047Y-87749047D01*
X194056190Y-87749047D01*
X193960952Y-87701428D01*
X193913333Y-87606190D01*
X193913333Y-87558571D01*
X193960952Y-87463333D01*
X194056190Y-87415714D01*
X194199047Y-87415714D01*
X194294285Y-87463333D01*
X194627619Y-87415714D02*
X195008571Y-87415714D01*
X194770476Y-87082380D02*
X194770476Y-87939523D01*
X194818095Y-88034761D01*
X194913333Y-88082380D01*
X195008571Y-88082380D01*
X195913333Y-87987142D02*
X195865714Y-88034761D01*
X195722857Y-88082380D01*
X195627619Y-88082380D01*
X195484761Y-88034761D01*
X195389523Y-87939523D01*
X195341904Y-87844285D01*
X195294285Y-87653809D01*
X195294285Y-87510952D01*
X195341904Y-87320476D01*
X195389523Y-87225238D01*
X195484761Y-87130000D01*
X195627619Y-87082380D01*
X195722857Y-87082380D01*
X195865714Y-87130000D01*
X195913333Y-87177619D01*
X196484761Y-88082380D02*
X196389523Y-88034761D01*
X196341904Y-87939523D01*
X196341904Y-87082380D01*
X197008571Y-88082380D02*
X196913333Y-88034761D01*
X196865714Y-87987142D01*
X196818095Y-87891904D01*
X196818095Y-87606190D01*
X196865714Y-87510952D01*
X196913333Y-87463333D01*
X197008571Y-87415714D01*
X197151428Y-87415714D01*
X197246666Y-87463333D01*
X197294285Y-87510952D01*
X197341904Y-87606190D01*
X197341904Y-87891904D01*
X197294285Y-87987142D01*
X197246666Y-88034761D01*
X197151428Y-88082380D01*
X197008571Y-88082380D01*
X198199047Y-88034761D02*
X198103809Y-88082380D01*
X197913333Y-88082380D01*
X197818095Y-88034761D01*
X197770476Y-87987142D01*
X197722857Y-87891904D01*
X197722857Y-87606190D01*
X197770476Y-87510952D01*
X197818095Y-87463333D01*
X197913333Y-87415714D01*
X198103809Y-87415714D01*
X198199047Y-87463333D01*
X198627619Y-88082380D02*
X198627619Y-87082380D01*
X198722857Y-87701428D02*
X199008571Y-88082380D01*
X199008571Y-87415714D02*
X198627619Y-87796666D01*
X192929807Y-92638571D02*
X192596474Y-92638571D01*
X192596474Y-93162380D02*
X192596474Y-92162380D01*
X193072664Y-92162380D01*
X194025045Y-93162380D02*
X193691712Y-92686190D01*
X193453617Y-93162380D02*
X193453617Y-92162380D01*
X193834569Y-92162380D01*
X193929807Y-92210000D01*
X193977426Y-92257619D01*
X194025045Y-92352857D01*
X194025045Y-92495714D01*
X193977426Y-92590952D01*
X193929807Y-92638571D01*
X193834569Y-92686190D01*
X193453617Y-92686190D01*
X194453617Y-93162380D02*
X194453617Y-92162380D01*
X194786950Y-92876666D01*
X195120283Y-92162380D01*
X195120283Y-93162380D01*
X195929807Y-92638571D02*
X196072664Y-92686190D01*
X196120283Y-92733809D01*
X196167902Y-92829047D01*
X196167902Y-92971904D01*
X196120283Y-93067142D01*
X196072664Y-93114761D01*
X195977426Y-93162380D01*
X195596474Y-93162380D01*
X195596474Y-92162380D01*
X195929807Y-92162380D01*
X196025045Y-92210000D01*
X196072664Y-92257619D01*
X196120283Y-92352857D01*
X196120283Y-92448095D01*
X196072664Y-92543333D01*
X196025045Y-92590952D01*
X195929807Y-92638571D01*
X195596474Y-92638571D01*
X196596474Y-92162380D02*
X196596474Y-92971904D01*
X196644093Y-93067142D01*
X196691712Y-93114761D01*
X196786950Y-93162380D01*
X196977426Y-93162380D01*
X197072664Y-93114761D01*
X197120283Y-93067142D01*
X197167902Y-92971904D01*
X197167902Y-92162380D01*
X197977426Y-92638571D02*
X197644093Y-92638571D01*
X197644093Y-93162380D02*
X197644093Y-92162380D01*
X198120283Y-92162380D01*
X194286950Y-95702380D02*
X194286950Y-94702380D01*
X195334569Y-95702380D02*
X195001236Y-95226190D01*
X194763140Y-95702380D02*
X194763140Y-94702380D01*
X195144093Y-94702380D01*
X195239331Y-94750000D01*
X195286950Y-94797619D01*
X195334569Y-94892857D01*
X195334569Y-95035714D01*
X195286950Y-95130952D01*
X195239331Y-95178571D01*
X195144093Y-95226190D01*
X194763140Y-95226190D01*
X196429807Y-95797619D02*
X196334569Y-95750000D01*
X196239331Y-95654761D01*
X196096474Y-95511904D01*
X196001236Y-95464285D01*
X195905998Y-95464285D01*
X195953617Y-95702380D02*
X195858379Y-95654761D01*
X195763140Y-95559523D01*
X195715521Y-95369047D01*
X195715521Y-95035714D01*
X195763140Y-94845238D01*
X195858379Y-94750000D01*
X195953617Y-94702380D01*
X196144093Y-94702380D01*
X196239331Y-94750000D01*
X196334569Y-94845238D01*
X196382188Y-95035714D01*
X196382188Y-95369047D01*
X196334569Y-95559523D01*
X196239331Y-95654761D01*
X196144093Y-95702380D01*
X195953617Y-95702380D01*
X194246666Y-59078880D02*
X194580000Y-60078880D01*
X194913333Y-59078880D01*
X195818095Y-59983642D02*
X195770476Y-60031261D01*
X195627619Y-60078880D01*
X195532380Y-60078880D01*
X195389523Y-60031261D01*
X195294285Y-59936023D01*
X195246666Y-59840785D01*
X195199047Y-59650309D01*
X195199047Y-59507452D01*
X195246666Y-59316976D01*
X195294285Y-59221738D01*
X195389523Y-59126500D01*
X195532380Y-59078880D01*
X195627619Y-59078880D01*
X195770476Y-59126500D01*
X195818095Y-59174119D01*
X196818095Y-59983642D02*
X196770476Y-60031261D01*
X196627619Y-60078880D01*
X196532380Y-60078880D01*
X196389523Y-60031261D01*
X196294285Y-59936023D01*
X196246666Y-59840785D01*
X196199047Y-59650309D01*
X196199047Y-59507452D01*
X196246666Y-59316976D01*
X196294285Y-59221738D01*
X196389523Y-59126500D01*
X196532380Y-59078880D01*
X196627619Y-59078880D01*
X196770476Y-59126500D01*
X196818095Y-59174119D01*
X191739331Y-90574761D02*
X191882188Y-90622380D01*
X192120283Y-90622380D01*
X192215521Y-90574761D01*
X192263140Y-90527142D01*
X192310760Y-90431904D01*
X192310760Y-90336666D01*
X192263140Y-90241428D01*
X192215521Y-90193809D01*
X192120283Y-90146190D01*
X191929807Y-90098571D01*
X191834569Y-90050952D01*
X191786950Y-90003333D01*
X191739331Y-89908095D01*
X191739331Y-89812857D01*
X191786950Y-89717619D01*
X191834569Y-89670000D01*
X191929807Y-89622380D01*
X192167902Y-89622380D01*
X192310760Y-89670000D01*
X192882188Y-90622380D02*
X192786950Y-90574761D01*
X192739331Y-90479523D01*
X192739331Y-89622380D01*
X193405998Y-90622380D02*
X193310760Y-90574761D01*
X193263140Y-90527142D01*
X193215521Y-90431904D01*
X193215521Y-90146190D01*
X193263140Y-90050952D01*
X193310760Y-90003333D01*
X193405998Y-89955714D01*
X193548855Y-89955714D01*
X193644093Y-90003333D01*
X193691712Y-90050952D01*
X193739331Y-90146190D01*
X193739331Y-90431904D01*
X193691712Y-90527142D01*
X193644093Y-90574761D01*
X193548855Y-90622380D01*
X193405998Y-90622380D01*
X194072664Y-89955714D02*
X194263140Y-90622380D01*
X194453617Y-90146190D01*
X194644093Y-90622380D01*
X194834569Y-89955714D01*
X195786950Y-90527142D02*
X195739331Y-90574761D01*
X195596474Y-90622380D01*
X195501236Y-90622380D01*
X195358379Y-90574761D01*
X195263140Y-90479523D01*
X195215521Y-90384285D01*
X195167902Y-90193809D01*
X195167902Y-90050952D01*
X195215521Y-89860476D01*
X195263140Y-89765238D01*
X195358379Y-89670000D01*
X195501236Y-89622380D01*
X195596474Y-89622380D01*
X195739331Y-89670000D01*
X195786950Y-89717619D01*
X196358379Y-90622380D02*
X196263140Y-90574761D01*
X196215521Y-90479523D01*
X196215521Y-89622380D01*
X196882188Y-90622380D02*
X196786950Y-90574761D01*
X196739331Y-90527142D01*
X196691712Y-90431904D01*
X196691712Y-90146190D01*
X196739331Y-90050952D01*
X196786950Y-90003333D01*
X196882188Y-89955714D01*
X197025045Y-89955714D01*
X197120283Y-90003333D01*
X197167902Y-90050952D01*
X197215521Y-90146190D01*
X197215521Y-90431904D01*
X197167902Y-90527142D01*
X197120283Y-90574761D01*
X197025045Y-90622380D01*
X196882188Y-90622380D01*
X198072664Y-90574761D02*
X197977426Y-90622380D01*
X197786950Y-90622380D01*
X197691712Y-90574761D01*
X197644093Y-90527142D01*
X197596474Y-90431904D01*
X197596474Y-90146190D01*
X197644093Y-90050952D01*
X197691712Y-90003333D01*
X197786950Y-89955714D01*
X197977426Y-89955714D01*
X198072664Y-90003333D01*
X198501236Y-90622380D02*
X198501236Y-89622380D01*
X198596474Y-90241428D02*
X198882188Y-90622380D01*
X198882188Y-89955714D02*
X198501236Y-90336666D01*
X194841904Y-67516000D02*
X194841904Y-66516000D01*
X195080000Y-66516000D01*
X195222857Y-66563620D01*
X195318095Y-66658858D01*
X195365714Y-66754096D01*
X195413333Y-66944572D01*
X195413333Y-67087429D01*
X195365714Y-67277905D01*
X195318095Y-67373143D01*
X195222857Y-67468381D01*
X195080000Y-67516000D01*
X194841904Y-67516000D01*
X195794285Y-66611239D02*
X195841904Y-66563620D01*
X195937142Y-66516000D01*
X196175238Y-66516000D01*
X196270476Y-66563620D01*
X196318095Y-66611239D01*
X196365714Y-66706477D01*
X196365714Y-66801715D01*
X196318095Y-66944572D01*
X195746666Y-67516000D01*
X196365714Y-67516000D01*
X192620283Y-100782380D02*
X192620283Y-99782380D01*
X193001236Y-99782380D01*
X193096474Y-99830000D01*
X193144093Y-99877619D01*
X193191712Y-99972857D01*
X193191712Y-100115714D01*
X193144093Y-100210952D01*
X193096474Y-100258571D01*
X193001236Y-100306190D01*
X192620283Y-100306190D01*
X193620283Y-100782380D02*
X193620283Y-99782380D01*
X193620283Y-100258571D02*
X194191712Y-100258571D01*
X194191712Y-100782380D02*
X194191712Y-99782380D01*
X194667902Y-100782380D02*
X194667902Y-99782380D01*
X195096474Y-99877619D02*
X195144093Y-99830000D01*
X195239331Y-99782380D01*
X195477426Y-99782380D01*
X195572664Y-99830000D01*
X195620283Y-99877619D01*
X195667902Y-99972857D01*
X195667902Y-100068095D01*
X195620283Y-100210952D01*
X195048855Y-100782380D01*
X195667902Y-100782380D01*
X196239331Y-100782380D02*
X196144093Y-100734761D01*
X196096474Y-100687142D01*
X196048855Y-100591904D01*
X196048855Y-100306190D01*
X196096474Y-100210952D01*
X196144093Y-100163333D01*
X196239331Y-100115714D01*
X196382188Y-100115714D01*
X196477426Y-100163333D01*
X196525045Y-100210952D01*
X196572664Y-100306190D01*
X196572664Y-100591904D01*
X196525045Y-100687142D01*
X196477426Y-100734761D01*
X196382188Y-100782380D01*
X196239331Y-100782380D01*
X197429807Y-100115714D02*
X197429807Y-100782380D01*
X197001236Y-100115714D02*
X197001236Y-100639523D01*
X197048855Y-100734761D01*
X197144093Y-100782380D01*
X197286950Y-100782380D01*
X197382188Y-100734761D01*
X197429807Y-100687142D01*
X197763140Y-100115714D02*
X198144093Y-100115714D01*
X197905998Y-99782380D02*
X197905998Y-100639523D01*
X197953617Y-100734761D01*
X198048855Y-100782380D01*
X198144093Y-100782380D01*
X194841904Y-75229980D02*
X194841904Y-74229980D01*
X195080000Y-74229980D01*
X195222857Y-74277600D01*
X195318095Y-74372838D01*
X195365714Y-74468076D01*
X195413333Y-74658552D01*
X195413333Y-74801409D01*
X195365714Y-74991885D01*
X195318095Y-75087123D01*
X195222857Y-75182361D01*
X195080000Y-75229980D01*
X194841904Y-75229980D01*
X196318095Y-74229980D02*
X195841904Y-74229980D01*
X195794285Y-74706171D01*
X195841904Y-74658552D01*
X195937142Y-74610933D01*
X196175238Y-74610933D01*
X196270476Y-74658552D01*
X196318095Y-74706171D01*
X196365714Y-74801409D01*
X196365714Y-75039504D01*
X196318095Y-75134742D01*
X196270476Y-75182361D01*
X196175238Y-75229980D01*
X195937142Y-75229980D01*
X195841904Y-75182361D01*
X195794285Y-75134742D01*
X149074285Y-83002380D02*
X148740952Y-82526190D01*
X148502857Y-83002380D02*
X148502857Y-82002380D01*
X148883809Y-82002380D01*
X148979047Y-82050000D01*
X149026666Y-82097619D01*
X149074285Y-82192857D01*
X149074285Y-82335714D01*
X149026666Y-82430952D01*
X148979047Y-82478571D01*
X148883809Y-82526190D01*
X148502857Y-82526190D01*
X150217142Y-81954761D02*
X149360000Y-83240476D01*
X150455238Y-82002380D02*
X150693333Y-83002380D01*
X150883809Y-82288095D01*
X151074285Y-83002380D01*
X151312380Y-82002380D01*
X149121904Y-65113160D02*
X149121904Y-64113160D01*
X149360000Y-64113160D01*
X149502857Y-64160780D01*
X149598095Y-64256018D01*
X149645714Y-64351256D01*
X149693333Y-64541732D01*
X149693333Y-64684589D01*
X149645714Y-64875065D01*
X149598095Y-64970303D01*
X149502857Y-65065541D01*
X149360000Y-65113160D01*
X149121904Y-65113160D01*
X150645714Y-65113160D02*
X150074285Y-65113160D01*
X150360000Y-65113160D02*
X150360000Y-64113160D01*
X150264761Y-64256018D01*
X150169523Y-64351256D01*
X150074285Y-64398875D01*
X149121904Y-80462380D02*
X149121904Y-79462380D01*
X149360000Y-79462380D01*
X149502857Y-79510000D01*
X149598095Y-79605238D01*
X149645714Y-79700476D01*
X149693333Y-79890952D01*
X149693333Y-80033809D01*
X149645714Y-80224285D01*
X149598095Y-80319523D01*
X149502857Y-80414761D01*
X149360000Y-80462380D01*
X149121904Y-80462380D01*
X150026666Y-79462380D02*
X150693333Y-79462380D01*
X150264761Y-80462380D01*
X149121904Y-72750940D02*
X149121904Y-71750940D01*
X149360000Y-71750940D01*
X149502857Y-71798560D01*
X149598095Y-71893798D01*
X149645714Y-71989036D01*
X149693333Y-72179512D01*
X149693333Y-72322369D01*
X149645714Y-72512845D01*
X149598095Y-72608083D01*
X149502857Y-72703321D01*
X149360000Y-72750940D01*
X149121904Y-72750940D01*
X150550476Y-72084274D02*
X150550476Y-72750940D01*
X150312380Y-71703321D02*
X150074285Y-72417607D01*
X150693333Y-72417607D01*
X149098095Y-56500000D02*
X149002857Y-56452380D01*
X148860000Y-56452380D01*
X148717142Y-56500000D01*
X148621904Y-56595238D01*
X148574285Y-56690476D01*
X148526666Y-56880952D01*
X148526666Y-57023809D01*
X148574285Y-57214285D01*
X148621904Y-57309523D01*
X148717142Y-57404761D01*
X148860000Y-57452380D01*
X148955238Y-57452380D01*
X149098095Y-57404761D01*
X149145714Y-57357142D01*
X149145714Y-57023809D01*
X148955238Y-57023809D01*
X149574285Y-57452380D02*
X149574285Y-56452380D01*
X150145714Y-57452380D01*
X150145714Y-56452380D01*
X150621904Y-57452380D02*
X150621904Y-56452380D01*
X150860000Y-56452380D01*
X151002857Y-56500000D01*
X151098095Y-56595238D01*
X151145714Y-56690476D01*
X151193333Y-56880952D01*
X151193333Y-57023809D01*
X151145714Y-57214285D01*
X151098095Y-57309523D01*
X151002857Y-57404761D01*
X150860000Y-57452380D01*
X150621904Y-57452380D01*
X148876474Y-103322380D02*
X148543140Y-102846190D01*
X148305045Y-103322380D02*
X148305045Y-102322380D01*
X148685998Y-102322380D01*
X148781236Y-102370000D01*
X148828855Y-102417619D01*
X148876474Y-102512857D01*
X148876474Y-102655714D01*
X148828855Y-102750952D01*
X148781236Y-102798571D01*
X148685998Y-102846190D01*
X148305045Y-102846190D01*
X149305045Y-103322380D02*
X149305045Y-102322380D01*
X149876474Y-103322380D01*
X149876474Y-102322380D01*
X150876474Y-102370000D02*
X150781236Y-102322380D01*
X150638379Y-102322380D01*
X150495521Y-102370000D01*
X150400283Y-102465238D01*
X150352664Y-102560476D01*
X150305045Y-102750952D01*
X150305045Y-102893809D01*
X150352664Y-103084285D01*
X150400283Y-103179523D01*
X150495521Y-103274761D01*
X150638379Y-103322380D01*
X150733617Y-103322380D01*
X150876474Y-103274761D01*
X150924093Y-103227142D01*
X150924093Y-102893809D01*
X150733617Y-102893809D01*
X146900283Y-98242380D02*
X146900283Y-97242380D01*
X147281236Y-97242380D01*
X147376474Y-97290000D01*
X147424093Y-97337619D01*
X147471712Y-97432857D01*
X147471712Y-97575714D01*
X147424093Y-97670952D01*
X147376474Y-97718571D01*
X147281236Y-97766190D01*
X146900283Y-97766190D01*
X147900283Y-98242380D02*
X147900283Y-97242380D01*
X147900283Y-97718571D02*
X148471712Y-97718571D01*
X148471712Y-98242380D02*
X148471712Y-97242380D01*
X148947902Y-98242380D02*
X148947902Y-97242380D01*
X149947902Y-98242380D02*
X149376474Y-98242380D01*
X149662188Y-98242380D02*
X149662188Y-97242380D01*
X149566950Y-97385238D01*
X149471712Y-97480476D01*
X149376474Y-97528095D01*
X150519331Y-98242380D02*
X150424093Y-98194761D01*
X150376474Y-98147142D01*
X150328855Y-98051904D01*
X150328855Y-97766190D01*
X150376474Y-97670952D01*
X150424093Y-97623333D01*
X150519331Y-97575714D01*
X150662188Y-97575714D01*
X150757426Y-97623333D01*
X150805045Y-97670952D01*
X150852664Y-97766190D01*
X150852664Y-98051904D01*
X150805045Y-98147142D01*
X150757426Y-98194761D01*
X150662188Y-98242380D01*
X150519331Y-98242380D01*
X151709807Y-97575714D02*
X151709807Y-98242380D01*
X151281236Y-97575714D02*
X151281236Y-98099523D01*
X151328855Y-98194761D01*
X151424093Y-98242380D01*
X151566950Y-98242380D01*
X151662188Y-98194761D01*
X151709807Y-98147142D01*
X152043140Y-97575714D02*
X152424093Y-97575714D01*
X152185998Y-97242380D02*
X152185998Y-98099523D01*
X152233617Y-98194761D01*
X152328855Y-98242380D01*
X152424093Y-98242380D01*
X149264761Y-85447142D02*
X149217142Y-85494761D01*
X149074285Y-85542380D01*
X148979047Y-85542380D01*
X148836190Y-85494761D01*
X148740952Y-85399523D01*
X148693333Y-85304285D01*
X148645714Y-85113809D01*
X148645714Y-84970952D01*
X148693333Y-84780476D01*
X148740952Y-84685238D01*
X148836190Y-84590000D01*
X148979047Y-84542380D01*
X149074285Y-84542380D01*
X149217142Y-84590000D01*
X149264761Y-84637619D01*
X150169523Y-85542380D02*
X149693333Y-85542380D01*
X149693333Y-84542380D01*
X150502857Y-85542380D02*
X150502857Y-84542380D01*
X151074285Y-85542380D02*
X150645714Y-84970952D01*
X151074285Y-84542380D02*
X150502857Y-85113809D01*
X149121904Y-70259200D02*
X149121904Y-69259200D01*
X149360000Y-69259200D01*
X149502857Y-69306820D01*
X149598095Y-69402058D01*
X149645714Y-69497296D01*
X149693333Y-69687772D01*
X149693333Y-69830629D01*
X149645714Y-70021105D01*
X149598095Y-70116343D01*
X149502857Y-70211581D01*
X149360000Y-70259200D01*
X149121904Y-70259200D01*
X150026666Y-69259200D02*
X150645714Y-69259200D01*
X150312380Y-69640153D01*
X150455238Y-69640153D01*
X150550476Y-69687772D01*
X150598095Y-69735391D01*
X150645714Y-69830629D01*
X150645714Y-70068724D01*
X150598095Y-70163962D01*
X150550476Y-70211581D01*
X150455238Y-70259200D01*
X150169523Y-70259200D01*
X150074285Y-70211581D01*
X150026666Y-70163962D01*
X149121904Y-77935080D02*
X149121904Y-76935080D01*
X149360000Y-76935080D01*
X149502857Y-76982700D01*
X149598095Y-77077938D01*
X149645714Y-77173176D01*
X149693333Y-77363652D01*
X149693333Y-77506509D01*
X149645714Y-77696985D01*
X149598095Y-77792223D01*
X149502857Y-77887461D01*
X149360000Y-77935080D01*
X149121904Y-77935080D01*
X150550476Y-76935080D02*
X150360000Y-76935080D01*
X150264761Y-76982700D01*
X150217142Y-77030319D01*
X150121904Y-77173176D01*
X150074285Y-77363652D01*
X150074285Y-77744604D01*
X150121904Y-77839842D01*
X150169523Y-77887461D01*
X150264761Y-77935080D01*
X150455238Y-77935080D01*
X150550476Y-77887461D01*
X150598095Y-77839842D01*
X150645714Y-77744604D01*
X150645714Y-77506509D01*
X150598095Y-77411271D01*
X150550476Y-77363652D01*
X150455238Y-77316033D01*
X150264761Y-77316033D01*
X150169523Y-77363652D01*
X150121904Y-77411271D01*
X150074285Y-77506509D01*
X149121904Y-62481720D02*
X149121904Y-61481720D01*
X149360000Y-61481720D01*
X149502857Y-61529340D01*
X149598095Y-61624578D01*
X149645714Y-61719816D01*
X149693333Y-61910292D01*
X149693333Y-62053149D01*
X149645714Y-62243625D01*
X149598095Y-62338863D01*
X149502857Y-62434101D01*
X149360000Y-62481720D01*
X149121904Y-62481720D01*
X150312380Y-61481720D02*
X150407619Y-61481720D01*
X150502857Y-61529340D01*
X150550476Y-61576959D01*
X150598095Y-61672197D01*
X150645714Y-61862673D01*
X150645714Y-62100768D01*
X150598095Y-62291244D01*
X150550476Y-62386482D01*
X150502857Y-62434101D01*
X150407619Y-62481720D01*
X150312380Y-62481720D01*
X150217142Y-62434101D01*
X150169523Y-62386482D01*
X150121904Y-62291244D01*
X150074285Y-62100768D01*
X150074285Y-61862673D01*
X150121904Y-61672197D01*
X150169523Y-61576959D01*
X150217142Y-61529340D01*
X150312380Y-61481720D01*
X146812380Y-87558571D02*
X146479047Y-87558571D01*
X146479047Y-88082380D02*
X146479047Y-87082380D01*
X146955238Y-87082380D01*
X147764761Y-88082380D02*
X147764761Y-87558571D01*
X147717142Y-87463333D01*
X147621904Y-87415714D01*
X147431428Y-87415714D01*
X147336190Y-87463333D01*
X147764761Y-88034761D02*
X147669523Y-88082380D01*
X147431428Y-88082380D01*
X147336190Y-88034761D01*
X147288571Y-87939523D01*
X147288571Y-87844285D01*
X147336190Y-87749047D01*
X147431428Y-87701428D01*
X147669523Y-87701428D01*
X147764761Y-87653809D01*
X148193333Y-88034761D02*
X148288571Y-88082380D01*
X148479047Y-88082380D01*
X148574285Y-88034761D01*
X148621904Y-87939523D01*
X148621904Y-87891904D01*
X148574285Y-87796666D01*
X148479047Y-87749047D01*
X148336190Y-87749047D01*
X148240952Y-87701428D01*
X148193333Y-87606190D01*
X148193333Y-87558571D01*
X148240952Y-87463333D01*
X148336190Y-87415714D01*
X148479047Y-87415714D01*
X148574285Y-87463333D01*
X148907619Y-87415714D02*
X149288571Y-87415714D01*
X149050476Y-87082380D02*
X149050476Y-87939523D01*
X149098095Y-88034761D01*
X149193333Y-88082380D01*
X149288571Y-88082380D01*
X150193333Y-87987142D02*
X150145714Y-88034761D01*
X150002857Y-88082380D01*
X149907619Y-88082380D01*
X149764761Y-88034761D01*
X149669523Y-87939523D01*
X149621904Y-87844285D01*
X149574285Y-87653809D01*
X149574285Y-87510952D01*
X149621904Y-87320476D01*
X149669523Y-87225238D01*
X149764761Y-87130000D01*
X149907619Y-87082380D01*
X150002857Y-87082380D01*
X150145714Y-87130000D01*
X150193333Y-87177619D01*
X150764761Y-88082380D02*
X150669523Y-88034761D01*
X150621904Y-87939523D01*
X150621904Y-87082380D01*
X151288571Y-88082380D02*
X151193333Y-88034761D01*
X151145714Y-87987142D01*
X151098095Y-87891904D01*
X151098095Y-87606190D01*
X151145714Y-87510952D01*
X151193333Y-87463333D01*
X151288571Y-87415714D01*
X151431428Y-87415714D01*
X151526666Y-87463333D01*
X151574285Y-87510952D01*
X151621904Y-87606190D01*
X151621904Y-87891904D01*
X151574285Y-87987142D01*
X151526666Y-88034761D01*
X151431428Y-88082380D01*
X151288571Y-88082380D01*
X152479047Y-88034761D02*
X152383809Y-88082380D01*
X152193333Y-88082380D01*
X152098095Y-88034761D01*
X152050476Y-87987142D01*
X152002857Y-87891904D01*
X152002857Y-87606190D01*
X152050476Y-87510952D01*
X152098095Y-87463333D01*
X152193333Y-87415714D01*
X152383809Y-87415714D01*
X152479047Y-87463333D01*
X152907619Y-88082380D02*
X152907619Y-87082380D01*
X153002857Y-87701428D02*
X153288571Y-88082380D01*
X153288571Y-87415714D02*
X152907619Y-87796666D01*
X147209807Y-92638571D02*
X146876474Y-92638571D01*
X146876474Y-93162380D02*
X146876474Y-92162380D01*
X147352664Y-92162380D01*
X148305045Y-93162380D02*
X147971712Y-92686190D01*
X147733617Y-93162380D02*
X147733617Y-92162380D01*
X148114569Y-92162380D01*
X148209807Y-92210000D01*
X148257426Y-92257619D01*
X148305045Y-92352857D01*
X148305045Y-92495714D01*
X148257426Y-92590952D01*
X148209807Y-92638571D01*
X148114569Y-92686190D01*
X147733617Y-92686190D01*
X148733617Y-93162380D02*
X148733617Y-92162380D01*
X149066950Y-92876666D01*
X149400283Y-92162380D01*
X149400283Y-93162380D01*
X150209807Y-92638571D02*
X150352664Y-92686190D01*
X150400283Y-92733809D01*
X150447902Y-92829047D01*
X150447902Y-92971904D01*
X150400283Y-93067142D01*
X150352664Y-93114761D01*
X150257426Y-93162380D01*
X149876474Y-93162380D01*
X149876474Y-92162380D01*
X150209807Y-92162380D01*
X150305045Y-92210000D01*
X150352664Y-92257619D01*
X150400283Y-92352857D01*
X150400283Y-92448095D01*
X150352664Y-92543333D01*
X150305045Y-92590952D01*
X150209807Y-92638571D01*
X149876474Y-92638571D01*
X150876474Y-92162380D02*
X150876474Y-92971904D01*
X150924093Y-93067142D01*
X150971712Y-93114761D01*
X151066950Y-93162380D01*
X151257426Y-93162380D01*
X151352664Y-93114761D01*
X151400283Y-93067142D01*
X151447902Y-92971904D01*
X151447902Y-92162380D01*
X152257426Y-92638571D02*
X151924093Y-92638571D01*
X151924093Y-93162380D02*
X151924093Y-92162380D01*
X152400283Y-92162380D01*
X148566950Y-95702380D02*
X148566950Y-94702380D01*
X149614569Y-95702380D02*
X149281236Y-95226190D01*
X149043140Y-95702380D02*
X149043140Y-94702380D01*
X149424093Y-94702380D01*
X149519331Y-94750000D01*
X149566950Y-94797619D01*
X149614569Y-94892857D01*
X149614569Y-95035714D01*
X149566950Y-95130952D01*
X149519331Y-95178571D01*
X149424093Y-95226190D01*
X149043140Y-95226190D01*
X150709807Y-95797619D02*
X150614569Y-95750000D01*
X150519331Y-95654761D01*
X150376474Y-95511904D01*
X150281236Y-95464285D01*
X150185998Y-95464285D01*
X150233617Y-95702380D02*
X150138379Y-95654761D01*
X150043140Y-95559523D01*
X149995521Y-95369047D01*
X149995521Y-95035714D01*
X150043140Y-94845238D01*
X150138379Y-94750000D01*
X150233617Y-94702380D01*
X150424093Y-94702380D01*
X150519331Y-94750000D01*
X150614569Y-94845238D01*
X150662188Y-95035714D01*
X150662188Y-95369047D01*
X150614569Y-95559523D01*
X150519331Y-95654761D01*
X150424093Y-95702380D01*
X150233617Y-95702380D01*
X148526666Y-59078880D02*
X148860000Y-60078880D01*
X149193333Y-59078880D01*
X150098095Y-59983642D02*
X150050476Y-60031261D01*
X149907619Y-60078880D01*
X149812380Y-60078880D01*
X149669523Y-60031261D01*
X149574285Y-59936023D01*
X149526666Y-59840785D01*
X149479047Y-59650309D01*
X149479047Y-59507452D01*
X149526666Y-59316976D01*
X149574285Y-59221738D01*
X149669523Y-59126500D01*
X149812380Y-59078880D01*
X149907619Y-59078880D01*
X150050476Y-59126500D01*
X150098095Y-59174119D01*
X151098095Y-59983642D02*
X151050476Y-60031261D01*
X150907619Y-60078880D01*
X150812380Y-60078880D01*
X150669523Y-60031261D01*
X150574285Y-59936023D01*
X150526666Y-59840785D01*
X150479047Y-59650309D01*
X150479047Y-59507452D01*
X150526666Y-59316976D01*
X150574285Y-59221738D01*
X150669523Y-59126500D01*
X150812380Y-59078880D01*
X150907619Y-59078880D01*
X151050476Y-59126500D01*
X151098095Y-59174119D01*
X146019331Y-90574761D02*
X146162188Y-90622380D01*
X146400283Y-90622380D01*
X146495521Y-90574761D01*
X146543140Y-90527142D01*
X146590760Y-90431904D01*
X146590760Y-90336666D01*
X146543140Y-90241428D01*
X146495521Y-90193809D01*
X146400283Y-90146190D01*
X146209807Y-90098571D01*
X146114569Y-90050952D01*
X146066950Y-90003333D01*
X146019331Y-89908095D01*
X146019331Y-89812857D01*
X146066950Y-89717619D01*
X146114569Y-89670000D01*
X146209807Y-89622380D01*
X146447902Y-89622380D01*
X146590760Y-89670000D01*
X147162188Y-90622380D02*
X147066950Y-90574761D01*
X147019331Y-90479523D01*
X147019331Y-89622380D01*
X147685998Y-90622380D02*
X147590760Y-90574761D01*
X147543140Y-90527142D01*
X147495521Y-90431904D01*
X147495521Y-90146190D01*
X147543140Y-90050952D01*
X147590760Y-90003333D01*
X147685998Y-89955714D01*
X147828855Y-89955714D01*
X147924093Y-90003333D01*
X147971712Y-90050952D01*
X148019331Y-90146190D01*
X148019331Y-90431904D01*
X147971712Y-90527142D01*
X147924093Y-90574761D01*
X147828855Y-90622380D01*
X147685998Y-90622380D01*
X148352664Y-89955714D02*
X148543140Y-90622380D01*
X148733617Y-90146190D01*
X148924093Y-90622380D01*
X149114569Y-89955714D01*
X150066950Y-90527142D02*
X150019331Y-90574761D01*
X149876474Y-90622380D01*
X149781236Y-90622380D01*
X149638379Y-90574761D01*
X149543140Y-90479523D01*
X149495521Y-90384285D01*
X149447902Y-90193809D01*
X149447902Y-90050952D01*
X149495521Y-89860476D01*
X149543140Y-89765238D01*
X149638379Y-89670000D01*
X149781236Y-89622380D01*
X149876474Y-89622380D01*
X150019331Y-89670000D01*
X150066950Y-89717619D01*
X150638379Y-90622380D02*
X150543140Y-90574761D01*
X150495521Y-90479523D01*
X150495521Y-89622380D01*
X151162188Y-90622380D02*
X151066950Y-90574761D01*
X151019331Y-90527142D01*
X150971712Y-90431904D01*
X150971712Y-90146190D01*
X151019331Y-90050952D01*
X151066950Y-90003333D01*
X151162188Y-89955714D01*
X151305045Y-89955714D01*
X151400283Y-90003333D01*
X151447902Y-90050952D01*
X151495521Y-90146190D01*
X151495521Y-90431904D01*
X151447902Y-90527142D01*
X151400283Y-90574761D01*
X151305045Y-90622380D01*
X151162188Y-90622380D01*
X152352664Y-90574761D02*
X152257426Y-90622380D01*
X152066950Y-90622380D01*
X151971712Y-90574761D01*
X151924093Y-90527142D01*
X151876474Y-90431904D01*
X151876474Y-90146190D01*
X151924093Y-90050952D01*
X151971712Y-90003333D01*
X152066950Y-89955714D01*
X152257426Y-89955714D01*
X152352664Y-90003333D01*
X152781236Y-90622380D02*
X152781236Y-89622380D01*
X152876474Y-90241428D02*
X153162188Y-90622380D01*
X153162188Y-89955714D02*
X152781236Y-90336666D01*
X149121904Y-67516000D02*
X149121904Y-66516000D01*
X149360000Y-66516000D01*
X149502857Y-66563620D01*
X149598095Y-66658858D01*
X149645714Y-66754096D01*
X149693333Y-66944572D01*
X149693333Y-67087429D01*
X149645714Y-67277905D01*
X149598095Y-67373143D01*
X149502857Y-67468381D01*
X149360000Y-67516000D01*
X149121904Y-67516000D01*
X150074285Y-66611239D02*
X150121904Y-66563620D01*
X150217142Y-66516000D01*
X150455238Y-66516000D01*
X150550476Y-66563620D01*
X150598095Y-66611239D01*
X150645714Y-66706477D01*
X150645714Y-66801715D01*
X150598095Y-66944572D01*
X150026666Y-67516000D01*
X150645714Y-67516000D01*
X146900283Y-100782380D02*
X146900283Y-99782380D01*
X147281236Y-99782380D01*
X147376474Y-99830000D01*
X147424093Y-99877619D01*
X147471712Y-99972857D01*
X147471712Y-100115714D01*
X147424093Y-100210952D01*
X147376474Y-100258571D01*
X147281236Y-100306190D01*
X146900283Y-100306190D01*
X147900283Y-100782380D02*
X147900283Y-99782380D01*
X147900283Y-100258571D02*
X148471712Y-100258571D01*
X148471712Y-100782380D02*
X148471712Y-99782380D01*
X148947902Y-100782380D02*
X148947902Y-99782380D01*
X149376474Y-99877619D02*
X149424093Y-99830000D01*
X149519331Y-99782380D01*
X149757426Y-99782380D01*
X149852664Y-99830000D01*
X149900283Y-99877619D01*
X149947902Y-99972857D01*
X149947902Y-100068095D01*
X149900283Y-100210952D01*
X149328855Y-100782380D01*
X149947902Y-100782380D01*
X150519331Y-100782380D02*
X150424093Y-100734761D01*
X150376474Y-100687142D01*
X150328855Y-100591904D01*
X150328855Y-100306190D01*
X150376474Y-100210952D01*
X150424093Y-100163333D01*
X150519331Y-100115714D01*
X150662188Y-100115714D01*
X150757426Y-100163333D01*
X150805045Y-100210952D01*
X150852664Y-100306190D01*
X150852664Y-100591904D01*
X150805045Y-100687142D01*
X150757426Y-100734761D01*
X150662188Y-100782380D01*
X150519331Y-100782380D01*
X151709807Y-100115714D02*
X151709807Y-100782380D01*
X151281236Y-100115714D02*
X151281236Y-100639523D01*
X151328855Y-100734761D01*
X151424093Y-100782380D01*
X151566950Y-100782380D01*
X151662188Y-100734761D01*
X151709807Y-100687142D01*
X152043140Y-100115714D02*
X152424093Y-100115714D01*
X152185998Y-99782380D02*
X152185998Y-100639523D01*
X152233617Y-100734761D01*
X152328855Y-100782380D01*
X152424093Y-100782380D01*
X149121904Y-75229980D02*
X149121904Y-74229980D01*
X149360000Y-74229980D01*
X149502857Y-74277600D01*
X149598095Y-74372838D01*
X149645714Y-74468076D01*
X149693333Y-74658552D01*
X149693333Y-74801409D01*
X149645714Y-74991885D01*
X149598095Y-75087123D01*
X149502857Y-75182361D01*
X149360000Y-75229980D01*
X149121904Y-75229980D01*
X150598095Y-74229980D02*
X150121904Y-74229980D01*
X150074285Y-74706171D01*
X150121904Y-74658552D01*
X150217142Y-74610933D01*
X150455238Y-74610933D01*
X150550476Y-74658552D01*
X150598095Y-74706171D01*
X150645714Y-74801409D01*
X150645714Y-75039504D01*
X150598095Y-75134742D01*
X150550476Y-75182361D01*
X150455238Y-75229980D01*
X150217142Y-75229980D01*
X150121904Y-75182361D01*
X150074285Y-75134742D01*
X102084285Y-83002380D02*
X101750952Y-82526190D01*
X101512857Y-83002380D02*
X101512857Y-82002380D01*
X101893809Y-82002380D01*
X101989047Y-82050000D01*
X102036666Y-82097619D01*
X102084285Y-82192857D01*
X102084285Y-82335714D01*
X102036666Y-82430952D01*
X101989047Y-82478571D01*
X101893809Y-82526190D01*
X101512857Y-82526190D01*
X103227142Y-81954761D02*
X102370000Y-83240476D01*
X103465238Y-82002380D02*
X103703333Y-83002380D01*
X103893809Y-82288095D01*
X104084285Y-83002380D01*
X104322380Y-82002380D01*
X102131904Y-65113160D02*
X102131904Y-64113160D01*
X102370000Y-64113160D01*
X102512857Y-64160780D01*
X102608095Y-64256018D01*
X102655714Y-64351256D01*
X102703333Y-64541732D01*
X102703333Y-64684589D01*
X102655714Y-64875065D01*
X102608095Y-64970303D01*
X102512857Y-65065541D01*
X102370000Y-65113160D01*
X102131904Y-65113160D01*
X103655714Y-65113160D02*
X103084285Y-65113160D01*
X103370000Y-65113160D02*
X103370000Y-64113160D01*
X103274761Y-64256018D01*
X103179523Y-64351256D01*
X103084285Y-64398875D01*
X102131904Y-80462380D02*
X102131904Y-79462380D01*
X102370000Y-79462380D01*
X102512857Y-79510000D01*
X102608095Y-79605238D01*
X102655714Y-79700476D01*
X102703333Y-79890952D01*
X102703333Y-80033809D01*
X102655714Y-80224285D01*
X102608095Y-80319523D01*
X102512857Y-80414761D01*
X102370000Y-80462380D01*
X102131904Y-80462380D01*
X103036666Y-79462380D02*
X103703333Y-79462380D01*
X103274761Y-80462380D01*
X102131904Y-72750940D02*
X102131904Y-71750940D01*
X102370000Y-71750940D01*
X102512857Y-71798560D01*
X102608095Y-71893798D01*
X102655714Y-71989036D01*
X102703333Y-72179512D01*
X102703333Y-72322369D01*
X102655714Y-72512845D01*
X102608095Y-72608083D01*
X102512857Y-72703321D01*
X102370000Y-72750940D01*
X102131904Y-72750940D01*
X103560476Y-72084274D02*
X103560476Y-72750940D01*
X103322380Y-71703321D02*
X103084285Y-72417607D01*
X103703333Y-72417607D01*
X102108095Y-56500000D02*
X102012857Y-56452380D01*
X101870000Y-56452380D01*
X101727142Y-56500000D01*
X101631904Y-56595238D01*
X101584285Y-56690476D01*
X101536666Y-56880952D01*
X101536666Y-57023809D01*
X101584285Y-57214285D01*
X101631904Y-57309523D01*
X101727142Y-57404761D01*
X101870000Y-57452380D01*
X101965238Y-57452380D01*
X102108095Y-57404761D01*
X102155714Y-57357142D01*
X102155714Y-57023809D01*
X101965238Y-57023809D01*
X102584285Y-57452380D02*
X102584285Y-56452380D01*
X103155714Y-57452380D01*
X103155714Y-56452380D01*
X103631904Y-57452380D02*
X103631904Y-56452380D01*
X103870000Y-56452380D01*
X104012857Y-56500000D01*
X104108095Y-56595238D01*
X104155714Y-56690476D01*
X104203333Y-56880952D01*
X104203333Y-57023809D01*
X104155714Y-57214285D01*
X104108095Y-57309523D01*
X104012857Y-57404761D01*
X103870000Y-57452380D01*
X103631904Y-57452380D01*
X101886474Y-103322380D02*
X101553140Y-102846190D01*
X101315045Y-103322380D02*
X101315045Y-102322380D01*
X101695998Y-102322380D01*
X101791236Y-102370000D01*
X101838855Y-102417619D01*
X101886474Y-102512857D01*
X101886474Y-102655714D01*
X101838855Y-102750952D01*
X101791236Y-102798571D01*
X101695998Y-102846190D01*
X101315045Y-102846190D01*
X102315045Y-103322380D02*
X102315045Y-102322380D01*
X102886474Y-103322380D01*
X102886474Y-102322380D01*
X103886474Y-102370000D02*
X103791236Y-102322380D01*
X103648379Y-102322380D01*
X103505521Y-102370000D01*
X103410283Y-102465238D01*
X103362664Y-102560476D01*
X103315045Y-102750952D01*
X103315045Y-102893809D01*
X103362664Y-103084285D01*
X103410283Y-103179523D01*
X103505521Y-103274761D01*
X103648379Y-103322380D01*
X103743617Y-103322380D01*
X103886474Y-103274761D01*
X103934093Y-103227142D01*
X103934093Y-102893809D01*
X103743617Y-102893809D01*
X99910283Y-98242380D02*
X99910283Y-97242380D01*
X100291236Y-97242380D01*
X100386474Y-97290000D01*
X100434093Y-97337619D01*
X100481712Y-97432857D01*
X100481712Y-97575714D01*
X100434093Y-97670952D01*
X100386474Y-97718571D01*
X100291236Y-97766190D01*
X99910283Y-97766190D01*
X100910283Y-98242380D02*
X100910283Y-97242380D01*
X100910283Y-97718571D02*
X101481712Y-97718571D01*
X101481712Y-98242380D02*
X101481712Y-97242380D01*
X101957902Y-98242380D02*
X101957902Y-97242380D01*
X102957902Y-98242380D02*
X102386474Y-98242380D01*
X102672188Y-98242380D02*
X102672188Y-97242380D01*
X102576950Y-97385238D01*
X102481712Y-97480476D01*
X102386474Y-97528095D01*
X103529331Y-98242380D02*
X103434093Y-98194761D01*
X103386474Y-98147142D01*
X103338855Y-98051904D01*
X103338855Y-97766190D01*
X103386474Y-97670952D01*
X103434093Y-97623333D01*
X103529331Y-97575714D01*
X103672188Y-97575714D01*
X103767426Y-97623333D01*
X103815045Y-97670952D01*
X103862664Y-97766190D01*
X103862664Y-98051904D01*
X103815045Y-98147142D01*
X103767426Y-98194761D01*
X103672188Y-98242380D01*
X103529331Y-98242380D01*
X104719807Y-97575714D02*
X104719807Y-98242380D01*
X104291236Y-97575714D02*
X104291236Y-98099523D01*
X104338855Y-98194761D01*
X104434093Y-98242380D01*
X104576950Y-98242380D01*
X104672188Y-98194761D01*
X104719807Y-98147142D01*
X105053140Y-97575714D02*
X105434093Y-97575714D01*
X105195998Y-97242380D02*
X105195998Y-98099523D01*
X105243617Y-98194761D01*
X105338855Y-98242380D01*
X105434093Y-98242380D01*
X102274761Y-85447142D02*
X102227142Y-85494761D01*
X102084285Y-85542380D01*
X101989047Y-85542380D01*
X101846190Y-85494761D01*
X101750952Y-85399523D01*
X101703333Y-85304285D01*
X101655714Y-85113809D01*
X101655714Y-84970952D01*
X101703333Y-84780476D01*
X101750952Y-84685238D01*
X101846190Y-84590000D01*
X101989047Y-84542380D01*
X102084285Y-84542380D01*
X102227142Y-84590000D01*
X102274761Y-84637619D01*
X103179523Y-85542380D02*
X102703333Y-85542380D01*
X102703333Y-84542380D01*
X103512857Y-85542380D02*
X103512857Y-84542380D01*
X104084285Y-85542380D02*
X103655714Y-84970952D01*
X104084285Y-84542380D02*
X103512857Y-85113809D01*
X102131904Y-70259200D02*
X102131904Y-69259200D01*
X102370000Y-69259200D01*
X102512857Y-69306820D01*
X102608095Y-69402058D01*
X102655714Y-69497296D01*
X102703333Y-69687772D01*
X102703333Y-69830629D01*
X102655714Y-70021105D01*
X102608095Y-70116343D01*
X102512857Y-70211581D01*
X102370000Y-70259200D01*
X102131904Y-70259200D01*
X103036666Y-69259200D02*
X103655714Y-69259200D01*
X103322380Y-69640153D01*
X103465238Y-69640153D01*
X103560476Y-69687772D01*
X103608095Y-69735391D01*
X103655714Y-69830629D01*
X103655714Y-70068724D01*
X103608095Y-70163962D01*
X103560476Y-70211581D01*
X103465238Y-70259200D01*
X103179523Y-70259200D01*
X103084285Y-70211581D01*
X103036666Y-70163962D01*
X102131904Y-77935080D02*
X102131904Y-76935080D01*
X102370000Y-76935080D01*
X102512857Y-76982700D01*
X102608095Y-77077938D01*
X102655714Y-77173176D01*
X102703333Y-77363652D01*
X102703333Y-77506509D01*
X102655714Y-77696985D01*
X102608095Y-77792223D01*
X102512857Y-77887461D01*
X102370000Y-77935080D01*
X102131904Y-77935080D01*
X103560476Y-76935080D02*
X103370000Y-76935080D01*
X103274761Y-76982700D01*
X103227142Y-77030319D01*
X103131904Y-77173176D01*
X103084285Y-77363652D01*
X103084285Y-77744604D01*
X103131904Y-77839842D01*
X103179523Y-77887461D01*
X103274761Y-77935080D01*
X103465238Y-77935080D01*
X103560476Y-77887461D01*
X103608095Y-77839842D01*
X103655714Y-77744604D01*
X103655714Y-77506509D01*
X103608095Y-77411271D01*
X103560476Y-77363652D01*
X103465238Y-77316033D01*
X103274761Y-77316033D01*
X103179523Y-77363652D01*
X103131904Y-77411271D01*
X103084285Y-77506509D01*
X102131904Y-62481720D02*
X102131904Y-61481720D01*
X102370000Y-61481720D01*
X102512857Y-61529340D01*
X102608095Y-61624578D01*
X102655714Y-61719816D01*
X102703333Y-61910292D01*
X102703333Y-62053149D01*
X102655714Y-62243625D01*
X102608095Y-62338863D01*
X102512857Y-62434101D01*
X102370000Y-62481720D01*
X102131904Y-62481720D01*
X103322380Y-61481720D02*
X103417619Y-61481720D01*
X103512857Y-61529340D01*
X103560476Y-61576959D01*
X103608095Y-61672197D01*
X103655714Y-61862673D01*
X103655714Y-62100768D01*
X103608095Y-62291244D01*
X103560476Y-62386482D01*
X103512857Y-62434101D01*
X103417619Y-62481720D01*
X103322380Y-62481720D01*
X103227142Y-62434101D01*
X103179523Y-62386482D01*
X103131904Y-62291244D01*
X103084285Y-62100768D01*
X103084285Y-61862673D01*
X103131904Y-61672197D01*
X103179523Y-61576959D01*
X103227142Y-61529340D01*
X103322380Y-61481720D01*
X99822380Y-87558571D02*
X99489047Y-87558571D01*
X99489047Y-88082380D02*
X99489047Y-87082380D01*
X99965238Y-87082380D01*
X100774761Y-88082380D02*
X100774761Y-87558571D01*
X100727142Y-87463333D01*
X100631904Y-87415714D01*
X100441428Y-87415714D01*
X100346190Y-87463333D01*
X100774761Y-88034761D02*
X100679523Y-88082380D01*
X100441428Y-88082380D01*
X100346190Y-88034761D01*
X100298571Y-87939523D01*
X100298571Y-87844285D01*
X100346190Y-87749047D01*
X100441428Y-87701428D01*
X100679523Y-87701428D01*
X100774761Y-87653809D01*
X101203333Y-88034761D02*
X101298571Y-88082380D01*
X101489047Y-88082380D01*
X101584285Y-88034761D01*
X101631904Y-87939523D01*
X101631904Y-87891904D01*
X101584285Y-87796666D01*
X101489047Y-87749047D01*
X101346190Y-87749047D01*
X101250952Y-87701428D01*
X101203333Y-87606190D01*
X101203333Y-87558571D01*
X101250952Y-87463333D01*
X101346190Y-87415714D01*
X101489047Y-87415714D01*
X101584285Y-87463333D01*
X101917619Y-87415714D02*
X102298571Y-87415714D01*
X102060476Y-87082380D02*
X102060476Y-87939523D01*
X102108095Y-88034761D01*
X102203333Y-88082380D01*
X102298571Y-88082380D01*
X103203333Y-87987142D02*
X103155714Y-88034761D01*
X103012857Y-88082380D01*
X102917619Y-88082380D01*
X102774761Y-88034761D01*
X102679523Y-87939523D01*
X102631904Y-87844285D01*
X102584285Y-87653809D01*
X102584285Y-87510952D01*
X102631904Y-87320476D01*
X102679523Y-87225238D01*
X102774761Y-87130000D01*
X102917619Y-87082380D01*
X103012857Y-87082380D01*
X103155714Y-87130000D01*
X103203333Y-87177619D01*
X103774761Y-88082380D02*
X103679523Y-88034761D01*
X103631904Y-87939523D01*
X103631904Y-87082380D01*
X104298571Y-88082380D02*
X104203333Y-88034761D01*
X104155714Y-87987142D01*
X104108095Y-87891904D01*
X104108095Y-87606190D01*
X104155714Y-87510952D01*
X104203333Y-87463333D01*
X104298571Y-87415714D01*
X104441428Y-87415714D01*
X104536666Y-87463333D01*
X104584285Y-87510952D01*
X104631904Y-87606190D01*
X104631904Y-87891904D01*
X104584285Y-87987142D01*
X104536666Y-88034761D01*
X104441428Y-88082380D01*
X104298571Y-88082380D01*
X105489047Y-88034761D02*
X105393809Y-88082380D01*
X105203333Y-88082380D01*
X105108095Y-88034761D01*
X105060476Y-87987142D01*
X105012857Y-87891904D01*
X105012857Y-87606190D01*
X105060476Y-87510952D01*
X105108095Y-87463333D01*
X105203333Y-87415714D01*
X105393809Y-87415714D01*
X105489047Y-87463333D01*
X105917619Y-88082380D02*
X105917619Y-87082380D01*
X106012857Y-87701428D02*
X106298571Y-88082380D01*
X106298571Y-87415714D02*
X105917619Y-87796666D01*
X100219807Y-92638571D02*
X99886474Y-92638571D01*
X99886474Y-93162380D02*
X99886474Y-92162380D01*
X100362664Y-92162380D01*
X101315045Y-93162380D02*
X100981712Y-92686190D01*
X100743617Y-93162380D02*
X100743617Y-92162380D01*
X101124569Y-92162380D01*
X101219807Y-92210000D01*
X101267426Y-92257619D01*
X101315045Y-92352857D01*
X101315045Y-92495714D01*
X101267426Y-92590952D01*
X101219807Y-92638571D01*
X101124569Y-92686190D01*
X100743617Y-92686190D01*
X101743617Y-93162380D02*
X101743617Y-92162380D01*
X102076950Y-92876666D01*
X102410283Y-92162380D01*
X102410283Y-93162380D01*
X103219807Y-92638571D02*
X103362664Y-92686190D01*
X103410283Y-92733809D01*
X103457902Y-92829047D01*
X103457902Y-92971904D01*
X103410283Y-93067142D01*
X103362664Y-93114761D01*
X103267426Y-93162380D01*
X102886474Y-93162380D01*
X102886474Y-92162380D01*
X103219807Y-92162380D01*
X103315045Y-92210000D01*
X103362664Y-92257619D01*
X103410283Y-92352857D01*
X103410283Y-92448095D01*
X103362664Y-92543333D01*
X103315045Y-92590952D01*
X103219807Y-92638571D01*
X102886474Y-92638571D01*
X103886474Y-92162380D02*
X103886474Y-92971904D01*
X103934093Y-93067142D01*
X103981712Y-93114761D01*
X104076950Y-93162380D01*
X104267426Y-93162380D01*
X104362664Y-93114761D01*
X104410283Y-93067142D01*
X104457902Y-92971904D01*
X104457902Y-92162380D01*
X105267426Y-92638571D02*
X104934093Y-92638571D01*
X104934093Y-93162380D02*
X104934093Y-92162380D01*
X105410283Y-92162380D01*
X101576950Y-95702380D02*
X101576950Y-94702380D01*
X102624569Y-95702380D02*
X102291236Y-95226190D01*
X102053140Y-95702380D02*
X102053140Y-94702380D01*
X102434093Y-94702380D01*
X102529331Y-94750000D01*
X102576950Y-94797619D01*
X102624569Y-94892857D01*
X102624569Y-95035714D01*
X102576950Y-95130952D01*
X102529331Y-95178571D01*
X102434093Y-95226190D01*
X102053140Y-95226190D01*
X103719807Y-95797619D02*
X103624569Y-95750000D01*
X103529331Y-95654761D01*
X103386474Y-95511904D01*
X103291236Y-95464285D01*
X103195998Y-95464285D01*
X103243617Y-95702380D02*
X103148379Y-95654761D01*
X103053140Y-95559523D01*
X103005521Y-95369047D01*
X103005521Y-95035714D01*
X103053140Y-94845238D01*
X103148379Y-94750000D01*
X103243617Y-94702380D01*
X103434093Y-94702380D01*
X103529331Y-94750000D01*
X103624569Y-94845238D01*
X103672188Y-95035714D01*
X103672188Y-95369047D01*
X103624569Y-95559523D01*
X103529331Y-95654761D01*
X103434093Y-95702380D01*
X103243617Y-95702380D01*
X101536666Y-59078880D02*
X101870000Y-60078880D01*
X102203333Y-59078880D01*
X103108095Y-59983642D02*
X103060476Y-60031261D01*
X102917619Y-60078880D01*
X102822380Y-60078880D01*
X102679523Y-60031261D01*
X102584285Y-59936023D01*
X102536666Y-59840785D01*
X102489047Y-59650309D01*
X102489047Y-59507452D01*
X102536666Y-59316976D01*
X102584285Y-59221738D01*
X102679523Y-59126500D01*
X102822380Y-59078880D01*
X102917619Y-59078880D01*
X103060476Y-59126500D01*
X103108095Y-59174119D01*
X104108095Y-59983642D02*
X104060476Y-60031261D01*
X103917619Y-60078880D01*
X103822380Y-60078880D01*
X103679523Y-60031261D01*
X103584285Y-59936023D01*
X103536666Y-59840785D01*
X103489047Y-59650309D01*
X103489047Y-59507452D01*
X103536666Y-59316976D01*
X103584285Y-59221738D01*
X103679523Y-59126500D01*
X103822380Y-59078880D01*
X103917619Y-59078880D01*
X104060476Y-59126500D01*
X104108095Y-59174119D01*
X99029331Y-90574761D02*
X99172188Y-90622380D01*
X99410283Y-90622380D01*
X99505521Y-90574761D01*
X99553140Y-90527142D01*
X99600760Y-90431904D01*
X99600760Y-90336666D01*
X99553140Y-90241428D01*
X99505521Y-90193809D01*
X99410283Y-90146190D01*
X99219807Y-90098571D01*
X99124569Y-90050952D01*
X99076950Y-90003333D01*
X99029331Y-89908095D01*
X99029331Y-89812857D01*
X99076950Y-89717619D01*
X99124569Y-89670000D01*
X99219807Y-89622380D01*
X99457902Y-89622380D01*
X99600760Y-89670000D01*
X100172188Y-90622380D02*
X100076950Y-90574761D01*
X100029331Y-90479523D01*
X100029331Y-89622380D01*
X100695998Y-90622380D02*
X100600760Y-90574761D01*
X100553140Y-90527142D01*
X100505521Y-90431904D01*
X100505521Y-90146190D01*
X100553140Y-90050952D01*
X100600760Y-90003333D01*
X100695998Y-89955714D01*
X100838855Y-89955714D01*
X100934093Y-90003333D01*
X100981712Y-90050952D01*
X101029331Y-90146190D01*
X101029331Y-90431904D01*
X100981712Y-90527142D01*
X100934093Y-90574761D01*
X100838855Y-90622380D01*
X100695998Y-90622380D01*
X101362664Y-89955714D02*
X101553140Y-90622380D01*
X101743617Y-90146190D01*
X101934093Y-90622380D01*
X102124569Y-89955714D01*
X103076950Y-90527142D02*
X103029331Y-90574761D01*
X102886474Y-90622380D01*
X102791236Y-90622380D01*
X102648379Y-90574761D01*
X102553140Y-90479523D01*
X102505521Y-90384285D01*
X102457902Y-90193809D01*
X102457902Y-90050952D01*
X102505521Y-89860476D01*
X102553140Y-89765238D01*
X102648379Y-89670000D01*
X102791236Y-89622380D01*
X102886474Y-89622380D01*
X103029331Y-89670000D01*
X103076950Y-89717619D01*
X103648379Y-90622380D02*
X103553140Y-90574761D01*
X103505521Y-90479523D01*
X103505521Y-89622380D01*
X104172188Y-90622380D02*
X104076950Y-90574761D01*
X104029331Y-90527142D01*
X103981712Y-90431904D01*
X103981712Y-90146190D01*
X104029331Y-90050952D01*
X104076950Y-90003333D01*
X104172188Y-89955714D01*
X104315045Y-89955714D01*
X104410283Y-90003333D01*
X104457902Y-90050952D01*
X104505521Y-90146190D01*
X104505521Y-90431904D01*
X104457902Y-90527142D01*
X104410283Y-90574761D01*
X104315045Y-90622380D01*
X104172188Y-90622380D01*
X105362664Y-90574761D02*
X105267426Y-90622380D01*
X105076950Y-90622380D01*
X104981712Y-90574761D01*
X104934093Y-90527142D01*
X104886474Y-90431904D01*
X104886474Y-90146190D01*
X104934093Y-90050952D01*
X104981712Y-90003333D01*
X105076950Y-89955714D01*
X105267426Y-89955714D01*
X105362664Y-90003333D01*
X105791236Y-90622380D02*
X105791236Y-89622380D01*
X105886474Y-90241428D02*
X106172188Y-90622380D01*
X106172188Y-89955714D02*
X105791236Y-90336666D01*
X102131904Y-67516000D02*
X102131904Y-66516000D01*
X102370000Y-66516000D01*
X102512857Y-66563620D01*
X102608095Y-66658858D01*
X102655714Y-66754096D01*
X102703333Y-66944572D01*
X102703333Y-67087429D01*
X102655714Y-67277905D01*
X102608095Y-67373143D01*
X102512857Y-67468381D01*
X102370000Y-67516000D01*
X102131904Y-67516000D01*
X103084285Y-66611239D02*
X103131904Y-66563620D01*
X103227142Y-66516000D01*
X103465238Y-66516000D01*
X103560476Y-66563620D01*
X103608095Y-66611239D01*
X103655714Y-66706477D01*
X103655714Y-66801715D01*
X103608095Y-66944572D01*
X103036666Y-67516000D01*
X103655714Y-67516000D01*
X99910283Y-100782380D02*
X99910283Y-99782380D01*
X100291236Y-99782380D01*
X100386474Y-99830000D01*
X100434093Y-99877619D01*
X100481712Y-99972857D01*
X100481712Y-100115714D01*
X100434093Y-100210952D01*
X100386474Y-100258571D01*
X100291236Y-100306190D01*
X99910283Y-100306190D01*
X100910283Y-100782380D02*
X100910283Y-99782380D01*
X100910283Y-100258571D02*
X101481712Y-100258571D01*
X101481712Y-100782380D02*
X101481712Y-99782380D01*
X101957902Y-100782380D02*
X101957902Y-99782380D01*
X102386474Y-99877619D02*
X102434093Y-99830000D01*
X102529331Y-99782380D01*
X102767426Y-99782380D01*
X102862664Y-99830000D01*
X102910283Y-99877619D01*
X102957902Y-99972857D01*
X102957902Y-100068095D01*
X102910283Y-100210952D01*
X102338855Y-100782380D01*
X102957902Y-100782380D01*
X103529331Y-100782380D02*
X103434093Y-100734761D01*
X103386474Y-100687142D01*
X103338855Y-100591904D01*
X103338855Y-100306190D01*
X103386474Y-100210952D01*
X103434093Y-100163333D01*
X103529331Y-100115714D01*
X103672188Y-100115714D01*
X103767426Y-100163333D01*
X103815045Y-100210952D01*
X103862664Y-100306190D01*
X103862664Y-100591904D01*
X103815045Y-100687142D01*
X103767426Y-100734761D01*
X103672188Y-100782380D01*
X103529331Y-100782380D01*
X104719807Y-100115714D02*
X104719807Y-100782380D01*
X104291236Y-100115714D02*
X104291236Y-100639523D01*
X104338855Y-100734761D01*
X104434093Y-100782380D01*
X104576950Y-100782380D01*
X104672188Y-100734761D01*
X104719807Y-100687142D01*
X105053140Y-100115714D02*
X105434093Y-100115714D01*
X105195998Y-99782380D02*
X105195998Y-100639523D01*
X105243617Y-100734761D01*
X105338855Y-100782380D01*
X105434093Y-100782380D01*
X102131904Y-75229980D02*
X102131904Y-74229980D01*
X102370000Y-74229980D01*
X102512857Y-74277600D01*
X102608095Y-74372838D01*
X102655714Y-74468076D01*
X102703333Y-74658552D01*
X102703333Y-74801409D01*
X102655714Y-74991885D01*
X102608095Y-75087123D01*
X102512857Y-75182361D01*
X102370000Y-75229980D01*
X102131904Y-75229980D01*
X103608095Y-74229980D02*
X103131904Y-74229980D01*
X103084285Y-74706171D01*
X103131904Y-74658552D01*
X103227142Y-74610933D01*
X103465238Y-74610933D01*
X103560476Y-74658552D01*
X103608095Y-74706171D01*
X103655714Y-74801409D01*
X103655714Y-75039504D01*
X103608095Y-75134742D01*
X103560476Y-75182361D01*
X103465238Y-75229980D01*
X103227142Y-75229980D01*
X103131904Y-75182361D01*
X103084285Y-75134742D01*
X56411904Y-70259200D02*
X56411904Y-69259200D01*
X56650000Y-69259200D01*
X56792857Y-69306820D01*
X56888095Y-69402058D01*
X56935714Y-69497296D01*
X56983333Y-69687772D01*
X56983333Y-69830629D01*
X56935714Y-70021105D01*
X56888095Y-70116343D01*
X56792857Y-70211581D01*
X56650000Y-70259200D01*
X56411904Y-70259200D01*
X57316666Y-69259200D02*
X57935714Y-69259200D01*
X57602380Y-69640153D01*
X57745238Y-69640153D01*
X57840476Y-69687772D01*
X57888095Y-69735391D01*
X57935714Y-69830629D01*
X57935714Y-70068724D01*
X57888095Y-70163962D01*
X57840476Y-70211581D01*
X57745238Y-70259200D01*
X57459523Y-70259200D01*
X57364285Y-70211581D01*
X57316666Y-70163962D01*
X53309331Y-90574761D02*
X53452188Y-90622380D01*
X53690283Y-90622380D01*
X53785521Y-90574761D01*
X53833140Y-90527142D01*
X53880760Y-90431904D01*
X53880760Y-90336666D01*
X53833140Y-90241428D01*
X53785521Y-90193809D01*
X53690283Y-90146190D01*
X53499807Y-90098571D01*
X53404569Y-90050952D01*
X53356950Y-90003333D01*
X53309331Y-89908095D01*
X53309331Y-89812857D01*
X53356950Y-89717619D01*
X53404569Y-89670000D01*
X53499807Y-89622380D01*
X53737902Y-89622380D01*
X53880760Y-89670000D01*
X54452188Y-90622380D02*
X54356950Y-90574761D01*
X54309331Y-90479523D01*
X54309331Y-89622380D01*
X54975998Y-90622380D02*
X54880760Y-90574761D01*
X54833140Y-90527142D01*
X54785521Y-90431904D01*
X54785521Y-90146190D01*
X54833140Y-90050952D01*
X54880760Y-90003333D01*
X54975998Y-89955714D01*
X55118855Y-89955714D01*
X55214093Y-90003333D01*
X55261712Y-90050952D01*
X55309331Y-90146190D01*
X55309331Y-90431904D01*
X55261712Y-90527142D01*
X55214093Y-90574761D01*
X55118855Y-90622380D01*
X54975998Y-90622380D01*
X55642664Y-89955714D02*
X55833140Y-90622380D01*
X56023617Y-90146190D01*
X56214093Y-90622380D01*
X56404569Y-89955714D01*
X57356950Y-90527142D02*
X57309331Y-90574761D01*
X57166474Y-90622380D01*
X57071236Y-90622380D01*
X56928379Y-90574761D01*
X56833140Y-90479523D01*
X56785521Y-90384285D01*
X56737902Y-90193809D01*
X56737902Y-90050952D01*
X56785521Y-89860476D01*
X56833140Y-89765238D01*
X56928379Y-89670000D01*
X57071236Y-89622380D01*
X57166474Y-89622380D01*
X57309331Y-89670000D01*
X57356950Y-89717619D01*
X57928379Y-90622380D02*
X57833140Y-90574761D01*
X57785521Y-90479523D01*
X57785521Y-89622380D01*
X58452188Y-90622380D02*
X58356950Y-90574761D01*
X58309331Y-90527142D01*
X58261712Y-90431904D01*
X58261712Y-90146190D01*
X58309331Y-90050952D01*
X58356950Y-90003333D01*
X58452188Y-89955714D01*
X58595045Y-89955714D01*
X58690283Y-90003333D01*
X58737902Y-90050952D01*
X58785521Y-90146190D01*
X58785521Y-90431904D01*
X58737902Y-90527142D01*
X58690283Y-90574761D01*
X58595045Y-90622380D01*
X58452188Y-90622380D01*
X59642664Y-90574761D02*
X59547426Y-90622380D01*
X59356950Y-90622380D01*
X59261712Y-90574761D01*
X59214093Y-90527142D01*
X59166474Y-90431904D01*
X59166474Y-90146190D01*
X59214093Y-90050952D01*
X59261712Y-90003333D01*
X59356950Y-89955714D01*
X59547426Y-89955714D01*
X59642664Y-90003333D01*
X60071236Y-90622380D02*
X60071236Y-89622380D01*
X60166474Y-90241428D02*
X60452188Y-90622380D01*
X60452188Y-89955714D02*
X60071236Y-90336666D01*
X56411904Y-65113160D02*
X56411904Y-64113160D01*
X56650000Y-64113160D01*
X56792857Y-64160780D01*
X56888095Y-64256018D01*
X56935714Y-64351256D01*
X56983333Y-64541732D01*
X56983333Y-64684589D01*
X56935714Y-64875065D01*
X56888095Y-64970303D01*
X56792857Y-65065541D01*
X56650000Y-65113160D01*
X56411904Y-65113160D01*
X57935714Y-65113160D02*
X57364285Y-65113160D01*
X57650000Y-65113160D02*
X57650000Y-64113160D01*
X57554761Y-64256018D01*
X57459523Y-64351256D01*
X57364285Y-64398875D01*
X56411904Y-75229980D02*
X56411904Y-74229980D01*
X56650000Y-74229980D01*
X56792857Y-74277600D01*
X56888095Y-74372838D01*
X56935714Y-74468076D01*
X56983333Y-74658552D01*
X56983333Y-74801409D01*
X56935714Y-74991885D01*
X56888095Y-75087123D01*
X56792857Y-75182361D01*
X56650000Y-75229980D01*
X56411904Y-75229980D01*
X57888095Y-74229980D02*
X57411904Y-74229980D01*
X57364285Y-74706171D01*
X57411904Y-74658552D01*
X57507142Y-74610933D01*
X57745238Y-74610933D01*
X57840476Y-74658552D01*
X57888095Y-74706171D01*
X57935714Y-74801409D01*
X57935714Y-75039504D01*
X57888095Y-75134742D01*
X57840476Y-75182361D01*
X57745238Y-75229980D01*
X57507142Y-75229980D01*
X57411904Y-75182361D01*
X57364285Y-75134742D01*
X54499807Y-92638571D02*
X54166474Y-92638571D01*
X54166474Y-93162380D02*
X54166474Y-92162380D01*
X54642664Y-92162380D01*
X55595045Y-93162380D02*
X55261712Y-92686190D01*
X55023617Y-93162380D02*
X55023617Y-92162380D01*
X55404569Y-92162380D01*
X55499807Y-92210000D01*
X55547426Y-92257619D01*
X55595045Y-92352857D01*
X55595045Y-92495714D01*
X55547426Y-92590952D01*
X55499807Y-92638571D01*
X55404569Y-92686190D01*
X55023617Y-92686190D01*
X56023617Y-93162380D02*
X56023617Y-92162380D01*
X56356950Y-92876666D01*
X56690283Y-92162380D01*
X56690283Y-93162380D01*
X57499807Y-92638571D02*
X57642664Y-92686190D01*
X57690283Y-92733809D01*
X57737902Y-92829047D01*
X57737902Y-92971904D01*
X57690283Y-93067142D01*
X57642664Y-93114761D01*
X57547426Y-93162380D01*
X57166474Y-93162380D01*
X57166474Y-92162380D01*
X57499807Y-92162380D01*
X57595045Y-92210000D01*
X57642664Y-92257619D01*
X57690283Y-92352857D01*
X57690283Y-92448095D01*
X57642664Y-92543333D01*
X57595045Y-92590952D01*
X57499807Y-92638571D01*
X57166474Y-92638571D01*
X58166474Y-92162380D02*
X58166474Y-92971904D01*
X58214093Y-93067142D01*
X58261712Y-93114761D01*
X58356950Y-93162380D01*
X58547426Y-93162380D01*
X58642664Y-93114761D01*
X58690283Y-93067142D01*
X58737902Y-92971904D01*
X58737902Y-92162380D01*
X59547426Y-92638571D02*
X59214093Y-92638571D01*
X59214093Y-93162380D02*
X59214093Y-92162380D01*
X59690283Y-92162380D01*
X56364285Y-83002380D02*
X56030952Y-82526190D01*
X55792857Y-83002380D02*
X55792857Y-82002380D01*
X56173809Y-82002380D01*
X56269047Y-82050000D01*
X56316666Y-82097619D01*
X56364285Y-82192857D01*
X56364285Y-82335714D01*
X56316666Y-82430952D01*
X56269047Y-82478571D01*
X56173809Y-82526190D01*
X55792857Y-82526190D01*
X57507142Y-81954761D02*
X56650000Y-83240476D01*
X57745238Y-82002380D02*
X57983333Y-83002380D01*
X58173809Y-82288095D01*
X58364285Y-83002380D01*
X58602380Y-82002380D01*
X54190283Y-98242380D02*
X54190283Y-97242380D01*
X54571236Y-97242380D01*
X54666474Y-97290000D01*
X54714093Y-97337619D01*
X54761712Y-97432857D01*
X54761712Y-97575714D01*
X54714093Y-97670952D01*
X54666474Y-97718571D01*
X54571236Y-97766190D01*
X54190283Y-97766190D01*
X55190283Y-98242380D02*
X55190283Y-97242380D01*
X55190283Y-97718571D02*
X55761712Y-97718571D01*
X55761712Y-98242380D02*
X55761712Y-97242380D01*
X56237902Y-98242380D02*
X56237902Y-97242380D01*
X57237902Y-98242380D02*
X56666474Y-98242380D01*
X56952188Y-98242380D02*
X56952188Y-97242380D01*
X56856950Y-97385238D01*
X56761712Y-97480476D01*
X56666474Y-97528095D01*
X57809331Y-98242380D02*
X57714093Y-98194761D01*
X57666474Y-98147142D01*
X57618855Y-98051904D01*
X57618855Y-97766190D01*
X57666474Y-97670952D01*
X57714093Y-97623333D01*
X57809331Y-97575714D01*
X57952188Y-97575714D01*
X58047426Y-97623333D01*
X58095045Y-97670952D01*
X58142664Y-97766190D01*
X58142664Y-98051904D01*
X58095045Y-98147142D01*
X58047426Y-98194761D01*
X57952188Y-98242380D01*
X57809331Y-98242380D01*
X58999807Y-97575714D02*
X58999807Y-98242380D01*
X58571236Y-97575714D02*
X58571236Y-98099523D01*
X58618855Y-98194761D01*
X58714093Y-98242380D01*
X58856950Y-98242380D01*
X58952188Y-98194761D01*
X58999807Y-98147142D01*
X59333140Y-97575714D02*
X59714093Y-97575714D01*
X59475998Y-97242380D02*
X59475998Y-98099523D01*
X59523617Y-98194761D01*
X59618855Y-98242380D01*
X59714093Y-98242380D01*
X56411904Y-72750940D02*
X56411904Y-71750940D01*
X56650000Y-71750940D01*
X56792857Y-71798560D01*
X56888095Y-71893798D01*
X56935714Y-71989036D01*
X56983333Y-72179512D01*
X56983333Y-72322369D01*
X56935714Y-72512845D01*
X56888095Y-72608083D01*
X56792857Y-72703321D01*
X56650000Y-72750940D01*
X56411904Y-72750940D01*
X57840476Y-72084274D02*
X57840476Y-72750940D01*
X57602380Y-71703321D02*
X57364285Y-72417607D01*
X57983333Y-72417607D01*
X56411904Y-67516000D02*
X56411904Y-66516000D01*
X56650000Y-66516000D01*
X56792857Y-66563620D01*
X56888095Y-66658858D01*
X56935714Y-66754096D01*
X56983333Y-66944572D01*
X56983333Y-67087429D01*
X56935714Y-67277905D01*
X56888095Y-67373143D01*
X56792857Y-67468381D01*
X56650000Y-67516000D01*
X56411904Y-67516000D01*
X57364285Y-66611239D02*
X57411904Y-66563620D01*
X57507142Y-66516000D01*
X57745238Y-66516000D01*
X57840476Y-66563620D01*
X57888095Y-66611239D01*
X57935714Y-66706477D01*
X57935714Y-66801715D01*
X57888095Y-66944572D01*
X57316666Y-67516000D01*
X57935714Y-67516000D01*
X56411904Y-80462380D02*
X56411904Y-79462380D01*
X56650000Y-79462380D01*
X56792857Y-79510000D01*
X56888095Y-79605238D01*
X56935714Y-79700476D01*
X56983333Y-79890952D01*
X56983333Y-80033809D01*
X56935714Y-80224285D01*
X56888095Y-80319523D01*
X56792857Y-80414761D01*
X56650000Y-80462380D01*
X56411904Y-80462380D01*
X57316666Y-79462380D02*
X57983333Y-79462380D01*
X57554761Y-80462380D01*
X54190283Y-100782380D02*
X54190283Y-99782380D01*
X54571236Y-99782380D01*
X54666474Y-99830000D01*
X54714093Y-99877619D01*
X54761712Y-99972857D01*
X54761712Y-100115714D01*
X54714093Y-100210952D01*
X54666474Y-100258571D01*
X54571236Y-100306190D01*
X54190283Y-100306190D01*
X55190283Y-100782380D02*
X55190283Y-99782380D01*
X55190283Y-100258571D02*
X55761712Y-100258571D01*
X55761712Y-100782380D02*
X55761712Y-99782380D01*
X56237902Y-100782380D02*
X56237902Y-99782380D01*
X56666474Y-99877619D02*
X56714093Y-99830000D01*
X56809331Y-99782380D01*
X57047426Y-99782380D01*
X57142664Y-99830000D01*
X57190283Y-99877619D01*
X57237902Y-99972857D01*
X57237902Y-100068095D01*
X57190283Y-100210952D01*
X56618855Y-100782380D01*
X57237902Y-100782380D01*
X57809331Y-100782380D02*
X57714093Y-100734761D01*
X57666474Y-100687142D01*
X57618855Y-100591904D01*
X57618855Y-100306190D01*
X57666474Y-100210952D01*
X57714093Y-100163333D01*
X57809331Y-100115714D01*
X57952188Y-100115714D01*
X58047426Y-100163333D01*
X58095045Y-100210952D01*
X58142664Y-100306190D01*
X58142664Y-100591904D01*
X58095045Y-100687142D01*
X58047426Y-100734761D01*
X57952188Y-100782380D01*
X57809331Y-100782380D01*
X58999807Y-100115714D02*
X58999807Y-100782380D01*
X58571236Y-100115714D02*
X58571236Y-100639523D01*
X58618855Y-100734761D01*
X58714093Y-100782380D01*
X58856950Y-100782380D01*
X58952188Y-100734761D01*
X58999807Y-100687142D01*
X59333140Y-100115714D02*
X59714093Y-100115714D01*
X59475998Y-99782380D02*
X59475998Y-100639523D01*
X59523617Y-100734761D01*
X59618855Y-100782380D01*
X59714093Y-100782380D01*
X56388095Y-56500000D02*
X56292857Y-56452380D01*
X56150000Y-56452380D01*
X56007142Y-56500000D01*
X55911904Y-56595238D01*
X55864285Y-56690476D01*
X55816666Y-56880952D01*
X55816666Y-57023809D01*
X55864285Y-57214285D01*
X55911904Y-57309523D01*
X56007142Y-57404761D01*
X56150000Y-57452380D01*
X56245238Y-57452380D01*
X56388095Y-57404761D01*
X56435714Y-57357142D01*
X56435714Y-57023809D01*
X56245238Y-57023809D01*
X56864285Y-57452380D02*
X56864285Y-56452380D01*
X57435714Y-57452380D01*
X57435714Y-56452380D01*
X57911904Y-57452380D02*
X57911904Y-56452380D01*
X58150000Y-56452380D01*
X58292857Y-56500000D01*
X58388095Y-56595238D01*
X58435714Y-56690476D01*
X58483333Y-56880952D01*
X58483333Y-57023809D01*
X58435714Y-57214285D01*
X58388095Y-57309523D01*
X58292857Y-57404761D01*
X58150000Y-57452380D01*
X57911904Y-57452380D01*
X55856950Y-95702380D02*
X55856950Y-94702380D01*
X56904569Y-95702380D02*
X56571236Y-95226190D01*
X56333140Y-95702380D02*
X56333140Y-94702380D01*
X56714093Y-94702380D01*
X56809331Y-94750000D01*
X56856950Y-94797619D01*
X56904569Y-94892857D01*
X56904569Y-95035714D01*
X56856950Y-95130952D01*
X56809331Y-95178571D01*
X56714093Y-95226190D01*
X56333140Y-95226190D01*
X57999807Y-95797619D02*
X57904569Y-95750000D01*
X57809331Y-95654761D01*
X57666474Y-95511904D01*
X57571236Y-95464285D01*
X57475998Y-95464285D01*
X57523617Y-95702380D02*
X57428379Y-95654761D01*
X57333140Y-95559523D01*
X57285521Y-95369047D01*
X57285521Y-95035714D01*
X57333140Y-94845238D01*
X57428379Y-94750000D01*
X57523617Y-94702380D01*
X57714093Y-94702380D01*
X57809331Y-94750000D01*
X57904569Y-94845238D01*
X57952188Y-95035714D01*
X57952188Y-95369047D01*
X57904569Y-95559523D01*
X57809331Y-95654761D01*
X57714093Y-95702380D01*
X57523617Y-95702380D01*
X54102380Y-87558571D02*
X53769047Y-87558571D01*
X53769047Y-88082380D02*
X53769047Y-87082380D01*
X54245238Y-87082380D01*
X55054761Y-88082380D02*
X55054761Y-87558571D01*
X55007142Y-87463333D01*
X54911904Y-87415714D01*
X54721428Y-87415714D01*
X54626190Y-87463333D01*
X55054761Y-88034761D02*
X54959523Y-88082380D01*
X54721428Y-88082380D01*
X54626190Y-88034761D01*
X54578571Y-87939523D01*
X54578571Y-87844285D01*
X54626190Y-87749047D01*
X54721428Y-87701428D01*
X54959523Y-87701428D01*
X55054761Y-87653809D01*
X55483333Y-88034761D02*
X55578571Y-88082380D01*
X55769047Y-88082380D01*
X55864285Y-88034761D01*
X55911904Y-87939523D01*
X55911904Y-87891904D01*
X55864285Y-87796666D01*
X55769047Y-87749047D01*
X55626190Y-87749047D01*
X55530952Y-87701428D01*
X55483333Y-87606190D01*
X55483333Y-87558571D01*
X55530952Y-87463333D01*
X55626190Y-87415714D01*
X55769047Y-87415714D01*
X55864285Y-87463333D01*
X56197619Y-87415714D02*
X56578571Y-87415714D01*
X56340476Y-87082380D02*
X56340476Y-87939523D01*
X56388095Y-88034761D01*
X56483333Y-88082380D01*
X56578571Y-88082380D01*
X57483333Y-87987142D02*
X57435714Y-88034761D01*
X57292857Y-88082380D01*
X57197619Y-88082380D01*
X57054761Y-88034761D01*
X56959523Y-87939523D01*
X56911904Y-87844285D01*
X56864285Y-87653809D01*
X56864285Y-87510952D01*
X56911904Y-87320476D01*
X56959523Y-87225238D01*
X57054761Y-87130000D01*
X57197619Y-87082380D01*
X57292857Y-87082380D01*
X57435714Y-87130000D01*
X57483333Y-87177619D01*
X58054761Y-88082380D02*
X57959523Y-88034761D01*
X57911904Y-87939523D01*
X57911904Y-87082380D01*
X58578571Y-88082380D02*
X58483333Y-88034761D01*
X58435714Y-87987142D01*
X58388095Y-87891904D01*
X58388095Y-87606190D01*
X58435714Y-87510952D01*
X58483333Y-87463333D01*
X58578571Y-87415714D01*
X58721428Y-87415714D01*
X58816666Y-87463333D01*
X58864285Y-87510952D01*
X58911904Y-87606190D01*
X58911904Y-87891904D01*
X58864285Y-87987142D01*
X58816666Y-88034761D01*
X58721428Y-88082380D01*
X58578571Y-88082380D01*
X59769047Y-88034761D02*
X59673809Y-88082380D01*
X59483333Y-88082380D01*
X59388095Y-88034761D01*
X59340476Y-87987142D01*
X59292857Y-87891904D01*
X59292857Y-87606190D01*
X59340476Y-87510952D01*
X59388095Y-87463333D01*
X59483333Y-87415714D01*
X59673809Y-87415714D01*
X59769047Y-87463333D01*
X60197619Y-88082380D02*
X60197619Y-87082380D01*
X60292857Y-87701428D02*
X60578571Y-88082380D01*
X60578571Y-87415714D02*
X60197619Y-87796666D01*
X56554761Y-85447142D02*
X56507142Y-85494761D01*
X56364285Y-85542380D01*
X56269047Y-85542380D01*
X56126190Y-85494761D01*
X56030952Y-85399523D01*
X55983333Y-85304285D01*
X55935714Y-85113809D01*
X55935714Y-84970952D01*
X55983333Y-84780476D01*
X56030952Y-84685238D01*
X56126190Y-84590000D01*
X56269047Y-84542380D01*
X56364285Y-84542380D01*
X56507142Y-84590000D01*
X56554761Y-84637619D01*
X57459523Y-85542380D02*
X56983333Y-85542380D01*
X56983333Y-84542380D01*
X57792857Y-85542380D02*
X57792857Y-84542380D01*
X58364285Y-85542380D02*
X57935714Y-84970952D01*
X58364285Y-84542380D02*
X57792857Y-85113809D01*
X55816666Y-59078880D02*
X56150000Y-60078880D01*
X56483333Y-59078880D01*
X57388095Y-59983642D02*
X57340476Y-60031261D01*
X57197619Y-60078880D01*
X57102380Y-60078880D01*
X56959523Y-60031261D01*
X56864285Y-59936023D01*
X56816666Y-59840785D01*
X56769047Y-59650309D01*
X56769047Y-59507452D01*
X56816666Y-59316976D01*
X56864285Y-59221738D01*
X56959523Y-59126500D01*
X57102380Y-59078880D01*
X57197619Y-59078880D01*
X57340476Y-59126500D01*
X57388095Y-59174119D01*
X58388095Y-59983642D02*
X58340476Y-60031261D01*
X58197619Y-60078880D01*
X58102380Y-60078880D01*
X57959523Y-60031261D01*
X57864285Y-59936023D01*
X57816666Y-59840785D01*
X57769047Y-59650309D01*
X57769047Y-59507452D01*
X57816666Y-59316976D01*
X57864285Y-59221738D01*
X57959523Y-59126500D01*
X58102380Y-59078880D01*
X58197619Y-59078880D01*
X58340476Y-59126500D01*
X58388095Y-59174119D01*
X56411904Y-77935080D02*
X56411904Y-76935080D01*
X56650000Y-76935080D01*
X56792857Y-76982700D01*
X56888095Y-77077938D01*
X56935714Y-77173176D01*
X56983333Y-77363652D01*
X56983333Y-77506509D01*
X56935714Y-77696985D01*
X56888095Y-77792223D01*
X56792857Y-77887461D01*
X56650000Y-77935080D01*
X56411904Y-77935080D01*
X57840476Y-76935080D02*
X57650000Y-76935080D01*
X57554761Y-76982700D01*
X57507142Y-77030319D01*
X57411904Y-77173176D01*
X57364285Y-77363652D01*
X57364285Y-77744604D01*
X57411904Y-77839842D01*
X57459523Y-77887461D01*
X57554761Y-77935080D01*
X57745238Y-77935080D01*
X57840476Y-77887461D01*
X57888095Y-77839842D01*
X57935714Y-77744604D01*
X57935714Y-77506509D01*
X57888095Y-77411271D01*
X57840476Y-77363652D01*
X57745238Y-77316033D01*
X57554761Y-77316033D01*
X57459523Y-77363652D01*
X57411904Y-77411271D01*
X57364285Y-77506509D01*
X56411904Y-62481720D02*
X56411904Y-61481720D01*
X56650000Y-61481720D01*
X56792857Y-61529340D01*
X56888095Y-61624578D01*
X56935714Y-61719816D01*
X56983333Y-61910292D01*
X56983333Y-62053149D01*
X56935714Y-62243625D01*
X56888095Y-62338863D01*
X56792857Y-62434101D01*
X56650000Y-62481720D01*
X56411904Y-62481720D01*
X57602380Y-61481720D02*
X57697619Y-61481720D01*
X57792857Y-61529340D01*
X57840476Y-61576959D01*
X57888095Y-61672197D01*
X57935714Y-61862673D01*
X57935714Y-62100768D01*
X57888095Y-62291244D01*
X57840476Y-62386482D01*
X57792857Y-62434101D01*
X57697619Y-62481720D01*
X57602380Y-62481720D01*
X57507142Y-62434101D01*
X57459523Y-62386482D01*
X57411904Y-62291244D01*
X57364285Y-62100768D01*
X57364285Y-61862673D01*
X57411904Y-61672197D01*
X57459523Y-61576959D01*
X57507142Y-61529340D01*
X57602380Y-61481720D01*
X56166474Y-103322380D02*
X55833140Y-102846190D01*
X55595045Y-103322380D02*
X55595045Y-102322380D01*
X55975998Y-102322380D01*
X56071236Y-102370000D01*
X56118855Y-102417619D01*
X56166474Y-102512857D01*
X56166474Y-102655714D01*
X56118855Y-102750952D01*
X56071236Y-102798571D01*
X55975998Y-102846190D01*
X55595045Y-102846190D01*
X56595045Y-103322380D02*
X56595045Y-102322380D01*
X57166474Y-103322380D01*
X57166474Y-102322380D01*
X58166474Y-102370000D02*
X58071236Y-102322380D01*
X57928379Y-102322380D01*
X57785521Y-102370000D01*
X57690283Y-102465238D01*
X57642664Y-102560476D01*
X57595045Y-102750952D01*
X57595045Y-102893809D01*
X57642664Y-103084285D01*
X57690283Y-103179523D01*
X57785521Y-103274761D01*
X57928379Y-103322380D01*
X58023617Y-103322380D01*
X58166474Y-103274761D01*
X58214093Y-103227142D01*
X58214093Y-102893809D01*
X58023617Y-102893809D01*
X226615714Y-69973486D02*
X227091904Y-69973486D01*
X226520476Y-70259200D02*
X226853809Y-69259200D01*
X227187142Y-70259200D01*
X227425238Y-69259200D02*
X228044285Y-69259200D01*
X227710952Y-69640153D01*
X227853809Y-69640153D01*
X227949047Y-69687772D01*
X227996666Y-69735391D01*
X228044285Y-69830629D01*
X228044285Y-70068724D01*
X227996666Y-70163962D01*
X227949047Y-70211581D01*
X227853809Y-70259200D01*
X227568095Y-70259200D01*
X227472857Y-70211581D01*
X227425238Y-70163962D01*
X225870283Y-90336666D02*
X226346474Y-90336666D01*
X225775045Y-90622380D02*
X226108379Y-89622380D01*
X226441712Y-90622380D01*
X227298855Y-90622380D02*
X226727426Y-90622380D01*
X227013140Y-90622380D02*
X227013140Y-89622380D01*
X226917902Y-89765238D01*
X226822664Y-89860476D01*
X226727426Y-89908095D01*
X228251236Y-90622380D02*
X227679807Y-90622380D01*
X227965521Y-90622380D02*
X227965521Y-89622380D01*
X227870283Y-89765238D01*
X227775045Y-89860476D01*
X227679807Y-89908095D01*
X226615714Y-64827446D02*
X227091904Y-64827446D01*
X226520476Y-65113160D02*
X226853809Y-64113160D01*
X227187142Y-65113160D01*
X228044285Y-65113160D02*
X227472857Y-65113160D01*
X227758571Y-65113160D02*
X227758571Y-64113160D01*
X227663333Y-64256018D01*
X227568095Y-64351256D01*
X227472857Y-64398875D01*
X226615714Y-74944266D02*
X227091904Y-74944266D01*
X226520476Y-75229980D02*
X226853809Y-74229980D01*
X227187142Y-75229980D01*
X227996666Y-74229980D02*
X227520476Y-74229980D01*
X227472857Y-74706171D01*
X227520476Y-74658552D01*
X227615714Y-74610933D01*
X227853809Y-74610933D01*
X227949047Y-74658552D01*
X227996666Y-74706171D01*
X228044285Y-74801409D01*
X228044285Y-75039504D01*
X227996666Y-75134742D01*
X227949047Y-75182361D01*
X227853809Y-75229980D01*
X227615714Y-75229980D01*
X227520476Y-75182361D01*
X227472857Y-75134742D01*
X225870283Y-92876666D02*
X226346474Y-92876666D01*
X225775045Y-93162380D02*
X226108379Y-92162380D01*
X226441712Y-93162380D01*
X227298855Y-93162380D02*
X226727426Y-93162380D01*
X227013140Y-93162380D02*
X227013140Y-92162380D01*
X226917902Y-92305238D01*
X226822664Y-92400476D01*
X226727426Y-92448095D01*
X227679807Y-92257619D02*
X227727426Y-92210000D01*
X227822664Y-92162380D01*
X228060760Y-92162380D01*
X228155998Y-92210000D01*
X228203617Y-92257619D01*
X228251236Y-92352857D01*
X228251236Y-92448095D01*
X228203617Y-92590952D01*
X227632188Y-93162380D01*
X228251236Y-93162380D01*
X226615714Y-82716666D02*
X227091904Y-82716666D01*
X226520476Y-83002380D02*
X226853809Y-82002380D01*
X227187142Y-83002380D01*
X227663333Y-82430952D02*
X227568095Y-82383333D01*
X227520476Y-82335714D01*
X227472857Y-82240476D01*
X227472857Y-82192857D01*
X227520476Y-82097619D01*
X227568095Y-82050000D01*
X227663333Y-82002380D01*
X227853809Y-82002380D01*
X227949047Y-82050000D01*
X227996666Y-82097619D01*
X228044285Y-82192857D01*
X228044285Y-82240476D01*
X227996666Y-82335714D01*
X227949047Y-82383333D01*
X227853809Y-82430952D01*
X227663333Y-82430952D01*
X227568095Y-82478571D01*
X227520476Y-82526190D01*
X227472857Y-82621428D01*
X227472857Y-82811904D01*
X227520476Y-82907142D01*
X227568095Y-82954761D01*
X227663333Y-83002380D01*
X227853809Y-83002380D01*
X227949047Y-82954761D01*
X227996666Y-82907142D01*
X228044285Y-82811904D01*
X228044285Y-82621428D01*
X227996666Y-82526190D01*
X227949047Y-82478571D01*
X227853809Y-82430952D01*
X225870283Y-97956666D02*
X226346474Y-97956666D01*
X225775045Y-98242380D02*
X226108379Y-97242380D01*
X226441712Y-98242380D01*
X227298855Y-98242380D02*
X226727426Y-98242380D01*
X227013140Y-98242380D02*
X227013140Y-97242380D01*
X226917902Y-97385238D01*
X226822664Y-97480476D01*
X226727426Y-97528095D01*
X228155998Y-97575714D02*
X228155998Y-98242380D01*
X227917902Y-97194761D02*
X227679807Y-97909047D01*
X228298855Y-97909047D01*
X226615714Y-72465226D02*
X227091904Y-72465226D01*
X226520476Y-72750940D02*
X226853809Y-71750940D01*
X227187142Y-72750940D01*
X227949047Y-72084274D02*
X227949047Y-72750940D01*
X227710952Y-71703321D02*
X227472857Y-72417607D01*
X228091904Y-72417607D01*
X226615714Y-67230286D02*
X227091904Y-67230286D01*
X226520476Y-67516000D02*
X226853809Y-66516000D01*
X227187142Y-67516000D01*
X227472857Y-66611239D02*
X227520476Y-66563620D01*
X227615714Y-66516000D01*
X227853809Y-66516000D01*
X227949047Y-66563620D01*
X227996666Y-66611239D01*
X228044285Y-66706477D01*
X228044285Y-66801715D01*
X227996666Y-66944572D01*
X227425238Y-67516000D01*
X228044285Y-67516000D01*
X226615714Y-80176666D02*
X227091904Y-80176666D01*
X226520476Y-80462380D02*
X226853809Y-79462380D01*
X227187142Y-80462380D01*
X227425238Y-79462380D02*
X228091904Y-79462380D01*
X227663333Y-80462380D01*
X225298855Y-105862380D02*
X224965521Y-105386190D01*
X224727426Y-105862380D02*
X224727426Y-104862380D01*
X225108379Y-104862380D01*
X225203617Y-104910000D01*
X225251236Y-104957619D01*
X225298855Y-105052857D01*
X225298855Y-105195714D01*
X225251236Y-105290952D01*
X225203617Y-105338571D01*
X225108379Y-105386190D01*
X224727426Y-105386190D01*
X225917902Y-104862380D02*
X226108379Y-104862380D01*
X226203617Y-104910000D01*
X226298855Y-105005238D01*
X226346474Y-105195714D01*
X226346474Y-105529047D01*
X226298855Y-105719523D01*
X226203617Y-105814761D01*
X226108379Y-105862380D01*
X225917902Y-105862380D01*
X225822664Y-105814761D01*
X225727426Y-105719523D01*
X225679807Y-105529047D01*
X225679807Y-105195714D01*
X225727426Y-105005238D01*
X225822664Y-104910000D01*
X225917902Y-104862380D01*
X226775045Y-105862380D02*
X226775045Y-104862380D01*
X227108379Y-105576666D01*
X227441712Y-104862380D01*
X227441712Y-105862380D01*
X228489331Y-105767142D02*
X228441712Y-105814761D01*
X228298855Y-105862380D01*
X228203617Y-105862380D01*
X228060760Y-105814761D01*
X227965521Y-105719523D01*
X227917902Y-105624285D01*
X227870283Y-105433809D01*
X227870283Y-105290952D01*
X227917902Y-105100476D01*
X227965521Y-105005238D01*
X228060760Y-104910000D01*
X228203617Y-104862380D01*
X228298855Y-104862380D01*
X228441712Y-104910000D01*
X228489331Y-104957619D01*
X228870283Y-105814761D02*
X229013140Y-105862380D01*
X229251236Y-105862380D01*
X229346474Y-105814761D01*
X229394093Y-105767142D01*
X229441712Y-105671904D01*
X229441712Y-105576666D01*
X229394093Y-105481428D01*
X229346474Y-105433809D01*
X229251236Y-105386190D01*
X229060760Y-105338571D01*
X228965521Y-105290952D01*
X228917902Y-105243333D01*
X228870283Y-105148095D01*
X228870283Y-105052857D01*
X228917902Y-104957619D01*
X228965521Y-104910000D01*
X229060760Y-104862380D01*
X229298855Y-104862380D01*
X229441712Y-104910000D01*
X225870283Y-100496666D02*
X226346474Y-100496666D01*
X225775045Y-100782380D02*
X226108379Y-99782380D01*
X226441712Y-100782380D01*
X227298855Y-100782380D02*
X226727426Y-100782380D01*
X227013140Y-100782380D02*
X227013140Y-99782380D01*
X226917902Y-99925238D01*
X226822664Y-100020476D01*
X226727426Y-100068095D01*
X228203617Y-99782380D02*
X227727426Y-99782380D01*
X227679807Y-100258571D01*
X227727426Y-100210952D01*
X227822664Y-100163333D01*
X228060760Y-100163333D01*
X228155998Y-100210952D01*
X228203617Y-100258571D01*
X228251236Y-100353809D01*
X228251236Y-100591904D01*
X228203617Y-100687142D01*
X228155998Y-100734761D01*
X228060760Y-100782380D01*
X227822664Y-100782380D01*
X227727426Y-100734761D01*
X227679807Y-100687142D01*
X226568095Y-56500000D02*
X226472857Y-56452380D01*
X226330000Y-56452380D01*
X226187142Y-56500000D01*
X226091904Y-56595238D01*
X226044285Y-56690476D01*
X225996666Y-56880952D01*
X225996666Y-57023809D01*
X226044285Y-57214285D01*
X226091904Y-57309523D01*
X226187142Y-57404761D01*
X226330000Y-57452380D01*
X226425238Y-57452380D01*
X226568095Y-57404761D01*
X226615714Y-57357142D01*
X226615714Y-57023809D01*
X226425238Y-57023809D01*
X227044285Y-57452380D02*
X227044285Y-56452380D01*
X227615714Y-57452380D01*
X227615714Y-56452380D01*
X228091904Y-57452380D02*
X228091904Y-56452380D01*
X228330000Y-56452380D01*
X228472857Y-56500000D01*
X228568095Y-56595238D01*
X228615714Y-56690476D01*
X228663333Y-56880952D01*
X228663333Y-57023809D01*
X228615714Y-57214285D01*
X228568095Y-57309523D01*
X228472857Y-57404761D01*
X228330000Y-57452380D01*
X228091904Y-57452380D01*
X225870283Y-95416666D02*
X226346474Y-95416666D01*
X225775045Y-95702380D02*
X226108379Y-94702380D01*
X226441712Y-95702380D01*
X227298855Y-95702380D02*
X226727426Y-95702380D01*
X227013140Y-95702380D02*
X227013140Y-94702380D01*
X226917902Y-94845238D01*
X226822664Y-94940476D01*
X226727426Y-94988095D01*
X227632188Y-94702380D02*
X228251236Y-94702380D01*
X227917902Y-95083333D01*
X228060760Y-95083333D01*
X228155998Y-95130952D01*
X228203617Y-95178571D01*
X228251236Y-95273809D01*
X228251236Y-95511904D01*
X228203617Y-95607142D01*
X228155998Y-95654761D01*
X228060760Y-95702380D01*
X227775045Y-95702380D01*
X227679807Y-95654761D01*
X227632188Y-95607142D01*
X226139523Y-87796666D02*
X226615714Y-87796666D01*
X226044285Y-88082380D02*
X226377619Y-87082380D01*
X226710952Y-88082380D01*
X227568095Y-88082380D02*
X226996666Y-88082380D01*
X227282380Y-88082380D02*
X227282380Y-87082380D01*
X227187142Y-87225238D01*
X227091904Y-87320476D01*
X226996666Y-87368095D01*
X228187142Y-87082380D02*
X228282380Y-87082380D01*
X228377619Y-87130000D01*
X228425238Y-87177619D01*
X228472857Y-87272857D01*
X228520476Y-87463333D01*
X228520476Y-87701428D01*
X228472857Y-87891904D01*
X228425238Y-87987142D01*
X228377619Y-88034761D01*
X228282380Y-88082380D01*
X228187142Y-88082380D01*
X228091904Y-88034761D01*
X228044285Y-87987142D01*
X227996666Y-87891904D01*
X227949047Y-87701428D01*
X227949047Y-87463333D01*
X227996666Y-87272857D01*
X228044285Y-87177619D01*
X228091904Y-87130000D01*
X228187142Y-87082380D01*
X226615714Y-85256666D02*
X227091904Y-85256666D01*
X226520476Y-85542380D02*
X226853809Y-84542380D01*
X227187142Y-85542380D01*
X227568095Y-85542380D02*
X227758571Y-85542380D01*
X227853809Y-85494761D01*
X227901428Y-85447142D01*
X227996666Y-85304285D01*
X228044285Y-85113809D01*
X228044285Y-84732857D01*
X227996666Y-84637619D01*
X227949047Y-84590000D01*
X227853809Y-84542380D01*
X227663333Y-84542380D01*
X227568095Y-84590000D01*
X227520476Y-84637619D01*
X227472857Y-84732857D01*
X227472857Y-84970952D01*
X227520476Y-85066190D01*
X227568095Y-85113809D01*
X227663333Y-85161428D01*
X227853809Y-85161428D01*
X227949047Y-85113809D01*
X227996666Y-85066190D01*
X228044285Y-84970952D01*
X225877619Y-60078880D02*
X225544285Y-59602690D01*
X225306190Y-60078880D02*
X225306190Y-59078880D01*
X225687142Y-59078880D01*
X225782380Y-59126500D01*
X225830000Y-59174119D01*
X225877619Y-59269357D01*
X225877619Y-59412214D01*
X225830000Y-59507452D01*
X225782380Y-59555071D01*
X225687142Y-59602690D01*
X225306190Y-59602690D01*
X226306190Y-59555071D02*
X226639523Y-59555071D01*
X226782380Y-60078880D02*
X226306190Y-60078880D01*
X226306190Y-59078880D01*
X226782380Y-59078880D01*
X227163333Y-60031261D02*
X227306190Y-60078880D01*
X227544285Y-60078880D01*
X227639523Y-60031261D01*
X227687142Y-59983642D01*
X227734761Y-59888404D01*
X227734761Y-59793166D01*
X227687142Y-59697928D01*
X227639523Y-59650309D01*
X227544285Y-59602690D01*
X227353809Y-59555071D01*
X227258571Y-59507452D01*
X227210952Y-59459833D01*
X227163333Y-59364595D01*
X227163333Y-59269357D01*
X227210952Y-59174119D01*
X227258571Y-59126500D01*
X227353809Y-59078880D01*
X227591904Y-59078880D01*
X227734761Y-59126500D01*
X228163333Y-59555071D02*
X228496666Y-59555071D01*
X228639523Y-60078880D02*
X228163333Y-60078880D01*
X228163333Y-59078880D01*
X228639523Y-59078880D01*
X228925238Y-59078880D02*
X229496666Y-59078880D01*
X229210952Y-60078880D02*
X229210952Y-59078880D01*
X226615714Y-77649366D02*
X227091904Y-77649366D01*
X226520476Y-77935080D02*
X226853809Y-76935080D01*
X227187142Y-77935080D01*
X227949047Y-76935080D02*
X227758571Y-76935080D01*
X227663333Y-76982700D01*
X227615714Y-77030319D01*
X227520476Y-77173176D01*
X227472857Y-77363652D01*
X227472857Y-77744604D01*
X227520476Y-77839842D01*
X227568095Y-77887461D01*
X227663333Y-77935080D01*
X227853809Y-77935080D01*
X227949047Y-77887461D01*
X227996666Y-77839842D01*
X228044285Y-77744604D01*
X228044285Y-77506509D01*
X227996666Y-77411271D01*
X227949047Y-77363652D01*
X227853809Y-77316033D01*
X227663333Y-77316033D01*
X227568095Y-77363652D01*
X227520476Y-77411271D01*
X227472857Y-77506509D01*
X226615714Y-62196006D02*
X227091904Y-62196006D01*
X226520476Y-62481720D02*
X226853809Y-61481720D01*
X227187142Y-62481720D01*
X227710952Y-61481720D02*
X227806190Y-61481720D01*
X227901428Y-61529340D01*
X227949047Y-61576959D01*
X227996666Y-61672197D01*
X228044285Y-61862673D01*
X228044285Y-62100768D01*
X227996666Y-62291244D01*
X227949047Y-62386482D01*
X227901428Y-62434101D01*
X227806190Y-62481720D01*
X227710952Y-62481720D01*
X227615714Y-62434101D01*
X227568095Y-62386482D01*
X227520476Y-62291244D01*
X227472857Y-62100768D01*
X227472857Y-61862673D01*
X227520476Y-61672197D01*
X227568095Y-61576959D01*
X227615714Y-61529340D01*
X227710952Y-61481720D01*
X225394093Y-103322380D02*
X225060760Y-102846190D01*
X224822664Y-103322380D02*
X224822664Y-102322380D01*
X225203617Y-102322380D01*
X225298855Y-102370000D01*
X225346474Y-102417619D01*
X225394093Y-102512857D01*
X225394093Y-102655714D01*
X225346474Y-102750952D01*
X225298855Y-102798571D01*
X225203617Y-102846190D01*
X224822664Y-102846190D01*
X225775045Y-103036666D02*
X226251236Y-103036666D01*
X225679807Y-103322380D02*
X226013140Y-102322380D01*
X226346474Y-103322380D01*
X226679807Y-103322380D02*
X226679807Y-102322380D01*
X227013140Y-103036666D01*
X227346474Y-102322380D01*
X227346474Y-103322380D01*
X228394093Y-103227142D02*
X228346474Y-103274761D01*
X228203617Y-103322380D01*
X228108379Y-103322380D01*
X227965521Y-103274761D01*
X227870283Y-103179523D01*
X227822664Y-103084285D01*
X227775045Y-102893809D01*
X227775045Y-102750952D01*
X227822664Y-102560476D01*
X227870283Y-102465238D01*
X227965521Y-102370000D01*
X228108379Y-102322380D01*
X228203617Y-102322380D01*
X228346474Y-102370000D01*
X228394093Y-102417619D01*
X228775045Y-103274761D02*
X228917902Y-103322380D01*
X229155998Y-103322380D01*
X229251236Y-103274761D01*
X229298855Y-103227142D01*
X229346474Y-103131904D01*
X229346474Y-103036666D01*
X229298855Y-102941428D01*
X229251236Y-102893809D01*
X229155998Y-102846190D01*
X228965521Y-102798571D01*
X228870283Y-102750952D01*
X228822664Y-102703333D01*
X228775045Y-102608095D01*
X228775045Y-102512857D01*
X228822664Y-102417619D01*
X228870283Y-102370000D01*
X228965521Y-102322380D01*
X229203617Y-102322380D01*
X229346474Y-102370000D01*
X180895714Y-69973486D02*
X181371904Y-69973486D01*
X180800476Y-70259200D02*
X181133809Y-69259200D01*
X181467142Y-70259200D01*
X181705238Y-69259200D02*
X182324285Y-69259200D01*
X181990952Y-69640153D01*
X182133809Y-69640153D01*
X182229047Y-69687772D01*
X182276666Y-69735391D01*
X182324285Y-69830629D01*
X182324285Y-70068724D01*
X182276666Y-70163962D01*
X182229047Y-70211581D01*
X182133809Y-70259200D01*
X181848095Y-70259200D01*
X181752857Y-70211581D01*
X181705238Y-70163962D01*
X180150283Y-90336666D02*
X180626474Y-90336666D01*
X180055045Y-90622380D02*
X180388379Y-89622380D01*
X180721712Y-90622380D01*
X181578855Y-90622380D02*
X181007426Y-90622380D01*
X181293140Y-90622380D02*
X181293140Y-89622380D01*
X181197902Y-89765238D01*
X181102664Y-89860476D01*
X181007426Y-89908095D01*
X182531236Y-90622380D02*
X181959807Y-90622380D01*
X182245521Y-90622380D02*
X182245521Y-89622380D01*
X182150283Y-89765238D01*
X182055045Y-89860476D01*
X181959807Y-89908095D01*
X180895714Y-64827446D02*
X181371904Y-64827446D01*
X180800476Y-65113160D02*
X181133809Y-64113160D01*
X181467142Y-65113160D01*
X182324285Y-65113160D02*
X181752857Y-65113160D01*
X182038571Y-65113160D02*
X182038571Y-64113160D01*
X181943333Y-64256018D01*
X181848095Y-64351256D01*
X181752857Y-64398875D01*
X180895714Y-74944266D02*
X181371904Y-74944266D01*
X180800476Y-75229980D02*
X181133809Y-74229980D01*
X181467142Y-75229980D01*
X182276666Y-74229980D02*
X181800476Y-74229980D01*
X181752857Y-74706171D01*
X181800476Y-74658552D01*
X181895714Y-74610933D01*
X182133809Y-74610933D01*
X182229047Y-74658552D01*
X182276666Y-74706171D01*
X182324285Y-74801409D01*
X182324285Y-75039504D01*
X182276666Y-75134742D01*
X182229047Y-75182361D01*
X182133809Y-75229980D01*
X181895714Y-75229980D01*
X181800476Y-75182361D01*
X181752857Y-75134742D01*
X180150283Y-92876666D02*
X180626474Y-92876666D01*
X180055045Y-93162380D02*
X180388379Y-92162380D01*
X180721712Y-93162380D01*
X181578855Y-93162380D02*
X181007426Y-93162380D01*
X181293140Y-93162380D02*
X181293140Y-92162380D01*
X181197902Y-92305238D01*
X181102664Y-92400476D01*
X181007426Y-92448095D01*
X181959807Y-92257619D02*
X182007426Y-92210000D01*
X182102664Y-92162380D01*
X182340760Y-92162380D01*
X182435998Y-92210000D01*
X182483617Y-92257619D01*
X182531236Y-92352857D01*
X182531236Y-92448095D01*
X182483617Y-92590952D01*
X181912188Y-93162380D01*
X182531236Y-93162380D01*
X180895714Y-82716666D02*
X181371904Y-82716666D01*
X180800476Y-83002380D02*
X181133809Y-82002380D01*
X181467142Y-83002380D01*
X181943333Y-82430952D02*
X181848095Y-82383333D01*
X181800476Y-82335714D01*
X181752857Y-82240476D01*
X181752857Y-82192857D01*
X181800476Y-82097619D01*
X181848095Y-82050000D01*
X181943333Y-82002380D01*
X182133809Y-82002380D01*
X182229047Y-82050000D01*
X182276666Y-82097619D01*
X182324285Y-82192857D01*
X182324285Y-82240476D01*
X182276666Y-82335714D01*
X182229047Y-82383333D01*
X182133809Y-82430952D01*
X181943333Y-82430952D01*
X181848095Y-82478571D01*
X181800476Y-82526190D01*
X181752857Y-82621428D01*
X181752857Y-82811904D01*
X181800476Y-82907142D01*
X181848095Y-82954761D01*
X181943333Y-83002380D01*
X182133809Y-83002380D01*
X182229047Y-82954761D01*
X182276666Y-82907142D01*
X182324285Y-82811904D01*
X182324285Y-82621428D01*
X182276666Y-82526190D01*
X182229047Y-82478571D01*
X182133809Y-82430952D01*
X180150283Y-97956666D02*
X180626474Y-97956666D01*
X180055045Y-98242380D02*
X180388379Y-97242380D01*
X180721712Y-98242380D01*
X181578855Y-98242380D02*
X181007426Y-98242380D01*
X181293140Y-98242380D02*
X181293140Y-97242380D01*
X181197902Y-97385238D01*
X181102664Y-97480476D01*
X181007426Y-97528095D01*
X182435998Y-97575714D02*
X182435998Y-98242380D01*
X182197902Y-97194761D02*
X181959807Y-97909047D01*
X182578855Y-97909047D01*
X180895714Y-72465226D02*
X181371904Y-72465226D01*
X180800476Y-72750940D02*
X181133809Y-71750940D01*
X181467142Y-72750940D01*
X182229047Y-72084274D02*
X182229047Y-72750940D01*
X181990952Y-71703321D02*
X181752857Y-72417607D01*
X182371904Y-72417607D01*
X180895714Y-67230286D02*
X181371904Y-67230286D01*
X180800476Y-67516000D02*
X181133809Y-66516000D01*
X181467142Y-67516000D01*
X181752857Y-66611239D02*
X181800476Y-66563620D01*
X181895714Y-66516000D01*
X182133809Y-66516000D01*
X182229047Y-66563620D01*
X182276666Y-66611239D01*
X182324285Y-66706477D01*
X182324285Y-66801715D01*
X182276666Y-66944572D01*
X181705238Y-67516000D01*
X182324285Y-67516000D01*
X180895714Y-80176666D02*
X181371904Y-80176666D01*
X180800476Y-80462380D02*
X181133809Y-79462380D01*
X181467142Y-80462380D01*
X181705238Y-79462380D02*
X182371904Y-79462380D01*
X181943333Y-80462380D01*
X179578855Y-105862380D02*
X179245521Y-105386190D01*
X179007426Y-105862380D02*
X179007426Y-104862380D01*
X179388379Y-104862380D01*
X179483617Y-104910000D01*
X179531236Y-104957619D01*
X179578855Y-105052857D01*
X179578855Y-105195714D01*
X179531236Y-105290952D01*
X179483617Y-105338571D01*
X179388379Y-105386190D01*
X179007426Y-105386190D01*
X180197902Y-104862380D02*
X180388379Y-104862380D01*
X180483617Y-104910000D01*
X180578855Y-105005238D01*
X180626474Y-105195714D01*
X180626474Y-105529047D01*
X180578855Y-105719523D01*
X180483617Y-105814761D01*
X180388379Y-105862380D01*
X180197902Y-105862380D01*
X180102664Y-105814761D01*
X180007426Y-105719523D01*
X179959807Y-105529047D01*
X179959807Y-105195714D01*
X180007426Y-105005238D01*
X180102664Y-104910000D01*
X180197902Y-104862380D01*
X181055045Y-105862380D02*
X181055045Y-104862380D01*
X181388379Y-105576666D01*
X181721712Y-104862380D01*
X181721712Y-105862380D01*
X182769331Y-105767142D02*
X182721712Y-105814761D01*
X182578855Y-105862380D01*
X182483617Y-105862380D01*
X182340760Y-105814761D01*
X182245521Y-105719523D01*
X182197902Y-105624285D01*
X182150283Y-105433809D01*
X182150283Y-105290952D01*
X182197902Y-105100476D01*
X182245521Y-105005238D01*
X182340760Y-104910000D01*
X182483617Y-104862380D01*
X182578855Y-104862380D01*
X182721712Y-104910000D01*
X182769331Y-104957619D01*
X183150283Y-105814761D02*
X183293140Y-105862380D01*
X183531236Y-105862380D01*
X183626474Y-105814761D01*
X183674093Y-105767142D01*
X183721712Y-105671904D01*
X183721712Y-105576666D01*
X183674093Y-105481428D01*
X183626474Y-105433809D01*
X183531236Y-105386190D01*
X183340760Y-105338571D01*
X183245521Y-105290952D01*
X183197902Y-105243333D01*
X183150283Y-105148095D01*
X183150283Y-105052857D01*
X183197902Y-104957619D01*
X183245521Y-104910000D01*
X183340760Y-104862380D01*
X183578855Y-104862380D01*
X183721712Y-104910000D01*
X180150283Y-100496666D02*
X180626474Y-100496666D01*
X180055045Y-100782380D02*
X180388379Y-99782380D01*
X180721712Y-100782380D01*
X181578855Y-100782380D02*
X181007426Y-100782380D01*
X181293140Y-100782380D02*
X181293140Y-99782380D01*
X181197902Y-99925238D01*
X181102664Y-100020476D01*
X181007426Y-100068095D01*
X182483617Y-99782380D02*
X182007426Y-99782380D01*
X181959807Y-100258571D01*
X182007426Y-100210952D01*
X182102664Y-100163333D01*
X182340760Y-100163333D01*
X182435998Y-100210952D01*
X182483617Y-100258571D01*
X182531236Y-100353809D01*
X182531236Y-100591904D01*
X182483617Y-100687142D01*
X182435998Y-100734761D01*
X182340760Y-100782380D01*
X182102664Y-100782380D01*
X182007426Y-100734761D01*
X181959807Y-100687142D01*
X180848095Y-56500000D02*
X180752857Y-56452380D01*
X180610000Y-56452380D01*
X180467142Y-56500000D01*
X180371904Y-56595238D01*
X180324285Y-56690476D01*
X180276666Y-56880952D01*
X180276666Y-57023809D01*
X180324285Y-57214285D01*
X180371904Y-57309523D01*
X180467142Y-57404761D01*
X180610000Y-57452380D01*
X180705238Y-57452380D01*
X180848095Y-57404761D01*
X180895714Y-57357142D01*
X180895714Y-57023809D01*
X180705238Y-57023809D01*
X181324285Y-57452380D02*
X181324285Y-56452380D01*
X181895714Y-57452380D01*
X181895714Y-56452380D01*
X182371904Y-57452380D02*
X182371904Y-56452380D01*
X182610000Y-56452380D01*
X182752857Y-56500000D01*
X182848095Y-56595238D01*
X182895714Y-56690476D01*
X182943333Y-56880952D01*
X182943333Y-57023809D01*
X182895714Y-57214285D01*
X182848095Y-57309523D01*
X182752857Y-57404761D01*
X182610000Y-57452380D01*
X182371904Y-57452380D01*
X180150283Y-95416666D02*
X180626474Y-95416666D01*
X180055045Y-95702380D02*
X180388379Y-94702380D01*
X180721712Y-95702380D01*
X181578855Y-95702380D02*
X181007426Y-95702380D01*
X181293140Y-95702380D02*
X181293140Y-94702380D01*
X181197902Y-94845238D01*
X181102664Y-94940476D01*
X181007426Y-94988095D01*
X181912188Y-94702380D02*
X182531236Y-94702380D01*
X182197902Y-95083333D01*
X182340760Y-95083333D01*
X182435998Y-95130952D01*
X182483617Y-95178571D01*
X182531236Y-95273809D01*
X182531236Y-95511904D01*
X182483617Y-95607142D01*
X182435998Y-95654761D01*
X182340760Y-95702380D01*
X182055045Y-95702380D01*
X181959807Y-95654761D01*
X181912188Y-95607142D01*
X180419523Y-87796666D02*
X180895714Y-87796666D01*
X180324285Y-88082380D02*
X180657619Y-87082380D01*
X180990952Y-88082380D01*
X181848095Y-88082380D02*
X181276666Y-88082380D01*
X181562380Y-88082380D02*
X181562380Y-87082380D01*
X181467142Y-87225238D01*
X181371904Y-87320476D01*
X181276666Y-87368095D01*
X182467142Y-87082380D02*
X182562380Y-87082380D01*
X182657619Y-87130000D01*
X182705238Y-87177619D01*
X182752857Y-87272857D01*
X182800476Y-87463333D01*
X182800476Y-87701428D01*
X182752857Y-87891904D01*
X182705238Y-87987142D01*
X182657619Y-88034761D01*
X182562380Y-88082380D01*
X182467142Y-88082380D01*
X182371904Y-88034761D01*
X182324285Y-87987142D01*
X182276666Y-87891904D01*
X182229047Y-87701428D01*
X182229047Y-87463333D01*
X182276666Y-87272857D01*
X182324285Y-87177619D01*
X182371904Y-87130000D01*
X182467142Y-87082380D01*
X180895714Y-85256666D02*
X181371904Y-85256666D01*
X180800476Y-85542380D02*
X181133809Y-84542380D01*
X181467142Y-85542380D01*
X181848095Y-85542380D02*
X182038571Y-85542380D01*
X182133809Y-85494761D01*
X182181428Y-85447142D01*
X182276666Y-85304285D01*
X182324285Y-85113809D01*
X182324285Y-84732857D01*
X182276666Y-84637619D01*
X182229047Y-84590000D01*
X182133809Y-84542380D01*
X181943333Y-84542380D01*
X181848095Y-84590000D01*
X181800476Y-84637619D01*
X181752857Y-84732857D01*
X181752857Y-84970952D01*
X181800476Y-85066190D01*
X181848095Y-85113809D01*
X181943333Y-85161428D01*
X182133809Y-85161428D01*
X182229047Y-85113809D01*
X182276666Y-85066190D01*
X182324285Y-84970952D01*
X180157619Y-60078880D02*
X179824285Y-59602690D01*
X179586190Y-60078880D02*
X179586190Y-59078880D01*
X179967142Y-59078880D01*
X180062380Y-59126500D01*
X180110000Y-59174119D01*
X180157619Y-59269357D01*
X180157619Y-59412214D01*
X180110000Y-59507452D01*
X180062380Y-59555071D01*
X179967142Y-59602690D01*
X179586190Y-59602690D01*
X180586190Y-59555071D02*
X180919523Y-59555071D01*
X181062380Y-60078880D02*
X180586190Y-60078880D01*
X180586190Y-59078880D01*
X181062380Y-59078880D01*
X181443333Y-60031261D02*
X181586190Y-60078880D01*
X181824285Y-60078880D01*
X181919523Y-60031261D01*
X181967142Y-59983642D01*
X182014761Y-59888404D01*
X182014761Y-59793166D01*
X181967142Y-59697928D01*
X181919523Y-59650309D01*
X181824285Y-59602690D01*
X181633809Y-59555071D01*
X181538571Y-59507452D01*
X181490952Y-59459833D01*
X181443333Y-59364595D01*
X181443333Y-59269357D01*
X181490952Y-59174119D01*
X181538571Y-59126500D01*
X181633809Y-59078880D01*
X181871904Y-59078880D01*
X182014761Y-59126500D01*
X182443333Y-59555071D02*
X182776666Y-59555071D01*
X182919523Y-60078880D02*
X182443333Y-60078880D01*
X182443333Y-59078880D01*
X182919523Y-59078880D01*
X183205238Y-59078880D02*
X183776666Y-59078880D01*
X183490952Y-60078880D02*
X183490952Y-59078880D01*
X180895714Y-77649366D02*
X181371904Y-77649366D01*
X180800476Y-77935080D02*
X181133809Y-76935080D01*
X181467142Y-77935080D01*
X182229047Y-76935080D02*
X182038571Y-76935080D01*
X181943333Y-76982700D01*
X181895714Y-77030319D01*
X181800476Y-77173176D01*
X181752857Y-77363652D01*
X181752857Y-77744604D01*
X181800476Y-77839842D01*
X181848095Y-77887461D01*
X181943333Y-77935080D01*
X182133809Y-77935080D01*
X182229047Y-77887461D01*
X182276666Y-77839842D01*
X182324285Y-77744604D01*
X182324285Y-77506509D01*
X182276666Y-77411271D01*
X182229047Y-77363652D01*
X182133809Y-77316033D01*
X181943333Y-77316033D01*
X181848095Y-77363652D01*
X181800476Y-77411271D01*
X181752857Y-77506509D01*
X180895714Y-62196006D02*
X181371904Y-62196006D01*
X180800476Y-62481720D02*
X181133809Y-61481720D01*
X181467142Y-62481720D01*
X181990952Y-61481720D02*
X182086190Y-61481720D01*
X182181428Y-61529340D01*
X182229047Y-61576959D01*
X182276666Y-61672197D01*
X182324285Y-61862673D01*
X182324285Y-62100768D01*
X182276666Y-62291244D01*
X182229047Y-62386482D01*
X182181428Y-62434101D01*
X182086190Y-62481720D01*
X181990952Y-62481720D01*
X181895714Y-62434101D01*
X181848095Y-62386482D01*
X181800476Y-62291244D01*
X181752857Y-62100768D01*
X181752857Y-61862673D01*
X181800476Y-61672197D01*
X181848095Y-61576959D01*
X181895714Y-61529340D01*
X181990952Y-61481720D01*
X179674093Y-103322380D02*
X179340760Y-102846190D01*
X179102664Y-103322380D02*
X179102664Y-102322380D01*
X179483617Y-102322380D01*
X179578855Y-102370000D01*
X179626474Y-102417619D01*
X179674093Y-102512857D01*
X179674093Y-102655714D01*
X179626474Y-102750952D01*
X179578855Y-102798571D01*
X179483617Y-102846190D01*
X179102664Y-102846190D01*
X180055045Y-103036666D02*
X180531236Y-103036666D01*
X179959807Y-103322380D02*
X180293140Y-102322380D01*
X180626474Y-103322380D01*
X180959807Y-103322380D02*
X180959807Y-102322380D01*
X181293140Y-103036666D01*
X181626474Y-102322380D01*
X181626474Y-103322380D01*
X182674093Y-103227142D02*
X182626474Y-103274761D01*
X182483617Y-103322380D01*
X182388379Y-103322380D01*
X182245521Y-103274761D01*
X182150283Y-103179523D01*
X182102664Y-103084285D01*
X182055045Y-102893809D01*
X182055045Y-102750952D01*
X182102664Y-102560476D01*
X182150283Y-102465238D01*
X182245521Y-102370000D01*
X182388379Y-102322380D01*
X182483617Y-102322380D01*
X182626474Y-102370000D01*
X182674093Y-102417619D01*
X183055045Y-103274761D02*
X183197902Y-103322380D01*
X183435998Y-103322380D01*
X183531236Y-103274761D01*
X183578855Y-103227142D01*
X183626474Y-103131904D01*
X183626474Y-103036666D01*
X183578855Y-102941428D01*
X183531236Y-102893809D01*
X183435998Y-102846190D01*
X183245521Y-102798571D01*
X183150283Y-102750952D01*
X183102664Y-102703333D01*
X183055045Y-102608095D01*
X183055045Y-102512857D01*
X183102664Y-102417619D01*
X183150283Y-102370000D01*
X183245521Y-102322380D01*
X183483617Y-102322380D01*
X183626474Y-102370000D01*
X135175714Y-69973486D02*
X135651904Y-69973486D01*
X135080476Y-70259200D02*
X135413809Y-69259200D01*
X135747142Y-70259200D01*
X135985238Y-69259200D02*
X136604285Y-69259200D01*
X136270952Y-69640153D01*
X136413809Y-69640153D01*
X136509047Y-69687772D01*
X136556666Y-69735391D01*
X136604285Y-69830629D01*
X136604285Y-70068724D01*
X136556666Y-70163962D01*
X136509047Y-70211581D01*
X136413809Y-70259200D01*
X136128095Y-70259200D01*
X136032857Y-70211581D01*
X135985238Y-70163962D01*
X134430283Y-90336666D02*
X134906474Y-90336666D01*
X134335045Y-90622380D02*
X134668379Y-89622380D01*
X135001712Y-90622380D01*
X135858855Y-90622380D02*
X135287426Y-90622380D01*
X135573140Y-90622380D02*
X135573140Y-89622380D01*
X135477902Y-89765238D01*
X135382664Y-89860476D01*
X135287426Y-89908095D01*
X136811236Y-90622380D02*
X136239807Y-90622380D01*
X136525521Y-90622380D02*
X136525521Y-89622380D01*
X136430283Y-89765238D01*
X136335045Y-89860476D01*
X136239807Y-89908095D01*
X135175714Y-64827446D02*
X135651904Y-64827446D01*
X135080476Y-65113160D02*
X135413809Y-64113160D01*
X135747142Y-65113160D01*
X136604285Y-65113160D02*
X136032857Y-65113160D01*
X136318571Y-65113160D02*
X136318571Y-64113160D01*
X136223333Y-64256018D01*
X136128095Y-64351256D01*
X136032857Y-64398875D01*
X135175714Y-74944266D02*
X135651904Y-74944266D01*
X135080476Y-75229980D02*
X135413809Y-74229980D01*
X135747142Y-75229980D01*
X136556666Y-74229980D02*
X136080476Y-74229980D01*
X136032857Y-74706171D01*
X136080476Y-74658552D01*
X136175714Y-74610933D01*
X136413809Y-74610933D01*
X136509047Y-74658552D01*
X136556666Y-74706171D01*
X136604285Y-74801409D01*
X136604285Y-75039504D01*
X136556666Y-75134742D01*
X136509047Y-75182361D01*
X136413809Y-75229980D01*
X136175714Y-75229980D01*
X136080476Y-75182361D01*
X136032857Y-75134742D01*
X134430283Y-92876666D02*
X134906474Y-92876666D01*
X134335045Y-93162380D02*
X134668379Y-92162380D01*
X135001712Y-93162380D01*
X135858855Y-93162380D02*
X135287426Y-93162380D01*
X135573140Y-93162380D02*
X135573140Y-92162380D01*
X135477902Y-92305238D01*
X135382664Y-92400476D01*
X135287426Y-92448095D01*
X136239807Y-92257619D02*
X136287426Y-92210000D01*
X136382664Y-92162380D01*
X136620760Y-92162380D01*
X136715998Y-92210000D01*
X136763617Y-92257619D01*
X136811236Y-92352857D01*
X136811236Y-92448095D01*
X136763617Y-92590952D01*
X136192188Y-93162380D01*
X136811236Y-93162380D01*
X135175714Y-82716666D02*
X135651904Y-82716666D01*
X135080476Y-83002380D02*
X135413809Y-82002380D01*
X135747142Y-83002380D01*
X136223333Y-82430952D02*
X136128095Y-82383333D01*
X136080476Y-82335714D01*
X136032857Y-82240476D01*
X136032857Y-82192857D01*
X136080476Y-82097619D01*
X136128095Y-82050000D01*
X136223333Y-82002380D01*
X136413809Y-82002380D01*
X136509047Y-82050000D01*
X136556666Y-82097619D01*
X136604285Y-82192857D01*
X136604285Y-82240476D01*
X136556666Y-82335714D01*
X136509047Y-82383333D01*
X136413809Y-82430952D01*
X136223333Y-82430952D01*
X136128095Y-82478571D01*
X136080476Y-82526190D01*
X136032857Y-82621428D01*
X136032857Y-82811904D01*
X136080476Y-82907142D01*
X136128095Y-82954761D01*
X136223333Y-83002380D01*
X136413809Y-83002380D01*
X136509047Y-82954761D01*
X136556666Y-82907142D01*
X136604285Y-82811904D01*
X136604285Y-82621428D01*
X136556666Y-82526190D01*
X136509047Y-82478571D01*
X136413809Y-82430952D01*
X134430283Y-97956666D02*
X134906474Y-97956666D01*
X134335045Y-98242380D02*
X134668379Y-97242380D01*
X135001712Y-98242380D01*
X135858855Y-98242380D02*
X135287426Y-98242380D01*
X135573140Y-98242380D02*
X135573140Y-97242380D01*
X135477902Y-97385238D01*
X135382664Y-97480476D01*
X135287426Y-97528095D01*
X136715998Y-97575714D02*
X136715998Y-98242380D01*
X136477902Y-97194761D02*
X136239807Y-97909047D01*
X136858855Y-97909047D01*
X135175714Y-72465226D02*
X135651904Y-72465226D01*
X135080476Y-72750940D02*
X135413809Y-71750940D01*
X135747142Y-72750940D01*
X136509047Y-72084274D02*
X136509047Y-72750940D01*
X136270952Y-71703321D02*
X136032857Y-72417607D01*
X136651904Y-72417607D01*
X135175714Y-67230286D02*
X135651904Y-67230286D01*
X135080476Y-67516000D02*
X135413809Y-66516000D01*
X135747142Y-67516000D01*
X136032857Y-66611239D02*
X136080476Y-66563620D01*
X136175714Y-66516000D01*
X136413809Y-66516000D01*
X136509047Y-66563620D01*
X136556666Y-66611239D01*
X136604285Y-66706477D01*
X136604285Y-66801715D01*
X136556666Y-66944572D01*
X135985238Y-67516000D01*
X136604285Y-67516000D01*
X135175714Y-80176666D02*
X135651904Y-80176666D01*
X135080476Y-80462380D02*
X135413809Y-79462380D01*
X135747142Y-80462380D01*
X135985238Y-79462380D02*
X136651904Y-79462380D01*
X136223333Y-80462380D01*
X133858855Y-105862380D02*
X133525521Y-105386190D01*
X133287426Y-105862380D02*
X133287426Y-104862380D01*
X133668379Y-104862380D01*
X133763617Y-104910000D01*
X133811236Y-104957619D01*
X133858855Y-105052857D01*
X133858855Y-105195714D01*
X133811236Y-105290952D01*
X133763617Y-105338571D01*
X133668379Y-105386190D01*
X133287426Y-105386190D01*
X134477902Y-104862380D02*
X134668379Y-104862380D01*
X134763617Y-104910000D01*
X134858855Y-105005238D01*
X134906474Y-105195714D01*
X134906474Y-105529047D01*
X134858855Y-105719523D01*
X134763617Y-105814761D01*
X134668379Y-105862380D01*
X134477902Y-105862380D01*
X134382664Y-105814761D01*
X134287426Y-105719523D01*
X134239807Y-105529047D01*
X134239807Y-105195714D01*
X134287426Y-105005238D01*
X134382664Y-104910000D01*
X134477902Y-104862380D01*
X135335045Y-105862380D02*
X135335045Y-104862380D01*
X135668379Y-105576666D01*
X136001712Y-104862380D01*
X136001712Y-105862380D01*
X137049331Y-105767142D02*
X137001712Y-105814761D01*
X136858855Y-105862380D01*
X136763617Y-105862380D01*
X136620760Y-105814761D01*
X136525521Y-105719523D01*
X136477902Y-105624285D01*
X136430283Y-105433809D01*
X136430283Y-105290952D01*
X136477902Y-105100476D01*
X136525521Y-105005238D01*
X136620760Y-104910000D01*
X136763617Y-104862380D01*
X136858855Y-104862380D01*
X137001712Y-104910000D01*
X137049331Y-104957619D01*
X137430283Y-105814761D02*
X137573140Y-105862380D01*
X137811236Y-105862380D01*
X137906474Y-105814761D01*
X137954093Y-105767142D01*
X138001712Y-105671904D01*
X138001712Y-105576666D01*
X137954093Y-105481428D01*
X137906474Y-105433809D01*
X137811236Y-105386190D01*
X137620760Y-105338571D01*
X137525521Y-105290952D01*
X137477902Y-105243333D01*
X137430283Y-105148095D01*
X137430283Y-105052857D01*
X137477902Y-104957619D01*
X137525521Y-104910000D01*
X137620760Y-104862380D01*
X137858855Y-104862380D01*
X138001712Y-104910000D01*
X134430283Y-100496666D02*
X134906474Y-100496666D01*
X134335045Y-100782380D02*
X134668379Y-99782380D01*
X135001712Y-100782380D01*
X135858855Y-100782380D02*
X135287426Y-100782380D01*
X135573140Y-100782380D02*
X135573140Y-99782380D01*
X135477902Y-99925238D01*
X135382664Y-100020476D01*
X135287426Y-100068095D01*
X136763617Y-99782380D02*
X136287426Y-99782380D01*
X136239807Y-100258571D01*
X136287426Y-100210952D01*
X136382664Y-100163333D01*
X136620760Y-100163333D01*
X136715998Y-100210952D01*
X136763617Y-100258571D01*
X136811236Y-100353809D01*
X136811236Y-100591904D01*
X136763617Y-100687142D01*
X136715998Y-100734761D01*
X136620760Y-100782380D01*
X136382664Y-100782380D01*
X136287426Y-100734761D01*
X136239807Y-100687142D01*
X135128095Y-56500000D02*
X135032857Y-56452380D01*
X134890000Y-56452380D01*
X134747142Y-56500000D01*
X134651904Y-56595238D01*
X134604285Y-56690476D01*
X134556666Y-56880952D01*
X134556666Y-57023809D01*
X134604285Y-57214285D01*
X134651904Y-57309523D01*
X134747142Y-57404761D01*
X134890000Y-57452380D01*
X134985238Y-57452380D01*
X135128095Y-57404761D01*
X135175714Y-57357142D01*
X135175714Y-57023809D01*
X134985238Y-57023809D01*
X135604285Y-57452380D02*
X135604285Y-56452380D01*
X136175714Y-57452380D01*
X136175714Y-56452380D01*
X136651904Y-57452380D02*
X136651904Y-56452380D01*
X136890000Y-56452380D01*
X137032857Y-56500000D01*
X137128095Y-56595238D01*
X137175714Y-56690476D01*
X137223333Y-56880952D01*
X137223333Y-57023809D01*
X137175714Y-57214285D01*
X137128095Y-57309523D01*
X137032857Y-57404761D01*
X136890000Y-57452380D01*
X136651904Y-57452380D01*
X134430283Y-95416666D02*
X134906474Y-95416666D01*
X134335045Y-95702380D02*
X134668379Y-94702380D01*
X135001712Y-95702380D01*
X135858855Y-95702380D02*
X135287426Y-95702380D01*
X135573140Y-95702380D02*
X135573140Y-94702380D01*
X135477902Y-94845238D01*
X135382664Y-94940476D01*
X135287426Y-94988095D01*
X136192188Y-94702380D02*
X136811236Y-94702380D01*
X136477902Y-95083333D01*
X136620760Y-95083333D01*
X136715998Y-95130952D01*
X136763617Y-95178571D01*
X136811236Y-95273809D01*
X136811236Y-95511904D01*
X136763617Y-95607142D01*
X136715998Y-95654761D01*
X136620760Y-95702380D01*
X136335045Y-95702380D01*
X136239807Y-95654761D01*
X136192188Y-95607142D01*
X134699523Y-87796666D02*
X135175714Y-87796666D01*
X134604285Y-88082380D02*
X134937619Y-87082380D01*
X135270952Y-88082380D01*
X136128095Y-88082380D02*
X135556666Y-88082380D01*
X135842380Y-88082380D02*
X135842380Y-87082380D01*
X135747142Y-87225238D01*
X135651904Y-87320476D01*
X135556666Y-87368095D01*
X136747142Y-87082380D02*
X136842380Y-87082380D01*
X136937619Y-87130000D01*
X136985238Y-87177619D01*
X137032857Y-87272857D01*
X137080476Y-87463333D01*
X137080476Y-87701428D01*
X137032857Y-87891904D01*
X136985238Y-87987142D01*
X136937619Y-88034761D01*
X136842380Y-88082380D01*
X136747142Y-88082380D01*
X136651904Y-88034761D01*
X136604285Y-87987142D01*
X136556666Y-87891904D01*
X136509047Y-87701428D01*
X136509047Y-87463333D01*
X136556666Y-87272857D01*
X136604285Y-87177619D01*
X136651904Y-87130000D01*
X136747142Y-87082380D01*
X135175714Y-85256666D02*
X135651904Y-85256666D01*
X135080476Y-85542380D02*
X135413809Y-84542380D01*
X135747142Y-85542380D01*
X136128095Y-85542380D02*
X136318571Y-85542380D01*
X136413809Y-85494761D01*
X136461428Y-85447142D01*
X136556666Y-85304285D01*
X136604285Y-85113809D01*
X136604285Y-84732857D01*
X136556666Y-84637619D01*
X136509047Y-84590000D01*
X136413809Y-84542380D01*
X136223333Y-84542380D01*
X136128095Y-84590000D01*
X136080476Y-84637619D01*
X136032857Y-84732857D01*
X136032857Y-84970952D01*
X136080476Y-85066190D01*
X136128095Y-85113809D01*
X136223333Y-85161428D01*
X136413809Y-85161428D01*
X136509047Y-85113809D01*
X136556666Y-85066190D01*
X136604285Y-84970952D01*
X134437619Y-60078880D02*
X134104285Y-59602690D01*
X133866190Y-60078880D02*
X133866190Y-59078880D01*
X134247142Y-59078880D01*
X134342380Y-59126500D01*
X134390000Y-59174119D01*
X134437619Y-59269357D01*
X134437619Y-59412214D01*
X134390000Y-59507452D01*
X134342380Y-59555071D01*
X134247142Y-59602690D01*
X133866190Y-59602690D01*
X134866190Y-59555071D02*
X135199523Y-59555071D01*
X135342380Y-60078880D02*
X134866190Y-60078880D01*
X134866190Y-59078880D01*
X135342380Y-59078880D01*
X135723333Y-60031261D02*
X135866190Y-60078880D01*
X136104285Y-60078880D01*
X136199523Y-60031261D01*
X136247142Y-59983642D01*
X136294761Y-59888404D01*
X136294761Y-59793166D01*
X136247142Y-59697928D01*
X136199523Y-59650309D01*
X136104285Y-59602690D01*
X135913809Y-59555071D01*
X135818571Y-59507452D01*
X135770952Y-59459833D01*
X135723333Y-59364595D01*
X135723333Y-59269357D01*
X135770952Y-59174119D01*
X135818571Y-59126500D01*
X135913809Y-59078880D01*
X136151904Y-59078880D01*
X136294761Y-59126500D01*
X136723333Y-59555071D02*
X137056666Y-59555071D01*
X137199523Y-60078880D02*
X136723333Y-60078880D01*
X136723333Y-59078880D01*
X137199523Y-59078880D01*
X137485238Y-59078880D02*
X138056666Y-59078880D01*
X137770952Y-60078880D02*
X137770952Y-59078880D01*
X135175714Y-77649366D02*
X135651904Y-77649366D01*
X135080476Y-77935080D02*
X135413809Y-76935080D01*
X135747142Y-77935080D01*
X136509047Y-76935080D02*
X136318571Y-76935080D01*
X136223333Y-76982700D01*
X136175714Y-77030319D01*
X136080476Y-77173176D01*
X136032857Y-77363652D01*
X136032857Y-77744604D01*
X136080476Y-77839842D01*
X136128095Y-77887461D01*
X136223333Y-77935080D01*
X136413809Y-77935080D01*
X136509047Y-77887461D01*
X136556666Y-77839842D01*
X136604285Y-77744604D01*
X136604285Y-77506509D01*
X136556666Y-77411271D01*
X136509047Y-77363652D01*
X136413809Y-77316033D01*
X136223333Y-77316033D01*
X136128095Y-77363652D01*
X136080476Y-77411271D01*
X136032857Y-77506509D01*
X135175714Y-62196006D02*
X135651904Y-62196006D01*
X135080476Y-62481720D02*
X135413809Y-61481720D01*
X135747142Y-62481720D01*
X136270952Y-61481720D02*
X136366190Y-61481720D01*
X136461428Y-61529340D01*
X136509047Y-61576959D01*
X136556666Y-61672197D01*
X136604285Y-61862673D01*
X136604285Y-62100768D01*
X136556666Y-62291244D01*
X136509047Y-62386482D01*
X136461428Y-62434101D01*
X136366190Y-62481720D01*
X136270952Y-62481720D01*
X136175714Y-62434101D01*
X136128095Y-62386482D01*
X136080476Y-62291244D01*
X136032857Y-62100768D01*
X136032857Y-61862673D01*
X136080476Y-61672197D01*
X136128095Y-61576959D01*
X136175714Y-61529340D01*
X136270952Y-61481720D01*
X133954093Y-103322380D02*
X133620760Y-102846190D01*
X133382664Y-103322380D02*
X133382664Y-102322380D01*
X133763617Y-102322380D01*
X133858855Y-102370000D01*
X133906474Y-102417619D01*
X133954093Y-102512857D01*
X133954093Y-102655714D01*
X133906474Y-102750952D01*
X133858855Y-102798571D01*
X133763617Y-102846190D01*
X133382664Y-102846190D01*
X134335045Y-103036666D02*
X134811236Y-103036666D01*
X134239807Y-103322380D02*
X134573140Y-102322380D01*
X134906474Y-103322380D01*
X135239807Y-103322380D02*
X135239807Y-102322380D01*
X135573140Y-103036666D01*
X135906474Y-102322380D01*
X135906474Y-103322380D01*
X136954093Y-103227142D02*
X136906474Y-103274761D01*
X136763617Y-103322380D01*
X136668379Y-103322380D01*
X136525521Y-103274761D01*
X136430283Y-103179523D01*
X136382664Y-103084285D01*
X136335045Y-102893809D01*
X136335045Y-102750952D01*
X136382664Y-102560476D01*
X136430283Y-102465238D01*
X136525521Y-102370000D01*
X136668379Y-102322380D01*
X136763617Y-102322380D01*
X136906474Y-102370000D01*
X136954093Y-102417619D01*
X137335045Y-103274761D02*
X137477902Y-103322380D01*
X137715998Y-103322380D01*
X137811236Y-103274761D01*
X137858855Y-103227142D01*
X137906474Y-103131904D01*
X137906474Y-103036666D01*
X137858855Y-102941428D01*
X137811236Y-102893809D01*
X137715998Y-102846190D01*
X137525521Y-102798571D01*
X137430283Y-102750952D01*
X137382664Y-102703333D01*
X137335045Y-102608095D01*
X137335045Y-102512857D01*
X137382664Y-102417619D01*
X137430283Y-102370000D01*
X137525521Y-102322380D01*
X137763617Y-102322380D01*
X137906474Y-102370000D01*
X88185714Y-69973486D02*
X88661904Y-69973486D01*
X88090476Y-70259200D02*
X88423809Y-69259200D01*
X88757142Y-70259200D01*
X88995238Y-69259200D02*
X89614285Y-69259200D01*
X89280952Y-69640153D01*
X89423809Y-69640153D01*
X89519047Y-69687772D01*
X89566666Y-69735391D01*
X89614285Y-69830629D01*
X89614285Y-70068724D01*
X89566666Y-70163962D01*
X89519047Y-70211581D01*
X89423809Y-70259200D01*
X89138095Y-70259200D01*
X89042857Y-70211581D01*
X88995238Y-70163962D01*
X87440283Y-90336666D02*
X87916474Y-90336666D01*
X87345045Y-90622380D02*
X87678379Y-89622380D01*
X88011712Y-90622380D01*
X88868855Y-90622380D02*
X88297426Y-90622380D01*
X88583140Y-90622380D02*
X88583140Y-89622380D01*
X88487902Y-89765238D01*
X88392664Y-89860476D01*
X88297426Y-89908095D01*
X89821236Y-90622380D02*
X89249807Y-90622380D01*
X89535521Y-90622380D02*
X89535521Y-89622380D01*
X89440283Y-89765238D01*
X89345045Y-89860476D01*
X89249807Y-89908095D01*
X88185714Y-64827446D02*
X88661904Y-64827446D01*
X88090476Y-65113160D02*
X88423809Y-64113160D01*
X88757142Y-65113160D01*
X89614285Y-65113160D02*
X89042857Y-65113160D01*
X89328571Y-65113160D02*
X89328571Y-64113160D01*
X89233333Y-64256018D01*
X89138095Y-64351256D01*
X89042857Y-64398875D01*
X88185714Y-74944266D02*
X88661904Y-74944266D01*
X88090476Y-75229980D02*
X88423809Y-74229980D01*
X88757142Y-75229980D01*
X89566666Y-74229980D02*
X89090476Y-74229980D01*
X89042857Y-74706171D01*
X89090476Y-74658552D01*
X89185714Y-74610933D01*
X89423809Y-74610933D01*
X89519047Y-74658552D01*
X89566666Y-74706171D01*
X89614285Y-74801409D01*
X89614285Y-75039504D01*
X89566666Y-75134742D01*
X89519047Y-75182361D01*
X89423809Y-75229980D01*
X89185714Y-75229980D01*
X89090476Y-75182361D01*
X89042857Y-75134742D01*
X87440283Y-92876666D02*
X87916474Y-92876666D01*
X87345045Y-93162380D02*
X87678379Y-92162380D01*
X88011712Y-93162380D01*
X88868855Y-93162380D02*
X88297426Y-93162380D01*
X88583140Y-93162380D02*
X88583140Y-92162380D01*
X88487902Y-92305238D01*
X88392664Y-92400476D01*
X88297426Y-92448095D01*
X89249807Y-92257619D02*
X89297426Y-92210000D01*
X89392664Y-92162380D01*
X89630760Y-92162380D01*
X89725998Y-92210000D01*
X89773617Y-92257619D01*
X89821236Y-92352857D01*
X89821236Y-92448095D01*
X89773617Y-92590952D01*
X89202188Y-93162380D01*
X89821236Y-93162380D01*
X88185714Y-82716666D02*
X88661904Y-82716666D01*
X88090476Y-83002380D02*
X88423809Y-82002380D01*
X88757142Y-83002380D01*
X89233333Y-82430952D02*
X89138095Y-82383333D01*
X89090476Y-82335714D01*
X89042857Y-82240476D01*
X89042857Y-82192857D01*
X89090476Y-82097619D01*
X89138095Y-82050000D01*
X89233333Y-82002380D01*
X89423809Y-82002380D01*
X89519047Y-82050000D01*
X89566666Y-82097619D01*
X89614285Y-82192857D01*
X89614285Y-82240476D01*
X89566666Y-82335714D01*
X89519047Y-82383333D01*
X89423809Y-82430952D01*
X89233333Y-82430952D01*
X89138095Y-82478571D01*
X89090476Y-82526190D01*
X89042857Y-82621428D01*
X89042857Y-82811904D01*
X89090476Y-82907142D01*
X89138095Y-82954761D01*
X89233333Y-83002380D01*
X89423809Y-83002380D01*
X89519047Y-82954761D01*
X89566666Y-82907142D01*
X89614285Y-82811904D01*
X89614285Y-82621428D01*
X89566666Y-82526190D01*
X89519047Y-82478571D01*
X89423809Y-82430952D01*
X87440283Y-97956666D02*
X87916474Y-97956666D01*
X87345045Y-98242380D02*
X87678379Y-97242380D01*
X88011712Y-98242380D01*
X88868855Y-98242380D02*
X88297426Y-98242380D01*
X88583140Y-98242380D02*
X88583140Y-97242380D01*
X88487902Y-97385238D01*
X88392664Y-97480476D01*
X88297426Y-97528095D01*
X89725998Y-97575714D02*
X89725998Y-98242380D01*
X89487902Y-97194761D02*
X89249807Y-97909047D01*
X89868855Y-97909047D01*
X88185714Y-72465226D02*
X88661904Y-72465226D01*
X88090476Y-72750940D02*
X88423809Y-71750940D01*
X88757142Y-72750940D01*
X89519047Y-72084274D02*
X89519047Y-72750940D01*
X89280952Y-71703321D02*
X89042857Y-72417607D01*
X89661904Y-72417607D01*
X88185714Y-67230286D02*
X88661904Y-67230286D01*
X88090476Y-67516000D02*
X88423809Y-66516000D01*
X88757142Y-67516000D01*
X89042857Y-66611239D02*
X89090476Y-66563620D01*
X89185714Y-66516000D01*
X89423809Y-66516000D01*
X89519047Y-66563620D01*
X89566666Y-66611239D01*
X89614285Y-66706477D01*
X89614285Y-66801715D01*
X89566666Y-66944572D01*
X88995238Y-67516000D01*
X89614285Y-67516000D01*
X88185714Y-80176666D02*
X88661904Y-80176666D01*
X88090476Y-80462380D02*
X88423809Y-79462380D01*
X88757142Y-80462380D01*
X88995238Y-79462380D02*
X89661904Y-79462380D01*
X89233333Y-80462380D01*
X86868855Y-105862380D02*
X86535521Y-105386190D01*
X86297426Y-105862380D02*
X86297426Y-104862380D01*
X86678379Y-104862380D01*
X86773617Y-104910000D01*
X86821236Y-104957619D01*
X86868855Y-105052857D01*
X86868855Y-105195714D01*
X86821236Y-105290952D01*
X86773617Y-105338571D01*
X86678379Y-105386190D01*
X86297426Y-105386190D01*
X87487902Y-104862380D02*
X87678379Y-104862380D01*
X87773617Y-104910000D01*
X87868855Y-105005238D01*
X87916474Y-105195714D01*
X87916474Y-105529047D01*
X87868855Y-105719523D01*
X87773617Y-105814761D01*
X87678379Y-105862380D01*
X87487902Y-105862380D01*
X87392664Y-105814761D01*
X87297426Y-105719523D01*
X87249807Y-105529047D01*
X87249807Y-105195714D01*
X87297426Y-105005238D01*
X87392664Y-104910000D01*
X87487902Y-104862380D01*
X88345045Y-105862380D02*
X88345045Y-104862380D01*
X88678379Y-105576666D01*
X89011712Y-104862380D01*
X89011712Y-105862380D01*
X90059331Y-105767142D02*
X90011712Y-105814761D01*
X89868855Y-105862380D01*
X89773617Y-105862380D01*
X89630760Y-105814761D01*
X89535521Y-105719523D01*
X89487902Y-105624285D01*
X89440283Y-105433809D01*
X89440283Y-105290952D01*
X89487902Y-105100476D01*
X89535521Y-105005238D01*
X89630760Y-104910000D01*
X89773617Y-104862380D01*
X89868855Y-104862380D01*
X90011712Y-104910000D01*
X90059331Y-104957619D01*
X90440283Y-105814761D02*
X90583140Y-105862380D01*
X90821236Y-105862380D01*
X90916474Y-105814761D01*
X90964093Y-105767142D01*
X91011712Y-105671904D01*
X91011712Y-105576666D01*
X90964093Y-105481428D01*
X90916474Y-105433809D01*
X90821236Y-105386190D01*
X90630760Y-105338571D01*
X90535521Y-105290952D01*
X90487902Y-105243333D01*
X90440283Y-105148095D01*
X90440283Y-105052857D01*
X90487902Y-104957619D01*
X90535521Y-104910000D01*
X90630760Y-104862380D01*
X90868855Y-104862380D01*
X91011712Y-104910000D01*
X87440283Y-100496666D02*
X87916474Y-100496666D01*
X87345045Y-100782380D02*
X87678379Y-99782380D01*
X88011712Y-100782380D01*
X88868855Y-100782380D02*
X88297426Y-100782380D01*
X88583140Y-100782380D02*
X88583140Y-99782380D01*
X88487902Y-99925238D01*
X88392664Y-100020476D01*
X88297426Y-100068095D01*
X89773617Y-99782380D02*
X89297426Y-99782380D01*
X89249807Y-100258571D01*
X89297426Y-100210952D01*
X89392664Y-100163333D01*
X89630760Y-100163333D01*
X89725998Y-100210952D01*
X89773617Y-100258571D01*
X89821236Y-100353809D01*
X89821236Y-100591904D01*
X89773617Y-100687142D01*
X89725998Y-100734761D01*
X89630760Y-100782380D01*
X89392664Y-100782380D01*
X89297426Y-100734761D01*
X89249807Y-100687142D01*
X88138095Y-56500000D02*
X88042857Y-56452380D01*
X87900000Y-56452380D01*
X87757142Y-56500000D01*
X87661904Y-56595238D01*
X87614285Y-56690476D01*
X87566666Y-56880952D01*
X87566666Y-57023809D01*
X87614285Y-57214285D01*
X87661904Y-57309523D01*
X87757142Y-57404761D01*
X87900000Y-57452380D01*
X87995238Y-57452380D01*
X88138095Y-57404761D01*
X88185714Y-57357142D01*
X88185714Y-57023809D01*
X87995238Y-57023809D01*
X88614285Y-57452380D02*
X88614285Y-56452380D01*
X89185714Y-57452380D01*
X89185714Y-56452380D01*
X89661904Y-57452380D02*
X89661904Y-56452380D01*
X89900000Y-56452380D01*
X90042857Y-56500000D01*
X90138095Y-56595238D01*
X90185714Y-56690476D01*
X90233333Y-56880952D01*
X90233333Y-57023809D01*
X90185714Y-57214285D01*
X90138095Y-57309523D01*
X90042857Y-57404761D01*
X89900000Y-57452380D01*
X89661904Y-57452380D01*
X87440283Y-95416666D02*
X87916474Y-95416666D01*
X87345045Y-95702380D02*
X87678379Y-94702380D01*
X88011712Y-95702380D01*
X88868855Y-95702380D02*
X88297426Y-95702380D01*
X88583140Y-95702380D02*
X88583140Y-94702380D01*
X88487902Y-94845238D01*
X88392664Y-94940476D01*
X88297426Y-94988095D01*
X89202188Y-94702380D02*
X89821236Y-94702380D01*
X89487902Y-95083333D01*
X89630760Y-95083333D01*
X89725998Y-95130952D01*
X89773617Y-95178571D01*
X89821236Y-95273809D01*
X89821236Y-95511904D01*
X89773617Y-95607142D01*
X89725998Y-95654761D01*
X89630760Y-95702380D01*
X89345045Y-95702380D01*
X89249807Y-95654761D01*
X89202188Y-95607142D01*
X87709523Y-87796666D02*
X88185714Y-87796666D01*
X87614285Y-88082380D02*
X87947619Y-87082380D01*
X88280952Y-88082380D01*
X89138095Y-88082380D02*
X88566666Y-88082380D01*
X88852380Y-88082380D02*
X88852380Y-87082380D01*
X88757142Y-87225238D01*
X88661904Y-87320476D01*
X88566666Y-87368095D01*
X89757142Y-87082380D02*
X89852380Y-87082380D01*
X89947619Y-87130000D01*
X89995238Y-87177619D01*
X90042857Y-87272857D01*
X90090476Y-87463333D01*
X90090476Y-87701428D01*
X90042857Y-87891904D01*
X89995238Y-87987142D01*
X89947619Y-88034761D01*
X89852380Y-88082380D01*
X89757142Y-88082380D01*
X89661904Y-88034761D01*
X89614285Y-87987142D01*
X89566666Y-87891904D01*
X89519047Y-87701428D01*
X89519047Y-87463333D01*
X89566666Y-87272857D01*
X89614285Y-87177619D01*
X89661904Y-87130000D01*
X89757142Y-87082380D01*
X88185714Y-85256666D02*
X88661904Y-85256666D01*
X88090476Y-85542380D02*
X88423809Y-84542380D01*
X88757142Y-85542380D01*
X89138095Y-85542380D02*
X89328571Y-85542380D01*
X89423809Y-85494761D01*
X89471428Y-85447142D01*
X89566666Y-85304285D01*
X89614285Y-85113809D01*
X89614285Y-84732857D01*
X89566666Y-84637619D01*
X89519047Y-84590000D01*
X89423809Y-84542380D01*
X89233333Y-84542380D01*
X89138095Y-84590000D01*
X89090476Y-84637619D01*
X89042857Y-84732857D01*
X89042857Y-84970952D01*
X89090476Y-85066190D01*
X89138095Y-85113809D01*
X89233333Y-85161428D01*
X89423809Y-85161428D01*
X89519047Y-85113809D01*
X89566666Y-85066190D01*
X89614285Y-84970952D01*
X87447619Y-60078880D02*
X87114285Y-59602690D01*
X86876190Y-60078880D02*
X86876190Y-59078880D01*
X87257142Y-59078880D01*
X87352380Y-59126500D01*
X87400000Y-59174119D01*
X87447619Y-59269357D01*
X87447619Y-59412214D01*
X87400000Y-59507452D01*
X87352380Y-59555071D01*
X87257142Y-59602690D01*
X86876190Y-59602690D01*
X87876190Y-59555071D02*
X88209523Y-59555071D01*
X88352380Y-60078880D02*
X87876190Y-60078880D01*
X87876190Y-59078880D01*
X88352380Y-59078880D01*
X88733333Y-60031261D02*
X88876190Y-60078880D01*
X89114285Y-60078880D01*
X89209523Y-60031261D01*
X89257142Y-59983642D01*
X89304761Y-59888404D01*
X89304761Y-59793166D01*
X89257142Y-59697928D01*
X89209523Y-59650309D01*
X89114285Y-59602690D01*
X88923809Y-59555071D01*
X88828571Y-59507452D01*
X88780952Y-59459833D01*
X88733333Y-59364595D01*
X88733333Y-59269357D01*
X88780952Y-59174119D01*
X88828571Y-59126500D01*
X88923809Y-59078880D01*
X89161904Y-59078880D01*
X89304761Y-59126500D01*
X89733333Y-59555071D02*
X90066666Y-59555071D01*
X90209523Y-60078880D02*
X89733333Y-60078880D01*
X89733333Y-59078880D01*
X90209523Y-59078880D01*
X90495238Y-59078880D02*
X91066666Y-59078880D01*
X90780952Y-60078880D02*
X90780952Y-59078880D01*
X88185714Y-77649366D02*
X88661904Y-77649366D01*
X88090476Y-77935080D02*
X88423809Y-76935080D01*
X88757142Y-77935080D01*
X89519047Y-76935080D02*
X89328571Y-76935080D01*
X89233333Y-76982700D01*
X89185714Y-77030319D01*
X89090476Y-77173176D01*
X89042857Y-77363652D01*
X89042857Y-77744604D01*
X89090476Y-77839842D01*
X89138095Y-77887461D01*
X89233333Y-77935080D01*
X89423809Y-77935080D01*
X89519047Y-77887461D01*
X89566666Y-77839842D01*
X89614285Y-77744604D01*
X89614285Y-77506509D01*
X89566666Y-77411271D01*
X89519047Y-77363652D01*
X89423809Y-77316033D01*
X89233333Y-77316033D01*
X89138095Y-77363652D01*
X89090476Y-77411271D01*
X89042857Y-77506509D01*
X88185714Y-62196006D02*
X88661904Y-62196006D01*
X88090476Y-62481720D02*
X88423809Y-61481720D01*
X88757142Y-62481720D01*
X89280952Y-61481720D02*
X89376190Y-61481720D01*
X89471428Y-61529340D01*
X89519047Y-61576959D01*
X89566666Y-61672197D01*
X89614285Y-61862673D01*
X89614285Y-62100768D01*
X89566666Y-62291244D01*
X89519047Y-62386482D01*
X89471428Y-62434101D01*
X89376190Y-62481720D01*
X89280952Y-62481720D01*
X89185714Y-62434101D01*
X89138095Y-62386482D01*
X89090476Y-62291244D01*
X89042857Y-62100768D01*
X89042857Y-61862673D01*
X89090476Y-61672197D01*
X89138095Y-61576959D01*
X89185714Y-61529340D01*
X89280952Y-61481720D01*
X86964093Y-103322380D02*
X86630760Y-102846190D01*
X86392664Y-103322380D02*
X86392664Y-102322380D01*
X86773617Y-102322380D01*
X86868855Y-102370000D01*
X86916474Y-102417619D01*
X86964093Y-102512857D01*
X86964093Y-102655714D01*
X86916474Y-102750952D01*
X86868855Y-102798571D01*
X86773617Y-102846190D01*
X86392664Y-102846190D01*
X87345045Y-103036666D02*
X87821236Y-103036666D01*
X87249807Y-103322380D02*
X87583140Y-102322380D01*
X87916474Y-103322380D01*
X88249807Y-103322380D02*
X88249807Y-102322380D01*
X88583140Y-103036666D01*
X88916474Y-102322380D01*
X88916474Y-103322380D01*
X89964093Y-103227142D02*
X89916474Y-103274761D01*
X89773617Y-103322380D01*
X89678379Y-103322380D01*
X89535521Y-103274761D01*
X89440283Y-103179523D01*
X89392664Y-103084285D01*
X89345045Y-102893809D01*
X89345045Y-102750952D01*
X89392664Y-102560476D01*
X89440283Y-102465238D01*
X89535521Y-102370000D01*
X89678379Y-102322380D01*
X89773617Y-102322380D01*
X89916474Y-102370000D01*
X89964093Y-102417619D01*
X90345045Y-103274761D02*
X90487902Y-103322380D01*
X90725998Y-103322380D01*
X90821236Y-103274761D01*
X90868855Y-103227142D01*
X90916474Y-103131904D01*
X90916474Y-103036666D01*
X90868855Y-102941428D01*
X90821236Y-102893809D01*
X90725998Y-102846190D01*
X90535521Y-102798571D01*
X90440283Y-102750952D01*
X90392664Y-102703333D01*
X90345045Y-102608095D01*
X90345045Y-102512857D01*
X90392664Y-102417619D01*
X90440283Y-102370000D01*
X90535521Y-102322380D01*
X90773617Y-102322380D01*
X90916474Y-102370000D01*
X41288855Y-105772380D02*
X40955521Y-105296190D01*
X40717426Y-105772380D02*
X40717426Y-104772380D01*
X41098379Y-104772380D01*
X41193617Y-104820000D01*
X41241236Y-104867619D01*
X41288855Y-104962857D01*
X41288855Y-105105714D01*
X41241236Y-105200952D01*
X41193617Y-105248571D01*
X41098379Y-105296190D01*
X40717426Y-105296190D01*
X41907902Y-104772380D02*
X42098379Y-104772380D01*
X42193617Y-104820000D01*
X42288855Y-104915238D01*
X42336474Y-105105714D01*
X42336474Y-105439047D01*
X42288855Y-105629523D01*
X42193617Y-105724761D01*
X42098379Y-105772380D01*
X41907902Y-105772380D01*
X41812664Y-105724761D01*
X41717426Y-105629523D01*
X41669807Y-105439047D01*
X41669807Y-105105714D01*
X41717426Y-104915238D01*
X41812664Y-104820000D01*
X41907902Y-104772380D01*
X42765045Y-105772380D02*
X42765045Y-104772380D01*
X43098379Y-105486666D01*
X43431712Y-104772380D01*
X43431712Y-105772380D01*
X44479331Y-105677142D02*
X44431712Y-105724761D01*
X44288855Y-105772380D01*
X44193617Y-105772380D01*
X44050760Y-105724761D01*
X43955521Y-105629523D01*
X43907902Y-105534285D01*
X43860283Y-105343809D01*
X43860283Y-105200952D01*
X43907902Y-105010476D01*
X43955521Y-104915238D01*
X44050760Y-104820000D01*
X44193617Y-104772380D01*
X44288855Y-104772380D01*
X44431712Y-104820000D01*
X44479331Y-104867619D01*
X44860283Y-105724761D02*
X45003140Y-105772380D01*
X45241236Y-105772380D01*
X45336474Y-105724761D01*
X45384093Y-105677142D01*
X45431712Y-105581904D01*
X45431712Y-105486666D01*
X45384093Y-105391428D01*
X45336474Y-105343809D01*
X45241236Y-105296190D01*
X45050760Y-105248571D01*
X44955521Y-105200952D01*
X44907902Y-105153333D01*
X44860283Y-105058095D01*
X44860283Y-104962857D01*
X44907902Y-104867619D01*
X44955521Y-104820000D01*
X45050760Y-104772380D01*
X45288855Y-104772380D01*
X45431712Y-104820000D01*
X41384093Y-103232380D02*
X41050760Y-102756190D01*
X40812664Y-103232380D02*
X40812664Y-102232380D01*
X41193617Y-102232380D01*
X41288855Y-102280000D01*
X41336474Y-102327619D01*
X41384093Y-102422857D01*
X41384093Y-102565714D01*
X41336474Y-102660952D01*
X41288855Y-102708571D01*
X41193617Y-102756190D01*
X40812664Y-102756190D01*
X41765045Y-102946666D02*
X42241236Y-102946666D01*
X41669807Y-103232380D02*
X42003140Y-102232380D01*
X42336474Y-103232380D01*
X42669807Y-103232380D02*
X42669807Y-102232380D01*
X43003140Y-102946666D01*
X43336474Y-102232380D01*
X43336474Y-103232380D01*
X44384093Y-103137142D02*
X44336474Y-103184761D01*
X44193617Y-103232380D01*
X44098379Y-103232380D01*
X43955521Y-103184761D01*
X43860283Y-103089523D01*
X43812664Y-102994285D01*
X43765045Y-102803809D01*
X43765045Y-102660952D01*
X43812664Y-102470476D01*
X43860283Y-102375238D01*
X43955521Y-102280000D01*
X44098379Y-102232380D01*
X44193617Y-102232380D01*
X44336474Y-102280000D01*
X44384093Y-102327619D01*
X44765045Y-103184761D02*
X44907902Y-103232380D01*
X45145998Y-103232380D01*
X45241236Y-103184761D01*
X45288855Y-103137142D01*
X45336474Y-103041904D01*
X45336474Y-102946666D01*
X45288855Y-102851428D01*
X45241236Y-102803809D01*
X45145998Y-102756190D01*
X44955521Y-102708571D01*
X44860283Y-102660952D01*
X44812664Y-102613333D01*
X44765045Y-102518095D01*
X44765045Y-102422857D01*
X44812664Y-102327619D01*
X44860283Y-102280000D01*
X44955521Y-102232380D01*
X45193617Y-102232380D01*
X45336474Y-102280000D01*
X41860283Y-100406666D02*
X42336474Y-100406666D01*
X41765045Y-100692380D02*
X42098379Y-99692380D01*
X42431712Y-100692380D01*
X43288855Y-100692380D02*
X42717426Y-100692380D01*
X43003140Y-100692380D02*
X43003140Y-99692380D01*
X42907902Y-99835238D01*
X42812664Y-99930476D01*
X42717426Y-99978095D01*
X44193617Y-99692380D02*
X43717426Y-99692380D01*
X43669807Y-100168571D01*
X43717426Y-100120952D01*
X43812664Y-100073333D01*
X44050760Y-100073333D01*
X44145998Y-100120952D01*
X44193617Y-100168571D01*
X44241236Y-100263809D01*
X44241236Y-100501904D01*
X44193617Y-100597142D01*
X44145998Y-100644761D01*
X44050760Y-100692380D01*
X43812664Y-100692380D01*
X43717426Y-100644761D01*
X43669807Y-100597142D01*
X41860283Y-97866666D02*
X42336474Y-97866666D01*
X41765045Y-98152380D02*
X42098379Y-97152380D01*
X42431712Y-98152380D01*
X43288855Y-98152380D02*
X42717426Y-98152380D01*
X43003140Y-98152380D02*
X43003140Y-97152380D01*
X42907902Y-97295238D01*
X42812664Y-97390476D01*
X42717426Y-97438095D01*
X44145998Y-97485714D02*
X44145998Y-98152380D01*
X43907902Y-97104761D02*
X43669807Y-97819047D01*
X44288855Y-97819047D01*
X41860283Y-95326666D02*
X42336474Y-95326666D01*
X41765045Y-95612380D02*
X42098379Y-94612380D01*
X42431712Y-95612380D01*
X43288855Y-95612380D02*
X42717426Y-95612380D01*
X43003140Y-95612380D02*
X43003140Y-94612380D01*
X42907902Y-94755238D01*
X42812664Y-94850476D01*
X42717426Y-94898095D01*
X43622188Y-94612380D02*
X44241236Y-94612380D01*
X43907902Y-94993333D01*
X44050760Y-94993333D01*
X44145998Y-95040952D01*
X44193617Y-95088571D01*
X44241236Y-95183809D01*
X44241236Y-95421904D01*
X44193617Y-95517142D01*
X44145998Y-95564761D01*
X44050760Y-95612380D01*
X43765045Y-95612380D01*
X43669807Y-95564761D01*
X43622188Y-95517142D01*
X41860283Y-92786666D02*
X42336474Y-92786666D01*
X41765045Y-93072380D02*
X42098379Y-92072380D01*
X42431712Y-93072380D01*
X43288855Y-93072380D02*
X42717426Y-93072380D01*
X43003140Y-93072380D02*
X43003140Y-92072380D01*
X42907902Y-92215238D01*
X42812664Y-92310476D01*
X42717426Y-92358095D01*
X43669807Y-92167619D02*
X43717426Y-92120000D01*
X43812664Y-92072380D01*
X44050760Y-92072380D01*
X44145998Y-92120000D01*
X44193617Y-92167619D01*
X44241236Y-92262857D01*
X44241236Y-92358095D01*
X44193617Y-92500952D01*
X43622188Y-93072380D01*
X44241236Y-93072380D01*
X41860283Y-90246666D02*
X42336474Y-90246666D01*
X41765045Y-90532380D02*
X42098379Y-89532380D01*
X42431712Y-90532380D01*
X43288855Y-90532380D02*
X42717426Y-90532380D01*
X43003140Y-90532380D02*
X43003140Y-89532380D01*
X42907902Y-89675238D01*
X42812664Y-89770476D01*
X42717426Y-89818095D01*
X44241236Y-90532380D02*
X43669807Y-90532380D01*
X43955521Y-90532380D02*
X43955521Y-89532380D01*
X43860283Y-89675238D01*
X43765045Y-89770476D01*
X43669807Y-89818095D01*
X42129523Y-87706666D02*
X42605714Y-87706666D01*
X42034285Y-87992380D02*
X42367619Y-86992380D01*
X42700952Y-87992380D01*
X43558095Y-87992380D02*
X42986666Y-87992380D01*
X43272380Y-87992380D02*
X43272380Y-86992380D01*
X43177142Y-87135238D01*
X43081904Y-87230476D01*
X42986666Y-87278095D01*
X44177142Y-86992380D02*
X44272380Y-86992380D01*
X44367619Y-87040000D01*
X44415238Y-87087619D01*
X44462857Y-87182857D01*
X44510476Y-87373333D01*
X44510476Y-87611428D01*
X44462857Y-87801904D01*
X44415238Y-87897142D01*
X44367619Y-87944761D01*
X44272380Y-87992380D01*
X44177142Y-87992380D01*
X44081904Y-87944761D01*
X44034285Y-87897142D01*
X43986666Y-87801904D01*
X43939047Y-87611428D01*
X43939047Y-87373333D01*
X43986666Y-87182857D01*
X44034285Y-87087619D01*
X44081904Y-87040000D01*
X44177142Y-86992380D01*
X42605714Y-85166666D02*
X43081904Y-85166666D01*
X42510476Y-85452380D02*
X42843809Y-84452380D01*
X43177142Y-85452380D01*
X43558095Y-85452380D02*
X43748571Y-85452380D01*
X43843809Y-85404761D01*
X43891428Y-85357142D01*
X43986666Y-85214285D01*
X44034285Y-85023809D01*
X44034285Y-84642857D01*
X43986666Y-84547619D01*
X43939047Y-84500000D01*
X43843809Y-84452380D01*
X43653333Y-84452380D01*
X43558095Y-84500000D01*
X43510476Y-84547619D01*
X43462857Y-84642857D01*
X43462857Y-84880952D01*
X43510476Y-84976190D01*
X43558095Y-85023809D01*
X43653333Y-85071428D01*
X43843809Y-85071428D01*
X43939047Y-85023809D01*
X43986666Y-84976190D01*
X44034285Y-84880952D01*
X42605714Y-82626666D02*
X43081904Y-82626666D01*
X42510476Y-82912380D02*
X42843809Y-81912380D01*
X43177142Y-82912380D01*
X43653333Y-82340952D02*
X43558095Y-82293333D01*
X43510476Y-82245714D01*
X43462857Y-82150476D01*
X43462857Y-82102857D01*
X43510476Y-82007619D01*
X43558095Y-81960000D01*
X43653333Y-81912380D01*
X43843809Y-81912380D01*
X43939047Y-81960000D01*
X43986666Y-82007619D01*
X44034285Y-82102857D01*
X44034285Y-82150476D01*
X43986666Y-82245714D01*
X43939047Y-82293333D01*
X43843809Y-82340952D01*
X43653333Y-82340952D01*
X43558095Y-82388571D01*
X43510476Y-82436190D01*
X43462857Y-82531428D01*
X43462857Y-82721904D01*
X43510476Y-82817142D01*
X43558095Y-82864761D01*
X43653333Y-82912380D01*
X43843809Y-82912380D01*
X43939047Y-82864761D01*
X43986666Y-82817142D01*
X44034285Y-82721904D01*
X44034285Y-82531428D01*
X43986666Y-82436190D01*
X43939047Y-82388571D01*
X43843809Y-82340952D01*
X42605714Y-80086666D02*
X43081904Y-80086666D01*
X42510476Y-80372380D02*
X42843809Y-79372380D01*
X43177142Y-80372380D01*
X43415238Y-79372380D02*
X44081904Y-79372380D01*
X43653333Y-80372380D01*
X42605714Y-77559366D02*
X43081904Y-77559366D01*
X42510476Y-77845080D02*
X42843809Y-76845080D01*
X43177142Y-77845080D01*
X43939047Y-76845080D02*
X43748571Y-76845080D01*
X43653333Y-76892700D01*
X43605714Y-76940319D01*
X43510476Y-77083176D01*
X43462857Y-77273652D01*
X43462857Y-77654604D01*
X43510476Y-77749842D01*
X43558095Y-77797461D01*
X43653333Y-77845080D01*
X43843809Y-77845080D01*
X43939047Y-77797461D01*
X43986666Y-77749842D01*
X44034285Y-77654604D01*
X44034285Y-77416509D01*
X43986666Y-77321271D01*
X43939047Y-77273652D01*
X43843809Y-77226033D01*
X43653333Y-77226033D01*
X43558095Y-77273652D01*
X43510476Y-77321271D01*
X43462857Y-77416509D01*
X42605714Y-74854266D02*
X43081904Y-74854266D01*
X42510476Y-75139980D02*
X42843809Y-74139980D01*
X43177142Y-75139980D01*
X43986666Y-74139980D02*
X43510476Y-74139980D01*
X43462857Y-74616171D01*
X43510476Y-74568552D01*
X43605714Y-74520933D01*
X43843809Y-74520933D01*
X43939047Y-74568552D01*
X43986666Y-74616171D01*
X44034285Y-74711409D01*
X44034285Y-74949504D01*
X43986666Y-75044742D01*
X43939047Y-75092361D01*
X43843809Y-75139980D01*
X43605714Y-75139980D01*
X43510476Y-75092361D01*
X43462857Y-75044742D01*
X42605714Y-72375226D02*
X43081904Y-72375226D01*
X42510476Y-72660940D02*
X42843809Y-71660940D01*
X43177142Y-72660940D01*
X43939047Y-71994274D02*
X43939047Y-72660940D01*
X43700952Y-71613321D02*
X43462857Y-72327607D01*
X44081904Y-72327607D01*
X42605714Y-69883486D02*
X43081904Y-69883486D01*
X42510476Y-70169200D02*
X42843809Y-69169200D01*
X43177142Y-70169200D01*
X43415238Y-69169200D02*
X44034285Y-69169200D01*
X43700952Y-69550153D01*
X43843809Y-69550153D01*
X43939047Y-69597772D01*
X43986666Y-69645391D01*
X44034285Y-69740629D01*
X44034285Y-69978724D01*
X43986666Y-70073962D01*
X43939047Y-70121581D01*
X43843809Y-70169200D01*
X43558095Y-70169200D01*
X43462857Y-70121581D01*
X43415238Y-70073962D01*
X42605714Y-67140286D02*
X43081904Y-67140286D01*
X42510476Y-67426000D02*
X42843809Y-66426000D01*
X43177142Y-67426000D01*
X43462857Y-66521239D02*
X43510476Y-66473620D01*
X43605714Y-66426000D01*
X43843809Y-66426000D01*
X43939047Y-66473620D01*
X43986666Y-66521239D01*
X44034285Y-66616477D01*
X44034285Y-66711715D01*
X43986666Y-66854572D01*
X43415238Y-67426000D01*
X44034285Y-67426000D01*
X42605714Y-64737446D02*
X43081904Y-64737446D01*
X42510476Y-65023160D02*
X42843809Y-64023160D01*
X43177142Y-65023160D01*
X44034285Y-65023160D02*
X43462857Y-65023160D01*
X43748571Y-65023160D02*
X43748571Y-64023160D01*
X43653333Y-64166018D01*
X43558095Y-64261256D01*
X43462857Y-64308875D01*
X42605714Y-62106006D02*
X43081904Y-62106006D01*
X42510476Y-62391720D02*
X42843809Y-61391720D01*
X43177142Y-62391720D01*
X43700952Y-61391720D02*
X43796190Y-61391720D01*
X43891428Y-61439340D01*
X43939047Y-61486959D01*
X43986666Y-61582197D01*
X44034285Y-61772673D01*
X44034285Y-62010768D01*
X43986666Y-62201244D01*
X43939047Y-62296482D01*
X43891428Y-62344101D01*
X43796190Y-62391720D01*
X43700952Y-62391720D01*
X43605714Y-62344101D01*
X43558095Y-62296482D01*
X43510476Y-62201244D01*
X43462857Y-62010768D01*
X43462857Y-61772673D01*
X43510476Y-61582197D01*
X43558095Y-61486959D01*
X43605714Y-61439340D01*
X43700952Y-61391720D01*
X41867619Y-59988880D02*
X41534285Y-59512690D01*
X41296190Y-59988880D02*
X41296190Y-58988880D01*
X41677142Y-58988880D01*
X41772380Y-59036500D01*
X41820000Y-59084119D01*
X41867619Y-59179357D01*
X41867619Y-59322214D01*
X41820000Y-59417452D01*
X41772380Y-59465071D01*
X41677142Y-59512690D01*
X41296190Y-59512690D01*
X42296190Y-59465071D02*
X42629523Y-59465071D01*
X42772380Y-59988880D02*
X42296190Y-59988880D01*
X42296190Y-58988880D01*
X42772380Y-58988880D01*
X43153333Y-59941261D02*
X43296190Y-59988880D01*
X43534285Y-59988880D01*
X43629523Y-59941261D01*
X43677142Y-59893642D01*
X43724761Y-59798404D01*
X43724761Y-59703166D01*
X43677142Y-59607928D01*
X43629523Y-59560309D01*
X43534285Y-59512690D01*
X43343809Y-59465071D01*
X43248571Y-59417452D01*
X43200952Y-59369833D01*
X43153333Y-59274595D01*
X43153333Y-59179357D01*
X43200952Y-59084119D01*
X43248571Y-59036500D01*
X43343809Y-58988880D01*
X43581904Y-58988880D01*
X43724761Y-59036500D01*
X44153333Y-59465071D02*
X44486666Y-59465071D01*
X44629523Y-59988880D02*
X44153333Y-59988880D01*
X44153333Y-58988880D01*
X44629523Y-58988880D01*
X44915238Y-58988880D02*
X45486666Y-58988880D01*
X45200952Y-59988880D02*
X45200952Y-58988880D01*
X42558095Y-56410000D02*
X42462857Y-56362380D01*
X42320000Y-56362380D01*
X42177142Y-56410000D01*
X42081904Y-56505238D01*
X42034285Y-56600476D01*
X41986666Y-56790952D01*
X41986666Y-56933809D01*
X42034285Y-57124285D01*
X42081904Y-57219523D01*
X42177142Y-57314761D01*
X42320000Y-57362380D01*
X42415238Y-57362380D01*
X42558095Y-57314761D01*
X42605714Y-57267142D01*
X42605714Y-56933809D01*
X42415238Y-56933809D01*
X43034285Y-57362380D02*
X43034285Y-56362380D01*
X43605714Y-57362380D01*
X43605714Y-56362380D01*
X44081904Y-57362380D02*
X44081904Y-56362380D01*
X44320000Y-56362380D01*
X44462857Y-56410000D01*
X44558095Y-56505238D01*
X44605714Y-56600476D01*
X44653333Y-56790952D01*
X44653333Y-56933809D01*
X44605714Y-57124285D01*
X44558095Y-57219523D01*
X44462857Y-57314761D01*
X44320000Y-57362380D01*
X44081904Y-57362380D01*
D11*
X231130000Y-55670000D02*
X233730000Y-55670000D01*
X231130000Y-55670000D02*
X231130000Y-106590000D01*
X231130000Y-106590000D02*
X236330000Y-106590000D01*
X236330000Y-58270000D02*
X236330000Y-106590000D01*
X233730000Y-58270000D02*
X236330000Y-58270000D01*
X233730000Y-55670000D02*
X233730000Y-58270000D01*
X236330000Y-55670000D02*
X236330000Y-57000000D01*
X235000000Y-55670000D02*
X236330000Y-55670000D01*
X185130000Y-55670000D02*
X187730000Y-55670000D01*
X185130000Y-55670000D02*
X185130000Y-106590000D01*
X185130000Y-106590000D02*
X190330000Y-106590000D01*
X190330000Y-58270000D02*
X190330000Y-106590000D01*
X187730000Y-58270000D02*
X190330000Y-58270000D01*
X187730000Y-55670000D02*
X187730000Y-58270000D01*
X190330000Y-55670000D02*
X190330000Y-57000000D01*
X189000000Y-55670000D02*
X190330000Y-55670000D01*
X140130000Y-55670000D02*
X142730000Y-55670000D01*
X140130000Y-55670000D02*
X140130000Y-106590000D01*
X140130000Y-106590000D02*
X145330000Y-106590000D01*
X145330000Y-58270000D02*
X145330000Y-106590000D01*
X142730000Y-58270000D02*
X145330000Y-58270000D01*
X142730000Y-55670000D02*
X142730000Y-58270000D01*
X145330000Y-55670000D02*
X145330000Y-57000000D01*
X144000000Y-55670000D02*
X145330000Y-55670000D01*
X93130000Y-55670000D02*
X95730000Y-55670000D01*
X93130000Y-55670000D02*
X93130000Y-106590000D01*
X93130000Y-106590000D02*
X98330000Y-106590000D01*
X98330000Y-58270000D02*
X98330000Y-106590000D01*
X95730000Y-58270000D02*
X98330000Y-58270000D01*
X95730000Y-55670000D02*
X95730000Y-58270000D01*
X98330000Y-55670000D02*
X98330000Y-57000000D01*
X97000000Y-55670000D02*
X98330000Y-55670000D01*
X47130000Y-55670000D02*
X49730000Y-55670000D01*
X47130000Y-55670000D02*
X47130000Y-106590000D01*
X47130000Y-106590000D02*
X52330000Y-106590000D01*
X52330000Y-58270000D02*
X52330000Y-106590000D01*
X49730000Y-58270000D02*
X52330000Y-58270000D01*
X49730000Y-55670000D02*
X49730000Y-58270000D01*
X52330000Y-55670000D02*
X52330000Y-57000000D01*
X51000000Y-55670000D02*
X52330000Y-55670000D01*
X231230000Y-48580000D02*
X235270000Y-48580000D01*
X231230000Y-51420000D02*
X235270000Y-51420000D01*
X231230000Y-48580000D02*
X231230000Y-49205000D01*
X231230000Y-50795000D02*
X231230000Y-51420000D01*
X235270000Y-48580000D02*
X235270000Y-49205000D01*
X235270000Y-50795000D02*
X235270000Y-51420000D01*
X97270000Y-50795000D02*
X97270000Y-51420000D01*
X97270000Y-48580000D02*
X97270000Y-49205000D01*
X93230000Y-50795000D02*
X93230000Y-51420000D01*
X93230000Y-48580000D02*
X93230000Y-49205000D01*
X93230000Y-51420000D02*
X97270000Y-51420000D01*
X93230000Y-48580000D02*
X97270000Y-48580000D01*
X185230000Y-48580000D02*
X189270000Y-48580000D01*
X185230000Y-51420000D02*
X189270000Y-51420000D01*
X185230000Y-48580000D02*
X185230000Y-49205000D01*
X185230000Y-50795000D02*
X185230000Y-51420000D01*
X189270000Y-48580000D02*
X189270000Y-49205000D01*
X189270000Y-50795000D02*
X189270000Y-51420000D01*
X144270000Y-50795000D02*
X144270000Y-51420000D01*
X144270000Y-48580000D02*
X144270000Y-49205000D01*
X140230000Y-50795000D02*
X140230000Y-51420000D01*
X140230000Y-48580000D02*
X140230000Y-49205000D01*
X140230000Y-51420000D02*
X144270000Y-51420000D01*
X140230000Y-48580000D02*
X144270000Y-48580000D01*
X48621000Y-49080000D02*
X49879000Y-49080000D01*
X48621000Y-50920000D02*
X49879000Y-50920000D01*
X31400000Y-38200000D02*
X31400000Y-29200000D01*
X31400000Y-29200000D02*
X40600000Y-29200000D01*
X40600000Y-29200000D02*
X40600000Y-43800000D01*
X40600000Y-43800000D02*
X37800000Y-43800000D01*
X34200000Y-43800000D02*
X31400000Y-43800000D01*
X31400000Y-43800000D02*
X31400000Y-41800000D01*
X40840000Y-42300000D02*
X40840000Y-44040000D01*
X40840000Y-44040000D02*
X39100000Y-44040000D01*
X47130000Y-114670000D02*
X47130000Y-117330000D01*
X49730000Y-114670000D02*
X47130000Y-114670000D01*
X49730000Y-117330000D02*
X47130000Y-117330000D01*
X49730000Y-114670000D02*
X49730000Y-117330000D01*
X51000000Y-114670000D02*
X52330000Y-114670000D01*
X52330000Y-114670000D02*
X52330000Y-116000000D01*
D10*
X233396666Y-53682380D02*
X233396666Y-54396666D01*
X233349047Y-54539523D01*
X233253809Y-54634761D01*
X233110952Y-54682380D01*
X233015714Y-54682380D01*
X233825238Y-53777619D02*
X233872857Y-53730000D01*
X233968095Y-53682380D01*
X234206190Y-53682380D01*
X234301428Y-53730000D01*
X234349047Y-53777619D01*
X234396666Y-53872857D01*
X234396666Y-53968095D01*
X234349047Y-54110952D01*
X233777619Y-54682380D01*
X234396666Y-54682380D01*
X187396666Y-53682380D02*
X187396666Y-54396666D01*
X187349047Y-54539523D01*
X187253809Y-54634761D01*
X187110952Y-54682380D01*
X187015714Y-54682380D01*
X188301428Y-54015714D02*
X188301428Y-54682380D01*
X188063333Y-53634761D02*
X187825238Y-54349047D01*
X188444285Y-54349047D01*
X142396666Y-53682380D02*
X142396666Y-54396666D01*
X142349047Y-54539523D01*
X142253809Y-54634761D01*
X142110952Y-54682380D01*
X142015714Y-54682380D01*
X143349047Y-53682380D02*
X142872857Y-53682380D01*
X142825238Y-54158571D01*
X142872857Y-54110952D01*
X142968095Y-54063333D01*
X143206190Y-54063333D01*
X143301428Y-54110952D01*
X143349047Y-54158571D01*
X143396666Y-54253809D01*
X143396666Y-54491904D01*
X143349047Y-54587142D01*
X143301428Y-54634761D01*
X143206190Y-54682380D01*
X142968095Y-54682380D01*
X142872857Y-54634761D01*
X142825238Y-54587142D01*
X95396666Y-53682380D02*
X95396666Y-54396666D01*
X95349047Y-54539523D01*
X95253809Y-54634761D01*
X95110952Y-54682380D01*
X95015714Y-54682380D01*
X96301428Y-53682380D02*
X96110952Y-53682380D01*
X96015714Y-53730000D01*
X95968095Y-53777619D01*
X95872857Y-53920476D01*
X95825238Y-54110952D01*
X95825238Y-54491904D01*
X95872857Y-54587142D01*
X95920476Y-54634761D01*
X96015714Y-54682380D01*
X96206190Y-54682380D01*
X96301428Y-54634761D01*
X96349047Y-54587142D01*
X96396666Y-54491904D01*
X96396666Y-54253809D01*
X96349047Y-54158571D01*
X96301428Y-54110952D01*
X96206190Y-54063333D01*
X96015714Y-54063333D01*
X95920476Y-54110952D01*
X95872857Y-54158571D01*
X95825238Y-54253809D01*
X49396666Y-53682380D02*
X49396666Y-54396666D01*
X49349047Y-54539523D01*
X49253809Y-54634761D01*
X49110952Y-54682380D01*
X49015714Y-54682380D01*
X49777619Y-53682380D02*
X50444285Y-53682380D01*
X50015714Y-54682380D01*
X233083333Y-47807142D02*
X233035714Y-47854761D01*
X232892857Y-47902380D01*
X232797619Y-47902380D01*
X232654761Y-47854761D01*
X232559523Y-47759523D01*
X232511904Y-47664285D01*
X232464285Y-47473809D01*
X232464285Y-47330952D01*
X232511904Y-47140476D01*
X232559523Y-47045238D01*
X232654761Y-46950000D01*
X232797619Y-46902380D01*
X232892857Y-46902380D01*
X233035714Y-46950000D01*
X233083333Y-46997619D01*
X234035714Y-47902380D02*
X233464285Y-47902380D01*
X233750000Y-47902380D02*
X233750000Y-46902380D01*
X233654761Y-47045238D01*
X233559523Y-47140476D01*
X233464285Y-47188095D01*
X95083333Y-47807142D02*
X95035714Y-47854761D01*
X94892857Y-47902380D01*
X94797619Y-47902380D01*
X94654761Y-47854761D01*
X94559523Y-47759523D01*
X94511904Y-47664285D01*
X94464285Y-47473809D01*
X94464285Y-47330952D01*
X94511904Y-47140476D01*
X94559523Y-47045238D01*
X94654761Y-46950000D01*
X94797619Y-46902380D01*
X94892857Y-46902380D01*
X95035714Y-46950000D01*
X95083333Y-46997619D01*
X95464285Y-46997619D02*
X95511904Y-46950000D01*
X95607142Y-46902380D01*
X95845238Y-46902380D01*
X95940476Y-46950000D01*
X95988095Y-46997619D01*
X96035714Y-47092857D01*
X96035714Y-47188095D01*
X95988095Y-47330952D01*
X95416666Y-47902380D01*
X96035714Y-47902380D01*
X187083333Y-47807142D02*
X187035714Y-47854761D01*
X186892857Y-47902380D01*
X186797619Y-47902380D01*
X186654761Y-47854761D01*
X186559523Y-47759523D01*
X186511904Y-47664285D01*
X186464285Y-47473809D01*
X186464285Y-47330952D01*
X186511904Y-47140476D01*
X186559523Y-47045238D01*
X186654761Y-46950000D01*
X186797619Y-46902380D01*
X186892857Y-46902380D01*
X187035714Y-46950000D01*
X187083333Y-46997619D01*
X187416666Y-46902380D02*
X188035714Y-46902380D01*
X187702380Y-47283333D01*
X187845238Y-47283333D01*
X187940476Y-47330952D01*
X187988095Y-47378571D01*
X188035714Y-47473809D01*
X188035714Y-47711904D01*
X187988095Y-47807142D01*
X187940476Y-47854761D01*
X187845238Y-47902380D01*
X187559523Y-47902380D01*
X187464285Y-47854761D01*
X187416666Y-47807142D01*
X142083333Y-47807142D02*
X142035714Y-47854761D01*
X141892857Y-47902380D01*
X141797619Y-47902380D01*
X141654761Y-47854761D01*
X141559523Y-47759523D01*
X141511904Y-47664285D01*
X141464285Y-47473809D01*
X141464285Y-47330952D01*
X141511904Y-47140476D01*
X141559523Y-47045238D01*
X141654761Y-46950000D01*
X141797619Y-46902380D01*
X141892857Y-46902380D01*
X142035714Y-46950000D01*
X142083333Y-46997619D01*
X142940476Y-47235714D02*
X142940476Y-47902380D01*
X142702380Y-46854761D02*
X142464285Y-47569047D01*
X143083333Y-47569047D01*
X49083333Y-48307142D02*
X49035714Y-48354761D01*
X48892857Y-48402380D01*
X48797619Y-48402380D01*
X48654761Y-48354761D01*
X48559523Y-48259523D01*
X48511904Y-48164285D01*
X48464285Y-47973809D01*
X48464285Y-47830952D01*
X48511904Y-47640476D01*
X48559523Y-47545238D01*
X48654761Y-47450000D01*
X48797619Y-47402380D01*
X48892857Y-47402380D01*
X49035714Y-47450000D01*
X49083333Y-47497619D01*
X49988095Y-47402380D02*
X49511904Y-47402380D01*
X49464285Y-47878571D01*
X49511904Y-47830952D01*
X49607142Y-47783333D01*
X49845238Y-47783333D01*
X49940476Y-47830952D01*
X49988095Y-47878571D01*
X50035714Y-47973809D01*
X50035714Y-48211904D01*
X49988095Y-48307142D01*
X49940476Y-48354761D01*
X49845238Y-48402380D01*
X49607142Y-48402380D01*
X49511904Y-48354761D01*
X49464285Y-48307142D01*
X29702380Y-34883333D02*
X30416666Y-34883333D01*
X30559523Y-34930952D01*
X30654761Y-35026190D01*
X30702380Y-35169047D01*
X30702380Y-35264285D01*
X30702380Y-33883333D02*
X30702380Y-34454761D01*
X30702380Y-34169047D02*
X29702380Y-34169047D01*
X29845238Y-34264285D01*
X29940476Y-34359523D01*
X29988095Y-34454761D01*
X52782380Y-116333333D02*
X53496666Y-116333333D01*
X53639523Y-116380952D01*
X53734761Y-116476190D01*
X53782380Y-116619047D01*
X53782380Y-116714285D01*
X52782380Y-115952380D02*
X52782380Y-115333333D01*
X53163333Y-115666666D01*
X53163333Y-115523809D01*
X53210952Y-115428571D01*
X53258571Y-115380952D01*
X53353809Y-115333333D01*
X53591904Y-115333333D01*
X53687142Y-115380952D01*
X53734761Y-115428571D01*
X53782380Y-115523809D01*
X53782380Y-115809523D01*
X53734761Y-115904761D01*
X53687142Y-115952380D01*
%LPC*%
D12*
X232460000Y-105260000D03*
X235000000Y-105260000D03*
X232460000Y-102720000D03*
X235000000Y-102720000D03*
X232460000Y-100180000D03*
X235000000Y-100180000D03*
X232460000Y-97640000D03*
X235000000Y-97640000D03*
X232460000Y-95100000D03*
X235000000Y-95100000D03*
X232460000Y-92560000D03*
X235000000Y-92560000D03*
X232460000Y-90020000D03*
X235000000Y-90020000D03*
X232460000Y-87480000D03*
X235000000Y-87480000D03*
X232460000Y-84940000D03*
X235000000Y-84940000D03*
X232460000Y-82400000D03*
X235000000Y-82400000D03*
X232460000Y-79860000D03*
X235000000Y-79860000D03*
X232460000Y-77320000D03*
X235000000Y-77320000D03*
X232460000Y-74780000D03*
X235000000Y-74780000D03*
X232460000Y-72240000D03*
X235000000Y-72240000D03*
X232460000Y-69700000D03*
X235000000Y-69700000D03*
X232460000Y-67160000D03*
X235000000Y-67160000D03*
X232460000Y-64620000D03*
X235000000Y-64620000D03*
X232460000Y-62080000D03*
X235000000Y-62080000D03*
X232460000Y-59540000D03*
X235000000Y-59540000D03*
X232460000Y-57000000D03*
D13*
X235000000Y-57000000D03*
D12*
X186460000Y-105260000D03*
X189000000Y-105260000D03*
X186460000Y-102720000D03*
X189000000Y-102720000D03*
X186460000Y-100180000D03*
X189000000Y-100180000D03*
X186460000Y-97640000D03*
X189000000Y-97640000D03*
X186460000Y-95100000D03*
X189000000Y-95100000D03*
X186460000Y-92560000D03*
X189000000Y-92560000D03*
X186460000Y-90020000D03*
X189000000Y-90020000D03*
X186460000Y-87480000D03*
X189000000Y-87480000D03*
X186460000Y-84940000D03*
X189000000Y-84940000D03*
X186460000Y-82400000D03*
X189000000Y-82400000D03*
X186460000Y-79860000D03*
X189000000Y-79860000D03*
X186460000Y-77320000D03*
X189000000Y-77320000D03*
X186460000Y-74780000D03*
X189000000Y-74780000D03*
X186460000Y-72240000D03*
X189000000Y-72240000D03*
X186460000Y-69700000D03*
X189000000Y-69700000D03*
X186460000Y-67160000D03*
X189000000Y-67160000D03*
X186460000Y-64620000D03*
X189000000Y-64620000D03*
X186460000Y-62080000D03*
X189000000Y-62080000D03*
X186460000Y-59540000D03*
X189000000Y-59540000D03*
X186460000Y-57000000D03*
D13*
X189000000Y-57000000D03*
D12*
X141460000Y-105260000D03*
X144000000Y-105260000D03*
X141460000Y-102720000D03*
X144000000Y-102720000D03*
X141460000Y-100180000D03*
X144000000Y-100180000D03*
X141460000Y-97640000D03*
X144000000Y-97640000D03*
X141460000Y-95100000D03*
X144000000Y-95100000D03*
X141460000Y-92560000D03*
X144000000Y-92560000D03*
X141460000Y-90020000D03*
X144000000Y-90020000D03*
X141460000Y-87480000D03*
X144000000Y-87480000D03*
X141460000Y-84940000D03*
X144000000Y-84940000D03*
X141460000Y-82400000D03*
X144000000Y-82400000D03*
X141460000Y-79860000D03*
X144000000Y-79860000D03*
X141460000Y-77320000D03*
X144000000Y-77320000D03*
X141460000Y-74780000D03*
X144000000Y-74780000D03*
X141460000Y-72240000D03*
X144000000Y-72240000D03*
X141460000Y-69700000D03*
X144000000Y-69700000D03*
X141460000Y-67160000D03*
X144000000Y-67160000D03*
X141460000Y-64620000D03*
X144000000Y-64620000D03*
X141460000Y-62080000D03*
X144000000Y-62080000D03*
X141460000Y-59540000D03*
X144000000Y-59540000D03*
X141460000Y-57000000D03*
D13*
X144000000Y-57000000D03*
D12*
X94460000Y-105260000D03*
X97000000Y-105260000D03*
X94460000Y-102720000D03*
X97000000Y-102720000D03*
X94460000Y-100180000D03*
X97000000Y-100180000D03*
X94460000Y-97640000D03*
X97000000Y-97640000D03*
X94460000Y-95100000D03*
X97000000Y-95100000D03*
X94460000Y-92560000D03*
X97000000Y-92560000D03*
X94460000Y-90020000D03*
X97000000Y-90020000D03*
X94460000Y-87480000D03*
X97000000Y-87480000D03*
X94460000Y-84940000D03*
X97000000Y-84940000D03*
X94460000Y-82400000D03*
X97000000Y-82400000D03*
X94460000Y-79860000D03*
X97000000Y-79860000D03*
X94460000Y-77320000D03*
X97000000Y-77320000D03*
X94460000Y-74780000D03*
X97000000Y-74780000D03*
X94460000Y-72240000D03*
X97000000Y-72240000D03*
X94460000Y-69700000D03*
X97000000Y-69700000D03*
X94460000Y-67160000D03*
X97000000Y-67160000D03*
X94460000Y-64620000D03*
X97000000Y-64620000D03*
X94460000Y-62080000D03*
X97000000Y-62080000D03*
X94460000Y-59540000D03*
X97000000Y-59540000D03*
X94460000Y-57000000D03*
D13*
X97000000Y-57000000D03*
D12*
X48460000Y-105260000D03*
X51000000Y-105260000D03*
X48460000Y-102720000D03*
X51000000Y-102720000D03*
X48460000Y-100180000D03*
X51000000Y-100180000D03*
X48460000Y-97640000D03*
X51000000Y-97640000D03*
X48460000Y-95100000D03*
X51000000Y-95100000D03*
X48460000Y-92560000D03*
X51000000Y-92560000D03*
X48460000Y-90020000D03*
X51000000Y-90020000D03*
X48460000Y-87480000D03*
X51000000Y-87480000D03*
X48460000Y-84940000D03*
X51000000Y-84940000D03*
X48460000Y-82400000D03*
X51000000Y-82400000D03*
X48460000Y-79860000D03*
X51000000Y-79860000D03*
X48460000Y-77320000D03*
X51000000Y-77320000D03*
X48460000Y-74780000D03*
X51000000Y-74780000D03*
X48460000Y-72240000D03*
X51000000Y-72240000D03*
X48460000Y-69700000D03*
X51000000Y-69700000D03*
X48460000Y-67160000D03*
X51000000Y-67160000D03*
X48460000Y-64620000D03*
X51000000Y-64620000D03*
X48460000Y-62080000D03*
X51000000Y-62080000D03*
X48460000Y-59540000D03*
X51000000Y-59540000D03*
X48460000Y-57000000D03*
D13*
X51000000Y-57000000D03*
D14*
X232000000Y-50000000D03*
X234500000Y-50000000D03*
X96500000Y-50000000D03*
X94000000Y-50000000D03*
X186000000Y-50000000D03*
X188500000Y-50000000D03*
X143500000Y-50000000D03*
X141000000Y-50000000D03*
X48000000Y-50000000D03*
X50500000Y-50000000D03*
D15*
X36000000Y-43000000D03*
D16*
X36000000Y-37000000D03*
X31300000Y-40000000D03*
D13*
X51000000Y-116000000D03*
D12*
X48460000Y-116000000D03*
M02*
