G04 #@! TF.GenerationSoftware,KiCad,Pcbnew,(5.1.12)-1*
G04 #@! TF.CreationDate,2022-10-05T17:50:00-05:00*
G04 #@! TF.ProjectId,motherboard,6d6f7468-6572-4626-9f61-72642e6b6963,rev?*
G04 #@! TF.SameCoordinates,Original*
G04 #@! TF.FileFunction,Copper,L2,Bot*
G04 #@! TF.FilePolarity,Positive*
%FSLAX46Y46*%
G04 Gerber Fmt 4.6, Leading zero omitted, Abs format (unit mm)*
G04 Created by KiCad (PCBNEW (5.1.12)-1) date 2022-10-05 17:50:00*
%MOMM*%
%LPD*%
G01*
G04 APERTURE LIST*
G04 #@! TA.AperFunction,ComponentPad*
%ADD10O,1.700000X1.700000*%
G04 #@! TD*
G04 #@! TA.AperFunction,ComponentPad*
%ADD11R,1.700000X1.700000*%
G04 #@! TD*
G04 #@! TA.AperFunction,ComponentPad*
%ADD12C,1.600000*%
G04 #@! TD*
G04 #@! TA.AperFunction,ComponentPad*
%ADD13R,2.600000X2.600000*%
G04 #@! TD*
G04 #@! TA.AperFunction,ComponentPad*
%ADD14C,2.600000*%
G04 #@! TD*
G04 #@! TA.AperFunction,Conductor*
%ADD15C,0.250000*%
G04 #@! TD*
G04 APERTURE END LIST*
D10*
X232460000Y-105260000D03*
X235000000Y-105260000D03*
X232460000Y-102720000D03*
X235000000Y-102720000D03*
X232460000Y-100180000D03*
X235000000Y-100180000D03*
X232460000Y-97640000D03*
X235000000Y-97640000D03*
X232460000Y-95100000D03*
X235000000Y-95100000D03*
X232460000Y-92560000D03*
X235000000Y-92560000D03*
X232460000Y-90020000D03*
X235000000Y-90020000D03*
X232460000Y-87480000D03*
X235000000Y-87480000D03*
X232460000Y-84940000D03*
X235000000Y-84940000D03*
X232460000Y-82400000D03*
X235000000Y-82400000D03*
X232460000Y-79860000D03*
X235000000Y-79860000D03*
X232460000Y-77320000D03*
X235000000Y-77320000D03*
X232460000Y-74780000D03*
X235000000Y-74780000D03*
X232460000Y-72240000D03*
X235000000Y-72240000D03*
X232460000Y-69700000D03*
X235000000Y-69700000D03*
X232460000Y-67160000D03*
X235000000Y-67160000D03*
X232460000Y-64620000D03*
X235000000Y-64620000D03*
X232460000Y-62080000D03*
X235000000Y-62080000D03*
X232460000Y-59540000D03*
X235000000Y-59540000D03*
X232460000Y-57000000D03*
D11*
X235000000Y-57000000D03*
D10*
X186460000Y-105260000D03*
X189000000Y-105260000D03*
X186460000Y-102720000D03*
X189000000Y-102720000D03*
X186460000Y-100180000D03*
X189000000Y-100180000D03*
X186460000Y-97640000D03*
X189000000Y-97640000D03*
X186460000Y-95100000D03*
X189000000Y-95100000D03*
X186460000Y-92560000D03*
X189000000Y-92560000D03*
X186460000Y-90020000D03*
X189000000Y-90020000D03*
X186460000Y-87480000D03*
X189000000Y-87480000D03*
X186460000Y-84940000D03*
X189000000Y-84940000D03*
X186460000Y-82400000D03*
X189000000Y-82400000D03*
X186460000Y-79860000D03*
X189000000Y-79860000D03*
X186460000Y-77320000D03*
X189000000Y-77320000D03*
X186460000Y-74780000D03*
X189000000Y-74780000D03*
X186460000Y-72240000D03*
X189000000Y-72240000D03*
X186460000Y-69700000D03*
X189000000Y-69700000D03*
X186460000Y-67160000D03*
X189000000Y-67160000D03*
X186460000Y-64620000D03*
X189000000Y-64620000D03*
X186460000Y-62080000D03*
X189000000Y-62080000D03*
X186460000Y-59540000D03*
X189000000Y-59540000D03*
X186460000Y-57000000D03*
D11*
X189000000Y-57000000D03*
D10*
X141460000Y-105260000D03*
X144000000Y-105260000D03*
X141460000Y-102720000D03*
X144000000Y-102720000D03*
X141460000Y-100180000D03*
X144000000Y-100180000D03*
X141460000Y-97640000D03*
X144000000Y-97640000D03*
X141460000Y-95100000D03*
X144000000Y-95100000D03*
X141460000Y-92560000D03*
X144000000Y-92560000D03*
X141460000Y-90020000D03*
X144000000Y-90020000D03*
X141460000Y-87480000D03*
X144000000Y-87480000D03*
X141460000Y-84940000D03*
X144000000Y-84940000D03*
X141460000Y-82400000D03*
X144000000Y-82400000D03*
X141460000Y-79860000D03*
X144000000Y-79860000D03*
X141460000Y-77320000D03*
X144000000Y-77320000D03*
X141460000Y-74780000D03*
X144000000Y-74780000D03*
X141460000Y-72240000D03*
X144000000Y-72240000D03*
X141460000Y-69700000D03*
X144000000Y-69700000D03*
X141460000Y-67160000D03*
X144000000Y-67160000D03*
X141460000Y-64620000D03*
X144000000Y-64620000D03*
X141460000Y-62080000D03*
X144000000Y-62080000D03*
X141460000Y-59540000D03*
X144000000Y-59540000D03*
X141460000Y-57000000D03*
D11*
X144000000Y-57000000D03*
D10*
X94460000Y-105260000D03*
X97000000Y-105260000D03*
X94460000Y-102720000D03*
X97000000Y-102720000D03*
X94460000Y-100180000D03*
X97000000Y-100180000D03*
X94460000Y-97640000D03*
X97000000Y-97640000D03*
X94460000Y-95100000D03*
X97000000Y-95100000D03*
X94460000Y-92560000D03*
X97000000Y-92560000D03*
X94460000Y-90020000D03*
X97000000Y-90020000D03*
X94460000Y-87480000D03*
X97000000Y-87480000D03*
X94460000Y-84940000D03*
X97000000Y-84940000D03*
X94460000Y-82400000D03*
X97000000Y-82400000D03*
X94460000Y-79860000D03*
X97000000Y-79860000D03*
X94460000Y-77320000D03*
X97000000Y-77320000D03*
X94460000Y-74780000D03*
X97000000Y-74780000D03*
X94460000Y-72240000D03*
X97000000Y-72240000D03*
X94460000Y-69700000D03*
X97000000Y-69700000D03*
X94460000Y-67160000D03*
X97000000Y-67160000D03*
X94460000Y-64620000D03*
X97000000Y-64620000D03*
X94460000Y-62080000D03*
X97000000Y-62080000D03*
X94460000Y-59540000D03*
X97000000Y-59540000D03*
X94460000Y-57000000D03*
D11*
X97000000Y-57000000D03*
D10*
X48460000Y-105260000D03*
X51000000Y-105260000D03*
X48460000Y-102720000D03*
X51000000Y-102720000D03*
X48460000Y-100180000D03*
X51000000Y-100180000D03*
X48460000Y-97640000D03*
X51000000Y-97640000D03*
X48460000Y-95100000D03*
X51000000Y-95100000D03*
X48460000Y-92560000D03*
X51000000Y-92560000D03*
X48460000Y-90020000D03*
X51000000Y-90020000D03*
X48460000Y-87480000D03*
X51000000Y-87480000D03*
X48460000Y-84940000D03*
X51000000Y-84940000D03*
X48460000Y-82400000D03*
X51000000Y-82400000D03*
X48460000Y-79860000D03*
X51000000Y-79860000D03*
X48460000Y-77320000D03*
X51000000Y-77320000D03*
X48460000Y-74780000D03*
X51000000Y-74780000D03*
X48460000Y-72240000D03*
X51000000Y-72240000D03*
X48460000Y-69700000D03*
X51000000Y-69700000D03*
X48460000Y-67160000D03*
X51000000Y-67160000D03*
X48460000Y-64620000D03*
X51000000Y-64620000D03*
X48460000Y-62080000D03*
X51000000Y-62080000D03*
X48460000Y-59540000D03*
X51000000Y-59540000D03*
X48460000Y-57000000D03*
D11*
X51000000Y-57000000D03*
D12*
X232000000Y-50000000D03*
X234500000Y-50000000D03*
X96500000Y-50000000D03*
X94000000Y-50000000D03*
X186000000Y-50000000D03*
X188500000Y-50000000D03*
X143500000Y-50000000D03*
X141000000Y-50000000D03*
X48000000Y-50000000D03*
X50500000Y-50000000D03*
D13*
X36000000Y-43000000D03*
D14*
X36000000Y-37000000D03*
X31300000Y-40000000D03*
D11*
X51000000Y-116000000D03*
D10*
X48460000Y-116000000D03*
D15*
X144000000Y-59540000D02*
X144000000Y-58364900D01*
X141000000Y-50000000D02*
X142824800Y-51824800D01*
X142824800Y-51824800D02*
X142824800Y-58020800D01*
X142824800Y-58020800D02*
X143168900Y-58364900D01*
X143168900Y-58364900D02*
X144000000Y-58364900D01*
X97000000Y-59540000D02*
X97000000Y-58364900D01*
X97000000Y-58364900D02*
X96192100Y-58364900D01*
X96192100Y-58364900D02*
X95824900Y-57997700D01*
X95824900Y-57997700D02*
X95824900Y-51824900D01*
X95824900Y-51824900D02*
X94000000Y-50000000D01*
X48000000Y-50000000D02*
X44625100Y-50000000D01*
X44625100Y-50000000D02*
X37625100Y-43000000D01*
X51000000Y-58364900D02*
X50168900Y-58364900D01*
X50168900Y-58364900D02*
X49824800Y-58020800D01*
X49824800Y-58020800D02*
X49824800Y-51824800D01*
X49824800Y-51824800D02*
X48000000Y-50000000D01*
X36000000Y-43000000D02*
X37625100Y-43000000D01*
X235000000Y-59540000D02*
X233824900Y-59540000D01*
X232000000Y-50000000D02*
X231258000Y-50742000D01*
X231258000Y-50742000D02*
X231258000Y-57462100D01*
X231258000Y-57462100D02*
X232065900Y-58270000D01*
X232065900Y-58270000D02*
X232920100Y-58270000D01*
X232920100Y-58270000D02*
X233824900Y-59174800D01*
X233824900Y-59174800D02*
X233824900Y-59540000D01*
X189000000Y-59540000D02*
X187824900Y-59540000D01*
X186000000Y-50000000D02*
X185272500Y-50727500D01*
X185272500Y-50727500D02*
X185272500Y-57476600D01*
X185272500Y-57476600D02*
X186065900Y-58270000D01*
X186065900Y-58270000D02*
X186920100Y-58270000D01*
X186920100Y-58270000D02*
X187824900Y-59174800D01*
X187824900Y-59174800D02*
X187824900Y-59540000D01*
X51000000Y-59540000D02*
X51000000Y-58364900D01*
X51000000Y-59540000D02*
X51000000Y-60715100D01*
X51000000Y-116000000D02*
X51000000Y-114824900D01*
X51000000Y-114824900D02*
X52194200Y-113630700D01*
X52194200Y-113630700D02*
X52194200Y-61544100D01*
X52194200Y-61544100D02*
X51365200Y-60715100D01*
X51365200Y-60715100D02*
X51000000Y-60715100D01*
X235000000Y-57000000D02*
X235000000Y-55824900D01*
X235000000Y-55824900D02*
X234500000Y-55324900D01*
X234500000Y-55324900D02*
X234500000Y-50000000D01*
X189000000Y-57000000D02*
X189000000Y-55824900D01*
X189000000Y-55824900D02*
X188500000Y-55324900D01*
X188500000Y-55324900D02*
X188500000Y-50000000D01*
X96500000Y-50000000D02*
X97000000Y-50500000D01*
X97000000Y-50500000D02*
X97000000Y-57000000D01*
X144000000Y-57000000D02*
X144000000Y-55824900D01*
X143500000Y-50000000D02*
X143500000Y-55324900D01*
X143500000Y-55324900D02*
X144000000Y-55824900D01*
X36000000Y-37000000D02*
X37500000Y-37000000D01*
X37500000Y-37000000D02*
X50500000Y-50000000D01*
X48460000Y-57000000D02*
X48460000Y-58175100D01*
X48460000Y-116000000D02*
X48460000Y-114824900D01*
X48460000Y-114824900D02*
X49673100Y-113611800D01*
X49673100Y-113611800D02*
X49673100Y-59023000D01*
X49673100Y-59023000D02*
X48825200Y-58175100D01*
X48825200Y-58175100D02*
X48460000Y-58175100D01*
M02*
